<svg width="60" height="86" viewBox="0 0 60 86" fill="none" xmlns="http://www.w3.org/2000/svg">
<rect x="0.594727" width="59.1982" height="62.0627" rx="16" fill="#F09E54"/>
<path d="M19.7113 80.2555L18.4333 76.9135C18.3413 76.6855 18.2493 76.3975 18.1573 76.0495C18.1133 76.2215 18.0673 76.3815 18.0193 76.5295C17.9753 76.6775 17.9313 76.8095 17.8873 76.9255L16.6153 80.2555H19.7113ZM22.2373 83.4655H21.2533C21.1413 83.4655 21.0493 83.4375 20.9773 83.3815C20.9053 83.3255 20.8533 83.2535 20.8213 83.1655L20.0593 81.1675H16.2613L15.4993 83.1655C15.4713 83.2415 15.4193 83.3115 15.3433 83.3755C15.2673 83.4355 15.1753 83.4655 15.0673 83.4655H14.0833L17.5153 74.8495H18.8053L22.2373 83.4655ZM24.1476 78.2155C24.2796 78.0755 24.4176 77.9475 24.5616 77.8315C24.7056 77.7155 24.8576 77.6175 25.0176 77.5375C25.1816 77.4535 25.3556 77.3895 25.5396 77.3455C25.7276 77.2975 25.9276 77.2735 26.1396 77.2735C26.4756 77.2735 26.7696 77.3295 27.0216 77.4415C27.2776 77.5535 27.4916 77.7115 27.6636 77.9155C27.8356 78.1155 27.9656 78.3575 28.0536 78.6415C28.1416 78.9255 28.1856 79.2395 28.1856 79.5835V83.4655H27.0096V79.5835C27.0096 79.1475 26.9096 78.8095 26.7096 78.5695C26.5096 78.3255 26.2036 78.2035 25.7916 78.2035C25.4916 78.2035 25.2096 78.2755 24.9456 78.4195C24.6856 78.5595 24.4436 78.7515 24.2196 78.9955V83.4655H23.0496V77.3695H23.7516C23.9156 77.3695 24.0176 77.4475 24.0576 77.6035L24.1476 78.2155ZM31.9064 80.4235C32.1144 80.4235 32.2964 80.3955 32.4524 80.3395C32.6124 80.2835 32.7444 80.2055 32.8484 80.1055C32.9564 80.0015 33.0364 79.8775 33.0884 79.7335C33.1444 79.5895 33.1724 79.4315 33.1724 79.2595C33.1724 78.9075 33.0644 78.6275 32.8484 78.4195C32.6364 78.2075 32.3224 78.1015 31.9064 78.1015C31.4944 78.1015 31.1804 78.2075 30.9644 78.4195C30.7524 78.6275 30.6464 78.9075 30.6464 79.2595C30.6464 79.4315 30.6724 79.5895 30.7244 79.7335C30.7804 79.8735 30.8604 79.9955 30.9644 80.0995C31.0724 80.1995 31.2044 80.2795 31.3604 80.3395C31.5204 80.3955 31.7024 80.4235 31.9064 80.4235ZM33.7724 83.7835C33.7724 83.6395 33.7324 83.5255 33.6524 83.4415C33.5724 83.3535 33.4624 83.2855 33.3224 83.2375C33.1864 83.1855 33.0264 83.1495 32.8424 83.1295C32.6584 83.1055 32.4644 83.0875 32.2604 83.0755C32.0604 83.0635 31.8544 83.0535 31.6424 83.0455C31.4304 83.0335 31.2264 83.0135 31.0304 82.9855C30.8224 83.0895 30.6504 83.2155 30.5144 83.3635C30.3824 83.5115 30.3164 83.6855 30.3164 83.8855C30.3164 84.0135 30.3484 84.1335 30.4124 84.2455C30.4804 84.3575 30.5824 84.4535 30.7184 84.5335C30.8584 84.6175 31.0324 84.6815 31.2404 84.7255C31.4524 84.7735 31.7044 84.7975 31.9964 84.7975C32.2844 84.7975 32.5384 84.7715 32.7584 84.7195C32.9784 84.6715 33.1624 84.6015 33.3104 84.5095C33.4624 84.4215 33.5764 84.3155 33.6524 84.1915C33.7324 84.0675 33.7724 83.9315 33.7724 83.7835ZM34.9604 77.5975V78.0355C34.9604 78.1795 34.8704 78.2695 34.6904 78.3055L34.0364 78.4015C34.0924 78.5255 34.1364 78.6575 34.1684 78.7975C34.2004 78.9335 34.2164 79.0775 34.2164 79.2295C34.2164 79.5295 34.1584 79.8015 34.0424 80.0455C33.9264 80.2855 33.7664 80.4915 33.5624 80.6635C33.3584 80.8355 33.1144 80.9675 32.8304 81.0595C32.5504 81.1515 32.2424 81.1975 31.9064 81.1975C31.6304 81.1975 31.3724 81.1675 31.1324 81.1075C31.0124 81.1795 30.9204 81.2595 30.8564 81.3475C30.7964 81.4315 30.7664 81.5155 30.7664 81.5995C30.7664 81.7395 30.8244 81.8435 30.9404 81.9115C31.0604 81.9795 31.2144 82.0295 31.4024 82.0615C31.5944 82.0895 31.8124 82.1075 32.0564 82.1155C32.3044 82.1235 32.5544 82.1375 32.8064 82.1575C33.0624 82.1735 33.3124 82.2055 33.5564 82.2535C33.8044 82.2975 34.0224 82.3715 34.2104 82.4755C34.4024 82.5755 34.5564 82.7155 34.6724 82.8955C34.7924 83.0715 34.8524 83.3015 34.8524 83.5855C34.8524 83.8495 34.7864 84.1055 34.6544 84.3535C34.5264 84.6015 34.3384 84.8215 34.0904 85.0135C33.8424 85.2055 33.5404 85.3595 33.1844 85.4755C32.8284 85.5915 32.4244 85.6495 31.9724 85.6495C31.5204 85.6495 31.1264 85.6055 30.7904 85.5175C30.4584 85.4295 30.1804 85.3115 29.9564 85.1635C29.7364 85.0155 29.5704 84.8435 29.4584 84.6475C29.3504 84.4515 29.2964 84.2475 29.2964 84.0355C29.2964 83.7395 29.3884 83.4895 29.5724 83.2855C29.7564 83.0775 30.0104 82.9155 30.3344 82.7995C30.1584 82.7195 30.0184 82.6115 29.9144 82.4755C29.8104 82.3355 29.7584 82.1515 29.7584 81.9235C29.7584 81.8355 29.7744 81.7455 29.8064 81.6535C29.8384 81.5575 29.8864 81.4635 29.9504 81.3715C30.0184 81.2755 30.1004 81.1855 30.1964 81.1015C30.2964 81.0175 30.4104 80.9415 30.5384 80.8735C30.2384 80.7055 30.0024 80.4835 29.8304 80.2075C29.6584 79.9275 29.5724 79.6015 29.5724 79.2295C29.5724 78.9295 29.6304 78.6595 29.7464 78.4195C29.8624 78.1795 30.0224 77.9735 30.2264 77.8015C30.4344 77.6295 30.6804 77.4975 30.9644 77.4055C31.2524 77.3135 31.5664 77.2675 31.9064 77.2675C32.4344 77.2675 32.8884 77.3775 33.2684 77.5975H34.9604ZM37.1379 78.5395C37.3339 78.1395 37.5699 77.8255 37.8459 77.5975C38.1219 77.3695 38.4539 77.2555 38.8419 77.2555C38.9739 77.2555 39.0979 77.2715 39.2139 77.3035C39.3339 77.3315 39.4379 77.3755 39.5259 77.4355L39.4479 78.3175C39.4199 78.4255 39.3539 78.4795 39.2499 78.4795C39.1939 78.4795 39.1099 78.4695 38.9979 78.4495C38.8859 78.4255 38.7659 78.4135 38.6379 78.4135C38.4499 78.4135 38.2839 78.4415 38.1399 78.4975C37.9959 78.5495 37.8659 78.6295 37.7499 78.7375C37.6379 78.8415 37.5379 78.9715 37.4499 79.1275C37.3619 79.2795 37.2799 79.4535 37.2039 79.6495V83.4655H36.0339V77.3695H36.7059C36.8339 77.3695 36.9199 77.3935 36.9639 77.4415C37.0119 77.4855 37.0459 77.5655 37.0659 77.6815L37.1379 78.5395ZM45.7565 77.3695L42.3725 85.2355C42.3365 85.3235 42.2885 85.3915 42.2285 85.4395C42.1685 85.4875 42.0805 85.5115 41.9645 85.5115H41.0945L42.2105 83.0815L39.7085 77.3695H40.7285C40.8285 77.3695 40.9065 77.3935 40.9625 77.4415C41.0185 77.4895 41.0585 77.5435 41.0825 77.6035L42.6305 81.2635C42.6625 81.3555 42.6925 81.4495 42.7205 81.5455C42.7525 81.6375 42.7785 81.7295 42.7985 81.8215C42.8265 81.7255 42.8565 81.6315 42.8885 81.5395C42.9205 81.4435 42.9545 81.3495 42.9905 81.2575L44.4845 77.6035C44.5125 77.5355 44.5565 77.4795 44.6165 77.4355C44.6765 77.3915 44.7445 77.3695 44.8205 77.3695H45.7565Z" fill="#828282"/>
<g clip-path="url(#clip0_28_263)">
<path d="M46.5535 31.4788C46.5535 40.4074 39.3172 47.6437 30.3887 47.6437C21.4602 47.6437 14.2239 40.4074 14.2239 31.4788C14.2239 22.5503 21.4602 15.314 30.3887 15.314C39.3172 15.314 46.5535 22.5503 46.5535 31.4788ZM35.6865 38.8856C34.6698 37.7553 32.8955 36.5303 30.3887 36.5303C27.8819 36.5303 26.1075 37.7553 25.0909 38.8856C24.7184 39.3024 24.7499 39.8833 25.1667 40.3127C25.5834 40.6852 26.1644 40.6536 26.5937 40.2369C27.3325 39.416 28.5891 38.5509 30.3319 38.5509C32.1883 38.5509 33.4448 39.416 34.1836 40.2369C34.5562 40.6536 35.1939 40.6852 35.6107 40.3127C36.0274 39.8833 36.059 39.3024 35.6865 38.8856ZM25.3624 32.4891C26.4738 32.4891 27.383 31.5862 27.383 30.4685C27.383 30.3738 27.3767 30.2791 27.3641 30.1907L28.0461 30.418C28.5765 30.538 29.1511 30.3044 29.3279 29.7803C29.4478 29.2499 29.2142 28.6753 28.6901 28.4985L22.6283 26.4778C22.0979 26.301 21.5233 26.5915 21.3465 27.1156C21.1697 27.646 21.4602 28.2206 21.9842 28.3974L23.9291 29.0415C23.5628 29.4077 23.3418 29.9129 23.3418 30.4685C23.3418 31.5862 24.2448 32.4891 25.3624 32.4891ZM36.8862 29.0289L38.7931 28.3974C39.3172 28.2206 39.5509 27.646 39.4309 27.1156C39.2541 26.5915 38.6795 26.301 38.1491 26.4778L32.0873 28.4985C31.5632 28.6753 31.2727 29.2499 31.4495 29.7803C31.6263 30.3044 32.2009 30.538 32.7313 30.418L33.4638 30.1718C33.4512 30.2665 33.4448 30.3675 33.4448 30.4685C33.4448 31.5862 34.3478 32.4891 35.4655 32.4891C36.5768 32.4891 37.4861 31.5862 37.4861 30.4685C37.4861 29.9066 37.2524 29.3951 36.8862 29.0289Z" fill="white"/>
</g>
<defs>
<clipPath id="clip0_28_263">
<rect width="32.3296" height="32.3296" fill="white" transform="translate(14.2239 15.314)"/>
</clipPath>
</defs>
</svg>
