<svg width="21" height="24" viewBox="0 0 21 24" fill="none" xmlns="http://www.w3.org/2000/svg">
<path fill-rule="evenodd" clip-rule="evenodd" d="M13.5874 3.89625C14.3701 2.88585 14.9634 1.45774 14.7488 0C13.4695 0.0889039 11.9742 0.907385 11.1017 1.97423C10.3064 2.94089 9.65273 4.37887 9.90802 5.77452C11.3065 5.81827 12.7499 4.98003 13.5874 3.89625ZM20.5 17.6086C19.9403 18.8561 19.671 19.4135 18.95 20.5185C17.9442 22.0609 16.5261 23.9815 14.7671 23.9956C13.2058 24.0125 12.8032 22.9725 10.6837 22.9852C8.56421 22.9965 8.12235 24.0153 6.55831 23.9998C4.80069 23.9843 3.45688 22.2514 2.45113 20.709C-0.36274 16.3992 -0.658715 11.3402 1.07646 8.64908C2.31086 6.73835 4.25784 5.6207 6.08699 5.6207C7.94841 5.6207 9.11969 6.64803 10.6613 6.64803C12.1566 6.64803 13.067 5.61788 15.2201 5.61788C16.8501 5.61788 18.5769 6.51115 19.8057 8.05215C15.777 10.2733 16.4293 16.0606 20.5 17.6086Z" fill="#0B0B0A"/>
</svg>
