<svg width="44" height="44" viewBox="0 0 44 44" fill="none" xmlns="http://www.w3.org/2000/svg">
<circle cx="22" cy="22" r="22" fill="#0C9BE2"/>
<path d="M29.3296 22.342C29.3253 22.69 29.0632 22.9744 28.7271 23.0158L28.6337 23.0209L14.8847 22.8511C14.5051 22.8464 14.2011 22.5348 14.2058 22.1551C14.2101 21.8071 14.4723 21.5227 14.8084 21.4813L14.9017 21.4762L28.6507 21.646C29.0304 21.6507 29.3343 21.9623 29.3296 22.342Z" fill="white"/>
<path d="M20.8615 27.2729C21.1273 27.5441 21.1228 27.9794 20.8516 28.2451C20.6051 28.4867 20.2229 28.505 19.9558 28.3026L19.8794 28.2352L14.4022 22.6451C14.1599 22.3978 14.1423 22.0143 14.3464 21.7472L14.4142 21.6709L20.0279 16.2169C20.3002 15.9523 20.7355 15.9586 21 16.2309C21.2406 16.4785 21.2572 16.8607 21.0537 17.1269L20.986 17.2031L15.8678 22.1763L20.8615 27.2729Z" fill="white"/>
</svg>
