<svg width="283" height="345" viewBox="0 0 283 345" fill="none" xmlns="http://www.w3.org/2000/svg">
<path opacity="0.18" d="M269.665 289.993C260.605 303.793 247.915 314.903 233.995 323.823L231.395 325.463C221.045 331.803 210.045 337.123 198.215 339.923C185.965 342.823 173.215 342.923 160.655 343.063C137.555 343.263 114.355 342.793 91.3354 344.463C73.1454 345.793 57.3354 335.843 45.3354 322.583C44.8354 322.033 44.3354 321.463 43.8654 320.903C33.1354 308.473 25.7154 293.543 18.7454 278.663C10.1554 260.343 1.94544 241.353 0.325442 221.203C-1.00456 204.673 2.15544 188.123 2.40544 171.543C2.71544 150.953 -1.46456 130.323 0.865443 109.853C2.86544 91.9426 9.86544 74.8526 18.8654 59.2326C26.8654 45.2826 36.5854 32.1226 49.0954 22.0426C63.7492 10.4433 81.3151 3.10484 99.8654 0.832574C142.345 -4.63743 187.105 17.2626 208.825 54.2626C229.585 89.5726 229.365 133.803 247.695 170.433C259.375 193.773 278.595 214.263 282.165 240.113C284.565 257.433 279.295 275.343 269.665 289.993Z" fill="#68E1FD" fill-opacity="0.5"/>
<path opacity="0.54" d="M233.985 323.823L231.385 325.463C221.045 331.803 210.045 337.123 198.215 339.923C185.965 342.823 173.215 342.923 160.655 343.062C137.555 343.263 114.355 342.793 91.3352 344.463C73.1452 345.793 57.3352 335.843 45.3352 322.583C44.8352 322.033 44.3352 321.463 43.8652 320.903C65.0952 314.243 97.9552 309.963 134.865 309.963C176.855 309.963 213.655 315.513 233.985 323.823Z" fill="#68E1FD"/>
<path d="M148.646 302.393L149.646 312.273C149.646 312.273 145.866 317.993 140.926 318.363C135.986 318.733 134.306 316.363 134.306 316.363L135.116 301.833" fill="#F7AD7E"/>
<path d="M134.256 316.363L134.586 310.533L149.056 306.633L149.596 312.273C149.596 312.273 145.816 317.993 140.876 318.363C135.936 318.733 134.256 316.363 134.256 316.363Z" fill="white"/>
<path d="M102.505 300.263L101.445 313.543C101.445 313.543 105.325 319.423 110.395 319.803C115.465 320.183 117.195 317.743 117.195 317.743L116.365 302.823" fill="#F7AD7E"/>
<path d="M117.195 317.783L116.865 311.783L101.995 307.783L101.445 313.563C101.445 313.563 105.325 319.443 110.395 319.823C115.465 320.203 117.195 317.783 117.195 317.783Z" fill="white"/>
<path d="M96.7251 173.723C96.7251 173.723 95.8351 188.183 98.0551 231.043C100.275 273.903 100.935 300.523 100.935 300.523C100.935 300.523 103.125 305.603 110.505 305.703C117.885 305.803 118.385 302.703 118.385 302.703L125.595 192.823L133.125 304.953C133.125 304.953 142.785 306.693 149.695 302.873C154.595 300.153 148.605 173.593 148.605 173.593C148.605 173.593 124.925 186.603 96.7251 173.723Z" fill="#3F3D56"/>
<path d="M114.565 81.6426C114.565 81.6426 94.9453 91.1226 94.4953 94.2626C94.0453 97.4026 96.7253 173.753 96.7253 173.753C96.7253 173.753 103.085 182.013 122.595 182.013C142.595 182.013 147.725 176.303 148.595 173.643C149.465 170.983 152.675 94.8526 152.235 91.6426C151.795 88.4326 133.695 81.7726 133.695 81.7726L114.565 81.6426Z" fill="#F3FCFF"/>
<path d="M136.796 111.113L135.046 110.863C135.686 106.273 136.896 97.1025 136.896 95.2825C136.896 93.4625 135.965 85.4925 131.635 81.5325C130.707 80.6726 129.603 80.0244 128.4 79.6325C127.196 79.2406 125.922 79.1144 124.665 79.2625C114.215 80.1825 111.596 87.0925 111.426 87.5725C110.775 90.1605 110.281 92.7852 109.945 95.4325H108.146C108.483 92.6295 108.997 89.8506 109.686 87.1125V87.0526C109.796 86.7025 112.536 78.5225 124.486 77.4725C125.984 77.2989 127.503 77.4512 128.937 77.9189C130.371 78.3866 131.687 79.1588 132.796 80.1825C137.646 84.6325 138.635 93.1826 138.635 95.2626C138.655 97.6826 136.866 110.573 136.796 111.113Z" fill="#68E1FD"/>
<path d="M136.796 111.113L135.046 110.863C135.686 106.273 136.896 97.1025 136.896 95.2825C136.896 93.4625 135.965 85.4925 131.635 81.5325C130.707 80.6726 129.603 80.0244 128.4 79.6325C127.196 79.2406 125.922 79.1144 124.665 79.2625C114.215 80.1825 111.596 87.0925 111.426 87.5725C110.775 90.1605 110.281 92.7852 109.945 95.4325H108.146C108.483 92.6295 108.997 89.8506 109.686 87.1125V87.0526C109.796 86.7025 112.536 78.5225 124.486 77.4725C125.984 77.2989 127.503 77.4512 128.937 77.9189C130.371 78.3866 131.687 79.1588 132.796 80.1825C137.646 84.6325 138.635 93.1826 138.635 95.2626C138.655 97.6826 136.866 110.573 136.796 111.113Z" fill="url(#paint0_linear_453_3963)"/>
<path d="M136.065 176.533L136.545 221.463L156.975 219.433L149.135 148.153L136.065 176.533Z" fill="#F3FCFF"/>
<path d="M115.746 81.6025L115.506 183.263C122.391 185.341 129.812 184.697 136.236 181.463L130.946 81.6025L123.286 83.4025L115.746 81.6025Z" fill="#68E1FD"/>
<path d="M115.746 81.6025L115.506 183.263C122.391 185.341 129.812 184.697 136.236 181.463L130.946 81.6025L123.286 83.4025L115.746 81.6025Z" fill="#68E1FD"/>
<path d="M115.876 70.1226C115.876 70.1226 115.756 76.9726 115.816 81.9826C115.876 85.7226 116.966 92.8926 123.726 92.8926C130.486 92.8926 131.276 83.7526 131.156 81.9826C131.348 79.3194 131.348 76.6458 131.156 73.9826C130.716 69.6626 116.256 67.0926 115.876 70.1226Z" fill="#F7AD7E"/>
<path d="M115.915 77.9925C115.915 77.9925 116.695 86.6625 122.215 85.5425C124.421 85.1518 126.452 84.0857 128.027 82.4915C129.601 80.8973 130.642 78.8536 131.005 76.6425C131.215 75.6901 131.169 74.6991 130.872 73.77C130.575 72.841 130.038 72.0069 129.315 71.3525L115.915 77.9925Z" fill="url(#paint1_linear_453_3963)"/>
<path d="M134.705 70.6525C132.575 76.9125 126.855 80.7925 122.845 81.1625C118.835 81.5325 114.455 77.8725 112.695 73.3125C110.935 68.7525 110.695 51.2425 110.695 51.2425C110.641 50.0782 110.871 48.918 111.365 47.8625C111.925 46.5925 112.945 42.7625 114.365 41.6525C120.736 39.9912 127.443 40.1366 133.735 42.0725C135.065 43.2325 135.735 46.9325 136.035 47.6125C136.173 48.0278 136.264 48.4571 136.305 48.8925C136.815 53.1225 136.575 65.1725 134.705 70.6525Z" fill="#F7AD7E"/>
<path d="M110.515 55.9225C110.1 55.6556 109.6 55.5519 109.113 55.6312C108.625 55.7106 108.185 55.9675 107.875 56.3525C107.626 56.8608 107.525 57.4294 107.585 57.9925C107.592 58.5618 107.639 59.1299 107.725 59.6925C108.059 61.2054 108.815 62.5925 109.905 63.6925C110.159 63.9871 110.459 64.2372 110.795 64.4325C110.966 64.5287 111.154 64.5882 111.349 64.6072C111.543 64.6261 111.74 64.6041 111.925 64.5425C112.216 64.3821 112.46 64.1498 112.635 63.8679C112.81 63.5861 112.91 63.264 112.925 62.9325C113.154 61.5335 113.027 60.0994 112.555 58.7625C112.2 57.6204 111.484 56.6241 110.515 55.9225Z" fill="#F7AD7E"/>
<path d="M137.045 55.7025C137.46 55.4345 137.958 55.3292 138.446 55.4067C138.933 55.4842 139.375 55.7392 139.685 56.1225C139.943 56.6318 140.044 57.206 139.975 57.7725C139.979 58.3389 139.932 58.9045 139.835 59.4625C139.503 60.9756 138.747 62.3629 137.655 63.4625C137.402 63.7568 137.101 64.0068 136.765 64.2025C136.595 64.2988 136.407 64.3583 136.212 64.3772C136.017 64.3962 135.821 64.3741 135.635 64.3125C135.344 64.1529 135.099 63.9208 134.924 63.6387C134.749 63.3567 134.649 63.0342 134.635 62.7025C134.403 61.301 134.527 59.8637 134.995 58.5225C135.353 57.3841 136.073 56.3938 137.045 55.7025Z" fill="#F7AD7E"/>
<path d="M115.456 176.533L114.786 221.463L85.7256 219.433L96.8756 148.153L115.456 176.533Z" fill="#F3FCFF"/>
<path d="M95.3056 134.533L103.866 115.833L99.5856 219.833L85.7256 219.493C85.7256 219.493 96.5956 164.313 95.3056 134.533Z" fill="url(#paint2_linear_453_3963)"/>
<path d="M150.766 132.263L142.206 113.573L141.926 220.783L156.976 219.433C156.976 219.433 149.476 162.063 150.766 132.263Z" fill="url(#paint3_linear_453_3963)"/>
<path d="M94.9057 93.5026C94.9057 93.5026 80.2857 129.083 78.6257 135.263C76.9657 141.443 82.1257 160.093 84.1557 156.893C90.3857 147.053 96.4756 131.683 96.4756 131.683L94.9057 93.5026Z" fill="#F3FCFF"/>
<path d="M150.985 89.5326C150.985 89.5326 165.595 125.123 167.265 131.293C168.935 137.463 163.755 156.123 161.735 152.923C155.495 143.083 149.415 127.713 149.415 127.713L150.985 89.5326Z" fill="#F3FCFF"/>
<path d="M153.976 138.023C153.566 138.443 141.926 173.273 141.926 173.273C141.926 173.273 149.446 173.273 154.986 173.723C154.986 173.723 166.416 147.093 166.886 144.723C167.356 142.353 170.826 129.463 163.096 127.913C155.366 126.363 153.976 138.023 153.976 138.023Z" fill="#F3FCFF"/>
<path d="M91.915 141.992C92.315 142.412 103.915 177.242 103.915 177.242C103.915 177.242 96.385 177.242 90.845 177.692C90.845 177.692 79.425 151.062 78.945 148.692C78.465 146.322 75.015 133.432 82.735 131.882C90.455 130.332 91.915 141.992 91.915 141.992Z" fill="#F3FCFF"/>
<path d="M136.466 56.3625C136.466 56.0825 136.366 55.8025 136.306 55.5225C135.942 54.024 135.443 52.5613 134.816 51.1525C133.816 48.7625 132.886 46.3825 131.926 43.9925C131.776 43.6125 131.616 43.2425 131.466 42.8625V42.7925C131.474 42.8077 131.479 42.825 131.479 42.8425C131.479 42.8601 131.474 42.8773 131.466 42.8925C131.308 43.0578 131.112 43.1815 130.896 43.2525C129.593 43.7417 128.256 44.1328 126.896 44.4225C125.115 44.662 123.304 44.5327 121.576 44.0425C120.086 43.6125 118.576 42.3425 116.996 42.4125H116.756C115.948 42.4489 115.178 42.7604 114.572 43.2952C113.966 43.83 113.562 44.556 113.426 45.3525C113.109 49.2231 112.275 53.0337 110.946 56.6825C109.246 55.5325 109.066 53.2525 109.056 51.2825C109.046 49.3125 109.056 47.2025 109.056 45.1525C108.983 44.1639 109.095 43.1703 109.386 42.2225C109.543 41.7316 109.825 41.2897 110.203 40.9394C110.582 40.5891 111.044 40.3422 111.546 40.2225C112.366 40.0825 113.306 40.3525 114.006 39.9025C114.269 39.6626 114.481 39.371 114.627 39.0459C114.773 38.7207 114.851 38.369 114.856 38.0125C114.983 36.5593 115.52 35.1721 116.406 34.0125C118.346 31.7225 122.046 31.5725 124.976 32.5325C127.906 33.4925 130.436 35.3025 133.306 36.4125C135.306 37.1625 137.486 37.6725 138.736 39.2725C139.302 40.1745 139.642 41.2005 139.726 42.2625C140.155 44.7113 140.087 47.2214 139.527 49.6436C138.967 52.0658 137.926 54.3507 136.466 56.3625Z" fill="#3F3D56"/>
<path d="M137.096 54.4426C136.913 54.8553 136.644 55.2238 136.306 55.5226C135.942 54.024 135.443 52.5614 134.816 51.1526C133.702 48.3926 132.586 45.6293 131.466 42.8626C132.119 42.4725 132.837 42.2048 133.586 42.0726C134.082 41.9825 134.592 42.0011 135.081 42.1271C135.569 42.2531 136.025 42.4836 136.416 42.8026C136.988 43.3862 137.38 44.1222 137.546 44.9226C137.84 46.2351 137.977 47.5778 137.956 48.9226C138.144 50.8058 137.848 52.706 137.096 54.4426Z" fill="url(#paint4_linear_453_3963)"/>
<path d="M135.466 41.6725C134.16 42.2344 132.962 43.0195 131.926 43.9925C131.776 43.6125 131.616 43.2425 131.466 42.8625V42.7925C131.475 42.8077 131.479 42.8249 131.479 42.8425C131.479 42.8601 131.475 42.8773 131.466 42.8925C131.309 43.0578 131.113 43.1815 130.896 43.2525C129.594 43.7417 128.257 44.1328 126.896 44.4225C125.115 44.662 123.304 44.5326 121.576 44.0425C120.086 43.6125 118.576 42.3425 116.996 42.4125H116.756C116.836 42.1725 116.936 41.9125 117.026 41.6325C117.786 39.1725 118.286 37.0425 121.106 36.2725C122.777 35.8636 124.537 36.0256 126.106 36.7325C127.616 37.3725 129.006 38.3725 130.626 38.6325C131.602 38.6605 132.573 38.7811 133.526 38.9925C134.063 39.2201 134.527 39.59 134.869 40.0623C135.211 40.5347 135.417 41.0914 135.466 41.6725Z" fill="url(#paint5_linear_453_3963)"/>
<path d="M93.585 177.543L94.935 183.283L105.235 182.783L102.535 177.203L93.585 177.543Z" fill="#F7AD7E"/>
<path d="M143.836 173.153L140.796 180.583L150.596 181.153L151.836 173.493L143.836 173.153Z" fill="#F7AD7E"/>
<path d="M108.705 182.613H92.8252V185.433H108.705V182.613Z" fill="#F3FCFF"/>
<path d="M152.465 180.633H137.865V183.283H152.465V180.633Z" fill="#F3FCFF"/>
<path d="M114.635 115.383H110.285V113.583H113.125C113.865 108.813 114.485 98.3125 109.945 96.5125C109.495 96.3123 108.991 96.2695 108.514 96.391C108.037 96.5126 107.614 96.7914 107.315 97.1825C104.255 100.453 103.755 110.323 104.235 111.563C104.46 111.796 104.733 111.978 105.035 112.096C105.337 112.213 105.662 112.263 105.985 112.243L106.255 114.023C105.626 114.09 104.99 114.008 104.399 113.782C103.808 113.556 103.279 113.193 102.855 112.723C101.485 111.213 102.505 100.873 105.345 96.7725C106.755 94.7725 108.625 94.0525 110.615 94.8425C117.745 97.6725 114.895 113.953 114.765 114.643L114.635 115.383Z" fill="#68E1FD"/>
<path d="M114.635 115.383H110.285V113.583H113.125C113.865 108.813 114.485 98.3125 109.945 96.5125C109.495 96.3123 108.991 96.2695 108.514 96.391C108.037 96.5126 107.614 96.7914 107.315 97.1825C104.255 100.453 103.755 110.323 104.235 111.563C104.46 111.796 104.733 111.978 105.035 112.096C105.337 112.213 105.662 112.263 105.985 112.243L106.255 114.023C105.626 114.09 104.99 114.008 104.399 113.782C103.808 113.556 103.279 113.193 102.855 112.723C101.485 111.213 102.505 100.873 105.345 96.7725C106.755 94.7725 108.625 94.0525 110.615 94.8425C117.745 97.6725 114.895 113.953 114.765 114.643L114.635 115.383Z" fill="url(#paint6_linear_453_3963)"/>
<path d="M106.885 113.299C106.962 112.502 106.542 111.81 105.949 111.753C105.355 111.696 104.812 112.296 104.735 113.093C104.659 113.89 105.078 114.582 105.672 114.639C106.265 114.696 106.809 114.096 106.885 113.299Z" fill="#68E1FD"/>
<path d="M111.159 114.592C111.235 113.795 110.816 113.102 110.222 113.045C109.628 112.988 109.085 113.588 109.009 114.386C108.932 115.183 109.351 115.875 109.945 115.932C110.539 115.989 111.082 115.389 111.159 114.592Z" fill="#68E1FD"/>
<path d="M106.885 113.299C106.962 112.502 106.542 111.81 105.949 111.753C105.355 111.696 104.812 112.296 104.735 113.093C104.659 113.89 105.078 114.582 105.672 114.639C106.265 114.696 106.809 114.096 106.885 113.299Z" fill="url(#paint7_linear_453_3963)"/>
<path d="M111.159 114.592C111.235 113.795 110.816 113.102 110.222 113.045C109.628 112.988 109.085 113.588 109.009 114.386C108.932 115.183 109.351 115.875 109.945 115.932C110.539 115.989 111.082 115.389 111.159 114.592Z" fill="url(#paint8_linear_453_3963)"/>
<path d="M136.125 115.472C137.931 115.472 139.395 114.008 139.395 112.202C139.395 110.397 137.931 108.932 136.125 108.932C134.319 108.932 132.855 110.397 132.855 112.202C132.855 114.008 134.319 115.472 136.125 115.472Z" fill="#68E1FD"/>
<path d="M136.655 113.783C137.936 113.783 138.975 112.744 138.975 111.463C138.975 110.181 137.936 109.143 136.655 109.143C135.374 109.143 134.335 110.181 134.335 111.463C134.335 112.744 135.374 113.783 136.655 113.783Z" fill="url(#paint9_linear_453_3963)"/>
<path d="M136.775 112.813C137.56 112.813 138.195 112.177 138.195 111.393C138.195 110.608 137.56 109.973 136.775 109.973C135.991 109.973 135.355 110.608 135.355 111.393C135.355 112.177 135.991 112.813 136.775 112.813Z" fill="#F3FCFF"/>
<path d="M134.595 112.513L133.155 113.573C133.155 113.573 133.955 114.963 134.765 115.173L135.765 113.573C135.765 113.573 135.045 113.573 134.595 112.513Z" fill="url(#paint10_linear_453_3963)"/>
<path d="M163.216 321.263C164.036 321.763 164.986 322.493 164.926 323.543C164.873 324 164.693 324.433 164.406 324.793C162.556 327.323 152.406 326.532 149.506 326.502C142.916 326.432 143.186 326.843 136.686 325.613C136.159 325.555 135.656 325.362 135.226 325.053C134.596 324.378 134.24 323.495 134.226 322.573C133.996 320.412 134.046 318.23 134.376 316.083C134.378 315.971 134.403 315.861 134.45 315.76C134.496 315.658 134.563 315.567 134.646 315.493C134.729 315.453 134.819 315.433 134.911 315.433C135.002 315.433 135.093 315.453 135.176 315.493C136.207 315.93 137.279 316.265 138.376 316.493C140.176 316.69 141.991 316.274 143.526 315.312C144.32 314.843 145.076 314.312 145.786 313.722C146.276 313.332 147.236 312.092 147.836 312.032C148.436 311.972 149.556 312.972 150.126 313.312L152.836 314.953L163.216 321.263Z" fill="#3F3D56"/>
<path d="M109.906 316.343C107.486 315.562 105.258 314.281 103.366 312.583C103.01 312.225 102.552 311.987 102.056 311.903C101.809 311.904 101.565 311.952 101.336 312.043C96.7724 313.511 92.4345 315.604 88.4457 318.263C87.3857 318.953 86.2157 319.973 86.3057 321.353C86.4057 322.953 88.0657 323.713 89.4557 324.063C97.4882 326.095 105.837 326.56 114.046 325.433C114.766 325.388 115.459 325.142 116.046 324.723C116.714 324.005 117.116 323.081 117.186 322.103C117.536 319.973 117.686 317.003 116.776 315.043C115.794 315.745 114.671 316.226 113.484 316.45C112.298 316.675 111.076 316.638 109.906 316.343Z" fill="#3F3D56"/>
<path d="M116.096 82.7826C116.096 82.7826 120.096 91.5526 122.286 92.6626L117.286 95.9826L115.806 87.4926L116.096 82.7826Z" fill="#68E1FD"/>
<path d="M131.045 82.8726C131.045 82.8726 127.485 92.4726 122.315 92.6626L127.605 97.5226L131.415 90.5226L131.045 82.8726Z" fill="#68E1FD"/>
<path d="M116.096 82.7826C116.096 82.7826 120.096 91.5526 122.286 92.6626L117.286 95.9826L115.806 87.4926L116.096 82.7826Z" fill="url(#paint11_linear_453_3963)"/>
<path d="M131.045 82.8726C131.045 82.8726 127.485 92.4726 122.315 92.6626L127.605 97.5226L131.415 90.5226L131.045 82.8726Z" fill="url(#paint12_linear_453_3963)"/>
<path d="M119.235 94.4126L120.985 97.3626L119.695 160.043L125.235 167.803L128.925 154.873L123.755 97.4526L125.235 95.2426L122.285 92.6526L119.235 94.4126Z" fill="#3F3D56"/>
<defs>
<linearGradient id="paint0_linear_453_3963" x1="122.086" y1="107.503" x2="126.816" y2="65.0426" gradientUnits="userSpaceOnUse">
<stop offset="0.02" stop-color="white" stop-opacity="0"/>
<stop offset="0.39" stop-color="white" stop-opacity="0.39"/>
<stop offset="1" stop-color="white"/>
</linearGradient>
<linearGradient id="paint1_linear_453_3963" x1="125.065" y1="58.2925" x2="122.365" y2="90.5025" gradientUnits="userSpaceOnUse">
<stop offset="0.01"/>
<stop offset="0.83" stop-opacity="0.07"/>
<stop offset="1" stop-opacity="0"/>
</linearGradient>
<linearGradient id="paint2_linear_453_3963" x1="1469.45" y1="15576.5" x2="3558.06" y2="15660.8" gradientUnits="userSpaceOnUse">
<stop offset="0.01"/>
<stop offset="0.83" stop-opacity="0.07"/>
<stop offset="1" stop-opacity="0"/>
</linearGradient>
<linearGradient id="paint3_linear_453_3963" x1="-93046.9" y1="15430.7" x2="-95164.7" y2="15499.5" gradientUnits="userSpaceOnUse">
<stop offset="0.01"/>
<stop offset="0.83" stop-opacity="0.07"/>
<stop offset="1" stop-opacity="0"/>
</linearGradient>
<linearGradient id="paint4_linear_453_3963" x1="1460.29" y1="724.211" x2="1502.83" y2="724.211" gradientUnits="userSpaceOnUse">
<stop offset="0.01"/>
<stop offset="0.83" stop-opacity="0.07"/>
<stop offset="1" stop-opacity="0"/>
</linearGradient>
<linearGradient id="paint5_linear_453_3963" x1="3627.31" y1="392.877" x2="3978.87" y2="392.877" gradientUnits="userSpaceOnUse">
<stop offset="0.01"/>
<stop offset="0.83" stop-opacity="0.07"/>
<stop offset="1" stop-opacity="0"/>
</linearGradient>
<linearGradient id="paint6_linear_453_3963" x1="2473.62" y1="2515.5" x2="2462.4" y2="1855.78" gradientUnits="userSpaceOnUse">
<stop offset="0.02" stop-color="white" stop-opacity="0"/>
<stop offset="0.39" stop-color="white" stop-opacity="0.39"/>
<stop offset="1" stop-color="white"/>
</linearGradient>
<linearGradient id="paint7_linear_453_3963" x1="613.812" y1="360.361" x2="620.105" y2="360.361" gradientUnits="userSpaceOnUse">
<stop offset="0.01"/>
<stop offset="0.83" stop-opacity="0.07"/>
<stop offset="1" stop-opacity="0"/>
</linearGradient>
<linearGradient id="paint8_linear_453_3963" x1="630.502" y1="364.436" x2="636.795" y2="364.436" gradientUnits="userSpaceOnUse">
<stop offset="0.01"/>
<stop offset="0.83" stop-opacity="0.07"/>
<stop offset="1" stop-opacity="0"/>
</linearGradient>
<linearGradient id="paint9_linear_453_3963" x1="772.613" y1="605.715" x2="764.493" y2="645.202" gradientUnits="userSpaceOnUse">
<stop offset="0.01"/>
<stop offset="0.83" stop-opacity="0.07"/>
<stop offset="1" stop-opacity="0"/>
</linearGradient>
<linearGradient id="paint10_linear_453_3963" x1="671.337" y1="395.537" x2="667.895" y2="434.175" gradientUnits="userSpaceOnUse">
<stop offset="0.01"/>
<stop offset="0.83" stop-opacity="0.07"/>
<stop offset="1" stop-opacity="0"/>
</linearGradient>
<linearGradient id="paint11_linear_453_3963" x1="1351.8" y1="1175.35" x2="1293.82" y2="1493.97" gradientUnits="userSpaceOnUse">
<stop offset="0.02" stop-color="white" stop-opacity="0"/>
<stop offset="0.39" stop-color="white" stop-opacity="0.39"/>
<stop offset="1" stop-color="white"/>
</linearGradient>
<linearGradient id="paint12_linear_453_3963" x1="1930.21" y1="1305.85" x2="1878.74" y2="1663.79" gradientUnits="userSpaceOnUse">
<stop offset="0.02" stop-color="white" stop-opacity="0"/>
<stop offset="0.39" stop-color="white" stop-opacity="0.39"/>
<stop offset="1" stop-color="white"/>
</linearGradient>
</defs>
</svg>
