<svg width="368" height="265" viewBox="0 0 368 265" fill="none" xmlns="http://www.w3.org/2000/svg">
<path opacity="0.1" d="M213.663 46.7289C190.088 45.9096 167.617 38.2983 146.192 29.9727C124.766 21.6471 103.531 12.4208 80.5074 8.00914C65.7048 5.16847 48.7759 4.76895 36.8512 12.7052C25.3734 20.3401 21.666 33.521 19.6717 45.7504C18.1718 54.953 17.3017 64.6363 21.4019 73.2531C24.2561 79.2324 29.3212 84.2603 32.8255 89.989C45.0143 109.921 36.3975 134.502 23.1862 153.98C16.9902 163.122 9.80219 171.82 5.02147 181.541C0.240747 191.261 -1.97355 202.397 2.21127 212.31C6.35885 222.129 16.2386 229.517 26.9444 234.707C48.6879 245.241 74.3081 248.254 99.2917 249.981C154.595 253.763 210.196 252.124 265.645 250.485C286.166 249.876 306.779 249.263 326.965 246.084C338.175 244.32 349.751 241.523 357.891 234.772C368.221 226.199 370.784 211.688 363.86 200.938C352.247 182.912 320.139 178.432 312.02 159.086C307.554 148.438 312.142 136.574 318.636 126.698C332.562 105.513 355.91 86.9249 357.139 62.7064C357.986 46.0721 346.762 29.4174 329.406 21.5455C311.218 13.2876 285.994 14.3304 272.576 27.9785C258.759 42.0396 234.476 47.4501 213.663 46.7289Z" fill="#6C63FF"/>
<path d="M82.0204 245.478C82.0204 245.478 63.3986 231.4 59.8808 213.492C58.4542 205.971 54.6277 199.115 48.9752 193.953C46.2711 191.524 43.3505 189.348 40.25 187.452" stroke="#535461" stroke-width="2" stroke-miterlimit="10"/>
<path d="M37.9719 176.171C39.6039 178.378 40.342 187.733 40.342 187.733C40.342 187.733 31.6168 184.296 29.9815 182.092C29.1962 181.033 28.864 179.705 29.058 178.4C29.252 177.096 29.9562 175.922 31.0158 175.136C32.0754 174.351 33.4036 174.019 34.7081 174.213C36.0126 174.407 37.1867 175.111 37.9719 176.171Z" fill="#048390"/>
<path d="M53.6214 183.511C53.7907 186.25 49.3316 194.505 49.3316 194.505C49.3316 194.505 43.8704 186.873 43.6977 184.134C43.632 182.828 44.0835 181.549 44.9544 180.574C45.8252 179.599 47.0453 179.006 48.3502 178.924C49.6551 178.842 50.9398 179.277 51.9258 180.136C52.9118 180.995 53.5198 182.207 53.618 183.511H53.6214Z" fill="#048390"/>
<path d="M68.7892 204.611C67.5568 207.063 59.5359 211.938 59.5359 211.938C59.5359 211.938 58.6793 202.593 59.9117 200.142C60.5184 198.989 61.5534 198.121 62.7939 197.723C64.0345 197.326 65.3815 197.432 66.545 198.017C67.7086 198.603 68.5957 199.622 69.0154 200.855C69.4351 202.089 69.3538 203.437 68.7892 204.611Z" fill="#048390"/>
<path d="M76.6748 223.152C75.8724 225.776 68.7927 231.934 68.7927 231.934C68.7927 231.934 66.3651 222.871 67.1675 220.243C67.5532 218.983 68.4239 217.927 69.5881 217.308C70.7523 216.689 72.1146 216.558 73.3754 216.944C74.6361 217.33 75.692 218.2 76.3108 219.365C76.9295 220.529 77.0605 221.891 76.6748 223.152Z" fill="#048390"/>
<path d="M41.2599 201.141C43.9685 201.507 52.5311 197.64 52.5311 197.64C52.5311 197.64 45.3059 191.654 42.5837 191.288C41.2772 191.113 39.9544 191.463 38.9064 192.263C37.8584 193.063 37.171 194.246 36.9955 195.553C36.8199 196.859 37.1706 198.182 37.9703 199.23C38.77 200.278 39.9533 200.965 41.2599 201.141Z" fill="#048390"/>
<path d="M50.7567 222.712C53.4654 222.248 60.4638 216.001 60.4638 216.001C60.4638 216.001 51.7758 212.453 49.0706 212.917C48.4229 213.023 47.8027 213.256 47.2457 213.603C46.6886 213.95 46.2059 214.404 45.8253 214.939C45.4447 215.474 45.1738 216.079 45.0282 216.719C44.8826 217.359 44.8651 218.021 44.9769 218.668C45.0887 219.315 45.3275 219.933 45.6794 220.487C46.0314 221.041 46.4896 221.52 47.0276 221.896C47.5656 222.272 48.1727 222.537 48.8139 222.677C49.4551 222.817 50.1177 222.829 50.7635 222.712H50.7567Z" fill="#048390"/>
<path d="M62.8604 242.413C65.6063 242.413 73.5629 237.44 73.5629 237.44C73.5629 237.44 65.6029 232.473 62.857 232.473C61.5388 232.473 60.2746 232.996 59.3425 233.929C58.4104 234.861 57.8867 236.125 57.8867 237.443C57.8867 238.761 58.4104 240.026 59.3425 240.958C60.2746 241.89 61.5388 242.413 62.857 242.413H62.8604Z" fill="#048390"/>
<path d="M262.923 123.715C262.923 123.715 274.401 103.383 291.702 97.5258C298.967 95.113 305.254 90.4098 309.62 84.1215C311.667 81.1151 313.434 77.927 314.898 74.5973" stroke="#535461" stroke-width="2" stroke-miterlimit="10"/>
<path d="M325.76 70.8729C323.789 72.7825 314.617 74.7598 314.617 74.7598C314.617 74.7598 316.869 65.652 318.839 63.7391C319.79 62.8486 321.053 62.3671 322.356 62.3985C323.658 62.4298 324.896 62.9714 325.804 63.9065C326.711 64.8417 327.215 66.0958 327.206 67.3987C327.198 68.7016 326.679 69.9492 325.76 70.8729Z" fill="#6C63FF"/>
<path d="M320.573 87.338C317.864 87.8729 309.105 84.5481 309.105 84.5481C309.105 84.5481 315.945 78.1151 318.636 77.5903C319.283 77.4469 319.951 77.434 320.603 77.5525C321.254 77.6709 321.875 77.9183 322.429 78.28C322.984 78.6418 323.46 79.1107 323.831 79.6592C324.202 80.2077 324.459 80.8247 324.588 81.474C324.717 82.1233 324.715 82.7919 324.582 83.4405C324.45 84.089 324.188 84.7045 323.814 85.2507C323.44 85.7969 322.961 86.2629 322.404 86.6214C321.848 86.9798 321.225 87.2235 320.573 87.338Z" fill="#6C63FF"/>
<path d="M301.693 105.174C299.1 104.277 293.205 96.9773 293.205 96.9773C293.205 96.9773 302.347 94.8849 304.947 95.7821C305.572 95.9893 306.149 96.3186 306.646 96.7508C307.142 97.183 307.548 97.7095 307.839 98.2997C308.13 98.89 308.302 99.5322 308.343 100.189C308.384 100.846 308.294 101.505 308.079 102.127C307.863 102.749 307.526 103.322 307.087 103.812C306.649 104.303 306.117 104.702 305.523 104.985C304.929 105.269 304.284 105.431 303.627 105.464C302.97 105.496 302.312 105.398 301.693 105.174Z" fill="#6C63FF"/>
<path d="M284.345 115.454C281.636 115.007 274.607 108.794 274.607 108.794C274.607 108.794 283.272 105.184 285.977 105.631C287.279 105.846 288.443 106.568 289.212 107.64C289.981 108.712 290.293 110.046 290.079 111.348C289.865 112.65 289.142 113.814 288.07 114.583C286.998 115.352 285.664 115.664 284.362 115.45L284.345 115.454Z" fill="#6C63FF"/>
<path d="M301.457 77.4278C301.454 80.1737 306.434 88.1404 306.434 88.1404C306.434 88.1404 311.408 80.1838 311.408 77.4413C311.425 76.7779 311.309 76.1178 311.068 75.4998C310.826 74.8818 310.462 74.3186 309.999 73.8432C309.536 73.3679 308.983 72.9901 308.371 72.7321C307.76 72.4742 307.103 72.3413 306.439 72.3413C305.776 72.3413 305.119 72.4742 304.507 72.7321C303.896 72.9901 303.342 73.3679 302.879 73.8432C302.416 74.3186 302.053 74.8818 301.811 75.4998C301.569 76.1178 301.453 76.7779 301.471 77.4413L301.457 77.4278Z" fill="#6C63FF"/>
<path d="M281.335 89.7046C282.154 92.3252 289.278 98.4365 289.278 98.4365C289.278 98.4365 291.648 89.3558 290.821 86.7352C290.393 85.5211 289.51 84.5206 288.359 83.9443C287.208 83.3681 285.877 83.2611 284.649 83.646C283.42 84.0308 282.389 84.8774 281.772 86.0075C281.155 87.1376 281.001 88.463 281.341 89.7046H281.335Z" fill="#6C63FF"/>
<path d="M263.435 104.321C263.8 107.03 269.786 114.265 269.786 114.265C269.786 114.265 273.65 105.716 273.284 102.997C273.211 102.338 273.008 101.701 272.685 101.122C272.363 100.543 271.927 100.034 271.405 99.6262C270.883 99.2179 270.285 98.9181 269.645 98.7445C269.006 98.5709 268.338 98.5269 267.681 98.6152C267.024 98.7035 266.392 98.9223 265.821 99.2586C265.25 99.5949 264.752 100.042 264.356 100.574C263.96 101.105 263.675 101.711 263.517 102.354C263.359 102.998 263.331 103.667 263.435 104.321Z" fill="#6C63FF"/>
<path opacity="0.25" d="M325.76 70.8729C323.789 72.7825 314.617 74.7598 314.617 74.7598C314.617 74.7598 316.869 65.652 318.839 63.7391C319.79 62.8486 321.053 62.3671 322.356 62.3985C323.658 62.4298 324.896 62.9714 325.804 63.9065C326.711 64.8417 327.215 66.0958 327.206 67.3987C327.198 68.7016 326.679 69.9492 325.76 70.8729Z" fill="#048390"/>
<path opacity="0.25" d="M301.693 105.174C299.1 104.277 293.205 96.9773 293.205 96.9773C293.205 96.9773 302.347 94.8849 304.947 95.7821C305.572 95.9893 306.149 96.3186 306.646 96.7508C307.142 97.183 307.548 97.7095 307.839 98.2997C308.13 98.89 308.302 99.5322 308.343 100.189C308.384 100.846 308.294 101.505 308.079 102.127C307.863 102.749 307.526 103.322 307.087 103.812C306.649 104.303 306.117 104.702 305.523 104.985C304.929 105.269 304.284 105.431 303.627 105.464C302.97 105.496 302.312 105.398 301.693 105.174Z" fill="#048390"/>
<path opacity="0.25" d="M284.345 115.454C281.636 115.007 274.607 108.794 274.607 108.794C274.607 108.794 283.272 105.184 285.977 105.631C287.279 105.846 288.443 106.568 289.212 107.64C289.981 108.712 290.293 110.046 290.079 111.348C289.865 112.65 289.142 113.814 288.07 114.583C286.998 115.352 285.664 115.664 284.362 115.45L284.345 115.454Z" fill="black"/>
<path opacity="0.25" d="M301.457 77.4278C301.454 80.1737 306.434 88.1404 306.434 88.1404C306.434 88.1404 311.408 80.1838 311.408 77.4413C311.425 76.7779 311.309 76.1178 311.068 75.4998C310.826 74.8818 310.462 74.3186 309.999 73.8432C309.536 73.3679 308.983 72.9901 308.371 72.7321C307.76 72.4742 307.103 72.3413 306.439 72.3413C305.776 72.3413 305.119 72.4742 304.507 72.7321C303.896 72.9901 303.342 73.3679 302.879 73.8432C302.416 74.3186 302.053 74.8818 301.811 75.4998C301.569 76.1178 301.453 76.7779 301.471 77.4413L301.457 77.4278Z" fill="#048390"/>
<path opacity="0.25" d="M281.335 89.7046C282.154 92.3252 289.278 98.4365 289.278 98.4365C289.278 98.4365 291.648 89.3558 290.821 86.7352C290.393 85.5211 289.51 84.5206 288.359 83.9443C287.208 83.3681 285.877 83.2611 284.649 83.646C283.42 84.0308 282.389 84.8774 281.772 86.0075C281.155 87.1376 281.001 88.463 281.341 89.7046H281.335Z" fill="black"/>
<path opacity="0.25" d="M263.435 104.321C263.8 107.03 269.786 114.265 269.786 114.265C269.786 114.265 273.65 105.716 273.284 102.997C273.211 102.338 273.008 101.701 272.685 101.122C272.363 100.543 271.927 100.034 271.405 99.6262C270.883 99.2179 270.285 98.9181 269.645 98.7445C269.006 98.5709 268.338 98.5269 267.681 98.6152C267.024 98.7035 266.392 98.9223 265.821 99.2586C265.25 99.5949 264.752 100.042 264.356 100.574C263.96 101.105 263.675 101.711 263.517 102.354C263.359 102.998 263.331 103.667 263.435 104.321Z" fill="black"/>
<path d="M263.583 123.312C263.583 123.312 265.838 100.072 279.266 87.7138C284.93 82.5634 288.772 75.7161 290.216 68.1981C290.873 64.6242 291.2 60.9975 291.194 57.3636" stroke="#535461" stroke-width="2" stroke-miterlimit="10"/>
<path d="M299.611 49.5222C298.595 52.0683 290.997 57.5939 290.997 57.5939C290.997 57.5939 289.366 48.3541 290.391 45.808C290.885 44.5854 291.845 43.6091 293.058 43.0938C294.272 42.5785 295.641 42.5665 296.863 43.0604C298.086 43.5543 299.062 44.5136 299.577 45.7273C300.093 46.941 300.105 48.3097 299.611 49.5323V49.5222Z" fill="#048390"/>
<path d="M301.545 66.6948C299.3 68.2726 289.932 68.7906 289.932 68.7906C289.932 68.7906 293.582 60.1434 295.826 58.5656C296.359 58.1671 296.966 57.8796 297.611 57.7199C298.257 57.5603 298.927 57.5318 299.584 57.6361C300.241 57.7404 300.87 57.9754 301.434 58.3272C301.999 58.6791 302.486 59.1405 302.869 59.6843C303.252 60.2281 303.522 60.8432 303.662 61.4931C303.803 62.1429 303.812 62.8145 303.688 63.4679C303.565 64.1212 303.312 64.7432 302.943 65.2969C302.575 65.8506 302.1 66.3248 301.545 66.6915V66.6948Z" fill="#048390"/>
<path d="M291.502 90.6595C288.766 90.8897 280.417 86.5965 280.417 86.5965C280.417 86.5965 287.933 80.9761 290.669 80.7459C291.983 80.6354 293.287 81.0514 294.294 81.9022C295.301 82.7531 295.929 83.9691 296.039 85.2828C296.149 86.5966 295.733 87.9004 294.883 88.9074C294.032 89.9144 292.816 90.5422 291.502 90.6527V90.6595Z" fill="#048390"/>
<path d="M279.818 107.077C277.16 107.754 268.208 104.954 268.208 104.954C268.208 104.954 274.665 98.1454 277.323 97.4547C278.599 97.1238 279.954 97.3134 281.09 97.9817C282.226 98.6499 283.05 99.7422 283.381 101.018C283.712 102.294 283.523 103.649 282.854 104.786C282.186 105.922 281.094 106.746 279.818 107.077Z" fill="#6C63FF"/>
<path d="M280.055 65.3811C281.166 67.89 288.933 73.1684 288.933 73.1684C288.933 73.1684 290.253 63.8778 289.143 61.369C288.589 60.1952 287.599 59.2844 286.383 58.8311C285.167 58.3779 283.822 58.4182 282.635 58.9434C281.449 59.4687 280.515 60.4372 280.032 61.642C279.55 62.8469 279.559 64.1925 280.055 65.3913V65.3811Z" fill="#048390"/>
<path d="M266.634 84.7546C268.446 86.8165 277.432 89.5184 277.432 89.5184C277.432 89.5184 275.915 80.2583 274.103 78.1963C273.676 77.6954 273.153 77.2845 272.565 76.9874C271.977 76.6903 271.337 76.5129 270.68 76.4656C270.023 76.4184 269.363 76.5021 268.739 76.712C268.115 76.9219 267.538 77.2537 267.043 77.6883C266.549 78.1228 266.145 78.6513 265.856 79.2432C265.567 79.835 265.399 80.4784 265.361 81.1358C265.323 81.7933 265.416 82.4518 265.634 83.073C265.853 83.6943 266.193 84.2658 266.634 84.7546Z" fill="#6C63FF"/>
<path d="M256.175 105.381C257.611 107.717 266.011 111.898 266.011 111.898C266.011 111.898 266.082 102.516 264.657 100.177C263.947 99.0966 262.845 98.3352 261.583 98.0542C260.322 97.7732 259 97.9946 257.899 98.6715C256.798 99.3484 256.004 100.428 255.686 101.68C255.367 102.933 255.549 104.26 256.192 105.381H256.175Z" fill="#6C63FF"/>
<path d="M246.315 32.2988C246.877 30.2368 247.555 28.1647 248.029 26.0757C247.46 28.1647 246.779 30.2436 246.315 32.2988Z" fill="url(#paint0_linear_453_3841)"/>
<path d="M243.797 52.1597C243.75 52.0785 243.716 51.9972 243.678 51.9227C243.678 51.8889 243.645 51.8618 243.631 51.8279C243.557 51.8627 243.482 51.8932 243.404 51.9193C243.255 51.9769 243.103 52.0311 242.947 52.0751C242.791 52.1191 242.727 52.1428 242.609 52.1699C242.51 52.2037 242.41 52.2298 242.307 52.2477L242.334 52.3087C242.46 52.2816 242.581 52.2579 242.707 52.224L242.741 52.6439C242.883 52.6439 243.015 52.6236 243.144 52.6236C243.204 52.6202 243.265 52.6202 243.326 52.6236C243.59 52.6236 243.821 52.6236 244.003 52.6236C243.932 52.4712 243.858 52.3121 243.797 52.1597ZM312.528 161.564C310.937 159.421 307.761 136.418 307.761 136.418C307.761 136.418 301.514 120.062 303.217 113.534C304.92 107.006 298.565 90.3039 298.565 90.3039C298.565 90.3039 294.367 88.479 294.14 85.7704C294.14 85.7704 276.998 80.3531 276.195 76.2902C275.545 72.9586 264.914 70.5682 261.095 69.8132C259.93 65.1137 258.759 60.7291 257.895 58.3354C257.662 57.5905 257.442 56.9472 257.239 56.4393C255.779 52.715 251.269 52.3764 247.999 52.6744C247.857 52.0396 247.594 51.4383 247.223 50.9036C247.169 50.7198 247.062 50.556 246.915 50.433C246.845 50.3731 246.77 50.3188 246.692 50.2705C246.633 50.1607 246.555 50.0622 246.462 49.9793C246.369 49.8956 246.266 49.8229 246.157 49.7626C246.078 49.72 245.997 49.6827 245.913 49.6509C245.717 49.5761 245.514 49.5206 245.307 49.485C245.066 49.4354 244.821 49.4037 244.576 49.3902C245.173 49.1287 245.706 48.7392 246.137 48.2491C246.429 47.9051 246.647 47.5038 246.776 47.0709C246.884 46.7109 246.932 46.3358 246.919 45.9604C246.831 46.1151 246.729 46.2613 246.614 46.3971C246.756 44.8972 245.964 43.3736 245.51 41.8805C244.96 39.9366 244.859 37.8935 245.212 35.9046C245.666 32.9048 246.79 29.8711 247.552 26.8172C247.554 26.8003 247.554 26.7832 247.552 26.7664C247.951 25.2497 248.199 23.697 248.29 22.1312C248.422 18.9723 247.613 15.8201 246.313 12.9422C245.158 10.3927 243.455 7.88387 240.848 6.84782C238.911 6.06571 236.741 6.19098 234.655 6.06232C229.976 5.77115 225.514 4.12566 221.065 2.62914C216.616 1.13263 212.038 -0.228456 207.356 0.0322494C202.673 0.292954 197.855 2.55127 195.719 6.69546C195.042 7.98883 194.652 9.42779 193.843 10.6433C192.326 12.9355 189.611 14.0832 187.346 15.6644C185.081 17.2456 183.087 19.4903 182.267 22.1685C181.82 23.6114 181.757 25.1461 182.084 26.6208C182.158 26.9538 182.253 27.2818 182.369 27.6027C182.69 28.4973 183.191 29.3165 183.842 30.0099C184.332 30.5224 184.896 30.9594 185.514 31.3067C186.291 31.7373 187.122 32.0607 187.986 32.2683C187.955 32.3698 187.925 32.4782 187.891 32.5831C187.837 32.7558 187.789 32.9217 187.739 33.1079C187.627 33.5244 187.522 33.9476 187.434 34.3742C187.43 34.4046 187.43 34.4353 187.434 34.4656C187.018 36.3915 186.809 38.3562 186.811 40.3264C186.81 41.2582 186.858 42.1894 186.953 43.1163C188.307 56.8558 199.65 67.6937 213.664 68.3979C214.144 68.4216 214.628 68.4352 215.119 68.4352C215.343 68.4352 215.563 68.4352 215.797 68.4352C216.017 68.7263 216.233 69.0243 216.44 69.3155C216.646 69.6066 216.836 69.9046 217.015 70.1958L216.525 69.6879L216.034 69.2376C215.9 69.4203 215.752 69.5913 215.59 69.7488C215.27 69.6362 214.943 69.5435 214.612 69.4712C213.206 69.1597 211.067 69.0446 208.25 69.8944C205.66 70.6698 202.494 72.2645 198.79 75.2948L180.74 86.1292L170.976 92.0679L167.458 100.668C167.458 100.668 164.813 110.886 161.871 122.594C161.756 122.628 161.644 122.662 161.533 122.702C161.294 122.675 161.055 122.662 160.815 122.662C159.108 122.658 157.466 123.316 156.233 124.497C155.001 125.678 154.274 127.291 154.206 128.997C148.355 136.107 148.023 143.217 149.398 146.481C149.522 146.787 149.679 147.078 149.865 147.351C150.766 148.651 152.449 152.003 154.155 155.575C154.111 155.87 154.084 156.117 154.07 156.303C154.067 156.364 154.067 156.425 154.07 156.486C154.07 156.486 155.086 171.827 151.7 176.225C150.959 177.183 151.071 178.443 151.7 179.837C153.969 184.855 162.938 191.556 162.938 191.556C162.938 191.556 173.694 191.498 179.687 190.845C179.67 191.447 179.657 192.047 179.643 192.632C179.508 198.551 179.508 203.511 179.508 203.511L179.284 209.717C179.284 209.717 177.253 222.796 176.237 226.402C175.597 228.664 176.335 249.605 176.979 265H282.96C284.206 255.892 282.449 228.22 282.449 228.22C282.449 228.22 280.78 221.066 280.719 214.83C280.716 214.823 280.714 214.815 280.714 214.807C280.714 214.8 280.716 214.792 280.719 214.785C280.719 214.24 280.719 213.709 280.739 213.187L281.508 213.16L282.889 213.113H283.014C283.014 213.113 283.048 212.984 283.126 212.774C283.309 212.251 283.558 211.754 283.868 211.295C284.457 210.425 285.378 209.571 286.763 209.514C287.528 209.483 288.713 208.864 290.05 207.95C290.059 207.952 290.068 207.952 290.077 207.95C293.676 205.515 298.433 201.022 299.588 200.284C301.176 199.268 308.78 192.497 308.78 192.497C308.78 192.497 309.914 191.061 311.123 189.331L311.167 189.27C312.671 187.103 314.269 184.513 313.876 183.697C313.199 182.235 314.33 178.737 314.33 178.737C317.861 172.274 314.12 163.708 312.528 161.564ZM247.057 57.4246C247.09 57.5257 247.11 57.6302 247.118 57.7361C247.034 57.6244 246.949 57.5059 246.864 57.3975L246.783 57.2892L246.726 57.2079L246.854 57.0319C246.854 57.0319 246.854 57.0319 246.854 57.0556C246.944 57.1653 247.013 57.2904 247.057 57.4246ZM245.92 54.4248C245.551 54.4993 245.26 54.567 245.07 54.6178C244.83 54.1912 244.599 53.7646 244.393 53.3312C244.936 53.6461 245.447 54.0123 245.92 54.4248ZM245.283 54.9598C245.282 54.953 245.282 54.9462 245.283 54.9394L245.31 54.9598C245.449 55.0512 245.585 55.1392 245.71 55.2306C245.822 55.3119 245.923 55.3898 246.025 55.471C245.957 55.5895 245.883 55.7114 245.808 55.8096C245.69 55.6234 245.578 55.4439 245.47 55.2577C245.402 55.1832 245.341 55.0816 245.283 54.9598ZM243.252 50.7817C243.906 50.7172 244.565 50.7172 245.219 50.7817C245.31 50.7817 245.392 50.7986 245.473 50.8122C245.657 50.8406 245.837 50.8871 246.011 50.951C246.411 51.5108 246.658 52.1657 246.726 52.8504L246.543 52.8775L246.363 52.9114C246.025 52.9689 245.686 53.0265 245.422 53.0807L245.084 53.1518C244.633 53.2499 244.373 53.3244 244.362 53.3278C244.318 53.2364 244.274 53.1517 244.227 53.0637C244.152 52.9181 244.075 52.7692 244.007 52.6236C243.939 52.478 243.851 52.3121 243.78 52.1597C243.733 52.0785 243.699 51.9972 243.662 51.9227C243.662 51.8889 243.628 51.8618 243.614 51.8279C243.594 51.792 243.577 51.7546 243.563 51.7162C243.357 51.2963 243.167 50.8765 242.984 50.4634C242.964 50.4228 242.947 50.3788 242.93 50.3382L243.188 50.3212V50.4093L243.252 50.7817ZM162.471 260.815C162.443 255.774 162.078 250.319 161.062 245.2C160.629 243.023 160.182 240.846 159.728 238.706C159.613 238.171 159.501 237.643 159.389 237.115L158.347 237.254H158.252C155.408 223.842 152.435 212.026 152.435 212.026C152.435 212.026 146.53 189.48 147.214 187.682C147.302 187.449 147.19 186.819 146.94 185.895C145.511 180.769 139.545 166.643 137.46 161.815C137.46 161.795 137.443 161.771 137.436 161.754C137.097 160.945 136.854 160.4 136.779 160.241L137.27 153.036L137.297 152.602L137.362 151.681L137.334 151.658L137.362 151.231C137.362 151.231 132.208 147.006 123.48 143.955C123.141 143.833 122.782 143.715 122.427 143.599C122.864 140.684 123.443 137.393 124.198 134.187C124.269 133.865 124.347 133.554 124.428 133.239C124.499 132.924 124.58 132.619 124.662 132.311C124.79 131.81 124.929 131.316 125.071 130.828C125.542 130.679 126.006 130.513 126.463 130.337L126.639 130.27C132.27 128.079 136.916 123.921 139.717 118.568C142.518 113.214 143.285 107.027 141.875 101.152C141.071 97.8198 139.586 94.6901 137.514 91.9596C137.358 91.7496 137.192 91.5397 137.026 91.3332C136.86 91.1267 136.661 90.8964 136.475 90.6865C137.453 88.462 138.608 86.3459 138.702 84.1824C138.719 83.9084 138.719 83.6337 138.702 83.3597V83.3258C138.577 81.9343 137.961 80.5258 136.525 79.0462C134.429 76.8759 131.447 75.7755 128.464 75.2474C125.481 74.7192 122.44 74.7056 119.441 74.3501C114.467 73.7542 109.622 72.2205 104.648 71.7498C98.5219 71.1825 92.354 72.2333 86.7611 74.797C83.0604 76.4899 79.3124 79.4491 79.0889 83.5087C78.9061 86.864 81.2423 90.0805 80.6531 93.3951C80.0674 96.6522 76.7493 99.2153 77.0405 102.51C77.1523 103.796 77.8125 104.947 78.6386 105.973C78.923 106.312 79.2243 106.65 79.5358 106.989C80.7412 108.265 82.0684 109.491 82.7422 111.099C82.7693 111.167 82.7963 111.235 82.82 111.303C83.3922 112.89 83.1349 114.898 81.7197 115.809C81.7275 115.815 81.7334 115.823 81.7366 115.833C81.7569 115.86 81.7772 115.88 81.7941 115.907C81.7962 115.902 81.7962 115.896 81.7941 115.89C82.2959 116.485 82.9724 116.907 83.7274 117.096L84.0152 117.184C83.7816 117.438 83.5615 117.702 83.3381 117.979L83.1925 118.172C82.8193 118.674 82.48 119.2 82.1767 119.747C82.0041 120.051 81.8382 120.356 81.6993 120.661C81.2352 121.59 80.8993 122.577 80.7006 123.596C80.3383 125.838 80.8495 128.174 80.301 130.368C79.6239 133.076 77.4807 135.155 76.2719 137.671C73.9832 142.411 75.2799 147.974 75.7404 153.208C76.3668 160.318 75.351 167.459 74.3387 174.522C73.8015 178.278 73.2642 182.037 72.727 185.8C71.3727 195.244 70.0184 204.688 68.6641 214.132C68.1698 217.592 67.584 221.242 65.2783 223.914H65.302C65.302 223.914 65.302 223.934 65.2783 223.941C65.9705 224.243 66.7066 224.433 67.4588 224.503C70.4687 224.804 73.6581 223.348 76.3667 221.757C78.5118 220.517 80.5433 219.091 82.4375 217.494C82.1598 218.51 81.8619 219.617 81.5436 220.809C81.5447 220.82 81.5447 220.831 81.5436 220.843C77.7211 235.402 71.5725 262.092 71.5725 262.092C71.5725 262.092 71.0138 263.253 70.2893 264.983H165.768C164.651 263.629 163.612 262.332 162.799 261.286L162.471 260.815ZM91.7754 126.197C91.7991 126.156 91.8161 126.119 91.8398 126.081C91.8398 126.19 91.8398 126.295 91.8398 126.396C91.8398 126.498 91.8398 126.589 91.8398 126.684C91.8398 126.779 91.8398 126.769 91.8398 126.816C91.8398 126.864 91.8398 126.816 91.8398 126.816C91.8398 126.955 91.8093 127.094 91.7856 127.233C91.7856 127.233 91.7856 127.25 91.7856 127.263L92.1242 127.388L92.5169 127.551C94.8373 128.467 97.187 129.297 99.5661 130.039C99.8099 130.117 100.057 130.192 100.304 130.263L100.355 130.683C100.416 131.113 100.474 131.549 100.528 131.986C100.528 131.986 100.528 132.007 100.528 132.02C100.68 133.229 100.829 134.434 100.961 135.612C100.961 135.612 94.7448 133.242 94.8226 136.841C94.8191 136.906 94.8191 136.97 94.8226 137.034C94.8157 137.12 94.8157 137.206 94.8226 137.292C94.8802 140.095 95.7571 141.758 95.9332 142.611C95.9226 142.646 95.9041 142.679 95.879 142.706C95.7288 143.033 95.677 143.396 95.73 143.752C95.7241 144.358 95.7717 144.963 95.8722 145.56C95.6894 145.672 95.5099 145.783 95.3305 145.898C95.1951 145.983 95.0664 146.078 94.9344 146.173C94.1038 143.292 93.0171 140.49 91.6874 137.803C90.7563 135.887 89.7101 133.889 89.7203 131.786C89.7203 131.651 89.7203 131.512 89.7372 131.373C89.7749 130.764 89.891 130.162 90.0825 129.582C90.1604 129.362 90.2451 129.146 90.3399 128.932C90.5611 128.425 90.8086 127.93 91.0814 127.449C91.2574 127.131 91.4436 126.816 91.6231 126.498C91.6806 126.403 91.7348 126.305 91.789 126.21L91.7754 126.197ZM243.797 52.1597C243.75 52.0785 243.716 51.9972 243.678 51.9227C243.678 51.8889 243.645 51.8618 243.631 51.8279C243.557 51.8627 243.482 51.8932 243.404 51.9193C243.255 51.9769 243.103 52.0311 242.947 52.0751C242.791 52.1191 242.727 52.1428 242.609 52.1699L242.307 52.2477L242.334 52.3087C242.46 52.2816 242.581 52.2579 242.707 52.224L242.741 52.6439C242.883 52.6439 243.015 52.6236 243.144 52.6236H243.326C243.59 52.6236 243.821 52.6236 244.003 52.6236C243.932 52.4712 243.858 52.3121 243.797 52.1597Z" fill="url(#paint1_linear_453_3841)"/>
<path d="M169.817 101.89L167.786 102.787C167.786 102.787 154.544 154.231 154.544 158.389C154.544 162.546 182.622 185.681 182.622 185.681L187.003 156.11C187.003 156.11 180.713 88.2961 169.817 101.89Z" fill="#E8F5FF"/>
<path d="M231.408 85.5266L219.677 79.4051C219.019 76.6039 217.853 73.9471 216.237 71.567C214.52 69.0886 212.238 66.6543 209.394 65.3846C202.206 62.1613 239.798 45.2426 239.798 45.2426C240.39 47.275 241.088 49.2753 241.887 51.2354C243.824 56.0161 247.037 62.1986 251.178 63.9592C258.217 66.9556 231.408 85.5266 231.408 85.5266Z" fill="#FFC1C7"/>
<path opacity="0.1" d="M241.887 51.2354C240.281 56.8846 236.941 61.8864 232.338 65.5346C227.736 69.1827 222.103 71.2929 216.237 71.567C214.52 69.0886 212.238 66.6543 209.394 65.3846C202.206 62.1613 239.798 45.2426 239.798 45.2426C240.39 47.275 241.088 49.2753 241.887 51.2354Z" fill="black"/>
<path d="M242.944 42.6931C242.945 48.2335 241.304 53.6498 238.226 58.2571C235.149 62.8644 230.775 66.4556 225.657 68.5766C220.538 70.6976 214.906 71.2531 209.472 70.1728C204.038 69.0925 199.046 66.4249 195.128 62.5075C191.21 58.5901 188.542 53.5988 187.461 48.1649C186.38 42.7309 186.935 37.0985 189.055 31.9799C191.176 26.8613 194.766 22.4865 199.373 19.4087C203.98 16.331 209.396 14.6886 214.937 14.6893C218.619 14.6723 222.269 15.3849 225.674 16.7862C229.079 18.1874 232.174 20.2495 234.778 22.8532C237.382 25.457 239.444 28.5508 240.846 31.9561C242.247 35.3614 242.961 39.0106 242.944 42.6931Z" fill="#FFC1C7"/>
<path d="M246.986 81.9309L239.348 99.7536L232.61 111.584H211.043L204.752 95.4097L207.301 78.6365H223.773L234.408 78.0372L238 76.8387L240.316 78.1524L246.986 81.9309Z" fill="#575A89"/>
<path opacity="0.1" d="M244.356 58.1728C244.356 58.1728 249.119 59.1885 244.853 62.6861C240.587 66.1836 225.869 77.3059 225.869 77.3059C225.869 77.3059 231.039 81.9105 229.969 87.3041L247.098 77.7562L250.145 62.4795C250.145 62.4795 250.487 57.8884 244.356 58.1728Z" fill="black"/>
<path opacity="0.1" d="M229.238 77.3059L218.343 79.1037C218.343 79.1037 220.591 87.4158 219.467 89.7757C219.433 89.849 219.404 89.9249 219.382 90.0026L214.937 102.019L218.268 111.455L229.8 95.7279L225.869 89.7757C225.869 89.7757 230.024 84.2704 232.495 82.3608C234.967 80.4513 229.238 77.3059 229.238 77.3059Z" fill="black"/>
<path d="M229.238 76.8421L218.343 78.6365C218.343 78.6365 220.591 86.9486 219.467 89.3085C219.433 89.3819 219.404 89.4577 219.382 89.5354L214.937 101.552L218.268 110.988L229.8 95.2506L225.869 89.2984C225.869 89.2984 230.024 83.7931 232.495 81.8835C234.967 79.9739 229.238 76.8421 229.238 76.8421Z" fill="#DCE6F2"/>
<path d="M244.813 57.2756C244.813 57.2756 249.576 58.2913 245.307 61.7888C241.037 65.2863 225.869 77.3058 225.869 77.3058C225.869 77.3058 231.486 81.0133 230.42 86.4034L247.548 76.8589L250.596 61.5823C250.596 61.5823 250.934 56.9912 244.813 57.2756Z" fill="#575A89"/>
<path opacity="0.1" d="M216.984 72.6267C216.984 72.6267 218.024 74.5701 222.612 78.0744C222.612 78.0744 214.973 82.1374 217.895 87.8492L206.211 84.802L204.413 79.185L216.984 72.6267Z" fill="black"/>
<path d="M216.535 72.1799C216.535 72.1799 217.574 74.1233 222.162 77.6276C222.162 77.6276 214.524 81.6702 217.446 87.399L205.765 84.3518L203.967 78.7381L216.535 72.1799Z" fill="#575A89"/>
<path opacity="0.1" d="M246.986 81.9308L239.348 99.7536L232.624 111.583H211.043L204.752 95.4096L207.298 78.6364H211.879C211.805 82.5504 213.233 87.1483 213.142 88.8581C212.986 91.6683 217.334 106.83 217.334 106.83C217.334 106.83 226.431 92.1152 230.023 90.8049C232.282 89.9822 237.066 83.1362 240.313 78.1523L246.986 81.9308Z" fill="black"/>
<path d="M277.075 175.72L276.3 176.695C276.3 176.695 281.917 204.889 280.363 211.291C280.099 212.445 279.948 213.622 279.913 214.806V214.857C279.638 221.371 281.606 229.825 281.606 229.825C281.606 229.825 283.177 254.744 282.283 264.993H177.114C176.497 249.838 175.834 230.204 176.437 228.027C177.452 224.435 179.484 211.403 179.484 211.403L179.707 205.227C179.707 205.227 179.707 199.258 179.89 192.609C179.968 189.619 180.083 186.48 180.249 183.697C180.462 180.196 180.76 177.247 181.17 175.798C181.422 174.7 181.567 173.58 181.603 172.453C181.603 172.348 181.603 172.24 181.624 172.131C181.624 171.793 181.657 171.427 181.671 171.051C181.671 170.946 181.671 170.841 181.671 170.713C181.735 168.532 181.712 165.946 181.64 163.264C181.64 163.119 181.64 162.97 181.64 162.821C181.583 160.809 181.498 158.758 181.403 156.807C181.109 150.713 180.726 145.56 180.726 145.56L167.81 102.764L171.29 94.1908L180.95 88.2725L198.81 77.4887C207.521 70.3278 213.257 71.1878 215.444 71.9733C215.657 72.0458 215.865 72.1306 216.067 72.2272C216.135 72.2611 216.189 72.2882 216.24 72.3187C216.309 72.3516 216.376 72.3901 216.44 72.4338C215.841 72.7219 215.32 73.1505 214.923 73.6831C214.475 74.2892 214.156 74.9806 213.985 75.7146C213.87 76.1696 213.79 76.6325 213.744 77.0994C213.7 77.5903 213.683 78.0982 213.683 78.6094C213.708 79.7306 213.804 80.8491 213.971 81.958C213.971 81.9783 213.971 82.0054 213.971 82.0325C214.083 82.8247 214.222 83.6001 214.357 84.328C214.356 84.3404 214.356 84.3529 214.357 84.3653C214.513 85.2151 214.669 86.0006 214.774 86.6777C214.794 86.7996 214.811 86.9114 214.828 87.0163C214.903 87.4638 214.938 87.917 214.933 88.3706C214.971 89.466 215.118 90.5549 215.373 91.621C215.461 92.0679 215.563 92.5453 215.674 93.043C215.827 93.7202 215.993 94.4583 216.172 95.2099C216.27 95.623 216.375 96.0496 216.484 96.4728C216.524 96.6421 216.568 96.8114 216.609 96.9841L216.677 97.2515C217.398 100.119 218.18 102.974 218.661 104.7C218.945 105.716 219.124 106.342 219.124 106.342C219.124 106.342 224.223 98.098 228.293 93.4053C228.354 93.3376 228.408 93.2733 228.466 93.2123C228.869 92.7485 229.265 92.3252 229.644 91.9528C230.474 91.1267 231.218 90.5375 231.818 90.3208C231.945 90.274 232.069 90.2162 232.187 90.1482C233.853 89.2035 236.541 85.7737 239.057 82.1814C239.304 81.8429 239.544 81.4738 239.788 81.1251C240.347 80.3193 240.888 79.5101 241.399 78.7347C241.792 78.1422 242.168 77.5666 242.524 77.0181C244.216 74.384 245.408 72.4202 245.408 72.4202L247.758 72.3153L248.168 72.295H248.442L259.111 71.8006C259.111 71.8006 259.571 71.8785 260.329 72.0309C260.37 72.0309 260.411 72.0309 260.455 72.058C264.24 72.8096 274.756 75.1898 275.4 78.4909C276.185 82.5336 293.148 87.9271 293.148 87.9271C293.371 90.6357 297.526 92.42 297.526 92.42C297.526 92.42 303.816 109.044 302.134 115.558C300.471 121.991 306.461 137.905 306.62 138.352L305.472 139.801L277.075 175.72Z" fill="#E8F5FF"/>
<path opacity="0.1" d="M244.352 56.9912C244.352 56.9912 254.736 54.0456 257.096 60.1095C259.456 66.1735 264.735 90.6628 264.735 90.6628C264.735 90.6628 251.029 93.2462 247.437 90.6628C245.329 89.1296 242.722 88.4477 240.134 88.7532L232.383 94.0317L230.095 93.3545C230.095 93.3545 242.493 74.9223 245.189 68.6586C247.884 62.3949 248.794 59.5949 244.352 56.9912Z" fill="black"/>
<path d="M243.902 55.6369C243.902 55.6369 254.293 52.6913 256.663 58.7552C259.033 64.8192 264.302 89.3085 264.302 89.3085C264.302 89.3085 250.599 91.8919 247.004 89.3085C244.898 87.7752 242.291 87.0932 239.704 87.3989L231.947 92.6773L229.658 92.0002C229.658 92.0002 242.057 73.568 244.752 67.3043C247.447 61.0406 248.344 58.2474 243.902 55.6369Z" fill="#E8F5FF"/>
<path opacity="0.1" d="M174.198 153.334C174.198 153.334 181.948 155.243 183.411 159.624C184.874 164.006 177.682 164.117 177.682 164.117C177.682 164.117 173.301 156.367 174.198 153.334Z" fill="black"/>
<path opacity="0.1" d="M203.066 185.681C203.066 185.681 184.085 224.547 188.466 228.254C192.847 231.962 203.066 185.681 203.066 185.681Z" fill="black"/>
<path opacity="0.1" d="M229.238 157.041C229.238 157.041 244.403 194.792 241.37 200.623C238.336 206.453 247.884 200.623 247.884 200.623L229.238 157.041Z" fill="black"/>
<path d="M250.355 194.332C250.355 194.332 199.135 196.804 214.077 212.754C229.018 228.704 259.68 213.431 259.68 213.431L250.355 194.332Z" fill="#FFC1C7"/>
<path opacity="0.1" d="M242.944 42.6931C242.948 46.3667 242.227 50.005 240.821 53.3989C240.35 53.4531 239.879 53.487 239.426 53.5073C238.749 52.0209 239.111 50.3043 239.124 48.669C239.138 47.0337 238.535 45.1105 236.961 44.6704C233.822 43.7867 231.655 49.6543 228.561 48.5945C226.191 47.7887 226.81 44.193 225.446 42.1175C224.366 40.4754 222.202 40.0115 220.52 38.9823C216.941 36.7849 217.049 33.2705 215.387 29.9456C213.646 26.4617 209.969 27.4909 206.777 29.5461C204.352 31.1103 202.26 33.2061 199.667 34.4521C197.422 35.5355 194.899 35.9283 192.411 35.9859C190.879 36.0452 189.346 35.8833 187.86 35.5051C189.608 28.9346 193.686 23.2241 199.333 19.4384C204.981 15.6528 211.813 14.0505 218.554 14.9303C225.296 15.8101 231.488 19.112 235.975 24.2202C240.461 29.3284 242.937 35.8941 242.94 42.6931H242.944Z" fill="black"/>
<path d="M206.787 28.6488C204.36 30.2131 202.271 32.3055 199.677 33.5582C197.432 34.6383 194.91 35.031 192.421 35.0886C189.374 35.1563 186.093 34.6214 184.011 32.4206C182.098 30.3891 181.641 27.2641 182.45 24.5994C183.259 21.9348 185.199 19.7239 187.478 18.1224C189.757 16.521 192.401 15.4138 193.911 13.1217C194.71 11.9095 195.096 10.4807 195.76 9.19076C197.883 5.0635 202.657 2.82888 207.271 2.55125C211.886 2.27361 216.46 3.64824 220.855 5.13798C225.25 6.62773 229.678 8.26645 234.317 8.57455C236.382 8.70321 238.529 8.57455 240.445 9.35667C243.022 10.4029 244.711 12.905 245.862 15.4511C247.152 18.3222 247.955 21.4574 247.819 24.5927C247.535 31.2864 243.113 37.8548 245.057 44.2674C245.571 45.9773 246.536 47.7311 246.022 49.4409C245.27 51.9362 242.05 52.5051 239.446 52.6236C238.769 51.1372 239.132 49.4172 239.145 47.7853C239.159 46.1533 238.556 44.2268 236.985 43.7867C233.843 42.9097 231.676 48.7671 228.588 47.7108C226.235 46.9016 226.845 43.3093 225.477 41.2338C224.397 39.5883 222.23 39.1278 220.55 38.0986C216.972 35.9012 217.08 32.3867 215.418 29.0619C213.664 25.561 209.983 26.5903 206.787 28.6488Z" fill="#99607E"/>
<path d="M157.121 157.488L154.538 158.389C154.538 158.389 155.553 173.665 152.168 178.046C148.782 182.428 163.286 193.32 163.286 193.32C163.286 193.32 183.168 193.208 183.73 191.627C184.292 190.046 182.714 163.322 182.714 163.322C182.714 163.322 172.042 159.164 172.939 152.538C172.939 152.538 169.682 168.15 164.854 167.476C160.026 166.802 154.544 162.77 157.121 157.488Z" fill="#E8F5FF"/>
<path opacity="0.1" d="M165.737 172.203C169.502 172.203 172.553 169.412 172.553 165.969C172.553 162.527 169.502 159.736 165.737 159.736C161.973 159.736 158.922 162.527 158.922 165.969C158.922 169.412 161.973 172.203 165.737 172.203Z" fill="black"/>
<path d="M173.19 157.938C173.19 157.938 171.835 116.605 160.046 125.814C148.257 135.023 148.142 146.037 150.387 149.291C152.631 152.545 159.829 168.834 159.829 168.834C160.955 169.486 162.22 169.863 163.519 169.932C164.819 170.002 166.116 169.763 167.306 169.234C168.495 168.706 169.542 167.903 170.361 166.892C171.18 165.88 171.748 164.689 172.018 163.416L173.19 157.938Z" fill="#FFC1C7"/>
<path opacity="0.1" d="M246.732 53.2398C246.677 53.0582 246.571 52.8961 246.427 52.7726C245.845 52.241 244.592 52.0548 242.703 52.2173L242.781 53.1112C245.3 52.8945 245.797 53.3956 245.862 53.4802V53.5649L245.94 53.6766C246.254 54.0987 246.476 54.5818 246.593 55.0948C246.709 55.6079 246.718 56.1397 246.617 56.6561C246.065 59.4155 242.676 61.6128 242.642 61.6365L242.561 61.6839L242.51 61.7618C241.047 63.9321 232.776 70.057 230.612 71.6415L230.423 71.4248C229.454 72.2645 220.942 79.7166 220.482 82.5708C220.184 84.3619 218.166 85.056 217.435 85.249C216.663 84.6632 214.157 82.669 212.854 80.4344C211.632 78.3318 216.551 74.2283 216.984 72.6268L216.307 71.9327C216.236 72.19 209.918 78.0948 211.676 81.1115C213.084 83.5324 215.657 85.6045 216.558 86.2884C216.27 88.9022 214.479 104.25 211.726 107.886C208.307 112.406 205.432 135.186 205.75 143.139C206.031 150.205 204.186 163.552 198.024 169.284C196.957 170.32 195.67 171.102 194.259 171.571C192.848 172.04 191.349 172.184 189.874 171.993H189.8H189.726C189.637 171.993 180.699 172.907 173.189 166.575C167.044 161.405 163.564 152.968 162.839 141.49H162.69L162.629 138.148C164.295 137.888 165.796 136.993 166.815 135.649C167.835 134.306 168.294 132.62 168.097 130.945C167.899 129.271 167.06 127.738 165.756 126.668C164.452 125.599 162.784 125.077 161.103 125.212C159.422 125.347 157.859 126.128 156.742 127.391C155.625 128.654 155.041 130.301 155.112 131.986C155.184 133.671 155.906 135.262 157.127 136.426C158.347 137.59 159.971 138.235 161.657 138.226H161.732L161.793 141.548L161.495 141.568C162.24 153.418 165.896 162.184 172.329 167.598C177.219 171.65 183.465 173.694 189.803 173.317C190.253 173.366 190.705 173.391 191.158 173.391C194.063 173.406 196.859 172.282 198.945 170.259C205.436 164.216 207.409 150.378 207.101 143.071C206.763 134.644 209.779 112.684 212.806 108.685C215.772 104.761 217.57 89.471 217.885 86.5085C218.958 86.2071 221.386 85.2557 221.799 82.7841C222.097 80.9964 227.782 75.4878 231.279 72.4372L231.174 72.3153C233.057 70.9407 238.911 66.6069 241.812 63.8238C242.713 62.9604 243.607 62.097 244.541 61.2743C245.665 60.2788 247.094 58.6977 247.47 56.8287C247.598 56.2118 247.599 55.5752 247.472 54.958C247.345 54.3408 247.093 53.7561 246.732 53.2398Z" fill="black"/>
<path d="M216.443 86.0751C216.301 85.9769 212.929 83.5628 211.239 80.6578C209.485 77.6411 215.803 71.7397 215.871 71.4824L216.548 72.1765C216.118 73.7745 211.199 77.8815 212.421 79.9807C213.961 82.6317 217.205 84.951 217.239 84.9747L216.443 86.0751Z" fill="#353146"/>
<path d="M230.173 72.2984L229.645 71.5704C229.753 71.4925 240.388 63.8 242.064 61.3115L242.118 61.237L242.196 61.1862C242.229 61.1625 245.619 58.9685 246.171 56.2057C246.272 55.6899 246.265 55.1585 246.148 54.6458C246.031 54.1331 245.808 53.6507 245.493 53.2296L245.415 53.1145V53.0333C245.348 52.9452 244.85 52.4475 242.331 52.6642L242.253 51.767C244.146 51.6045 245.395 51.7907 245.978 52.3223C246.122 52.447 246.229 52.6101 246.286 52.7929C246.652 53.3077 246.909 53.892 247.04 54.5098C247.172 55.1277 247.175 55.7659 247.051 56.3852C246.675 58.2575 245.25 59.8387 244.122 60.8307C243.191 61.6535 242.294 62.5236 241.397 63.3802C237.994 66.6407 230.545 72.0309 230.173 72.2984Z" fill="#E8F5FF"/>
<path d="M162.193 136.97L161.296 136.986L161.396 142.44L162.293 142.423L162.193 136.97Z" fill="#E8F5FF"/>
<path d="M161.221 137.796C164.84 137.796 167.773 134.863 167.773 131.245C167.773 127.626 164.84 124.693 161.221 124.693C157.603 124.693 154.67 127.626 154.67 131.245C154.67 134.863 157.603 137.796 161.221 137.796Z" fill="#6C63FF"/>
<path d="M161.221 136.686C164.226 136.686 166.662 134.25 166.662 131.245C166.662 128.24 164.226 125.804 161.221 125.804C158.216 125.804 155.78 128.24 155.78 131.245C155.78 134.25 158.216 136.686 161.221 136.686Z" fill="#E8F5FF"/>
<path d="M190.731 172.954C190.279 172.955 189.827 172.931 189.377 172.883C183.038 173.256 176.794 171.213 171.903 167.164C165.47 161.747 161.82 152.992 161.068 141.131L162.423 141.047C163.147 152.524 166.628 160.965 172.776 166.132C180.286 172.446 189.221 171.549 189.309 171.549H189.384H189.458C190.933 171.739 192.432 171.594 193.844 171.126C195.255 170.657 196.543 169.876 197.611 168.84C203.77 163.108 205.615 149.762 205.334 142.695C204.995 134.735 207.87 111.956 211.293 107.439C214.289 103.481 216.148 85.6417 216.169 85.4622L216.219 84.9543L216.72 84.8663C216.751 84.8663 219.676 84.311 220.042 82.1238C220.516 79.273 229.014 71.8209 229.979 70.9778L230.863 71.9936C227.352 75.0408 221.667 80.5528 221.383 82.3439C220.97 84.8223 218.542 85.7703 217.472 86.0683C217.133 89.0342 215.349 104.321 212.393 108.245C209.367 112.244 206.35 134.204 206.688 142.631C206.98 149.938 205.026 163.779 198.535 169.819C196.445 171.846 193.643 172.972 190.731 172.954Z" fill="#353146"/>
<g opacity="0.1">
<path opacity="0.1" d="M245.829 34.6891C246.384 32.6373 247.055 30.572 247.522 28.4931C246.963 30.5822 246.29 32.6373 245.829 34.6891Z" fill="black"/>
<path opacity="0.1" d="M240.164 50.8122C239.487 49.3258 239.849 47.6059 239.863 45.9739C239.876 44.342 239.274 42.4324 237.703 41.9753C234.561 41.0984 232.394 46.9592 229.306 45.8994C226.936 45.0902 227.562 41.4979 226.195 39.4224C225.114 37.777 222.951 37.3165 221.272 36.2872C217.689 34.0898 217.798 30.5754 216.139 27.2506C214.395 23.7632 210.722 24.7925 207.525 26.851C205.098 28.4153 203.009 30.5111 200.415 31.7604C198.17 32.8405 195.648 33.2332 193.16 33.2908C190.129 33.3619 186.831 32.8236 184.749 30.6228C183.144 28.9299 182.565 26.4481 182.897 24.1221C182.84 24.2812 182.789 24.4404 182.738 24.5995C181.925 27.2641 182.4 30.3959 184.299 32.4206C186.381 34.6214 189.679 35.1564 192.709 35.0886C195.201 35.0311 197.72 34.6383 199.968 33.5583C202.569 32.3055 204.658 30.2131 207.078 28.6489C210.275 26.5903 213.952 25.5611 215.692 29.0484C217.351 32.3732 217.246 35.8877 220.825 38.0851C222.518 39.1008 224.668 39.5748 225.751 41.2203C227.105 43.3025 226.506 46.8881 228.863 47.6973C231.947 48.7537 234.114 42.8963 237.256 43.7732C238.827 44.2133 239.433 46.1432 239.416 47.7718C239.399 49.4003 239.047 51.1237 239.717 52.6101C242.321 52.4916 245.541 51.9329 246.296 49.4274C246.4 49.0679 246.448 48.6944 246.438 48.3203C245.338 50.2197 242.507 50.7072 240.164 50.8122Z" fill="black"/>
</g>
<path opacity="0.1" d="M301.355 134.238L305.285 138.396C305.285 138.396 308.431 161.307 310.002 163.45C311.573 165.594 315.284 174.119 311.8 180.521C311.8 180.521 310.676 184.005 311.349 185.465C312.023 186.924 306.298 194.227 306.298 194.227C306.298 194.227 298.771 200.965 297.197 201.977C295.622 202.989 287.314 211.075 284.507 211.186C281.7 211.298 280.783 214.782 280.783 214.782L264.944 215.344C264.944 215.344 256.195 214.887 254.292 216.123C254.292 216.123 255.308 202.756 245.533 193.993L258 189.501C258 189.501 262.719 187.469 264.179 185.346C265.097 184.045 266.399 183.063 267.903 182.539C267.903 182.539 271.384 180.068 271.495 178.72C271.607 177.373 275.751 175.72 275.751 175.72L273.405 155.694L274.641 122.445C274.641 122.445 278.572 94.5869 286.884 96.1613C295.196 97.7357 301.355 134.238 301.355 134.238Z" fill="black"/>
<path d="M302.709 134.238L306.64 138.396C306.64 138.396 309.785 161.307 311.356 163.45C312.927 165.594 316.638 174.119 313.154 180.521C313.154 180.521 312.033 184.005 312.707 185.465C313.381 186.924 307.652 194.227 307.652 194.227C307.652 194.227 300.126 200.965 298.551 201.977C296.977 202.989 288.668 211.075 285.861 211.186C283.055 211.298 282.137 214.782 282.137 214.782L266.298 215.344C266.298 215.344 257.543 214.887 255.647 216.123C255.647 216.123 256.662 202.756 246.888 193.993L259.354 189.501C259.354 189.501 264.074 187.469 265.533 185.346C266.451 184.045 267.754 183.063 269.258 182.539C269.258 182.539 272.738 180.068 272.85 178.72C272.962 177.373 277.106 175.72 277.106 175.72L274.759 155.694L275.995 122.445C275.995 122.445 279.926 94.5869 288.238 96.1613C296.55 97.7357 302.709 134.238 302.709 134.238Z" fill="#E8F5FF"/>
<path opacity="0.1" d="M288.097 167.825C288.097 167.825 299.666 164.778 302.7 168.502C305.733 172.226 288.097 167.825 288.097 167.825Z" fill="black"/>
<path opacity="0.1" d="M285.401 172.934C289.332 175.687 301.464 175.798 301.464 175.798L285.401 172.934Z" fill="black"/>
<path opacity="0.1" d="M291.354 186.694C291.692 186.805 299.693 195.344 303.051 192.761C306.41 190.178 291.354 186.694 291.354 186.694Z" fill="black"/>
<path opacity="0.1" d="M183.604 115.03C183.604 115.03 185.954 131.208 184.796 137.796C183.638 144.385 187.864 152.548 187.864 152.548L183.604 115.03Z" fill="black"/>
<path d="M131.585 121.609C128.877 123.732 126.899 128.756 125.467 134.278C122.968 143.911 122.152 155.081 122.152 155.081C122.152 155.081 100.585 150.137 102.156 147.893C103.145 146.481 101.817 135.843 100.71 128.13C100.05 123.573 99.4609 120.034 99.4609 120.034C99.4609 120.034 139 115.765 131.585 121.609Z" fill="#FFCCD0"/>
<path opacity="0.1" d="M131.585 121.159C128.877 123.285 126.899 128.306 125.467 133.828C121.17 135.133 116.6 135.251 112.241 134.169C107.883 133.087 103.898 130.846 100.71 127.683C100.05 123.122 99.4609 119.584 99.4609 119.584C99.4609 119.584 139 115.318 131.585 121.159Z" fill="black"/>
<path d="M143.178 109.058C143.18 114.947 141.099 120.647 137.303 125.149C133.507 129.651 128.24 132.664 122.435 133.657C116.631 134.649 110.662 133.556 105.586 130.571C100.509 127.586 96.653 122.901 94.6988 117.346C92.7446 111.79 92.8186 105.723 94.9078 100.217C96.9971 94.711 100.967 90.1217 106.114 87.2613C111.262 84.4008 117.255 83.4537 123.034 84.5874C128.813 85.7211 134.004 88.8627 137.69 93.456C141.241 97.8807 143.177 103.384 143.178 109.058Z" fill="#FFCCD0"/>
<path opacity="0.1" d="M162.843 264.993H155.732L155.133 252.435L154.507 239.437C154.507 239.437 156.122 239.197 158.695 238.838L159.734 238.699H159.819C160.381 241.337 160.936 244.045 161.471 246.751C162.362 251.553 162.825 256.425 162.856 261.309C162.856 261.648 162.856 261.987 162.856 262.305C162.876 263.209 162.856 264.113 162.843 264.993Z" fill="black"/>
<path d="M161.478 264.993H72.3105C72.6965 264.116 72.9538 263.585 72.9538 263.585C72.9538 263.585 80.0877 232.375 83.7139 219.17C83.715 219.159 83.715 219.147 83.7139 219.136C84.1669 217.342 84.7139 215.574 85.3526 213.837C85.3938 213.719 85.4472 213.606 85.5117 213.499C87.3062 210.58 89.5543 207.435 86.4089 202.942C83.2635 198.449 84.3775 178.679 84.3775 178.679C84.3775 178.679 88.1966 161.828 92.2392 152.843C92.8528 151.451 93.7235 150.187 94.8057 149.118C95.1575 148.774 95.5331 148.455 95.9297 148.163C96.2313 147.937 96.5455 147.728 96.871 147.537L96.9353 147.496C98.6335 146.534 100.519 145.948 102.464 145.78C103.846 145.635 105.24 145.674 106.612 145.895C113.167 146.857 118.415 148.465 122.586 150.296C133.891 155.263 137.314 161.92 137.382 162.059L137.409 162.116C137.863 163.176 144.499 178.669 146.889 185.898C147.509 187.78 147.847 189.104 147.712 189.467C147.035 191.261 152.879 213.726 152.879 213.726C152.879 213.726 155.587 224.56 158.296 237.26C158.414 237.788 158.526 238.317 158.634 238.852C159.119 241.157 159.599 243.507 160.063 245.853C160.962 250.689 161.425 255.595 161.448 260.514C161.498 262.046 161.508 263.54 161.478 264.993Z" fill="#FF748E"/>
<path opacity="0.1" d="M101.933 138.054C101.933 138.054 95.7807 135.684 95.8552 139.279C95.9297 142.875 97.3551 144.595 96.9048 145.12C96.4544 145.645 97.1282 148.79 97.1282 148.79C97.1282 148.79 105.44 148.79 109.259 150.51C113.079 152.23 127.157 155.677 128.955 156.726C130.752 157.776 137.419 162.482 137.419 162.482L138.018 153.571C138.018 153.571 131.128 147.879 119.823 144.961C108.518 142.042 101.933 138.054 101.933 138.054Z" fill="black"/>
<path d="M101.933 137.603C101.933 137.603 95.7807 135.233 95.8552 138.829C95.9297 142.425 97.3551 144.145 96.9048 144.669C96.4544 145.194 97.1282 148.34 97.1282 148.34C97.1282 148.34 105.44 148.34 109.259 150.063C113.079 151.786 127.157 155.23 128.955 156.276C130.752 157.322 137.419 162.032 137.419 162.032L138.025 153.147C138.025 153.147 131.135 147.456 119.83 144.537C108.525 141.619 101.933 137.603 101.933 137.603Z" fill="#FF748E"/>
<path opacity="0.1" d="M120.504 159.049C120.504 159.049 132.259 171.776 131.66 175.301C131.061 178.825 120.504 159.049 120.504 159.049Z" fill="black"/>
<path opacity="0.1" d="M101.408 205.024C101.408 205.024 92.7913 212.964 90.252 213.414C87.7127 213.865 92.1988 215.361 95.1174 214.166C98.0359 212.971 104.259 209.825 104.259 209.825L101.408 205.024Z" fill="black"/>
<path d="M164.98 264.993H144.885C142.075 262.555 139.417 260.297 137.724 258.939C135.015 256.766 133.062 253.566 131.816 250.993C131.535 250.407 131.291 249.859 131.084 249.361C130.715 248.504 130.389 247.628 130.109 246.737L144.99 237.9C145.812 238.6 146.585 239.355 147.302 240.162L147.482 240.368C148.308 241.344 149.036 242.451 149.1 243.358C149.175 244.414 152.114 248.501 155.117 252.425C158.164 256.417 161.286 260.233 161.492 260.49C161.492 260.49 162.007 261.191 162.846 262.268C163.439 263.046 164.17 263.981 164.98 264.993Z" fill="#FFCCD0"/>
<path opacity="0.1" d="M137.69 93.4561C136.976 95.0677 136.336 96.7403 136.241 98.5347C135.974 103.715 136.407 115.298 130.672 117.898C127.831 119.178 124.791 116.368 121.676 116.3C119.434 116.253 117.379 117.675 116.011 119.452C114.643 121.23 113.794 123.339 112.801 125.35C111.898 127.176 110.858 128.93 109.69 130.598C109.341 131.109 108.956 131.594 108.539 132.051C105.041 130.575 101.927 128.32 99.4332 125.459C96.9392 122.597 95.1314 119.204 94.1474 115.538C93.1634 111.871 93.0293 108.029 93.7552 104.303C94.4812 100.577 96.048 97.0664 98.3364 94.0379C100.625 91.0093 103.574 88.543 106.96 86.827C110.346 85.111 114.079 84.1906 117.875 84.1357C121.67 84.0809 125.428 84.8932 128.862 86.5108C132.296 88.1283 135.315 90.5084 137.69 93.4696V93.4561Z" fill="black"/>
<path d="M135.79 97.6206C135.519 102.801 135.956 114.384 130.217 116.98C127.377 118.26 124.336 115.453 121.221 115.386C118.98 115.335 116.928 116.76 115.557 118.535C114.185 120.309 113.342 122.421 112.347 124.436C111.444 126.261 110.404 128.016 109.235 129.684C108.538 130.673 107.766 131.665 106.693 132.22C104.824 133.195 102.559 132.646 100.554 132.02C97.9541 131.201 95.3922 130.278 92.8686 129.251C92.9265 128.87 92.956 128.485 92.9567 128.099C92.8822 128.242 92.8009 128.374 92.7197 128.516L92.5605 128.793C92.2727 129.301 91.9917 129.809 91.7344 130.331C91.6362 130.53 91.5414 130.737 91.4568 130.943C91.1162 131.712 90.9024 132.531 90.8236 133.368C90.6509 135.626 91.7649 137.769 92.7535 139.801C96.5557 147.659 98.9055 156.848 96.0445 165.092C94.8053 168.678 92.6587 171.864 91.0911 175.328C88.3508 181.462 87.5441 188.286 88.7786 194.891C89.5607 198.994 91.1283 203.057 90.7424 207.218C90.0652 214.379 83.8895 219.708 77.7037 223.372C74.362 225.342 70.2719 227.096 66.7236 225.539C68.9853 222.898 69.5677 219.245 70.0552 215.798C71.3892 206.397 72.7266 196.991 74.0674 187.581C74.6023 183.836 75.1362 180.091 75.6689 176.347C76.6643 169.311 77.6733 162.198 77.0503 155.118C76.5966 149.9 75.3167 144.361 77.5784 139.638C78.7736 137.136 80.9033 135.064 81.5669 132.369C82.112 130.178 81.6041 127.849 81.963 125.618C82.1595 124.602 82.492 123.618 82.9517 122.692C83.537 121.435 84.3011 120.27 85.2202 119.232C84.3128 118.968 83.4663 118.606 82.9517 117.847C84.4076 116.899 84.6276 114.763 83.9674 113.158C83.3072 111.553 81.9867 110.331 80.7983 109.065C79.6099 107.798 78.4655 106.322 78.3165 104.595C78.0288 101.308 81.313 98.7616 81.8919 95.518C82.4777 92.2169 80.1618 89.0072 80.348 85.6654C80.5647 81.6262 84.2755 78.6907 87.9389 76.9876C93.4672 74.4285 99.574 73.3772 105.64 73.9404C110.576 74.4077 115.354 75.9347 120.277 76.5272C123.246 76.8658 126.256 76.8996 129.205 77.421C132.154 77.9424 135.11 79.0428 137.185 81.2063C142.657 86.9114 136.102 91.6074 135.79 97.6206Z" fill="#FFE0D0"/>
<path opacity="0.1" d="M131.212 250.996C129.486 250.248 126.344 250.695 120.95 249.053C115.557 247.411 114.517 239.989 114.517 239.989V239.966C114.453 239.796 113.952 238.692 110.559 234.826C106.811 230.556 98.7089 208.992 98.7089 208.992C98.7089 208.992 91.5243 201.276 91.7511 198.432C91.978 195.588 90.4747 188.021 90.6237 179.556C90.7727 171.092 106.798 165.478 106.798 165.478C137.652 160.01 130.386 195.581 129.564 198.276C128.741 200.971 133.01 208.251 133.01 208.251C132.408 211.42 135.482 216.326 135.482 216.326C135.482 216.326 136.227 220.667 136.379 222.315C136.388 222.392 136.405 222.467 136.43 222.539C136.924 224.093 140.953 225.501 142.592 226.358C144.315 227.259 149.858 235.12 149.858 235.12C151.053 240.893 132.932 251.755 131.212 250.996Z" fill="black"/>
<path d="M132.11 249.642C130.387 248.89 127.242 249.341 121.852 247.695C116.461 246.05 115.419 238.635 115.419 238.635V238.611C115.358 238.439 114.853 237.338 111.461 233.472C107.713 229.202 99.6103 207.635 99.6103 207.635C99.6103 207.635 92.4257 199.922 92.6492 197.078C92.8726 194.234 91.3761 186.667 91.5251 178.209C91.6741 169.751 107.689 164.141 107.689 164.141C138.543 158.673 131.278 194.244 130.455 196.939C129.632 199.634 133.902 206.914 133.902 206.914C133.299 210.083 136.373 214.989 136.373 214.989C136.373 214.989 137.118 219.329 137.274 220.978C137.279 221.054 137.295 221.13 137.321 221.202C137.815 222.756 141.845 224.164 143.487 225.021C145.207 225.918 150.753 233.783 150.753 233.783C151.954 239.546 133.834 250.407 132.11 249.642Z" fill="#FF748E"/>
<path opacity="0.1" d="M108.298 182.712C108.298 182.712 121.777 196.932 125.294 196.932C128.812 196.932 108.298 182.712 108.298 182.712Z" fill="black"/>
<path d="M132.11 249.642C130.387 248.89 127.241 249.341 121.851 247.695C116.461 246.05 115.418 238.635 115.418 238.635V238.611C118.99 236.241 128.037 229.548 131.602 227.1C134.111 225.383 136.159 222.861 137.358 221.188C137.852 222.742 141.881 224.151 143.523 225.007C145.243 225.904 150.789 233.77 150.789 233.77C151.954 239.546 133.833 250.407 132.11 249.642Z" fill="#FF748E"/>
<g opacity="0.1">
<path opacity="0.1" d="M82.9717 117.884C82.9886 117.912 83.0123 117.935 83.0326 117.962C83.1342 117.834 83.2392 117.705 83.3475 117.583C83.2321 117.695 83.1063 117.796 82.9717 117.884Z" fill="black"/>
<path opacity="0.1" d="M90.827 133.405C90.9692 131.526 91.9748 129.87 92.916 128.218C92.2998 127.981 91.6836 127.74 91.0742 127.49C91.1322 127.11 91.1616 126.726 91.1622 126.342C90.2108 128.035 89.1747 129.701 89.0292 131.607C88.8565 133.869 89.9704 136.009 90.959 138.04C94.7647 145.895 97.111 155.084 94.25 163.332C93.0074 166.914 90.8642 170.103 89.2966 173.567C86.5573 179.701 85.7518 186.524 86.9875 193.127C87.7629 197.234 89.3339 201.293 88.9479 205.454C88.2707 212.615 82.0985 217.944 75.9093 221.604C73.3801 223.101 70.4243 224.472 67.5972 224.374C67.3355 224.795 67.0435 225.197 66.7236 225.576C70.2753 227.144 74.362 225.38 77.7037 223.402C83.8963 219.746 90.0821 214.43 90.7593 207.256C91.1453 203.094 89.5743 199.035 88.7955 194.928C87.5595 188.325 88.3625 181.503 91.0979 175.368C92.6553 171.908 94.8222 168.715 96.0513 165.133C98.9122 156.885 96.5625 147.696 92.7603 139.841C91.775 137.796 90.6543 135.667 90.827 133.405Z" fill="black"/>
<path opacity="0.1" d="M137.178 81.2469C136.845 80.9053 136.487 80.5884 136.108 80.2989C140.212 85.6214 134.286 90.1448 133.992 95.8735C133.728 101.054 134.161 112.64 128.422 115.233C125.585 116.517 122.541 113.706 119.43 113.639C117.185 113.591 115.133 115.017 113.762 116.791C112.391 118.565 111.548 120.678 110.555 122.689C109.65 124.514 108.609 126.268 107.441 127.937C106.763 128.929 105.971 129.918 104.894 130.476C103.032 131.448 100.767 130.903 98.7594 130.273C96.807 129.659 94.8725 128.982 92.9562 128.242C92.9522 128.594 92.9228 128.946 92.8682 129.295C95.394 130.324 97.957 131.247 100.557 132.064C102.562 132.694 104.827 133.239 106.692 132.267C107.766 131.709 108.544 130.717 109.238 129.725C110.408 128.058 111.448 126.305 112.35 124.48C113.345 122.469 114.185 120.353 115.56 118.579C116.934 116.804 118.983 115.382 121.224 115.43C124.339 115.497 127.383 118.308 130.22 117.024C135.959 114.431 135.522 102.845 135.79 97.6646C136.101 91.6413 142.656 86.9486 137.178 81.2469Z" fill="black"/>
</g>
<path opacity="0.1" d="M92.5639 128.797C92.2761 129.305 91.9951 129.813 91.7378 130.334C91.6396 130.534 91.5448 130.74 91.4602 130.947C89.686 129.159 85.3658 124.91 82.9551 123.593C83.5412 122.337 84.3052 121.171 85.2235 120.133C85.2235 120.133 90.9692 123.17 92.5639 128.797Z" fill="black"/>
<path d="M92.723 128.519C91.3924 122.496 85.2235 119.235 85.2235 119.235C84.3045 120.273 83.5404 121.439 82.9551 122.696C85.4978 124.087 90.1837 128.753 91.7378 130.334L92.723 128.519Z" fill="#FF748E"/>
<defs>
<linearGradient id="paint0_linear_453_3841" x1="247.172" y1="32.2988" x2="247.172" y2="26.0757" gradientUnits="userSpaceOnUse">
<stop stop-color="#808080" stop-opacity="0.25"/>
<stop offset="0.54" stop-color="#808080" stop-opacity="0.12"/>
<stop offset="1" stop-color="#808080" stop-opacity="0.1"/>
</linearGradient>
<linearGradient id="paint1_linear_453_3841" x1="155330" y1="222955" x2="155330" y2="15544.9" gradientUnits="userSpaceOnUse">
<stop stop-color="#808080" stop-opacity="0.25"/>
<stop offset="0.54" stop-color="#808080" stop-opacity="0.12"/>
<stop offset="1" stop-color="#808080" stop-opacity="0.1"/>
</linearGradient>
</defs>
</svg>
