<svg width="60" height="84" viewBox="0 0 60 84" fill="none" xmlns="http://www.w3.org/2000/svg">
<rect x="0.198242" width="59.1982" height="62.0627" rx="16" fill="#AEAFF7"/>
<path d="M23.8404 81.6175C23.9124 81.6175 23.9744 81.6455 24.0264 81.7015L24.5304 82.2535C24.1784 82.6695 23.7484 82.9915 23.2404 83.2195C22.7364 83.4475 22.1284 83.5615 21.4164 83.5615C20.7924 83.5615 20.2264 83.4535 19.7184 83.2375C19.2144 83.0215 18.7824 82.7195 18.4224 82.3315C18.0664 81.9435 17.7904 81.4795 17.5944 80.9395C17.3984 80.3995 17.3004 79.8055 17.3004 79.1575C17.3004 78.5095 17.4024 77.9155 17.6064 77.3755C17.8144 76.8355 18.1044 76.3715 18.4764 75.9835C18.8484 75.5955 19.2924 75.2935 19.8084 75.0775C20.3284 74.8615 20.9024 74.7535 21.5304 74.7535C22.1424 74.7535 22.6864 74.8535 23.1624 75.0535C23.6384 75.2535 24.0524 75.5195 24.4044 75.8515L23.9844 76.4455C23.9564 76.4895 23.9204 76.5255 23.8764 76.5535C23.8364 76.5815 23.7824 76.5955 23.7144 76.5955C23.6384 76.5955 23.5484 76.5575 23.4444 76.4815C23.3444 76.4055 23.2104 76.3215 23.0424 76.2295C22.8784 76.1335 22.6744 76.0475 22.4304 75.9715C22.1864 75.8955 21.8824 75.8575 21.5184 75.8575C21.0904 75.8575 20.6984 75.9335 20.3424 76.0855C19.9864 76.2335 19.6784 76.4495 19.4184 76.7335C19.1624 77.0135 18.9624 77.3595 18.8184 77.7715C18.6784 78.1795 18.6084 78.6415 18.6084 79.1575C18.6084 79.6815 18.6824 80.1475 18.8304 80.5555C18.9784 80.9635 19.1824 81.3095 19.4424 81.5935C19.7024 81.8775 20.0084 82.0935 20.3604 82.2415C20.7124 82.3895 21.0924 82.4635 21.5004 82.4635C21.7484 82.4635 21.9704 82.4495 22.1664 82.4215C22.3664 82.3895 22.5484 82.3435 22.7124 82.2835C22.8804 82.2235 23.0384 82.1475 23.1864 82.0555C23.3344 81.9595 23.4804 81.8455 23.6244 81.7135C23.6564 81.6855 23.6904 81.6635 23.7264 81.6475C23.7624 81.6275 23.8004 81.6175 23.8404 81.6175ZM28.8506 80.7595C28.3746 80.7755 27.9706 80.8135 27.6386 80.8735C27.3066 80.9295 27.0366 81.0055 26.8286 81.1015C26.6206 81.1975 26.4706 81.3115 26.3786 81.4435C26.2866 81.5715 26.2406 81.7155 26.2406 81.8755C26.2406 82.0275 26.2646 82.1595 26.3126 82.2715C26.3646 82.3795 26.4326 82.4695 26.5166 82.5415C26.6046 82.6095 26.7066 82.6595 26.8226 82.6915C26.9386 82.7235 27.0646 82.7395 27.2006 82.7395C27.3806 82.7395 27.5446 82.7215 27.6926 82.6855C27.8446 82.6495 27.9866 82.5995 28.1186 82.5355C28.2506 82.4675 28.3766 82.3855 28.4966 82.2895C28.6166 82.1935 28.7346 82.0835 28.8506 81.9595V80.7595ZM25.4186 78.2215C25.7586 77.8975 26.1266 77.6555 26.5226 77.4955C26.9226 77.3355 27.3606 77.2555 27.8366 77.2555C28.1846 77.2555 28.4926 77.3135 28.7606 77.4295C29.0286 77.5415 29.2546 77.6995 29.4386 77.9035C29.6226 78.1075 29.7606 78.3515 29.8526 78.6355C29.9486 78.9195 29.9966 79.2335 29.9966 79.5775V83.4655H29.4746C29.3586 83.4655 29.2706 83.4475 29.2106 83.4115C29.1506 83.3715 29.1026 83.2995 29.0666 83.1955L28.9406 82.6615C28.7846 82.8055 28.6306 82.9335 28.4786 83.0455C28.3266 83.1535 28.1666 83.2475 27.9986 83.3275C27.8346 83.4035 27.6586 83.4615 27.4706 83.5015C27.2826 83.5415 27.0746 83.5615 26.8466 83.5615C26.6066 83.5615 26.3806 83.5295 26.1686 83.4655C25.9606 83.3975 25.7786 83.2955 25.6226 83.1595C25.4666 83.0235 25.3426 82.8535 25.2506 82.6495C25.1626 82.4455 25.1186 82.2075 25.1186 81.9355C25.1186 81.6955 25.1826 81.4655 25.3106 81.2455C25.4426 81.0215 25.6546 80.8215 25.9466 80.6455C26.2426 80.4695 26.6266 80.3255 27.0986 80.2135C27.5746 80.1015 28.1586 80.0375 28.8506 80.0215V79.5775C28.8506 79.1175 28.7526 78.7735 28.5566 78.5455C28.3606 78.3175 28.0726 78.2035 27.6926 78.2035C27.4366 78.2035 27.2206 78.2355 27.0446 78.2995C26.8726 78.3635 26.7226 78.4355 26.5946 78.5155C26.4706 78.5915 26.3606 78.6615 26.2646 78.7255C26.1726 78.7895 26.0766 78.8215 25.9766 78.8215C25.8966 78.8215 25.8266 78.7995 25.7666 78.7555C25.7106 78.7115 25.6646 78.6595 25.6286 78.5995L25.4186 78.2215ZM32.7629 74.6095V83.4655H31.5869V74.6095H32.7629ZM34.434 83.4655V77.3695H35.136C35.3 77.3695 35.402 77.4475 35.442 77.6035L35.526 78.1855C35.75 77.9175 35.998 77.6995 36.27 77.5315C36.546 77.3595 36.868 77.2735 37.236 77.2735C37.64 77.2735 37.968 77.3855 38.22 77.6095C38.472 77.8295 38.656 78.1295 38.772 78.5095C38.86 78.2935 38.974 78.1075 39.114 77.9515C39.254 77.7955 39.41 77.6675 39.582 77.5675C39.754 77.4675 39.936 77.3935 40.128 77.3455C40.324 77.2975 40.522 77.2735 40.722 77.2735C41.046 77.2735 41.334 77.3255 41.586 77.4295C41.842 77.5295 42.058 77.6775 42.234 77.8735C42.41 78.0695 42.544 78.3115 42.636 78.5995C42.728 78.8875 42.774 79.2155 42.774 79.5835V83.4655H41.598V79.5835C41.598 79.1275 41.498 78.7835 41.298 78.5515C41.102 78.3195 40.814 78.2035 40.434 78.2035C40.266 78.2035 40.106 78.2335 39.954 78.2935C39.802 78.3495 39.668 78.4355 39.552 78.5515C39.44 78.6675 39.35 78.8115 39.282 78.9835C39.218 79.1555 39.186 79.3555 39.186 79.5835V83.4655H38.01V79.5835C38.01 79.1115 37.916 78.7635 37.728 78.5395C37.54 78.3155 37.264 78.2035 36.9 78.2035C36.648 78.2035 36.414 78.2695 36.198 78.4015C35.982 78.5335 35.784 78.7135 35.604 78.9415V83.4655H34.434Z" fill="#828282"/>
<path d="M46.9501 30.3383C46.9309 30.166 46.9118 29.9841 46.883 29.8118C46.8352 29.4289 46.7969 29.0364 46.7394 28.6439C46.347 25.8678 45.3227 23.3215 43.7145 21.091C42.336 19.1669 40.5842 17.6066 38.5261 16.4579C36.6594 15.4144 34.6013 14.7635 32.3995 14.5146C31.7677 14.438 31.1168 14.3997 30.485 14.3997C29.365 14.3997 28.2545 14.5146 27.1441 14.7443V14.7348L26.9814 14.7826C26.7229 14.8401 26.474 14.8975 26.2156 14.9645C25.8901 15.0507 25.555 15.156 25.2296 15.2613C24.9328 15.3474 24.6839 15.424 24.4446 15.5102C21.8504 16.4387 19.5912 17.9991 17.7245 20.1529C15.8579 22.2972 14.5943 24.7765 13.9529 27.5048C13.503 29.4289 13.3881 31.353 13.5987 33.2292C13.8189 35.1438 14.3071 36.9339 15.0538 38.5421C15.8674 40.2843 16.9779 41.8351 18.3468 43.1466C19.8784 44.6112 21.6781 45.7504 23.8511 46.6311C24.7988 47.014 25.7273 47.1958 26.5889 47.3299C27.0388 47.4256 27.5079 47.5022 27.9674 47.5596C28.1301 47.5787 28.2833 47.5979 28.446 47.617C28.9438 47.7032 29.5756 47.7415 30.3318 47.7415C30.6381 47.7415 30.9349 47.7319 31.2125 47.7223L30.9828 47.8181L31.9783 47.6841C32.3995 47.6553 32.7346 47.6075 32.9069 47.5788L32.9547 47.5692C32.9835 47.5596 33.0026 47.55 33.0218 47.5405C34.2854 47.3586 35.5011 47.0618 36.6307 46.6406C38.1336 46.0758 39.5312 45.3196 40.7661 44.3719C42.2403 43.2423 43.4943 41.8734 44.4707 40.2843C45.4471 38.7144 46.1172 37.0488 46.4714 35.3161C46.5863 34.7417 46.6725 34.1578 46.749 33.5834C46.7873 33.3154 46.8256 33.0569 46.8639 32.7889C46.8735 32.741 46.883 32.6836 46.8926 32.6357L46.9118 32.5496L46.9213 30.3957L46.9501 30.3383ZM33.8163 19.5115C35.0607 19.5115 36.0946 20.555 36.085 21.7803C36.0755 23.0056 35.0416 24.049 33.8163 24.049C32.591 24.049 31.5571 23.0056 31.5571 21.7803C31.5667 20.555 32.6005 19.5115 33.8163 19.5115ZM36.3339 44.1613C35.4724 45.4727 34.3236 46.43 32.9356 47.014C32.6293 47.0522 32.3134 47.0905 31.9975 47.1193C30.887 47.215 29.7383 47.2054 28.5609 47.081C28.1492 47.0044 27.7472 46.9469 27.3547 46.8895C27.1441 46.8608 26.9335 46.8321 26.7229 46.7938C25.5167 46.5449 24.3489 46.162 23.248 45.6642C22.0418 45.1186 20.9218 44.4293 19.9167 43.6252C18.9977 42.8881 18.1745 42.0649 17.4661 41.165C16.6141 40.0833 15.9057 38.8963 15.3697 37.6231C14.8719 36.4265 14.5368 35.2874 14.3454 34.1195C14.2784 33.6792 14.2209 33.2197 14.1635 32.7698C14.1348 32.5687 14.1156 32.3677 14.0869 32.1667V30.2713C14.0869 30.2617 14.0869 30.2617 14.0965 30.2521C14.1061 30.2043 14.1252 30.1468 14.1252 30.0798C14.2305 28.7779 14.4794 27.5048 14.8623 26.3178C15.3601 24.7765 16.078 23.3215 17.0162 21.9909C18.1457 20.3827 19.5529 18.9851 21.1899 17.8459C22.5109 16.9269 23.9277 16.2185 25.4114 15.7207C25.6603 15.6442 25.9188 15.5772 26.1773 15.5102C26.3017 15.4719 26.4357 15.4431 26.5602 15.4049C26.5219 15.6825 26.4932 15.9505 26.4549 16.2185C26.34 17.0801 26.2347 17.9033 26.1485 18.7266C25.9858 20.1529 25.8518 21.8569 26.0528 23.5991C26.2251 25.1116 26.6367 26.3656 27.2973 27.4473C27.9291 28.4812 28.714 29.3619 29.6426 30.0511C30.5711 30.7499 31.538 31.4296 32.524 32.0518C32.8399 32.2528 33.1749 32.3964 33.51 32.54C33.7397 32.6357 33.9599 32.7315 34.1705 32.8463C35.549 33.5739 36.5445 34.445 37.2146 35.5171C37.8177 36.484 38.1049 37.5848 38.0666 38.7814C37.9804 40.7343 37.4061 42.5339 36.3339 44.1613Z" fill="white"/>
<path d="M26.897 35.449H26.8587C25.3271 35.449 24.1305 36.6169 24.0827 38.1773C24.0444 39.6897 25.2697 40.9534 26.8205 40.9916C26.8396 40.9916 26.8683 40.9916 26.897 40.9916C28.3808 40.9916 29.6061 39.7568 29.6348 38.2347C29.6444 37.5072 29.3668 36.8084 28.8499 36.2819C28.3329 35.7554 27.6437 35.4586 26.897 35.449Z" fill="white"/>
</svg>
