<svg width="45" height="58" viewBox="0 0 45 58" fill="none" xmlns="http://www.w3.org/2000/svg">
<path d="M9.66142 29.7488C10.1243 31.3022 10.6711 32.6848 11.1681 33.7938C11.6591 34.8904 12.0969 35.7164 12.3519 36.1732C12.3735 36.2134 12.3952 36.2506 12.4168 36.2818C12.4665 36.3754 12.5226 36.4654 12.5754 36.5553C12.5815 36.5709 12.5849 36.5742 12.5849 36.5742C13.0633 37.3911 13.557 38.1986 13.9641 39.047C14.4456 40.038 14.803 41.122 14.8648 42.2125C14.4517 44.176 13.703 47.9938 13.0072 49.8734C15.4271 54.7198 26.4494 58.7614 34.4552 56.711L34.4336 56.5433C34.0887 54.7445 33.8463 52.927 33.7097 51.0974C33.7066 51.0944 33.7066 51.0944 33.7036 51.0944H33.7097C33.6042 49.6993 33.5572 48.3015 33.5727 46.9033C34.8001 47.2888 36.0583 47.5779 37.3506 47.7267C37.9129 47.7889 38.4908 47.8295 39.0466 47.7175C39.6029 47.6056 40.1466 47.329 40.4756 46.8661C41.0754 46.0242 40.8269 44.8746 40.8641 43.8406C40.9138 42.6659 41.3858 41.5102 42.175 40.6405C42.3958 40.3981 42.6534 40.159 42.7248 39.8392C42.8242 39.3945 42.5385 38.9597 42.2403 38.6152C42.0259 38.3727 41.7868 38.1245 41.6468 37.8415C41.9018 37.6863 42.15 37.5213 42.3924 37.3414C42.6595 37.1423 42.9422 36.8941 42.9797 36.5587C43.0014 36.3348 42.9084 36.1205 42.8181 35.9152C42.5696 35.3593 42.3241 34.8065 42.079 34.2533C42.9983 33.8712 43.8338 33.2809 44.4925 32.5387C44.7661 32.2344 45.0176 31.8706 44.999 31.4634C44.9771 31.01 44.6295 30.6496 44.3062 30.3331C42.669 28.7141 41.1251 26.8534 40.6186 24.6076C40.2085 22.7868 40.5226 20.8764 40.2768 19.0278C40.2582 18.8943 40.1216 18.36 39.9227 17.6736C38.9317 14.2812 36.841 11.277 33.9021 9.31075C32.9113 8.64565 31.7989 8.0803 30.5624 7.67015V29.7488H9.66142Z" fill="#929DFF"/>
<path d="M23.795 42.1291C23.795 42.1291 27.2128 49.8425 33.7102 51.0959C33.6037 49.7001 33.5584 48.3013 33.5716 46.9028C30.1379 45.8292 26.9199 43.978 23.795 42.1291Z" fill="#363449"/>
<path d="M11.1678 33.7943C11.3541 34.2606 11.5594 34.7079 11.7805 35.1397C11.9617 35.4886 12.1535 35.8318 12.3506 36.173C12.0977 35.7175 11.6581 34.8891 11.1678 33.7943Z" fill="#8BADF2"/>
<path d="M12.4172 36.2823C12.497 36.4263 12.5505 36.5193 12.5745 36.5568C12.5214 36.4662 12.468 36.3752 12.4172 36.2823Z" fill="#8BADF2"/>
<path d="M18.7416 17.1313V22.4858C18.8721 22.4243 18.9708 22.334 19.032 22.2728C19.6606 21.6067 20.5583 21.2233 21.4906 21.2233H21.5521C23.3394 21.2632 24.8285 22.7469 24.8739 24.5319C24.8952 25.4532 24.5543 26.3243 23.9122 26.9853C23.2678 27.6433 22.4045 28.0054 21.4801 28.0054C20.5239 28.0054 19.6048 27.598 18.9627 26.8842C18.9039 26.82 18.8295 26.7696 18.7416 26.7324V28.9434H29.7571V17.1313H25.1058V16.6464C25.1058 16.2227 25.2681 15.8048 25.5853 15.5194C26.1128 15.0427 26.4431 14.3583 26.4431 13.5935C26.4431 12.1605 25.2843 10.999 23.8483 10.999H23.7844C22.4204 11.0338 21.2884 12.1737 21.2589 13.5377C21.2431 14.2941 21.5521 14.9842 22.0583 15.469C22.3859 15.7808 22.5939 16.196 22.5939 16.6464V17.1313H18.7416Z" fill="#B6C1FF"/>
<path d="M21.31 14.8676C20.8427 14.0409 20.7375 13.0495 21.0259 12.1451C21.5727 10.4453 23.4162 9.43801 25.1396 9.9009L25.2187 9.92457C27.0162 10.4564 28.0404 12.352 27.5082 14.1444C27.2367 15.0611 26.5831 15.8259 25.7151 16.2401C25.6377 16.2776 25.5673 16.3361 25.5054 16.4071L29.1393 17.4841L32.2724 6.9264L30.2974 6.34009L30.4353 5.87922C30.556 5.47009 30.8326 5.11371 31.2174 4.93146C31.8555 4.62714 32.3681 4.06213 32.5858 3.32806C32.9929 1.9556 32.2119 0.51045 30.8316 0.103683L30.7745 0.0864391C29.4595 -0.268932 28.0478 0.501997 27.6329 1.80243C27.4037 2.52366 27.5021 3.27261 27.8497 3.8809C28.0725 4.2738 28.156 4.7323 28.0265 5.16375L27.8909 5.62732L21.7117 3.79332L19.6302 10.8074L19.3722 11.6832L18.5786 14.3513L21.4351 15.1983C21.4117 15.0607 21.3553 14.942 21.31 14.8676Z" fill="#363449"/>
<path d="M0.000757217 22.7044C0.0355835 24.0681 1.17304 25.2032 2.53671 25.2299H2.59284C3.33063 25.2299 3.99944 24.9259 4.46809 24.4302C4.78255 24.1029 5.1981 23.8949 5.64849 23.8949H6.13336V28.9432H17.9424V25.8716H18.4273C18.851 25.8716 19.2716 26.0343 19.5539 26.3484C20.0307 26.8759 20.7181 27.2062 21.4799 27.2062C22.9372 27.2062 24.1092 26.0126 24.0747 24.5502C24.0402 23.1839 22.9024 22.0515 21.5387 22.0221H21.4907C20.7502 22.0221 20.0787 22.326 19.6074 22.8241C19.2929 23.1517 18.8774 23.3594 18.4273 23.3594H17.9424V17.9304H14.1676C14.2315 18.0585 14.3167 18.1569 14.3806 18.2158C15.068 18.8734 15.4491 19.7928 15.4278 20.7436C15.393 22.5282 13.912 24.0177 12.1243 24.063C12.0952 24.063 12.0685 24.0654 12.0418 24.0654C10.1689 24.0654 8.6453 22.5418 8.6453 20.6689C8.6453 19.7127 9.05545 18.7936 9.76687 18.1515C9.83348 18.093 9.88386 18.0159 9.92139 17.9304H6.13336V21.383H5.64849C5.22482 21.383 4.80385 21.2204 4.52151 20.9035C4.04441 20.3757 3.35734 20.0457 2.59554 20.0457C1.13822 20.0457 -0.0337315 21.239 0.000757217 22.7044Z" fill="#6D7EE2"/>
<path d="M6.13307 5.31967V17.1314H10.7816V17.616C10.7816 18.0397 10.619 18.4579 10.3022 18.743C9.77469 19.2197 9.444 19.9048 9.444 20.6693C9.444 22.1022 10.6031 23.2664 12.0415 23.2664C12.0601 23.2664 12.0814 23.2637 12.1027 23.2637C13.4667 23.2292 14.6014 22.0891 14.6285 20.7251C14.6441 19.9683 14.3353 19.2786 13.8292 18.7937C13.5015 18.4819 13.2936 18.0664 13.2936 17.616V17.1314H17.9421V14.3477H17.46C17.0096 14.3477 16.594 14.5553 16.2799 14.8829C15.8055 15.3813 15.1343 15.6846 14.3965 15.6846H14.3485C12.9845 15.6555 11.8444 14.5208 11.8099 13.1568C11.7778 11.6944 12.95 10.5008 14.4043 10.5008C15.1692 10.5008 15.8562 10.8311 16.3306 11.3586C16.6153 11.6731 17.0336 11.8357 17.46 11.8357H17.9421V5.31967H10.6112V5.80454C10.6112 6.25459 10.8188 6.67015 11.1465 6.98461C11.6526 7.46677 11.9617 8.15689 11.9458 8.91598C11.9377 9.40052 11.7859 9.85632 11.5357 10.2452C11.5008 10.301 11.4636 10.3544 11.4234 10.4078C11.3784 10.4636 11.3328 10.5224 11.2851 10.5755C11.2371 10.6286 11.1864 10.682 11.1356 10.73C10.6829 11.1615 10.0783 11.4333 9.42033 11.4519C9.39903 11.4519 9.37773 11.4546 9.35643 11.4546C7.9204 11.4546 6.76164 10.2932 6.76164 8.85715C6.76164 8.09535 7.09199 7.40828 7.61947 6.93118C7.9363 6.64885 8.09893 6.22822 8.09893 5.80454V5.31967H6.13307Z" fill="#B6C1FF"/>
<path d="M15.7073 31.037C15.9099 32.3554 16.3893 33.7302 17.0554 34.8893C17.6468 35.9253 18.5391 36.8471 19.7033 37.2065C20.7823 37.5396 22.0611 37.2975 22.812 36.418C23.5738 35.5206 23.843 34.2151 23.9282 33.0695C23.9843 32.3182 23.939 31.5618 23.8004 30.8237V30.821C23.6617 29.4627 23.2195 28.1095 22.2873 27.084C21.4267 26.1356 20.1162 25.5628 18.8292 25.7065C17.7239 25.8316 16.8022 26.5109 16.2483 27.462C15.6167 28.5491 15.5183 29.8171 15.7073 31.037Z" fill="#929DFF"/>
<path d="M16.6718 26.1415C17.9401 25.098 19.7346 25.1095 21.1496 25.849C22.5802 26.5963 23.4678 28.0326 23.9043 29.5572H30.559C30.9015 29.5572 30.9022 30.0898 30.559 30.0898H24.0379C24.0687 30.2335 24.0974 30.3765 24.1207 30.5199C24.1755 30.8553 23.6622 30.9997 23.6068 30.6616C23.3644 29.1755 22.7381 27.6857 21.5317 26.7285C20.401 25.8318 18.6908 25.5112 17.4066 26.2717C16.0314 27.0859 15.5377 28.7741 15.625 30.2849C15.7183 31.8971 16.3053 33.6344 17.2152 34.9703C18.187 36.3969 19.9243 37.4535 21.6839 36.9436C22.0139 36.8483 22.1549 37.3626 21.8255 37.4576C20.1447 37.9441 18.3777 37.1691 17.2625 35.8964C16.0686 34.5331 15.3825 32.6322 15.1482 30.8553C14.9257 29.167 15.296 27.2732 16.6718 26.1415Z" fill="#363449"/>
</svg>
