<svg width="40" height="65" viewBox="0 0 40 65" fill="none" xmlns="http://www.w3.org/2000/svg">
<path d="M0.195189 33.1383V33.153C0.203794 33.2677 0.209888 33.3853 0.221363 33.5033C0.245029 33.6765 0.298098 33.8386 0.374472 33.9888C1.02205 35.2388 3.32549 35.4833 6.52965 34.8651C6.59419 34.3359 6.73223 33.8149 6.95598 33.3237C7.11518 32.9737 7.321 32.641 7.56519 32.3408C8.45372 31.2375 9.84209 30.5286 11.2398 30.6993C11.5309 30.7316 11.811 30.8022 12.0842 30.9023C12.8964 31.1963 13.62 31.7524 14.1908 32.4115C15.5003 31.8553 16.8474 31.2228 18.2096 30.5168C20.0749 29.5519 21.8111 28.5282 23.3734 27.4951C28.9839 23.7822 32.3555 19.9132 31.3379 17.9479C31.2995 17.8716 31.2522 17.8009 31.1995 17.7331C31.117 17.6421 31.0345 17.5539 30.9463 17.4657C29.4604 16.1917 25.2472 16.6592 20.0781 18.5216C18.7102 19.0161 17.2774 19.6074 15.8061 20.2897C15.0438 20.6429 14.2733 21.0226 13.4995 21.4228C11.702 22.3522 10.0246 23.335 8.50679 24.3326C6.25319 25.8124 4.34919 27.3187 2.9368 28.725C1.22786 30.4229 0.233196 31.9733 0.195189 33.1383Z" fill="#0CF5F3"/>
<path d="M10.1397 29.5694C10.731 30.1226 11.4137 30.5196 12.1344 30.7641C14.1381 31.4465 16.4419 30.9495 17.9805 29.3047C20.0724 27.0626 19.9548 23.5497 17.7187 21.4578C17.1479 20.9282 16.4974 20.537 15.8065 20.29C13.7849 19.5632 11.4341 20.0576 9.87506 21.7286C9.16581 22.4848 8.71294 23.388 8.50676 24.3325C8.10373 26.1802 8.65664 28.1839 10.1397 29.5694ZM4.62025 26.486C4.51698 25.5624 4.55857 24.615 4.74359 23.6824L2.61693 22.4407L5.70312 17.1654L7.83014 18.4071C8.55087 17.7922 9.35442 17.292 10.2164 16.9241L10.0221 14.4615L16.1238 13.9968L16.3124 16.4888C17.0948 16.6946 17.8596 17.0152 18.5926 17.4451C19.1308 17.7567 19.6281 18.1185 20.0785 18.5215C20.261 18.6804 20.4342 18.8482 20.602 19.0217L22.885 17.9568L25.4771 23.4938L23.1646 24.5738C23.2586 25.4742 23.2177 26.395 23.0352 27.2982L23.3733 27.495C21.8114 28.5281 20.0752 29.5518 18.21 30.5167C16.8478 31.2227 15.5003 31.8552 14.1911 32.4114C13.6203 31.7523 12.8963 31.1965 12.0845 30.9022C11.811 30.8021 11.5313 30.7315 11.2398 30.6992C9.84243 30.5285 8.45405 31.2374 7.56516 32.3407C7.44755 32.2349 7.33604 32.1259 7.22703 32.0144L4.97021 33.0708L2.93713 28.7253L2.38099 27.5334L4.62025 26.486Z" fill="#3AD4D1"/>
<path d="M4.73061 45.2881C5.26236 46.3853 5.65751 47.5815 5.72564 48.7845C5.26918 50.952 4.65567 53.0887 3.88869 55.1677C7.09249 56.6023 9.52573 59.3217 12.4258 61.3017C16.7437 64.2599 22.1825 65.5274 27.3623 64.7985L27.3354 64.6142C26.9568 62.6274 26.6875 60.6169 26.5376 58.596C26.4218 57.0556 26.3709 55.5119 26.3845 53.9647C27.741 54.3939 29.1347 54.7109 30.5625 54.8744C31.1825 54.9461 31.8168 54.9902 32.4335 54.8676C33.0471 54.7417 33.6469 54.4348 34.0112 53.9235C34.6724 52.9934 34.3963 51.7255 34.4404 50.5841C34.4953 49.2854 35.0167 48.0111 35.8891 47.0501C36.1343 46.7808 36.4172 46.5148 36.4958 46.1637C36.6048 45.6732 36.2878 45.1927 35.9608 44.8144C35.7252 44.5451 35.4595 44.2723 35.3032 43.9557C35.5857 43.7853 35.8586 43.6046 36.1279 43.4067C36.4244 43.1855 36.7378 42.9126 36.7787 42.5411C36.8023 42.2959 36.6966 42.0574 36.5979 41.829C36.3251 41.2191 36.0529 40.6056 35.7801 39.9921C36.7991 39.5732 37.7192 38.9221 38.4485 38.101C38.7483 37.7668 39.0276 37.3648 39.0075 36.9116C38.9835 36.4139 38.5984 36.0152 38.2441 35.6641C36.4344 33.8785 34.7269 31.8235 34.1683 29.3394C33.7147 27.3317 34.0625 25.2223 33.79 23.1777C33.5239 21.1705 32.573 19.255 31.1997 17.7318C31.251 17.7999 31.2987 17.8717 31.336 17.9466C32.6379 20.4616 26.7628 26.0846 18.2092 30.5183C16.8491 31.2236 15.4995 31.854 14.1911 32.413C13.4277 31.5302 12.395 30.8385 11.2397 30.6987C9.46083 30.4807 7.6956 31.6905 6.95588 33.3231C6.73106 33.8139 6.5948 34.3353 6.53026 34.8667C3.32681 35.4834 1.02302 35.2382 0.375443 33.9875C0.297276 33.8376 0.245998 33.6773 0.221977 33.5034C0.419907 36.0252 1.17648 38.745 2.3178 40.9738C3.07438 42.4389 4.01849 43.8022 4.73061 45.2881Z" fill="#21DFDD"/>
<path d="M15.5884 48.6934C15.5884 48.6934 19.3627 57.2126 26.5391 58.5966C26.4215 57.0548 26.3713 55.5105 26.386 53.9657C22.5934 52.78 19.0396 50.7351 15.5884 48.6934Z" fill="#363449"/>
<path d="M6.79097 32.9052C7.45396 31.3157 8.93628 30.231 10.6743 30.1787C12.5227 30.1224 14.1897 31.3759 14.7784 33.1032C14.9011 33.4625 14.3331 33.6166 14.2112 33.2599C13.7536 31.9181 12.4936 30.8761 11.0637 30.775C9.51573 30.6653 8.09437 31.5291 7.42599 32.9171C6.76049 34.3001 6.75727 35.9968 7.08249 37.4694C7.41847 38.9891 8.1503 40.4276 9.2217 41.5607C9.82266 42.1964 10.5592 42.7612 11.4319 42.9441C12.2416 43.1137 13.1147 42.8989 13.6665 42.2664C13.9157 41.9806 14.3306 42.3983 14.0824 42.6827C12.892 44.047 10.8822 43.6806 9.59139 42.6888C8.16357 41.5923 7.15922 39.917 6.66296 38.2027C6.17173 36.5085 6.10252 34.5561 6.79097 32.9052Z" fill="#363449"/>
<path d="M26.8133 24.5878C28.8137 22.8255 31.0967 20.7705 31.1882 17.8995C31.2003 17.5215 31.7888 17.5201 31.7769 17.8995C31.6794 20.9462 29.362 23.1249 27.2292 25.0038C26.9463 25.2533 26.5286 24.8388 26.8133 24.5878Z" fill="#363449"/>
<path d="M14.5008 31.9883C18.0431 30.4103 21.4319 28.5059 24.6221 26.3007C24.9341 26.0848 25.2284 26.5947 24.919 26.8088C21.7288 29.014 18.34 30.9183 14.7977 32.4964C14.4549 32.6491 14.1552 32.1421 14.5008 31.9883Z" fill="#363449"/>
<path d="M2.1895 35.2182C2.23432 35.0479 2.3946 34.9916 2.55129 35.0127C3.83926 35.1874 5.15485 35.0783 6.40159 34.7176C6.76589 34.6122 6.92151 35.1798 6.55792 35.2852C5.20254 35.6772 3.79122 35.7693 2.3946 35.58C2.23611 35.5585 2.15256 35.357 2.1895 35.2182Z" fill="#363449"/>
<path d="M8.21151 7.14436C7.41764 7.99344 7.45852 9.32696 8.31191 10.1251C9.161 10.9183 10.4945 10.8692 11.288 10.0204C12.0819 9.17098 12.041 7.83747 11.1923 7.0436C10.3385 6.24614 9.00502 6.29527 8.21151 7.14436ZM13.1558 6.46021C13.362 6.7926 13.523 7.15583 13.6205 7.54237L14.7209 7.61982L14.5302 10.2542L13.4297 10.1768C13.2766 10.5425 13.0633 10.876 12.8109 11.1811L13.3684 12.1284L11.0908 13.4684L10.5422 12.5293C10.1844 12.605 9.81216 12.6258 9.43387 12.6003C9.07279 12.5745 8.71852 12.4974 8.39259 12.3812L7.71274 13.2224L5.65636 11.5623L6.32329 10.7347C6.10851 10.3941 5.94357 10.0183 5.83672 9.62349L4.77894 9.54461L4.9697 6.91057L6.02748 6.9891C6.19277 6.61045 6.41007 6.26407 6.6711 5.95857L6.1311 5.03598L8.40872 3.69601L8.95733 4.62685C9.29833 4.56016 9.65761 4.53542 10.0234 4.56554C10.4013 4.591 10.7599 4.67203 11.1034 4.7961L11.7825 3.94665L13.8432 5.60216L13.1558 6.46021Z" fill="#0CF5F3"/>
<path d="M20.6214 8.50998C19.5048 9.70473 19.5636 11.5804 20.763 12.7013C21.9578 13.8182 23.8377 13.7548 24.9543 12.5596C26.0752 11.3606 26.0074 9.48529 24.8127 8.36835C23.6136 7.24746 21.7423 7.31093 20.6214 8.50998ZM25.7446 6.09072C26.1609 6.37328 26.5284 6.69993 26.8375 7.07105L28.18 6.53822L29.4597 9.80118L28.1004 10.3344C28.118 10.8511 28.0635 11.3742 27.9236 11.8834L29.1338 12.7027L27.1803 15.5999L25.9705 14.7889C25.5531 15.104 25.0866 15.3572 24.5968 15.5304L24.6165 16.9919L21.1123 17.0299L21.0976 15.5892C20.6393 15.4393 20.1993 15.2252 19.7831 14.9427C19.3797 14.6723 19.0261 14.3579 18.7256 14.0036L17.3953 14.5232L16.1196 11.2645L17.4377 10.7496C17.4111 10.216 17.4692 9.68035 17.6083 9.15433L16.4373 8.36297L18.3907 5.46574L19.5618 6.2485C19.996 5.92435 20.4747 5.66654 20.9771 5.48869L20.9592 4.07773L24.4588 4.03577L24.4774 5.46359C24.9149 5.61024 25.3412 5.82036 25.7446 6.09072Z" fill="#21DFDD"/>
<path d="M3.97888 15.4294C3.97602 15.4298 3.97279 15.4302 3.97028 15.4302C3.67231 15.4631 3.37398 15.4961 3.07565 15.5288C2.91752 15.5463 2.78163 15.381 2.78163 15.2347C2.78163 15.0612 2.91717 14.9579 3.07565 14.9404C3.42561 14.902 3.77594 14.8633 4.1259 14.8249C4.30052 14.8055 4.47586 14.7865 4.65084 14.7672C4.8624 14.7439 5.09009 14.7815 5.16108 15.0185C5.21128 15.1845 5.12845 15.3792 5.08722 15.5399C5.04132 15.7192 4.99507 15.8988 4.94881 16.0781C4.85989 16.4238 4.77096 16.7698 4.68204 17.1154C4.64259 17.2693 4.47156 17.3628 4.31988 17.3209C4.16426 17.2782 4.07498 17.1136 4.11478 16.9591C4.19689 16.6389 4.27936 16.3187 4.36148 15.9981L4.39984 15.8497C1.09313 19.2919 -0.199145 24.271 1.06588 28.9037C1.16592 29.2694 0.598309 29.4254 0.498627 29.06C-0.820185 24.2316 0.523368 19.0151 3.97888 15.4294Z" fill="#363449"/>
<path d="M6.19842 1.86564C6.47488 1.25966 6.81193 0.683799 7.20421 0.144872C7.29743 0.0168629 7.45986 -0.0466032 7.60688 0.039453C7.73345 0.113318 7.80624 0.312681 7.71266 0.441766C7.50002 0.73364 7.30532 1.03663 7.1264 1.3493C8.75824 0.674118 10.6149 0.57085 12.3012 1.13452C14.0511 1.7197 15.5384 2.96106 16.4413 4.5678C16.627 4.8984 16.1189 5.1953 15.9332 4.8647C15.1063 3.39314 13.7509 2.23891 12.1449 1.70177C10.5077 1.1546 8.70445 1.27328 7.14217 1.98361C7.52082 2.1403 7.89947 2.29699 8.27847 2.45405C8.42513 2.51465 8.52947 2.64911 8.48358 2.81584C8.44593 2.95461 8.26951 3.08262 8.12178 3.0213C7.53911 2.77999 6.95679 2.53903 6.37412 2.29807C6.18695 2.22026 6.11237 2.05424 6.19842 1.86564Z" fill="#363449"/>
</svg>
