<svg width="80" height="80" viewBox="0 0 80 80" fill="none" xmlns="http://www.w3.org/2000/svg">
<circle cx="40" cy="40" r="37.5" stroke="black" stroke-opacity="0.06" stroke-width="5"/>
<path d="M41.7281 43.3507C41.7281 43.3507 56.6374 44.2386 61.206 39.3548C61.206 39.3548 64.1058 49.9826 64.5162 54.8387H58.3062L56.8563 49.0669C56.8016 48.8449 56.5007 48.8449 56.4459 49.0669C56.1997 50.3156 55.7894 52.6743 55.7894 54.8387H41.2903L41.7281 43.3507Z" fill="#0C9BE2"/>
<path d="M39.545 42.5653C39.545 42.5653 39.545 40.7766 42.4466 40.8041C42.4466 40.8041 46.2241 41.2995 52.4104 40.3638C52.4104 40.3638 57.803 39.4833 59.8833 37.2818C59.8833 37.2818 62.429 33.952 58.2135 32.9063C58.2135 32.9063 51.1513 34.2272 46.1967 33.7869C46.1967 33.7869 34.1798 31.5854 25.4478 32.466C25.4478 32.466 20.11 32.466 18.8234 37.7221L15.4839 54.8387H21.6976L22.9294 48.702C22.9294 48.702 23.34 48.2617 23.34 49.1423C23.34 49.1423 23.7506 54.3984 24.1612 54.8387H38.669L39.545 42.5653Z" fill="#303C72"/>
<path d="M31.2903 30.3226C35.0316 30.3226 38.0645 27.1452 38.0645 23.2258C38.0645 19.3064 35.0316 16.129 31.2903 16.129C27.549 16.129 24.5161 19.3064 24.5161 23.2258C24.5161 27.1452 27.549 30.3226 31.2903 30.3226Z" fill="#303C72"/>
<path d="M48.0645 32.2581C51.8058 32.2581 54.8387 28.9363 54.8387 24.8387C54.8387 20.7411 51.8058 17.4194 48.0645 17.4194C44.3233 17.4194 41.2903 20.7411 41.2903 24.8387C41.2903 28.9363 44.3233 32.2581 48.0645 32.2581Z" fill="#0C9BE2"/>
<path d="M48.3871 28.3871C50.1686 28.3871 51.6129 26.7985 51.6129 24.8387C51.6129 22.879 50.1686 21.2903 48.3871 21.2903C46.6055 21.2903 45.1613 22.879 45.1613 24.8387C45.1613 26.7985 46.6055 28.3871 48.3871 28.3871Z" fill="white"/>
<path d="M31.6129 26.4516C33.3944 26.4516 34.8387 25.0074 34.8387 23.2258C34.8387 21.4442 33.3944 20 31.6129 20C29.8313 20 28.3871 21.4442 28.3871 23.2258C28.3871 25.0074 29.8313 26.4516 31.6129 26.4516Z" fill="white"/>
</svg>
