<svg width="50" height="39" viewBox="0 0 50 39" fill="none" xmlns="http://www.w3.org/2000/svg">
<path d="M26.728 27.3507C26.728 27.3507 41.6374 28.2386 46.2059 23.3548C46.2059 23.3548 49.1057 33.9826 49.5161 38.8387H43.3061L41.8562 33.0669C41.8015 32.8449 41.5006 32.8449 41.4459 33.0669C41.1997 34.3156 40.7893 36.6743 40.7893 38.8387H26.2903L26.728 27.3507Z" fill="#0C9BE2"/>
<path d="M24.545 26.5653C24.545 26.5653 24.545 24.7766 27.4466 24.8041C27.4466 24.8041 31.2241 25.2995 37.4104 24.3638C37.4104 24.3638 42.803 23.4833 44.8833 21.2818C44.8833 21.2818 47.429 17.952 43.2135 16.9063C43.2135 16.9063 36.1513 18.2272 31.1967 17.7869C31.1967 17.7869 19.1798 15.5854 10.4478 16.466C10.4478 16.466 5.10997 16.466 3.82343 21.7221L0.483887 38.8387H6.69762L7.92942 32.702C7.92942 32.702 8.34002 32.2617 8.34002 33.1423C8.34002 33.1423 8.75062 38.3984 9.16121 38.8387H23.669L24.545 26.5653Z" fill="#303C72"/>
<path d="M16.2903 14.3226C20.0316 14.3226 23.0645 11.1452 23.0645 7.2258C23.0645 3.30636 20.0316 0.129028 16.2903 0.129028C12.549 0.129028 9.51611 3.30636 9.51611 7.2258C9.51611 11.1452 12.549 14.3226 16.2903 14.3226Z" fill="#303C72"/>
<path d="M33.0645 16.2581C36.8058 16.2581 39.8387 12.9363 39.8387 8.83873C39.8387 4.74114 36.8058 1.41937 33.0645 1.41937C29.3232 1.41937 26.2903 4.74114 26.2903 8.83873C26.2903 12.9363 29.3232 16.2581 33.0645 16.2581Z" fill="#0C9BE2"/>
<path d="M33.3871 12.3871C35.1686 12.3871 36.6129 10.7985 36.6129 8.83873C36.6129 6.87901 35.1686 5.29034 33.3871 5.29034C31.6055 5.29034 30.1613 6.87901 30.1613 8.83873C30.1613 10.7985 31.6055 12.3871 33.3871 12.3871Z" fill="white"/>
<path d="M16.6129 10.4516C18.3944 10.4516 19.8387 9.00737 19.8387 7.22581C19.8387 5.44425 18.3944 4 16.6129 4C14.8313 4 13.3871 5.44425 13.3871 7.22581C13.3871 9.00737 14.8313 10.4516 16.6129 10.4516Z" fill="white"/>
</svg>
