<svg width="60" height="86" viewBox="0 0 60 86" fill="none" xmlns="http://www.w3.org/2000/svg">
<rect width="59.1982" height="62.0627" rx="16" fill="#EF5DA8"/>
<path d="M20.6405 74.8495V83.4655H19.3625V79.5835H14.8685V83.4655H13.5845V74.8495H14.8685V78.6535H19.3625V74.8495H20.6405ZM25.6322 80.7595C25.1562 80.7755 24.7522 80.8135 24.4202 80.8735C24.0882 80.9295 23.8182 81.0055 23.6102 81.1015C23.4022 81.1975 23.2522 81.3115 23.1602 81.4435C23.0682 81.5715 23.0222 81.7155 23.0222 81.8755C23.0222 82.0275 23.0462 82.1595 23.0942 82.2715C23.1462 82.3795 23.2142 82.4695 23.2982 82.5415C23.3862 82.6095 23.4882 82.6595 23.6042 82.6915C23.7202 82.7235 23.8462 82.7395 23.9822 82.7395C24.1622 82.7395 24.3262 82.7215 24.4742 82.6855C24.6262 82.6495 24.7682 82.5995 24.9002 82.5355C25.0322 82.4675 25.1582 82.3855 25.2782 82.2895C25.3982 82.1935 25.5162 82.0835 25.6322 81.9595V80.7595ZM22.2002 78.2215C22.5402 77.8975 22.9082 77.6555 23.3042 77.4955C23.7042 77.3355 24.1422 77.2555 24.6182 77.2555C24.9662 77.2555 25.2742 77.3135 25.5422 77.4295C25.8102 77.5415 26.0362 77.6995 26.2202 77.9035C26.4042 78.1075 26.5422 78.3515 26.6342 78.6355C26.7302 78.9195 26.7782 79.2335 26.7782 79.5775V83.4655H26.2562C26.1402 83.4655 26.0522 83.4475 25.9922 83.4115C25.9322 83.3715 25.8842 83.2995 25.8482 83.1955L25.7222 82.6615C25.5662 82.8055 25.4122 82.9335 25.2602 83.0455C25.1082 83.1535 24.9482 83.2475 24.7802 83.3275C24.6162 83.4035 24.4402 83.4615 24.2522 83.5015C24.0642 83.5415 23.8562 83.5615 23.6282 83.5615C23.3882 83.5615 23.1622 83.5295 22.9502 83.4655C22.7422 83.3975 22.5602 83.2955 22.4042 83.1595C22.2482 83.0235 22.1242 82.8535 22.0322 82.6495C21.9442 82.4455 21.9002 82.2075 21.9002 81.9355C21.9002 81.6955 21.9642 81.4655 22.0922 81.2455C22.2242 81.0215 22.4362 80.8215 22.7282 80.6455C23.0242 80.4695 23.4082 80.3255 23.8802 80.2135C24.3562 80.1015 24.9402 80.0375 25.6322 80.0215V79.5775C25.6322 79.1175 25.5342 78.7735 25.3382 78.5455C25.1422 78.3175 24.8542 78.2035 24.4742 78.2035C24.2182 78.2035 24.0022 78.2355 23.8262 78.2995C23.6542 78.3635 23.5042 78.4355 23.3762 78.5155C23.2522 78.5915 23.1422 78.6615 23.0462 78.7255C22.9542 78.7895 22.8582 78.8215 22.7582 78.8215C22.6782 78.8215 22.6082 78.7995 22.5482 78.7555C22.4922 78.7115 22.4462 78.6595 22.4102 78.5995L22.2002 78.2215ZM29.5145 81.9655C29.7065 82.2175 29.9125 82.3935 30.1325 82.4935C30.3565 82.5935 30.6065 82.6435 30.8825 82.6435C31.4185 82.6435 31.8325 82.4515 32.1245 82.0675C32.4205 81.6795 32.5685 81.1155 32.5685 80.3755C32.5685 79.9875 32.5345 79.6575 32.4665 79.3855C32.4025 79.1095 32.3065 78.8855 32.1785 78.7135C32.0545 78.5375 31.9005 78.4095 31.7165 78.3295C31.5325 78.2455 31.3245 78.2035 31.0925 78.2035C30.7525 78.2035 30.4565 78.2795 30.2045 78.4315C29.9565 78.5835 29.7265 78.7995 29.5145 79.0795V81.9655ZM29.4545 78.2815C29.5825 78.1295 29.7185 77.9915 29.8625 77.8675C30.0105 77.7395 30.1685 77.6315 30.3365 77.5435C30.5045 77.4515 30.6825 77.3815 30.8705 77.3335C31.0625 77.2815 31.2665 77.2555 31.4825 77.2555C31.8305 77.2555 32.1445 77.3235 32.4245 77.4595C32.7085 77.5955 32.9505 77.7955 33.1505 78.0595C33.3505 78.3235 33.5045 78.6495 33.6125 79.0375C33.7245 79.4255 33.7805 79.8715 33.7805 80.3755C33.7805 80.8275 33.7185 81.2475 33.5945 81.6355C33.4745 82.0195 33.3005 82.3535 33.0725 82.6375C32.8485 82.9215 32.5725 83.1455 32.2445 83.3095C31.9205 83.4695 31.5545 83.5495 31.1465 83.5495C30.7825 83.5495 30.4705 83.4895 30.2105 83.3695C29.9505 83.2495 29.7185 83.0815 29.5145 82.8655V85.5115H28.3445V77.3695H29.0465C29.2105 77.3695 29.3125 77.4475 29.3525 77.6035L29.4545 78.2815ZM36.2645 81.9655C36.4565 82.2175 36.6625 82.3935 36.8825 82.4935C37.1065 82.5935 37.3565 82.6435 37.6325 82.6435C38.1685 82.6435 38.5825 82.4515 38.8745 82.0675C39.1705 81.6795 39.3185 81.1155 39.3185 80.3755C39.3185 79.9875 39.2845 79.6575 39.2165 79.3855C39.1525 79.1095 39.0565 78.8855 38.9285 78.7135C38.8045 78.5375 38.6505 78.4095 38.4665 78.3295C38.2825 78.2455 38.0745 78.2035 37.8425 78.2035C37.5025 78.2035 37.2065 78.2795 36.9545 78.4315C36.7065 78.5835 36.4765 78.7995 36.2645 79.0795V81.9655ZM36.2045 78.2815C36.3325 78.1295 36.4685 77.9915 36.6125 77.8675C36.7605 77.7395 36.9185 77.6315 37.0865 77.5435C37.2545 77.4515 37.4325 77.3815 37.6205 77.3335C37.8125 77.2815 38.0165 77.2555 38.2325 77.2555C38.5805 77.2555 38.8945 77.3235 39.1745 77.4595C39.4585 77.5955 39.7005 77.7955 39.9005 78.0595C40.1005 78.3235 40.2545 78.6495 40.3625 79.0375C40.4745 79.4255 40.5305 79.8715 40.5305 80.3755C40.5305 80.8275 40.4685 81.2475 40.3445 81.6355C40.2245 82.0195 40.0505 82.3535 39.8225 82.6375C39.5985 82.9215 39.3225 83.1455 38.9945 83.3095C38.6705 83.4695 38.3045 83.5495 37.8965 83.5495C37.5325 83.5495 37.2205 83.4895 36.9605 83.3695C36.7005 83.2495 36.4685 83.0815 36.2645 82.8655V85.5115H35.0945V77.3695H35.7965C35.9605 77.3695 36.0625 77.4475 36.1025 77.6035L36.2045 78.2815ZM47.0084 77.3695L43.6244 85.2355C43.5884 85.3235 43.5404 85.3915 43.4804 85.4395C43.4204 85.4875 43.3324 85.5115 43.2164 85.5115H42.3464L43.4624 83.0815L40.9604 77.3695H41.9804C42.0804 77.3695 42.1584 77.3935 42.2144 77.4415C42.2704 77.4895 42.3104 77.5435 42.3344 77.6035L43.8824 81.2635C43.9144 81.3555 43.9444 81.4495 43.9724 81.5455C44.0044 81.6375 44.0304 81.7295 44.0504 81.8215C44.0784 81.7255 44.1084 81.6315 44.1404 81.5395C44.1724 81.4435 44.2064 81.3495 44.2424 81.2575L45.7364 77.6035C45.7644 77.5355 45.8084 77.4795 45.8684 77.4355C45.9284 77.3915 45.9964 77.3695 46.0724 77.3695H47.0084Z" fill="#828282"/>
<g clip-path="url(#clip0_28_248)">
<path d="M12.7617 31.0535C12.7617 21.8909 20.1893 14.4633 29.3519 14.4633C38.5145 14.4633 45.9421 21.8909 45.9421 31.0535C45.9421 40.2161 38.5145 47.6437 29.3519 47.6437C20.1893 47.6437 12.7617 40.2161 12.7617 31.0535Z" fill="white"/>
<path d="M24.4656 27.0283C24.4656 28.1667 23.9184 29.0891 23.2434 29.0891C22.5683 29.0891 22.0205 28.1667 22.0205 27.0283C22.0205 25.8899 22.5683 24.9681 23.2434 24.9681C23.9184 24.9681 24.4656 25.8905 24.4656 27.0283Z" fill="#EF5DA8"/>
<path d="M36.6868 27.0283C36.6868 28.1667 36.139 29.0891 35.4639 29.0891C34.7889 29.0891 34.2417 28.1667 34.2417 27.0283C34.2417 25.8899 34.7889 24.9681 35.4639 24.9681C36.139 24.9681 36.6868 25.8905 36.6868 27.0283Z" fill="#EF5DA8"/>
<path d="M18.2041 32.622C18.8363 38.221 23.5848 42.5725 29.3521 42.5725C35.1195 42.5725 39.8679 38.221 40.5001 32.622H18.2041Z" fill="#EF5DA8"/>
</g>
<defs>
<clipPath id="clip0_28_248">
<rect width="33.1804" height="33.1804" fill="white" transform="translate(12.7617 14.4633)"/>
</clipPath>
</defs>
</svg>
