<svg width="68" height="71" viewBox="0 0 68 71" fill="none" xmlns="http://www.w3.org/2000/svg">
<g filter="url(#filter0_d_1134_1899)">
<rect x="4.79297" width="59.1982" height="62.0627" rx="16" fill="#C3F2A6"/>
<g clip-path="url(#clip0_1134_1899)">
<path d="M50.7349 31.4788C50.7349 40.4074 43.4986 47.6437 34.5701 47.6437C25.6416 47.6437 18.4053 40.4074 18.4053 31.4788C18.4053 22.5503 25.6416 15.314 34.5701 15.314C43.4986 15.314 50.7349 22.5503 50.7349 31.4788ZM39.8678 38.8856C38.8512 37.7553 37.0769 36.5303 34.5701 36.5303C32.0633 36.5303 30.2889 37.7553 29.2723 38.8856C28.8998 39.3024 28.9313 39.8833 29.3481 40.3127C29.7648 40.6852 30.3458 40.6536 30.7751 40.2369C31.5139 39.416 32.7705 38.5509 34.5133 38.5509C36.3697 38.5509 37.6262 39.416 38.365 40.2369C38.7376 40.6536 39.3753 40.6852 39.7921 40.3127C40.2088 39.8833 40.2404 39.3024 39.8678 38.8856ZM29.5438 32.4891C30.6552 32.4891 31.5644 31.5862 31.5644 30.4685C31.5644 30.3738 31.5581 30.2791 31.5455 30.1907L32.2275 30.418C32.7579 30.538 33.3325 30.3044 33.5093 29.7803C33.6292 29.2499 33.3956 28.6753 32.8715 28.4985L26.8097 26.4778C26.2793 26.301 25.7047 26.5915 25.5279 27.1156C25.3511 27.646 25.6416 28.2206 26.1656 28.3974L28.1105 29.0415C27.7442 29.4077 27.5232 29.9129 27.5232 30.4685C27.5232 31.5862 28.4262 32.4891 29.5438 32.4891ZM41.0676 29.0289L42.9745 28.3974C43.4986 28.2206 43.7323 27.646 43.6123 27.1156C43.4355 26.5915 42.8609 26.301 42.3305 26.4778L36.2687 28.4985C35.7446 28.6753 35.4541 29.2499 35.6309 29.7803C35.8077 30.3044 36.3823 30.538 36.9127 30.418L37.6452 30.1718C37.6326 30.2665 37.6262 30.3675 37.6262 30.4685C37.6262 31.5862 38.5292 32.4891 39.6468 32.4891C40.7582 32.4891 41.6674 31.5862 41.6674 30.4685C41.6674 29.9066 41.4338 29.3951 41.0676 29.0289Z" fill="white"/>
</g>
</g>
<defs>
<filter id="filter0_d_1134_1899" x="0.792969" y="0" width="67.1982" height="70.0626" filterUnits="userSpaceOnUse" color-interpolation-filters="sRGB">
<feFlood flood-opacity="0" result="BackgroundImageFix"/>
<feColorMatrix in="SourceAlpha" type="matrix" values="0 0 0 0 0 0 0 0 0 0 0 0 0 0 0 0 0 0 127 0" result="hardAlpha"/>
<feOffset dy="4"/>
<feGaussianBlur stdDeviation="2"/>
<feComposite in2="hardAlpha" operator="out"/>
<feColorMatrix type="matrix" values="0 0 0 0 0 0 0 0 0 0 0 0 0 0 0 0 0 0 0.25 0"/>
<feBlend mode="normal" in2="BackgroundImageFix" result="effect1_dropShadow_1134_1899"/>
<feBlend mode="normal" in="SourceGraphic" in2="effect1_dropShadow_1134_1899" result="shape"/>
</filter>
<clipPath id="clip0_1134_1899">
<rect width="32.3296" height="32.3296" fill="white" transform="translate(18.4053 15.314)"/>
</clipPath>
</defs>
</svg>
