<svg width="20" height="20" viewBox="0 0 20 20" fill="none" xmlns="http://www.w3.org/2000/svg">
<path d="M15.8065 2.14682C18.3468 3.93253 20 6.85317 20 10.1587C20 15.5873 15.5323 19.9881 10.0202 20C4.51613 20.0119 0.00807187 15.5952 7.35953e-06 10.1746C-0.0040249 6.86904 1.6492 3.94047 4.18549 2.15079C4.65726 1.82143 5.31452 1.96032 5.59678 2.45635L6.23388 3.57142C6.47178 3.98809 6.35888 4.51587 5.96775 4.80158C4.29436 6.0238 3.22581 7.96031 3.22581 10.1547C3.22178 13.8174 6.22984 16.8254 10 16.8254C13.6936 16.8254 16.7984 13.8809 16.7742 10.1151C16.7621 8.05951 15.7782 6.07539 14.0282 4.79761C13.6371 4.5119 13.5282 3.98412 13.7661 3.57142L14.4032 2.45635C14.6855 1.96428 15.3387 1.81746 15.8065 2.14682ZM11.6129 10.4762V0.95238C11.6129 0.424603 11.1815 0 10.6452 0H9.35484C8.81855 0 8.3871 0.424603 8.3871 0.95238V10.4762C8.3871 11.004 8.81855 11.4286 9.35484 11.4286H10.6452C11.1815 11.4286 11.6129 11.004 11.6129 10.4762Z" fill="black"/>
</svg>
