<svg width="375" height="300" viewBox="0 0 375 300" fill="none" xmlns="http://www.w3.org/2000/svg">
<path d="M-31 300H419V3.05176e-05H-31V300Z" fill="white"/>
<path d="M268.354 247.184H187.397C183.311 247.184 180 243.872 180 239.786V89.3972C180 85.312 183.311 82 187.397 82H268.354C272.44 82 275.752 85.312 275.752 89.3972V239.786C275.752 243.872 272.44 247.184 268.354 247.184Z" fill="#303C72"/>
<path d="M244.865 89.3942H210.887C208.803 89.3942 207.113 87.7052 207.113 85.6217V84.8342H248.638V85.6217C248.638 87.7052 246.949 89.3942 244.865 89.3942Z" fill="#303C72"/>
<path d="M242.108 87.0975H217.455C216.927 87.0975 216.497 86.6655 216.497 86.139C216.497 85.611 216.927 85.179 217.455 85.179H242.108C242.636 85.179 243.066 85.611 243.066 86.139C243.066 86.6655 242.636 87.0975 242.108 87.0975Z" fill="#8FB5EF"/>
<path d="M213.077 87.0975C212.549 87.0975 212.118 86.6655 212.118 86.139C212.118 85.611 212.549 85.179 213.077 85.179C213.605 85.179 214.037 85.611 214.037 86.139C214.037 86.6655 213.605 87.0975 213.077 87.0975Z" fill="#8FB5EF"/>
<path d="M186.471 241.062H270.567V91.3715H186.471V241.062Z" fill="#6EB8F5"/>
<path d="M269.359 162.438H191.095C190.43 162.438 189.886 161.733 189.886 160.872V110.835C189.886 109.973 190.43 109.268 191.095 109.268H230.227H269.16H269.359C270.025 109.268 270.568 109.973 270.568 110.835V160.872C270.568 161.733 270.025 162.438 269.359 162.438Z" fill="#7BAEEB"/>
<path d="M180.792 223.227H179.142C178.623 223.227 178.199 222.522 178.199 221.663V171.624C178.199 170.761 178.623 170.056 179.142 170.056H180.792V223.227Z" fill="#78ACEA"/>
<path d="M180.792 223.227H186.472V170.056H180.792V223.227Z" fill="#7DAFEC"/>
<path d="M240.159 223.227H186.471V170.056H240.159C240.678 170.056 241.103 170.761 241.103 171.624V221.663C241.103 222.522 240.678 223.227 240.159 223.227Z" fill="#7BAEEB"/>
<path d="M299.111 106.328V156.366C299.111 157.226 298.406 157.931 297.543 157.931H196.211C195.35 157.931 194.646 157.226 194.646 156.366V106.328C194.646 105.465 195.35 104.76 196.211 104.76H297.543C298.406 104.76 299.111 105.465 299.111 106.328Z" fill="#D2E3FC"/>
<path d="M299.109 106.328V156.365C299.109 157.226 298.29 157.931 297.288 157.931H246.878V104.76H297.288C298.29 104.76 299.109 105.465 299.109 106.328Z" fill="#04429B"/>
<path d="M271.624 124.184H253.789C253.165 124.184 252.653 123.672 252.653 123.046C252.653 122.422 253.165 121.911 253.789 121.911H271.624C272.248 121.911 272.759 122.422 272.759 123.046C272.759 123.672 272.248 124.184 271.624 124.184Z" fill="white"/>
<path d="M267.216 127.59H253.652C253.103 127.59 252.653 127.14 252.653 126.591V126.318C252.653 125.769 253.103 125.319 253.652 125.319H267.216C267.767 125.319 268.217 125.769 268.217 126.318V126.591C268.217 127.14 267.767 127.59 267.216 127.59Z" fill="white"/>
<path d="M256.931 111.845C256.61 111.393 256.199 111.168 255.699 111.168C255.2 111.168 254.789 111.393 254.466 111.845C254.144 112.295 253.983 112.859 253.983 113.528C253.983 114.204 254.144 114.768 254.459 115.22C254.781 115.662 255.191 115.887 255.699 115.887C256.206 115.887 256.617 115.662 256.931 115.22C257.253 114.768 257.414 114.204 257.414 113.528C257.414 112.859 257.253 112.295 256.931 111.845ZM254.024 111.458C254.45 110.894 255.014 110.612 255.699 110.612C256.383 110.612 256.94 110.894 257.366 111.449C257.793 112.005 258.003 112.698 258.003 113.528C258.003 114.357 257.793 115.05 257.366 115.605C256.94 116.162 256.383 116.444 255.699 116.444C255.014 116.444 254.45 116.162 254.024 115.605C253.596 115.05 253.388 114.357 253.388 113.528C253.388 112.706 253.596 112.013 254.024 111.458Z" fill="#FCECDB"/>
<path d="M260.097 111.554C259.839 111.804 259.71 112.127 259.71 112.521C259.71 112.907 259.839 113.214 260.105 113.447C260.37 113.681 260.693 113.793 261.087 113.793C261.417 113.793 261.723 113.688 262.005 113.48C262.287 113.27 262.474 113.012 262.577 112.698C262.481 111.731 261.95 111.168 261.071 111.168C260.686 111.168 260.363 111.296 260.097 111.554ZM262.601 111.312C262.981 111.771 263.174 112.424 263.174 113.253C263.205 115.01 262.256 116.46 260.725 116.444C260.266 116.444 259.864 116.331 259.534 116.097V115.526C259.888 115.767 260.265 115.887 260.676 115.887C262.013 115.887 262.57 114.671 262.594 113.48C262.295 113.987 261.707 114.317 260.942 114.317C260.435 114.317 260 114.147 259.646 113.817C259.3 113.48 259.122 113.045 259.122 112.521C259.122 111.965 259.307 111.513 259.67 111.152C260.04 110.789 260.5 110.612 261.04 110.612C261.7 110.612 262.223 110.846 262.601 111.312Z" fill="#FCECDB"/>
<path d="M264.365 115.679C264.527 115.517 264.8 115.517 264.962 115.679C265.122 115.839 265.122 116.114 264.962 116.274C264.8 116.435 264.527 116.435 264.365 116.274C264.204 116.114 264.204 115.839 264.365 115.679ZM264.365 112.682C264.527 112.521 264.8 112.521 264.962 112.682C265.122 112.842 265.122 113.117 264.962 113.277C264.8 113.439 264.527 113.439 264.365 113.277C264.204 113.117 264.204 112.842 264.365 112.682Z" fill="#FCECDB"/>
<path d="M267.152 116.346V111.353L265.888 112.077V111.506L267.217 110.709H267.74V116.346H267.152Z" fill="#FCECDB"/>
<path d="M272.702 111.845C272.38 111.393 271.968 111.168 271.469 111.168C270.969 111.168 270.56 111.393 270.238 111.845C269.915 112.295 269.755 112.859 269.755 113.528C269.755 114.204 269.915 114.768 270.229 115.22C270.551 115.662 270.962 115.887 271.469 115.887C271.977 115.887 272.387 115.662 272.702 115.22C273.025 114.768 273.185 114.204 273.185 113.528C273.185 112.859 273.025 112.295 272.702 111.845ZM269.794 111.458C270.221 110.894 270.785 110.612 271.469 110.612C272.154 110.612 272.71 110.894 273.137 111.449C273.563 112.005 273.773 112.698 273.773 113.528C273.773 114.357 273.563 115.05 273.137 115.605C272.71 116.162 272.154 116.444 271.469 116.444C270.785 116.444 270.221 116.162 269.794 115.605C269.368 115.05 269.158 114.357 269.158 113.528C269.158 112.706 269.368 112.013 269.794 111.458Z" fill="#FCECDB"/>
<path d="M277.841 113.318H279.572C280.37 113.318 280.829 112.939 280.829 112.287C280.829 111.618 280.37 111.248 279.572 111.248H277.841V113.318ZM277.244 116.346V110.709H279.612C280.74 110.709 281.417 111.336 281.417 112.271C281.417 113.229 280.74 113.858 279.612 113.858H277.841V116.346H277.244Z" fill="#FCECDB"/>
<path d="M282.6 116.346V110.709H283.188L285.227 113.439L287.264 110.709H287.844V116.346H287.256V111.611L285.411 114.075H285.048L283.188 111.611V116.346H282.6Z" fill="#FCECDB"/>
<path d="M224.718 157.931H196.211C195.35 157.931 194.646 157.226 194.646 156.366V122.363C202.418 131.544 217.634 149.546 224.718 157.931Z" fill="#C0D6F7"/>
<path d="M220.569 126.399C217.902 126.399 215.741 124.238 215.741 121.572C215.741 118.905 217.902 116.744 220.569 116.744C223.235 116.744 225.398 118.905 225.398 121.572C225.398 124.238 223.235 126.399 220.569 126.399ZM220.569 111.347C214.865 111.347 210.24 115.971 210.24 121.677C210.24 127.382 220.569 140.064 220.569 140.064C220.569 140.064 230.898 127.382 230.898 121.677C230.898 115.971 226.274 111.347 220.569 111.347Z" fill="#04429B"/>
<path d="M219.701 148.637H201.866C201.242 148.637 200.73 148.127 200.73 147.501C200.73 146.877 201.242 146.366 201.866 146.366H219.701C220.325 146.366 220.836 146.877 220.836 147.501C220.836 148.127 220.325 148.637 219.701 148.637Z" fill="#6EB8F5"/>
<path d="M215.294 152.044H201.729C201.18 152.044 200.73 151.595 200.73 151.046V150.772C200.73 150.222 201.18 149.772 201.729 149.772H215.294C215.843 149.772 216.293 150.222 216.293 150.772V151.046C216.293 151.595 215.843 152.044 215.294 152.044Z" fill="#6EB8F5"/>
<path d="M249.074 167.782V217.819C249.074 218.682 248.369 219.385 247.508 219.385H146.177C145.314 219.385 144.609 218.682 144.609 217.819V167.782C144.609 166.921 145.314 166.218 146.177 166.218H247.508C248.369 166.218 249.074 166.921 249.074 167.782Z" fill="#D2E3FC"/>
<path d="M249.074 167.782V217.819C249.074 218.682 248.369 219.387 247.508 219.387H202.439V166.216H247.508C248.369 166.216 249.074 166.921 249.074 167.782Z" fill="#04429B"/>
<path d="M225.415 203.638C224.519 203.638 223.688 203.164 223.233 202.387L216.573 191.001C215.868 189.796 216.273 188.248 217.478 187.543C218.682 186.838 220.232 187.245 220.937 188.449L225.209 195.753L233.255 179.201C233.865 177.945 235.377 177.421 236.633 178.032C237.888 178.642 238.412 180.155 237.801 181.41L227.688 202.215C227.28 203.055 226.443 203.601 225.512 203.637C225.481 203.637 225.448 203.638 225.415 203.638Z" fill="white"/>
<path d="M225.414 179.96C217.778 179.96 211.566 186.173 211.566 193.809C211.566 201.446 217.778 207.659 225.414 207.659C233.052 207.659 239.264 201.446 239.264 193.809C239.264 186.173 233.052 179.96 225.414 179.96ZM225.414 209.496C216.765 209.496 209.727 202.46 209.727 193.809C209.727 185.159 216.765 178.122 225.414 178.122C234.065 178.122 241.103 185.159 241.103 193.809C241.103 202.46 234.065 209.496 225.414 209.496Z" fill="white"/>
<path d="M174.29 219.385H146.177C145.314 219.385 144.609 218.682 144.609 217.819V179.1L174.29 219.385Z" fill="#BFD9FF"/>
<path d="M162.098 180.695H158.205C158.106 180.695 158.027 180.615 158.027 180.516V176.331C158.027 176.232 158.106 176.151 158.205 176.151C158.304 176.151 158.385 176.232 158.385 176.331V180.336H162.098C162.197 180.336 162.276 180.417 162.276 180.516C162.276 180.615 162.197 180.695 162.098 180.695ZM158.205 174.897C155.102 174.897 152.586 177.413 152.586 180.516C152.586 183.62 155.102 186.135 158.205 186.135C161.309 186.135 163.824 183.62 163.824 180.516C163.824 177.413 161.309 174.897 158.205 174.897Z" fill="#04429B"/>
<path d="M187.116 178.424H169.283C168.657 178.424 168.146 177.912 168.146 177.288C168.146 176.663 168.657 176.151 169.283 176.151H187.116C187.742 176.151 188.252 176.663 188.252 177.288C188.252 177.912 187.742 178.424 187.116 178.424Z" fill="#6EB8F5"/>
<path d="M182.709 181.83H169.146C168.596 181.83 168.146 181.382 168.146 180.831V180.558C168.146 180.009 168.596 179.559 169.146 179.559H182.709C183.26 179.559 183.71 180.009 183.71 180.558V180.831C183.71 181.382 183.26 181.83 182.709 181.83Z" fill="#6EB8F5"/>
<path d="M157.644 204.015C156.339 204.015 155.28 202.958 155.28 201.651C155.28 200.346 156.339 199.287 157.644 199.287C158.951 199.287 160.008 200.346 160.008 201.651C160.008 202.958 158.951 204.015 157.644 204.015ZM157.644 196.644C154.851 196.644 152.586 198.909 152.586 201.702C152.586 204.497 157.644 210.707 157.644 210.707C157.644 210.707 162.702 204.497 162.702 201.702C162.702 198.909 160.437 196.644 157.644 196.644Z" fill="#04429B"/>
<path d="M185.76 200.333H167.925C167.301 200.333 166.79 199.821 166.79 199.196C166.79 198.572 167.301 198.06 167.925 198.06H185.76C186.384 198.06 186.896 198.572 186.896 199.196C186.896 199.821 186.384 200.333 185.76 200.333Z" fill="#6EB8F5"/>
<path d="M181.353 203.739H167.789C167.24 203.739 166.79 203.289 166.79 202.74V202.467C166.79 201.918 167.24 201.468 167.789 201.468H181.353C181.904 201.468 182.352 201.918 182.352 202.467V202.74C182.352 203.289 181.904 203.739 181.353 203.739Z" fill="#6EB8F5"/>
<path d="M48.2027 196.337C47.8313 187.203 47.0307 179.257 46.0725 173.716C44.5449 164.885 43.1699 159.803 43.154 159.749C42.9528 158.972 40.0461 155.829 33.5835 155.927C27.1209 156.023 27.7338 160.145 27.7338 160.145C27.7331 160.284 27.7515 160.413 27.78 160.511C27.8424 160.724 33.7746 182.234 33.5178 210.006C33.5142 210.396 33.4704 211.07 33.498 211.518C33.4982 211.52 48.4745 211.905 48.4781 211.518C49.0004 209.091 48.7455 202.365 48.2027 196.337Z" fill="#B7D3F3"/>
<path d="M50.0858 209.87C50.0813 210.255 49.877 210.566 49.628 210.566H49.6219C49.3729 210.56 49.1746 210.251 49.1716 209.87H36.3369C36.3324 210.255 36.1282 210.566 35.879 210.566H35.873C35.6195 210.56 35.4182 210.24 35.4212 209.849C35.4958 201.899 35.0423 194.475 34.3563 187.923C32.6501 171.584 29.4961 160.662 29.4512 160.511C29.4229 160.413 29.405 160.284 29.405 160.145C29.405 160.145 28.7921 156.024 35.2541 155.927C41.7178 155.829 44.6244 158.972 44.8257 159.749C44.8376 159.789 45.6161 162.668 46.6511 167.84C46.9942 169.554 47.3641 171.519 47.7443 173.717C48.7018 179.258 49.5026 187.203 49.874 196.335C50.4169 202.365 50.6077 207.443 50.0858 209.87Z" fill="#D2E3FC"/>
<path d="M34.4726 210.566H84.7914C84.7914 210.566 83.6195 205.824 54.4781 206.531C33.8555 207.03 34.4726 210.566 34.4726 210.566Z" fill="#C5DCF8"/>
<path d="M30.377 260.095C36.2112 230.561 34.7111 212.438 34.7036 212.208C34.6889 211.754 35.5271 211.341 35.978 211.326C36.4345 211.319 38.4481 211.193 38.6812 211.581C38.9864 212.091 40.1613 234.422 31.466 260.095H30.377Z" fill="#B7D3F3"/>
<path d="M77.359 260.095C71.5247 230.561 73.0249 212.438 73.0324 212.208C73.0469 211.754 72.2089 211.341 71.7581 211.326C71.3015 211.319 69.2878 211.193 69.0548 211.581C68.7496 212.091 67.5746 234.422 76.27 260.095H77.359Z" fill="#B7D3F3"/>
<path d="M86.6698 260.095C80.8355 230.561 82.3357 212.438 82.3432 212.208C82.3579 211.754 81.5197 211.341 81.0688 211.326C80.6123 211.319 78.5986 211.193 78.3656 211.581C78.0604 212.091 76.8854 234.422 85.5808 260.095H86.6698Z" fill="#B7D3F3"/>
<path d="M39.7503 260.095C45.5846 230.561 44.0844 212.438 44.0771 212.208C44.0624 211.754 44.9004 211.341 45.3513 211.326C45.8078 211.319 47.8215 211.193 48.0545 211.581C48.3597 212.091 49.5347 234.422 40.8395 260.095H39.7503Z" fill="#B7D3F3"/>
<path d="M84.8213 212.079H34.5025C33.9355 212.079 33.4718 211.615 33.4718 211.048V210.37C33.4718 209.803 33.9355 209.34 34.5025 209.34H84.8213C85.3881 209.34 85.852 209.803 85.852 210.37V211.048C85.852 211.615 85.3881 212.079 84.8213 212.079Z" fill="#B7D3F3"/>
<path d="M83.0535 166.636L99.7799 163.014L100.765 165.415C100.765 165.415 82.3092 176.397 80.58 175.858C78.8508 175.321 83.0535 166.636 83.0535 166.636Z" fill="#FFB27D"/>
<path d="M67.8468 242.284C67.4279 242.764 67.3745 243.3 67.5818 243.873L67.5858 243.882C67.9692 244.941 69.236 246.124 70.7073 247.305C70.8954 247.458 71.0625 247.596 71.2083 247.723C71.2466 247.756 71.2848 247.791 71.3208 247.824C71.3504 247.849 71.3789 247.878 71.4074 247.902C72.7794 249.166 72.2631 249.457 74.7281 252.024C77.5388 254.947 79.4741 255 80.0246 254.734C80.4903 254.506 79.544 252.955 78.4955 251.212C78.4446 251.128 78.3948 251.043 78.3428 250.959C78.2031 250.726 78.0644 250.491 77.9258 250.258C76.697 248.16 77.0124 247.176 77.3037 244.053C77.5406 241.516 81.2513 229.878 81.2513 229.878L75.8649 228.949C75.8649 228.949 74.2428 238.218 72.4556 239.644C71.4999 240.405 70.4301 240.415 69.5117 240.979C69.4467 241.018 69.383 241.057 69.3206 241.099C68.7986 241.446 68.2668 241.803 67.8468 242.284Z" fill="#FFB27D"/>
<path d="M67.8468 242.284C67.4279 242.764 67.3745 243.3 67.5818 243.873L67.5858 243.882C68.0553 244.939 69.2903 246.117 70.7124 247.294C70.8983 247.449 71.0624 247.591 71.2083 247.723C71.2466 247.756 71.2848 247.791 71.3208 247.824C71.3504 247.849 71.3789 247.878 71.4074 247.902C72.7794 249.166 72.2631 249.457 74.7281 252.024C77.5388 254.947 79.4741 255 80.0246 254.734C80.4903 254.506 79.544 252.955 78.4955 251.212C77.9483 251.011 75.4067 249.979 73.4852 247.521C71.7927 245.361 70.6641 242.586 69.5117 240.979C69.4467 241.018 69.383 241.057 69.3206 241.099C68.7986 241.446 68.2668 241.803 67.8468 242.284Z" fill="#1C468A"/>
<path d="M111.279 238.92C111.612 240.582 113.982 240.304 116.63 239.658C119.277 239.011 118.648 239.781 122.417 239.362C126.185 238.945 127.326 237.541 127.442 236.98C127.544 236.484 125.682 236.308 123.684 236.077C123.434 236.05 123.182 236.019 122.93 235.987C120.674 235.704 119.022 234.249 116.975 233.055C115.035 231.922 112.139 227.311 112.139 227.311L106.971 227.719C106.971 227.719 109.683 231.84 110.732 233.629C111.349 234.684 111.316 236.076 111.239 237.151C111.199 237.736 111.161 238.335 111.279 238.92Z" fill="#FFB27D"/>
<path d="M116.63 239.658C119.277 239.012 118.648 239.781 122.417 239.363C126.185 238.946 127.326 237.542 127.442 236.981C127.544 236.484 125.682 236.309 123.684 236.078L123.666 236.117C123.666 236.117 121.406 237.718 118.269 237.793C115.713 237.856 113.005 237.123 111.239 237.152C111.199 237.737 111.161 238.335 111.279 238.92C111.612 240.582 113.982 240.305 116.63 239.658Z" fill="#1C468A"/>
<path d="M99.7799 163.014C99.7799 163.014 101.011 159.998 102.366 159.875C103.72 159.752 108.03 159.074 108.338 159.689C108.645 160.305 108.338 162.522 107.414 163.322C106.491 164.123 100.765 165.416 100.765 165.416L99.7799 163.014Z" fill="#FFB27D"/>
<path d="M91.4739 205.873L80.3357 235.849C80.3357 235.849 78.6248 236.014 76.9842 235.542C75.4746 235.107 73.7449 233.964 73.7449 233.964C73.7449 233.964 76.5078 205.183 81.5732 199.197C86.6387 193.21 91.4739 205.873 91.4739 205.873Z" fill="#163560"/>
<path d="M47.4198 193.747C47.4198 193.747 79.4243 182.926 86.562 185.229C93.6996 187.531 115.131 230.169 115.131 230.169C115.131 230.169 114.647 230.812 113.327 231.307C112.099 231.768 109.126 231.738 109.126 231.738C109.126 231.738 89.7854 215.16 87.483 210.325C85.1805 205.489 84.2594 200.886 81.957 201.345C79.6545 201.807 52.2549 212.628 46.0383 206.181C39.8216 199.734 41.4474 191.358 41.4474 191.358L47.4198 193.747Z" fill="#1C468A"/>
<path d="M65.6658 117.44C64.2825 116.652 62.6246 116.567 61.4651 116.636C61.7637 116.327 62.3508 116.216 62.3508 116.216C61.6319 116.108 60.0269 116.822 60.0269 116.822C50.0246 112.967 48.4524 127.695 48.6627 131.117C48.8712 134.538 48.8967 138.476 43.9035 141.545C34.0791 147.582 42.3684 158.124 42.3684 158.124C42.4458 158.169 46.9395 165.791 46.9395 165.791C46.6871 163.026 59.4447 148.434 66.1007 144.065C67.721 141.68 68.2968 137.465 68.34 137.133C68.0603 140.475 67.4886 142.349 66.9779 143.405C72.614 138.216 69.3327 119.523 65.6658 117.44Z" fill="black"/>
<path d="M65.7066 144.282C65.7401 144.297 62.4929 145.983 60.0506 145.314C57.7532 144.688 56.2522 141.71 56.2838 141.704C57.2567 141.51 57.5372 140.172 57.5167 134.427L57.9565 134.514L65.3519 135.978C65.3519 135.978 65.1836 138.306 65.1785 140.499C65.1736 142.339 65.2852 144.085 65.7066 144.282Z" fill="#FFB27D"/>
<path d="M65.3519 135.978C65.3519 135.978 65.1836 138.306 65.1785 140.499C61.0403 140.382 58.8529 136.606 57.9565 134.514L65.3519 135.978Z" fill="#ED975D"/>
<path d="M57.1926 133.709C57.1926 133.709 55.0239 130.283 54.5034 127.352C54.1317 125.261 55.1972 117.506 62.9892 118.623C62.9892 118.623 65.2524 118.847 67.3796 120.282C69.0714 121.425 71.513 123.893 68.783 130.659L68.0739 132.944L57.1926 133.709Z" fill="black" fill-opacity="0.5"/>
<path d="M66.7339 138.054C66.7339 138.054 56.9426 138.216 56.9359 132.117C56.9291 126.018 55.6609 121.93 61.9121 121.57C68.1632 121.209 69.3805 123.535 69.8779 125.571C70.3753 127.605 69.2807 137.854 66.7339 138.054Z" fill="#FFB27D"/>
<path d="M66.3715 121.421C66.3715 121.421 63.6907 128.575 59.5765 129.634C55.4623 130.692 53.6777 129.589 53.6777 129.589C53.6777 129.589 56.8334 127.083 57.4883 122.706C57.4883 122.706 64.3493 118.016 66.3715 121.421Z" fill="black"/>
<path opacity="0.85" d="M65.707 122.001C65.707 122.001 67.7092 123.599 68.1973 125.153C68.6854 126.705 68.905 129.903 69.8368 129.794C69.8368 129.794 71.8565 124.93 69.5867 122.179C67.1798 119.262 65.707 122.001 65.707 122.001Z" fill="black"/>
<path d="M43.9035 170.624C42.938 166.574 46.223 158.717 49.6523 152.211C52.7639 146.315 55.9937 141.531 56.2838 141.702C64.4903 146.574 65.2317 142.524 65.2317 142.524H65.2322C65.2353 142.525 72.687 143.514 74.7972 147.147C77.4153 151.656 80.244 164.251 83.0535 166.636C82.6221 167.956 82.8072 168.66 83.2646 170.296C83.3627 170.647 83.4707 170.98 83.5898 171.295C84.0132 172.448 84.5429 173.38 85.0001 174.192C83.5719 175.06 80.814 176.71 78.7821 175.524C75.6845 173.71 73.2678 168.192 71.9073 165.994L71.8922 165.969C68.9355 182.706 72.9557 186.516 70.9206 188.281C68.7716 190.144 65.7014 187.393 58.9472 190.321C54.5169 192.243 48.369 195.021 44.2305 195.505C42.0599 195.76 40.4405 195.382 39.9123 193.917C38.3774 189.657 45.7457 178.344 43.9035 170.624Z" fill="#1C468A"/>
<path d="M64.5572 134.356C64.5572 134.356 64.7397 135.132 66.6672 135.012C66.6672 135.012 68.2856 134.913 68.2361 134.061C68.2361 134.061 66.6668 133.455 64.5572 134.356Z" fill="white"/>
<path d="M39.9123 193.917C40.4405 195.382 42.0599 195.76 44.2305 195.505C47.0949 194.257 59.469 189.463 59.3309 186.214C59.1252 181.405 56.9516 181.252 58.4867 175.315C59.7192 170.55 48.2856 161.688 46.4619 159.76C43.0326 166.266 42.938 166.573 43.9035 170.623C45.7457 178.344 38.3774 189.657 39.9123 193.917Z" fill="#163560"/>
<path d="M38.5136 176.571C40.7081 173.488 42.9942 171.859 44.4981 171.04C44.1519 170.148 53.7284 158.407 53.7284 156.588C53.7284 154.746 56.2836 141.702 56.2836 141.702C56.2836 141.702 48.3042 142.194 45.5414 146.047C42.0863 150.867 34.9103 169.412 38.5136 176.571Z" fill="#1C468A"/>
<path d="M44.4981 171.041L60.4437 175.201L58.9472 177.888C58.9472 177.888 39.5418 177.752 38.5136 176.571C37.4853 175.389 44.4981 171.041 44.4981 171.041Z" fill="#FFB27D"/>
<path d="M71.9073 165.994C73.2678 168.192 75.6845 173.71 78.7821 175.524C80.814 176.71 83.5719 175.06 85.0001 174.192C84.5429 173.38 84.0132 172.448 83.5898 171.296C82.4499 171.557 81.0588 171.89 80.162 172.161C78.4167 172.689 71.9073 165.994 71.9073 165.994Z" fill="#163560"/>
<path d="M60.4437 175.201C60.4437 175.201 65.4513 173.784 66.644 174.116C67.8368 174.447 71.9234 177.153 71.3489 177.888C70.7742 178.622 67.1741 177.447 65.5175 177.669C63.8609 177.893 62.5797 178.71 61.3871 178.533C60.1943 178.356 58.9472 177.888 58.9472 177.888L60.4437 175.201Z" fill="#FFB27D"/>
<path d="M60.4437 175.202C60.4437 175.202 62.8937 173.943 63.5906 173.226C63.6785 173.136 63.8274 173.154 63.8948 173.261C64.0817 173.556 64.2565 174.125 63.3971 174.69C62.1602 175.503 60.4437 175.202 60.4437 175.202Z" fill="#FFB27D"/>
<path d="M83.5851 182.246H60.2229C60.2229 181.218 61.0568 180.384 62.0852 180.384H83.5851V182.246Z" fill="#04429B"/>
<path d="M83.5181 156.803H119.637L110.974 182.246H74.6201L83.5181 156.803Z" fill="#04429B"/>
<path d="M120.17 156.803L111.505 182.246H75.1525L84.05 156.803H120.17Z" fill="#8CCBFF"/>
<path d="M100.696 169.289C100.472 170.261 99.5015 171.049 98.5294 171.049C97.5572 171.049 96.9511 170.261 97.1755 169.289C97.4 168.317 98.3701 167.529 99.3422 167.529C100.314 167.529 100.92 168.317 100.696 169.289Z" fill="#F9DDBF"/>
<path d="M120.17 156.803L111.505 182.246H87.4304C103.378 176.802 107.623 160.205 108.335 156.803H120.17Z" fill="#6EB8F5"/>
<path d="M15.3098 260.095C15.7666 260.095 16.1572 259.774 16.2353 259.336L20.7719 233.623L27.2971 196.642L29.1218 186.302L24.4741 186.168L23.6677 192.171L18.0058 234.358L14.6491 259.363C14.5975 259.752 14.9072 260.095 15.3098 260.095Z" fill="#95C0F4"/>
<path d="M23.6676 192.171C26.6787 193.5 27.297 196.643 27.297 196.643L29.1218 186.302L24.474 186.168L23.6676 192.171Z" fill="#78ACEA"/>
<path d="M130.911 260.095C130.454 260.095 130.064 259.774 129.986 259.336L125.449 233.623L118.924 196.642L117.099 186.302L121.746 186.168L122.554 192.171L128.214 234.358L131.571 259.363C131.622 259.752 131.313 260.095 130.911 260.095Z" fill="#95C0F4"/>
<path d="M122.554 192.171C119.542 193.5 118.924 196.643 118.924 196.643L117.099 186.302L121.746 186.168L122.554 192.171Z" fill="#78ACEA"/>
<path d="M12.209 190.361H131.228C132.786 190.361 134.063 189.086 134.063 187.526V185.076C134.063 183.516 132.786 182.241 131.228 182.241H12.209C10.6497 182.241 9.37399 183.516 9.37399 185.076V187.526C9.37399 189.086 10.6497 190.361 12.209 190.361Z" fill="#78ACEA"/>
<path d="M289.133 127.59C289.133 127.59 287.472 122.229 286.529 121.653C285.585 121.077 281.651 119.138 281.417 119.661C281.183 120.186 283.541 122.732 284.064 123.582C284.589 124.431 284.85 125.27 284.484 124.902C284.117 124.536 282.126 123.309 281.916 123.582C281.706 123.855 282.912 124.902 283.488 125.741C284.064 126.579 284.694 127.995 286.737 128.31C288.782 128.624 289.133 127.59 289.133 127.59Z" fill="#FFB27D"/>
<path d="M349.7 172.725C349.7 172.725 349.202 177.567 348.656 178.482C348.11 179.398 345.782 182.325 344.792 182.899C343.801 183.474 345.397 179.043 345.194 178.18C344.993 177.319 344.38 179.754 343.942 179.811C343.505 179.869 343.618 177.677 343.603 176.879C343.586 176.081 345.728 174.112 346.483 172.413C347.237 170.715 349.7 172.725 349.7 172.725Z" fill="#FFB27D"/>
<path d="M334.517 123.044C334.517 123.044 330.489 142.805 308.333 149.261C301.416 151.277 285.704 128.507 285.704 128.507C285.704 128.507 286.257 126.407 289.718 126.89C289.718 126.89 305.016 137.018 306.942 138.119C308.652 139.095 319.892 125.568 325.016 123.386C330.138 121.205 334.517 123.044 334.517 123.044Z" fill="#233862"/>
<path d="M360.968 247.269C360.968 247.269 363.718 249.778 363.181 251.56C362.644 253.342 360.164 254.53 359.828 256.708C359.494 258.888 358.153 260.076 356.947 260.076C355.739 260.076 351.193 260.076 351.193 260.076C351.193 260.076 350.305 258.543 352.45 258.081C354.595 257.619 355.405 255.058 355.27 252.682C355.136 250.306 355.471 247.137 355.471 247.137L360.029 246.081L360.968 247.269Z" fill="#233862"/>
<path d="M327.247 253.756C327.247 253.756 327.74 259.465 326.534 260.059L311.09 260.028C311.09 260.028 311.09 258.246 313.571 257.85C316.052 257.454 320.41 256.002 321.146 252.766C321.884 249.532 327.247 253.756 327.247 253.756Z" fill="#233862"/>
<path d="M314.208 173.118C314.208 173.118 315.023 183.124 315.98 195.153C317.282 211.493 318.846 231.562 319.001 235.365C319.269 241.968 320.343 252.529 320.343 252.529C320.343 252.529 322.889 255.037 327.986 253.98C327.986 253.98 332.526 238.903 333.824 222.952C333.843 222.691 333.864 222.427 333.884 222.165C335.091 205.926 336.968 171.73 336.968 171.73L314.208 173.118Z" fill="#78ACEA"/>
<path d="M314.208 173.118C314.208 173.118 315.023 183.124 315.98 195.153L333.824 222.952C333.843 222.691 333.864 222.427 333.884 222.165C335.091 205.926 336.968 171.73 336.968 171.73L314.208 173.118Z" fill="#5B9DEC"/>
<path d="M317.928 174.306C317.928 174.306 332.61 210.546 342.264 227.577C351.918 244.608 354.935 249.36 354.935 249.36C354.935 249.36 360.465 247.182 360.968 245.697C360.968 245.697 357.276 212.819 350.811 204.803C347.159 200.274 342.867 186.683 342.666 181.931C342.465 177.177 341.358 167.771 341.358 167.771L317.928 174.306Z" fill="#78ACEA"/>
<path d="M337.246 118.456C337.246 118.456 327.311 123.25 321.584 121.471C321.584 121.471 322.994 119.694 325.462 118.369C325.264 117.22 325.109 116.223 325.021 115.377C324.779 113.425 324.779 112.319 324.779 112.319L328.612 109.305L332.246 106.419C331.96 114.531 337.246 118.456 337.246 118.456Z" fill="#FFB27D"/>
<path d="M342.48 169.626C342.503 170.235 341.204 170.928 340.63 171.187C336.38 173.053 332.414 174.354 327.921 174.787C322.613 175.33 316.335 174.138 314.175 174.181C313.956 174.181 313.757 174.095 313.581 173.943C313.427 173.834 313.318 167.436 313.427 159.389C313.427 159.066 313.427 158.741 313.45 158.415V158.306C313.493 155.162 313.604 151.865 313.757 148.568C314.066 141.324 314.64 134.34 315.608 130.479C316.775 125.925 319.42 122.91 321.821 120.719L323.801 118.985C325.784 119.375 327.876 119.267 329.969 118.247C332.261 117.143 334.727 115.949 335.123 116.252C338.118 118.442 340.145 123.365 341.225 129.656C341.231 129.687 341.237 129.717 341.241 129.749C341.846 133.346 342.15 137.37 342.128 141.584C342.128 143.147 342.085 144.75 341.996 146.333C341.555 153.506 341.851 159.891 342.139 164.314C342.196 165.189 342.254 165.987 342.304 166.699C342.392 167.956 342.458 168.933 342.48 169.626Z" fill="#2A4E96"/>
<path d="M342.138 164.314C325.673 145.304 335.888 131.486 335.888 131.486L341.241 129.749C341.846 133.346 342.15 137.37 342.128 141.584C342.128 143.147 342.084 144.75 341.996 146.333C341.555 153.506 341.85 159.891 342.138 164.314Z" fill="#233862"/>
<path d="M332.312 109.521C332.312 109.521 329.801 114.098 325.02 115.377C324.779 113.426 324.779 112.319 324.779 112.319L328.611 109.305L332.312 109.521Z" fill="#ED985F"/>
<path d="M323.031 112.186C323.031 112.186 332.507 113.737 333.396 107.911C334.287 102.085 336.108 98.361 330.096 97.125C324.083 95.889 322.565 97.938 321.788 99.8115C321.011 101.685 320.589 111.633 323.031 112.186Z" fill="#FFB27D"/>
<path d="M336.842 96.4275C336.928 96.33 337.125 96.2505 337.568 96.2265C337.568 96.2265 337.214 96.0045 336.743 95.994C336.65 95.379 336.323 94.293 335.267 94.029C335.267 94.029 335.834 94.3305 335.909 94.9845C334.685 93.7275 332.062 92.8125 324.8 93.3855C315.229 94.1415 318.383 100.269 319.622 101C320.861 101.73 323.979 99.7275 326.288 99.9105C328.596 100.094 329.036 103.43 329.819 103.887C330.602 104.346 330.295 103.536 331.355 103.058C332.414 102.578 332.515 104.334 332.209 105.476C331.903 106.617 333.359 108.123 333.359 108.123C333.359 108.123 333.359 108.123 334.83 106.539C336.302 104.954 337.688 98.2425 337.019 96.8115C336.961 96.6855 336.902 96.5565 336.842 96.4275Z" fill="#2C3A64"/>
<path d="M335.12 116.204C335.12 116.204 341.115 119.043 343.989 123.408C348.449 130.179 353.618 154.854 353.714 157.14C353.81 159.425 349.941 175.557 349.941 175.557C349.941 175.557 346.017 175.298 345.006 173.318C345.006 173.318 345.789 156.743 345.293 155.678C344.796 154.611 328.937 133.443 330.72 128.926C332.504 124.409 335.12 116.204 335.12 116.204Z" fill="#2A4E96"/>
<path d="M285.392 153.304H261.744C259.686 153.304 258.003 151.621 258.003 149.563V148.507C258.003 146.449 259.686 144.766 261.744 144.766H285.392C287.45 144.766 289.133 146.449 289.133 148.507V149.563C289.133 151.621 287.45 153.304 285.392 153.304Z" fill="white"/>
<path d="M273.516 150.901C273.35 150.901 273.194 150.813 273.11 150.669L271.868 148.544C271.736 148.319 271.811 148.031 272.036 147.899C272.261 147.767 272.55 147.843 272.681 148.068L273.479 149.43L274.98 146.341C275.094 146.107 275.376 146.01 275.61 146.124C275.844 146.238 275.942 146.52 275.828 146.754L273.941 150.636C273.864 150.794 273.708 150.894 273.534 150.901H273.516Z" fill="#04429B"/>
<path d="M273.516 146.484C272.091 146.484 270.933 147.642 270.933 149.067C270.933 150.492 272.091 151.652 273.516 151.652C274.941 151.652 276.101 150.492 276.101 149.067C276.101 147.642 274.941 146.484 273.516 146.484ZM273.516 151.995C271.902 151.995 270.59 150.681 270.59 149.067C270.59 147.453 271.902 146.141 273.516 146.141C275.13 146.141 276.444 147.453 276.444 149.067C276.444 150.681 275.13 151.995 273.516 151.995Z" fill="#04429B"/>
<path d="M140.081 122.637H114.81C111.49 122.637 108.774 125.354 108.774 128.675V138.234C108.774 139.752 109.342 141.143 110.275 142.206L108.774 149.069L117.431 144.272H140.081C143.401 144.272 146.117 141.555 146.117 138.234V128.675C146.117 125.354 143.401 122.637 140.081 122.637Z" fill="#8CCBFF"/>
<path d="M140.556 129.923H114.358C113.819 129.923 113.378 129.48 113.378 128.942C113.378 128.402 113.819 127.961 114.358 127.961H140.556C141.096 127.961 141.537 128.402 141.537 128.942C141.537 129.48 141.096 129.923 140.556 129.923Z" fill="#B7D3F3"/>
<path d="M140.556 134.212H114.358C113.819 134.212 113.378 133.771 113.378 133.231C113.378 132.693 113.819 132.252 114.358 132.252H140.556C141.096 132.252 141.537 132.693 141.537 133.231C141.537 133.771 141.096 134.212 140.556 134.212Z" fill="#B7D3F3"/>
<path d="M140.556 138.342H114.358C113.819 138.342 113.378 137.901 113.378 137.363C113.378 136.823 113.819 136.382 114.358 136.382H140.556C141.096 136.382 141.537 136.823 141.537 137.363C141.537 137.901 141.096 138.342 140.556 138.342Z" fill="#B7D3F3"/>
</svg>
