<svg width="60" height="84" viewBox="0 0 60 84" fill="none" xmlns="http://www.w3.org/2000/svg">
<rect x="0.396484" width="59.1982" height="62.0627" rx="16" fill="#A0E3E2"/>
<path d="M23.6487 74.8495V83.4655H22.5327V77.3335C22.5327 77.2415 22.5347 77.1435 22.5387 77.0395C22.5467 76.9355 22.5547 76.8295 22.5627 76.7215L19.6947 81.9835C19.5947 82.1795 19.4407 82.2775 19.2327 82.2775H19.0527C18.8447 82.2775 18.6927 82.1795 18.5967 81.9835L15.6747 76.7035C15.6987 76.9275 15.7107 77.1375 15.7107 77.3335V83.4655H14.5887V74.8495H15.5367C15.6487 74.8495 15.7347 74.8615 15.7947 74.8855C15.8587 74.9055 15.9187 74.9655 15.9747 75.0655L18.8547 80.2255C18.9107 80.3295 18.9627 80.4395 19.0107 80.5555C19.0587 80.6715 19.1047 80.7875 19.1487 80.9035C19.2327 80.6675 19.3307 80.4395 19.4427 80.2195L22.2687 75.0655C22.3207 74.9655 22.3767 74.9055 22.4367 74.8855C22.5007 74.8615 22.5887 74.8495 22.7007 74.8495H23.6487ZM28.6403 80.7595C28.1643 80.7755 27.7603 80.8135 27.4283 80.8735C27.0963 80.9295 26.8263 81.0055 26.6183 81.1015C26.4103 81.1975 26.2603 81.3115 26.1683 81.4435C26.0763 81.5715 26.0303 81.7155 26.0303 81.8755C26.0303 82.0275 26.0543 82.1595 26.1023 82.2715C26.1543 82.3795 26.2223 82.4695 26.3063 82.5415C26.3943 82.6095 26.4963 82.6595 26.6123 82.6915C26.7283 82.7235 26.8543 82.7395 26.9903 82.7395C27.1703 82.7395 27.3343 82.7215 27.4823 82.6855C27.6343 82.6495 27.7763 82.5995 27.9083 82.5355C28.0403 82.4675 28.1663 82.3855 28.2863 82.2895C28.4063 82.1935 28.5243 82.0835 28.6403 81.9595V80.7595ZM25.2083 78.2215C25.5483 77.8975 25.9163 77.6555 26.3123 77.4955C26.7123 77.3355 27.1503 77.2555 27.6263 77.2555C27.9743 77.2555 28.2823 77.3135 28.5503 77.4295C28.8183 77.5415 29.0443 77.6995 29.2283 77.9035C29.4123 78.1075 29.5503 78.3515 29.6423 78.6355C29.7383 78.9195 29.7863 79.2335 29.7863 79.5775V83.4655H29.2643C29.1483 83.4655 29.0603 83.4475 29.0003 83.4115C28.9403 83.3715 28.8923 83.2995 28.8563 83.1955L28.7303 82.6615C28.5743 82.8055 28.4203 82.9335 28.2683 83.0455C28.1163 83.1535 27.9563 83.2475 27.7883 83.3275C27.6243 83.4035 27.4483 83.4615 27.2603 83.5015C27.0723 83.5415 26.8643 83.5615 26.6363 83.5615C26.3963 83.5615 26.1703 83.5295 25.9583 83.4655C25.7503 83.3975 25.5683 83.2955 25.4123 83.1595C25.2563 83.0235 25.1323 82.8535 25.0403 82.6495C24.9523 82.4455 24.9083 82.2075 24.9083 81.9355C24.9083 81.6955 24.9723 81.4655 25.1003 81.2455C25.2323 81.0215 25.4443 80.8215 25.7363 80.6455C26.0323 80.4695 26.4163 80.3255 26.8883 80.2135C27.3643 80.1015 27.9483 80.0375 28.6403 80.0215V79.5775C28.6403 79.1175 28.5423 78.7735 28.3463 78.5455C28.1503 78.3175 27.8623 78.2035 27.4823 78.2035C27.2263 78.2035 27.0103 78.2355 26.8343 78.2995C26.6623 78.3635 26.5123 78.4355 26.3843 78.5155C26.2603 78.5915 26.1503 78.6615 26.0543 78.7255C25.9623 78.7895 25.8663 78.8215 25.7663 78.8215C25.6863 78.8215 25.6163 78.7995 25.5563 78.7555C25.5003 78.7115 25.4543 78.6595 25.4183 78.5995L25.2083 78.2215ZM32.4506 78.2155C32.5826 78.0755 32.7206 77.9475 32.8646 77.8315C33.0086 77.7155 33.1606 77.6175 33.3206 77.5375C33.4846 77.4535 33.6586 77.3895 33.8426 77.3455C34.0306 77.2975 34.2306 77.2735 34.4426 77.2735C34.7786 77.2735 35.0726 77.3295 35.3246 77.4415C35.5806 77.5535 35.7946 77.7115 35.9666 77.9155C36.1386 78.1155 36.2686 78.3575 36.3566 78.6415C36.4446 78.9255 36.4886 79.2395 36.4886 79.5835V83.4655H35.3126V79.5835C35.3126 79.1475 35.2126 78.8095 35.0126 78.5695C34.8126 78.3255 34.5066 78.2035 34.0946 78.2035C33.7946 78.2035 33.5126 78.2755 33.2486 78.4195C32.9886 78.5595 32.7466 78.7515 32.5226 78.9955V83.4655H31.3526V77.3695H32.0546C32.2186 77.3695 32.3206 77.4475 32.3606 77.6035L32.4506 78.2155ZM39.2915 77.3695V83.4655H38.1215V77.3695H39.2915ZM39.5135 75.4855C39.5135 75.5935 39.4915 75.6975 39.4475 75.7975C39.4035 75.8935 39.3435 75.9795 39.2675 76.0555C39.1955 76.1275 39.1095 76.1855 39.0095 76.2295C38.9095 76.2695 38.8055 76.2895 38.6975 76.2895C38.5895 76.2895 38.4875 76.2695 38.3915 76.2295C38.2955 76.1855 38.2095 76.1275 38.1335 76.0555C38.0615 75.9795 38.0035 75.8935 37.9595 75.7975C37.9195 75.6975 37.8995 75.5935 37.8995 75.4855C37.8995 75.3735 37.9195 75.2695 37.9595 75.1735C38.0035 75.0735 38.0615 74.9875 38.1335 74.9155C38.2095 74.8395 38.2955 74.7815 38.3915 74.7415C38.4875 74.6975 38.5895 74.6755 38.6975 74.6755C38.8055 74.6755 38.9095 74.6975 39.0095 74.7415C39.1095 74.7815 39.1955 74.8395 39.2675 74.9155C39.3435 74.9875 39.4035 75.0735 39.4475 75.1735C39.4915 75.2695 39.5135 75.3735 39.5135 75.4855ZM45.2574 78.5095C45.2214 78.5535 45.1854 78.5895 45.1494 78.6175C45.1174 78.6415 45.0694 78.6535 45.0054 78.6535C44.9414 78.6535 44.8734 78.6295 44.8014 78.5815C44.7334 78.5295 44.6454 78.4755 44.5374 78.4195C44.4334 78.3595 44.3054 78.3055 44.1534 78.2575C44.0054 78.2055 43.8214 78.1795 43.6014 78.1795C43.3134 78.1795 43.0594 78.2315 42.8394 78.3355C42.6194 78.4395 42.4354 78.5875 42.2874 78.7795C42.1434 78.9715 42.0334 79.2055 41.9574 79.4815C41.8814 79.7575 41.8434 80.0675 41.8434 80.4115C41.8434 80.7675 41.8834 81.0855 41.9634 81.3655C42.0434 81.6415 42.1574 81.8755 42.3054 82.0675C42.4534 82.2555 42.6334 82.3995 42.8454 82.4995C43.0574 82.5955 43.2934 82.6435 43.5534 82.6435C43.8054 82.6435 44.0134 82.6135 44.1774 82.5535C44.3414 82.4895 44.4774 82.4215 44.5854 82.3495C44.6934 82.2775 44.7834 82.2115 44.8554 82.1515C44.9274 82.0875 45.0014 82.0555 45.0774 82.0555C45.1734 82.0555 45.2474 82.0915 45.2994 82.1635L45.6354 82.5955C45.4954 82.7675 45.3374 82.9135 45.1614 83.0335C44.9894 83.1535 44.8054 83.2515 44.6094 83.3275C44.4134 83.4035 44.2074 83.4595 43.9914 83.4955C43.7794 83.5315 43.5634 83.5495 43.3434 83.5495C42.9634 83.5495 42.6074 83.4795 42.2754 83.3395C41.9474 83.1995 41.6614 82.9955 41.4174 82.7275C41.1774 82.4595 40.9874 82.1315 40.8474 81.7435C40.7074 81.3515 40.6374 80.9075 40.6374 80.4115C40.6374 79.9595 40.6994 79.5415 40.8234 79.1575C40.9514 78.7735 41.1374 78.4435 41.3814 78.1675C41.6294 77.8875 41.9334 77.6695 42.2934 77.5135C42.6534 77.3535 43.0654 77.2735 43.5294 77.2735C43.9654 77.2735 44.3494 77.3435 44.6814 77.4835C45.0134 77.6235 45.3094 77.8215 45.5694 78.0775L45.2574 78.5095Z" fill="#828282"/>
<path d="M42.4774 33.1158C41.5368 32.6407 40.4916 32.3937 39.4655 32.3937C37.2326 32.3937 35.3513 33.5528 34.5532 35.4151C33.9166 36.8973 34.0021 39.1492 34.7527 40.5269C35.2373 41.42 36.33 42.3702 37.9642 42.3702C38.2873 42.3702 38.6198 42.3322 38.9524 42.2657C39.855 42.0756 41.1282 40.7264 41.4323 39.6528C41.6603 38.8451 40.7862 37.4674 39.8835 36.8213C39.817 36.7738 39.741 36.7738 39.684 36.7738C39.57 36.7738 38.9999 36.7928 38.7244 37.1444C38.6293 37.2584 38.5248 37.4674 38.5913 37.7715L38.6103 37.8475L38.6673 37.895C39.2469 38.4556 39.551 39.1302 39.4275 39.5768C39.3419 39.8808 39.0759 40.0898 38.6293 40.2039C38.2018 40.1278 37.5937 39.7668 37.3846 39.5103C36.9951 39.0257 36.6435 37.838 36.8051 37.1919C37.0901 36.0517 38.2493 35.2536 39.6365 35.2536C40.5961 35.2536 41.4513 35.6622 41.9834 36.3748C42.8575 37.5529 43.4846 39.7953 42.9715 40.907C42.3349 42.3037 40.5581 43.7574 38.8384 44.2895C38.4013 44.4225 37.9547 44.489 37.5272 44.489C35.8549 44.489 34.2207 43.4534 32.938 41.5816C31.3892 39.3297 31.3037 36.9639 32.6814 34.7215C33.261 33.7904 34.0591 32.9542 34.8383 32.1466C35.2088 31.7666 35.5889 31.377 35.9404 30.9779C38.3443 28.251 38.9239 25.106 37.6792 21.619C36.615 18.626 34.2682 16.7922 30.8951 16.2982C30.5816 16.2507 30.268 16.2317 29.9545 16.2317C26.9805 16.2317 24.1396 18.151 23.0469 20.8874C21.9353 23.6713 22.7999 26.7118 25.1943 28.46C26.1064 29.1251 27.2846 29.4862 28.5008 29.4862C30.0875 29.4862 31.5412 28.8591 32.4154 27.8044C34.1066 25.7521 34.0971 23.4243 32.3774 21.885C31.7978 21.3625 30.7906 21.1724 30.04 21.1724C29.66 21.1724 29.3274 21.2199 29.0709 21.2959C28.4818 21.486 27.1991 22.6832 27.1896 23.4528C27.1896 23.7473 27.3511 23.9754 27.6551 24.0799L27.7027 24.0989H27.7502C27.8737 24.0989 27.9497 24.0229 28.0922 23.8898C28.3868 23.6048 29.0044 23.0252 29.85 23.0252C30.1635 23.0252 30.4961 23.1107 30.8191 23.2722C31.0947 23.4148 31.1517 23.7568 31.1612 23.9564C31.1897 24.6405 30.7526 25.6286 29.983 26.0942C29.5554 26.3507 28.8998 26.5122 28.2727 26.5122C27.9117 26.5122 27.5791 26.4647 27.3226 26.3602C26.4105 26.0182 25.7834 25.2866 25.5363 24.2889C25.2323 23.0442 25.6123 21.6475 26.515 20.6403C27.4176 19.6427 28.6718 19.0916 30.0495 19.0916C31.7313 19.0916 33.3465 19.9277 34.3632 21.3339C35.6839 23.1487 35.8834 25.4861 34.8953 27.5764C33.8976 29.7047 31.9118 31.0539 29.5934 31.1965C29.4319 31.206 29.2609 31.206 29.0899 31.206C27.8547 31.206 26.572 30.9494 25.3368 30.7024C24.5197 30.5409 23.674 30.3698 22.8474 30.2748C22.5053 30.2368 22.1538 30.2178 21.8117 30.2178C17.4221 30.2178 13.6405 33.4293 13.0039 37.6765C12.3863 41.8191 15.1607 45.7052 19.3224 46.5318C19.7499 46.6173 20.1965 46.6649 20.6241 46.6649C23.4365 46.6649 25.8784 44.9166 26.838 42.2087C27.8357 39.4057 26.6765 36.4888 24.1966 35.5671C23.6455 35.3676 22.9899 35.2631 22.2868 35.2631C21.3367 35.2631 20.396 35.4531 19.6264 35.7857C18.6573 36.2132 17.8021 37.857 17.9161 39.0922C18.0587 40.7454 18.8568 41.154 19.6169 41.5436L19.7024 41.5911C19.9685 41.7241 20.4625 41.8856 20.9851 41.8856C21.7927 41.8856 22.3248 41.5151 22.4768 40.8405L22.4863 40.8119C22.6004 39.7288 21.6977 39.2727 21.0991 38.9592C20.9091 38.8641 20.5861 38.7026 20.567 38.6171C20.567 38.4936 20.8236 38.4081 21.1846 38.4081C22.0303 38.4081 23.1705 38.8356 23.4745 39.4437C23.8546 40.2229 23.9496 41.5246 23.37 42.3987C22.7144 43.3773 21.8402 43.8714 20.7476 43.8714C19.9305 43.8714 19.0088 43.5769 18.0872 43.0353C15.9208 41.7431 15.1702 38.7786 16.4054 36.4223C17.6406 34.0659 19.7214 32.8972 22.3818 33.0588C25.2893 33.2298 27.4366 34.8355 28.6053 37.705C28.8713 38.3701 29.0709 39.0827 29.2609 39.7668C29.5079 40.6789 29.774 41.6196 30.2015 42.4747C31.7693 45.5817 34.5342 47.292 37.9927 47.292C38.1163 47.292 38.2493 47.292 38.3728 47.2825C41.9644 47.1589 44.5583 45.3347 45.86 42.0091C47.1712 38.6456 45.6889 34.7405 42.4774 33.1158Z" fill="white"/>
</svg>
