<svg width="22" height="28" viewBox="0 0 22 28" fill="none" xmlns="http://www.w3.org/2000/svg">
<path d="M14.5998 22.4C14.5998 23.3548 14.2206 24.2705 13.5454 24.9456C12.8703 25.6207 11.9546 26 10.9998 26C10.0451 26 9.12939 25.6207 8.45425 24.9456C7.77912 24.2705 7.39984 23.3548 7.39984 22.4M11.865 5.6036L10.1058 5.6C6.09304 5.5904 2.60944 8.8508 2.58184 12.8V17.348C2.58184 18.296 2.46184 19.2212 1.94464 20.0096L1.60024 20.5352C1.07584 21.332 1.63984 22.4 2.58184 22.4H19.4178C20.3598 22.4 20.9226 21.332 20.3994 20.5352L20.055 20.0096C19.539 19.2212 19.4178 18.2948 19.4178 17.3468V12.8012C19.3698 8.8508 15.8778 5.6132 11.865 5.6036V5.6036Z" stroke="#573926" stroke-width="2.4" stroke-linecap="round" stroke-linejoin="round"/>
<path d="M10.9996 2C11.6361 2 12.2466 2.25286 12.6967 2.70294C13.1468 3.15303 13.3996 3.76348 13.3996 4.4V5.6H8.59961V4.4C8.59961 3.76348 8.85247 3.15303 9.30255 2.70294C9.75264 2.25286 10.3631 2 10.9996 2Z" stroke="#573926" stroke-width="2.4" stroke-linecap="round" stroke-linejoin="round"/>
</svg>
