<svg width="375" height="300" viewBox="0 0 375 300" fill="none" xmlns="http://www.w3.org/2000/svg">
<g clip-path="url(#clip0_20_1259)">
<path d="M393.5 300H-19V3.05176e-05H393.5V300Z" fill="white"/>
<path d="M143.487 232.021H62.5287C58.4435 232.021 55.1321 228.709 55.1321 224.624V74.235C55.1321 70.1498 58.4435 66.8378 62.5287 66.8378H143.487C147.572 66.8378 150.884 70.1498 150.884 74.235V224.624C150.884 228.709 147.572 232.021 143.487 232.021Z" fill="#303C72"/>
<path d="M140.688 227.693H65.3285C61.9377 227.693 59.1882 224.944 59.1882 221.553V77.3063C59.1882 73.9148 61.9377 71.166 65.3285 71.166H140.688C144.078 71.166 146.828 73.9148 146.828 77.3063V221.553C146.828 224.944 144.078 227.693 140.688 227.693Z" fill="#8CCBFF"/>
<path d="M140.688 71.166H65.3285C61.9377 71.166 59.1882 73.9148 59.1882 77.3063V84.8513H146.828V77.3063C146.828 73.9148 144.078 71.166 140.688 71.166Z" fill="#6EB8F5"/>
<path d="M65.3285 71.4285C62.0878 71.4285 59.4508 74.0655 59.4508 77.3063V221.553C59.4508 224.794 62.0878 227.431 65.3285 227.431H140.688C143.929 227.431 146.566 224.794 146.566 221.553V77.3063C146.566 74.0655 143.929 71.4285 140.688 71.4285H65.3285ZM140.688 227.956H65.3285C61.7983 227.956 58.9258 225.083 58.9258 221.553V77.3063C58.9258 73.776 61.7983 70.9035 65.3285 70.9035H140.688C144.218 70.9035 147.091 73.776 147.091 77.3063V221.553C147.091 225.083 144.218 227.956 140.688 227.956Z" fill="white"/>
<path d="M119.997 74.232H86.0187C83.9352 74.232 82.2455 72.543 82.2455 70.4595V69.672H123.771V70.4595C123.771 72.543 122.081 74.232 119.997 74.232Z" fill="#303C72"/>
<path d="M69.56 122.441H135.356C137.16 122.441 138.621 120.979 138.621 119.176V101.957C138.621 100.153 137.16 98.6918 135.356 98.6918H69.56C67.757 98.6918 66.2945 100.153 66.2945 101.957V119.176C66.2945 120.979 67.757 122.441 69.56 122.441Z" fill="#C9E6FF"/>
<path d="M131.826 105.847H72.9298C72.395 105.847 71.9608 105.412 71.9608 104.878V104.465C71.9608 103.93 72.395 103.496 72.9298 103.496H131.826C132.361 103.496 132.795 103.93 132.795 104.465V104.878C132.795 105.412 132.361 105.847 131.826 105.847Z" fill="#B5DDFF"/>
<path d="M131.826 111.855H72.9298C72.395 111.855 71.9608 111.421 71.9608 110.886V110.474C71.9608 109.938 72.395 109.504 72.9298 109.504H131.826C132.361 109.504 132.795 109.938 132.795 110.474V110.886C132.795 111.421 132.361 111.855 131.826 111.855Z" fill="#B5DDFF"/>
<path d="M131.826 117.863H72.9298C72.395 117.863 71.9608 117.429 71.9608 116.894V116.482C71.9608 115.946 72.395 115.513 72.9298 115.513H131.826C132.361 115.513 132.795 115.946 132.795 116.482V116.894C132.795 117.429 132.361 117.863 131.826 117.863Z" fill="#B5DDFF"/>
<path d="M69.56 180.936H135.356C137.16 180.936 138.621 179.474 138.621 177.671V160.452C138.621 158.649 137.16 157.187 135.356 157.187H69.56C67.757 157.187 66.2945 158.649 66.2945 160.452V177.671C66.2945 179.474 67.757 180.936 69.56 180.936Z" fill="#C9E6FF"/>
<path d="M131.93 164.228H73.034C72.4992 164.228 72.0657 163.795 72.0657 163.259V162.847C72.0657 162.312 72.4992 161.878 73.034 161.878H131.93C132.465 161.878 132.899 162.312 132.899 162.847V163.259C132.899 163.795 132.465 164.228 131.93 164.228Z" fill="#B5DDFF"/>
<path d="M131.93 170.236H73.034C72.4992 170.236 72.0657 169.803 72.0657 169.267V168.855C72.0657 168.32 72.4992 167.887 73.034 167.887H131.93C132.465 167.887 132.899 168.32 132.899 168.855V169.267C132.899 169.803 132.465 170.236 131.93 170.236Z" fill="#B5DDFF"/>
<path d="M131.93 176.245H73.034C72.4992 176.245 72.0657 175.811 72.0657 175.276V174.863C72.0657 174.328 72.4992 173.895 73.034 173.895H131.93C132.465 173.895 132.899 174.328 132.899 174.863V175.276C132.899 175.811 132.465 176.245 131.93 176.245Z" fill="#B5DDFF"/>
<path d="M53.3748 151.277H119.171C120.975 151.277 122.436 149.815 122.436 148.012V130.793C122.436 128.99 120.975 127.528 119.171 127.528H53.3748C51.5716 127.528 50.1098 128.99 50.1098 130.793V148.012C50.1098 149.815 51.5716 151.277 53.3748 151.277Z" fill="#C9E6FF"/>
<path d="M114.996 134.754H56.1012C55.5659 134.754 55.1321 134.321 55.1321 133.785V133.373C55.1321 132.838 55.5659 132.404 56.1012 132.404H114.996C115.532 132.404 115.965 132.838 115.965 133.373V133.785C115.965 134.321 115.532 134.754 114.996 134.754Z" fill="#B5DDFF"/>
<path d="M114.996 140.762H56.1012C55.5659 140.762 55.1321 140.329 55.1321 139.793V139.381C55.1321 138.846 55.5659 138.412 56.1012 138.412H114.996C115.532 138.412 115.965 138.846 115.965 139.381V139.793C115.965 140.329 115.532 140.762 114.996 140.762Z" fill="#B5DDFF"/>
<path d="M114.996 146.771H56.1012C55.5659 146.771 55.1321 146.337 55.1321 145.801V145.39C55.1321 144.854 55.5659 144.421 56.1012 144.421H114.996C115.532 144.421 115.965 144.854 115.965 145.39V145.801C115.965 146.337 115.532 146.771 114.996 146.771Z" fill="#B5DDFF"/>
<path d="M80.8625 250.591H82.8687C82.8687 250.591 86.4147 242.017 88.742 240.219L86.726 238.45L84.464 241.18L81.569 246.564L80.8625 250.591Z" fill="#448CE3"/>
<path d="M83.6495 237.199L78.9448 249.414L80.8625 250.591C80.8625 250.591 84.2833 242.538 86.4073 238.835L83.6495 237.199Z" fill="#78ACEA"/>
<path d="M170.769 261.743L168.529 260.521C168.529 260.521 166.3 250.318 164.581 246.88C163.812 245.433 162.096 245 160.466 244.855L159.831 242.764L165.576 241.859C165.576 241.859 168.129 247.673 169.24 250.861C170.769 255.25 170.769 261.743 170.769 261.743Z" fill="#3B86E0"/>
<path d="M170.769 243.123L173.076 261.364L170.769 261.743C170.769 261.743 167.996 249.941 167.589 248.863C167.182 247.786 166.027 244.52 162.432 244.524V243.123L170.734 241.473L170.769 243.123Z" fill="#78ACEA"/>
<path d="M121.094 251.471C121.094 251.471 118.185 252.088 117.578 257.557C116.957 263.155 116.639 270.652 116.639 270.652L113.948 271.094L112.828 265.394L108.859 251.043L121.094 251.471Z" fill="#78ACEA"/>
<path d="M82.8688 231.062L83.6495 237.199L109.409 252.474C110.215 252.952 111.164 253.132 112.09 252.985L170.769 243.123L170.668 238.447L82.8688 231.062Z" fill="#78ACEA"/>
<path d="M136.248 182.581C136.248 182.581 159.217 188.521 166.545 191.193C173.874 193.864 177.691 195.697 177.539 203.636C177.386 211.575 177.233 235.622 170.668 238.447C164.103 241.271 131.583 225.622 131.583 225.622L136.248 182.581Z" fill="#83B2F7"/>
<path d="M167.556 238.747C165.777 230.359 163.884 205.776 166.47 198.292C167.92 194.093 174.576 195.19 174.576 195.19C176.609 196.995 177.618 199.477 177.539 203.636C177.386 211.575 177.233 235.622 170.668 238.447C169.931 238.764 168.865 238.847 167.556 238.747Z" fill="#D2E3FC"/>
<path d="M133.796 203.636C133.796 203.636 161.278 210.964 166.164 213.178C171.05 215.392 172.042 219.667 172.042 222.949C172.042 226.232 170.058 229.21 167.996 230.049C165.935 230.889 121.964 238.294 117.994 238.447C114.025 238.599 107.612 233.713 106.772 231.499C105.932 229.286 86.273 210.388 86.273 210.388L133.796 203.636Z" fill="#BAD6FF"/>
<path d="M101.426 225.395C111.806 226.618 158.454 219.286 162.882 217.912C167.309 216.537 168.312 214.456 168.312 214.456C171.355 216.802 172.042 220.219 172.042 222.949C172.042 226.232 170.058 229.21 167.996 230.049C165.935 230.889 121.964 238.294 117.994 238.447C114.024 238.599 107.612 233.713 106.772 231.499C106.503 230.79 104.298 228.364 101.426 225.395Z" fill="#A6CAFF"/>
<path d="M134.636 205.01C134.636 205.01 138.3 203.865 138.3 199.972C138.3 196.078 135.476 176.383 134.636 173.1C133.796 169.817 130.361 166.917 126.086 166.535C121.811 166.153 87.8397 166.764 81.5037 172.261C75.1677 177.757 84.191 206.324 85.256 208.747C86.4065 211.366 93.6447 210.932 102.243 209.921C116.453 208.25 134.636 205.01 134.636 205.01Z" fill="#83B2F7"/>
<path d="M81.5038 172.261C87.8398 166.764 121.811 166.153 126.086 166.535C127.104 166.626 128.074 166.861 128.973 167.209C128.71 167.224 101.145 168.861 92.039 171.649C79.826 175.39 93.689 211.738 93.6935 211.75C89.3713 211.765 86.2685 211.15 85.55 209.514C84.485 207.091 75.1678 177.757 81.5038 172.261Z" fill="#83B2F7"/>
<path d="M167.996 230.049C167.996 230.049 170.668 230.355 171.355 233.255C172.042 236.156 171.432 239.057 169.676 239.668C167.92 240.279 117.092 248.866 116.176 248.831C115.26 248.797 114.873 238.592 114.831 237.794C114.788 236.996 167.996 230.049 167.996 230.049Z" fill="#BBD4F8"/>
<path d="M114.64 172.283C114.64 172.283 117.65 171.101 118.923 170.739C120.195 170.378 121.657 171.883 121.127 173.768C120.596 175.652 121.38 179.333 122.855 182.069C124.33 184.806 125.454 188.732 126.497 191.828C127.54 194.924 130.237 198.113 130.005 199.212C129.772 200.312 124.61 199.086 122.973 199.405C121.335 199.724 111.521 200.663 108.489 201.458C105.456 202.252 99.1535 201.814 96.9762 202.889C94.799 203.963 93.95 201.608 93.767 199.69C93.584 197.772 90.188 185.276 89.8587 182.675C89.5295 180.073 88.6902 178.497 88.3805 176.79C88.07 175.083 88.523 172.984 89.6945 172.61C90.8667 172.236 97.442 173.834 99.2735 173.949C101.105 174.063 102.64 175.167 103.522 174.964C104.405 174.761 107.229 174.275 109.121 173.885C111.012 173.493 112.226 171.894 114.64 172.283Z" fill="white"/>
<path d="M88.3805 176.79C88.07 175.083 88.523 172.984 89.6945 172.61C89.75 172.592 89.8167 172.58 89.8947 172.571C90.6755 172.951 91.6625 173.566 92.327 174.459C93.581 176.145 97.0227 186.905 97.7615 193.654C98.2115 197.36 96.6702 198.547 97.0017 200.072C97.1645 200.819 97.3962 201.783 97.445 202.7C97.2732 202.757 97.1157 202.82 96.9762 202.889C94.799 203.963 93.95 201.608 93.767 199.69C93.584 197.772 90.188 185.276 89.8587 182.675C89.5295 180.073 88.6902 178.497 88.3805 176.79Z" fill="#EFE8E6"/>
<path d="M105.58 206.448C105.58 206.448 107.179 197.316 122.746 200.031C134.609 202.101 157.171 207.194 161.344 211.937C162.364 213.115 165.187 217.702 158.459 219C151.731 220.297 141.454 219.871 135.381 219.771C129.31 219.67 102.649 219.43 105.58 206.448Z" fill="#F2B4A7"/>
<path d="M104.517 208.536C104.517 208.536 103.922 218.269 127.296 220.372C150.671 222.475 161.612 221.398 162.433 213.46C162.465 211.018 163.843 208.214 148.919 204.502C133.995 200.79 124.504 197.818 117.067 197.668C109.63 197.518 104.536 203.071 104.517 208.536Z" fill="#ADCAED"/>
<path d="M154.629 213.814C149.858 211.317 130.411 205.963 130.245 205.075C130.078 204.187 130.744 201.191 130.744 201.191C129.301 202.19 128.192 206.129 127.026 205.408C125.862 204.687 117.484 203.632 117.484 203.632C117.484 203.632 108.189 205.582 107.06 213.586C109.803 216.303 115.494 219.31 127.296 220.372C142.149 221.708 150.542 221.214 156.658 219.307C156.855 216.85 156.413 214.747 154.629 213.814Z" fill="#8FB1DB"/>
<path d="M157.325 211.308C160.172 212.186 161.82 215.153 161.125 218.048C160.087 222.368 158.555 227.386 153.925 240.795C147.524 259.336 147.453 260.023 144.769 259.378C142.551 258.844 142.965 256.025 143.676 248.545C144.112 243.946 145.459 230.894 147.212 224.386C148.965 217.879 151.329 210.41 155.903 211.002C156.417 211.069 156.891 211.174 157.325 211.308Z" fill="#F2B4A7"/>
<path d="M163.176 214.143C163.176 214.143 158.611 234.823 150.395 251.81C150.395 251.81 147.544 252.083 143.128 250.663C143.128 250.663 143.722 236.629 145.56 226.78C147.399 216.932 151.494 211.821 152.739 209.431C154.797 205.478 163.28 207.171 163.176 214.143Z" fill="#ADCAED"/>
<path d="M153.576 230.792C154.574 227.185 159.401 216.31 154.629 213.814C153.839 213.4 152.579 212.883 151.027 212.304C149.277 215.244 146.858 219.834 145.56 226.78C143.722 236.629 143.128 250.663 143.128 250.663C144.579 251.13 145.86 251.413 146.928 251.584C148.634 246.373 152.786 233.643 153.576 230.792Z" fill="#8FB1DB"/>
<path d="M148.917 254.712C149.316 253.053 143.45 251.9 143.49 253.606C143.503 254.162 143.499 255.422 143.387 255.825C142.814 257.875 142.32 258.218 141.467 259.998C140.614 261.778 140.637 264.094 142.965 264.939C145.294 265.783 149.607 266.362 152.996 267.313C156.385 268.264 160.008 267.188 159.82 265.619C159.657 264.26 157.409 263.885 154.806 262.509C152.204 261.132 149.923 259.61 148.932 258.331C148.065 257.214 148.589 256.079 148.917 254.712Z" fill="#F2B4A7"/>
<path d="M161.586 267.429C161.586 267.429 161.571 267.877 161.338 268.074C161.105 268.271 157.393 268.678 155.005 268.37C152.616 268.061 148.978 267.145 146.158 267.061C143.403 266.978 141.451 267.121 139.918 266.606C139.855 266.584 139.813 266.523 139.816 266.456C139.84 265.898 139.892 265.433 139.892 265.433L153.42 266.248L161.586 267.429Z" fill="#BD687E"/>
<path d="M161.586 267.429C161.586 267.429 161.855 265.142 160.148 264.2C158.441 263.258 151.812 260.339 151.515 260.332C151.218 260.326 149.775 261.096 148.719 262.454C148.507 262.766 143.35 261.628 141.438 260.083C141.204 260.074 139.675 261.988 139.892 265.433C139.892 265.433 141.681 266.176 145.513 266.192C149.345 266.207 151.821 267.52 156.778 267.559C160.152 267.686 161.586 267.429 161.586 267.429Z" fill="#DADCE3"/>
<path d="M126.007 182.224C127.663 183.912 127.418 186.122 127.599 188.479C127.779 190.829 130.411 196.703 130.467 199.048C130.544 202.261 129.357 204.352 125.835 210.013C122.312 215.675 119.249 221.337 109.295 219.195C99.341 217.052 101.357 206.311 102.029 203.037C102.666 199.936 102.857 197.735 106.379 193.374C107.022 192.677 107.328 189.938 107.334 188.366C107.343 185.734 107.781 183.503 109.837 181.859C111.574 180.472 114.187 179.341 118.093 179.341C122.516 179.341 124.278 180.462 126.007 182.224Z" fill="#F9C4B9"/>
<path d="M107.339 189.782C107.144 189.764 106.968 189.9 106.939 190.093C106.821 190.867 106.43 192.775 105.324 194.056C103.909 195.698 102.174 198.566 101.358 204.886C100.542 211.206 101.908 216.277 105.813 218.228C109.717 220.179 115.936 221.056 119.635 218.228C123.334 215.4 126.263 209.734 127.239 208.202C128.215 206.671 130.899 203.263 130.899 199.115C130.899 197.834 129.435 194.186 128.898 192.334C128.529 191.058 128.252 190.083 128.115 189.599C128.067 189.429 127.881 189.34 127.718 189.406C126.602 189.859 121.986 191.138 107.339 189.782Z" fill="#ADCAED"/>
<path d="M130.669 201.246C129.263 202.326 128.172 206.117 127.026 205.408C125.862 204.687 117.483 203.632 117.483 203.632C117.483 203.632 104.253 206.409 107.445 218.929C111.294 220.344 116.418 220.688 119.635 218.228C123.334 215.4 126.263 209.734 127.239 208.202C128.042 206.942 129.999 204.412 130.669 201.246Z" fill="#8FB1DB"/>
<path d="M128.463 190.824C128.31 190.287 128.191 189.867 128.115 189.599C128.067 189.429 127.881 189.34 127.718 189.406C126.602 189.859 121.986 191.138 107.339 189.782C107.144 189.764 106.968 189.9 106.939 190.093C106.905 190.318 106.847 190.639 106.755 191.013C109.272 191.455 117.875 192.664 128.463 190.824Z" fill="#8FB1DB"/>
<path d="M105.446 217.538C101.634 214.107 101.404 208.966 105.31 205.642C107.443 203.826 110.236 202.737 115.108 203.715C124.899 205.681 130.443 207.901 138.224 210.445C146.073 213.012 144.831 212.35 148.482 214.55C152.133 216.751 153.427 220.029 152.499 222.002C151.569 223.975 151.899 227.122 145.836 226.513C139.773 225.905 129.768 225.109 123.732 223.981C119.646 223.218 110.328 221.933 105.446 217.538Z" fill="#F9C4B9"/>
<path d="M101.494 210.48C101.494 210.48 98.9412 221.235 125.24 224.737C150.322 228.077 151.952 227.646 154.375 221.483C157.239 214.198 148.548 212.531 143.54 211.246C138.531 209.96 122.892 204.824 116.534 203.059C110.175 201.295 102.886 202.828 101.494 210.48Z" fill="#ADCAED"/>
<path d="M125.24 224.737C134.304 225.944 140.304 226.658 144.387 226.788C143.742 222.868 140.87 219.057 140.87 219.057C140.87 219.057 139.288 220.68 137.748 224.092C137.172 225.371 129.313 225.002 123.64 224.509C124.162 224.588 124.694 224.664 125.24 224.737Z" fill="#8FB1DB"/>
<path d="M154.356 219.618C154.356 219.618 150.98 231.877 149.097 237.853C147.214 243.829 143.905 254.803 143.146 258.316C142.387 261.829 140.08 260.392 139.329 259.993C138.578 259.593 138.091 258.775 138.022 255.454C137.953 252.133 137.557 249.289 137.659 243.883C137.761 238.477 139.201 223.867 142.618 218.235C146.453 211.912 155.352 213.526 154.356 219.618Z" fill="#F9C4B9"/>
<path d="M148.527 213.73C148.527 213.73 142.035 213.897 140.121 220.639C138.207 227.38 137.208 238.449 137.374 250.433C137.374 250.433 142.332 251.998 145.245 251.831C145.245 251.831 153.187 228.295 154.685 220.555C154.935 217.476 154.519 213.647 148.527 213.73Z" fill="#ADCAED"/>
<path d="M143.515 256.835C143.845 255.161 137.936 254.254 138.046 255.957C138.083 256.512 138.131 257.77 138.036 258.178C137.549 260.251 137.07 260.613 136.291 262.426C135.514 264.241 135.632 266.554 137.994 267.301C140.356 268.048 144.688 268.447 148.114 269.256C151.541 270.066 155.116 268.84 154.862 267.28C154.643 265.929 152.381 265.648 149.724 264.38C147.066 263.113 144.724 261.688 143.68 260.452C142.768 259.371 143.244 258.215 143.515 256.835Z" fill="#F9C4B9"/>
<path d="M156.636 269.27C156.636 269.27 156.629 269.718 156.399 269.92C156.17 270.121 152.466 270.595 150.072 270.33C147.678 270.064 144.024 269.215 141.204 269.182C138.447 269.149 136.498 269.328 134.956 268.84C134.892 268.82 134.85 268.759 134.852 268.692C134.865 268.134 134.909 267.667 134.909 267.667L148.449 268.237L156.636 269.27Z" fill="#C7778C"/>
<path d="M156.636 269.27C156.636 269.27 156.863 266.979 155.139 266.068C153.415 265.157 146.734 262.358 146.437 262.357C146.14 262.356 144.712 263.152 143.681 264.529C143.474 264.845 138.298 263.8 136.359 262.29C136.124 262.286 134.63 264.227 134.909 267.667C134.909 267.667 136.712 268.378 140.544 268.324C144.375 268.27 146.875 269.539 151.831 269.487C155.207 269.553 156.636 269.27 156.636 269.27Z" fill="#F5F8FF"/>
<path d="M124.811 152.467C125.666 152.068 127.818 153.478 128.503 154.126C129.38 154.958 130.852 156.707 132.128 159.926C134.095 164.889 135.567 171.104 136.386 173.766C137.204 176.429 138.946 182.564 136.867 183.804C134.788 185.045 131.981 182.602 130.348 179.502C128.716 176.401 126.691 169.988 125.492 166.15C124.452 162.821 121.704 153.914 124.811 152.467Z" fill="#F9C4B9"/>
<path d="M125.411 152.132C125.411 152.132 127.882 152.794 129.549 154.89C131.215 156.985 133.978 162.271 136.231 171.95C136.231 171.95 132.178 175.289 127.38 176.524C127.38 176.524 121.848 161.844 121.403 157.422C120.957 153.001 123.813 151.635 125.411 152.132Z" fill="#2A4E96"/>
<path d="M132.066 174.654C132.15 174.178 132.275 173.606 132.439 173.325C132.73 172.825 133.979 170.662 133.854 169.663C133.729 168.664 132.73 165.085 131.566 162.256C130.4 159.426 127.487 153.934 127.487 153.934C127.487 153.934 125.614 152.533 123.629 152.272C122.316 152.832 121.1 154.424 121.403 157.422C121.849 161.844 127.381 176.524 127.381 176.524C129.086 176.086 130.697 175.381 132.066 174.654Z" fill="#49374A"/>
<path d="M133.141 178.436C133.141 178.436 136.677 174.74 141.303 171.369C144.85 168.783 149.899 164.607 152.886 162.585C154.308 161.623 155.313 161.452 155.9 161.947C157.647 163.415 154.078 166.837 152.031 169.32C150.244 171.487 143.727 178.474 141.552 180.565C139.377 182.657 137.302 184.48 135.114 184.081C132.927 183.682 130.874 180.857 133.141 178.436Z" fill="#F9C4B9"/>
<path d="M137.547 174.343C137.262 174.586 136.987 174.823 136.724 175.054C136.725 175.093 136.725 175.114 136.725 175.114C136.725 175.114 137.224 177.028 136.309 179.941C136.309 179.941 138.334 176.941 137.547 174.343Z" fill="#F2B4A7"/>
<path d="M150.589 170.486C149.098 172.198 146.336 168.857 147.336 167.26C147.353 167.234 150.522 164.891 151.079 162.685C151.441 161.249 151.329 160.576 152.818 159.341C154.086 158.29 154.932 157.576 155.557 157.688C156.219 157.808 155.628 158.684 154.942 159.268C154.2 159.899 153.06 161.786 154.104 161.753C154.935 161.726 157.61 161.222 158.421 160.878C159.745 160.316 163.088 157.197 163.83 158.889C163.83 158.889 164.682 158.764 164.606 159.747C164.606 159.747 165.628 160.097 164.67 161.293C164.67 161.293 165.259 161.848 164.648 162.535C164.233 163.001 162.428 164.585 161.233 165.473C160.038 166.361 155.265 166.865 153.561 167.85C153.018 168.164 150.93 170.096 150.589 170.486Z" fill="#F9C4B9"/>
<path d="M153.685 161.429C153.743 162.443 154.067 163.27 153.712 164.279C154.557 163.493 153.851 162.287 153.685 161.429Z" fill="#EDAD9A"/>
<path d="M164.67 161.293C164.18 161.204 163.792 161.598 163.432 161.863C162.309 162.676 161.247 163.615 160.074 164.332C161.459 164.027 162.406 162.776 163.507 161.955C163.827 161.643 164.26 161.295 164.67 161.293Z" fill="#EDAD9A"/>
<path d="M164.606 159.747C163.566 159.821 162.797 160.629 161.979 161.187C161.15 161.733 160.407 162.55 159.577 162.992C160.091 162.941 160.535 162.611 160.928 162.295C162.123 161.447 163.198 160.099 164.606 159.747Z" fill="#EDAD9A"/>
<path d="M163.83 158.889C161.937 159.132 160.667 160.849 159.087 161.728C160.896 161.299 162.006 159.211 163.83 158.889Z" fill="#EDAD9A"/>
<path d="M159.344 164.667C157.371 163.992 154.71 163.516 152.954 164.909C154.876 163.829 157.272 164.324 159.344 164.667Z" fill="#F2B4A7"/>
<path d="M158.962 161.671C159.316 161.99 159.422 162.475 159.526 162.922C159.88 163.267 159.941 163.819 160.022 164.287C160.202 164.426 160.201 164.691 160.2 164.897C160.153 164.686 160.081 164.458 159.897 164.348C159.756 163.932 159.67 163.385 159.352 163.074C159.162 162.676 159.181 162.119 158.857 161.771C158.758 161.552 158.7 161.295 158.522 161.115C158.728 161.241 158.861 161.456 158.962 161.671Z" fill="#F2B4A7"/>
<path d="M107.483 187.634C107.512 187.828 107.552 188.041 107.604 188.271C110.965 188.8 119.749 189.914 127.429 188.565C127.516 187.044 127.576 185.168 127.657 183.378C127.819 179.803 128.995 175.073 129.485 173.88C129.975 172.686 133.435 172.213 131.472 164.671C130.465 160.806 128.162 153.931 125.14 152.255C121.869 150.442 117.984 150.2 114.269 150.643C113.115 150.781 111.841 151.012 110.496 151.383C103.928 153.191 104.392 157.144 104.35 160.055C104.306 162.966 105.692 169.561 106.562 173.351C107.432 177.142 106.84 183.41 107.483 187.634Z" fill="#F9C4B9"/>
<path d="M123.613 148.02C123.613 148.02 123.137 150.189 123.406 151.913C123.676 153.637 123.604 155.504 121.089 156.05C118.573 156.596 115.513 155.299 114.058 154.904C112.573 154.502 113.162 151.912 113.434 151.159C113.704 150.407 114.862 147.982 115.363 142.126C115.376 140.311 117.614 138.976 119.737 140.164C121.217 140.993 124.609 142.253 123.613 148.02Z" fill="#F9C4B9"/>
<path d="M119.737 140.164C117.614 138.976 115.376 140.311 115.363 142.126C115.315 142.692 116.169 143.359 116.11 143.863C117.814 147.419 117.678 149.106 123.324 150.5L123.613 148.02C124.608 142.253 121.217 140.993 119.737 140.164Z" fill="#F2B4A7"/>
<path d="M106.747 176.002C106.93 177.325 106.803 187.959 106.914 188.818C107.025 189.679 107.339 189.782 107.339 189.782C122.532 192.009 127.718 189.406 127.718 189.406C128.464 188.413 128.081 182.494 128.497 180.745C128.913 178.998 130.039 173.769 130.039 173.769C131.482 172.409 132.702 171.3 132.369 168.831C131.815 164.558 129.301 157.138 128.386 155.335C127.47 153.531 126.471 152.366 125.973 152.227C125.473 152.089 123.349 151.434 123.349 151.434C123.738 152.987 121.95 153.753 120.036 153.448C118.122 153.142 113.632 150.644 113.632 150.644C113.632 150.644 110.826 151.104 109.14 151.604C107.454 152.102 105.207 153.621 104.583 155.265C103.959 156.909 103.605 158.885 104.438 164.191C105.27 169.496 106.373 173.29 106.747 176.002Z" fill="#2A4E96"/>
<path d="M121.159 154.913C119.461 154.913 117.73 154.275 117.626 154.236C117.505 154.19 117.444 154.055 117.49 153.935C117.535 153.814 117.67 153.752 117.79 153.797C117.825 153.811 121.262 155.078 123.005 154.031C123.556 153.701 123.871 153.182 123.968 152.447C123.985 152.318 124.102 152.228 124.231 152.245C124.359 152.262 124.449 152.38 124.432 152.507C124.317 153.382 123.917 154.03 123.245 154.433C122.652 154.789 121.909 154.913 121.159 154.913Z" fill="#49374A"/>
<path d="M108.9 185.809C108.678 185.143 109.178 177.985 109.4 176.986C109.621 175.988 110.787 174.934 112.395 174.656C117.944 176.321 121.884 174.102 121.884 174.102C118.166 175.267 112.118 174.046 112.007 172.104C111.897 170.162 112.95 162.672 113.006 160.064C113.061 157.456 111.564 154.627 111.564 154.627C110.765 153.553 107.979 153.532 104.428 155.701C103.907 157.276 103.677 159.344 104.438 164.191C105.27 169.496 106.373 173.29 106.747 176.002C106.93 177.325 106.803 187.959 106.914 188.818C107.025 189.679 107.339 189.782 107.339 189.782C110.913 190.306 113.934 190.562 116.463 190.648C112.133 189.709 109.101 186.412 108.9 185.809Z" fill="#2A4E96"/>
<path d="M126.055 173.47C127.354 173.923 128.707 173.618 130.036 173.746C129.286 174.582 126.778 174.066 126.055 173.47Z" fill="#49374A"/>
<path d="M125.79 148.679C121.777 149.28 115.906 146.366 112.864 141.228C109.82 136.089 109.713 126.436 118.288 124.694C118.288 124.694 127.288 122.858 128.839 132.862C129.154 134.895 129.381 136.729 129.51 138.369C129.568 139.107 129.606 139.807 129.621 140.464C129.747 145.539 128.621 148.257 125.79 148.679Z" fill="#F9C4B9"/>
<path d="M132.762 138.987C130.81 137.733 131.269 136.178 129.63 132.005C127.992 127.832 126.139 125.372 124.434 124.562C122.77 123.771 119.639 123.782 119.487 123.783C119.047 123.896 118.598 123.939 118.207 123.882C118.209 123.883 113.292 124.246 110.78 126.971C108.268 129.697 108.177 134.266 107.853 135.719C107.531 137.173 106.451 137.676 105.753 137.317C105.736 137.367 105.747 137.425 105.78 137.489C105.803 137.642 105.91 138.19 106.327 138.487C106.816 138.835 107.173 138.628 107.127 138.788C106.773 140.018 105.543 140.564 105.6 140.746C105.729 141.154 106.773 141.503 106.773 141.503C106.773 141.503 105.56 141.959 105.619 142.376C105.652 142.496 105.71 142.607 105.786 142.712C105.867 142.922 106 143.195 106.19 143.375C106.534 143.702 106.893 143.676 107.113 143.743C107.334 143.81 107.491 144.057 107.525 144.335C107.559 144.612 107.515 145.23 108.222 145.257C108.7 145.892 109.211 146.249 109.666 146.444C109.789 146.61 110.017 146.83 110.433 146.993C111.193 147.29 111.594 146.936 111.594 146.936C111.594 146.936 113.23 147.375 113.469 146.159C115.003 146.439 115.879 146.105 116.367 145.473C117.033 145.064 117.422 144.842 117.351 144.105C117.286 143.435 117.099 143.126 116.913 142.646C116.862 141.742 116.726 140.898 116.774 140.436C116.859 139.61 117.29 138.898 118.057 138.074C118.354 137.962 118.631 137.802 118.843 137.51C119.011 137.279 119.133 137.093 119.225 136.938C119.559 136.634 119.925 136.31 120.326 135.956C120.604 135.711 120.841 135.432 121.044 135.131C121.323 134.972 121.583 134.783 121.759 134.518C122.296 133.707 122.304 132.838 122.147 131.751C122.258 130.713 122.193 129.935 122.193 129.935C124.157 131.203 126.99 129.401 127.557 130.385C129.925 134.793 129.61 142.22 129.61 142.22C132.195 141.924 132.051 140.041 132.051 140.041C132.706 139.638 132.872 139.319 132.762 138.987Z" fill="#AD4242"/>
<path d="M113.469 146.159C114.141 145.91 114.491 145.054 114.282 144.387C114.004 144.986 113.786 145.573 113.469 146.159Z" fill="#993A3A"/>
<path d="M108.253 143.919C109.196 144.319 110.347 143.714 110.78 142.834C110.002 143.346 109.202 143.818 108.253 143.919Z" fill="#993A3A"/>
<path d="M106.773 141.502C107.361 141.668 108.098 141.463 108.427 140.928C107.84 141.056 107.295 141.196 106.773 141.502Z" fill="#993A3A"/>
<path d="M118.394 128.469C116.199 128.883 113.607 129.956 112.906 132.28C112.614 133.361 112.436 134.47 112.317 135.58C112.207 136.344 112.231 137.17 111.84 137.856C112.459 136.994 112.444 135.842 112.676 134.841C112.863 133.893 113.034 132.931 113.356 132.017C114.238 130.037 116.457 129.121 118.394 128.469Z" fill="#993A3A"/>
<path d="M112.976 136.748C112.788 137.574 112.112 138.163 111.372 138.505C110.601 138.892 109.848 139.364 109.276 140.018C110.06 139.551 110.857 139.146 111.668 138.736C112.398 138.369 113.055 137.607 112.976 136.748Z" fill="#993A3A"/>
<path d="M113.092 140.896C112.969 141.856 113.129 142.857 112.873 143.798C113.583 143.046 113.448 141.79 113.092 140.896Z" fill="#993A3A"/>
<path d="M116.625 136.229C114.869 137.75 114.271 140.366 114.813 142.577C114.771 140.336 115.268 138.049 116.625 136.229Z" fill="#993A3A"/>
<path d="M118.56 125.637C115.883 125.402 112.588 125.704 110.863 128.032C109.327 130.007 109.185 132.575 109.288 134.977C109.282 135.699 109.244 136.469 108.828 137.085C109.945 135.629 109.181 132.592 109.94 130.642C110.251 129.611 110.773 128.633 111.469 127.811C113.268 125.945 116.094 125.663 118.56 125.637Z" fill="#993A3A"/>
<path d="M119.906 127.781C120.097 130.664 119.218 133.799 116.706 135.461C119.553 134.197 120.61 130.648 119.906 127.781Z" fill="#993A3A"/>
<path d="M122.193 129.935C121.959 128.131 121.113 124.982 119.48 124.008C120.777 125.347 121.485 128.249 122.193 129.935Z" fill="#993A3A"/>
<path d="M118.557 140.792C118.557 140.792 117.433 137.76 115.613 138.401C113.793 139.041 115.818 142.057 116.504 142.802C117.32 143.69 119.735 143.988 118.557 140.792Z" fill="#F9C4B9"/>
<path d="M116.399 139.591C116.324 139.574 116.25 139.621 116.234 139.696C116.217 139.771 116.265 139.845 116.34 139.861C116.828 139.969 117.125 140.342 117.305 140.748C117.036 140.593 116.63 140.434 116.21 140.562C116.136 140.584 116.094 140.662 116.117 140.735C116.139 140.809 116.217 140.85 116.29 140.827C116.852 140.658 117.429 141.172 117.435 141.177C117.442 141.183 117.451 141.187 117.459 141.191C117.572 141.619 117.582 141.985 117.582 141.994C117.584 142.069 117.645 142.129 117.72 142.13C117.801 142.129 117.861 142.065 117.86 141.988C117.858 141.904 117.807 139.898 116.399 139.591Z" fill="#EDAD9A"/>
<path d="M105.113 153.679C106.488 152.391 108.659 152.512 109.846 153.976C110.742 155.08 111.475 157.077 110.871 160.652C109.647 167.892 106.666 176.787 105.499 179.858C104.331 182.929 102.418 187.89 99.8097 187.591C97.202 187.294 96.4715 185.037 96.6942 182.646C96.9162 180.256 100.077 169.111 100.896 164.027C101.492 160.32 102.936 155.717 105.113 153.679Z" fill="#F9C4B9"/>
<path d="M109.234 152.574C109.234 152.574 113.041 152.938 112.451 159.232C111.862 165.527 108.179 175.933 108.179 175.933C108.179 175.933 102.754 176.928 98.1365 172.936C98.1365 172.936 101.236 160.04 102.981 156.216C104.727 152.391 107.68 151.886 109.234 152.574Z" fill="#2A4E96"/>
<path d="M124.981 200.677C122.812 199.935 115.811 198.643 112.513 198.149C110.582 197.86 108.652 197.709 106.861 197.644C109.237 198.649 113.692 200.624 114.671 201.685C116.019 203.147 119.672 204.258 120.74 204.439C121.808 204.619 122.449 207.322 124.059 207.572C125.112 207.736 125.97 204 126.436 201.404C125.813 201.046 125.305 200.789 124.981 200.677Z" fill="#EFE8E6"/>
<path d="M98.1365 197.914C98.1365 197.914 105.325 197.071 112.513 198.149C115.811 198.643 122.812 199.935 124.98 200.677C127.149 201.421 137.361 208.603 137.356 209.722C137.352 210.841 139.852 211.799 137.356 212.304C134.86 212.809 134.317 212.062 132.425 212.304C130.533 212.546 125.262 217.877 119.635 218.228C114.008 218.579 105.486 219.587 101.943 216.612C98.399 213.637 91.1608 200.275 98.1365 197.914Z" fill="white"/>
<path d="M130.019 209.722C127.407 209.587 125.09 210.645 122.27 211.432C119.451 212.218 115.909 211.694 113.948 210.71C111.987 209.725 111.385 206.514 109.161 203.635C106.938 200.758 102.482 198.12 102.482 198.12C102.482 198.12 98.8977 198.996 95.2722 201.586C94.6632 206.494 99.3148 214.406 101.943 216.612C105.486 219.587 114.008 218.579 119.636 218.228C125.263 217.877 130.533 212.546 132.425 212.304C134.317 212.062 134.86 212.809 137.356 212.304C139.496 211.871 137.966 211.106 137.487 210.191C137.443 210.181 137.398 210.172 137.356 210.16C136.115 209.806 132.631 209.858 130.019 209.722Z" fill="#EFE8E6"/>
<path d="M105.09 215.563C107.642 214.518 110.254 213.616 112.952 213.016C113.543 212.884 114.148 212.779 114.751 212.709C115.049 212.671 115.499 212.645 115.8 212.636C117.603 212.59 119.415 212.639 121.214 212.608C122.748 212.592 124.286 212.527 125.804 212.301C128.694 211.867 131.337 210.392 134.257 210.088C135.286 209.962 136.336 210.002 137.356 210.16L136.841 210.132L136.584 210.118L136.327 210.121C136.042 210.116 135.593 210.137 135.301 210.162C132.003 210.398 129.115 212.242 125.882 212.782C122.466 213.334 118.991 213.066 115.552 213.114C114.373 213.154 113.179 213.369 112.028 213.621C109.681 214.138 107.379 214.828 105.09 215.563Z" fill="#DBD6D5"/>
<path d="M101.743 180.926C101.743 180.926 104.775 183.373 108.801 187.441C111.889 190.561 116.216 194.943 118.663 197.593C119.827 198.855 120.146 199.823 119.746 200.478C118.555 202.424 114.637 199.41 111.875 197.758C109.465 196.315 102.892 191.907 100.578 189.97C98.192 187.972 96.5998 185.84 96.6665 183.617C96.7333 181.394 99.0095 179.047 101.743 180.926Z" fill="#F9C4B9"/>
<path d="M118.233 197.113C118.233 197.113 124.308 198.667 125.085 198.889C125.862 199.111 126.943 200.248 127.193 201.163C127.443 202.079 127.693 205.908 127.72 206.684C127.748 207.461 127.027 207.322 127.027 207.322C127.027 207.322 126.971 208.183 126.472 208.377C125.973 208.57 125.668 207.822 125.668 207.822C125.668 207.822 125.362 208.294 125.085 208.321C124.807 208.349 124.058 207.572 124.058 207.572C124.058 207.572 123.614 207.988 123.004 207.045C122.394 206.101 121.478 203.771 121.339 203.632C121.201 203.494 118.593 202.995 117.539 202.135C116.485 201.274 115.431 199.915 114.793 199.222C114.154 198.528 116.124 195.754 118.233 197.113Z" fill="#F9C4B9"/>
<path d="M127.026 207.322C126.87 206.614 126.171 203.388 126.004 202.754C125.803 201.876 125.665 200.888 124.98 200.259C125.61 200.434 125.972 201.174 126.166 201.757C126.54 203.561 126.893 205.591 127.026 207.322Z" fill="#EDAD9A"/>
<path d="M125.668 207.822C125.345 206.807 124.884 205.329 124.576 204.292C124.16 203.195 124.124 201.828 123.135 201.055C124.38 201.315 124.603 203.112 124.864 204.211C125.067 205.243 125.582 206.887 125.668 207.822Z" fill="#EDAD9A"/>
<path d="M124.058 207.572C123.717 206.408 123.344 205.024 122.964 203.885C122.826 203.134 122.358 202.585 121.74 202.137C122.931 202.261 123.333 203.452 123.486 204.541C123.662 205.517 124.021 206.679 124.058 207.572Z" fill="#EDAD9A"/>
<path d="M79.85 186.918L80.2055 189.097C80.2055 189.097 91.8095 192.643 96.3132 194.246C100.818 195.849 107.077 198.903 108.833 205.239C110.589 211.575 117.078 243.485 117.918 247.149C118.758 250.813 107.535 248.524 95.9322 241.042C84.3282 233.561 80.8932 230.202 78.221 223.331C75.5495 216.461 70.2822 196.307 70.2822 192.643C70.2822 188.979 76.211 187.147 79.85 186.918Z" fill="#83B2F7"/>
<path d="M79.85 186.918L80.2055 189.097C80.2055 189.097 91.8095 192.643 96.3132 194.246C100.818 195.849 107.077 198.903 108.833 205.239C108.927 205.576 109.033 205.986 109.152 206.459L95.702 206.458C95.702 206.458 76.007 198.368 70.2822 192.643C70.2822 188.979 76.211 187.147 79.85 186.918Z" fill="#83B2F7"/>
<path d="M97.3827 202.567C102.879 198.673 106.503 200.731 106.503 200.731C107.532 202.013 108.352 203.503 108.833 205.239C110.589 211.575 117.078 243.485 117.918 247.149C118.452 249.484 114.089 249.401 107.85 247.097C99.527 231.97 92.0937 206.314 97.3827 202.567Z" fill="#D2E3FC"/>
<path d="M71.978 201.685L72.2495 202.813C72.2495 202.813 91.5995 211.651 94.1218 212.771C95.6083 213.382 96.293 215.182 96.617 216.687C96.941 218.191 101.955 236.638 107.85 247.097C113.745 257.557 113.948 271.094 113.948 271.094L111.709 269.873C111.709 269.873 112.092 262.341 109.152 255.826C106.213 249.312 97.6573 230.446 95.6083 223.968C93.5585 217.489 92.6068 215.055 91.589 214.456C90.5713 213.857 70.418 205.307 69.4678 204.424C68.5175 203.542 69.263 201.727 71.978 201.685Z" fill="#78ACEA"/>
<path d="M314.283 232.021H233.325C229.239 232.021 225.928 228.709 225.928 224.624V74.235C225.928 70.1498 229.239 66.8378 233.325 66.8378H314.283C318.369 66.8378 321.68 70.1498 321.68 74.235V224.624C321.68 228.709 318.369 232.021 314.283 232.021Z" fill="#303C72"/>
<path d="M311.484 227.693H236.124C232.734 227.693 229.984 224.944 229.984 221.553V77.3063C229.984 73.9148 232.734 71.166 236.124 71.166H311.484C314.874 71.166 317.624 73.9148 317.624 77.3063V221.553C317.624 224.944 314.874 227.693 311.484 227.693Z" fill="#8CCBFF"/>
<path d="M311.484 71.166H236.124C232.734 71.166 229.984 73.9148 229.984 77.3063V84.8513H317.624V77.3063C317.624 73.9148 314.874 71.166 311.484 71.166Z" fill="#6EB8F5"/>
<path d="M311.809 77.706H303.379C302.863 77.706 302.445 77.2875 302.445 76.7715V76.623C302.445 76.107 302.863 75.6885 303.379 75.6885H311.809C312.325 75.6885 312.744 76.107 312.744 76.623V76.7715C312.744 77.2875 312.325 77.706 311.809 77.706Z" fill="white"/>
<path d="M311.809 82.071H306.469C305.953 82.071 305.535 81.6525 305.535 81.1365V80.9887C305.535 80.472 305.953 80.0535 306.469 80.0535H311.809C312.325 80.0535 312.744 80.472 312.744 80.9887V81.1365C312.744 81.6525 312.325 82.071 311.809 82.071Z" fill="white"/>
<path d="M236.125 71.4285C232.884 71.4285 230.247 74.0655 230.247 77.3063V221.553C230.247 224.794 232.884 227.431 236.125 227.431H311.484C314.724 227.431 317.361 224.794 317.361 221.553V77.3063C317.361 74.0655 314.724 71.4285 311.484 71.4285H236.125ZM311.484 227.956H236.125C232.594 227.956 229.722 225.083 229.722 221.553V77.3063C229.722 73.776 232.594 70.9035 236.125 70.9035H311.484C315.014 70.9035 317.886 73.776 317.886 77.3063V221.553C317.886 225.083 315.014 227.956 311.484 227.956Z" fill="white"/>
<path d="M290.793 74.232H256.815C254.731 74.232 253.041 72.543 253.041 70.4595V69.672H294.567V70.4595C294.567 72.543 292.877 74.232 290.793 74.232Z" fill="#303C72"/>
<path d="M307.848 122.441H242.052C240.249 122.441 238.787 120.979 238.787 119.176V101.957C238.787 100.153 240.249 98.6918 242.052 98.6918H307.848C309.651 98.6918 311.113 100.153 311.113 101.957V119.176C311.113 120.979 309.651 122.441 307.848 122.441Z" fill="#C9E6FF"/>
<path d="M303.829 105.733H244.933C244.398 105.733 243.965 105.299 243.965 104.764V104.352C243.965 103.817 244.398 103.383 244.933 103.383H303.829C304.364 103.383 304.798 103.817 304.798 104.352V104.764C304.798 105.299 304.364 105.733 303.829 105.733Z" fill="#B5DDFF"/>
<path d="M303.829 111.741H244.933C244.398 111.741 243.965 111.308 243.965 110.772V110.36C243.965 109.825 244.398 109.391 244.933 109.391H303.829C304.364 109.391 304.798 109.825 304.798 110.36V110.772C304.798 111.308 304.364 111.741 303.829 111.741Z" fill="#B5DDFF"/>
<path d="M303.829 117.749H244.933C244.398 117.749 243.965 117.316 243.965 116.78V116.369C243.965 115.833 244.398 115.399 244.933 115.399H303.829C304.364 115.399 304.798 115.833 304.798 116.369V116.78C304.798 117.316 304.364 117.749 303.829 117.749Z" fill="#B5DDFF"/>
<path d="M307.848 180.936H242.052C240.249 180.936 238.787 179.474 238.787 177.671V160.452C238.787 158.649 240.249 157.187 242.052 157.187H307.848C309.651 157.187 311.113 158.649 311.113 160.452V177.671C311.113 179.474 309.651 180.936 307.848 180.936Z" fill="#C9E6FF"/>
<path d="M303.252 164.227H244.356C243.821 164.227 243.387 163.792 243.387 163.258V162.845C243.387 162.31 243.821 161.876 244.356 161.876H303.252C303.787 161.876 304.221 162.31 304.221 162.845V163.258C304.221 163.792 303.787 164.227 303.252 164.227Z" fill="#B5DDFF"/>
<path d="M303.252 170.235H244.356C243.821 170.235 243.387 169.801 243.387 169.266V168.854C243.387 168.319 243.821 167.884 244.356 167.884H303.252C303.787 167.884 304.221 168.319 304.221 168.854V169.266C304.221 169.801 303.787 170.235 303.252 170.235Z" fill="#B5DDFF"/>
<path d="M303.252 176.243H244.356C243.821 176.243 243.387 175.809 243.387 175.274V174.862C243.387 174.327 243.821 173.893 244.356 173.893H303.252C303.787 173.893 304.221 174.327 304.221 174.862V175.274C304.221 175.809 303.787 176.243 303.252 176.243Z" fill="#B5DDFF"/>
<path d="M324.513 151.277H258.717C256.914 151.277 255.451 149.815 255.451 148.012V130.793C255.451 128.99 256.914 127.528 258.717 127.528H324.513C326.316 127.528 327.778 128.99 327.778 130.793V148.012C327.778 149.815 326.316 151.277 324.513 151.277Z" fill="#C9E6FF"/>
<path d="M321.063 134.57H262.167C261.632 134.57 261.198 134.136 261.198 133.601V133.189C261.198 132.653 261.632 132.22 262.167 132.22H321.063C321.597 132.22 322.032 132.653 322.032 133.189V133.601C322.032 134.136 321.597 134.57 321.063 134.57Z" fill="#B5DDFF"/>
<path d="M321.063 140.578H262.167C261.632 140.578 261.198 140.144 261.198 139.609V139.197C261.198 138.661 261.632 138.228 262.167 138.228H321.063C321.597 138.228 322.032 138.661 322.032 139.197V139.609C322.032 140.144 321.597 140.578 321.063 140.578Z" fill="#B5DDFF"/>
<path d="M321.063 146.586H262.167C261.632 146.586 261.198 146.152 261.198 145.617V145.205C261.198 144.67 261.632 144.236 262.167 144.236H321.063C321.597 144.236 322.032 144.67 322.032 145.205V145.617C322.032 146.152 321.597 146.586 321.063 146.586Z" fill="#B5DDFF"/>
<path d="M143.258 126.432C143.258 126.432 137.871 129.956 136.54 127.273C135.209 124.589 140.772 119.147 143.435 121.595C146.098 124.043 143.258 126.432 143.258 126.432Z" fill="white"/>
<path d="M138.079 135.487C138.079 135.487 134.149 137.296 133.53 135.38C132.91 133.465 137.149 130.396 138.676 132.288C140.204 134.18 138.079 135.487 138.079 135.487Z" fill="white"/>
<path d="M219.961 81.5768C219.961 81.5768 215.852 46.245 180.674 67.6725C180.674 67.6725 161.836 54.8745 147.063 70.557C132.291 86.2403 139.782 102.187 145.742 106.799C145.742 106.799 140.865 135.023 168.319 128.38C168.319 128.38 176.69 141.289 189.992 131.209C189.992 131.209 211.536 138.509 215.496 118.176C215.496 118.176 232.157 116.971 234.844 101.387C237.531 85.8015 219.961 81.5768 219.961 81.5768Z" fill="#80B1E0"/>
<path d="M186.269 76.2705C187.582 77.4532 188.719 78.837 189.774 80.247C192.755 80.328 195.706 80.733 198.594 81.459C196.305 79.0305 193.915 77.4307 191.484 76.6995C189.84 76.2045 188.099 76.062 186.269 76.2705ZM183.558 75.3487C183.48 75.3022 183.403 75.2565 183.325 75.2122C182 74.4533 180.333 73.9432 178.678 73.9372C179.739 74.328 180.743 74.775 181.673 75.2737C182.134 75.5205 182.577 75.78 183.003 76.0507C183.393 75.933 183.779 75.8287 184.162 75.738C183.965 75.6022 183.763 75.4725 183.558 75.3487ZM183.965 76.7055C185.387 77.7397 186.58 78.924 187.535 80.247C187.565 80.2462 187.596 80.2455 187.626 80.2447C187.965 80.2365 188.304 80.232 188.643 80.232C187.583 78.8557 186.432 77.5327 185.107 76.4475C184.73 76.5195 184.35 76.605 183.965 76.7055ZM188.121 81.1267C188.169 81.2047 188.216 81.2827 188.262 81.3607C188.298 81.423 188.334 81.4852 188.37 81.5475C188.787 81.5122 189.198 81.5017 189.602 81.5152C189.508 81.3862 189.414 81.258 189.318 81.129C188.92 81.1222 188.52 81.1215 188.121 81.1267ZM187.878 82.512C186.545 82.698 185.151 83.1442 183.746 83.8387C183.837 83.8492 183.929 83.862 184.02 83.8762C186.194 84.2287 187.978 85.617 189.412 87.1312C189.106 85.5472 188.628 83.9775 187.878 82.512ZM187.081 81.1567C183.333 81.3352 180.818 82.341 179.405 84.2227C179.15 84.5625 178.939 84.9225 178.765 85.2975C179.703 84.5917 180.724 84.126 181.77 83.919C183.236 83.0145 184.745 82.3395 186.194 81.9427C186.604 81.831 187.01 81.7402 187.409 81.672C187.303 81.4965 187.194 81.3247 187.081 81.1567ZM193.91 93.2205C194.565 94.3312 195.173 95.5087 195.693 96.7395C195.384 95.538 194.781 94.3402 193.91 93.2205ZM176.656 74.2065C175.961 74.4067 175.295 74.7232 174.689 75.18C173.601 75.999 172.838 77.1645 172.235 78.1965C171.07 80.19 170.171 82.341 169.548 84.5655C170.829 83.2507 172.21 82.1347 173.427 81.219C176.388 78.993 179.217 77.391 181.905 76.4167C180.172 75.4057 178.345 74.7 176.656 74.2065ZM183.719 92.0977C183.57 92.0077 183.416 91.9425 183.255 91.9012C182.658 91.7475 181.938 91.9282 181.113 92.4382C181.483 92.5095 181.852 92.5897 182.217 92.6812C183.147 92.9152 184.06 93.2377 184.945 93.6405C184.584 92.8852 184.179 92.3752 183.719 92.0977ZM178.098 88.0237C178.014 89.0925 178.092 90.171 178.228 91.155C179.973 89.1502 182.697 87.9045 185.514 87.9307C186.921 87.9435 188.339 88.26 189.678 88.836C189.675 88.812 189.672 88.7887 189.669 88.7655C188.203 87.0112 186.273 85.1445 183.877 84.7567C183.286 84.6607 182.687 84.666 182.094 84.7665C181.752 84.9817 181.412 85.2105 181.072 85.4542C179.965 86.247 178.97 87.111 178.098 88.0237ZM189.787 89.8642C188.422 89.2012 186.957 88.8352 185.505 88.8217C182.805 88.797 180.204 90.0525 178.65 92.0422C178.658 92.0437 178.666 92.0445 178.674 92.046C179.067 92.103 179.466 92.16 179.865 92.2222C180.062 92.07 180.264 91.926 180.471 91.7902C181.578 91.0627 182.59 90.8092 183.477 91.038C184.523 91.3072 185.34 92.2005 185.975 93.7695C186.04 93.9307 186.103 94.0927 186.163 94.2555C187.512 95.007 188.778 95.9505 189.916 97.0582C189.964 95.6902 189.973 94.3215 189.945 92.9527C189.924 91.9567 189.881 90.918 189.787 89.8642ZM175.197 73.8217C174.331 73.6177 173.529 73.4685 172.826 73.3597C171.14 73.0995 168.722 72.9067 167.197 74.2357C165.238 75.9435 165.717 79.1962 166.176 80.9827C166.525 82.3387 167.151 84.2325 168.228 86.0467C168.238 86.0332 168.25 86.019 168.261 86.0047C168.896 83.0962 169.987 80.2762 171.465 77.7472C172.075 76.7032 172.932 75.387 174.153 74.4675C174.486 74.2162 174.836 74.0017 175.197 73.8217ZM176.277 90.2595C176.128 90.6975 176.014 91.1437 175.938 91.5937C176.428 91.6965 176.926 91.7827 177.433 91.8622C177.292 91.0005 177.181 90.0472 177.172 89.0677C176.851 89.4585 176.553 89.856 176.277 90.2595ZM178.536 92.9265C178.565 93.0705 178.594 93.2152 178.625 93.3585C178.741 93.2325 178.86 93.1102 178.982 92.991C178.836 92.97 178.692 92.949 178.547 92.928C178.543 92.928 178.539 92.9272 178.536 92.9265ZM190.772 97.9492C190.986 98.1885 191.196 98.433 191.398 98.685C192.556 100.118 193.481 101.7 194.143 103.357C194.976 102.306 195.589 101.116 195.826 99.786C194.855 96.345 193.009 93.1912 191.129 90.6322C190.995 90.543 190.86 90.4575 190.722 90.3742C190.786 91.2472 190.818 92.1045 190.836 92.934C190.871 94.6057 190.85 96.279 190.772 97.9492ZM168.954 87.1575C169.954 88.5397 171.254 89.793 172.938 90.6142C173.48 90.8782 174.038 91.0875 174.61 91.2592C174.794 90.918 174.995 90.5775 175.211 90.2392C175.301 90.099 175.392 89.9595 175.488 89.8207C175.914 88.6297 176.573 87.5047 177.413 86.5537C177.637 85.5412 178.036 84.561 178.692 83.688C180.198 81.6832 182.745 80.5702 186.461 80.301C185.426 78.984 184.194 77.9055 182.877 77.0242C180.08 77.9325 177.103 79.5697 173.964 81.9315C172.422 83.091 170.61 84.5797 169.104 86.3835C169.051 86.6407 169.001 86.8987 168.954 87.1575ZM196.737 99.738C197.312 101.846 197.571 104.062 197.337 106.321C198.412 102.721 198.234 98.4997 196.802 94.2442C195.354 89.9437 192.843 86.0482 190.288 82.4685C189.814 82.4145 189.327 82.3987 188.829 82.422C189.75 84.33 190.249 86.3752 190.521 88.3957C190.617 88.5127 190.711 88.6297 190.803 88.7445C191.119 89.1397 191.438 89.5522 191.757 89.982C192.684 90.6172 193.541 91.3867 194.289 92.2717C196.077 94.3905 196.971 96.8257 196.806 99.1297C196.791 99.3352 196.768 99.5385 196.737 99.738ZM177.75 93.5332C177.51 94.074 177.335 94.6485 177.225 95.2455C177.435 94.89 177.661 94.5502 177.903 94.2262C177.85 93.996 177.8 93.765 177.75 93.5332ZM190.7 99.2467C190.599 100.826 190.446 102.403 190.244 103.974C191.05 104.202 191.886 104.488 192.751 104.83C193.004 104.602 193.248 104.365 193.48 104.12C192.832 102.363 191.883 100.71 190.7 99.2467ZM175.839 92.4817C175.834 92.559 175.831 92.637 175.829 92.715C175.803 93.7657 175.935 94.8375 176.225 95.9265C176.331 94.803 176.632 93.7402 177.121 92.784C177.132 92.7622 177.144 92.7412 177.154 92.7202C176.715 92.6497 176.276 92.5717 175.839 92.4817ZM186.577 95.5417C187.278 98.0677 187.386 100.75 186.948 103.343C187.725 103.412 188.533 103.547 189.375 103.747C189.605 101.933 189.768 100.11 189.863 98.2837C188.884 97.2367 187.779 96.3105 186.577 95.5417ZM191.557 82.7182C193.961 86.1427 196.266 89.859 197.647 93.96C199.367 99.0682 199.343 104.148 197.581 108.264C197.285 108.955 196.928 109.627 196.518 110.268C197.08 109.8 197.568 109.267 197.956 108.717C199.316 106.792 200.032 104.251 200.147 100.949C200.26 97.6935 199.821 94.4685 198.84 91.3627C198.036 88.8172 196.086 84.3307 192.049 82.8757C191.887 82.818 191.724 82.7655 191.557 82.7182ZM194.498 104.324C194.997 105.826 195.285 107.377 195.338 108.923C195.349 109.252 195.35 109.571 195.339 109.881C195.786 109.272 196.093 108.452 196.293 107.338C196.647 105.373 196.587 103.428 196.239 101.55C195.828 102.567 195.222 103.49 194.498 104.324ZM190.124 104.866C190.024 105.571 189.915 106.272 189.795 106.972C190.536 106.534 191.277 106.038 191.975 105.486C191.34 105.247 190.723 105.04 190.124 104.866ZM178.87 94.449C179.64 97.6815 180.771 100.839 182.226 103.836C183.411 103.439 184.684 103.258 186.057 103.291C186.546 100.486 186.363 97.5645 185.437 94.8757C184.35 94.2982 183.198 93.8475 181.999 93.546C181.386 93.3915 180.753 93.2707 180.118 93.1657C179.667 93.5482 179.25 93.9787 178.87 94.449ZM177.238 98.607C178.137 100.453 179.463 102.343 181.212 104.264C181.274 104.231 181.336 104.2 181.398 104.17C180.039 101.362 178.959 98.4165 178.187 95.4007C177.757 96.0772 177.394 96.8122 177.108 97.5885C177.134 97.926 177.177 98.2665 177.238 98.607ZM179.787 103.993C180 104.257 180.222 104.513 180.452 104.761C180.453 104.76 180.455 104.759 180.456 104.758C180.226 104.503 180.003 104.248 179.787 103.993ZM183.907 106.978C184.164 107.216 184.425 107.451 184.687 107.683C185.205 106.563 185.604 105.386 185.878 104.18C184.716 104.166 183.635 104.32 182.628 104.642C183.032 105.434 183.459 106.213 183.907 106.978ZM201.192 83.1397C204.297 87.1882 206.424 92.0535 207.25 97.0695C207.792 100.364 207.956 105.135 205.653 109.154C204.159 111.762 201.747 113.78 198.678 114.992C198.176 115.191 197.663 115.363 197.143 115.51C199.757 115.222 202.193 114.262 204.091 112.708C206.397 110.82 208.173 107.907 209.523 103.801C210.673 100.301 211.122 97.269 210.894 94.533C210.617 91.2135 209.249 88.2067 207.14 86.2852C205.341 84.6457 203.021 83.745 201.2 83.1427C201.197 83.142 201.195 83.1412 201.192 83.1397ZM185.385 108.286C185.586 108.457 185.788 108.625 185.992 108.791C186.766 108.516 187.509 108.187 188.187 107.848C188.387 107.748 188.588 107.644 188.791 107.536C188.966 106.573 189.12 105.605 189.256 104.635C188.392 104.425 187.567 104.288 186.778 104.223C186.471 105.626 186.005 106.994 185.385 108.286ZM189.591 108.116C189.474 108.745 189.348 109.371 189.215 109.995C189.164 110.233 189.105 110.446 189.041 110.638C190.689 111.274 192.819 111.73 194.378 110.77C194.446 110.207 194.469 109.601 194.447 108.954C194.401 107.633 194.177 106.327 193.797 105.067C193.675 105.187 193.551 105.306 193.423 105.422C193.422 105.472 193.41 105.523 193.39 105.572C193.314 105.757 193.129 105.863 192.94 105.847C191.887 106.735 190.724 107.49 189.591 108.116ZM186.803 109.439C186.952 109.555 187.103 109.671 187.254 109.786C187.292 109.814 187.329 109.843 187.368 109.872C187.611 110 187.897 110.144 188.217 110.29C188.271 110.119 188.313 109.951 188.343 109.809C188.426 109.423 188.505 109.035 188.582 108.647C187.976 108.949 187.383 109.213 186.803 109.439ZM174.939 92.643C174.243 94.2187 173.89 95.835 173.925 97.4152C173.967 99.2227 174.484 101.121 175.503 103.187C175.341 101.455 175.515 99.7065 176.006 98.0587C175.253 96.24 174.894 94.44 174.938 92.6925C174.939 92.676 174.939 92.6595 174.939 92.643ZM185.88 110.05C185.978 110.19 186.077 110.329 186.177 110.469C186.483 110.895 186.89 111.38 187.328 111.355C187.465 111.347 187.586 111.292 187.693 111.205C187.42 111.019 187.154 110.826 186.893 110.63C186.739 110.547 186.594 110.466 186.456 110.386C186.267 110.278 186.075 110.165 185.88 110.05ZM194.994 112.25C194.757 113.1 194.4 113.842 193.925 114.472C193.716 114.75 193.485 115.006 193.234 115.239C198.075 115.066 202.646 112.608 204.879 108.711C207.052 104.919 206.889 100.366 206.37 97.2142C205.497 91.9155 203.132 86.7915 199.673 82.6717C196.661 81.807 193.572 81.3022 190.448 81.1627C190.507 81.2452 190.566 81.327 190.626 81.4095C190.679 81.483 190.732 81.5572 190.785 81.6315C191.322 81.72 191.844 81.855 192.351 82.0372C196.749 83.622 198.837 88.392 199.69 91.0942C200.701 94.2975 201.154 97.623 201.038 100.98C200.916 104.461 200.147 107.16 198.684 109.231C197.716 110.603 196.414 111.64 195.002 112.242C194.999 112.245 194.997 112.247 194.994 112.25ZM193.295 113.824C193.209 113.891 193.122 113.957 193.035 114.022C192.501 114.418 191.951 114.767 191.387 115.067C191.54 115.108 191.692 115.145 191.845 115.18C192.345 114.872 192.813 114.466 193.213 113.936C193.241 113.899 193.268 113.861 193.295 113.824ZM180.471 106.058C180.378 106.214 180.307 106.384 180.268 106.57C180.093 107.395 180.574 108.333 181.739 109.438C181.761 109.458 181.783 109.479 181.805 109.5C182.451 109.543 183.115 109.495 183.78 109.383C183.873 109.231 183.963 109.076 184.051 108.921C184.046 108.913 184.041 108.904 184.035 108.895C182.826 108.089 181.593 107.152 180.471 106.058ZM182.789 110.384C182.857 110.442 182.925 110.5 182.993 110.557C183.042 110.491 183.09 110.425 183.137 110.358C183.02 110.368 182.904 110.377 182.789 110.384ZM183.686 111.118C185.733 112.723 187.9 113.925 190.103 114.679C191.192 114.21 192.231 113.56 193.17 112.763C192.431 112.873 191.687 112.86 190.967 112.713C190.072 112.531 189.243 112.159 188.465 111.697C188.112 112.095 187.716 112.225 187.379 112.245C186.508 112.295 185.892 111.6 185.453 110.989C185.235 110.686 185.021 110.38 184.811 110.072C184.65 110.111 184.49 110.146 184.332 110.179C184.127 110.499 183.912 110.812 183.686 111.118ZM179.297 108.745C179.62 108.937 179.956 109.094 180.303 109.211C179.73 108.499 179.163 107.488 179.396 106.385C179.475 106.013 179.631 105.688 179.834 105.406C179.253 104.78 178.71 104.107 178.23 103.38C177.459 102.217 176.889 100.94 176.548 99.627C176.327 100.825 176.274 102.077 176.414 103.331C176.494 104.056 176.652 104.897 176.955 105.722C177.664 106.805 178.449 107.817 179.297 108.745ZM180.816 110.263C181.287 110.69 181.771 111.094 182.268 111.472C182.328 111.403 182.387 111.331 182.445 111.261C182.097 110.969 181.753 110.667 181.413 110.353C181.21 110.331 181.011 110.301 180.816 110.263ZM182.99 111.999C183.858 112.605 184.76 113.134 185.685 113.581C185.682 113.58 185.679 113.578 185.676 113.576C184.814 113.056 183.966 112.471 183.138 111.822C183.089 111.881 183.039 111.94 182.99 111.999ZM189.606 115.84C189.323 115.936 189.039 116.021 188.752 116.093C189.146 116.068 189.573 116.014 190.01 115.915C189.875 115.891 189.74 115.867 189.606 115.84ZM168.764 88.3687C168.284 91.9245 168.492 95.547 169.429 98.9227C171.371 105.915 176.366 111.87 182.789 114.852C183.15 115.02 183.52 115.172 183.895 115.309C184.707 115.465 185.47 115.538 186.195 115.533C186.73 115.529 187.265 115.477 187.796 115.381C185.91 114.796 184.098 113.891 182.382 112.678C182.286 112.779 182.19 112.879 182.091 112.977C181.917 113.152 181.635 113.152 181.461 112.978C181.287 112.804 181.286 112.522 181.46 112.348C181.527 112.28 181.593 112.213 181.659 112.144C181.527 112.042 181.395 111.939 181.265 111.833C180.367 111.11 179.512 110.304 178.711 109.431C178.566 109.338 178.425 109.239 178.287 109.132C177.243 108.326 176.577 107.239 176.155 106.127C175.868 105.686 175.595 105.235 175.335 104.776C173.839 102.124 173.086 99.7237 173.034 97.4347C172.994 95.6317 173.387 93.8325 174.205 92.0662C173.64 91.89 173.085 91.6777 172.547 91.4152C172.266 91.278 171.995 91.1302 171.734 90.9727C170.558 90.264 169.578 89.3602 168.764 88.3687ZM167.898 88.0132C166.975 89.439 166.296 91.026 166.074 92.7675C165.927 93.927 165.978 95.226 166.23 96.7387C167.411 103.817 172.196 110.155 178.563 113.419C173.789 110.026 170.174 104.935 168.57 99.1612C167.604 95.6827 167.364 91.8832 167.875 88.173C167.883 88.1197 167.89 88.0665 167.898 88.0132ZM176.763 113.435C170.853 109.873 166.49 103.711 165.351 96.885C165.084 95.2852 165.032 93.9022 165.19 92.6557C165.469 90.459 166.41 88.5082 167.646 86.8042C166.403 84.8092 165.696 82.6972 165.313 81.2048C164.802 79.2195 164.292 75.5857 166.611 73.5637C168.416 71.9902 171.1 72.1912 172.962 72.4785C174.235 72.6758 175.476 72.9457 176.666 73.2832C179.096 72.6825 181.785 73.3035 183.768 74.4382C184.323 74.7555 184.848 75.1117 185.348 75.4995C187.597 75.1267 189.732 75.2415 191.741 75.846C194.469 76.6665 197.13 78.4972 199.649 81.2872C199.828 81.4852 200.005 81.687 200.179 81.8902C200.614 82.0185 201.048 82.1542 201.48 82.2967C203.385 82.926 205.818 83.8732 207.741 85.626C210.048 87.729 211.482 90.8655 211.782 94.4587C212.02 97.3162 211.558 100.463 210.369 104.08C208.966 108.352 207.097 111.399 204.656 113.397C201.455 116.017 196.843 117.062 192.32 116.193C192.21 116.172 192.102 116.149 191.993 116.127C191.021 116.651 189.864 116.947 188.557 116.995C187.001 117.055 185.295 116.764 183.645 116.168C183 116.041 182.327 115.865 181.62 115.641C179.917 115.102 178.288 114.355 176.763 113.435Z" fill="#04429B"/>
<path d="M187.348 79.3297C188.833 80.2252 190.165 81.2902 191.332 82.5165C193.462 84.7567 195.006 87.6772 195.678 90.7417C196.383 93.9585 196.123 97.1302 194.926 99.9142C194.752 100.318 194.532 100.777 194.234 101.211C197.899 101.058 201.797 100.52 204.421 97.9867C208.202 94.3327 207.484 87.8512 204.439 84.09C200.526 79.2547 194.121 78.1282 190.651 77.8875C189.169 77.7847 187.348 77.778 185.846 78.5085C186.363 78.7642 186.863 79.038 187.348 79.3297ZM184.942 79.077C183.774 80.0115 182.965 81.5872 182.535 83.7637C181.447 89.2732 183.072 95.3182 186.775 99.5392C188.074 101.02 190.621 102.734 192.515 101.648C192.538 101.429 192.721 101.257 192.947 101.251C192.98 101.251 193.012 101.25 193.044 101.249C193.546 100.765 193.872 100.107 194.107 99.5617C196.345 94.359 194.938 87.6022 190.686 83.1307C189.101 81.4642 187.14 80.0962 184.942 79.077ZM170.536 100.034C170.287 100.876 170.215 101.756 170.273 102.647C170.492 101.795 170.583 100.91 170.536 100.034ZM185.113 123.732C184.303 123.244 183.503 122.71 182.716 122.134C178.591 119.114 174.898 114.973 172.038 110.157C171.088 108.559 170.391 107.036 169.947 105.604C169.772 105.876 169.583 106.138 169.381 106.389C167.944 108.162 165.402 109.583 162.961 108.761C160.828 108.043 159.616 105.889 158.8 104.092C156.959 100.047 154.369 92.2605 157.698 85.5675C159.113 82.722 161.526 80.3302 164.676 78.6525C167.572 77.1097 170.928 76.2307 174.382 76.1107C177.525 76.002 180.7 76.4947 183.565 77.535C184.003 77.694 184.431 77.8642 184.851 78.0465C186.652 76.887 188.917 76.8735 190.714 76.998C194.327 77.2492 201.006 78.4312 205.132 83.529C206.835 85.6327 207.838 88.434 207.887 91.215C207.938 94.1722 206.927 96.8047 205.039 98.628C201.981 101.582 197.462 102.017 193.387 102.132C193.348 102.163 193.307 102.193 193.266 102.223C192.209 102.984 190.879 103.088 189.418 102.526C188.257 102.077 187.048 101.203 186.105 100.127C184.191 97.9455 182.768 95.2627 181.99 92.3677C181.212 89.4727 181.098 86.4382 181.66 83.5912C182.09 81.4147 182.888 79.7677 184.037 78.6832C181.1 77.4832 177.792 76.8847 174.412 77.0017C167.329 77.247 161.081 80.7652 158.496 85.9642C155.332 92.3272 157.837 99.822 159.611 103.723C160.354 105.355 161.437 107.308 163.245 107.916C165.27 108.598 167.485 107.311 168.688 105.828C169.051 105.38 169.363 104.893 169.623 104.377C169.114 102.008 169.357 99.9232 170.362 98.205C170.455 98.0482 170.632 97.9627 170.811 97.989C170.991 98.0152 171.136 98.1472 171.18 98.3235C171.682 100.36 171.44 102.574 170.561 104.482C171.013 106.353 171.901 108.181 172.804 109.702C178.907 119.975 188.109 126.322 197.419 126.68C197.665 126.69 197.857 126.897 197.848 127.143C197.839 127.389 197.632 127.581 197.386 127.571C194.792 127.471 192.19 126.929 189.652 125.959C188.116 125.372 186.597 124.627 185.113 123.732Z" fill="#04429B"/>
<path d="M309.865 250.548H307.854C307.854 250.548 304.299 241.954 301.968 240.153L303.987 238.38L306.255 241.117L309.156 246.512L309.865 250.548Z" fill="#78ACEA"/>
<path d="M307.071 237.127L311.787 249.369L309.865 250.548C309.865 250.548 306.436 242.476 304.307 238.765L307.071 237.127Z" fill="#78ACEA"/>
<path d="M219.752 261.726L221.996 260.502C221.996 260.502 224.231 250.276 225.954 246.829C226.725 245.379 228.444 244.945 230.079 244.799L230.715 242.704L224.956 241.797C224.956 241.797 222.396 247.624 221.283 250.819C219.752 255.218 219.752 261.726 219.752 261.726Z" fill="#5A9AE6"/>
<path d="M219.752 243.064L217.44 261.346L219.752 261.726C219.752 261.726 222.531 249.898 222.939 248.817C223.347 247.736 224.504 244.464 228.108 244.468V243.064L219.787 241.409L219.752 243.064Z" fill="#78ACEA"/>
<path d="M269.541 251.431C269.541 251.431 272.456 252.049 273.064 257.53C273.687 263.141 274.005 270.655 274.005 270.655L276.703 271.099L277.825 265.386L281.804 251.001L269.541 251.431Z" fill="#78ACEA"/>
<path d="M307.854 230.974L307.071 237.127L281.253 252.436C280.444 252.915 279.494 253.096 278.565 252.947L219.752 243.064L219.852 238.376L307.854 230.974Z" fill="#78ACEA"/>
<path d="M254.352 182.382C254.352 182.382 231.33 188.335 223.984 191.013C216.639 193.691 212.813 195.528 212.966 203.485C213.119 211.443 213.272 235.545 219.853 238.376C226.433 241.207 259.028 225.521 259.028 225.521L254.352 182.382Z" fill="#91B5EB"/>
<path d="M222.972 238.677C224.754 230.27 226.652 205.63 224.061 198.129C222.607 193.921 215.935 195.019 215.934 195.019C213.898 196.829 212.886 199.318 212.966 203.485C213.119 211.443 213.272 235.545 219.852 238.376C220.591 238.694 221.659 238.777 222.972 238.677Z" fill="#A4C9FF"/>
<path d="M256.81 203.485C256.81 203.485 229.263 210.831 224.367 213.049C219.47 215.269 218.475 219.553 218.475 222.844C218.475 226.134 220.464 229.117 222.531 229.96C224.596 230.801 268.669 238.223 272.648 238.376C276.627 238.529 283.054 233.632 283.896 231.413C284.737 229.194 304.442 210.253 304.442 210.253L256.81 203.485Z" fill="#B3D0FA"/>
<path d="M289.254 225.294C278.85 226.521 232.095 219.171 227.657 217.793C223.219 216.416 222.214 214.33 222.214 214.33C219.164 216.682 218.475 220.107 218.475 222.844C218.475 226.134 220.464 229.117 222.531 229.96C224.596 230.801 268.669 238.223 272.648 238.376C276.627 238.529 283.054 233.632 283.896 231.413C284.166 230.701 286.376 228.27 289.254 225.294Z" fill="#D2E3FC"/>
<path d="M255.967 204.862C255.967 204.862 252.295 203.715 252.295 199.813C252.295 195.911 255.126 176.17 255.967 172.88C256.81 169.589 260.253 166.681 264.538 166.299C268.822 165.917 302.871 166.529 309.222 172.037C315.573 177.547 306.529 206.179 305.461 208.608C304.308 211.233 297.054 210.799 288.435 209.785C274.193 208.11 255.967 204.862 255.967 204.862Z" fill="#BAD6FF"/>
<path d="M309.222 172.037C302.871 166.528 268.822 165.916 264.537 166.299C263.517 166.39 262.545 166.626 261.644 166.974C261.908 166.99 289.536 168.63 298.663 171.425C310.903 175.174 297.009 211.606 297.004 211.618C301.337 211.633 304.446 211.016 305.166 209.377C306.234 206.948 315.573 177.547 309.222 172.037Z" fill="#A0C4F9"/>
<path d="M222.531 229.96C222.531 229.96 219.852 230.266 219.164 233.173C218.475 236.08 219.087 238.988 220.847 239.6C222.607 240.212 273.552 248.819 274.47 248.785C275.388 248.75 275.775 238.522 275.818 237.722C275.862 236.922 222.531 229.96 222.531 229.96Z" fill="#BED7FD"/>
<path d="M276.009 172.06C276.009 172.06 272.993 170.875 271.717 170.513C270.441 170.15 268.976 171.659 269.508 173.549C270.039 175.437 269.253 179.126 267.775 181.869C266.297 184.613 265.17 188.547 264.125 191.65C263.079 194.752 260.376 197.949 260.609 199.052C260.842 200.154 266.016 198.926 267.658 199.244C269.299 199.564 279.135 200.506 282.175 201.301C285.214 202.098 291.532 201.658 293.714 202.736C295.896 203.813 296.747 201.452 296.93 199.53C297.114 197.608 300.518 185.083 300.848 182.475C301.178 179.868 302.019 178.288 302.33 176.578C302.641 174.866 302.187 172.762 301.012 172.388C299.838 172.013 293.247 173.615 291.411 173.73C289.575 173.844 288.037 174.951 287.153 174.748C286.268 174.544 283.437 174.057 281.541 173.665C279.645 173.273 278.429 171.671 276.009 172.06Z" fill="white"/>
<path d="M302.33 176.578C302.641 174.866 302.187 172.762 301.012 172.388C300.957 172.37 300.89 172.357 300.811 172.348C300.029 172.729 299.04 173.346 298.374 174.241C297.117 175.931 293.667 186.716 292.927 193.481C292.476 197.195 294.021 198.385 293.688 199.914C293.526 200.662 293.292 201.628 293.244 202.546C293.416 202.603 293.574 202.666 293.714 202.736C295.896 203.813 296.747 201.452 296.93 199.53C297.114 197.608 300.518 185.083 300.848 182.475C301.178 179.868 302.019 178.288 302.33 176.578Z" fill="#EFE8E6"/>
<path d="M283.62 204.987C283.62 204.987 282.044 195.982 266.696 198.66C254.999 200.701 232.754 205.723 228.639 210.399C227.634 211.56 226.319 216.14 232.953 217.419C239.587 218.698 248.25 218.221 254.238 218.122C260.224 218.024 286.511 217.787 283.62 204.987Z" fill="#9E5959"/>
<path d="M284.669 207.046C284.669 207.046 285.256 216.641 262.209 218.716C239.162 220.789 228.255 219.733 227.445 211.908C227.413 209.499 226.174 206.728 240.889 203.068C255.604 199.408 264.961 196.478 272.295 196.33C279.628 196.183 284.65 201.658 284.669 207.046Z" fill="#163560"/>
<path d="M235.259 212.249C239.964 209.788 259.137 204.508 259.302 203.633C259.466 202.758 258.81 199.804 258.81 199.804C260.232 200.788 261.326 204.673 262.475 203.962C263.623 203.251 271.884 202.211 271.884 202.211C271.884 202.211 281.047 204.133 282.161 212.024C279.457 214.703 273.846 217.668 262.209 218.716C247.563 220.033 239.289 219.545 233.259 217.666C233.064 215.243 233.501 213.169 235.259 212.249Z" fill="#163560"/>
<path d="M233.649 209.876C230.727 210.177 228.562 212.729 228.677 215.662C228.849 220.039 229.365 225.187 231.26 239.044C233.881 258.205 233.817 258.883 236.537 258.776C238.785 258.688 238.927 255.882 239.68 248.512C240.142 243.982 241.353 231.1 240.91 224.47C240.468 217.839 239.62 210.162 235.083 209.854C234.572 209.82 234.095 209.83 233.649 209.876Z" fill="#9E5959"/>
<path d="M242.07 262.078L241.89 267.311C241.89 267.311 240.339 267.899 237.948 267.7L237.675 263.543L242.07 262.078Z" fill="#C2D8F2"/>
<path d="M237.949 267.7L236.734 266.967L236.416 263.814L237.675 263.543L237.949 267.7Z" fill="#8FB1DB"/>
<path d="M222.039 265.813C222.039 265.813 221.995 266.795 222.057 267.19C222.12 267.585 228.431 268.084 232.098 267.361C233.196 267.064 236.034 264.231 238.091 263.491C240.147 262.75 241.816 262.573 242.145 262.258C242.474 261.943 242.589 260.015 241.788 259.819L222.039 265.813Z" fill="#ADCAED"/>
<path d="M242.344 261.751C241.927 261.811 240.864 261.976 240.291 262.166C239.566 262.406 239.078 263.165 239.078 263.165C240.662 262.691 241.871 262.52 242.145 262.258C242.229 262.177 242.3 261.988 242.344 261.751Z" fill="#8FB1DB"/>
<path d="M236.076 248.032C236.076 248.032 233.066 248.234 233.22 251.705C233.374 255.196 232.895 257.402 230.918 259.36C228.941 261.319 224.547 262.543 223.39 263.053C222.233 263.564 221.349 264.688 222.04 265.813C222.73 266.937 230.26 266.319 231.954 265.82C233.153 265.468 235.524 263.04 237.219 262.47C238.914 261.9 241.211 261.629 241.705 260.353C242.199 259.077 241.209 256.945 240.388 255.245C239.567 253.546 239.569 250.934 239.45 249.895C239.33 248.854 238.302 247.742 236.076 248.032Z" fill="#9E5959"/>
<path d="M235.902 263.343C235.902 263.343 236.302 260.762 237.077 259.44C237.97 257.918 239.778 255.507 240.12 254.576C240.12 254.576 240.793 255.634 240.928 256.396C240.928 256.396 239.203 258.589 238.587 259.702C237.972 260.815 237.739 261.641 237.716 262.633C237.716 262.633 236.442 263.221 235.902 263.343Z" fill="#ADCAED"/>
<path d="M226.434 261.79C226.434 261.79 225.903 265.077 225.894 266.686C225.894 266.686 227.286 266.851 227.907 266.704C227.907 266.704 228.37 261.682 228.465 261.014C228.465 261.014 227.251 261.396 226.434 261.79Z" fill="#ADCAED"/>
<path d="M228.127 264.358C228.261 262.951 228.415 261.369 228.466 261.014C228.466 261.014 227.251 261.396 226.434 261.79C226.434 261.79 226.359 262.255 226.265 262.921C226.724 263.221 227.578 263.809 228.127 264.358Z" fill="#8FB1DB"/>
<path d="M225.74 262.184C225.74 262.184 228.88 264.017 230.223 266.407C230.223 266.407 231.837 266.256 232.465 265.787C232.465 265.787 229.957 262.747 227.628 261.301C227.628 261.301 226.424 261.61 225.74 262.184Z" fill="#ADCAED"/>
<path opacity="0.9" d="M227.445 211.492C227.445 211.492 227.878 231.44 232.554 249.448C232.554 249.448 235.258 250.261 239.802 249.738C239.802 249.738 241.929 236.98 242.047 227.103C242.164 217.225 239.188 211.495 238.445 208.945C237.216 204.725 228.687 204.729 227.445 211.492Z" fill="#163560"/>
<path d="M233.524 229.439C233.253 225.76 230.443 215.144 234.839 212.166C235.995 211.383 237.434 210.937 239.046 210.675C240.173 213.856 242.13 220.135 242.046 227.103C241.929 236.98 239.802 249.739 239.802 249.739C238.308 249.91 237.015 249.937 235.949 249.897C235.303 244.531 233.739 232.348 233.524 229.439Z" fill="#163560"/>
<path d="M263.48 181.103C261.847 182.767 262.089 184.946 261.911 187.27C261.733 189.587 259.137 195.378 259.083 197.69C259.007 200.858 260.178 202.921 263.65 208.502C267.123 214.084 270.144 219.667 279.957 217.555C289.772 215.443 287.784 204.851 287.121 201.624C286.494 198.566 286.305 196.396 282.833 192.096C282.198 191.41 281.897 188.709 281.892 187.157C281.883 184.564 281.451 182.363 279.423 180.743C277.71 179.374 275.134 178.26 271.283 178.26C266.922 178.26 265.185 179.365 263.48 181.103Z" fill="#9E5959"/>
<path d="M281.886 188.554C282.078 188.536 282.252 188.671 282.28 188.862C282.397 189.625 282.783 191.505 283.872 192.769C285.268 194.388 286.98 197.215 287.784 203.446C288.588 209.677 287.241 214.678 283.391 216.601C279.541 218.525 273.409 219.391 269.762 216.601C266.115 213.813 263.228 208.226 262.266 206.716C261.303 205.206 258.656 201.847 258.656 197.757C258.656 196.493 260.1 192.897 260.629 191.07C260.994 189.813 261.267 188.851 261.402 188.374C261.449 188.206 261.632 188.119 261.793 188.184C262.893 188.631 267.444 189.892 281.886 188.554Z" fill="#163560"/>
<path d="M258.883 199.858C260.27 200.922 261.346 204.661 262.475 203.962C263.623 203.251 271.884 202.211 271.884 202.211C271.884 202.211 284.928 204.948 281.781 217.293C277.986 218.688 272.934 219.027 269.762 216.602C266.115 213.813 263.228 208.226 262.266 206.717C261.474 205.475 259.544 202.98 258.883 199.858Z" fill="#163560"/>
<path d="M261.057 189.582C261.21 189.052 261.327 188.638 261.402 188.374C261.449 188.206 261.632 188.119 261.793 188.184C262.894 188.631 267.445 189.892 281.886 188.554C282.079 188.536 282.252 188.671 282.28 188.862C282.315 189.084 282.371 189.4 282.461 189.768C279.98 190.204 271.497 191.396 261.057 189.582Z" fill="#49374A"/>
<path d="M283.753 215.921C287.511 212.539 287.738 207.469 283.887 204.192C281.784 202.402 279.03 201.328 274.226 202.292C264.572 204.23 259.106 206.419 251.435 208.928C243.695 211.459 244.919 210.806 241.32 212.976C237.72 215.146 236.444 218.377 237.36 220.323C238.276 222.268 237.951 225.37 243.928 224.77C249.906 224.171 259.772 223.385 265.722 222.274C269.751 221.521 278.939 220.255 283.753 215.921Z" fill="#9E5959"/>
<path d="M287.649 208.962C287.649 208.962 290.166 219.566 264.236 223.019C239.505 226.312 237.899 225.887 235.51 219.811C232.686 212.628 241.255 210.985 246.193 209.717C251.132 208.45 266.55 203.386 272.82 201.646C279.09 199.906 286.277 201.418 287.649 208.962Z" fill="#163560"/>
<path d="M264.236 223.019C255.3 224.209 249.383 224.914 245.357 225.041C245.994 221.177 248.826 217.419 248.826 217.419C248.826 217.419 250.385 219.019 251.903 222.384C252.472 223.645 260.22 223.281 265.813 222.795C265.299 222.872 264.774 222.948 264.236 223.019Z" fill="#163560"/>
<path d="M235.528 217.972C235.528 217.972 238.858 230.059 240.715 235.951C242.572 241.843 246.262 252.28 247.011 255.744C247.759 259.208 249.604 258.175 250.345 257.781C251.085 257.386 251.58 256.063 251.648 252.789C251.716 249.514 252.092 247.227 251.991 241.897C251.891 236.566 250.472 222.161 247.102 216.608C243.321 210.375 234.547 211.965 235.528 217.972Z" fill="#9E5959"/>
<path d="M241.276 212.167C241.276 212.167 247.677 212.332 249.564 218.978C251.451 225.625 252.436 236.539 252.272 248.355C252.272 248.355 247.841 249.832 244.969 249.668C244.969 249.668 236.681 226.528 235.204 218.896C234.958 215.86 235.368 212.086 241.276 212.167Z" fill="#163560"/>
<path d="M255.309 262.166L254.977 268.708C254.977 268.708 254.538 268.877 253.386 268.939C252.234 269 251.523 268.893 251.523 268.893L251.289 264.431L255.309 262.166Z" fill="#C2D8F2"/>
<path d="M251.524 268.893L250.078 268.175L249.942 265.205L251.289 264.431L251.524 268.893Z" fill="#8FB1DB"/>
<path d="M236.34 266.25L236.254 267.298C236.233 267.538 236.383 267.759 236.614 267.829C237.801 268.189 241.501 269.153 245.37 268.499C246.638 268.221 249.586 265.507 251.272 264.781C252.559 264.229 254.291 263.404 255.042 263.042C255.278 262.93 255.405 262.695 255.447 262.437C255.526 261.96 255.58 261.167 255.37 260.5L236.34 266.25Z" fill="#ADCAED"/>
<path d="M248.744 249.545C248.744 249.545 245.898 249.034 246.132 253.038C246.366 257.042 245.955 258.802 244.035 260.737C242.115 262.671 239.331 263.407 237.748 264.074C236.656 264.535 236.07 265.498 236.34 266.25C236.61 267.003 240.629 267.796 243.553 267.371C246.478 266.946 248.453 265.148 249.829 264.165C251.205 263.182 254.899 261.89 255.332 260.664C255.766 259.437 254.45 257.271 253.414 256.24C252.53 255.359 251.724 254.093 251.755 252.103C251.787 250.114 250.953 249.327 248.744 249.545Z" fill="#9E5959"/>
<path d="M248.82 265.129C248.82 265.129 248.857 263.463 249.21 261.599C249.52 259.965 250.483 256.725 252.51 255.097C252.51 255.097 252.988 255.466 253.414 256.24C253.414 256.24 251.902 257.66 251.116 259.937C250.33 262.214 250.538 264.223 250.538 264.223C250.538 264.223 250.005 265.25 248.82 265.129Z" fill="#ADCAED"/>
<path d="M242.161 262.166C242.161 262.166 241.789 264.604 241.791 267.592C241.791 267.592 240.252 267.84 239.297 267.339C239.297 267.339 239.296 264.325 239.603 263.329C239.603 263.329 241.334 262.334 242.161 262.166Z" fill="#ADCAED"/>
<path d="M239.603 263.329C239.561 263.467 239.524 263.642 239.493 263.843C239.895 263.992 241.212 264.508 241.868 265.143C241.976 263.379 242.161 262.166 242.161 262.166C241.334 262.334 239.603 263.329 239.603 263.329Z" fill="#8FB1DB"/>
<path d="M239.268 263.491C239.268 263.491 242.085 264.031 244.155 267.313C244.155 267.313 245.655 267.261 246.262 266.539C246.262 266.539 244.974 263.967 241.699 262.304C241.699 262.304 240.293 262.528 239.268 263.491Z" fill="#ADCAED"/>
<path d="M256.459 160.066C256.595 158 257.524 155.999 259.625 155.375C262.323 154.574 265.159 156.111 265.96 158.809C266.126 159.369 266.191 159.936 266.166 160.489C266.16 160.619 266.15 160.749 266.134 160.877C265.923 163.354 265.038 173.019 263.387 181.564C263.278 183.019 262.29 184.324 260.809 184.763C258.895 185.332 256.882 184.241 256.314 182.326C256.092 181.578 255.946 164.462 256.459 160.066Z" fill="#9E5959"/>
<path d="M265.698 168.266C265.534 170.689 263.885 179.428 263.564 181.214C263.246 182.965 262.669 183.919 261.791 184.651C260.056 186.217 256.285 184.631 255.893 183.19C255.496 181.546 255.978 175.871 255.944 172.859C255.923 171.171 255.922 169.128 255.95 167.373C256.088 163.972 255.783 159.732 257.118 157.187C257.646 156.183 258.475 155.47 259.617 155.135C260.562 154.883 263.519 154.411 265.406 157.009C267.363 160.017 265.773 166.042 265.698 168.266Z" fill="#ADCAED"/>
<path d="M265.698 168.266C265.535 170.688 263.885 179.429 263.564 181.214C263.246 182.965 262.669 183.919 261.791 184.651C260.056 186.217 256.285 184.631 255.893 183.19C255.792 177.946 255.99 172.473 255.95 167.373C256.279 168.032 256.62 168.554 256.793 168.361C257.201 167.913 258.805 163.482 259.146 162.599C259.484 161.716 259.962 158.927 259.962 158.927C259.962 158.927 262.986 157.837 265.728 157.553C267.133 160.639 265.8 166.18 265.698 168.266Z" fill="#8FB1DB"/>
<path d="M245.228 175.574C244.427 174.796 243.288 170.428 248.989 168.829L251.407 170.804L248.598 176.052L246.351 176.182L245.228 175.574Z" fill="#534054"/>
<path d="M248.82 171.616C250.057 171.78 258.709 177.321 259.756 177.997C260.803 178.672 261.58 181.17 260.595 182.95C259.61 184.73 257.067 184.84 255.286 183.18C252.591 180.534 247.77 175.636 247.198 174.708C246.627 173.779 246.982 172.965 247.13 172.701C247.278 172.436 247.583 171.451 248.82 171.616Z" fill="#9E5959"/>
<path d="M238.375 175.249C238.375 175.249 238.032 177.099 237.618 177.248C237.203 177.397 237.01 176.966 236.887 176.359C236.764 175.751 236.819 172.783 236.936 172.315C237.052 171.847 239.416 170.575 239.416 170.575C239.416 170.575 239.823 169.798 240.149 169.315C240.475 168.831 242.16 168.918 242.16 168.918L238.375 175.249Z" fill="#914D4D"/>
<path d="M251.588 172.936C251.372 172.853 250.614 172.251 249.948 171.755C246.429 170.29 243.736 168.117 241.951 168.788C241.434 168.981 238.217 171.022 237.973 171.36C237.729 171.697 237.027 173.305 236.873 173.647C236.718 173.989 236.094 175.092 235.932 175.396C235.77 175.699 235.545 176.468 236.144 176.46C236.742 176.452 237.77 175.136 237.77 175.136C237.793 175.141 237.817 175.144 237.841 175.147C237.886 172.96 240.051 170.845 242.365 170.887C242.502 170.98 242.583 171.155 242.643 171.363C243.248 171.51 243.739 172.178 243.735 172.694C245.125 172.924 249.055 176.406 249.065 176.406C249.717 176.695 251.144 176.675 251.782 175.773C252.42 174.872 252.576 173.32 251.588 172.936Z" fill="#9E5959"/>
<path d="M237.385 175.583C238.404 176.182 240.032 173.194 240.165 173.101C240.302 173.008 241.322 171.597 242.143 171.367C242.314 171.32 242.482 171.323 242.643 171.363C242.584 171.155 242.486 170.671 242.349 170.579C240.034 170.536 237.43 173.396 237.385 175.583Z" fill="#9E5959"/>
<path d="M237.721 174.062C237.945 173.52 238.163 172.975 238.392 172.432C238.66 171.534 239.405 170.952 240.132 170.429C240.378 170.268 240.63 170.049 240.894 169.948C240.513 170.389 240.044 170.781 239.63 171.192C238.687 171.93 238.382 173.096 237.856 174.122C237.701 174.411 237.567 174.684 237.537 174.943C237.507 175.201 237.48 174.563 237.721 174.062Z" fill="#723333"/>
<path d="M219.537 203.283C219.396 203.283 219.255 203.278 219.115 203.269C216.09 203.075 211.977 200.797 209.556 191.05C207.086 181.107 209.397 168.796 211.435 157.935C213.252 148.258 214.821 139.899 212.586 135.644C207.913 126.747 197.083 127.528 196.975 127.537L196.905 126.692C197.019 126.683 208.399 125.849 213.337 135.25C215.709 139.766 214.115 148.258 212.269 158.092C210.246 168.868 207.953 181.082 210.379 190.846C212.171 198.063 215.293 202.174 219.17 202.423C223.431 202.699 228.205 198.275 230.781 191.67C231.67 189.393 232.372 186.824 233.052 184.341C234.714 178.271 236.288 172.542 240.275 172.895C242.7 173.111 243.625 174.619 244.519 176.079C245.667 177.952 246.751 179.722 251.063 179.24L251.157 180.082C246.313 180.625 244.975 178.445 243.796 176.521C242.94 175.124 242.199 173.918 240.2 173.74C236.918 173.447 235.436 178.847 233.87 184.564C233.184 187.069 232.475 189.659 231.57 191.978C228.944 198.713 224.049 203.283 219.537 203.283Z" fill="#04429B"/>
<path d="M243.487 171.061C243.402 170.682 242.899 171.1 242.9 171.111C242.973 172.348 241.08 172.815 240.237 173.317C239.121 173.983 239.002 174.706 239.37 174.934C239.737 175.162 241.11 174.508 242.289 174.118C243.936 173.644 243.543 175.442 246.577 173.944C246.575 173.884 247.814 174.38 247.806 174.322C247.86 172.717 244.893 171.144 243.487 171.061Z" fill="#9E5959"/>
<path d="M261.48 184.731C259.844 186.303 258.009 185.704 256.11 184.731C255.916 184.631 255.65 184.458 255.326 184.224C252.489 182.19 245.328 175.686 245.23 175.576C246.995 176.173 252.198 174.115 248.991 168.831C249.077 168.89 251.91 170.783 254.799 173.03C257.709 175.291 261.684 178.915 262.182 180.024C262.678 181.135 263.118 183.157 261.48 184.731Z" fill="#ADCAED"/>
<path d="M261.48 184.731C259.844 186.303 258.009 185.704 256.11 184.731C255.916 184.631 255.65 184.458 255.326 184.224C256.501 182.295 257.365 178.788 254.799 173.03C257.709 175.291 261.684 178.915 262.182 180.024C262.678 181.135 263.118 183.157 261.48 184.731Z" fill="#8FB1DB"/>
<path d="M285.228 157.174C284.505 155.945 283.162 154.394 279.321 153.592C274.614 152.608 269.696 152.338 269.696 152.338C261.621 153.304 257.952 156.158 257.952 156.158C258.285 157.917 259.983 159.603 259.583 163.114C259.183 166.627 257.534 172.678 257.896 174.952C258.258 177.226 260.567 178.79 260.567 178.79C260.567 178.79 261.185 185.641 261.418 189.19C261.418 189.19 263.657 194.625 272.85 192.822C282.043 191.018 281.895 188.725 281.895 188.725C281.893 184.417 282.148 177.844 282.252 176.003C282.468 172.192 283.497 169.056 284.642 165.481C285.787 161.907 285.951 158.404 285.228 157.174Z" fill="#9E5959"/>
<path d="M264.82 153.259L265.343 144.138C265.406 142.331 266.643 140.705 268.484 140.231C270.724 139.653 273.008 141.001 273.585 143.241C273.664 143.546 273.707 143.852 273.717 144.153L274.507 153.947C274.514 154.015 274.531 154.325 274.531 154.325C274.667 156.63 273.154 158.619 270.834 159.217C268.199 159.896 265.599 158.437 264.92 155.801C264.708 154.98 264.762 154.133 264.82 153.259Z" fill="#9E5959"/>
<path d="M265.343 144.138C265.406 142.33 266.643 140.704 268.484 140.23C270.724 139.653 273.008 141.001 273.585 143.241C273.664 143.545 273.707 143.851 273.717 144.153L273.758 144.661C271.883 148.866 269.017 153.5 264.849 152.746L265.343 144.138Z" fill="#914D4D"/>
<path d="M274.527 152.8C274.527 152.8 274.152 154.486 269.258 155.992C267.089 156.659 264.681 155.38 264.82 153.239C264.82 153.239 262.734 153.462 261.093 154.268C259.453 155.074 258.063 155.936 257.813 156.158C257.562 156.381 259.398 159.912 259.481 161.691C259.564 163.47 258.424 168.864 257.868 171.643C257.313 174.424 257.479 177.037 260.343 178.844C260.343 178.844 260.732 185.099 260.815 186.712C260.898 188.324 260.732 189.631 261.066 190.27C261.399 190.909 264.652 194.051 271.018 193.328C277.385 192.606 282.278 190.326 283.278 188.741C283.612 188.046 282.972 185.572 282.583 183.904C282.195 182.236 282.472 175.174 282.723 173.368C282.972 171.56 285.531 164.388 285.753 161.08C285.975 157.771 285.141 155.269 285.141 155.269C285.141 155.269 280.254 152.966 274.527 152.8Z" fill="white"/>
<path d="M260.343 178.844C261.096 179.494 262.269 179.531 263.165 179.161C262.272 178.772 261.303 178.767 260.343 178.844Z" fill="#EFE8E6"/>
<path d="M266.017 179.022C269.197 180.577 273.493 180.893 276.384 178.57C273.153 180.162 269.424 179.815 266.017 179.022Z" fill="#EFE8E6"/>
<path d="M264.82 153.239C264.82 153.239 263.364 155.381 262.734 157.679C262.104 159.977 262.729 166.289 261.621 169.429C259.36 175.842 260.343 178.844 260.343 178.844C260.343 178.844 260.917 189.112 260.917 191.114C260.917 193.115 258.897 203.471 251.045 199.923C251.185 198.409 256.635 197.057 257.615 192.338C258.607 187.556 259.138 179.215 259.138 179.215C259.138 179.215 257.211 176.88 257.211 174.507C257.211 172.135 258.915 164.425 259.101 163.016C259.281 161.648 257.757 157.721 257.761 156.307C257.762 156.233 257.791 156.163 257.846 156.114C258.366 155.648 261.321 153.155 264.82 153.239Z" fill="#ADCAED"/>
<path d="M274.527 152.8C274.527 152.8 275.151 156.381 274.002 159.902C273.222 162.292 271.89 167.835 271.797 172.561C271.716 176.693 272.964 180.067 273.632 182.903C274.299 185.739 275.133 190.243 275.244 195.302C275.355 200.362 275.745 211.51 275.967 212.9C276.356 213.512 287.643 213.262 290.034 212.928C290.034 212.928 290.424 209.147 289.533 202.086C289.002 197.864 284.529 187.296 284.085 183.959C283.64 180.623 283.251 173.896 283.751 171.505C284.242 169.159 286.962 161.269 285.177 155.511C285.095 155.245 284.922 155.016 284.688 154.865C282.953 153.748 277.373 152.587 274.527 152.8Z" fill="#ADCAED"/>
<path d="M283.794 190.919C285.582 190.416 286.922 194.628 288.245 197.061C286.984 193.03 285.386 189.108 284.298 185.032C283.658 181.09 283.103 175.379 283.867 171.003C285.024 166.713 286.646 160.366 285.216 155.651C282.297 156.855 277.901 160.757 277.901 160.757C277.901 160.757 280.164 176.356 279.187 177.472C278.302 178.484 275.277 178.525 272.607 178.954C272.955 180.379 273.346 181.691 273.632 182.903C274.371 186.064 274.872 189.289 275.112 192.532C277.619 192.13 282.207 191.365 283.794 190.919Z" fill="#8FB1DB"/>
<path d="M282.781 154.282C285.054 154.82 286.156 156.496 286.569 158.863L290.104 183.019C290.193 183.499 290.187 184.005 290.067 184.511C289.608 186.455 287.659 187.657 285.716 187.198C284.079 186.811 282.967 185.366 282.933 183.759C282.933 183.759 279.397 167.056 278.464 160.47C278.421 160.242 278.298 158.746 278.36 158.256C278.706 155.488 280.043 153.634 282.781 154.282Z" fill="#9E5959"/>
<path d="M285.141 155.269C285.141 155.269 286.202 155.769 286.888 158.469C287.575 161.169 288.79 169.143 289.553 173.405C290.315 177.668 290.961 184.286 290.267 185.927C289.573 187.567 287.342 188.759 284.417 187.289C281.492 185.817 280.813 175.455 280.02 171.941C279.226 168.428 277.374 161.528 277.872 157.774C278.371 154.019 282.007 152.927 285.141 155.269Z" fill="#ADCAED"/>
<path d="M285.535 179.37L281.468 180.624C281.292 179.758 281.137 178.869 280.995 177.997C283.98 178.226 285.535 179.37 285.535 179.37Z" fill="#99B9E0"/>
<path d="M264.342 190.116C264.342 190.116 262.338 187.555 263.126 182.489L266.247 182.545L267.286 188.407L264.342 190.116Z" fill="#534054"/>
<path d="M274.291 182.081C279.987 180.841 282.316 180.613 284.656 180.487C284.967 180.435 285.277 180.424 285.58 180.451C286.981 180.579 288.237 181.522 288.695 182.945C289.307 184.846 288.262 186.883 286.362 187.495C285.988 187.615 285.609 187.67 285.237 187.669C285.237 187.669 263.97 188.59 263.97 188.59C263.895 188.596 263.82 188.599 263.746 188.596C262.917 188.569 262.16 188.032 261.892 187.201C261.552 186.142 262.258 184.727 263.316 184.387C263.507 184.325 269.382 183.148 274.291 182.081Z" fill="#9E5959"/>
<path d="M260.933 184.001C260.933 184.001 259.691 183.314 259.057 182.841C258.423 182.367 258.075 182.191 257.571 182.426C257.065 182.661 255.745 183.907 255.5 184.195C255.255 184.483 255.756 184.738 256.222 184.593C256.689 184.447 256.992 183.997 257.47 183.959C257.948 183.921 258.393 185.206 259.35 185.419C260.307 185.632 260.933 184.001 260.933 184.001Z" fill="#9E5959"/>
<path d="M251.11 180.112C250.821 180.112 250.53 180.133 250.239 180.176C248.244 180.469 246.508 181.743 245.352 183.762C244.174 185.816 243.738 188.387 244.122 191.002C244.855 195.983 248.388 199.67 252.225 199.671C252.515 199.671 252.805 199.65 253.097 199.607C257.257 198.995 260.001 194.139 259.213 188.782C258.48 183.8 254.948 180.112 251.11 180.112ZM252.216 200.563C250.284 200.563 248.382 199.754 246.771 198.227C244.908 196.462 243.654 193.942 243.24 191.131C242.827 188.32 243.302 185.545 244.578 183.319C245.874 181.057 247.838 179.629 250.11 179.294C252.381 178.96 254.673 179.764 256.566 181.556C258.428 183.321 259.682 185.841 260.095 188.652C260.508 191.464 260.034 194.238 258.758 196.464C257.463 198.725 255.498 200.155 253.227 200.489C252.89 200.539 252.552 200.563 252.216 200.563Z" fill="#04429B"/>
<path d="M251.129 182.305C250.939 182.305 250.749 182.318 250.558 182.346C249.15 182.554 247.928 183.516 247.119 185.057C246.286 186.644 245.992 188.642 246.292 190.682C246.593 192.723 247.449 194.552 248.704 195.832C249.922 197.075 251.369 197.645 252.777 197.437C255.741 197.001 257.655 193.262 257.043 189.101C256.471 185.208 253.887 182.305 251.129 182.305ZM252.202 198.371C250.739 198.371 249.294 197.707 248.067 196.456C246.681 195.042 245.738 193.038 245.411 190.812C245.083 188.586 245.409 186.395 246.33 184.643C247.275 182.843 248.73 181.715 250.428 181.465C252.127 181.215 253.846 181.877 255.269 183.328C256.654 184.742 257.598 186.746 257.925 188.972C258.252 191.198 257.926 193.388 257.006 195.141C256.061 196.941 254.606 198.069 252.907 198.319C252.672 198.353 252.437 198.371 252.202 198.371Z" fill="#04429B"/>
<path d="M251.173 184.129C251.056 184.129 250.94 184.138 250.825 184.154C249.874 184.295 249.051 185.001 248.509 186.143C247.938 187.346 247.75 188.87 247.98 190.434C248.21 191.998 248.829 193.403 249.721 194.391C250.57 195.329 251.562 195.769 252.512 195.628C253.463 195.489 254.285 194.782 254.827 193.639C255.398 192.437 255.586 190.913 255.356 189.349C255.126 187.786 254.508 186.38 253.615 185.393C252.869 184.568 252.014 184.129 251.173 184.129ZM252.158 196.547C251.064 196.547 249.979 196.005 249.06 194.989C248.05 193.872 247.354 192.3 247.099 190.564C246.843 188.828 247.058 187.122 247.704 185.762C248.377 184.341 249.44 183.457 250.695 183.273C251.95 183.088 253.222 183.628 254.276 184.795C255.286 185.911 255.982 187.483 256.238 189.22C256.493 190.956 256.278 192.661 255.633 194.022C254.958 195.442 253.896 196.326 252.642 196.511C252.48 196.535 252.319 196.547 252.158 196.547Z" fill="#04429B"/>
<path d="M253.42 188.374C253.42 188.374 253.834 187.726 254.503 187.375C255.172 187.024 255.313 188.374 255.313 188.374C255.313 188.374 254.004 188.777 253.42 188.374Z" fill="#914D4D"/>
<path d="M264.804 183.737C263.979 183.774 262.942 183.904 261.994 183.966C260.531 184.02 260.295 184.054 259.92 183.764C259.137 183.157 258.493 185.215 258.214 186.024C257.978 186.707 256.971 187.48 256.671 187.608C256.404 187.721 256.474 187.712 255.119 188.065C254.258 188.29 253.749 188.044 253.42 188.374C253.073 188.983 253.64 189.521 253.64 189.521C253.099 190.482 254.116 190.792 254.116 190.792C254.116 190.792 253.986 191.527 254.57 191.628C254.8 191.668 255.604 191.694 255.604 191.694C255.604 191.694 255.79 192.131 256.062 192.162C256.334 192.192 259.387 192.602 260.428 191.905C260.767 191.68 261.903 189.994 262.696 188.883C263.761 188.768 266.08 188.563 266.08 188.563C269.644 187.852 267.792 183.606 264.804 183.737Z" fill="#9E5959"/>
<path d="M253.64 189.506C254.646 189.432 255.873 189.383 256.882 189.318C257.064 189.304 257.252 189.31 257.433 189.296C257.871 189.225 258.241 188.971 258.614 188.734L258.635 188.755C258.354 189.145 257.969 189.483 257.481 189.594C257.286 189.625 257.09 189.613 256.895 189.612C256.454 189.596 255.396 189.58 254.941 189.573C254.507 189.56 254.073 189.553 253.64 189.536V189.506Z" fill="#723333"/>
<path d="M254.116 190.778C254.871 190.738 255.971 190.7 256.738 190.672C256.966 190.663 257.497 190.631 257.718 190.635C258.245 190.638 258.725 190.373 259.177 190.115L259.197 190.137C258.904 190.481 258.518 190.76 258.078 190.887C257.641 191 257.184 190.924 256.739 190.919C255.969 190.892 254.876 190.854 254.116 190.807V190.778Z" fill="#723333"/>
<path d="M255.604 191.679C256.492 191.619 257.521 191.576 258.409 191.512C258.801 191.476 259.161 191.338 259.568 191.249L259.581 191.275C259.251 191.546 258.859 191.772 258.425 191.821C258.234 191.834 257.824 191.808 257.628 191.803C256.953 191.785 256.278 191.752 255.604 191.709V191.679Z" fill="#723333"/>
<path d="M289.761 181.372C289.761 181.372 291.546 185.961 288.689 187.529C285.966 189.024 264.342 190.116 264.342 190.116C264.342 190.116 266.003 185.686 263.126 182.489C263.126 182.489 280.748 179.565 282.982 179.352C286.851 178.983 288.95 180.034 289.761 181.372Z" fill="#ADCAED"/>
<path d="M272.703 126.209C272.703 126.209 263.491 123.697 261.205 133.97C258.919 144.243 259.177 149.691 263.302 150.585C267.425 151.479 273.712 148.852 277.214 143.727C280.717 138.602 281.48 128.595 272.703 126.209Z" fill="#9E5959"/>
<path d="M267.03 131.3C267.03 131.3 266.973 133.284 268.8 134.195C270.626 135.106 271.328 134.933 271.51 136.478C271.692 138.022 270.47 138.634 271.809 139.573C273.147 140.511 271.554 142.484 271.923 143.729C272.293 144.974 272.784 144.969 273.308 146.153C273.832 147.337 274.378 150.266 275.635 150.356C276.891 150.446 278.958 149.72 279.685 147.203C280.413 144.686 279.439 144.232 280.586 142.906C281.732 141.579 282.802 140.628 282.591 138.491C282.38 136.354 280.386 134.512 280.481 132.378C280.575 130.244 280.84 129.806 279.284 128.228C277.728 126.651 276.198 127.063 275.145 125.679C274.092 124.294 271.476 124.009 269.832 124.718C268.189 125.428 267.583 125.532 265.596 125.908C263.608 126.284 262.107 127.617 261.969 128.983C261.83 130.348 261.604 131.248 260.609 132.698C259.613 134.147 259.149 136.715 260.399 137.998C260.399 137.998 261.33 134.209 262.426 132.69C263.523 131.172 266.247 132.461 267.03 131.3Z" fill="#142147"/>
<path d="M280.481 132.378C280.575 130.244 280.84 129.806 279.284 128.228C277.984 126.911 276.703 126.978 275.703 126.23C275.701 126.233 278.623 130.279 278.83 131.519C279.036 132.759 276.078 137.224 275.65 139.217C275.223 141.211 275.949 143.815 276.036 145.245C276.124 146.675 274.723 147.869 273.642 147.072C273.423 151.332 274.704 150.686 275.7 150.758C276.957 150.848 278.958 149.72 279.685 147.203C280.413 144.686 279.439 144.232 280.585 142.906C281.732 141.579 282.803 140.628 282.591 138.491C282.38 136.354 280.386 134.512 280.481 132.378Z" fill="#111B3B"/>
<path d="M275.7 126.232C275.7 126.232 276.76 125.247 278.43 125.398C280.101 125.548 278.975 126.598 281.297 127.09C283.618 127.582 285.195 131.379 284.906 133.267C284.618 135.157 284.519 138.299 286.026 140.477C287.535 142.656 287.177 145.213 285.754 146.75C284.33 148.288 282.799 148.318 282.956 150.166C283.114 152.014 284.815 152.272 284.434 154.399C284.052 156.526 280.881 156.367 279.784 158.249C278.688 160.13 275.286 163.958 277.21 166.914C279.133 169.869 277.965 171.793 276.201 173.104C276.201 173.104 277.382 171.054 275.592 169.535C273.801 168.017 270.256 167.809 271.224 164.599C272.191 161.387 273.738 160.612 272.184 158.337C270.63 156.061 269.607 154.494 271.683 152.458C273.758 150.424 277.649 148.156 277.476 146.487C277.305 144.819 275.227 140.863 277.158 138.055C279.089 135.249 280.137 132.274 279.616 130.473C279.096 128.672 275.7 126.232 275.7 126.232Z" fill="#142147"/>
<path d="M275.7 126.232C275.7 126.232 276.002 125.702 276.281 125.617C276.96 125.41 277.752 125.907 278.46 126.729C279.17 127.55 279.419 128.785 278.947 129.259C278.947 129.259 277.076 127.024 275.7 126.232Z" fill="#ADCAED"/>
<path d="M278.946 129.259C279.419 128.785 279.17 127.55 278.461 126.729C278.249 126.483 278.03 126.272 277.809 126.094C278.035 126.458 278.679 127.531 278.655 127.955C278.628 128.469 276.417 126.334 275.701 126.232C277.076 127.024 278.946 129.259 278.946 129.259Z" fill="#99B8DE"/>
<path d="M271.09 142.019C271.09 142.019 272.576 139.438 274.343 140.315C276.111 141.191 274.052 143.846 273.264 144.518C272.326 145.318 269.499 145.12 271.09 142.019Z" fill="#9E5959"/>
<path d="M273.84 142.279C273.43 142.098 272.998 142.207 272.707 142.332C272.939 141.943 273.286 141.6 273.795 141.552C273.873 141.544 273.931 141.475 273.924 141.397C273.916 141.319 273.846 141.262 273.769 141.269C272.303 141.407 272.001 143.437 271.989 143.524C271.978 143.601 272.032 143.673 272.114 143.684C272.19 143.692 272.26 143.639 272.27 143.563C272.272 143.554 272.327 143.185 272.495 142.763C272.503 142.759 272.512 142.757 272.52 142.752C272.526 142.747 273.178 142.297 273.726 142.54C273.798 142.571 273.882 142.539 273.913 142.467C273.945 142.395 273.912 142.311 273.84 142.279Z" fill="#723333"/>
<path d="M310.88 186.728L310.524 188.913C310.524 188.913 298.893 192.467 294.378 194.074C289.863 195.681 283.59 198.742 281.829 205.092C280.07 211.443 273.566 243.426 272.724 247.099C271.883 250.771 283.131 248.476 294.761 240.978C306.391 233.479 309.834 230.113 312.512 223.226C315.19 216.34 320.469 196.14 320.469 192.467C320.469 188.794 314.527 186.958 310.88 186.728Z" fill="#A5C8FD"/>
<path d="M310.88 186.728L310.524 188.913C310.524 188.913 298.893 192.467 294.378 194.074C289.863 195.681 283.59 198.742 281.829 205.092C281.736 205.429 281.629 205.84 281.51 206.315L294.99 206.314C294.99 206.314 314.731 198.205 320.469 192.467C320.469 188.794 314.527 186.958 310.88 186.728Z" fill="#BAD6FF"/>
<path d="M293.307 202.414C287.798 198.511 284.165 200.575 284.165 200.575C283.134 201.859 282.312 203.351 281.829 205.092C280.07 211.443 273.566 243.426 272.724 247.099C272.188 249.439 276.562 249.355 282.816 247.046C291.157 231.884 298.608 206.169 293.307 202.414Z" fill="#A4C9FF"/>
<path d="M318.77 201.529L318.498 202.66C318.498 202.66 299.103 211.52 296.574 212.641C295.086 213.253 294.399 215.058 294.074 216.566C293.749 218.074 288.724 236.563 282.816 247.046C276.907 257.53 276.703 271.099 276.703 271.099L278.947 269.875C278.947 269.875 278.563 262.325 281.51 255.796C284.457 249.267 293.031 230.357 295.086 223.864C297.139 217.37 298.093 214.931 299.113 214.331C300.134 213.73 320.334 205.16 321.285 204.276C322.238 203.392 321.491 201.571 318.77 201.529Z" fill="#78ACEA"/>
</g>
<defs>
<clipPath id="clip0_20_1259">
<rect width="412.5" height="300" fill="white" transform="translate(-19)"/>
</clipPath>
</defs>
</svg>
