<svg width="46" height="65" viewBox="0 0 46 65" fill="none" xmlns="http://www.w3.org/2000/svg">
<path fill-rule="evenodd" clip-rule="evenodd" d="M6.85043 40.7092C6.83925 40.6417 6.83327 40.6056 6.83327 40.604C2.88081 34.9836 1.33285 28.5251 2.1783 22.6717C2.1783 26.1106 10.7673 28.8968 21.3593 28.8968C31.7845 28.8968 40.2712 26.1976 40.5337 22.8323C40.5406 23.0469 40.5371 23.2581 40.5299 23.4735C40.5067 24.2146 40.4325 24.9626 40.3584 25.7104C40.1764 27.5454 39.9946 29.379 40.5667 31.1078C41.1162 32.7654 42.3584 34.1857 43.932 34.9434C43.9525 34.9532 43.9732 34.9631 43.994 34.973C44.709 35.3137 45.592 35.7345 45.5566 36.5132C45.5382 36.8811 45.3052 37.1946 45.0649 37.4713C44.1796 38.4984 43.116 39.3726 41.9322 40.0357C42.0851 40.4473 42.2963 40.8336 42.555 41.1831C42.5749 41.2095 42.5952 41.2361 42.6156 41.2629C42.8347 41.55 43.0715 41.8604 43.0252 42.2098C42.9995 42.403 42.8903 42.567 42.7811 42.7272C42.6316 42.9572 42.4749 43.1936 42.2637 43.3684C42.0924 43.5144 41.8812 43.6198 41.6666 43.6305C42.3511 44.1732 43.003 44.8876 42.8282 45.7105C42.7615 46.0353 42.571 46.3144 42.383 46.5899C42.3452 46.6453 42.3075 46.7005 42.271 46.756C41.455 48.0019 41.1346 49.5683 41.4002 51.0361C41.4228 51.1634 41.4491 51.2928 41.4757 51.4233C41.6163 52.1143 41.7625 52.8332 41.3857 53.4C41.1638 53.7315 40.7993 53.9354 40.4314 54.0918C39.0149 54.6785 37.4228 54.6168 35.8929 54.4927C33.8389 54.3267 31.7749 54.0589 29.81 53.4337C29.6229 53.3793 29.4365 53.3229 29.2506 53.2645C29.233 54.8493 29.2863 56.4336 29.4058 58.0149H29.3989C29.4024 58.0149 29.4024 58.0149 29.4058 58.0184C29.5607 60.0921 29.8355 62.1521 30.2264 64.191L30.2509 64.3811C21.1767 66.7051 8.68344 62.1241 5.94052 56.631C7.9942 51.0837 7.79447 46.4086 6.85043 40.7092Z" fill="#FF9A3E"/>
<path d="M24.0867 49.8327C25.0395 52.4959 26.9205 54.8169 29.3323 56.2981C29.2001 55.2883 29.1686 54.2634 29.2472 53.2444C27.2819 52.54 25.4361 51.4236 24.1024 49.8262L24.0867 49.8327Z" fill="#363449"/>
<path d="M2.17743 22.6716C2.17743 25.1152 6.51123 27.2285 12.8192 28.2472C15.3915 28.6622 18.2908 28.8983 21.3603 28.8983C24.9356 28.8983 28.2814 28.5806 31.1462 28.0272C36.6371 26.9675 40.3604 25.0428 40.5332 22.8322V22.8288C40.5332 22.7096 40.5298 22.59 40.5267 22.4708C40.5298 22.4643 40.5267 22.4551 40.5267 22.4486C40.3067 20.4135 37.0709 18.6245 32.222 17.5395C29.1338 16.8478 25.3948 16.4453 21.3603 16.4453C17.8378 16.4453 14.5361 16.7535 11.6997 17.2912C6.55186 18.2692 2.93243 20.0019 2.28435 22.0209C2.24373 22.2378 2.20885 22.4551 2.17743 22.6716Z" fill="#FF9A3E"/>
<path d="M2.32327 23.0601C3.98428 25.2262 6.45932 26.6829 9.14476 27.1375C9.54296 27.2049 9.37394 27.8108 8.97728 27.7442C6.11976 27.2605 3.53971 25.6723 1.78021 23.3774C1.53378 23.0562 2.07991 22.7431 2.32327 23.0601Z" fill="#363449"/>
<path d="M10.7566 21.785C10.7566 24.1937 11.5204 26.4235 12.8192 28.247C15.3916 28.662 18.2909 28.8985 21.3604 28.8985C24.9357 28.8985 28.2819 28.5804 31.1463 28.027C32.3543 26.2441 33.0583 24.096 33.0583 21.785C33.0583 20.2819 32.7598 18.8477 32.2221 17.5397C30.5519 13.4864 26.5615 10.6339 21.9077 10.6339C17.3477 10.6339 13.4294 13.3699 11.6998 17.291C11.0931 18.6653 10.7566 20.1876 10.7566 21.785Z" fill="#FFCEA1"/>
<path d="M9.23699 35.917C10.5611 38.0778 14.1553 40.9989 16.4352 38.4265C17.4888 37.2411 17.844 35.4797 17.9195 33.939C17.9981 32.332 17.7685 30.6308 17.2308 29.112C16.7717 27.8227 15.9795 26.6024 14.6711 26.0582C14.435 25.9582 14.1901 25.8888 13.9445 25.8417C12.3911 25.3197 10.6554 25.9766 9.59878 27.1746C7.52309 29.5366 7.65838 33.3385 9.23699 35.917Z" fill="#FFB56C"/>
<path d="M8.84567 27.497C9.82066 26.0982 11.5165 25.3221 13.2155 25.5198C15.0532 25.7333 16.5939 27.1 17.1112 28.8625C17.2255 29.2515 16.6188 29.4179 16.5046 29.0296C16.1044 27.6672 14.9911 26.5607 13.6026 26.2231C12.1355 25.8659 10.5235 26.4163 9.56733 27.5783C8.50534 28.8687 8.30873 30.6669 8.61418 32.2608C8.91925 33.8548 9.60297 35.5097 10.6259 36.7813C11.7331 38.1575 13.4845 39.1394 15.2847 38.6857C15.6771 38.5872 15.845 39.1935 15.4518 39.2923C11.5238 40.2815 8.87824 36.1014 8.09871 32.851C7.66947 31.0597 7.7626 29.0511 8.84567 27.497Z" fill="#363449"/>
<path d="M16.795 28.7371C18.3544 28.8283 19.9177 28.8076 21.4748 28.6742C21.878 28.6397 21.8757 29.269 21.4748 29.3035C19.9177 29.4361 18.3544 29.4572 16.795 29.366C16.3925 29.3422 16.3899 28.7133 16.795 28.7371Z" fill="#363449"/>
<path d="M29.4818 28.2804C33.4381 27.3055 37.7248 26.1967 40.3669 22.8417C40.6176 22.5236 41.0598 22.9713 40.8115 23.2863C38.1057 26.7225 33.7018 27.8884 29.6493 28.8868C29.2561 28.9837 29.0886 28.3774 29.4818 28.2804Z" fill="#363449"/>
<path d="M22.2217 0.30383V10.0074C22.2217 10.4121 21.5928 10.4128 21.5928 10.0074V0.30383C21.5928 -0.100883 22.2217 -0.101649 22.2217 0.30383Z" fill="#363449"/>
<path d="M37.7602 22.1548H34.3462C33.9415 22.1548 33.9408 21.5259 34.3462 21.5259H37.7602C38.1653 21.5259 38.1657 22.1548 37.7602 22.1548Z" fill="#363449"/>
<path d="M9.91249 22.1548H6.4981C6.09339 22.1548 6.09262 21.5259 6.4981 21.5259H9.91249C10.3172 21.5259 10.318 22.1548 9.91249 22.1548Z" fill="#363449"/>
<path d="M36.5837 7.94069L31.0132 13.5132C30.7269 13.7995 30.2816 13.3553 30.5682 13.0686L36.1392 7.49574C36.4254 7.20983 36.8704 7.65402 36.5837 7.94069Z" fill="#363449"/>
<path d="M7.23062 7.94069L12.8016 13.5132C13.0875 13.7995 13.5328 13.3553 13.2461 13.0686L7.67519 7.49574C7.38929 7.20983 6.94395 7.65402 7.23062 7.94069Z" fill="#363449"/>
<path d="M26.3798 10.4993C27.0037 9.03297 27.6281 7.56665 28.252 6.09995C28.3191 5.94243 28.5479 5.911 28.6824 5.98765C28.8449 6.08002 28.8614 6.26206 28.7951 6.41766C28.1711 7.88398 27.5468 9.3503 26.9229 10.8166C26.8558 10.9741 26.627 11.0059 26.4925 10.9297C26.33 10.8369 26.3135 10.6549 26.3798 10.4993Z" fill="#363449"/>
<path d="M17.4349 10.4993C16.8106 9.03297 16.1866 7.56665 15.5623 6.09995C15.4953 5.94243 15.2665 5.911 15.1323 5.98765C14.9694 6.08002 14.9533 6.26206 15.0193 6.41766C15.6436 7.88398 16.2675 9.3503 16.8918 10.8166C16.9589 10.9741 17.1877 11.0059 17.3218 10.9297C17.4847 10.8369 17.5008 10.6549 17.4349 10.4993Z" fill="#363449"/>
<path d="M0.478667 12.4855C3.90072 14.1212 7.32238 15.7566 10.7444 17.3927C11.1093 17.567 10.7908 18.1093 10.4271 17.9357L0.161335 13.0286C-0.20352 12.8538 0.115346 12.3115 0.478667 12.4855Z" fill="#363449"/>
<path d="M43.4853 12.7318C40.0632 14.3675 36.6416 16.0032 33.2195 17.6389C32.8547 17.8133 33.1731 18.356 33.5368 18.182L43.8026 13.2748C44.1675 13.1005 43.8486 12.5578 43.4853 12.7318Z" fill="#363449"/>
<path d="M22.6536 40.4074C22.6536 43.2197 24.9336 45.4997 27.7459 45.4997C30.5582 45.4997 32.8381 43.2197 32.8381 40.4074C32.8381 37.5951 30.5582 35.3152 27.7459 35.3152C24.9336 35.3152 22.6536 37.5951 22.6536 40.4074Z" fill="#FF9A3E"/>
</svg>
