<svg width="26" height="20" viewBox="0 0 26 20" fill="none" xmlns="http://www.w3.org/2000/svg">
<path d="M14.1395 11.8182V17.2727C14.1395 18.0303 14.4179 18.6742 14.9747 19.2045C15.5314 19.7348 16.2074 20 17.0028 20H22.7293C23.5246 20 24.2007 19.7348 24.7574 19.2045C25.3142 18.6742 25.5925 18.0303 25.5925 17.2727V7.27273C25.5925 6.28788 25.3912 5.34801 24.9886 4.45312C24.5859 3.55824 24.0416 2.78409 23.3556 2.13068C22.6696 1.47727 21.8569 0.958807 20.9174 0.575284C19.9779 0.191761 18.9912 0 17.9572 0H17.0028C16.7443 0 16.5206 0.0899621 16.3317 0.269886C16.1428 0.449811 16.0484 0.662879 16.0484 0.909091V2.72727C16.0484 2.97348 16.1428 3.18655 16.3317 3.36648C16.5206 3.5464 16.7443 3.63636 17.0028 3.63636H17.9572C19.011 3.63636 19.9108 3.99148 20.6564 4.7017C21.402 5.41193 21.7749 6.26894 21.7749 7.27273V7.72727C21.7749 8.10606 21.6357 8.42803 21.3573 8.69318C21.0789 8.95833 20.7409 9.09091 20.3432 9.09091H17.0028C16.2074 9.09091 15.5314 9.35606 14.9747 9.88636C14.4179 10.4167 14.1395 11.0606 14.1395 11.8182ZM0.777714 11.8182V17.2727C0.777714 18.0303 1.05609 18.6742 1.61283 19.2045C2.16957 19.7348 2.84562 20 3.64096 20H9.36746C10.1628 20 10.8388 19.7348 11.3956 19.2045C11.9523 18.6742 12.2307 18.0303 12.2307 17.2727V7.27273C12.2307 6.28788 12.0294 5.34801 11.6267 4.45312C11.2241 3.55824 10.6798 2.78409 9.99379 2.13068C9.30781 1.47727 8.49506 0.958807 7.55556 0.575284C6.61605 0.191761 5.62933 0 4.59538 0H3.64096C3.38247 0 3.15878 0.0899621 2.96989 0.269886C2.78099 0.449811 2.68655 0.662879 2.68655 0.909091V2.72727C2.68655 2.97348 2.78099 3.18655 2.96989 3.36648C3.15878 3.5464 3.38247 3.63636 3.64096 3.63636H4.59538C5.64921 3.63636 6.54895 3.99148 7.29459 4.7017C8.04022 5.41193 8.41304 6.26894 8.41304 7.27273V7.72727C8.41304 8.10606 8.27386 8.42803 7.99549 8.69318C7.71711 8.95833 7.37909 9.09091 6.98142 9.09091H3.64096C2.84562 9.09091 2.16957 9.35606 1.61283 9.88636C1.05609 10.4167 0.777714 11.0606 0.777714 11.8182Z" fill="#D9D8D8"/>
</svg>
