<svg width="375" height="300" viewBox="0 0 375 300" fill="none" xmlns="http://www.w3.org/2000/svg">
<path d="M-3 300H378.818V0H-3V300Z" fill="white"/>
<mask id="mask0_20_1591" style="mask-type:luminance" maskUnits="userSpaceOnUse" x="221" y="157" width="126" height="99">
<path d="M306.991 170.767L314.483 178.305C283.637 210.553 262.753 218.516 221.827 221.623V255.975C272.915 245.411 295.496 226.418 325.453 189.345L332.614 196.551L346.538 157.09L306.991 170.767Z" fill="white"/>
</mask>
<g mask="url(#mask0_20_1591)">
<path d="M306.991 170.767L314.483 178.305C283.637 210.553 262.753 218.516 221.827 221.623V255.975C272.915 245.411 295.496 226.418 325.453 189.345L332.614 196.551L346.538 157.09L306.991 170.767Z" fill="url(#paint0_linear_20_1591)"/>
</g>
<path d="M234.065 59.7182H144.421C135.482 59.7182 128.235 65.7136 128.235 73.11V253.464C128.235 260.859 135.482 266.855 144.421 266.855H234.065C243.003 266.855 250.249 260.859 250.249 253.464V73.11C250.249 65.7136 243.003 59.7182 234.065 59.7182Z" fill="#303C72"/>
<mask id="mask1_20_1591" style="mask-type:luminance" maskUnits="userSpaceOnUse" x="135" y="72" width="109" height="177">
<path d="M243.336 74.9855V246.625C243.336 247.927 242.06 248.982 240.485 248.982H137.999C136.425 248.982 135.148 247.927 135.148 246.625V74.9855C135.148 73.6827 136.425 72.6273 137.999 72.6273H240.485C242.06 72.6273 243.336 73.6827 243.336 74.9855Z" fill="white"/>
</mask>
<g mask="url(#mask1_20_1591)">
<path d="M243.336 74.9855V246.625C243.336 247.927 242.06 248.982 240.485 248.982H137.999C136.425 248.982 135.148 247.927 135.148 246.625V74.9855C135.148 73.6827 136.425 72.6273 137.999 72.6273H240.485C242.06 72.6273 243.336 73.6827 243.336 74.9855Z" fill="url(#paint1_linear_20_1591)"/>
</g>
<path d="M232.6 92.2427H146.219C142.249 92.2427 139.031 95.5655 139.031 99.6645V159.435C139.031 163.535 142.249 166.857 146.219 166.857H232.6C236.57 166.857 239.788 163.535 239.788 159.435V99.6645C239.788 95.5655 236.57 92.2427 232.6 92.2427Z" fill="white"/>
<mask id="mask2_20_1591" style="mask-type:luminance" maskUnits="userSpaceOnUse" x="146" y="134" width="10" height="16">
<path d="M155.128 149.849H146.492V134.539H155.128V149.849Z" fill="white"/>
</mask>
<g mask="url(#mask2_20_1591)">
<path d="M155.128 149.849H146.492V134.539H155.128V149.849Z" fill="url(#paint2_linear_20_1591)"/>
</g>
<mask id="mask3_20_1591" style="mask-type:luminance" maskUnits="userSpaceOnUse" x="159" y="123" width="9" height="27">
<path d="M167.995 149.849H159.358V123.557H167.995V149.849Z" fill="white"/>
</mask>
<g mask="url(#mask3_20_1591)">
<path d="M167.995 149.849H159.358V123.557H167.995V149.849Z" fill="url(#paint3_linear_20_1591)"/>
</g>
<mask id="mask4_20_1591" style="mask-type:luminance" maskUnits="userSpaceOnUse" x="172" y="127" width="9" height="23">
<path d="M180.861 149.849H172.225V127.805H180.861V149.849Z" fill="white"/>
</mask>
<g mask="url(#mask4_20_1591)">
<path d="M180.861 149.849H172.225V127.805H180.861V149.849Z" fill="url(#paint4_linear_20_1591)"/>
</g>
<mask id="mask5_20_1591" style="mask-type:luminance" maskUnits="userSpaceOnUse" x="185" y="130" width="9" height="20">
<path d="M193.727 149.849H185.092V130.507H193.727V149.849Z" fill="white"/>
</mask>
<g mask="url(#mask5_20_1591)">
<path d="M193.727 149.849H185.092V130.507H193.727V149.849Z" fill="url(#paint5_linear_20_1591)"/>
</g>
<mask id="mask6_20_1591" style="mask-type:luminance" maskUnits="userSpaceOnUse" x="197" y="112" width="10" height="38">
<path d="M206.595 149.849H197.958V112.498H206.595V149.849Z" fill="white"/>
</mask>
<g mask="url(#mask6_20_1591)">
<path d="M206.595 149.849H197.958V112.498H206.595V149.849Z" fill="url(#paint6_linear_20_1591)"/>
</g>
<mask id="mask7_20_1591" style="mask-type:luminance" maskUnits="userSpaceOnUse" x="210" y="101" width="10" height="49">
<path d="M219.461 149.849H210.825V101.613H219.461V149.849Z" fill="white"/>
</mask>
<g mask="url(#mask7_20_1591)">
<path d="M219.461 149.849H210.825V101.613H219.461V149.849Z" fill="url(#paint7_linear_20_1591)"/>
</g>
<mask id="mask8_20_1591" style="mask-type:luminance" maskUnits="userSpaceOnUse" x="223" y="116" width="10" height="34">
<path d="M232.327 149.849H223.691V116.056H232.327V149.849Z" fill="white"/>
</mask>
<g mask="url(#mask8_20_1591)">
<path d="M232.327 149.849H223.691V116.056H232.327V149.849Z" fill="url(#paint8_linear_20_1591)"/>
</g>
<mask id="mask9_20_1591" style="mask-type:luminance" maskUnits="userSpaceOnUse" x="144" y="158" width="92" height="2">
<path d="M144.109 159.982H235.114V158.656H144.109V159.982Z" fill="white"/>
</mask>
<g mask="url(#mask9_20_1591)">
<path d="M144.109 159.982H235.114V158.656H144.109V159.982Z" fill="url(#paint9_linear_20_1591)"/>
</g>
<mask id="mask10_20_1591" style="mask-type:luminance" maskUnits="userSpaceOnUse" x="144" y="155" width="92" height="2">
<path d="M144.109 156.491H235.114V155.165H144.109V156.491Z" fill="white"/>
</mask>
<g mask="url(#mask10_20_1591)">
<path d="M144.109 156.491H235.114V155.165H144.109V156.491Z" fill="url(#paint10_linear_20_1591)"/>
</g>
<mask id="mask11_20_1591" style="mask-type:luminance" maskUnits="userSpaceOnUse" x="146" y="78" width="87" height="4">
<path d="M232.049 78.2736H146.435V81.8636H232.049V78.2736Z" fill="white"/>
</mask>
<g mask="url(#mask11_20_1591)">
<path d="M232.049 78.2736H146.435V81.8636H232.049V78.2736Z" fill="url(#paint11_linear_20_1591)"/>
</g>
<mask id="mask12_20_1591" style="mask-type:luminance" maskUnits="userSpaceOnUse" x="157" y="83" width="64" height="4">
<path d="M220.89 83.9173H157.595V86.5709H220.89V83.9173Z" fill="white"/>
</mask>
<g mask="url(#mask12_20_1591)">
<path d="M220.89 83.9173H157.595V86.5709H220.89V83.9173Z" fill="url(#paint12_linear_20_1591)"/>
</g>
<path d="M232.6 174.196H145.885C141.915 174.196 138.696 177.415 138.696 181.385V231.68C138.696 235.65 141.915 238.869 145.885 238.869H232.6C236.57 238.869 239.788 235.65 239.788 231.68V181.385C239.788 177.415 236.57 174.196 232.6 174.196Z" fill="white"/>
<mask id="mask13_20_1591" style="mask-type:luminance" maskUnits="userSpaceOnUse" x="144" y="196" width="91" height="19">
<path d="M162.287 214.601C158.84 214.601 157.552 211.746 156.306 208.986C155.797 207.859 155.271 206.694 154.613 205.796C154.361 205.453 154.091 205.266 153.789 205.226C152.936 205.115 151.678 206.065 150.347 207.072C148.565 208.418 146.546 209.945 144.314 209.945V209.07C146.196 209.07 148.074 207.651 149.729 206.4C151.295 205.215 152.646 204.19 153.927 204.361C154.509 204.437 155.01 204.757 155.416 205.312C156.128 206.282 156.673 207.488 157.199 208.655C158.376 211.263 159.488 213.726 162.287 213.726C165.565 213.726 167.885 210.058 169.748 207.111C170.265 206.295 170.752 205.524 171.228 204.874C171.705 204.225 172.163 203.488 172.648 202.708C174.434 199.837 176.457 196.584 180.26 196.584C183.879 196.584 185.615 199.733 187.146 202.511C187.686 203.49 188.195 204.415 188.765 205.19C191.056 208.314 193.849 211.668 198.016 211.941C202.826 212.258 210.771 211.009 212.788 208.26C214.497 205.931 217.891 204.105 220.514 204.105C221.977 204.105 223.149 204.648 223.902 205.675C224.205 206.088 224.452 206.103 224.533 206.107C225.328 206.154 226.595 204.827 227.828 203.545C229.684 201.615 231.786 199.426 234.171 199.426V200.301C232.225 200.301 230.275 202.33 228.555 204.12C227.042 205.695 225.735 207.053 224.47 206.98C223.936 206.949 223.475 206.673 223.098 206.159C222.525 205.377 221.655 204.981 220.514 204.981C218.22 204.981 215.115 206.669 213.592 208.745C211.102 212.139 202.026 213.082 197.947 212.814C193.345 212.512 190.379 208.97 187.961 205.675C187.359 204.854 186.836 203.905 186.283 202.902C184.808 200.225 183.283 197.458 180.26 197.458C177.021 197.458 175.225 200.345 173.489 203.137C172.995 203.932 172.528 204.683 172.032 205.358C171.574 205.984 171.094 206.743 170.585 207.545C168.598 210.689 166.125 214.601 162.287 214.601Z" fill="white"/>
</mask>
<g mask="url(#mask13_20_1591)">
<path d="M162.287 214.601C158.84 214.601 157.552 211.746 156.306 208.986C155.797 207.859 155.271 206.694 154.613 205.796C154.361 205.453 154.091 205.266 153.789 205.226C152.936 205.115 151.678 206.065 150.347 207.072C148.565 208.418 146.546 209.945 144.314 209.945V209.07C146.196 209.07 148.074 207.651 149.729 206.4C151.295 205.215 152.646 204.19 153.927 204.361C154.509 204.437 155.01 204.757 155.416 205.312C156.128 206.282 156.673 207.488 157.199 208.655C158.376 211.263 159.488 213.726 162.287 213.726C165.565 213.726 167.885 210.058 169.748 207.111C170.265 206.295 170.752 205.524 171.228 204.874C171.705 204.225 172.163 203.488 172.648 202.708C174.434 199.837 176.457 196.584 180.26 196.584C183.879 196.584 185.615 199.733 187.146 202.511C187.686 203.49 188.195 204.415 188.765 205.19C191.056 208.314 193.849 211.668 198.016 211.941C202.826 212.258 210.771 211.009 212.788 208.26C214.497 205.931 217.891 204.105 220.514 204.105C221.977 204.105 223.149 204.648 223.902 205.675C224.205 206.088 224.452 206.103 224.533 206.107C225.328 206.154 226.595 204.827 227.828 203.545C229.684 201.615 231.786 199.426 234.171 199.426V200.301C232.225 200.301 230.275 202.33 228.555 204.12C227.042 205.695 225.735 207.053 224.47 206.98C223.936 206.949 223.475 206.673 223.098 206.159C222.525 205.377 221.655 204.981 220.514 204.981C218.22 204.981 215.115 206.669 213.592 208.745C211.102 212.139 202.026 213.082 197.947 212.814C193.345 212.512 190.379 208.97 187.961 205.675C187.359 204.854 186.836 203.905 186.283 202.902C184.808 200.225 183.283 197.458 180.26 197.458C177.021 197.458 175.225 200.345 173.489 203.137C172.995 203.932 172.528 204.683 172.032 205.358C171.574 205.984 171.094 206.743 170.585 207.545C168.598 210.689 166.125 214.601 162.287 214.601Z" fill="url(#paint13_linear_20_1591)"/>
</g>
<mask id="mask14_20_1591" style="mask-type:luminance" maskUnits="userSpaceOnUse" x="144" y="213" width="91" height="21">
<path d="M144.314 233.831V232.955C148.576 232.955 150.689 230.586 152.925 228.078C155.205 225.521 157.564 222.875 162.287 222.875C166.891 222.875 169.225 223.897 171.483 224.885C173.743 225.875 175.877 226.809 180.26 226.809C184.485 226.809 186.598 223.732 188.835 220.474C191.114 217.156 193.47 213.726 198.23 213.726C202.735 213.726 205.025 213.825 207.238 213.92C209.442 214.015 211.72 214.113 216.201 214.113C220.956 214.113 223.313 217.413 225.591 220.605C227.828 223.737 229.941 226.697 234.171 226.697V227.572C229.416 227.572 227.06 224.271 224.781 221.08C222.544 217.946 220.431 214.987 216.201 214.987C211.697 214.987 209.407 214.889 207.193 214.794C204.989 214.699 202.712 214.601 198.23 214.601C194.005 214.601 191.892 217.678 189.655 220.935C187.376 224.254 185.02 227.684 180.26 227.684C175.656 227.684 173.322 226.662 171.064 225.674C168.804 224.685 166.67 223.751 162.287 223.751C158.024 223.751 155.912 226.12 153.675 228.628C151.395 231.185 149.037 233.831 144.314 233.831Z" fill="white"/>
</mask>
<g mask="url(#mask14_20_1591)">
<path d="M144.314 233.831V232.955C148.576 232.955 150.689 230.586 152.925 228.078C155.205 225.521 157.564 222.875 162.287 222.875C166.891 222.875 169.225 223.897 171.483 224.885C173.743 225.875 175.877 226.809 180.26 226.809C184.485 226.809 186.598 223.732 188.835 220.474C191.114 217.156 193.47 213.726 198.23 213.726C202.735 213.726 205.025 213.825 207.238 213.92C209.442 214.015 211.72 214.113 216.201 214.113C220.956 214.113 223.313 217.413 225.591 220.605C227.828 223.737 229.941 226.697 234.171 226.697V227.572C229.416 227.572 227.06 224.271 224.781 221.08C222.544 217.946 220.431 214.987 216.201 214.987C211.697 214.987 209.407 214.889 207.193 214.794C204.989 214.699 202.712 214.601 198.23 214.601C194.005 214.601 191.892 217.678 189.655 220.935C187.376 224.254 185.02 227.684 180.26 227.684C175.656 227.684 173.322 226.662 171.064 225.674C168.804 224.685 166.67 223.751 162.287 223.751C158.024 223.751 155.912 226.12 153.675 228.628C151.395 231.185 149.037 233.831 144.314 233.831Z" fill="url(#paint14_linear_20_1591)"/>
</g>
<mask id="mask15_20_1591" style="mask-type:luminance" maskUnits="userSpaceOnUse" x="144" y="179" width="91" height="46">
<path d="M180.26 224.915C175.622 224.915 173.276 223.515 171.008 222.161C168.759 220.818 166.635 219.55 162.287 219.55C157.601 219.55 155.246 217.525 152.968 215.566C150.729 213.642 148.615 211.823 144.314 211.823V210.948C149 210.948 151.355 212.974 153.633 214.932C155.871 216.857 157.986 218.675 162.287 218.675C166.925 218.675 169.27 220.075 171.539 221.43C173.787 222.773 175.911 224.041 180.26 224.041C184.359 224.041 186.603 214.196 188.773 204.675C191.124 194.358 193.345 184.613 198.23 184.613C203.085 184.613 205.316 191.511 207.678 198.815C209.837 205.488 212.07 212.389 216.201 212.389C220.315 212.389 222.554 204.131 224.717 196.145C227.075 187.448 229.3 179.235 234.171 179.235V180.109C230.057 180.109 227.819 188.367 225.655 196.354C223.298 205.05 221.072 213.264 216.201 213.264C211.347 213.264 209.115 206.365 206.753 199.061C204.594 192.387 202.362 185.487 198.23 185.487C194.131 185.487 191.887 195.332 189.717 204.853C187.366 215.17 185.145 224.915 180.26 224.915Z" fill="white"/>
</mask>
<g mask="url(#mask15_20_1591)">
<path d="M180.26 224.915C175.622 224.915 173.276 223.515 171.008 222.161C168.759 220.818 166.635 219.55 162.287 219.55C157.601 219.55 155.246 217.525 152.968 215.566C150.729 213.642 148.615 211.823 144.314 211.823V210.948C149 210.948 151.355 212.974 153.633 214.932C155.871 216.857 157.986 218.675 162.287 218.675C166.925 218.675 169.27 220.075 171.539 221.43C173.787 222.773 175.911 224.041 180.26 224.041C184.359 224.041 186.603 214.196 188.773 204.675C191.124 194.358 193.345 184.613 198.23 184.613C203.085 184.613 205.316 191.511 207.678 198.815C209.837 205.488 212.07 212.389 216.201 212.389C220.315 212.389 222.554 204.131 224.717 196.145C227.075 187.448 229.3 179.235 234.171 179.235V180.109C230.057 180.109 227.819 188.367 225.655 196.354C223.298 205.05 221.072 213.264 216.201 213.264C211.347 213.264 209.115 206.365 206.753 199.061C204.594 192.387 202.362 185.487 198.23 185.487C194.131 185.487 191.887 195.332 189.717 204.853C187.366 215.17 185.145 224.915 180.26 224.915Z" fill="url(#paint15_linear_20_1591)"/>
</g>
<path d="M109.647 140.814L128.408 166.803L125.052 165.918L146.602 157.374L148.559 156.597L150.177 160.343L148.272 161.237L127.282 171.078C126.125 171.621 124.779 171.272 124.018 170.312L123.925 170.195L104.014 145.076L109.647 140.814Z" fill="#EFBC90"/>
<path d="M160.822 153.818C161.313 155.18 159.081 157.907 155.205 159.763C151.63 161.473 148.565 161.001 147.957 159.67C146.602 156.698 160.063 151.713 160.822 153.818Z" fill="#EFBC90"/>
<path d="M154.012 153.373C153.583 152.903 151.897 153.348 150.145 154.669C148.531 155.886 147.936 157.298 148.323 157.812C149.187 158.96 154.676 154.1 154.012 153.373Z" fill="#EFBC90"/>
<path d="M114.865 110.757C108.54 106.224 100.925 109.314 99.9128 115.86C98.6 124.355 100.259 131.196 98.1482 136.832C94.8764 145.567 95.7827 154.151 95.7827 154.151C104.414 142.385 113.333 147.256 118.258 135.436C119.84 131.639 120.925 115.101 114.865 110.757Z" fill="#03053E"/>
<path d="M112.348 139.376H104.796V124.93H109.412L112.348 139.376Z" fill="#EFBC90"/>
<path d="M117.925 117.617C119.201 123.547 118.258 129.526 114.678 130.824C111.32 132.04 105.493 128.822 102.826 122.96C100.02 116.788 101.39 112.175 106.363 110.458C111.644 108.634 116.525 111.117 117.925 117.617Z" fill="#F4CAAB"/>
<path d="M127.941 262.028L122.865 225.266L117.511 188.547L116.543 181.903L102.555 184.92L104.413 191.374L114.668 227.007L124.749 262.695L125.194 264.267L128.165 263.646L127.941 262.028Z" fill="#EFBC90"/>
<path d="M97.2491 181.902L97.0155 188.612L95.66 227.63L78.6148 253.042L77.7039 254.399L80.0644 256.263L81.1737 255.062L102.951 231.485C103.344 231.061 103.62 230.523 103.722 229.909L103.815 229.345L110.349 189.943L111.447 183.319L97.2491 181.902Z" fill="#EFBC90"/>
<mask id="mask16_20_1591" style="mask-type:luminance" maskUnits="userSpaceOnUse" x="99" y="180" width="30" height="72">
<path d="M99.8182 180.665H119.626L128.171 249.592L116.645 251.269L99.8182 180.665Z" fill="white"/>
</mask>
<g mask="url(#mask16_20_1591)">
<path d="M99.8182 180.665H119.626L128.171 249.592L116.645 251.269L99.8182 180.665Z" fill="url(#paint16_linear_20_1591)"/>
</g>
<mask id="mask17_20_1591" style="mask-type:luminance" maskUnits="userSpaceOnUse" x="81" y="180" width="33" height="71">
<path d="M94.3809 180.665H113.412C113.412 180.665 109.925 224.72 107.086 229.899C103.683 236.107 90.2045 250.516 90.2045 250.516L81.0504 243.445C81.0504 243.445 90.6909 229.795 93.0218 223.387C95.3518 216.979 94.3809 180.665 94.3809 180.665Z" fill="white"/>
</mask>
<g mask="url(#mask17_20_1591)">
<path d="M94.3809 180.665H113.412C113.412 180.665 109.925 224.72 107.086 229.899C103.683 236.107 90.2045 250.516 90.2045 250.516L81.0504 243.445C81.0504 243.445 90.6909 229.795 93.0218 223.387C95.3518 216.979 94.3809 180.665 94.3809 180.665Z" fill="url(#paint17_linear_20_1591)"/>
</g>
<mask id="mask18_20_1591" style="mask-type:luminance" maskUnits="userSpaceOnUse" x="102" y="139" width="41" height="34">
<path d="M137.659 159.314L142.35 171.335C142.35 171.335 128.279 174.913 122.061 170.9C113.338 165.272 98.24 146.182 104.094 140.692C110.595 134.595 116.986 153.191 125.355 159.835C128.942 162.685 137.659 159.314 137.659 159.314Z" fill="white"/>
</mask>
<g mask="url(#mask18_20_1591)">
<path d="M137.659 159.314L142.35 171.335C142.35 171.335 128.279 174.913 122.061 170.9C113.338 165.272 98.24 146.182 104.094 140.692C110.595 134.595 116.986 153.191 125.355 159.835C128.942 162.685 137.659 159.314 137.659 159.314Z" fill="url(#paint18_linear_20_1591)"/>
</g>
<path d="M104.615 138.148C104.615 138.148 108.686 141.718 112.758 139.338C112.758 139.338 114.151 154.212 115.973 160.281C117.794 166.349 122.524 181.783 122.524 181.783L93.5518 182.294C92.7609 168.715 97.8909 153.29 104.615 138.148Z" fill="#76D3F4"/>
<path d="M107.545 147.94C105.648 151.484 103.815 155.178 102.143 158.862C101.308 160.709 100.51 162.566 99.7873 164.43C99.0682 166.289 98.4118 168.168 97.96 169.979C97.8491 170.434 97.7591 170.865 97.68 171.306L97.4555 172.765C97.3255 173.755 97.2009 174.751 97.1 175.759C96.8936 177.775 96.7327 179.812 96.5964 181.855C96.3345 185.943 96.1573 190.069 96.0564 194.165L96.0082 196.145L92.1591 196.177L92.0955 194.197C91.96 190.017 91.9018 185.868 91.93 181.685C91.9509 179.594 91.9964 177.498 92.0909 175.386C92.1373 174.332 92.2073 173.267 92.2873 172.199L92.4427 170.579C92.5136 169.997 92.6055 169.41 92.7118 168.852C93.1482 166.621 93.7636 164.554 94.4309 162.515C95.1018 160.483 95.8364 158.495 96.6055 156.529C98.1555 152.591 99.8082 148.774 101.62 144.921L103.035 141.911L109.114 145.007L107.545 147.94Z" fill="#F4CAAB"/>
<mask id="mask19_20_1591" style="mask-type:luminance" maskUnits="userSpaceOnUse" x="91" y="136" width="34" height="49">
<path d="M103.594 136.415C103.594 136.415 89.4464 157.573 92.3273 180.142C92.3273 180.142 91.1118 184.575 107.164 183.97C123.216 183.365 124.135 181.149 124.135 181.149C119.053 169.038 115.105 155.33 113.145 138.825C113.145 138.825 107.144 139.046 103.594 136.415Z" fill="white"/>
</mask>
<g mask="url(#mask19_20_1591)">
<path d="M103.594 136.415C103.594 136.415 89.4464 157.573 92.3273 180.142C92.3273 180.142 91.1118 184.575 107.164 183.97C123.216 183.365 124.135 181.149 124.135 181.149C119.053 169.038 115.105 155.33 113.145 138.825C113.145 138.825 107.144 139.046 103.594 136.415Z" fill="url(#paint19_linear_20_1591)"/>
</g>
<mask id="mask20_20_1591" style="mask-type:luminance" maskUnits="userSpaceOnUse" x="89" y="140" width="21" height="47">
<path d="M102.068 184.918L89.7 186.448C89.7 186.448 90.19 172.385 92.0246 164.334C94.33 154.212 98.6309 139.133 106.389 141.185C116.527 143.87 101.819 164.185 100.757 169.755C99.9 174.255 102.068 184.918 102.068 184.918Z" fill="white"/>
</mask>
<g mask="url(#mask20_20_1591)">
<path d="M102.068 184.918L89.7 186.448C89.7 186.448 90.19 172.385 92.0246 164.334C94.33 154.212 98.6309 139.133 106.389 141.185C116.527 143.87 101.819 164.185 100.757 169.755C99.9 174.255 102.068 184.918 102.068 184.918Z" fill="url(#paint20_linear_20_1591)"/>
</g>
<path d="M91.8755 207.392C90.5546 207.058 89.6018 203.881 90.1955 199.879C90.7427 196.19 92.7236 194.047 94.0818 194.274C97.1146 194.781 93.9182 207.908 91.8755 207.392Z" fill="#F4CAAB"/>
<path d="M95.8082 202.313C96.4009 202.225 96.94 200.676 96.8318 198.614C96.7327 196.713 95.9445 195.506 95.3391 195.537C93.9882 195.607 94.8909 202.448 95.8082 202.313Z" fill="#F4CAAB"/>
<path d="M139.541 265.58L137.205 265.165V265.165L128.663 261.859V261.928C128.663 261.928 128.559 263.392 126.785 263.667C125.478 263.871 124.631 263.522 124.275 263.325C124.19 263.247 124.12 263.203 124.081 263.203C123.511 263.203 123.048 264.135 123.048 265.286C123.048 265.665 123.099 266.017 123.185 266.323V267.921H140.202V266.303C140.202 265.927 139.915 265.614 139.541 265.58Z" fill="#1C468A"/>
<path d="M87.3356 265.367L85.8878 263.487L85.8872 263.488L81.7968 255.292L81.7505 255.343C81.7505 255.343 80.6886 256.356 79.1913 255.365C78.0879 254.635 77.6958 253.807 77.5654 253.422C77.555 253.307 77.5333 253.227 77.5047 253.201C77.0829 252.817 76.1128 253.195 75.338 254.046C75.0836 254.326 74.8831 254.621 74.7418 254.906L73.6659 256.087L86.2479 267.543L87.3378 266.346C87.5906 266.068 87.5896 265.644 87.3356 265.367Z" fill="#1C468A"/>
<path d="M108.08 108.842C106.363 108.842 105.186 108.996 103.724 109.754C101.373 110.972 98.2718 113.882 97.6555 120.477C97.0809 126.626 99.5436 129.636 94.29 135.436C88.3809 139.924 77.8485 139.157 79.0652 149.225C80.2818 159.295 93.6336 157.981 96.8073 152.947C99.9809 147.913 99.6246 143.425 101.39 140.252C103.155 137.078 106.219 138.938 107.752 135.436C109.549 132.142 106.429 124.752 105.867 123.48C106.243 122.241 106.728 120.881 108.736 120.334C113.045 119.158 116.616 115.08 116.616 113.767C116.616 112.454 112.676 108.842 108.08 108.842Z" fill="#03053E"/>
<path d="M107.936 121.304C108.381 122.296 108.072 123.402 107.244 123.773C106.416 124.144 105.385 123.639 104.94 122.646C104.495 121.654 104.805 120.548 105.633 120.177C106.46 119.806 107.491 120.311 107.936 121.304Z" fill="#F4CAAB"/>
<defs>
<linearGradient id="paint0_linear_20_1591" x1="155.042" y1="330.502" x2="342.031" y2="144.682" gradientUnits="userSpaceOnUse">
<stop stop-color="#7A8FD8"/>
<stop offset="1" stop-color="#8CCBFF"/>
</linearGradient>
<linearGradient id="paint1_linear_20_1591" x1="189.243" y1="-23.2064" x2="189.243" y2="250.021" gradientUnits="userSpaceOnUse">
<stop stop-color="white"/>
<stop offset="1" stop-color="#E7ECF9"/>
</linearGradient>
<linearGradient id="paint2_linear_20_1591" x1="150.81" y1="148.92" x2="150.81" y2="102.829" gradientUnits="userSpaceOnUse">
<stop stop-color="#8CCBFF"/>
<stop offset="1" stop-color="#A4B8EA"/>
</linearGradient>
<linearGradient id="paint3_linear_20_1591" x1="163.676" y1="148.92" x2="163.676" y2="102.829" gradientUnits="userSpaceOnUse">
<stop stop-color="#8CCBFF"/>
<stop offset="1" stop-color="#A4B8EA"/>
</linearGradient>
<linearGradient id="paint4_linear_20_1591" x1="176.543" y1="148.92" x2="176.543" y2="102.829" gradientUnits="userSpaceOnUse">
<stop stop-color="#8CCBFF"/>
<stop offset="1" stop-color="#A4B8EA"/>
</linearGradient>
<linearGradient id="paint5_linear_20_1591" x1="189.41" y1="148.92" x2="189.41" y2="102.829" gradientUnits="userSpaceOnUse">
<stop stop-color="#8CCBFF"/>
<stop offset="1" stop-color="#A4B8EA"/>
</linearGradient>
<linearGradient id="paint6_linear_20_1591" x1="202.276" y1="148.92" x2="202.276" y2="102.829" gradientUnits="userSpaceOnUse">
<stop stop-color="#8CCBFF"/>
<stop offset="1" stop-color="#A4B8EA"/>
</linearGradient>
<linearGradient id="paint7_linear_20_1591" x1="215.143" y1="148.92" x2="215.143" y2="102.829" gradientUnits="userSpaceOnUse">
<stop stop-color="#8CCBFF"/>
<stop offset="1" stop-color="#A4B8EA"/>
</linearGradient>
<linearGradient id="paint8_linear_20_1591" x1="228.009" y1="148.92" x2="228.009" y2="102.829" gradientUnits="userSpaceOnUse">
<stop stop-color="#8CCBFF"/>
<stop offset="1" stop-color="#A4B8EA"/>
</linearGradient>
<linearGradient id="paint9_linear_20_1591" x1="235.114" y1="159.319" x2="144.109" y2="159.319" gradientUnits="userSpaceOnUse">
<stop stop-color="#A3B7E9"/>
<stop offset="1" stop-color="#B8C7EE"/>
</linearGradient>
<linearGradient id="paint10_linear_20_1591" x1="235.114" y1="155.828" x2="144.109" y2="155.828" gradientUnits="userSpaceOnUse">
<stop stop-color="#A3B7E9"/>
<stop offset="1" stop-color="#B8C7EE"/>
</linearGradient>
<linearGradient id="paint11_linear_20_1591" x1="146.435" y1="80.0691" x2="232.05" y2="80.0691" gradientUnits="userSpaceOnUse">
<stop stop-color="#A3B7E9"/>
<stop offset="1" stop-color="#B8C7EE"/>
</linearGradient>
<linearGradient id="paint12_linear_20_1591" x1="157.595" y1="85.2445" x2="220.89" y2="85.2445" gradientUnits="userSpaceOnUse">
<stop stop-color="#A3B7E9"/>
<stop offset="1" stop-color="#B8C7EE"/>
</linearGradient>
<linearGradient id="paint13_linear_20_1591" x1="189.243" y1="227.415" x2="189.243" y2="184.317" gradientUnits="userSpaceOnUse">
<stop stop-color="#A3B7E9"/>
<stop offset="1" stop-color="#B8C7EE"/>
</linearGradient>
<linearGradient id="paint14_linear_20_1591" x1="189.243" y1="227.415" x2="189.243" y2="184.317" gradientUnits="userSpaceOnUse">
<stop stop-color="#7A8FD8"/>
<stop offset="1" stop-color="#435AC2"/>
</linearGradient>
<linearGradient id="paint15_linear_20_1591" x1="189.243" y1="227.415" x2="189.243" y2="184.317" gradientUnits="userSpaceOnUse">
<stop stop-color="#8CCBFF"/>
<stop offset="1" stop-color="#1C468A"/>
</linearGradient>
<linearGradient id="paint16_linear_20_1591" x1="127.634" y1="215.462" x2="109.889" y2="215.924" gradientUnits="userSpaceOnUse">
<stop stop-color="#435AC2"/>
<stop offset="1" stop-color="#0F24A4"/>
</linearGradient>
<linearGradient id="paint17_linear_20_1591" x1="112.098" y1="218.792" x2="91.3041" y2="212.323" gradientUnits="userSpaceOnUse">
<stop stop-color="#435AC2"/>
<stop offset="1" stop-color="#0F24A4"/>
</linearGradient>
<linearGradient id="paint18_linear_20_1591" x1="137.225" y1="152.315" x2="110.608" y2="158.722" gradientUnits="userSpaceOnUse">
<stop stop-color="#7A8FD8"/>
<stop offset="1" stop-color="#435AC2"/>
</linearGradient>
<linearGradient id="paint19_linear_20_1591" x1="124.402" y1="163.521" x2="96.1835" y2="159.331" gradientUnits="userSpaceOnUse">
<stop stop-color="#7A8FD8"/>
<stop offset="1" stop-color="#435AC2"/>
</linearGradient>
<linearGradient id="paint20_linear_20_1591" x1="105.218" y1="165.634" x2="90.9857" y2="162.029" gradientUnits="userSpaceOnUse">
<stop stop-color="#7A8FD8"/>
<stop offset="1" stop-color="#435AC2"/>
</linearGradient>
</defs>
</svg>
