<svg width="25" height="24" viewBox="0 0 25 24" fill="none" xmlns="http://www.w3.org/2000/svg">
<path d="M2.49059 24C2.25136 23.9994 2.01501 23.9478 1.79727 23.8487C1.57953 23.7495 1.38541 23.6051 1.22784 23.4249C1.07026 23.2448 0.952863 23.0332 0.883454 22.8041C0.814046 22.575 0.794224 22.3337 0.825309 22.0964L1.42678 17.497C1.48174 17.0807 1.67202 16.6941 1.96828 16.3968L17.8149 0.539486C18.161 0.194075 18.6299 0.000106812 19.1188 0.000106812C19.6076 0.000106812 20.0765 0.194075 20.4226 0.539486L24.2554 4.3748C24.6005 4.72118 24.7944 5.19039 24.7944 5.67956C24.7944 6.16874 24.6005 6.63795 24.2554 6.98433L8.40876 22.8417C8.11171 23.1382 7.72535 23.3287 7.30935 23.3836L2.71309 23.9854C2.63932 23.9951 2.56499 24 2.49059 24ZM3.72959 17.9489L3.25882 21.5503L6.85778 21.0792L22.2467 5.6798L19.1185 2.54949L3.72959 17.9489Z" fill="white"/>
<path d="M19.869 10.8881C19.7153 10.8886 19.563 10.8587 19.4209 10.8001C19.2788 10.7415 19.1496 10.6555 19.0408 10.5469L14.2544 5.75718C14.0347 5.53713 13.9114 5.23878 13.9116 4.92777C13.9118 4.61675 14.0354 4.31854 14.2553 4.09874C14.4752 3.87894 14.7734 3.75556 15.0842 3.75574C15.395 3.75591 15.693 3.87963 15.9126 4.09968L20.6972 8.88749C20.861 9.05138 20.9726 9.26021 21.0178 9.48756C21.063 9.71491 21.0398 9.95057 20.9512 10.1647C20.8625 10.3789 20.7124 10.5619 20.5197 10.6907C20.3271 10.8195 20.1007 10.8882 19.869 10.8881Z" fill="white"/>
</svg>
