<svg width="30" height="21" viewBox="0 0 30 21" fill="none" xmlns="http://www.w3.org/2000/svg">
<path d="M9.75 10.5C12.6506 10.5 15 8.15063 15 5.25C15 2.34938 12.6506 0 9.75 0C6.84938 0 4.5 2.34938 4.5 5.25C4.5 8.15063 6.84938 10.5 9.75 10.5Z" fill="#6B6C7E"/>
<path d="M26.25 7.875C26.25 10.154 24.404 12 22.125 12C19.846 12 18 10.154 18 7.875C18 5.5959 19.846 3.75 22.125 3.75C24.404 3.75 26.25 5.5959 26.25 7.875Z" fill="#6B6C7E"/>
<path d="M9.75 12C11.8002 12 15.1373 12.6383 17.3258 13.9089C18.2198 14.8189 18.75 15.8111 18.75 16.8V21H0V16.8C0 13.608 6.4959 12 9.75 12Z" fill="#6B6C7E"/>
<path d="M30 21H20.25V16.8C20.25 15.7378 19.8665 14.7601 19.2573 13.8874C20.413 13.6294 21.5508 13.5 22.4196 13.5C25.2159 13.5 30 14.84 30 17.5V21Z" fill="#6B6C7E"/>
</svg>
