<svg width="728" height="759" viewBox="0 0 728 759" fill="none" xmlns="http://www.w3.org/2000/svg">
<path d="M682.152 65.208H580.879V35.3806C580.879 15.8407 565.037 0 545.495 0C525.953 0 510.111 15.8407 510.111 35.3806V65.208H217.889V35.3806C217.889 15.8407 202.047 0 182.505 0C162.963 0 147.121 15.8407 147.121 35.3806V65.208H45.848C20.5274 65.208 0 85.7334 0 111.052V713.156C0 738.475 20.5274 759 45.848 759H682.152C707.473 759 728 738.475 728 713.156V111.052C728 85.7334 707.473 65.208 682.152 65.208V65.208ZM669.991 700.992H58.0087V309.722H669.991V700.997V700.992Z" fill="#6B6C7E"/>
<path d="M297.735 366.299H228.821V435.206H297.735V366.299Z" fill="#6B6C7E"/>
<path d="M399.782 366.299H330.869V435.206H399.782V366.299Z" fill="#6B6C7E"/>
<path d="M501.825 366.299H432.912V435.206H501.825V366.299Z" fill="#6B6C7E"/>
<path d="M603.873 366.299H534.959V435.206H603.873V366.299Z" fill="#6B6C7E"/>
<path d="M193.041 470.325H124.127V539.233H193.041V470.325Z" fill="#6B6C7E"/>
<path d="M603.873 470.325H534.959V539.233H603.873V470.325Z" fill="#6B6C7E"/>
<path d="M193.041 574.348H124.127V643.255H193.041V574.348Z" fill="#6B6C7E"/>
<path d="M501.825 574.348H432.912V643.255H501.825V574.348Z" fill="#6B6C7E"/>
<path d="M295.746 470.325H226.832V539.233H295.746V470.325Z" fill="#6B6C7E"/>
<path d="M501.164 470.325H432.25V539.233H501.164V470.325Z" fill="#6B6C7E"/>
<path d="M295.971 574.348H227.057V643.255H295.971V574.348Z" fill="#6B6C7E"/>
<path d="M398.9 574.348H329.986V643.255H398.9V574.348Z" fill="#6B6C7E"/>
<path d="M339.901 537.63C346.778 544.507 357.922 544.507 364.799 537.63L405.61 496.823C412.487 489.946 412.487 478.804 405.61 471.927C398.733 465.051 387.59 465.051 380.713 471.927L352.35 500.288L347.287 495.225C340.41 488.349 329.266 488.349 322.389 495.225C315.512 502.101 315.512 513.244 322.389 520.12L339.901 537.63V537.63Z" fill="#6B6C7E"/>
</svg>
