<svg width="19" height="20" viewBox="0 0 19 20" fill="none" xmlns="http://www.w3.org/2000/svg">
<path d="M6.7168 19.9619H4.45312C1.99767 19.9619 0 17.9642 0 15.5088V9.42285C0 6.9674 1.99767 4.96973 4.45312 4.96973H14.5469C17.0023 4.96973 19 6.9674 19 9.42285V11.6494C19 12.0593 18.6677 12.3916 18.2578 12.3916C17.8479 12.3916 17.5156 12.0593 17.5156 11.6494V9.42285C17.5156 7.78588 16.1838 6.4541 14.5469 6.4541H4.45312C2.81616 6.4541 1.48438 7.78588 1.48438 9.42285V15.5088C1.48438 17.1458 2.81616 18.4775 4.45312 18.4775H6.7168C7.12671 18.4775 7.45898 18.8098 7.45898 19.2197C7.45898 19.6296 7.12671 19.9619 6.7168 19.9619ZM19 17.6982V15.738C19 14.4862 17.9816 13.4678 16.7298 13.4678H14.7695C14.3596 13.4678 14.0273 13.8001 14.0273 14.21C14.0273 14.6199 14.3596 14.9521 14.7695 14.9521H16.7298C17.1631 14.9521 17.5156 15.3047 17.5156 15.738V17.6982C17.5156 18.1082 17.8479 18.4404 18.2578 18.4404C18.6677 18.4404 19 18.1082 19 17.6982ZM16.4192 17.2456C16.7023 16.9492 16.6915 16.4794 16.395 16.1963C16.0986 15.9132 15.6288 15.924 15.3457 16.2205C13.9759 17.6549 12.0528 18.4775 10.0694 18.4775H9.72266C9.31275 18.4775 8.98047 18.8098 8.98047 19.2197C8.98047 19.6296 9.31275 19.9619 9.72266 19.9619H10.0694C12.4564 19.9619 14.7708 18.9719 16.4192 17.2456ZM4.86133 8.45801C4.34896 8.45801 3.93359 8.87337 3.93359 9.38574C3.93359 9.89811 4.34896 10.3135 4.86133 10.3135C5.3737 10.3135 5.78906 9.89811 5.78906 9.38574C5.78906 8.87337 5.3737 8.45801 4.86133 8.45801ZM8.05273 8.45801C7.54037 8.45801 7.125 8.87337 7.125 9.38574C7.125 9.89811 7.54037 10.3135 8.05273 10.3135C8.5651 10.3135 8.98047 9.89811 8.98047 9.38574C8.98047 8.87337 8.5651 8.45801 8.05273 8.45801ZM11.2441 8.45801C10.7318 8.45801 10.3164 8.87337 10.3164 9.38574C10.3164 9.89811 10.7318 10.3135 11.2441 10.3135C11.7565 10.3135 12.1719 9.89811 12.1719 9.38574C12.1719 8.87337 11.7565 8.45801 11.2441 8.45801ZM4.86133 11.6494C4.34896 11.6494 3.93359 12.0648 3.93359 12.5771C3.93359 13.0895 4.34896 13.5049 4.86133 13.5049C5.3737 13.5049 5.78906 13.0895 5.78906 12.5771C5.78906 12.0648 5.3737 11.6494 4.86133 11.6494ZM4.86133 14.8408C4.34896 14.8408 3.93359 15.2562 3.93359 15.7686C3.93359 16.2809 4.34896 16.6963 4.86133 16.6963C5.3737 16.6963 5.78906 16.2809 5.78906 15.7686C5.78906 15.2562 5.3737 14.8408 4.86133 14.8408ZM8.05273 11.6494C7.54037 11.6494 7.125 12.0648 7.125 12.5771C7.125 13.0895 7.54037 13.5049 8.05273 13.5049C8.5651 13.5049 8.98047 13.0895 8.98047 12.5771C8.98047 12.0648 8.5651 11.6494 8.05273 11.6494ZM8.05273 14.8408C7.54037 14.8408 7.125 15.2562 7.125 15.7686C7.125 16.2809 7.54037 16.6963 8.05273 16.6963C8.5651 16.6963 8.98047 16.2809 8.98047 15.7686C8.98047 15.2562 8.5651 14.8408 8.05273 14.8408ZM11.2441 11.6494C10.7318 11.6494 10.3164 12.0648 10.3164 12.5771C10.3164 13.0895 10.7318 13.5049 11.2441 13.5049C11.7565 13.5049 12.1719 13.0895 12.1719 12.5771C12.1719 12.0648 11.7565 11.6494 11.2441 11.6494Z" fill="#100DB1"/>
<path d="M6.75391 3.93066C6.344 3.93066 6.01172 3.59839 6.01172 3.18848C6.01172 2.77923 5.67877 2.44629 5.26953 2.44629C4.86029 2.44629 4.52734 2.77923 4.52734 3.18848C4.52734 3.59839 4.19507 3.93066 3.78516 3.93066C3.37525 3.93066 3.04297 3.59839 3.04297 3.18848C3.04297 1.96075 4.0418 0.961914 5.26953 0.961914C6.49726 0.961914 7.49609 1.96075 7.49609 3.18848C7.49609 3.59839 7.16382 3.93066 6.75391 3.93066ZM16.0312 3.18848C16.0312 1.96075 15.0324 0.961914 13.8047 0.961914C12.577 0.961914 11.5781 1.96075 11.5781 3.18848C11.5781 3.59839 11.9104 3.93066 12.3203 3.93066C12.7302 3.93066 13.0625 3.59839 13.0625 3.18848C13.0625 2.77923 13.3954 2.44629 13.8047 2.44629C14.2139 2.44629 14.5469 2.77923 14.5469 3.18848C14.5469 3.59839 14.8792 3.93066 15.2891 3.93066C15.699 3.93066 16.0312 3.59839 16.0312 3.18848ZM14.4355 8.45801C13.9232 8.45801 13.5078 8.87337 13.5078 9.38574C13.5078 9.89811 13.9232 10.3135 14.4355 10.3135C14.9479 10.3135 15.3633 9.89811 15.3633 9.38574C15.3633 8.87337 14.9479 8.45801 14.4355 8.45801Z" fill="#F80D38"/>
</svg>
