<svg width="188" height="268" viewBox="0 0 188 268" fill="none" xmlns="http://www.w3.org/2000/svg">
<path d="M187.694 145.377C187.694 173.764 187.633 202.144 187.732 230.532C187.763 239.155 185.723 246.956 180.342 253.821C173.523 262.52 164.444 267.253 153.614 267.322C113.795 267.588 73.9763 267.68 34.1575 267.322C15.7778 267.154 0.891397 252.61 0.312989 234.703C-0.105595 221.78 0.0846703 208.842 0.0846703 195.911C0.0770597 150.263 0.32821 104.622 0.000953436 58.9808C-0.120817 41.9482 11.4397 28.5307 24.2104 24.6569C28.8148 23.2565 32.7952 25.1288 34.2336 29.3831C35.535 33.2417 33.3279 37.3819 28.9442 38.904C22.399 41.1796 17.9696 45.5252 16.0061 52.1389C15.2679 54.6428 14.9102 57.3522 14.9026 59.9702C14.8417 116.647 14.9482 173.315 14.8036 229.992C14.7656 244.17 24.6518 252.481 37.2169 252.367C75.2549 252.002 113.3 252.078 151.346 252.336C162.663 252.413 172.937 244.619 172.907 230.715C172.846 203.202 172.899 175.682 172.907 148.17C172.907 119.135 172.907 90.1083 172.907 61.0738C172.907 49.186 168.957 43.1888 158.112 38.5691C154.261 36.9328 152.312 32.9829 153.561 29.3527C154.976 25.2201 158.903 23.2794 163.234 24.5732C176.94 28.6677 187.283 41.4155 187.451 55.6017C187.77 82.9848 187.649 110.383 187.702 137.766C187.702 140.3 187.702 142.835 187.702 145.377H187.694Z" fill="url(#paint0_linear_3163_2530)"/>
<path d="M93.7791 49.8251C85.0345 49.8251 76.2899 49.886 67.5453 49.8099C55.6575 49.7033 49.1428 42.6026 48.6633 30.8746C48.1762 19.0249 53.496 13.6974 63.5269 10.1737C70.6504 7.66983 77.6065 4.69407 84.6083 1.87814C90.7425 -0.587706 96.8234 -0.648591 102.988 1.83247C111.39 5.21159 119.868 8.41567 128.278 11.7948C135.173 14.5651 139.001 20.2502 138.948 27.6629C138.925 31.0649 139.1 34.5962 138.263 37.8231C136.581 44.2693 129.13 49.6577 122.281 49.7414C112.775 49.8631 103.27 49.7718 93.7715 49.7718V49.8175L93.7791 49.8251ZM93.703 12.4493C86.0391 12.4569 79.8745 18.6672 79.844 26.3996C79.8136 34.3146 86.0619 40.6619 93.8856 40.6695C101.687 40.6695 107.996 34.2842 107.965 26.4148C107.935 18.5606 101.679 12.4417 93.703 12.4493Z" fill="url(#paint1_linear_3163_2530)"/>
<path d="M93.8477 129.706C110.317 129.706 126.779 129.706 143.248 129.714C148.888 129.714 151.978 132.743 151.727 137.941C151.513 142.317 148.401 144.882 143.127 144.882C123.111 144.905 103.095 144.897 83.0863 144.897C70.6734 144.897 58.2604 144.882 45.8475 144.897C39.1425 144.905 36.0298 142.5 36.0526 137.233C36.0678 132.027 39.1273 129.691 45.9693 129.691C61.9288 129.691 77.8882 129.691 93.8553 129.691L93.8477 129.706Z" fill="url(#paint2_linear_3163_2530)"/>
<path d="M93.8933 203.514C77.424 203.514 60.9622 203.537 44.5004 203.506C39.1577 203.499 36.0678 200.69 36.0373 195.979C36.0069 191.238 38.8685 188.369 43.9144 188.331C53.0319 188.262 62.1494 188.308 71.2746 188.308C95.3394 188.308 119.404 188.315 143.469 188.3C146.749 188.3 149.961 189.145 150.828 192.387C151.498 194.883 151.43 198.43 150.075 200.371C148.796 202.197 145.402 203.346 142.913 203.392C126.581 203.651 110.241 203.522 93.901 203.522L93.8933 203.514Z" fill="url(#paint3_linear_3163_2530)"/>
<path d="M93.9161 232.526C77.5685 232.526 61.2209 232.526 44.8809 232.526C39.1805 232.526 36.0449 229.931 36.0145 225.174C35.9764 220.311 39.3023 217.518 45.2005 217.518C55.7184 217.518 66.2363 217.571 76.7542 217.571C98.6728 217.571 120.599 217.533 142.518 217.518C146.97 217.518 150.631 219.39 151.475 222.487C152.358 225.714 151.993 229.01 148.949 230.928C147.282 231.978 144.983 232.45 142.959 232.465C126.611 232.587 110.264 232.533 93.9238 232.526H93.9161Z" fill="url(#paint4_linear_3163_2530)"/>
<path d="M93.5054 174.046C77.5231 174.046 61.5484 174.046 45.5661 174.046C39.6754 174.046 36.2431 171.603 36.03 167.242C35.8016 162.493 38.6252 159.175 43.4579 159.091C52.5146 158.924 61.5788 158.992 70.6431 158.984C88.3835 158.969 106.116 158.962 123.857 158.969C130.668 158.969 137.48 158.931 144.291 159.068C148.751 159.159 151.727 162.265 151.734 166.481C151.742 170.865 149.147 173.833 144.474 173.871C127.487 174.008 110.492 173.924 93.5054 173.924V174.038V174.046Z" fill="url(#paint5_linear_3163_2530)"/>
<path d="M63.466 71.1043C69.8057 71.1043 76.1453 71.0739 82.485 71.1119C87.7972 71.15 90.8415 73.9811 90.8415 78.7454C90.8415 83.5248 87.8277 86.2875 82.4393 86.3027C69.76 86.3332 57.0807 86.3332 44.3938 86.3027C39.0207 86.2875 36.0373 83.5172 36.0449 78.7073C36.0449 73.9735 39.1349 71.15 44.4395 71.1119C50.7791 71.0739 57.1188 71.1043 63.4584 71.1043H63.466Z" fill="url(#paint6_linear_3163_2530)"/>
<path d="M63.3974 100.611C69.7295 100.611 76.0539 100.573 82.386 100.626C87.8884 100.672 90.8262 103.275 90.849 107.986C90.8718 112.818 87.7667 115.573 82.1044 115.589C72.6139 115.611 63.1159 115.589 53.6254 115.535C49.8429 115.512 46.03 115.627 42.2779 115.231C37.9475 114.782 35.7785 111.76 36.0448 107.331C36.2656 103.655 39.051 100.771 42.8944 100.695C49.7288 100.565 56.5631 100.656 63.3974 100.656V100.611Z" fill="url(#paint7_linear_3163_2530)"/>
<path d="M93.6955 12.4492C101.671 12.4416 107.92 18.5606 107.958 26.4147C107.988 34.2765 101.679 40.6694 93.8781 40.6694C86.0544 40.6694 79.8061 34.3146 79.8365 26.3995C79.867 18.6595 86.0316 12.4568 93.6955 12.4492ZM94.0989 16.3154C88.3224 16.2698 83.2918 21.1482 83.3983 26.6963C83.5049 32.0238 88.2767 36.7347 93.665 36.8261C99.2512 36.9174 104.198 32.2521 104.358 26.7496C104.51 21.3537 99.6089 16.3611 94.0989 16.3154Z" fill="white"/>
<path d="M94.0987 16.3157C99.6088 16.3614 104.51 21.354 104.358 26.7499C104.198 32.2524 99.2511 36.9177 93.6649 36.8264C88.2766 36.7351 83.5047 32.0241 83.3981 26.6966C83.2916 21.1485 88.3222 16.2701 94.0987 16.3157Z" fill="url(#paint8_linear_3163_2530)"/>
<path d="M141.917 93.5191C139.454 93.2508 137.242 92.4466 135.306 91.0053C131.774 88.3768 129.881 84.8709 129.811 80.5146C129.74 75.9793 129.793 71.4421 129.795 66.9059C129.795 66.0354 130.296 65.4655 131.053 65.4515C131.829 65.4364 132.35 66.0184 132.35 66.916C132.352 71.3828 132.34 75.8497 132.354 80.3155C132.371 85.3543 135.822 89.6081 140.819 90.7811C147.002 92.2325 153.239 88.0481 154.1 81.8594C154.186 81.2403 154.211 80.608 154.213 79.9828C154.222 75.6557 154.217 71.3285 154.219 67.0014C154.219 66.1319 154.555 65.6394 155.231 65.4907C155.972 65.3278 156.678 65.8183 156.761 66.5611C156.779 66.7169 156.776 66.8747 156.776 67.0315C156.776 71.411 156.787 75.7904 156.773 80.1698C156.754 86.6912 152.428 91.926 145.93 93.3071C145.482 93.4025 145.026 93.4578 144.501 93.5443C144.501 93.7453 144.501 93.9483 144.501 94.1504C144.499 98.2333 144.53 102.316 144.488 106.399C144.442 110.886 140.838 114.91 136.353 115.564C130.21 116.461 125.016 112.117 124.932 106.012C124.922 105.332 124.915 104.651 124.936 103.971C124.946 103.642 124.841 103.499 124.506 103.383C122.089 102.548 120.637 100.115 121.094 97.7156C121.574 95.1837 123.74 93.4297 126.332 93.4719C128.827 93.5121 130.894 95.2892 131.35 97.788C131.767 100.075 130.38 102.474 128.1 103.309C127.615 103.487 127.44 103.7 127.483 104.196C127.592 105.442 127.486 106.734 127.782 107.932C128.633 111.388 132.071 113.592 135.655 113.136C139.209 112.683 141.917 109.708 141.937 106.176C141.961 102.093 141.944 98.0101 141.944 93.9272C141.944 93.8076 141.929 93.688 141.918 93.5191H141.917ZM128.857 98.5841C128.864 97.1377 127.707 95.9848 126.242 95.9787C124.772 95.9727 123.601 97.1115 123.595 98.5519C123.589 99.9953 124.747 101.151 126.21 101.161C127.674 101.171 128.85 100.026 128.857 98.5841Z" fill="url(#paint9_linear_3163_2530)"/>
<defs>
<linearGradient id="paint0_linear_3163_2530" x1="93.8663" y1="24.1763" x2="93.8663" y2="267.557" gradientUnits="userSpaceOnUse">
<stop stop-color="#38D50E"/>
<stop offset="1" stop-color="#2AE4FA"/>
</linearGradient>
<linearGradient id="paint1_linear_3163_2530" x1="93.7909" y1="0" x2="93.7909" y2="49.8482" gradientUnits="userSpaceOnUse">
<stop stop-color="#38D50E"/>
<stop offset="1" stop-color="#2AE4FA"/>
</linearGradient>
<linearGradient id="paint2_linear_3163_2530" x1="93.8966" y1="129.691" x2="93.8966" y2="144.898" gradientUnits="userSpaceOnUse">
<stop stop-color="#38D50E"/>
<stop offset="1" stop-color="#2AE4FA"/>
</linearGradient>
<linearGradient id="paint3_linear_3163_2530" x1="93.6399" y1="188.293" x2="93.6399" y2="203.554" gradientUnits="userSpaceOnUse">
<stop stop-color="#38D50E"/>
<stop offset="1" stop-color="#2AE4FA"/>
</linearGradient>
<linearGradient id="paint4_linear_3163_2530" x1="93.9542" y1="217.518" x2="93.9542" y2="232.544" gradientUnits="userSpaceOnUse">
<stop stop-color="#38D50E"/>
<stop offset="1" stop-color="#2AE4FA"/>
</linearGradient>
<linearGradient id="paint5_linear_3163_2530" x1="93.8757" y1="158.964" x2="93.8757" y2="174.046" gradientUnits="userSpaceOnUse">
<stop stop-color="#38D50E"/>
<stop offset="1" stop-color="#2AE4FA"/>
</linearGradient>
<linearGradient id="paint6_linear_3163_2530" x1="63.4432" y1="71.0928" x2="63.4432" y2="86.3256" gradientUnits="userSpaceOnUse">
<stop stop-color="#38D50E"/>
<stop offset="1" stop-color="#2AE4FA"/>
</linearGradient>
<linearGradient id="paint7_linear_3163_2530" x1="63.436" y1="100.598" x2="63.436" y2="115.597" gradientUnits="userSpaceOnUse">
<stop stop-color="#38D50E"/>
<stop offset="1" stop-color="#2AE4FA"/>
</linearGradient>
<linearGradient id="paint8_linear_3163_2530" x1="93.8789" y1="16.3154" x2="93.8789" y2="36.8277" gradientUnits="userSpaceOnUse">
<stop stop-color="#38D50E"/>
<stop offset="1" stop-color="#2AE4FA"/>
</linearGradient>
<linearGradient id="paint9_linear_3163_2530" x1="138.895" y1="65.4512" x2="138.895" y2="115.681" gradientUnits="userSpaceOnUse">
<stop stop-color="#38D50E"/>
<stop offset="1" stop-color="#2AE4FA"/>
</linearGradient>
</defs>
</svg>
