<svg width="276" height="276" viewBox="0 0 276 276" fill="none" xmlns="http://www.w3.org/2000/svg">
<path d="M0 229.759C0 191.732 91.8463 168.49 137.856 168.49C183.865 168.49 275.711 191.732 275.711 229.759V275.711H0V229.759Z" fill="#2EDFB3"/>
<path fill-rule="evenodd" clip-rule="evenodd" d="M137.855 137.856C171.693 137.856 199.124 110.425 199.124 76.5865C199.124 42.7483 171.693 15.3173 137.855 15.3173C104.016 15.3173 76.5854 42.7483 76.5854 76.5865C76.5854 110.425 104.016 137.856 137.855 137.856ZM137.855 153.173C180.152 153.173 214.441 118.884 214.441 76.5865C214.441 34.2893 180.152 0 137.855 0C95.5574 0 61.2681 34.2893 61.2681 76.5865C61.2681 118.884 95.5574 153.173 137.855 153.173Z" fill="#2EDFB3"/>
</svg>
