<svg width="286" height="343" viewBox="0 0 286 343" fill="none" xmlns="http://www.w3.org/2000/svg">
<path fill-rule="evenodd" clip-rule="evenodd" d="M19.0146 114.087C8.51311 114.087 0 122.6 0 133.102V323.248C0 333.75 8.51311 342.262 19.0146 342.262H266.204C276.706 342.262 285.219 333.75 285.219 323.248V133.102C285.219 122.6 276.706 114.087 266.204 114.087H19.0146ZM57.0437 190.146H228.174V171.131H57.0437V190.146ZM228.174 237.682H57.0437V218.668H228.174V237.682ZM57.0437 285.219H228.174V266.204H57.0437V285.219Z" fill="url(#paint0_linear_3267_1998)"/>
<path fill-rule="evenodd" clip-rule="evenodd" d="M199.653 114.087V95.0729C199.653 63.5686 174.114 38.0292 142.609 38.0292C111.105 38.0292 85.5655 63.5686 85.5655 95.0729V114.087H199.653ZM142.609 0C90.1024 0 47.5364 42.566 47.5364 95.0729V152.117H237.682V95.0729C237.682 42.566 195.116 0 142.609 0Z" fill="url(#paint1_linear_3267_1998)"/>
<defs>
<linearGradient id="paint0_linear_3267_1998" x1="142.609" y1="114.087" x2="142.609" y2="342.262" gradientUnits="userSpaceOnUse">
<stop stop-color="#38D50E"/>
<stop offset="1" stop-color="#2AE4FA"/>
</linearGradient>
<linearGradient id="paint1_linear_3267_1998" x1="142.609" y1="0" x2="142.609" y2="152.117" gradientUnits="userSpaceOnUse">
<stop stop-color="#38D50E"/>
<stop offset="1" stop-color="#2AE4FA"/>
</linearGradient>
</defs>
</svg>
