<svg width="339" height="330" viewBox="0 0 339 330" fill="none" xmlns="http://www.w3.org/2000/svg">
<path d="M262.097 143.696H211.368C206.71 143.696 202.914 147.492 202.914 152.151C202.914 156.809 206.71 160.605 211.368 160.605H262.097C266.755 160.605 270.551 156.809 270.551 152.151C270.551 147.492 266.755 143.696 262.097 143.696ZM118.366 67.6033H135.276H211.368H228.278C232.936 67.6033 236.732 63.8073 236.732 59.1486V33.7844C236.732 29.1257 232.936 25.3297 228.278 25.3297H209.022C203.776 10.5943 189.869 0 173.339 0C156.809 0 142.868 10.5943 137.622 25.3297H118.366C113.708 25.3297 109.912 29.1257 109.912 33.7844V59.1486C109.912 63.8418 113.708 67.6033 118.366 67.6033ZM131.031 42.2391H153.013C152.737 40.8243 152.151 39.5129 152.151 37.9945C152.151 26.3304 161.606 16.8404 173.305 16.8404C184.969 16.8404 194.459 26.2959 194.459 37.9945C194.459 39.5129 193.907 40.8243 193.596 42.2391H215.578C217.925 42.2391 219.823 44.1371 219.823 46.4838C219.823 48.8304 217.925 50.7284 215.578 50.7284H131.031C128.684 50.7284 126.821 48.8304 126.821 46.4838C126.821 44.1371 128.719 42.2391 131.031 42.2391ZM262.097 202.879H211.368C206.71 202.879 202.914 206.675 202.914 211.334C202.914 215.993 206.71 219.789 211.368 219.789H262.097C266.755 219.789 270.551 215.993 270.551 211.334C270.551 206.675 266.755 202.879 262.097 202.879ZM304.37 33.7844H253.642V50.6939H295.916C309.926 50.6939 321.28 62.0474 321.28 76.0581V287.426C321.28 301.437 309.926 312.791 295.916 312.791H42.2737C28.263 312.791 16.9095 301.437 16.9095 287.426V76.0581C16.9095 62.0474 28.263 50.6939 42.2737 50.6939H93.002V33.7844H33.8189C15.1495 33.7844 0 48.9339 0 67.6033V295.881C0 314.551 15.1495 329.7 33.8189 329.7H304.37C323.04 329.7 338.189 314.551 338.189 295.881V67.6033C338.189 48.9339 323.04 33.7844 304.37 33.7844ZM145.456 192.837C154.67 185.072 160.64 173.615 160.64 160.64C160.64 137.277 141.729 118.366 118.366 118.366C95.0036 118.366 76.0926 137.277 76.0926 160.64C76.0926 173.615 82.0627 185.107 91.2766 192.837C72.2966 202.706 59.1831 222.308 59.1831 245.187C59.1831 247.12 59.4937 248.949 59.7698 250.812C59.4592 251.709 59.1831 252.641 59.1831 253.642C59.1831 258.301 62.9791 262.097 67.6378 262.097C72.2966 262.097 76.0926 258.301 76.0926 253.642H76.9208C76.3687 250.916 76.0926 248.086 76.0926 245.187C76.0926 221.825 95.0036 202.914 118.366 202.914C141.729 202.914 160.64 221.825 160.64 245.187C160.64 248.086 160.329 250.916 159.777 253.642H160.64C160.64 258.301 164.436 262.097 169.095 262.097C173.753 262.097 177.549 258.301 177.549 253.642C177.549 252.641 177.308 251.709 176.963 250.812C177.204 248.949 177.549 247.12 177.549 245.187C177.549 222.308 164.436 202.706 145.456 192.837ZM118.366 186.004C104.356 186.004 93.002 174.651 93.002 160.64C93.002 146.629 104.356 135.276 118.366 135.276C132.377 135.276 143.73 146.629 143.73 160.64C143.73 174.616 132.377 186.004 118.366 186.004Z" fill="url(#paint0_linear_3163_2532)"/>
<defs>
<linearGradient id="paint0_linear_3163_2532" x1="169.095" y1="0" x2="169.095" y2="329.7" gradientUnits="userSpaceOnUse">
<stop stop-color="#38D50E"/>
<stop offset="1" stop-color="#2AE4FA"/>
</linearGradient>
</defs>
</svg>
