<svg width="20" height="20" viewBox="0 0 20 20" fill="none" xmlns="http://www.w3.org/2000/svg">
<path d="M9.83765 13.9618C12.0889 13.9618 13.9308 12.1198 13.9308 9.86857C13.9308 7.61732 12.0889 5.77539 9.83765 5.77539" fill="#343434"/>
<path d="M9.83757 13.9618C12.0982 13.9618 13.9307 12.1292 13.9307 9.86857C13.9307 7.60797 12.0982 5.77539 9.83757 5.77539C7.57696 5.77539 5.74438 7.60797 5.74438 9.86857C5.74438 12.1292 7.57696 13.9618 9.83757 13.9618Z" stroke="#343434" stroke-width="1.5" stroke-linecap="round" stroke-linejoin="round"/>
<path d="M16.6599 9.86856H18.7065" stroke="#343434" stroke-width="1.5" stroke-linecap="round" stroke-linejoin="round"/>
<path d="M0.968994 9.86856H3.01558" stroke="#343434" stroke-width="1.5" stroke-linecap="round" stroke-linejoin="round"/>
<path d="M9.83765 16.6905V18.7371" stroke="#343434" stroke-width="1.5" stroke-linecap="round" stroke-linejoin="round"/>
<path d="M9.83765 1V3.04659" stroke="#343434" stroke-width="1.5" stroke-linecap="round" stroke-linejoin="round"/>
<path d="M16.114 3.59241L14.6814 5.02492" stroke="#343434" stroke-width="1.5" stroke-linecap="round" stroke-linejoin="round"/>
<path d="M16.0456 16.0766L14.613 14.6439" stroke="#343434" stroke-width="1.5" stroke-linecap="round" stroke-linejoin="round"/>
<path d="M5.13061 5.16144L3.698 3.72876" stroke="#343434" stroke-width="1.5" stroke-linecap="round" stroke-linejoin="round"/>
<path d="M4.99389 14.7122L3.56128 16.1447" stroke="#343434" stroke-width="1.5" stroke-linecap="round" stroke-linejoin="round"/>
</svg>
