<svg width="40" height="40" viewBox="0 0 40 40" fill="none" xmlns="http://www.w3.org/2000/svg">
<path fill-rule="evenodd" clip-rule="evenodd" d="M4.48226 20.065C5.68755 20.065 6.66471 21.0307 6.66471 22.2218V37.7769C6.66471 38.968 5.68755 39.9337 4.48226 39.9337C3.27696 39.9337 2.2998 38.968 2.2998 37.7769V22.2218C2.2998 21.0307 3.27696 20.065 4.48226 20.065Z" fill="white"/>
<path fill-rule="evenodd" clip-rule="evenodd" d="M18.1217 5.59132C17.5985 7.48988 15.8074 8.88865 13.6782 8.88865C11.1387 8.88865 9.08008 6.89877 9.08008 4.44432C9.08008 4.26962 9.09041 4.09722 9.11078 3.9277C10.8512 4.93766 12.3901 5.51827 14.0019 5.73151C15.3513 5.90995 16.6819 5.82037 18.1217 5.59132ZM10.3925 1.33521C11.2272 0.511307 12.3909 0 13.6782 0C15.581 0 17.2139 1.11723 17.913 2.70996C16.5135 2.94707 15.4281 3.01882 14.3881 2.88121C13.2154 2.72606 11.9953 2.28895 10.3925 1.33521Z" fill="white"/>
<path fill-rule="evenodd" clip-rule="evenodd" d="M11.7096 0.42676C11.4275 0.556169 11.1613 0.712466 10.9144 0.8922C10.729 1.02707 10.5545 1.17532 10.3925 1.33521C10.4571 1.3736 10.5209 1.41113 10.5842 1.44794C11.7798 2.14171 12.762 2.5423 13.6782 2.75281C13.9184 2.80802 14.1543 2.85015 14.3881 2.88121C15.3644 3.01033 16.3807 2.95497 17.6593 2.75166C17.7428 2.73843 17.8273 2.72448 17.913 2.70996C17.8095 2.47372 17.6852 2.24797 17.5425 2.03474C17.3891 1.80539 17.2145 1.59058 17.0213 1.39301C16.4205 0.77832 15.6402 0.329273 14.7616 0.124088C14.4141 0.0429923 14.0514 0 13.6782 0C12.9737 0 12.3063 0.153133 11.7096 0.42676ZM18.1217 5.59132C17.9634 6.16575 17.6891 6.69445 17.3244 7.15241C16.4837 8.20825 15.1632 8.88865 13.6782 8.88865C13.6434 8.88865 13.609 8.88822 13.5743 8.8875C11.5132 8.84336 9.78647 7.4883 9.25147 5.6507C9.13973 5.26708 9.08008 4.86246 9.08008 4.44432C9.08008 4.26962 9.09041 4.09722 9.11078 3.9277C9.43262 4.11448 9.74747 4.28659 10.0574 4.44432C11.3104 5.0826 12.479 5.48693 13.6782 5.68348C13.7859 5.70117 13.8937 5.71713 14.0019 5.73151C15.3513 5.90995 16.6819 5.82037 18.1217 5.59132Z" fill="white"/>
<path d="M21.7241 3.88932C21.7241 5.42339 20.9521 6.667 19.9998 6.667C19.0474 6.667 18.2754 5.42339 18.2754 3.88932C18.2754 2.35525 19.0474 1.11163 19.9998 1.11163C20.9521 1.11163 21.7241 2.35525 21.7241 3.88932Z" fill="white"/>
<path fill-rule="evenodd" clip-rule="evenodd" d="M18.4268 5.0284C18.6967 5.99451 19.2994 6.667 19.9999 6.667C20.7001 6.667 21.3029 5.99451 21.5728 5.0284C21.1826 5.24969 20.6633 5.42525 19.9999 5.42525C19.3363 5.42525 18.817 5.24969 18.4268 5.0284ZM21.5728 2.75009C21.1826 2.52895 20.6633 2.35338 19.9999 2.35338C19.3363 2.35338 18.817 2.52895 18.4268 2.75009C18.6967 1.78413 19.2994 1.11163 19.9999 1.11163C20.7001 1.11163 21.3029 1.78413 21.5728 2.75009Z" fill="white"/>
<path fill-rule="evenodd" clip-rule="evenodd" d="M2.53165 14.1199C4.12484 11.8793 6.58315 10.0659 9.65444 10.0659C10.6463 10.0659 11.5133 10.7267 11.7653 11.6747L13.4726 18.0977H17.7011C18.9066 18.0977 19.8836 19.0632 19.8836 20.2545C19.8836 21.4456 18.9066 22.4113 17.7011 22.4113H11.7893C10.7975 22.4113 9.93045 21.7503 9.67845 20.8025L8.83864 17.643C7.57239 20.3259 6.4912 23.8725 6.4912 27.7777C6.4912 28.7499 5.83312 29.6018 4.88433 29.8582C3.93555 30.1146 2.93045 29.712 2.42994 28.8751L4.30874 27.7777C2.42994 28.8751 2.43009 28.8754 2.42994 28.8751L2.42616 28.8688L2.41932 28.8574L2.39692 28.8193C2.37829 28.7874 2.3521 28.7425 2.31951 28.686C2.25462 28.5729 2.16383 28.4124 2.05587 28.2147C1.84097 27.8212 1.55289 27.2709 1.26262 26.647C0.974538 26.0277 0.670595 25.3063 0.435035 24.5749C0.208351 23.8712 0 23.023 0 22.1907C0 19.2986 0.93118 16.3708 2.53165 14.1199Z" fill="white"/>
<path d="M38.9678 8.88848C38.9678 11.3431 36.9091 13.3328 34.3696 13.3328C31.8301 13.3328 29.7715 11.3431 29.7715 8.88848C29.7715 6.43403 31.8301 4.44415 34.3696 4.44415C36.9091 4.44415 38.9678 6.43403 38.9678 8.88848Z" fill="white"/>
<path fill-rule="evenodd" clip-rule="evenodd" d="M34.6004 8.90573C34.6015 8.903 34.6029 8.89998 34.6029 8.88848C34.6029 8.87712 34.6015 8.87396 34.6004 8.87122C34.5978 8.86518 34.5892 8.84922 34.5691 8.82981C34.5295 8.79156 34.4668 8.75777 34.3696 8.75777C34.2726 8.75777 34.2097 8.79156 34.1703 8.82981C34.1502 8.84922 34.1418 8.86475 34.1392 8.87079C34.138 8.87352 34.1364 8.87712 34.1364 8.88848C34.1364 8.89998 34.1377 8.903 34.139 8.90573C34.1416 8.91177 34.1502 8.92787 34.1703 8.94729C34.2097 8.98539 34.2726 9.01918 34.3696 9.01918C34.4668 9.01918 34.5295 8.98539 34.5691 8.94729C34.5892 8.92787 34.5978 8.91177 34.6004 8.90573ZM34.3696 13.3328C36.9091 13.3328 38.9678 11.3431 38.9678 8.88848C38.9678 6.43403 36.9091 4.44415 34.3696 4.44415C31.8301 4.44415 29.7715 6.43403 29.7715 8.88848C29.7715 11.3431 31.8301 13.3328 34.3696 13.3328Z" fill="white"/>
<path fill-rule="evenodd" clip-rule="evenodd" d="M30.4725 16.0282C31.4502 16.7247 31.6715 18.0727 30.9667 19.0389C29.6572 20.8342 28.9714 22.1808 28.6261 23.5909C28.2753 25.0245 28.2331 26.699 28.4936 29.2254C28.6158 30.4103 27.7428 31.4689 26.5436 31.5897C25.3446 31.7105 24.2734 30.8477 24.1512 29.6627C23.8704 26.9395 23.8633 24.703 24.3836 22.5767C24.9098 20.427 25.9315 18.5653 27.4258 16.5166C28.1305 15.5504 29.4946 15.3317 30.4725 16.0282Z" fill="white"/>
<path fill-rule="evenodd" clip-rule="evenodd" d="M27.7612 13.4449C28.7583 13.2373 29.7681 13.7392 30.1938 14.6543L33.2634 21.2501H37.8178C39.0233 21.2501 40.0003 22.2158 40.0003 23.4069C40.0003 24.5982 39.0233 25.5637 37.8178 25.5637H31.865C31.0127 25.5637 30.2383 25.0734 29.8822 24.3082L27.2539 18.6605C27.227 18.6891 27.1999 18.7185 27.1727 18.7487C26.2945 19.7237 25.1307 21.7607 25.0598 25.8949C25.1339 25.9518 25.2373 26.024 25.3776 26.1088C25.9882 26.4784 26.9019 26.8555 27.9597 27.2088C28.9919 27.5535 30.0479 27.8387 30.8888 28.0554C31.0764 28.1037 31.2725 28.1535 31.4537 28.1995C31.646 28.2484 31.8213 28.2928 31.9518 28.3269C32.0882 28.3624 32.2286 28.4 32.3482 28.4356C32.4062 28.453 32.487 28.478 32.5722 28.5094C32.5728 28.5095 32.5738 28.5099 32.5753 28.5104C32.6089 28.5223 32.8678 28.6135 33.1275 28.7957C33.3536 28.9541 33.5097 29.131 33.5373 29.1625C33.5386 29.1639 33.5397 29.165 33.5404 29.1659C33.5977 29.23 33.6483 29.2923 33.6859 29.3399C33.7633 29.4375 33.848 29.5515 33.9315 29.6664C34.1013 29.9005 34.317 30.2095 34.5561 30.5575C35.0367 31.2572 35.6451 32.164 36.2394 33.0564C36.8347 33.9506 37.4203 34.8375 37.857 35.5005C38.0754 35.8322 38.2567 36.108 38.3834 36.3011L38.5827 36.605L34.9182 38.9486L34.7215 38.6487C34.5957 38.457 34.4157 38.183 34.1986 37.8534C33.7643 37.1938 33.1829 36.3134 32.5929 35.4274C32.0019 34.5397 31.4071 33.6537 30.9446 32.9802C30.7989 32.7682 30.6697 32.5822 30.5599 32.4263C30.5053 32.4123 30.4484 32.398 30.3886 32.3829C30.2183 32.3397 30.0237 32.2904 29.7874 32.2294C28.9155 32.0047 27.7417 31.6892 26.5624 31.2954C25.4086 30.91 24.1285 30.411 23.0987 29.7878C22.5846 29.4769 22.0332 29.0763 21.5891 28.5627C21.1395 28.0428 20.6914 27.2748 20.6914 26.2958C20.6914 21.0708 22.1499 17.8373 23.9123 15.8807C24.7783 14.919 25.6678 14.3233 26.378 13.962C26.7317 13.782 27.0396 13.6607 27.2772 13.5807C27.3961 13.5405 27.4978 13.5106 27.5792 13.4888C27.62 13.4778 27.6558 13.4689 27.6862 13.4617L27.7278 13.4521L27.7455 13.4482L27.7537 13.4465L27.7575 13.4458C27.7594 13.4453 27.7612 13.4449 28.2111 15.5554L27.7612 13.4449ZM34.9182 38.9486C35.573 39.9487 36.9242 40.2348 37.9361 39.5876C38.9481 38.9404 39.2375 37.6051 38.5827 36.605L34.9182 38.9486Z" fill="white"/>
<path d="M10.2295 28.8874H27.4726V32.2207H10.2295V28.8874Z" fill="white"/>
<path fill-rule="evenodd" clip-rule="evenodd" d="M27.4726 28.8874H10.2295V32.2207H27.4726V28.8874Z" fill="white"/>
<path d="M10.2295 40V31.1115H12.5286V40H10.2295Z" fill="white"/>
<path fill-rule="evenodd" clip-rule="evenodd" d="M10.2295 31.1115V40H12.5286V31.1115H10.2295Z" fill="white"/>
<path d="M25.1748 40V31.1115H27.4739V40H25.1748Z" fill="white"/>
<path fill-rule="evenodd" clip-rule="evenodd" d="M25.1748 31.1115V40H27.4739V31.1115H25.1748Z" fill="white"/>
</svg>
