<svg width="40" height="40" viewBox="0 0 40 40" fill="none" xmlns="http://www.w3.org/2000/svg">
<path fill-rule="evenodd" clip-rule="evenodd" d="M32.2229 37.7778C35.291 37.7778 37.7783 35.2904 37.7783 32.2221C37.7783 29.1539 35.291 26.6665 32.2229 26.6665C29.1547 26.6665 26.6675 29.1539 26.6675 32.2221C26.6675 35.2904 29.1547 37.7778 32.2229 37.7778ZM32.2229 40C36.5183 40 40.0005 36.5177 40.0005 32.2221C40.0005 27.9266 36.5183 24.4443 32.2229 24.4443C27.9274 24.4443 24.4453 27.9266 24.4453 32.2221C24.4453 36.5177 27.9274 40 32.2229 40Z" fill="white"/>
<path fill-rule="evenodd" clip-rule="evenodd" d="M32.2224 28.3343C32.8361 28.3343 33.3335 28.8318 33.3335 29.4454V31.763L34.1191 32.5487C34.553 32.9826 34.553 33.6861 34.1191 34.12C33.6853 34.5539 32.9817 34.5539 32.5478 34.12L31.1113 32.6835V29.4454C31.1113 28.8318 31.6088 28.3343 32.2224 28.3343Z" fill="white"/>
<path fill-rule="evenodd" clip-rule="evenodd" d="M8.88964 18.889H6.66748V21.1112H8.88964V18.889ZM6.66748 16.6667C5.44017 16.6667 4.44531 17.6616 4.44531 18.889V21.1112C4.44531 22.3386 5.44017 23.3335 6.66748 23.3335H8.88964C10.1169 23.3335 11.1118 22.3386 11.1118 21.1112V18.889C11.1118 17.6616 10.1169 16.6667 8.88964 16.6667H6.66748Z" fill="white"/>
<path fill-rule="evenodd" clip-rule="evenodd" d="M17.7773 18.889H15.5552V21.1112H17.7773V18.889ZM15.5552 16.6667C14.3279 16.6667 13.333 17.6616 13.333 18.889V21.1112C13.333 22.3386 14.3279 23.3335 15.5552 23.3335H17.7773C19.0046 23.3335 19.9995 22.3386 19.9995 21.1112V18.889C19.9995 17.6616 19.0046 16.6667 17.7773 16.6667H15.5552Z" fill="white"/>
<path fill-rule="evenodd" clip-rule="evenodd" d="M26.665 18.889H24.4429V21.1112H26.665V18.889ZM24.4429 16.6667C23.2156 16.6667 22.2207 17.6616 22.2207 18.889V21.1112C22.2207 22.3386 23.2156 23.3335 24.4429 23.3335H26.665C27.8923 23.3335 28.8872 22.3386 28.8872 21.1112V18.889C28.8872 17.6616 27.8923 16.6667 26.665 16.6667H24.4429Z" fill="white"/>
<path fill-rule="evenodd" clip-rule="evenodd" d="M8.88964 27.7774H6.66748V29.9996H8.88964V27.7774ZM6.66748 25.5551C5.44017 25.5551 4.44531 26.55 4.44531 27.7774V29.9996C4.44531 31.227 5.44017 32.2219 6.66748 32.2219H8.88964C10.1169 32.2219 11.1118 31.227 11.1118 29.9996V27.7774C11.1118 26.55 10.1169 25.5551 8.88964 25.5551H6.66748Z" fill="white"/>
<path fill-rule="evenodd" clip-rule="evenodd" d="M17.7773 27.7774H15.5552V29.9996H17.7773V27.7774ZM15.5552 25.5551C14.3279 25.5551 13.333 26.55 13.333 27.7774V29.9996C13.333 31.227 14.3279 32.2219 15.5552 32.2219H17.7773C19.0046 32.2219 19.9995 31.227 19.9995 29.9996V27.7774C19.9995 26.55 19.0046 25.5551 17.7773 25.5551H15.5552Z" fill="white"/>
<path fill-rule="evenodd" clip-rule="evenodd" d="M2.22216 6.6667C2.22216 6.05303 2.71962 5.55558 3.33324 5.55558H8.88865V3.33334H3.33324C1.49235 3.33334 0 4.82569 0 6.6667V33.3336C0 35.1746 1.49235 36.667 3.33324 36.667H25.8379C25.3698 35.9958 25.0048 35.2474 24.7659 34.4447H3.33324C2.71962 34.4447 2.22216 33.9473 2.22216 33.3336V6.6667ZM31.1103 24.5234C31.4732 24.4715 31.8442 24.4446 32.2214 24.4446C32.5986 24.4446 32.9696 24.4715 33.3324 24.5234V6.6667C33.3324 4.8258 31.8402 3.33334 29.9992 3.33334H26.666V5.55558H29.9992C30.6129 5.55558 31.1103 6.05303 31.1103 6.6667V24.5234ZM11.1108 5.55558H22.8466V3.33334H11.1108V5.55558Z" fill="white"/>
<path fill-rule="evenodd" clip-rule="evenodd" d="M24.444 3.33334H11.1111V6.6667C11.1111 7.28038 10.6136 7.77783 9.99998 7.77783C9.38633 7.77783 8.8889 7.28038 8.8889 6.6667V3.33334H3.33349C2.10622 3.33334 1.11133 4.32827 1.11133 5.55558V11.1112C1.11133 12.3385 2.10622 13.3334 3.33349 13.3334H29.9994C31.2267 13.3334 32.2216 12.3378 32.2216 11.1104V5.55625C32.2216 4.329 31.2267 3.33334 29.9994 3.33334H26.6662V6.6667C26.6662 7.28038 26.1688 7.77783 25.5551 7.77783C24.9415 7.77783 24.444 7.28038 24.444 6.6667V3.33334Z" fill="white"/>
<path fill-rule="evenodd" clip-rule="evenodd" d="M33.332 13.3348H2.22168V11.1125H33.332V13.3348Z" fill="white"/>
<path d="M6.66699 1.11112C6.66699 0.497471 7.16442 0 7.77807 0C8.39172 0 8.88916 0.497471 8.88916 1.11112V5.5556C8.88916 6.16927 8.39172 6.66672 7.77807 6.66672C7.16442 6.66672 6.66699 6.16927 6.66699 5.5556V1.11112Z" fill="white"/>
<path d="M22.2207 1.11112C22.2207 0.497471 22.7181 0 23.3318 0C23.9454 0 24.4429 0.497471 24.4429 1.11112V5.5556C24.4429 6.16927 23.9454 6.66672 23.3318 6.66672C22.7181 6.66672 22.2207 6.16927 22.2207 5.5556V1.11112Z" fill="white"/>
</svg>
