<svg width="12" height="15" viewBox="0 0 12 15" fill="none" xmlns="http://www.w3.org/2000/svg">
<path d="M7.70731 5.2334C7.62008 5.2334 7.53643 5.26805 7.47475 5.32973C7.41307 5.39141 7.37842 5.47506 7.37842 5.56229V11.7846C7.37842 11.8278 7.38694 11.8706 7.40349 11.9106C7.42003 11.9505 7.44429 11.9868 7.47487 12.0174C7.50544 12.048 7.54174 12.0722 7.58169 12.0888C7.62163 12.1053 7.66445 12.1139 7.70769 12.1139C7.75093 12.1139 7.79374 12.1053 7.83369 12.0888C7.87364 12.0722 7.90994 12.048 7.94051 12.0174C7.97109 11.9868 7.99535 11.9505 8.01189 11.9106C8.02844 11.8706 8.03695 11.8278 8.03695 11.7846V5.56229C8.03695 5.51904 8.02842 5.4762 8.01185 5.43625C7.99527 5.3963 7.97097 5.36002 7.94035 5.32947C7.90973 5.29892 7.87339 5.2747 7.8334 5.25821C7.79341 5.24173 7.75056 5.2333 7.70731 5.2334Z" fill="white"/>
<path d="M3.82229 5.2334C3.73507 5.2334 3.65141 5.26805 3.58973 5.32973C3.52806 5.39141 3.49341 5.47506 3.49341 5.56229V11.7846C3.49341 11.8719 3.5281 11.9557 3.58984 12.0174C3.65159 12.0792 3.73534 12.1139 3.82267 12.1139C3.90999 12.1139 3.99375 12.0792 4.0555 12.0174C4.11725 11.9557 4.15193 11.8719 4.15193 11.7846V5.56229C4.15193 5.51904 4.14341 5.4762 4.12683 5.43625C4.11026 5.3963 4.08596 5.36002 4.05534 5.32947C4.02472 5.29892 3.98837 5.2747 3.94838 5.25821C3.90839 5.24173 3.86555 5.2333 3.82229 5.2334Z" fill="white"/>
<path d="M0.991857 4.32692V12.4354C0.987137 12.8992 1.15982 13.3473 1.47458 13.688C1.62577 13.8483 1.80804 13.976 2.01025 14.0634C2.21247 14.1508 2.43038 14.1961 2.65068 14.1965H8.87981C9.10011 14.1961 9.31802 14.1508 9.52024 14.0634C9.72245 13.976 9.90472 13.8483 10.0559 13.688C10.3707 13.3473 10.5434 12.8992 10.5386 12.4354V4.32692C10.8331 4.2477 11.0888 4.06422 11.2581 3.81061C11.4274 3.557 11.4988 3.25052 11.459 2.94819C11.4193 2.64586 11.2711 2.36826 11.042 2.16703C10.8129 1.9658 10.5185 1.85463 10.2135 1.85422H8.53046V1.44273C8.53127 1.27152 8.49808 1.10185 8.43281 0.943555C8.36755 0.785264 8.27151 0.641505 8.15026 0.520613C8.02902 0.39972 7.88498 0.3041 7.7265 0.239298C7.56802 0.174495 7.39825 0.141798 7.22704 0.143104H4.30269C4.13141 0.141797 3.96158 0.174518 3.80305 0.239368C3.64452 0.304218 3.50045 0.399906 3.3792 0.520879C3.25794 0.641852 3.16192 0.785701 3.0967 0.94408C3.03148 1.10246 2.99836 1.27221 2.99927 1.44349V1.85498H1.31392C1.00869 1.85526 0.713973 1.96651 0.484693 2.168C0.255414 2.36948 0.107213 2.64746 0.067711 2.95012C0.0282088 3.25279 0.1001 3.55949 0.269986 3.81308C0.439872 4.06666 0.696164 4.24983 0.991099 4.32844L0.991857 4.32692ZM8.87981 13.5418H2.65068C2.5121 13.5364 2.37599 13.5034 2.25032 13.4447C2.12465 13.3861 2.01194 13.3029 1.91879 13.2002C1.82564 13.0975 1.75392 12.9772 1.70784 12.8464C1.66175 12.7156 1.64222 12.5769 1.65039 12.4384V4.35572H9.88086V12.4384C9.88892 12.5769 9.86929 12.7155 9.82311 12.8463C9.77693 12.9771 9.70513 13.0973 9.61191 13.2C9.51869 13.3026 9.40593 13.3857 9.28022 13.4443C9.15451 13.5028 9.01838 13.5357 8.87981 13.541V13.5418ZM3.65856 1.44273C3.65743 1.3579 3.67334 1.27371 3.70533 1.19514C3.73732 1.11656 3.78475 1.04521 3.84481 0.985288C3.90487 0.92537 3.97634 0.87811 4.05498 0.846304C4.13363 0.814498 4.21786 0.798792 4.30269 0.800117H7.22704C7.31193 0.79859 7.39626 0.81412 7.47504 0.845787C7.55381 0.877455 7.62543 0.924615 7.68564 0.984473C7.74585 1.04433 7.79343 1.11567 7.82556 1.19425C7.85769 1.27284 7.87372 1.35708 7.87269 1.44197V1.85346H3.65856V1.44273ZM1.31392 2.51275H10.2135C10.3707 2.51275 10.5214 2.57518 10.6326 2.68632C10.7437 2.79745 10.8061 2.94818 10.8061 3.10535C10.8061 3.26251 10.7437 3.41325 10.6326 3.52438C10.5214 3.63551 10.3707 3.69795 10.2135 3.69795H1.31392C1.15675 3.69795 1.00602 3.63551 0.89489 3.52438C0.783756 3.41325 0.721322 3.26251 0.721322 3.10535C0.721322 2.94818 0.783756 2.79745 0.89489 2.68632C1.00602 2.57518 1.15675 2.51275 1.31392 2.51275Z" fill="white"/>
<path d="M5.76517 5.2334C5.67794 5.2334 5.59429 5.26805 5.53261 5.32973C5.47093 5.39141 5.43628 5.47506 5.43628 5.56229V11.7846C5.43628 11.8719 5.47098 11.9557 5.53273 12.0174C5.59448 12.0792 5.67822 12.1139 5.76555 12.1139C5.85288 12.1139 5.93663 12.0792 5.99837 12.0174C6.06012 11.9557 6.09481 11.8719 6.09481 11.7846V5.56229C6.09481 5.51904 6.08628 5.4762 6.06971 5.43625C6.05313 5.3963 6.02883 5.36002 5.99821 5.32947C5.96759 5.29892 5.93125 5.2747 5.89127 5.25821C5.85128 5.24173 5.80842 5.2333 5.76517 5.2334Z" fill="white"/>
</svg>
