<svg width="26" height="28" viewBox="0 0 26 28" fill="none" xmlns="http://www.w3.org/2000/svg">
<path fill-rule="evenodd" clip-rule="evenodd" d="M0 12.8999C0 15.8913 1.01824 18.645 2.72704 20.8331L1.769 23.1011C0.923719 25.1022 2.39278 27.3175 4.56506 27.3175H21.2349C23.4071 27.3175 24.8762 25.1022 24.0309 23.1011L23.0729 20.8331C24.7816 18.645 25.7999 15.8913 25.7999 12.8999C25.7999 5.77553 20.0243 0 12.8999 0C5.77553 0 0 5.77553 0 12.8999ZM16.694 19.7293L17.9081 25.7999H21.2349C22.3211 25.7999 23.0555 24.6922 22.6329 23.6917L19.046 15.2001C18.8086 14.6382 18.2579 14.2731 17.6479 14.2731H16.4176C16.7824 13.8296 17.0651 13.316 17.2422 12.7555H17.6479C18.2583 12.7555 18.8391 12.9383 19.3265 13.2618C19.3813 12.923 19.4098 12.5753 19.4098 12.221C19.4098 8.64773 16.5131 5.75102 12.9398 5.75102C9.36664 5.75102 6.46992 8.64773 6.46992 12.221C6.46992 12.5591 6.49587 12.8911 6.54588 13.2152C7.01786 12.9208 7.5715 12.7555 8.152 12.7555H8.55774C8.73485 13.316 9.01751 13.8296 9.38235 14.2731H8.152C7.54206 14.2731 6.99131 14.6382 6.75395 15.2001L3.16701 23.6917C2.74442 24.6922 3.47888 25.7999 4.56506 25.7999H7.89172L9.10583 19.7293H8.66154L7.15035 24.2627C6.95162 24.8592 6.307 25.1814 5.71065 24.9826C5.11421 24.7839 4.79194 24.1393 4.99075 23.5429L6.92127 17.7512C7.28277 16.6667 8.29769 15.9352 9.44085 15.9352H16.359C17.5022 15.9352 18.5171 16.6667 18.8786 17.7512L20.8091 23.5429C21.0079 24.1393 20.6856 24.7839 20.0892 24.9826C19.4929 25.1814 18.8482 24.8592 18.6495 24.2627L17.1383 19.7293H16.694ZM9.7248 4.30205C10.7647 3.87984 11.8776 3.66662 12.9999 3.67451C14.1223 3.6824 15.2321 3.91126 16.266 4.34803L16.8566 2.95006C15.6391 2.4357 14.3323 2.16619 13.0106 2.15689C11.689 2.1476 10.3784 2.39871 9.15386 2.8959L9.7248 4.30205Z" fill="#6B6C7E"/>
</svg>
