<svg width="26" height="28" viewBox="0 0 26 28" fill="none" xmlns="http://www.w3.org/2000/svg">
<path d="M10.9068 1.04521L9.76721 1.70684L8.83511 0L6.82393 1.12666L7.77308 2.86462L6.61968 3.53424L7.43126 4.9685C6.85643 5.69655 6.74853 6.73787 7.23794 7.59654L7.69332 8.39544C5.58786 9.63213 3.96622 11.1093 3.05982 12.9456C2.18593 14.7161 2.0205 16.7306 2.60275 19.0147C1.00713 20.4447 0 22.5418 0 24.879C0 25.9888 0.227041 27.0443 0.636304 28H25.2353C25.6576 28 26 27.6507 26 27.2198C26 26.7889 25.6576 26.4395 25.2353 26.4395H15.1412C15.2414 25.9353 15.2941 25.4135 15.2941 24.879C15.2941 23.6801 15.0291 22.5444 14.5556 21.5295L23.7643 16.2346L23.0051 14.8799L13.7675 20.1915L14.5266 21.5461L9.54521 24.4104L8.78609 23.0557L13.7628 20.1941C12.3674 18.3009 10.1474 17.0765 7.64706 17.0765C6.30714 17.0765 5.04775 17.4282 3.95261 18.0459C3.61507 16.3206 3.81565 14.8836 4.42581 13.6475C5.15075 12.1789 6.5023 10.8946 8.46216 9.74441L10.6965 13.6645C11.3334 14.7819 12.7408 15.1668 13.8401 14.5239L14.3503 14.2255L14.8161 15.1441L16.8608 14.0811L16.3431 13.0601L16.9919 12.6806C18.0911 12.0378 18.4659 10.6107 17.829 9.49317L14.3704 3.42524C13.8141 2.44918 12.67 2.03209 11.6568 2.37052L10.9068 1.04521Z" fill="#6B6C7E"/>
</svg>
