<svg width="278" height="199" viewBox="0 0 278 199" fill="none" xmlns="http://www.w3.org/2000/svg">
<g clip-path="url(#clip0_131_2162)">
<path d="M198.722 188.034L11.4125 188.144C11.8381 147.781 15.6682 86.0128 46.5756 73.9686C82.9482 59.8022 122.86 62.2969 151.274 26.8845C183.263 -12.9815 272.762 -13.0276 272.762 57.6197C272.762 78.6599 276.06 99.732 275.404 120.744C274.822 139.406 267.733 161.444 253.441 174.162C240.393 185.774 219.831 188.141 203.081 188.119C201.623 188.116 200.173 188.08 198.722 188.034Z" fill="url(#paint0_linear_131_2162)"/>
<path d="M11.4125 188.145C11.4125 188.145 11.9515 111.198 47.8169 99.1435C83.6823 87.0886 124.818 89.0156 154.211 57.3932C183.604 25.7708 268.609 24.2093 268.609 80.7684C268.609 98.7319 272.074 115.521 276.447 132.81C279.78 145.983 277.936 160.82 269.038 171.658C258.704 184.241 242.294 186.562 227.016 188.006C217.641 188.934 208.215 189.226 198.8 188.879L11.4125 188.145Z" fill="url(#paint1_linear_131_2162)"/>
<path d="M52.4663 111.109H49.4199V188.283H52.4663V111.109Z" fill="#164A6F"/>
<path d="M229.871 111.109H227.041V188.283H229.871V111.109Z" fill="#164A6F"/>
<path d="M227.041 164.826H52.4663V169.656H227.041V164.826Z" fill="#2775A1"/>
<path d="M250.096 105.243H32.4679C30.282 105.243 28.51 107.016 28.51 109.204V113.011C28.51 115.198 30.282 116.972 32.4679 116.972H250.096C252.282 116.972 254.054 115.198 254.054 113.011V109.204C254.054 107.016 252.282 105.243 250.096 105.243Z" fill="#1D6294"/>
<path d="M249.27 105.35H206.656C206.656 104.169 206.888 102.999 207.34 101.908C207.792 100.816 208.454 99.8247 209.289 98.9893C210.124 98.154 211.115 97.4914 212.206 97.0393C213.296 96.5872 214.466 96.3545 215.646 96.3545H249.27V105.35Z" fill="#32A4EA"/>
<path d="M51.6116 98.5576H36.5853C33.2481 98.5576 35.6206 104.31 38.4401 105.091C41.2595 105.871 45.416 105.091 50.7605 105.091C56.105 105.091 51.6116 98.5576 51.6116 98.5576Z" fill="#FC7575"/>
<path d="M139.209 73.9762L146.089 106.269C154.477 106.269 162.47 106.269 169.631 106.269L176.408 74.8776C163.747 63.2556 141.986 63.8411 139.209 73.9762Z" fill="#FC7575"/>
<path d="M209.287 84.0257C199.691 74.423 179.579 76.9674 175.124 71.4775L169.631 106.272C184.92 106.255 196.421 106.205 199.882 106.109C213.561 105.722 216.125 98.8912 216.125 98.8912C216.125 98.8912 217.639 92.3829 209.287 84.0257Z" fill="#9DE5F4"/>
<path d="M214.352 90.7361C219.756 92.0243 229.335 90.9455 229.335 90.9455L231.662 97.5886C231.662 97.5886 215.625 99.4801 215.625 99.2175C212.078 96.9854 211.724 90.4274 214.352 90.7361Z" fill="#FC7575"/>
<path d="M242.667 83.0391C242.667 83.0391 236.283 88.0711 235.513 90.1364C234.744 92.2018 233.503 96.8293 233.503 96.8293C233.503 96.8293 224.197 98.4226 222.097 98.6533C222.097 98.6533 223.636 106.947 237.875 103.515C243.301 102.206 246.742 101.641 249.086 96.1657C251.43 90.69 247.898 84.8524 242.667 83.0391Z" fill="#18287D"/>
<path d="M244.429 87.1591C244.429 87.1591 243.213 83.5891 240.443 83.2555C237.673 82.9219 236.294 83.5749 234.957 83.4117C233.62 83.2484 231.13 83.4117 227.293 84.9944C223.455 86.5771 225.629 91.9924 228.378 95.0904C231.474 98.5823 232.417 98.9053 237.411 98.8982C242.404 98.8911 246.529 92.8689 244.429 87.1591Z" fill="#FC7575"/>
<path d="M231.435 87.0034C231.857 87.0638 231.36 86.4818 232.719 85.5059C233.328 85.8802 234.02 86.0984 234.733 86.1411C233.97 85.9672 233.275 85.5708 232.736 85.002C232.697 85.0374 231.414 85.7898 231.261 86.7763C231.255 86.8293 231.27 86.8826 231.302 86.925C231.335 86.9674 231.382 86.9955 231.435 87.0034Z" fill="#2846A6"/>
<path d="M234.559 89.2777C234.511 89.2168 234.476 89.1471 234.455 89.0724C234.434 88.9977 234.429 88.9197 234.438 88.8428C234.448 88.7659 234.473 88.6916 234.511 88.6243C234.549 88.5571 234.601 88.4981 234.662 88.4509C234.724 88.4026 234.795 88.3669 234.87 88.3459C234.945 88.325 235.024 88.3191 235.102 88.3287C235.18 88.3382 235.255 88.363 235.323 88.4017C235.391 88.4403 235.451 88.492 235.499 88.5538C235.547 88.615 235.581 88.685 235.602 88.7597C235.622 88.8345 235.627 88.9125 235.617 88.9893C235.607 89.0661 235.583 89.1401 235.544 89.2073C235.505 89.2744 235.454 89.3333 235.393 89.3806C235.268 89.4761 235.111 89.5189 234.955 89.4996C234.799 89.4804 234.657 89.4007 234.559 89.2777Z" fill="#2846A6"/>
<path d="M234.722 84.3882C234.675 84.3273 234.639 84.2575 234.618 84.1829C234.598 84.1082 234.592 84.0302 234.601 83.9532C234.611 83.8763 234.636 83.8021 234.674 83.7348C234.713 83.6675 234.764 83.6086 234.825 83.5613C234.951 83.4656 235.108 83.4228 235.265 83.442C235.421 83.4612 235.564 83.541 235.662 83.6642C235.71 83.7251 235.746 83.7949 235.767 83.8695C235.787 83.9442 235.793 84.0222 235.784 84.0992C235.774 84.1761 235.749 84.2503 235.711 84.3176C235.672 84.3849 235.621 84.4438 235.559 84.4911C235.498 84.5394 235.427 84.575 235.352 84.596C235.276 84.617 235.197 84.6228 235.12 84.6133C235.042 84.6037 234.967 84.5789 234.899 84.5403C234.831 84.5017 234.771 84.45 234.722 84.3882Z" fill="#2846A6"/>
<path d="M236.013 87.1592C236.077 87.8336 236.006 88.5139 235.804 89.1606C235.692 89.4766 235.557 89.7838 235.4 90.0798C235.252 90.3806 235.08 90.669 234.886 90.9421C234.898 90.6024 234.96 90.2665 235.07 89.9449C235.162 89.622 235.325 89.3203 235.425 89.0329C235.655 88.4367 235.811 87.8015 236.013 87.1592Z" fill="#0F1D5B"/>
<path d="M236.109 82.7275C236.124 83.2373 236.039 83.7449 235.857 84.2215C235.756 84.4662 235.638 84.7034 235.503 84.9313C235.373 85.1622 235.227 85.384 235.067 85.5949C235.093 85.3376 235.157 85.0855 235.254 84.8461C235.34 84.6048 235.478 84.3706 235.574 84.1541C235.776 83.6928 235.928 83.2102 236.109 82.7275Z" fill="#0F1D5B"/>
<path d="M237.804 87.1699L237.074 87.4467C237.074 87.4467 237.18 89.2211 236.453 90.0053C236.453 90.0053 238.248 88.6675 237.804 87.1699Z" fill="#0F1D5B"/>
<path d="M238.063 83.2061L237.379 83.3267C237.379 83.3267 237.485 85.1011 236.758 85.8818C236.758 85.8782 238.507 84.7036 238.063 83.2061Z" fill="#0F1D5B"/>
<path d="M229.502 85.5479C229.648 86.82 229.938 88.0713 230.367 89.2775C230.367 89.2775 227.846 87.7232 227.966 86.7686C228.087 85.814 229.502 85.5479 229.502 85.5479Z" fill="white"/>
<path d="M247.015 83.7492C247.015 83.7492 246.554 80.9102 243.802 81.2651C241.049 81.6199 237.719 88.405 238.273 93.0574C238.482 94.8033 237.439 94.7678 236.758 95.435C235.62 96.5422 234.23 97.4897 232.08 96.4357C228.644 94.7501 230.47 93.2809 230.47 93.2809C230.47 93.2809 228.371 94.5904 229.47 98.6856C230.57 102.781 236.616 103.469 240.177 100.542C243.738 97.6139 245.426 94.5336 246.312 92.0247C248.231 86.5881 247.015 83.7492 247.015 83.7492Z" fill="#2846A6"/>
<path d="M237.538 96.9822C237.538 96.5067 236.152 94.4236 234.655 94.9346C233.158 95.4456 233.045 95.9744 233.715 97.3158C234.386 98.6572 237.538 98.1887 237.538 96.9822Z" fill="#FC7575"/>
<path d="M235.606 95.5667C235.606 95.5667 236.85 96.6064 236.216 97.0962C235.581 97.5859 234.506 97.3907 234.173 96.6739C233.839 95.957 234.864 94.8676 235.606 95.5667Z" fill="#FD5E5A"/>
<path d="M232.627 92.4437C231.953 92.4437 231.407 91.5814 231.407 90.5168C231.407 89.4522 231.953 88.5898 232.627 88.5898C233.3 88.5898 233.847 89.4522 233.847 90.5168C233.847 91.5814 233.3 92.4437 232.627 92.4437Z" fill="#FD5E5A"/>
<path d="M232.268 84.8351C232.843 84.8351 233.332 84.2141 233.456 83.373C232.683 83.4288 231.916 83.5474 231.162 83.7279C231.353 84.3773 231.779 84.8351 232.268 84.8351Z" fill="#FD5E5A"/>
<path d="M171.127 97.6423L169.993 97.7203C157.761 97.8587 142.309 76.7582 135.84 67.0312C110.27 69.384 79.6677 77.3828 64.4321 81.7122C60.2244 82.883 56.3564 85.041 53.1492 88.0071C49.9419 90.9732 47.4878 94.662 45.9905 98.7672C45.111 101.23 44.6216 103.757 44.884 106.109L47.4055 126.738L176.394 131.735L183.866 106.244L171.127 97.6423Z" fill="#7FCDEE"/>
<path d="M50.0512 111.262C49.7887 108.909 50.2781 106.386 51.1577 103.923C52.655 99.8179 55.109 96.1287 58.3163 93.162C61.5235 90.1953 65.3915 88.0366 69.5993 86.8649C84.8313 82.539 111.274 74.2777 135.854 67.0312C110.284 69.384 79.6819 77.3828 64.4463 81.7122C60.2386 82.883 56.3706 85.041 53.1633 88.0071C49.956 90.9732 47.5019 94.662 46.0046 98.7672C45.1251 101.23 44.6357 103.757 44.8982 106.109L47.4197 126.738L51.9627 126.912L50.0512 111.262Z" fill="#CCEBF8"/>
<path d="M47.4197 126.735L176.408 131.735L183.88 106.241L174.308 128.442L47.4197 126.735Z" fill="#056B96"/>
<path d="M208.887 99.2423C208.887 99.2423 206.248 93.9441 199.758 96.1585C193.268 98.3729 179.933 99.7569 176.082 99.2423C172.23 98.7277 158.488 84.9446 158.481 84.8843C158.357 84.0291 157.325 80.7572 156.509 78.635C155.693 76.5129 156.466 74.6676 155.913 74.1956C155.466 73.8124 154.583 74.9586 155.002 76.2965C155.42 77.6343 156.066 79.8203 154.622 79.7458C153.179 79.6713 151.232 71.8287 151.214 71.7506C151.033 70.9805 150.505 69.6214 150.076 70.2956C149.923 70.7002 150.43 73.2375 150.913 74.7244C151.764 77.3114 152.005 78.1418 151.792 78.4647C151.459 78.5144 150.874 76.8572 149.469 73.2304C147.93 69.2523 145.26 67.1763 148.958 75.058C149.976 77.2298 150.547 79.0609 150.306 79.0964C149.561 79.2064 148.99 77.7443 148.317 76.4313C147.643 75.1183 146.079 72.3858 145.795 73.8514C145.795 74.185 146.82 75.8564 147.568 77.0772C149.171 79.7209 149.579 80.4946 149.398 80.9098C148.122 81.0943 146.735 77.9892 145.731 76.5981C145.7 76.5528 145.654 76.5201 145.601 76.5058C145.548 76.4915 145.492 76.4966 145.442 76.5201C145.393 76.5436 145.353 76.584 145.331 76.6341C145.308 76.6842 145.304 76.7406 145.32 76.7933C145.939 78.6076 146.871 80.2998 148.072 81.7934C149.707 83.9226 152.877 86.9319 154.842 88.6637C154.938 89.1143 165.677 102.582 171.808 105.151C177.94 107.72 210.11 109.321 208.887 99.2423Z" fill="#FF9494"/>
<path d="M36.7626 99.0578C36.7626 99.0578 35.5923 97.7802 34.3687 98.5574C33.1452 99.3345 34.6489 100.034 34.6489 100.034C34.487 100.009 34.3216 100.043 34.1824 100.13C34.0433 100.216 33.9396 100.349 33.89 100.506C33.7304 101.063 34.5354 101.286 34.5354 101.286C34.5354 101.286 33.8474 101.506 34.3404 101.996C34.5918 102.276 34.9406 102.45 35.3156 102.482C35.3156 102.482 34.5354 102.837 34.961 103.259C35.3866 103.682 36.298 103.494 36.298 103.494C36.298 103.494 35.8653 103.636 36.2129 103.983C36.5604 104.331 37.4648 104.207 37.4648 103.735C37.4648 103.263 36.908 103.38 36.908 103.38C36.908 103.38 37.2626 102.571 36.6314 102.404C36.6314 102.404 36.8513 101.379 36.103 101.251C36.103 101.251 36.6846 100.342 36.0178 100.204C36.0107 100.2 37.2378 99.5439 36.7626 99.0578Z" fill="#E56565"/>
<path d="M164.847 192.282C164.847 193.074 164.612 193.848 164.172 194.507C163.732 195.165 163.107 195.678 162.376 195.981C161.645 196.284 160.841 196.363 160.064 196.208C159.288 196.053 158.576 195.672 158.016 195.111C157.457 194.551 157.076 193.838 156.922 193.061C156.768 192.284 156.848 191.479 157.151 190.748C157.455 190.017 157.968 189.392 158.626 188.952C159.285 188.513 160.058 188.279 160.85 188.279C161.91 188.28 162.927 188.702 163.676 189.453C164.426 190.204 164.847 191.221 164.847 192.282Z" fill="#334851"/>
<path d="M163.804 192.767C164.069 191.138 162.963 189.603 161.335 189.339C159.707 189.074 158.174 190.18 157.909 191.809C157.645 193.438 158.751 194.973 160.378 195.238C162.006 195.502 163.54 194.396 163.804 192.767Z" fill="#CCEBF8"/>
<path d="M158.846 185.486H162.9V191.555C162.9 192.025 162.713 192.477 162.38 192.809C162.048 193.142 161.597 193.329 161.126 193.329H160.637C160.167 193.329 159.716 193.142 159.383 192.809C159.051 192.477 158.864 192.025 158.864 191.555V185.486H158.846Z" fill="#1F272B"/>
<path d="M161.364 191.853C161.37 191.925 161.361 191.997 161.338 192.065C161.314 192.133 161.277 192.196 161.228 192.249C161.179 192.302 161.12 192.344 161.054 192.373C160.988 192.402 160.917 192.417 160.844 192.417C160.772 192.417 160.701 192.402 160.635 192.373C160.569 192.344 160.51 192.302 160.461 192.249C160.412 192.196 160.375 192.133 160.351 192.065C160.328 191.997 160.319 191.925 160.325 191.853C160.336 191.722 160.395 191.601 160.491 191.512C160.588 191.423 160.714 191.374 160.844 191.374C160.975 191.374 161.101 191.423 161.198 191.512C161.294 191.601 161.353 191.722 161.364 191.853Z" fill="#CCEBF8"/>
<path d="M202.333 192.282C202.332 193.073 202.097 193.846 201.657 194.503C201.218 195.16 200.593 195.673 199.863 195.975C199.133 196.277 198.329 196.356 197.554 196.201C196.779 196.046 196.067 195.665 195.508 195.105C194.95 194.546 194.569 193.833 194.416 193.058C194.262 192.282 194.341 191.478 194.644 190.747C194.946 190.017 195.458 189.392 196.116 188.953C196.773 188.514 197.545 188.279 198.336 188.279C199.396 188.28 200.413 188.702 201.162 189.453C201.912 190.204 202.333 191.221 202.333 192.282Z" fill="#334851"/>
<path d="M201.322 192.282C201.322 192.873 201.147 193.451 200.819 193.942C200.491 194.433 200.024 194.816 199.479 195.042C198.933 195.269 198.333 195.328 197.753 195.213C197.174 195.097 196.642 194.813 196.224 194.395C195.807 193.977 195.522 193.444 195.407 192.865C195.292 192.285 195.351 191.684 195.577 191.138C195.803 190.592 196.186 190.126 196.677 189.798C197.168 189.469 197.745 189.294 198.336 189.294C199.128 189.294 199.887 189.609 200.447 190.169C201.007 190.729 201.322 191.489 201.322 192.282Z" fill="#CCEBF8"/>
<path d="M196.332 185.486H200.375V191.555C200.375 192.025 200.188 192.477 199.856 192.809C199.523 193.142 199.072 193.329 198.602 193.329H198.112C197.642 193.329 197.191 193.142 196.859 192.809C196.526 192.477 196.339 192.025 196.339 191.555V185.486H196.332Z" fill="#1F272B"/>
<path d="M198.864 191.853C198.865 191.957 198.835 192.058 198.778 192.144C198.721 192.231 198.639 192.298 198.544 192.338C198.449 192.378 198.344 192.388 198.242 192.368C198.141 192.348 198.047 192.299 197.974 192.225C197.901 192.152 197.852 192.059 197.832 191.958C197.812 191.856 197.822 191.751 197.862 191.655C197.902 191.56 197.969 191.478 198.056 191.421C198.142 191.364 198.243 191.334 198.347 191.335C198.484 191.335 198.616 191.39 198.713 191.487C198.81 191.584 198.864 191.716 198.864 191.853Z" fill="#CCEBF8"/>
<path d="M221.093 192.282C221.093 193.074 220.859 193.848 220.419 194.506C219.98 195.164 219.355 195.677 218.624 195.98C217.893 196.283 217.089 196.363 216.313 196.208C215.537 196.054 214.824 195.673 214.264 195.113C213.705 194.553 213.324 193.84 213.17 193.063C213.015 192.287 213.094 191.482 213.397 190.75C213.7 190.019 214.213 189.394 214.871 188.954C215.528 188.514 216.302 188.279 217.093 188.279C218.154 188.279 219.172 188.701 219.922 189.452C220.672 190.202 221.093 191.221 221.093 192.282Z" fill="#334851"/>
<path d="M219.207 194.395C220.373 193.228 220.373 191.336 219.207 190.169C218.041 189.003 216.15 189.002 214.984 190.169C213.818 191.336 213.818 193.228 214.984 194.395C216.15 195.562 218.041 195.562 219.207 194.395Z" fill="#CCEBF8"/>
<path d="M215.093 185.486H219.143V191.555C219.143 192.025 218.956 192.477 218.624 192.809C218.291 193.142 217.84 193.329 217.37 193.329H216.88C216.41 193.329 215.959 193.142 215.626 192.809C215.294 192.477 215.107 192.025 215.107 191.555V185.486H215.093Z" fill="#1F272B"/>
<path d="M217.625 191.853C217.626 191.956 217.596 192.058 217.539 192.144C217.482 192.23 217.401 192.298 217.306 192.338C217.21 192.378 217.106 192.388 217.004 192.369C216.903 192.349 216.81 192.3 216.736 192.227C216.663 192.154 216.613 192.061 216.593 191.96C216.572 191.858 216.582 191.753 216.622 191.658C216.661 191.562 216.728 191.481 216.814 191.423C216.9 191.366 217 191.335 217.104 191.335C217.241 191.335 217.373 191.389 217.471 191.486C217.569 191.584 217.624 191.715 217.625 191.853Z" fill="#CCEBF8"/>
<path d="M160.804 112.99C157.736 112.728 154.775 111.865 153.743 110.024C153.539 109.675 153.414 109.286 153.377 108.883C153.341 108.481 153.393 108.076 153.53 107.696C151.984 107.375 150.554 106.639 149.395 105.566C147.515 103.686 149.061 101.308 151.083 99.5727C148.955 99.2746 146.792 98.5791 145.27 97.479C143.323 96.0595 144.607 93.8913 146.334 92.2269C144.501 91.322 143.419 88.6782 146.26 86.1196C145.914 85.8849 145.591 85.6188 145.295 85.3247C143.617 83.6462 145.252 81.2898 147.104 79.7746C145.008 77.4928 149.107 72.0774 151.164 69.8027L151.824 70.4025C150.21 72.1768 146.082 77.5566 147.816 79.2316C148.663 78.6088 149.606 78.1292 150.608 77.8121C151.413 77.5992 152.001 77.6702 152.356 78.0286C152.646 78.3018 152.817 78.6778 152.833 79.0758C152.849 79.4739 152.708 79.8623 152.441 80.1578C151.632 81.1337 149.778 81.485 147.831 80.3211C146.412 81.4247 144.664 83.4262 145.923 84.6824C146.242 85.0028 146.599 85.2829 146.987 85.5163C149.59 83.6178 153.725 82.5958 153.725 84.8066C153.725 87.4078 149.852 87.933 147.082 86.5809C144.571 88.6747 145.217 90.921 147.082 91.5491C149.164 89.7748 151.867 88.3908 153.026 88.6427C153.229 88.6724 153.414 88.7762 153.545 88.9341C153.676 89.092 153.744 89.2929 153.736 89.498C153.736 91.4959 149.888 93.0928 147.288 92.5321C145.947 93.7387 144.348 95.6798 145.813 96.7444C147.402 97.8906 149.827 98.572 152.097 98.7742C154.399 97.0957 157.186 95.953 158.225 96.3895C159.527 96.936 158.835 100.126 152.363 99.6898C151.668 100.202 151.034 100.791 150.473 101.446C149.295 102.866 149.153 104.03 150.044 104.924C151.135 105.927 152.487 106.601 153.945 106.869C155.633 104.236 160.761 102.227 162.917 103.022C164.435 103.583 164.598 105.946 161.499 107.227C159.555 108.033 156.888 108.292 154.406 107.87C154.289 108.144 154.237 108.441 154.255 108.739C154.272 109.036 154.359 109.326 154.509 109.584C155.264 110.932 157.7 111.851 160.935 112.11C162.431 107.905 175.83 104.903 173.812 109.424C172.443 112.508 165.329 113.225 161.694 113.044C162.048 116.947 184.437 123.718 182.423 102.043L183.309 101.957C185.444 124.836 160.985 118.292 160.804 112.99ZM161.896 112.174C165.815 112.327 171.961 111.429 173.011 109.069C173.227 108.579 173.05 108.434 172.964 108.359C171.454 107.146 163.307 109.403 161.896 112.174ZM154.906 107.046C158.403 107.518 163.063 106.507 163.063 104.481C163.066 102.727 157.059 104.275 154.906 107.046ZM153.59 98.8452C154.888 98.8452 157.846 98.4904 157.846 97.2128C157.818 97.1844 154.406 98.3413 153.59 98.8452ZM148.242 91.7549C150.37 91.8295 152.828 90.5803 152.852 89.5157C152.324 89.3489 150.15 90.3035 148.242 91.7549ZM147.887 85.9741C149.934 86.7939 152.817 86.4993 152.817 84.8208C152.824 84.0081 150.143 84.4908 147.887 85.9741ZM148.622 79.7497C150.874 80.8853 152.523 79.4694 151.718 78.6567C151.65 78.5928 151.391 78.5219 150.827 78.6567C150.044 78.9085 149.303 79.277 148.629 79.7497H148.622Z" fill="#2B374D"/>
<path d="M202.038 47.8333L197.357 77.0922L195.598 76.9006L197.393 47.3223L202.038 47.8333Z" fill="#20293A"/>
<path d="M185.54 131.752L185.125 130.638C196.119 128.122 200.506 116.549 202.361 107.848C203.653 101.438 204.185 94.8972 203.946 88.3622L205.454 88.3125C205.69 94.917 205.148 101.526 203.84 108.004C201.868 117.277 197.226 129.076 185.54 131.752Z" fill="#2B374D"/>
<path d="M193.087 132.011L192.023 131.192C198.01 126.578 200.162 96.1943 200.478 89.7002L201.985 89.7463C201.645 96.684 199.545 127.022 193.087 132.011Z" fill="#2B374D"/>
<path d="M195.094 71.8643H197.861C198.395 71.8643 198.924 71.9698 199.418 72.1749C199.911 72.38 200.36 72.6806 200.737 73.0594C201.114 73.4382 201.413 73.8878 201.616 74.3824C201.82 74.877 201.923 75.4069 201.921 75.9417V84.8134H191.034V75.9417C191.034 74.8641 191.462 73.8306 192.223 73.0686C192.985 72.3065 194.017 71.8785 195.094 71.8785V71.8643Z" fill="#2B374D"/>
<path d="M198.336 127.164H161.378V182.187H198.336V127.164Z" fill="#F1F9F4"/>
<path d="M209.901 127.164H198.336V182.187H209.901V127.164Z" fill="#164A6F"/>
<path d="M201.35 182.187H153.459V186.686H201.35V182.187Z" fill="#164A6F"/>
<path d="M222.342 182.187H201.35V186.686H222.342V182.187Z" fill="#164A6F"/>
<path d="M185.324 83.1602H177.405V127.164H185.324V83.1602Z" fill="#2B374D"/>
<path d="M177.064 121.326H185.856C186.42 121.326 186.961 121.55 187.36 121.95C187.76 122.349 187.984 122.891 187.984 123.455V127.185H174.954V123.438C174.954 122.878 175.176 122.341 175.572 121.945C175.968 121.549 176.504 121.326 177.064 121.326Z" fill="#2B374D"/>
<path d="M189.675 98.0361H141.28V102.358H189.675V98.0361Z" fill="#5D767D"/>
<path d="M189.679 98.0362H141.28L166.769 82.1416H208.628L189.679 98.0362Z" fill="#F1F9F4"/>
<path d="M208.628 91.4818V82.1416L189.679 98.0362V102.359L208.628 91.4818Z" fill="#164A6F"/>
<path d="M167.712 84.0264L152.037 94.2147L163.939 93.6504C163.939 93.6504 168.276 89.1223 172.613 90.1017C175.834 90.8115 174.954 94.2289 174.954 94.2289H187.416L200.567 84.0406L167.712 84.0264Z" fill="#4C5A73"/>
<path d="M220.207 6.46582H168.922V50.459H220.207V6.46582Z" fill="#20293A"/>
<path d="M218.508 48.7631V8.16602L170.617 8.16602V48.7631H218.508Z" fill="#4C5A73"/>
<path d="M222.218 7.04071L220.207 6.46582V50.4554L221.214 49.6995L222.218 7.04071Z" fill="#65789A"/>
<path d="M205.879 9.99707H173.95V45.1717H205.879V9.99707Z" fill="#191E27"/>
<path d="M204.698 20.3945C198.293 20.6997 187.321 21.7359 187.037 28.1697C187.037 28.1874 187.009 28.8794 187.012 28.8262C187.012 30.6005 186.512 32.4246 184.852 33.1059C183.047 33.8724 179.976 33.2159 179.178 37.3643C178.621 40.2601 179.848 43.9046 181.366 44.5256C179.238 43.8655 177.341 38.0279 179.699 34.6886C181.965 31.4948 186.281 34.5005 186.264 28.7907C186.264 28.7694 186.289 28.081 186.285 28.1129C186.618 21.1397 197.719 20.0751 204.698 20.3945Z" fill="#667287"/>
<path d="M200.517 25.8662C200.517 25.8662 196.293 26.4411 196.293 30.5185C196.293 34.596 195.297 34.9864 191.881 36.0687C188.466 37.1511 188.842 43.1093 194.3 44.0604C196.662 44.4685 198.29 42.3428 199.903 40.5117C204.021 35.7955 205.56 27.3247 200.517 25.8662Z" fill="#667287"/>
<path d="M194.562 37.3291L187.526 36.4951L186.079 41.8395C186.079 41.8395 184.558 38.784 183.827 39.5115C183.097 40.239 184.381 44.5436 186.015 44.5436C187.65 44.5436 190.09 39.6393 190.09 39.6393L193.318 40.5193L194.562 37.3291Z" fill="#667287"/>
<path d="M189.491 32.8789L186.157 35.5511C186.157 35.5511 187.04 34.3871 185.53 34.2132C184.916 34.1458 184.65 34.6639 184.547 35.3027C184.464 35.8642 184.505 36.4372 184.667 36.9812C184.829 37.5252 185.109 38.0267 185.487 38.4503L185.59 38.5675L189.682 35.9769L194.077 38.5675L195.14 36.1792L189.491 32.8789Z" fill="#667287"/>
<path d="M195.68 21.0258C195.68 21.0258 193.119 22.3708 193.832 26.1005C194.545 29.8301 197.304 30.3589 199.992 27.8145C202.68 25.2701 199.808 19.9399 195.68 21.0258Z" fill="#667287"/>
<path d="M187.2 26.3032C187.05 26.8245 186.974 27.3646 186.977 27.9072C187.016 30.1074 188.331 30.3203 190.048 30.8917C192.615 31.7611 195.013 32.6944 195.13 35.4162H193.991C194.052 33.287 191.864 32.3892 189.8 31.5482C188.115 30.8633 186.48 30.4836 186.608 27.9001C186.643 27.3228 186.763 26.7538 186.962 26.2109L187.2 26.3032Z" fill="#667287"/>
<path d="M197.392 31.5838C197.392 31.5838 193.811 31.229 193.491 30.2034C193.172 29.1778 194.059 26.9279 194.059 26.9279L194.009 25.9414C194.009 25.9414 192.048 28.1948 192.048 30.1998C192.048 32.2048 195.949 33.7805 195.949 33.7805L197.392 31.5838Z" fill="#667287"/>
<path d="M217.504 10.5186H209.901V24.4188H217.504V10.5186Z" fill="#AEC2E7"/>
<path d="M217.504 25.6748H209.901V39.5112H217.504V25.6748Z" fill="#AEC2E7"/>
<path d="M168.922 129.417H195.13L193.811 177.079L192.052 132.416L168.922 129.417Z" fill="#5D767D"/>
<path d="M79.4052 130.645C76.7135 130.645 74.8339 129.86 73.8125 128.313C71.3725 124.608 74.4899 117.695 77.7916 110.378C79.728 106.081 81.7317 101.638 82.0722 98.6461C83.1361 89.3201 82.1041 84.8949 82.0935 84.8523L83.966 84.3945C84.0121 84.5826 85.0938 89.1391 83.9873 98.8661C83.6326 102.156 81.6395 106.535 79.5471 111.169C76.7454 117.387 73.5678 124.431 75.4226 127.252C76.0893 128.26 77.5043 128.75 79.6358 128.711C93.701 128.452 101.585 128.711 101.663 128.711L101.595 130.638C101.521 130.638 93.6798 130.378 79.6712 130.638L79.4052 130.645Z" fill="#0A2126"/>
<path d="M93.272 95.1794C91.6951 95.5486 90.0362 95.276 88.6602 94.4216C87.2842 93.5671 86.3037 92.2007 85.9344 90.6229L80.1394 65.8779C79.7751 64.3055 80.0472 62.6528 80.8963 61.2805C81.7455 59.9082 83.1028 58.9278 84.6718 58.5534C86.2487 58.1841 87.9076 58.4567 89.2836 59.3112C90.6596 60.1657 91.6401 61.5321 92.0094 63.1099L97.8044 87.8549C98.1687 89.4272 97.8966 91.08 97.0475 92.4523C96.1983 93.8246 94.841 94.8049 93.272 95.1794Z" fill="#2B374D"/>
<path d="M93.272 95.1794C91.6951 95.5486 90.0362 95.276 88.6602 94.4216C87.2842 93.5671 86.3037 92.2007 85.9344 90.6229L80.1394 65.8779C79.7751 64.3055 80.0472 62.6528 80.8963 61.2805C81.7455 59.9082 83.1028 58.9278 84.6718 58.5534C86.2487 58.1841 87.9076 58.4567 89.2836 59.3112C90.6596 60.1657 91.6401 61.5321 92.0094 63.1099L97.8044 87.8549C98.1687 89.4272 97.8966 91.08 97.0475 92.4523C96.1983 93.8246 94.841 94.8049 93.272 95.1794Z" fill="#2B374D"/>
<path d="M93.272 95.1794C91.6951 95.5486 90.0362 95.276 88.6602 94.4216C87.2842 93.5671 86.3037 92.2007 85.9344 90.6229L80.1394 65.8779C79.7751 64.3055 80.0472 62.6528 80.8963 61.2805C81.7455 59.9082 83.1028 58.9278 84.6718 58.5534C86.2487 58.1841 87.9076 58.4567 89.2836 59.3112C90.6596 60.1657 91.6401 61.5321 92.0094 63.1099L97.8044 87.8549C98.1687 89.4272 97.8966 91.08 97.0475 92.4523C96.1983 93.8246 94.841 94.8049 93.272 95.1794Z" fill="#2B374D"/>
<path d="M97.8043 87.8371L92.0094 63.0921C91.6361 61.5176 90.654 60.1555 89.2784 59.3046C87.9029 58.4537 86.2462 58.1835 84.6718 58.5533C84.3949 58.623 84.1225 58.7095 83.8561 58.8124C85.3209 58.6792 86.7844 59.0798 87.9775 59.9405C89.1706 60.8011 90.013 62.064 90.3496 63.4966L96.1445 88.2417C96.4828 89.6769 96.2906 91.1861 95.6035 92.4906C94.9165 93.7952 93.7809 94.8069 92.4066 95.339C92.6916 95.3153 92.9748 95.2726 93.2542 95.2113C94.038 95.0281 94.7779 94.6917 95.4313 94.2214C96.0847 93.7511 96.6388 93.1562 97.0616 92.4709C97.4845 91.7856 97.7678 91.0234 97.8952 90.2282C98.0227 89.433 97.9918 88.6204 97.8043 87.8371Z" fill="#2B374D"/>
<path d="M85.3421 88.1713L82.5475 87.1351L78.6393 70.4385L80.6714 68.2383L85.3421 88.1713Z" fill="#2B374D"/>
<path d="M139.124 134.148H100.666L98.6412 129.325H141.383L139.124 134.148Z" fill="#0A2126"/>
<path d="M124.86 131.734H115.576V150.28H124.86V131.734Z" fill="#0A2126"/>
<path d="M122.548 150.138H117.891V180.724H122.548V150.138Z" fill="#9DA6A8"/>
<path d="M119.367 150.138H117.891V180.724H119.367V150.138Z" fill="#B2BEBF"/>
<path d="M123.626 188.155H116.771V182.296V177.58H123.626V188.155Z" fill="#0A2126"/>
<path d="M91.488 195.16L116.771 182.296V188.155L98.6413 195.16V196.445H91.488V195.16Z" fill="#0A2126"/>
<path d="M148.902 195.156V196.445H141.749V195.156L123.63 188.155V182.296L148.902 195.156Z" fill="#0A2126"/>
<path d="M123.63 196.445V197.442H116.193V196.445H117.892V182.296H122.548L122.059 196.445H123.63Z" fill="#0A2126"/>
<path d="M141.504 129.325H97.2192C96.0484 129.325 94.9253 128.861 94.0958 128.034C93.2663 127.208 92.7979 126.086 92.7932 124.914C92.7932 123.74 93.2595 122.613 94.0896 121.783C94.9196 120.952 96.0454 120.485 97.2192 120.485H141.504C142.086 120.484 142.662 120.598 143.2 120.819C143.738 121.041 144.227 121.368 144.639 121.779C145.051 122.19 145.378 122.679 145.6 123.217C145.823 123.755 145.937 124.332 145.937 124.914C145.933 126.087 145.464 127.211 144.633 128.038C143.802 128.865 142.676 129.328 141.504 129.325Z" fill="#288397"/>
<path d="M141.504 120.468H97.2191C96.6136 120.47 96.0149 120.597 95.4608 120.841C94.9067 121.085 94.4089 121.441 93.9989 121.887H138.33C139.194 121.883 140.041 122.133 140.765 122.606C141.489 123.079 142.058 123.754 142.401 124.548C142.744 125.342 142.847 126.219 142.696 127.071C142.546 127.923 142.148 128.712 141.553 129.34C142.726 129.332 143.848 128.859 144.673 128.025C145.497 127.19 145.956 126.061 145.949 124.888C145.942 123.714 145.469 122.591 144.635 121.766C143.801 120.941 142.673 120.482 141.5 120.489L141.504 120.468Z" fill="#44C3D8"/>
<path d="M151.601 63.9975C149.827 64.3524 143.951 69.175 145.926 70.9387C147.902 72.7024 164.946 72.4966 164.279 69.0437C163.612 65.5909 159.392 62.5142 151.601 63.9975Z" fill="#7CAD98"/>
<path d="M164.29 69.043C164.022 67.7595 163.326 66.6049 162.318 65.7676C162.952 66.4978 163.385 67.3809 163.573 68.3297C164.212 71.6158 148.795 71.96 145.607 70.4589C145.676 70.6434 145.789 70.808 145.937 70.938C147.926 72.7017 164.957 72.4959 164.29 69.043Z" fill="#536460"/>
<path d="M162.009 64.7142L157.842 62.5531C157.842 62.5531 151.891 61.4885 148.866 63.2628C148.866 63.2628 135.89 73.9586 127.474 72.5604C124.534 72.0742 119.945 68.5929 114.969 64.4481C111.632 67.7803 108.167 71.0132 104.809 74.1679C112.891 79.1077 122.587 83.3768 128.346 82.3654C138.277 80.6266 150.984 67.2409 150.984 67.2409C150.984 67.2409 155.8 64.7887 157.984 66.3253C160.169 67.8619 161.438 69.072 161.531 68.7526C161.623 68.4333 158.96 65.5588 158.96 65.5588C158.96 65.5588 162.307 68.7526 162.729 68.5149C163.151 68.2771 160.697 65.7256 160.697 65.7256L158.364 64.1074L161.648 65.392C161.648 65.392 162.545 67.3296 162.924 67.1344C163.304 66.9393 162.009 64.7142 162.009 64.7142Z" fill="#EA5959"/>
<path d="M117.388 47.1761C110.823 48.0278 109.621 52.957 111.139 60.5441C111.777 63.7379 114.409 74.9589 117.959 80.839C122.388 79.5863 130.467 73.7736 132.762 71.4776C128.109 60.3595 121.998 46.5764 117.388 47.1761Z" fill="#5D8272"/>
<path d="M127.375 111.997C127.375 111.997 158.846 129.329 158.846 130.628C158.846 131.927 137.007 182.829 137.007 182.829L137.819 192.109C137.819 192.109 142.976 196.204 141.482 196.204H135.787C135.787 196.204 133.886 191.836 132.666 190.608C131.446 189.38 128.595 186.378 128.595 186.378L132.666 181.601L130.63 181.463L143.11 135.607L124.931 126.025L118.59 112.824L127.375 111.997Z" fill="#3E574C"/>
<path d="M96.8645 123.732L96.3964 127.245L116.806 134.719L118.977 182.981H120.874L119.101 193.354C119.101 193.354 117.455 198.35 117.913 198.812C118.37 199.273 125.882 198.812 125.882 198.812L124.935 182.981L125.882 182.846C125.882 182.846 129.953 130.847 129.953 127.437C129.953 124.027 117.913 112.834 117.913 112.834L96.8645 123.732Z" fill="#5D8272"/>
<path d="M122.353 117.167C124.225 119.385 129.492 125.308 129.428 127.646C129.428 127.668 129.343 128.895 129.347 128.817C128.467 139.996 127.375 154.038 127.243 165.429C128.968 152.835 130.052 140.162 130.492 127.458C130.489 127.398 124.339 118.952 122.353 117.167Z" fill="#CBDED6"/>
<path d="M112.55 45.2354C112.55 45.2354 112.309 45.2354 111.877 45.2141C108.628 45.1715 94.5912 45.647 91.1475 56.8822C87.2464 69.6113 82.8382 114.761 95.7189 127.721C95.7189 127.721 120.626 111.862 132.201 114.974C132.201 114.974 115.976 100.861 119.682 88.5684C122.264 80.0125 124.413 58.4046 122.665 51.6195C120.917 44.8344 112.55 45.2354 112.55 45.2354Z" fill="#7CAD98"/>
<path d="M119.236 90.6829C119.006 90.5491 118.785 90.4022 118.572 90.2429C116.313 88.5466 89.4134 55.7816 90.9278 63.3687C91.6584 67.0132 94.2331 77.3683 98.5669 84.0611C100.822 88.2947 110.448 100.101 114.909 101.51C116.881 102.131 119.218 102.12 121.69 101.705C119.913 98.2346 118.771 94.4197 119.236 90.6829Z" fill="#5D8272"/>
<path d="M119.682 88.5681C121.367 80.3777 123.842 59.4901 122.665 51.6191C125.087 60.175 122.796 79.8809 119.682 88.5681Z" fill="#CBDED6"/>
<path d="M104.89 30.1641C104.89 30.1641 103.826 40.1501 104.592 46.7045C104.686 47.51 104.963 48.2834 105.402 48.965C105.841 49.6467 106.43 50.2185 107.124 50.6365C109.962 52.3398 114.881 54.8452 116.732 52.9538L114.37 37.3395L104.89 30.1641Z" fill="#FC7575"/>
<path d="M104.89 30.1641L114.37 37.3289L115.565 45.2566C111.848 45.7393 107.408 40.7498 105.834 34.167C105.579 33.1112 105.234 32.0794 104.802 31.0832C104.855 30.5189 104.89 30.1641 104.89 30.1641Z" fill="#FD5E5A"/>
<path d="M117.413 15.9446C117.611 16.1182 117.778 16.3247 117.906 16.555C118.736 17.9106 119.792 21.1115 119.526 25.047C119.2 29.8449 118.927 39.8948 115.42 40.5158C111.912 41.1368 106.373 37.1694 104.975 31.5199C103.578 25.8703 100.659 23.4395 101.968 18.6807C103.277 13.9219 117.413 15.9446 117.413 15.9446Z" fill="#FC7575"/>
<path d="M117.413 15.9446C117.413 15.9446 103.284 13.9219 101.975 18.6807C100.666 23.4395 103.592 25.8703 104.975 31.5199C106.231 31.1863 108.213 31.0195 107.103 24.1812C108.167 20.5189 110.295 20.8844 110.65 19.2733C113.93 19.9831 114.317 21.7042 114.529 21.8958C116.015 24.3338 117.562 26.3139 119.36 27.2188C119.409 26.4275 119.448 25.6929 119.494 25.0541C119.803 20.9377 118.484 16.7538 117.413 15.9446Z" fill="#FD5E5A"/>
<path d="M104.975 31.5198C104.738 30.9591 105.124 32.1231 104.975 31.5198V31.5198Z" fill="#FD5E5A"/>
<path d="M106.904 24.4402C106.904 24.4402 107.667 21.5658 108.678 20.0221C109.688 18.4784 109.1 17.4209 109.1 17.4209C109.1 17.4209 113.668 17.4528 115.54 20.4905C117.413 23.5282 119.796 28.0563 124.289 25.047C128.783 22.0377 126.719 15.352 125.58 15.5507C124.442 15.7495 123.208 14.9049 123.208 14.9049C123.208 14.9049 118.03 9.3973 115.849 9.78411C113.668 10.1709 115.185 7.69038 111.38 7.73296C107.575 7.77555 105.27 11.8672 105.27 11.8672C105.27 11.8672 103.315 10.2135 100.815 12.6585C98.3149 15.1036 100.968 22.4245 102.439 24.9015C103.911 27.3785 104.745 31.7044 104.745 31.7044C104.745 31.7044 108.224 31.8925 106.904 24.4402Z" fill="#1B2B80"/>
<path d="M104.716 23.5275C104.732 23.2182 104.844 22.9216 105.037 22.6793C105.229 22.4369 105.493 22.2609 105.79 22.176C106.088 22.0911 106.405 22.1015 106.696 22.2058C106.987 22.31 107.239 22.5029 107.415 22.7574C108.149 23.6943 108.699 24.9115 107.972 26.04C106.514 28.3005 104.521 26.441 104.677 23.9924C104.684 23.8291 104.699 23.673 104.716 23.5275Z" fill="#FC7575"/>
<path d="M108.107 24.5961C107.965 24.0425 107.103 22.5095 106.373 23.2192C105.642 23.929 105.33 26.0582 106.766 26.2285C108.202 26.3989 108.242 25.1284 108.107 24.5961Z" fill="#FD5E5A"/>
<path d="M115.884 33.2019L117.877 32.847L116.948 27.6092C116.945 27.5829 116.936 27.5577 116.923 27.5349C116.909 27.5121 116.892 27.4921 116.87 27.4763C116.849 27.4604 116.825 27.4489 116.8 27.4425C116.774 27.4361 116.747 27.4348 116.721 27.4388C116.67 27.4507 116.625 27.4822 116.597 27.5266C116.568 27.5711 116.558 27.6249 116.569 27.6766L117.423 32.5099L115.813 32.7938C115.762 32.8057 115.717 32.8372 115.689 32.8816C115.66 32.926 115.65 32.9799 115.661 33.0316C115.664 33.0576 115.672 33.0828 115.685 33.1056C115.698 33.1284 115.715 33.1483 115.736 33.1642C115.757 33.1801 115.781 33.1917 115.806 33.1981C115.832 33.2046 115.858 33.2059 115.884 33.2019Z" fill="#18287D"/>
<path d="M113.451 27.5451C113.554 28.1377 114.005 28.5529 114.459 28.4713C114.912 28.3896 115.189 27.8467 115.083 27.2541C114.976 26.6614 114.529 26.2498 114.079 26.3279C113.629 26.4059 113.345 26.9702 113.451 27.5451Z" fill="#18287D"/>
<path d="M117.743 27.4347C117.838 27.9812 118.228 28.368 118.611 28.3006C118.994 28.2332 119.228 27.7328 119.133 27.1899C119.037 26.6469 118.647 26.2566 118.264 26.324C117.881 26.3914 117.636 26.8918 117.743 27.4347Z" fill="#18287D"/>
<path d="M115.228 37.3429C115.453 37.307 115.671 37.2401 115.877 37.1441C115.92 37.1188 115.952 37.078 115.967 37.03C115.981 36.9819 115.977 36.9301 115.955 36.8851C115.946 36.8626 115.931 36.8423 115.914 36.8253C115.896 36.8084 115.875 36.7952 115.852 36.7866C115.83 36.778 115.805 36.7741 115.781 36.7752C115.756 36.7762 115.732 36.7822 115.71 36.7928C115.643 36.8354 114.008 37.6481 112.203 35.8702C112.187 35.852 112.167 35.8375 112.145 35.8276C112.123 35.8176 112.099 35.8125 112.075 35.8125C112.051 35.8125 112.027 35.8176 112.005 35.8276C111.983 35.8375 111.964 35.852 111.948 35.8702C111.913 35.9075 111.895 35.9562 111.895 36.0068C111.895 36.0574 111.913 36.1061 111.948 36.1434C113.253 37.4245 114.501 37.4706 115.228 37.3429Z" fill="#18287D"/>
<path d="M115.26 24.4857C115.26 24.4857 114.146 23.6304 113.012 23.8327C111.877 24.035 111.238 25.6071 111.238 25.6071C111.238 25.6071 111.884 24.2976 112.898 24.3295C113.912 24.3615 115.381 25.1528 115.381 25.1528L115.26 24.4857Z" fill="#18287D"/>
<path d="M153.775 95.3211L151.079 91.4814C151.079 91.4814 146.295 87.7837 142.788 87.9717C142.788 87.9717 126.343 91.4814 119.519 86.3606C117.186 84.6076 114.771 79.5862 112.316 73.7734C108.238 75.6897 104.319 77.929 100.258 79.8559C104.943 87.0881 110.795 93.8874 115.792 95.4701C125.41 98.5043 142.848 92.4857 142.848 92.4857C142.848 92.4857 148.249 92.5318 149.483 94.9023C150.717 97.2729 151.285 98.9337 151.519 98.6959C151.753 98.4581 150.714 94.6646 150.714 94.6646C150.714 94.6646 152.225 99.0259 152.7 99.0259C153.175 99.0259 152.186 95.6121 152.186 95.6121L150.856 93.0996L153.179 95.754C153.179 95.754 153.083 97.8832 153.512 97.8832C153.941 97.8832 153.775 95.3211 153.775 95.3211Z" fill="#FC7575"/>
<path d="M104.394 85.7112L113.1 75.6188C112.838 75.0155 112.575 74.398 112.309 73.7734C108.231 75.6897 104.312 77.929 100.251 79.8559C101.546 81.8751 102.947 83.8624 104.394 85.7112Z" fill="#FD5E5A"/>
<path d="M114.441 94.2351C114.441 94.2351 114.568 92.4856 115.459 92.2656C116.349 92.0455 119.126 94.377 118.473 95.03C117.821 95.683 114.441 95.4097 114.441 94.2351Z" fill="#FD5E5A"/>
<path d="M98.088 49.0887C91.5235 49.9404 89.4133 55.7816 90.9277 63.3687C91.6582 67.0132 94.233 77.3683 98.5667 84.0611C102.642 82.1306 110.564 75.491 113.129 73.9757C108.415 62.8115 102.748 48.4855 98.088 49.0887Z" fill="#96BDAD"/>
<path d="M113.132 73.976C109.029 66.1263 104.589 54.4262 100.826 50.5546C99.691 49.3835 99.1626 49.3693 98.9604 49.2451C98.663 49.16 98.3547 49.1194 98.0454 49.1245L97.5702 49.16C97.7085 49.3374 102.181 45.4693 110.533 66.7899C111.465 69.1675 112.338 71.5558 113.132 73.976Z" fill="#CBDED6"/>
<path d="M81.026 55.5766C80.9967 55.5756 80.9678 55.5689 80.941 55.5568C80.9143 55.5448 80.8902 55.5275 80.8701 55.5061C80.85 55.4847 80.8343 55.4595 80.824 55.432C80.8136 55.4045 80.8087 55.3753 80.8097 55.3459C81.0012 48.4401 84.5654 44.3201 87.5231 42.0773C89.4455 40.6061 91.6264 39.5083 93.9529 38.8409C94.0084 38.8317 94.0654 38.8438 94.1124 38.8747C94.1595 38.9057 94.1931 38.9534 94.2065 39.0081C94.2199 39.0628 94.2123 39.1206 94.185 39.1699C94.1577 39.2191 94.1128 39.2563 94.0593 39.2739C91.7892 39.936 89.6602 41.0102 87.7785 42.4428C84.9058 44.6253 81.441 48.6389 81.253 55.3601C81.2525 55.3893 81.2463 55.4181 81.2346 55.4449C81.2229 55.4716 81.206 55.4958 81.1848 55.5159C81.1637 55.5361 81.1388 55.5518 81.1115 55.5622C81.0843 55.5726 81.0552 55.5775 81.026 55.5766Z" fill="#1B2B80"/>
<path d="M167.613 63.8375C167.583 63.8379 167.553 63.8321 167.526 63.8205C167.498 63.8089 167.474 63.7917 167.453 63.7701C160.091 56.0623 144.437 55.0367 144.281 55.0261C144.251 55.0247 144.223 55.0176 144.196 55.005C144.17 54.9925 144.146 54.9748 144.127 54.9529C144.107 54.9311 144.092 54.9057 144.083 54.878C144.073 54.8503 144.069 54.8211 144.071 54.7919C144.073 54.7625 144.081 54.7338 144.094 54.7073C144.107 54.6809 144.125 54.6573 144.147 54.6378C144.169 54.6184 144.195 54.6035 144.222 54.594C144.25 54.5845 144.28 54.5806 144.309 54.5825C144.465 54.5825 160.289 55.6294 167.772 63.4542C167.804 63.4852 167.825 63.5249 167.833 63.568C167.842 63.6112 167.837 63.6559 167.82 63.6964C167.803 63.7369 167.774 63.7713 167.737 63.7952C167.7 63.8191 167.657 63.8313 167.613 63.8304V63.8375Z" fill="#1B2B80"/>
<path d="M39.8658 188.144H22.5059L20.4738 171.444H41.561L39.8658 188.144Z" fill="#B471B9"/>
<path d="M26.751 171.444H20.4738L22.5059 188.144H39.8658L40.2453 184.429C37.0673 183.614 34.1542 181.99 31.7895 179.715C29.4248 177.439 27.689 174.59 26.751 171.444Z" fill="#87558B"/>
<path d="M46.4586 157.718L50.186 154.368C51.7961 149.276 52.594 143.576 51.3528 137.966C48.4291 138.587 45.5717 139.488 42.82 140.656L40.8127 144.864L39.8551 142.1C37.7556 143.26 35.7838 144.691 34.3794 146.429L35.5178 152.164L32.8154 149.091C32.5949 149.663 32.4391 150.258 32.3508 150.865C30.9712 160.365 31.1698 172.136 31.1698 172.136H40.6637C43.8099 168.1 46.4316 163.681 48.4659 158.985L46.4586 157.718Z" fill="#598891"/>
<path d="M40.9191 168.184C38.6174 169.326 36.9719 169.337 36.3796 169.291C39.3303 165.43 41.8872 160.54 43.8697 156.132H44.2917C46.5208 156.116 48.6715 155.307 50.3597 153.85C50.4129 153.673 50.4626 153.496 50.5158 153.318C48.764 154.978 46.4308 155.883 44.0187 155.838C44.5932 154.546 45.1429 153.254 45.6713 151.934C47.8418 151.654 49.9838 150.334 51.4733 149.205L51.5478 148.755C50.1115 149.876 47.9552 151.278 45.799 151.615C48.473 144.947 50.154 139.549 50.1718 139.503L50.7038 138.293L49.9519 139.134C49.9235 139.237 48.5333 143.602 46.4409 149.116C45.3238 146.746 45.9302 140.954 46.1182 139.393L45.8025 139.5C45.5827 141.338 44.9975 147.236 46.2955 149.489C44.8458 153.326 43.1883 157.082 41.3305 160.738C40.5325 159.528 41.8589 151.718 39.6388 148.637C38.284 146.757 38.1032 144.571 38.1741 143.116C38.0713 143.183 37.9684 143.25 37.8691 143.321C37.823 144.819 38.0606 146.959 39.3941 148.815C41.6319 151.916 40.1034 159.975 41.1673 161.022C40.7843 161.76 40.3871 162.491 39.9828 163.208C37.7556 156.185 37.784 155.937 38.089 153.151C38.2628 151.551 38.4436 150.039 37.3797 148.971C36.4505 148.045 36.1455 146.207 36.0604 144.713L35.7696 144.972C35.8795 146.466 36.22 148.229 37.1669 149.18C38.8657 150.88 37.0995 153.918 37.8762 156.931C38.5678 159.663 39.6494 163.01 39.809 163.56C38.9756 165.015 38.1032 166.416 37.1917 167.719C36.8123 167.399 35.2341 165.849 35.6845 162.587C36.0391 159.94 33.5566 156.555 31.9288 154.656L31.8862 155.082C33.4928 156.995 35.7164 160.139 35.3866 162.534C34.9078 166.015 36.6137 167.626 37.018 167.953C35.9846 169.432 34.8266 170.82 33.5566 172.101H33.9786C34.1914 171.885 34.4007 171.665 34.6064 171.438C35.7802 171.793 37.5925 171.612 39.3941 170.274C39.8536 169.932 40.3772 169.687 40.9336 169.553C41.4899 169.419 42.0676 169.399 42.632 169.493C42.6958 169.404 42.7561 169.312 42.82 169.22C42.1959 169.098 41.5532 169.107 40.9329 169.247C40.3126 169.387 39.7281 169.654 39.2168 170.032C37.1669 171.555 35.4221 171.328 34.8333 171.189C35.3015 170.668 35.759 170.125 36.2058 169.539C37.7131 169.763 39.6884 169.124 41.0928 168.425C41.9278 168.018 42.8419 167.8 43.7704 167.786L43.9619 167.484C42.9067 167.474 41.864 167.714 40.9191 168.184Z" fill="#BDCFD3"/>
<path opacity="0.34" d="M33.9609 150.39L32.8154 149.088C32.5949 149.66 32.4391 150.255 32.3508 150.862C30.9712 160.362 31.1698 172.133 31.1698 172.133C31.1698 172.133 34.8794 163.503 33.9609 150.39Z" fill="#43666D"/>
<path d="M0 164.659C0.40075 164.659 5.49347 162.062 14.1858 164.659C19.5706 166.314 24.6487 168.839 29.2193 172.133C29.2193 172.133 19.2892 174.056 10.189 172.559C1.08876 171.061 0 164.659 0 164.659Z" fill="#245058"/>
<path d="M28.1802 171.42C22.474 167.498 13.7355 163.385 6.38367 163.502C7.92992 167.874 10.0082 171.054 14.1433 173.009C18.9171 173.287 23.707 173.057 28.432 172.321C28.3717 172.041 28.276 171.757 28.1802 171.42Z" fill="#1B3C42"/>
<path d="M28.4072 134.03L24.6763 137.962L26.1481 129.743C24.8505 127.515 23.3461 125.415 21.6547 123.469C17.1578 118.37 9.06833 110.797 9.06833 110.797C7.30765 114.319 5.97873 118.042 5.11048 121.883L9.29176 126.166L4.44374 125.684C0.858271 153.303 26.0027 172.129 26.0027 172.129H31.1699C31.1699 172.129 33.4928 149.634 31.6203 142.739C30.8008 139.749 29.7258 136.835 28.4072 134.03Z" fill="#245058"/>
<path d="M32.0671 145.255C32.0139 144.808 31.9571 144.386 31.8897 143.992C30.801 146.998 27.9141 154.233 24.7968 156.132C24.6904 155.829 24.5805 155.527 24.467 155.227C27.5879 154.07 30.1094 146.313 31.3507 141.742C31.2443 141.387 31.1343 141.032 31.0173 140.66C29.7193 145.677 27.0949 153.662 24.2542 154.677C23.4008 152.384 22.3458 150.172 21.1014 148.066C19.915 145.985 18.9066 143.808 18.0869 141.557C20.7822 139.496 22.8463 130.737 23.7612 126.089C23.6052 125.876 23.4492 125.666 23.2896 125.457C22.449 129.793 20.3637 138.814 17.8599 140.968C17.1506 139.056 16.4413 136.98 15.732 134.84C18.0231 131.401 18.782 124.123 19.0196 120.62L18.4522 120.031C18.2607 123.079 17.5975 130.443 15.4944 134.084C12.1359 123.36 9.32005 111.553 9.28103 111.372L9.05761 110.957V111.408C9.10371 111.614 12.2494 126.564 16.1789 138.097C11.7245 139.584 6.84462 136.444 4.20959 134.311C4.23087 134.588 4.2557 134.868 4.28052 135.145C5.01562 135.717 5.78164 136.247 6.57509 136.735C9.11435 138.293 11.5401 139.08 13.7425 139.08C14.6374 139.085 15.5272 138.945 16.3775 138.665C17.3057 141.45 18.417 144.171 19.7041 146.809C15.6895 148.208 9.85911 146.653 6.61055 145.546L6.87653 146.281C9.23493 147.061 12.6785 147.973 15.9165 147.973C17.2984 148 18.6747 147.788 19.9843 147.345C20.1758 147.7 20.3708 148.055 20.5623 148.367C25.7827 156.976 27.9177 170.845 28.1057 172.144H28.7263C27.9156 166.906 26.664 161.747 24.9848 156.721C28.017 154.968 30.7407 148.744 32.0671 145.255Z" fill="#E0E3F1"/>
<path opacity="0.44" d="M25.9885 172.129H30.8045C30.8045 172.129 29.6803 161.789 20.1191 154.908L18.9665 156.718L18.7962 154.013C18.243 153.661 17.6625 153.321 17.0549 152.995L15.5548 156.497L14.8951 151.952C12.7945 151.04 10.607 150.343 8.36609 149.872C14.6327 163.453 25.5771 171.817 25.9885 172.129Z" fill="#858AA4"/>
<path d="M46.714 153.988L45.7068 158.456L44.4939 155.262C43.1995 156.057 41.9708 156.954 40.8198 157.945L40.4651 160.167L39.2877 159.393C35.8841 162.797 33.8495 167.333 33.5708 172.14H41.5645C41.5645 172.14 58.7507 167.367 59.35 149.783C54.9502 150.539 50.69 151.957 46.714 153.988Z" fill="#77A1A8"/>
<path d="M36.6456 172.13H37.9826C47.3808 167.023 57.8854 151.608 58.3429 150.93L58.9954 149.922L57.8499 150.593C57.7329 150.763 46.1501 167.765 36.6456 172.13Z" fill="#BDCFD3"/>
<path d="M20.0694 157.431L19.0835 158.982L18.9345 156.665C18.4617 156.362 17.964 156.071 17.4415 155.792L16.1612 158.794L15.6044 154.89C12.5949 153.607 9.40374 152.801 6.146 152.502C6.146 152.502 6.94395 163.404 11.7388 168.208C16.5336 173.013 24.0273 172.183 24.0273 172.183H29.2228C28.2338 166.251 24.9442 160.949 20.0694 157.431Z" fill="#E0C57D"/>
<path d="M24.6089 172.176H25.3927C13.9483 164.276 6.99365 153.201 6.92272 153.087L6.31982 152.732L6.53971 153.325C6.61063 153.439 13.3986 164.248 24.6089 172.176Z" fill="#F3E8CB"/>
<path d="M29.2193 172.13C29.2193 172.13 19.6438 167.836 13.2602 168.364C6.87656 168.893 0.354614 175.987 0.354614 175.987C0.354614 175.987 2.43993 176.736 5.44733 177.481L8.2845 175.228L7.49364 177.953C12.1856 178.947 18.2004 179.614 22.3108 177.868C29.9676 174.596 29.2193 172.13 29.2193 172.13Z" fill="#AD5B45"/>
<path d="M29.2192 172.13L28.7263 171.913C26.8218 171.796 20.69 171.473 15.3419 171.672C14.4482 170.98 14.0794 169.461 13.9233 168.329L13.4765 168.35C13.6184 169.415 13.9482 170.834 14.7284 171.697C14.4801 171.697 12.7424 171.849 12.1466 171.942C11.2068 171.264 11.0011 169.883 11.0011 168.808L10.5649 168.947C10.5649 169.979 10.7883 171.235 11.5862 172.03C11.0164 172.134 10.4596 172.253 9.91585 172.385C8.69941 172.187 7.96529 171.15 7.561 170.309L7.17798 170.526C7.56016 171.419 8.24264 172.151 9.10726 172.595C8.63558 172.726 8.17454 172.864 7.73123 173.01C6.15305 172.57 5.54306 172.055 5.309 171.729L4.95435 171.984C5.21679 172.339 5.79131 172.825 7.02903 173.248C5.18672 173.889 3.38836 174.65 1.6455 175.526L0.840454 176.016L1.99305 175.909C2.04625 175.874 7.07513 172.942 13.0616 172.265C11.4834 173.531 10.8166 176.193 10.4301 177.73C10.3662 177.985 10.2989 178.258 10.235 178.468L10.6677 178.535C10.7209 178.354 10.7776 178.123 10.8521 177.825C11.2812 176.118 12.0721 172.957 14.0439 172.165C14.3631 172.144 15.9661 172.08 16.3527 172.069C14.849 173.372 13.7106 176.952 13.1963 178.812L13.6361 178.847C14.3206 176.385 15.7037 172.478 17.2251 172.045C23.1051 171.963 29.2192 172.13 29.2192 172.13Z" fill="#DEBDB5"/>
</g>
<defs>
<linearGradient id="paint0_linear_131_2162" x1="316.252" y1="203.687" x2="45.5576" y2="51.4379" gradientUnits="userSpaceOnUse">
<stop stop-color="#E0CBEE"/>
<stop offset="1" stop-color="#F4DFFF"/>
</linearGradient>
<linearGradient id="paint1_linear_131_2162" x1="15.9697" y1="221.449" x2="268.047" y2="70.8014" gradientUnits="userSpaceOnUse">
<stop stop-color="#D8C7F5"/>
<stop offset="1" stop-color="#FBF9FF"/>
</linearGradient>
<clipPath id="clip0_131_2162">
<rect width="278" height="199" fill="white"/>
</clipPath>
</defs>
</svg>
