<svg width="40" height="42" viewBox="0 0 40 42" fill="none" xmlns="http://www.w3.org/2000/svg">
<path fill-rule="evenodd" clip-rule="evenodd" d="M12.0961 15.1052C10.624 13.6323 8.2364 13.6315 6.7632 15.1034L6.0591 15.8069C4.71987 15.4263 3.22155 15.7669 2.16703 16.8285C0.61099 18.3951 0.61099 20.9376 2.16703 22.5042L3 23.3428V34H0V36H2.05051C1.40223 36.6353 1 37.5207 1 38.5C1 40.433 2.567 42 4.5 42C6.433 42 8 40.433 8 38.5C8 37.5207 7.5978 36.6353 6.9495 36H33.0505C32.4022 36.6353 32 37.5207 32 38.5C32 40.433 33.567 42 35.5 42C37.433 42 39 40.433 39 38.5C39 37.5207 38.5978 36.6353 37.9495 36H40V34H36V30.8873C37.7218 30.4646 39 28.8993 39 27.033C39 24.8423 37.2388 23.0664 35.0662 23.0664H14.11C14.0285 23.0664 13.9502 23.0337 13.8925 22.9756L13.5261 22.6068L13.8945 22.2387C15.3678 20.7667 15.3686 18.3793 13.8963 16.9063L12.0961 15.1052ZM12.1167 21.1878L12.4809 20.8239C13.1727 20.1327 13.1731 19.0118 12.4818 18.3202L10.6816 16.5191C9.9902 15.8273 8.8687 15.8269 8.1768 16.5182L7.8263 16.8684L12.1167 21.1878ZM37 27.033C37 25.9311 36.1185 25.0664 35.0662 25.0664H14.11C13.4932 25.0664 12.905 24.8194 12.4736 24.3851L6.3677 18.238C5.59731 17.4623 4.35643 17.4623 3.586 18.238C2.80467 19.0246 2.80467 20.3081 3.586 21.0948L11.4379 28.9997H35.0662C36.1186 28.9997 37 28.1349 37 27.033ZM10.2752 30.6672C10.4867 30.8801 10.7733 30.9997 11.0722 30.9997H34V34H5V25.3563L10.2752 30.6672ZM6 38.5C6 39.3284 5.32843 40 4.5 40C3.67157 40 3 39.3284 3 38.5C3 37.6716 3.67157 37 4.5 37C5.32843 37 6 37.6716 6 38.5ZM35.5 40C36.3284 40 37 39.3284 37 38.5C37 37.6716 36.3284 37 35.5 37C34.6716 37 34 37.6716 34 38.5C34 39.3284 34.6716 40 35.5 40Z" fill="#333333"/>
<path d="M31.4155 10.8444C31.6024 10.9523 31.8413 10.8883 31.9491 10.7015L33.5216 7.97771C33.5734 7.88799 33.5875 7.78137 33.5607 7.68133C33.5338 7.58121 33.4684 7.49593 33.3787 7.44412L32.0124 6.65535C32.0254 6.51266 32.032 6.36916 32.032 6.22636C32.032 6.08359 32.0254 5.94009 32.0124 5.79737L33.3787 5.00859C33.4684 4.95678 33.5338 4.87146 33.5607 4.77138C33.5875 4.67134 33.5734 4.56472 33.5216 4.475L31.9491 1.75132C31.8973 1.6616 31.812 1.59613 31.7119 1.56933C31.6119 1.54248 31.5052 1.5565 31.4155 1.60835L30.0493 2.39716C29.8148 2.23104 29.5662 2.08725 29.3063 1.96723V0.390625C29.3063 0.174918 29.1314 0 28.9157 0H25.7706C25.5549 0 25.38 0.174918 25.38 0.390625V1.96727C25.12 2.08725 24.8715 2.23109 24.637 2.3972L23.2708 1.60843C23.1811 1.55662 23.0744 1.5426 22.9744 1.56941C22.8743 1.59622 22.789 1.66168 22.7372 1.7514L21.1646 4.47508C21.1128 4.5648 21.0988 4.67142 21.1256 4.77146C21.1524 4.87159 21.2179 4.95687 21.3076 5.00868L22.6738 5.79745C22.6609 5.94017 22.6543 6.08368 22.6543 6.22644C22.6543 6.36916 22.6608 6.51266 22.6738 6.65543L21.3076 7.4442C21.2179 7.49601 21.1524 7.58133 21.1256 7.68141C21.0988 7.78146 21.1128 7.88808 21.1646 7.9778L22.7372 10.7015C22.845 10.8883 23.0839 10.9523 23.2708 10.8444L24.637 10.0557C24.8714 10.2218 25.12 10.3656 25.38 10.4856V12.0622C25.38 12.2779 25.5549 12.4528 25.7706 12.4528H28.9157C29.1314 12.4528 29.3063 12.278 29.3063 12.0622V10.4856C29.5663 10.3656 29.8148 10.2218 30.0493 10.0557L31.4155 10.8444ZM28.7727 9.86431C28.6233 9.92307 28.5251 10.0673 28.5251 10.2278V11.6716H26.1613H26.1612V10.2278C26.1612 10.0673 26.063 9.92311 25.9136 9.86431C25.5524 9.72229 25.2143 9.52664 24.9088 9.28298C24.7831 9.18277 24.609 9.16974 24.4699 9.25004L23.2184 9.97253L22.0365 7.92541L23.2875 7.20317C23.4264 7.12299 23.5022 6.96599 23.4786 6.80736C23.45 6.61571 23.4356 6.42023 23.4356 6.2264C23.4356 6.03261 23.45 5.83713 23.4786 5.64544C23.5022 5.4868 23.4264 5.32981 23.2875 5.24963L22.0365 4.52738L23.2184 2.48026L24.4699 3.20284C24.609 3.28314 24.7831 3.27007 24.9088 3.16994C25.2144 2.92611 25.5524 2.73055 25.9136 2.58853C26.063 2.52977 26.1612 2.38557 26.1612 2.225V0.78125H28.525V2.225C28.525 2.38557 28.6233 2.52973 28.7727 2.58853C29.1338 2.73055 29.4719 2.92619 29.7775 3.1699C29.9032 3.27011 30.0773 3.28318 30.2164 3.20284L31.4678 2.48026L32.6498 4.52738L31.3988 5.24963C31.2599 5.32981 31.1841 5.48684 31.2078 5.64548C31.2363 5.83709 31.2508 6.03252 31.2508 6.2264C31.2508 6.42023 31.2363 6.61571 31.2078 6.80732C31.1841 6.96595 31.2599 7.12299 31.3988 7.20317L32.6498 7.92541L31.4679 9.97253L30.2164 9.25004C30.0773 9.16974 29.9032 9.18281 29.7775 9.28298C29.472 9.52669 29.1339 9.72229 28.7727 9.86431Z" fill="black"/>
<path d="M27.3428 4.19629C26.2233 4.19629 25.3125 5.10706 25.3125 6.22655C25.3125 7.34604 26.2233 8.25681 27.3428 8.25681C28.4623 8.25681 29.373 7.34604 29.373 6.22655C29.373 5.10706 28.4623 4.19629 27.3428 4.19629ZM27.3428 7.47556C26.6541 7.47556 26.0937 6.91524 26.0937 6.22655C26.0937 5.53786 26.6541 4.97754 27.3428 4.97754C28.0315 4.97754 28.5918 5.53786 28.5918 6.22655C28.5918 6.91524 28.0315 7.47556 27.3428 7.47556Z" fill="black"/>
<path d="M34.2485 13.7808C33.3754 13.7808 32.665 14.491 32.665 15.3642C32.665 16.2373 33.3754 16.9475 34.2485 16.9475C35.1216 16.9475 35.8319 16.2373 35.8319 15.3642C35.8319 14.491 35.1216 13.7808 34.2485 13.7808ZM34.2485 16.1662C33.8062 16.1662 33.4463 15.8064 33.4463 15.3641C33.4463 14.9218 33.8062 14.562 34.2485 14.562C34.6908 14.562 35.0506 14.9218 35.0506 15.3641C35.0506 15.8064 34.6908 16.1662 34.2485 16.1662Z" fill="black"/>
<path d="M38.6926 16.1577L37.757 15.6176C37.7631 15.5331 37.7662 15.4483 37.7662 15.364C37.7662 15.2796 37.7631 15.1949 37.757 15.1104L38.6926 14.5703C38.7823 14.5185 38.8478 14.4332 38.8746 14.3331C38.9014 14.233 38.8874 14.1264 38.8356 14.0367L37.6916 12.0553C37.6398 11.9656 37.5544 11.9001 37.4543 11.8733C37.3543 11.8465 37.2477 11.8605 37.158 11.9123L36.2226 12.4524C36.0822 12.3571 35.9355 12.2721 35.7833 12.1983V11.1187C35.7833 10.9029 35.6083 10.728 35.3926 10.728H33.1047C32.889 10.728 32.7141 10.9029 32.7141 11.1187V12.1983C32.5618 12.2721 32.4151 12.3571 32.2747 12.4524L31.3393 11.9123C31.2497 11.8605 31.143 11.8464 31.043 11.8733C30.9428 11.9001 30.8576 11.9656 30.8057 12.0553L29.6618 14.0367C29.5539 14.2235 29.6179 14.4624 29.8048 14.5703L30.7403 15.1104C30.7342 15.1949 30.7312 15.2797 30.7312 15.364C30.7312 15.4484 30.7342 15.5331 30.7403 15.6176L29.8048 16.1577C29.618 16.2656 29.5539 16.5045 29.6618 16.6913L30.8057 18.6727C30.8576 18.7624 30.9429 18.8279 31.043 18.8547C31.143 18.8816 31.2496 18.8675 31.3393 18.8157L32.2747 18.2756C32.4151 18.371 32.5618 18.4559 32.7141 18.5298V19.6094C32.7141 19.8251 32.889 20 33.1047 20H35.3926C35.6083 20 35.7833 19.8251 35.7833 19.6094V18.5298C35.9355 18.4559 36.0822 18.371 36.2226 18.2756L37.158 18.8157C37.2476 18.8675 37.3543 18.8816 37.4543 18.8547C37.5544 18.8279 37.6398 18.7624 37.6916 18.6727L38.8356 16.6913C38.8874 16.6016 38.9014 16.495 38.8746 16.3949C38.8478 16.2948 38.7823 16.2095 38.6926 16.1577ZM37.2103 17.9438L36.3921 17.4714C36.253 17.3911 36.0789 17.4041 35.9532 17.5043C35.7393 17.6749 35.5026 17.8119 35.2497 17.9114C35.1002 17.9701 35.002 18.1143 35.002 18.2749V19.2187H33.4953V18.2749C33.4953 18.1144 33.3971 17.9702 33.2476 17.9114C32.9947 17.8119 32.758 17.6749 32.5441 17.5043C32.4185 17.4041 32.2443 17.3911 32.1052 17.4714L31.287 17.9438L30.5337 16.6389L31.3515 16.1668C31.4904 16.0866 31.5662 15.9295 31.5425 15.7709C31.5226 15.6367 31.5124 15.4998 31.5124 15.364C31.5124 15.2282 31.5226 15.0913 31.5425 14.9571C31.5662 14.7985 31.4904 14.6414 31.3515 14.5613L30.5337 14.089L31.287 12.7842L32.1052 13.2566C32.2443 13.3369 32.4185 13.3239 32.5441 13.2237C32.758 13.053 32.9947 12.9161 33.2476 12.8166C33.3971 12.7578 33.4953 12.6136 33.4953 12.4531V11.5092H35.002V12.4531C35.002 12.6136 35.1002 12.7578 35.2497 12.8166C35.5026 12.9161 35.7393 13.053 35.9532 13.2237C36.0789 13.3239 36.253 13.3369 36.3921 13.2566L37.2103 12.7842L37.9637 14.089L37.1458 14.5613C37.0069 14.6414 36.9311 14.7985 36.9548 14.9571C36.9747 15.0913 36.9849 15.2282 36.9849 15.364C36.9849 15.4998 36.9747 15.6367 36.9548 15.7709C36.9311 15.9295 37.0069 16.0866 37.1458 16.1668L37.9637 16.6389L37.2103 17.9438Z" fill="black"/>
<path d="M27.3339 3.646C27.5497 3.646 27.7245 3.47108 27.7245 3.25537C27.7245 3.03966 27.5497 2.86475 27.3339 2.86475C25.473 2.86475 23.959 4.37873 23.959 6.23966C23.959 6.45537 24.1339 6.63029 24.3496 6.63029C24.5653 6.63029 24.7402 6.45541 24.7402 6.23966C24.7402 4.80952 25.9038 3.646 27.3339 3.646Z" fill="black"/>
<path d="M29.5389 3.68483C29.2946 3.47377 29.0221 3.29923 28.7291 3.166C28.5327 3.07665 28.3011 3.16358 28.2119 3.35996C28.1226 3.55634 28.2094 3.78792 28.4058 3.87723C28.6309 3.97957 28.8403 4.1137 29.0282 4.27603C29.1021 4.33981 29.193 4.37106 29.2834 4.37106C29.393 4.37106 29.502 4.32521 29.5792 4.23578C29.7202 4.07254 29.7022 3.82587 29.5389 3.68483Z" fill="black"/>
</svg>
