<svg width="10" height="14" viewBox="0 0 10 14" fill="none" xmlns="http://www.w3.org/2000/svg">
<path d="M4.66587 0.851564C4.0661 0.851144 3.47214 0.968967 2.91794 1.19829C2.36375 1.42762 1.8602 1.76395 1.4361 2.18805C1.012 2.61215 0.675668 3.1157 0.446341 3.6699C0.217013 4.22409 0.0991903 4.81806 0.0996105 5.41783C0.0996105 8.84252 4.66587 13.8985 4.66587 13.8985C4.66587 13.8985 9.23293 8.84012 9.23293 5.41783C9.23335 4.81799 9.1155 4.22396 8.88612 3.66971C8.65675 3.11546 8.32034 2.61188 7.89616 2.18777C7.47197 1.76366 6.96833 1.42734 6.41405 1.19806C5.85976 0.968785 5.26571 0.851039 4.66587 0.851564ZM4.66587 7.04909C4.34324 7.04909 4.02785 6.95342 3.75959 6.77417C3.49133 6.59493 3.28225 6.34016 3.15878 6.04208C3.03531 5.74401 3.00301 5.41602 3.06595 5.09958C3.12889 4.78315 3.28426 4.49248 3.51239 4.26435C3.74053 4.03621 4.03119 3.88085 4.34763 3.81791C4.66406 3.75496 4.99205 3.78727 5.29013 3.91073C5.5882 4.0342 5.84297 4.24328 6.02222 4.51154C6.20146 4.7798 6.29714 5.09519 6.29714 5.41783C6.29714 5.85046 6.12527 6.26538 5.81935 6.5713C5.51343 6.87722 5.09851 7.04909 4.66587 7.04909Z" fill="black"/>
</svg>
