<svg width="175" height="147" viewBox="0 0 175 147" fill="none" xmlns="http://www.w3.org/2000/svg">
<g clip-path="url(#clip0_131_2075)">
<path fill-rule="evenodd" clip-rule="evenodd" d="M171.422 56.3632C172.455 57.0178 174.538 58.6459 174.908 60.0642C175.277 61.4825 174.412 63.2113 173.757 64.6212C173.102 66.0312 157.99 97.7793 156.755 100.381C154.756 104.577 152.891 109.218 151.58 112.776C149.43 118.651 146.893 125.054 144.625 131.24C143.953 133.052 143.331 135.914 141.525 137.349C139.921 138.625 137.099 137.97 134.856 137.517C132.517 137.028 130.206 136.411 127.934 135.671C123.356 134.219 118.475 132.566 113.923 130.82C111.134 129.754 108.883 128.73 106.766 127.883C102.162 126.061 97.5255 124.249 92.6115 122.125C89.0162 120.59 85.7989 118.29 85.8913 114.95C86.1031 113.283 86.4917 111.643 87.0506 110.057C87.521 108.379 87.9494 106.7 88.4786 105.131C89.6546 101.707 91.1666 98.35 92.5695 95.1609C96.9627 85.0901 100.869 75.0193 105.338 65.0241C108.194 58.6375 111.907 51.4117 115.334 44.7818C117.602 40.4765 120.903 35.3488 124.759 35.2481C126.439 35.1893 128.522 36.0118 130.412 36.6244C136.082 38.4372 142.08 41.5591 147.842 44.4797C154.084 47.6855 159.384 49.9179 165.407 52.9559C167.423 54.0217 169.414 55.1043 171.422 56.3632Z" fill="#C1D5E8"/>
<path fill-rule="evenodd" clip-rule="evenodd" d="M166.432 67.239C166.516 67.0376 166.6 66.8446 166.675 66.6432C165.399 65.9718 164.038 65.3843 162.769 64.7381C156.889 61.784 151.69 59.1572 145.717 56.3458C142.08 54.6673 138.35 53.0476 134.436 51.2013C132.823 50.4376 131.218 49.6907 128.791 48.6248C127.346 47.987 123.868 46.1071 123.154 46.3841C122.44 46.661 121.474 48.4234 121.743 49.12C122.012 49.8166 123.095 50.1355 124.263 50.7061C127.22 52.158 130.143 53.6602 132.663 54.81C142.256 59.2244 151.488 64.3101 160.762 68.842C161.971 69.4378 163.458 70.2687 164.651 70.7806C165.281 69.656 165.911 68.4559 166.432 67.239Z" fill="#334F70"/>
<path fill-rule="evenodd" clip-rule="evenodd" d="M162.358 75.4634C160.762 74.4983 158.939 73.7849 157.259 72.8953C151.379 69.9412 146.179 67.3144 140.207 64.503C136.569 62.8245 132.84 61.2048 128.925 59.3585C127.312 58.5948 125.708 57.8479 123.289 56.7821C121.836 56.1443 118.358 54.2644 117.644 54.5413C116.93 54.8183 115.964 56.5807 116.241 57.2772C116.518 57.9738 117.585 58.2843 118.761 58.8634C121.718 60.3152 124.641 61.8091 127.161 62.9672C136.754 67.3816 145.986 72.4589 155.26 76.9992C157.057 77.8384 159.46 79.2903 160.619 79.3826C161.207 78.0986 161.77 76.7726 162.358 75.4634Z" fill="#334F70"/>
<path fill-rule="evenodd" clip-rule="evenodd" d="M158.401 83.8564C157.435 83.3864 156.444 82.9416 155.503 82.4633C149.623 79.5092 144.424 76.8907 138.451 74.0709C134.822 72.3925 131.084 70.7727 127.17 68.918C125.557 68.1627 123.961 67.4074 121.533 66.3416C120.08 65.7122 116.611 63.8239 115.888 64.1092C115.166 64.3946 114.208 66.1486 114.486 66.8451C114.763 67.5417 115.83 67.8522 117.006 68.4229C119.962 69.8831 122.886 71.377 125.406 72.5351C134.99 76.9495 144.23 82.0268 153.504 86.5671C154.344 86.9699 155.277 87.4819 156.175 87.9267C156.931 86.6007 157.679 85.2327 158.401 83.8564Z" fill="#334F70"/>
<path fill-rule="evenodd" clip-rule="evenodd" d="M153.639 92.3828C152.437 91.7702 151.177 91.2163 149.993 90.6204C144.155 87.6663 138.921 85.0479 132.941 82.2281C129.312 80.5496 125.574 78.9215 121.659 77.0752C120.046 76.3199 118.45 75.5646 116.023 74.4988C114.57 73.8693 111.1 71.9811 110.378 72.258C109.655 72.535 108.698 74.2973 108.975 75.0023C109.252 75.7073 110.319 76.0094 111.495 76.5801C114.452 78.0319 117.375 79.5342 119.895 80.6839C129.48 85.1067 138.72 90.184 147.985 94.7159C149.01 95.2194 150.228 95.8908 151.345 96.3943L153.639 92.3828Z" fill="#334F70"/>
<path fill-rule="evenodd" clip-rule="evenodd" d="M150.211 101.061L150.463 100.473C149.178 99.802 147.826 99.2061 146.549 98.5599C140.669 95.6142 135.469 92.9874 129.496 90.1676C125.868 88.4891 122.13 86.8694 118.215 85.0231C116.602 84.2594 114.998 83.5125 112.579 82.4383C111.125 81.8088 107.648 79.9206 106.934 80.2059C106.22 80.4912 105.254 82.2452 105.531 82.9418C105.808 83.6384 106.875 83.9489 108.051 84.5196C111.008 85.9798 113.931 87.4737 116.451 88.6318C126.002 93.0713 135.242 98.1907 144.541 102.689C145.751 103.276 147.238 104.107 148.43 104.619C149.06 103.453 149.69 102.286 150.211 101.061Z" fill="#334F70"/>
<path fill-rule="evenodd" clip-rule="evenodd" d="M126.254 39.6114C126.812 39.1387 127.514 38.8694 128.245 38.8477C129.169 38.8477 132.252 39.6869 131.605 40.9793C130.958 42.2717 126.38 41.2227 126.254 39.6114Z" fill="white"/>
<path fill-rule="evenodd" clip-rule="evenodd" d="M123.482 40.417C122.701 41.2562 121.205 42.2465 120.475 41.7094C118.694 40.417 123.532 38.193 123.482 40.417Z" fill="white"/>
<path fill-rule="evenodd" clip-rule="evenodd" d="M127.094 43.2454C127.03 43.3224 126.987 43.4147 126.97 43.5133C126.952 43.6118 126.96 43.7133 126.993 43.8077C126.623 44.1498 126.14 44.3447 125.635 44.3555C125.131 44.3663 124.64 44.1924 124.255 43.8664C124.289 43.6552 124.289 43.4399 124.255 43.2286C125.044 42.5237 126.296 42.1124 127.094 43.2454Z" fill="white"/>
<path fill-rule="evenodd" clip-rule="evenodd" d="M170.985 59.753C170.145 62.6148 165.205 58.9893 166.079 57.4703C166.953 55.9513 170.523 58.1249 170.985 59.753Z" fill="white"/>
<path fill-rule="evenodd" clip-rule="evenodd" d="M161.232 53.9294C162.736 54.7686 163.794 55.2806 163.131 56.4471C162.097 58.2179 155.571 55.0456 156.553 53.1657C157.351 51.6299 159.829 53.1237 161.232 53.9294Z" fill="white"/>
<path fill-rule="evenodd" clip-rule="evenodd" d="M171.363 64.3776C171.548 65.7288 170.01 67.2226 169.011 66.3834C167.826 65.3931 169.977 62.5145 171.363 64.3776Z" fill="white"/>
<path fill-rule="evenodd" clip-rule="evenodd" d="M137.972 133.824C136.721 135.754 142.66 136.451 141.904 134.31C141.509 133.194 139.022 133.438 137.972 133.824Z" fill="white"/>
<path fill-rule="evenodd" clip-rule="evenodd" d="M134.402 135.62C134.872 135.494 135.763 134.974 135.435 134.042C134.998 132.842 132.462 132.363 131.496 131.994C130.32 131.533 128.304 130.14 127.195 131.038C125.624 132.322 128.942 133.908 130.101 134.394C130.723 134.655 131.353 134.856 131.89 135.057C132.781 135.41 133.47 135.871 134.402 135.62Z" fill="white"/>
<path fill-rule="evenodd" clip-rule="evenodd" d="M130.588 114.303C132.336 114.521 134.41 112.725 135.763 114.077C137.115 115.428 135.024 117.719 134.679 119.641C136.578 119.767 138.653 118.885 140.114 120.371C141.576 121.856 140.954 126.858 139.929 128.688C139.536 127.565 139.307 126.392 139.249 125.205C139.173 124.366 139.476 122.41 138.821 121.722C137.393 120.245 134.746 122.561 133.386 121.235C132.025 119.909 133.495 117.626 134.116 115.797C132.537 115.025 129.916 117.803 128.463 116.754C127.136 115.814 128.094 114.412 128.866 112.893C126.01 113.9 121.575 119.716 119.089 117.677C117.56 116.418 118.719 114.513 119.467 112.851C117.182 114.404 112.293 120.555 110.394 117.131C109.269 115.109 111.73 110.72 114.292 107.656C115.829 105.818 118.45 102.906 120.004 103.93C121.81 105.105 120.525 107.102 120.004 108.622C121.919 108.118 123.767 103.964 125.7 104.174C127.732 105.424 125.994 107.337 125.078 108.999C124.162 110.661 123.398 112.264 122.877 113.262C124.792 112.751 129.757 107.648 131.815 108.378C134.402 109.293 132.134 112.457 130.588 114.303ZM113.469 114.421C114.863 113.581 116.233 111.903 117.619 111.064C117.299 109.864 118.165 108.647 118.265 107.438C116.375 109.78 114.452 112.113 113.469 114.421Z" fill="#334F70"/>
<path fill-rule="evenodd" clip-rule="evenodd" d="M67.596 99.088C69.9648 98.1565 74.9881 97.4096 76.7353 98.2488C77.7885 98.9568 78.5354 100.036 78.827 101.27C79.2196 102.718 79.5004 104.194 79.667 105.684C80.507 111.307 81.515 117.173 81.9266 122.805C82.1198 125.322 82.2626 128.402 81.599 130.45C81.2384 131.515 80.5973 132.464 79.743 133.196C78.8888 133.928 77.8529 134.417 76.7443 134.611C75.6356 134.805 74.4951 134.697 73.4426 134.299C72.3901 133.9 71.4644 133.226 70.7628 132.347C69.3684 130.534 68.5116 126.85 68.0244 124.215C67.5372 121.579 67.0416 118.802 66.6216 115.487C66.2016 112.172 65.7228 109.268 65.4372 106.901C65.076 103.821 64.6811 100.246 67.596 99.088Z" fill="#C1D5E8"/>
<path fill-rule="evenodd" clip-rule="evenodd" d="M71.5439 126.33C72.7032 125.633 74.1564 125.692 75.3744 125.575C76.5924 125.457 77.9448 125.122 78.9361 125.675C78.5602 127.399 78.0259 129.085 77.34 130.711C77.1804 131.181 77.0796 132.138 76.6428 132.28C75.9456 132.515 74.5176 130.459 73.9968 129.863C73.5936 129.393 73.1568 128.915 72.762 128.487C72.1488 127.815 71.4515 127.228 71.5439 126.33Z" fill="#C64F69"/>
<path fill-rule="evenodd" clip-rule="evenodd" d="M28.5605 8.39188C31.4376 7.61975 34.3736 7.08643 37.3387 6.79734C45.4952 5.80704 53.9457 4.85032 62.4719 3.58308C67.9319 2.74384 73.8288 1.82908 79.6081 0.956278C85.0682 0.117045 91.3683 -1.27608 94.0396 2.55921C95.4424 4.60694 95.9716 8.06458 96.5596 11.1026C97.1476 14.1406 97.4584 16.6331 98.0464 19.8138C99.7265 29.0958 100.818 36.7747 102.204 45.8301C103.49 54.2224 104.985 63.647 105.565 71.2672C106.001 76.8229 106.312 82.1772 105.094 86.6168C103.803 90.8981 101.692 94.8884 98.878 98.366C97.5005 100.145 95.9715 101.802 94.3084 103.317C93.4977 104.139 92.6242 104.897 91.6959 105.583C88.4517 107.799 84.9037 109.535 81.1622 110.736C72.3532 113.613 62.8652 113.672 54.0213 110.904C52.9784 110.516 51.9697 110.041 51.0057 109.486C49.0194 108.523 47.1146 107.4 45.3104 106.129C41.7319 103.511 38.1787 100.422 35.8014 96.3435C33.4242 92.2648 31.9206 85.9957 30.7613 79.6343C29.6021 73.273 28.9637 68.2376 28.3001 62.4804C27.0317 51.369 25.2845 39.9219 24.184 28.802C23.9404 26.2843 23.5288 23.3218 23.344 20.502C23.1676 17.8165 22.9156 14.9043 23.4784 12.7979C24.2344 9.94446 26.0405 9.15558 28.5605 8.39188Z" fill="#25364F"/>
<path fill-rule="evenodd" clip-rule="evenodd" d="M72.0817 106.582C71.1408 109.335 78.6002 108.37 77.0209 105.986C76.1977 104.761 73.2325 105.793 72.0817 106.582Z" fill="white"/>
<path fill-rule="evenodd" clip-rule="evenodd" d="M68.2342 109.939C68.7635 109.637 69.6959 108.722 69.0155 107.698C68.1166 106.356 64.8742 106.549 63.5806 106.389C61.9929 106.188 59.1201 105.097 58.0365 106.532C56.4993 108.571 61.0353 109.503 62.6146 109.763C63.4546 109.897 64.2946 109.948 64.9918 110.032C66.2182 110.124 67.201 110.476 68.2342 109.939Z" fill="white"/>
<path fill-rule="evenodd" clip-rule="evenodd" d="M36.0535 85.4922C37.2631 86.3314 38.2543 88.5722 39.1027 90.8465C39.4723 91.82 40.0352 93.3642 39.1951 93.8258C38.1955 94.3377 37.2715 92.6424 36.9439 92.0298C35.9137 90.1903 35.2464 88.1704 34.9783 86.0796C35.0938 85.8995 35.2528 85.7513 35.4407 85.6486C35.6286 85.546 35.8393 85.4922 36.0535 85.4922Z" fill="white"/>
<path fill-rule="evenodd" clip-rule="evenodd" d="M44.0336 93.2806C45.8984 91.8371 48.3345 96.3773 46.5536 97.1075C45.764 97.4264 43.7564 95.664 43.5548 94.4051C43.5332 94.1926 43.5658 93.978 43.6496 93.7814C43.7333 93.5848 43.8654 93.4125 44.0336 93.2806Z" fill="white"/>
<path fill-rule="evenodd" clip-rule="evenodd" d="M44.6635 99.4907C45.2683 98.92 46.3435 99.3984 47.2423 100.254C47.9311 100.943 48.9223 102.579 47.9395 103.074C47.5516 103.149 47.1507 103.12 46.7775 102.99C46.4043 102.861 46.072 102.635 45.8143 102.336C44.9575 101.547 43.8823 100.238 44.6635 99.4907Z" fill="white"/>
<path fill-rule="evenodd" clip-rule="evenodd" d="M31.467 14.5359C33.9716 13.7766 36.5378 13.2374 39.1363 12.9245C46.4612 11.8083 53.6013 10.9775 60.9094 9.94525C67.8984 8.95496 75.6013 7.67933 82.6742 6.96598C86.345 6.60511 89.5875 6.25263 91.0743 9.24869C91.9647 11.0614 92.3175 13.3777 92.7543 15.694C93.1744 17.8424 93.7204 20.2007 94.1236 22.2988C94.5688 24.615 94.7704 26.6712 95.0812 28.7273C96.6352 39.0834 98.5504 50.3963 99.1385 60.1985C99.3904 64.3359 99.2393 67.953 97.7776 70.9575C96.3832 73.8192 93.8296 76.2111 91.0575 78.3595C85.505 82.5557 76.9957 85.5517 68.4612 86.5168C60.4726 87.4148 52.7949 86.7686 46.6628 84.2341C43.3028 82.8494 40.6567 81.4647 38.4475 78.7707C36.2382 76.0768 34.8774 72.1743 33.9534 67.2481C32.391 58.9061 31.3494 50.2032 30.1818 41.7186C29.2913 35.2649 28.7789 29.5497 28.1993 23.0541C28.0481 21.3756 27.8717 18.9586 28.3505 17.3892C28.5946 16.694 29.0068 16.0698 29.5505 15.572C30.0941 15.0742 30.7525 14.7183 31.467 14.5359Z" fill="white"/>
<path fill-rule="evenodd" clip-rule="evenodd" d="M88.3274 18.8495C89.8226 30.6491 91.1163 42.348 93.2919 54.5505C86.2778 59.0487 74.5092 61.0965 65.5715 61.9777C56.1381 62.9428 47.1584 63.0771 39.7579 61.2643C38.173 49.0619 36.8234 37.0021 35.709 25.085C40.1359 23.4065 44.5375 21.8707 49.2416 20.528C63.9586 16.3402 77.046 17.255 88.3274 18.8495Z" fill="#C1D5E8"/>
<path fill-rule="evenodd" clip-rule="evenodd" d="M45.1843 27.9463C46.3687 28.4666 46.4107 30.1619 46.5619 31.4627C46.93 34.0164 47.0902 36.5957 47.0407 39.1752C46.9903 40.2746 46.8307 41.6929 45.6379 41.9699C44.3947 41.181 44.2603 39.3682 44.0082 37.9667C43.4034 34.5175 43.563 30.464 44.6383 28.3659C44.6635 28.1393 44.8567 28.005 45.1843 27.9463Z" fill="white"/>
<path fill-rule="evenodd" clip-rule="evenodd" d="M46.9566 44.2526C48.1075 45.696 48.3007 48.5159 48.4771 50.7482C48.5779 51.9819 49.2499 56.2284 47.637 56.4382C46.2342 56.6145 45.8226 52.947 45.6126 50.7398C45.369 48.2221 45.0078 44.8652 46.1586 44.3113C46.4778 44.1435 46.7298 44.3197 46.9566 44.2526Z" fill="white"/>
<path fill-rule="evenodd" clip-rule="evenodd" d="M51.5936 27.4014C52.5512 28.0979 52.4336 29.6002 52.5176 30.7583C52.7024 33.1585 52.8956 35.4076 52.9628 37.9253C52.9628 38.8821 53.24 40.7032 52.1228 40.8543C50.6444 41.0557 50.4428 36.3644 50.3252 34.9796C50.09 32.5459 49.964 29.5834 50.72 27.8965C50.804 27.586 51.1736 27.4769 51.5936 27.4014Z" fill="white"/>
<path fill-rule="evenodd" clip-rule="evenodd" d="M53.7609 27.1744C54.3825 26.7799 56.8689 26.6876 58.4313 26.6289C59.5905 26.5869 62.0938 26.3603 62.1778 27.401C62.2366 28.1479 60.8842 28.4668 59.5989 28.685C58.0533 28.9452 53.4585 29.4151 53.156 28.1395C52.988 27.5101 53.3073 27.4513 53.7609 27.1744Z" fill="white"/>
<path fill-rule="evenodd" clip-rule="evenodd" d="M64.4291 26.5865C66.0083 26.0158 66.6216 31.4792 66.8316 33.3003C67.1172 35.818 67.5792 39.3344 66.0923 39.5023C64.6055 39.6701 64.1687 35.3061 63.9167 33.1577C63.7403 31.6974 63.0011 27.1152 64.4291 26.5865Z" fill="white"/>
<path fill-rule="evenodd" clip-rule="evenodd" d="M53.9038 55.3897C52.8958 54.7603 52.6102 52.5783 52.3161 50.9669C51.8432 48.4787 51.7047 45.9386 51.9045 43.4138C52.585 43.0697 52.7446 43.2544 53.299 43.4978C53.9742 46.0538 54.3603 48.6774 54.4498 51.3194C54.5506 52.7041 55.1218 54.5505 53.9038 55.3897Z" fill="white"/>
<path fill-rule="evenodd" clip-rule="evenodd" d="M66.8652 41.6428C68.226 43.7997 68.5452 46.7621 68.688 49.9848C68.7468 51.2269 69.1248 54.4327 67.554 54.4999C66.1932 54.5586 65.622 50.7317 65.4372 48.4154C65.2356 45.8054 65.1599 43.38 65.6304 42.2051C65.832 41.7267 66.1932 41.5421 66.8652 41.6428Z" fill="white"/>
<path fill-rule="evenodd" clip-rule="evenodd" d="M56.281 54.8182C57.2609 54.5186 58.26 54.2859 59.2715 54.1217C60.8675 53.8615 64.8827 53.358 64.9919 54.5581C65.0844 55.5064 63.0011 55.7414 61.4723 55.9344C59.9435 56.1274 58.4398 56.1442 57.583 56.2953C56.7262 56.4464 55.819 57.0086 55.483 56.1023C55.147 55.1959 55.735 55.0952 56.281 54.8182Z" fill="white"/>
<path fill-rule="evenodd" clip-rule="evenodd" d="M82.4893 24.581C82.3969 25.5629 81.0277 25.5965 80.1709 25.8147C77.0293 26.6036 72.9384 27.4932 70.9308 26.6539C70.5695 25.3028 73.1652 25.093 74.8788 24.7657C76.1304 24.5307 77.6677 24.346 79.0033 24.2118C80.4397 24.0271 82.0021 23.8257 82.4893 24.581Z" fill="white"/>
<path fill-rule="evenodd" clip-rule="evenodd" d="M70.8468 27.5859C71.6364 29.0629 71.6868 31.1694 72.09 33.4605C72.3168 34.862 73.4676 38.3952 71.8212 38.7309C70.5612 38.9911 70.3344 36.7755 70.0824 35.4411C69.5952 32.8647 69.2424 29.2811 69.8052 27.8293C69.9312 27.3593 70.4772 27.5187 70.8468 27.5859Z" fill="white"/>
<path fill-rule="evenodd" clip-rule="evenodd" d="M72.8796 39.1758C74.2572 38.5044 77.0797 38.3953 79.2469 38.2275C80.5741 38.1268 84.4382 37.2372 84.6566 38.4709C84.8414 39.5619 82.1366 39.9899 80.5405 40.2584C79.7005 40.3927 77.4997 40.678 75.8701 40.8039C74.5092 40.9046 72.0984 41.0809 71.8968 40.2249C71.6952 39.3688 72.2412 39.4947 72.8796 39.1758Z" fill="white"/>
<path fill-rule="evenodd" clip-rule="evenodd" d="M85.8997 39.6876C87.0925 41.2737 86.9665 43.9928 87.1933 46.4014C87.2941 47.4505 87.4453 48.7429 87.5965 49.8758C87.7225 50.8326 88.1845 52.511 86.7565 52.5446C85.8157 52.1753 85.8493 50.7403 85.5721 49.2632C84.9925 46.1413 84.0433 41.7101 84.7321 40.2834C84.8413 39.7715 85.1689 39.5869 85.8997 39.6876Z" fill="white"/>
<path fill-rule="evenodd" clip-rule="evenodd" d="M73.6189 52.8719C74.8285 52.1333 77.5417 52.0326 80.087 51.7725C81.6662 51.5962 85.2866 51.0507 85.3202 52.4606C85.3202 53.7447 80.3726 54.1391 79.0453 54.3489C77.9533 54.4832 73.5265 55.1881 72.9888 54.2566C72.4512 53.325 73.0812 53.1572 73.6189 52.8719Z" fill="white"/>
<path fill-rule="evenodd" clip-rule="evenodd" d="M55.7769 70.8229C56.3481 72.0482 56.1465 73.4832 56.1381 74.7085C56.1297 75.9338 56.3229 77.3102 55.6677 78.2333C53.9928 77.6863 52.3729 76.9839 50.8292 76.1352C50.3756 75.9254 49.4348 75.724 49.334 75.296C49.1744 74.5659 51.3668 73.3574 52.0136 72.9126C52.526 72.5517 53.0552 72.1657 53.5172 71.8216C54.2396 71.2677 54.8949 70.6382 55.7769 70.8229Z" fill="#C64F69"/>
<path fill-rule="evenodd" clip-rule="evenodd" d="M80.7673 67.5585C80.2381 68.8005 80.4817 70.2356 80.5405 71.4609C80.5993 72.6862 80.4313 74.0709 81.1201 74.9689C82.7744 74.3655 84.3688 73.6098 85.883 72.7114C86.3366 72.4931 87.269 72.2582 87.353 71.8134C87.4874 71.0832 85.2614 69.9503 84.5978 69.5223C84.0686 69.1782 83.5393 68.8089 83.0605 68.4816C82.3213 67.9781 81.6493 67.357 80.7673 67.5585Z" fill="#C64F69"/>
<path fill-rule="evenodd" clip-rule="evenodd" d="M66.8902 70.8979C67.4188 70.6175 68.0153 70.4903 68.6124 70.5308C69.2095 70.5713 69.7834 70.7777 70.2692 71.1269C70.755 71.4761 71.1334 71.9541 71.3616 72.5068C71.5899 73.0596 71.6588 73.665 71.5607 74.2549C71.4396 75.0974 71.0026 75.8625 70.3383 76.3953C69.6739 76.9282 68.8318 77.189 67.9822 77.125C67.4436 77.0093 66.9358 76.7803 66.4926 76.4533C66.0494 76.1263 65.6809 75.7087 65.4118 75.2284C65.2167 74.8485 65.1002 74.4332 65.0692 74.0074C65.0382 73.5816 65.0933 73.1538 65.2312 72.7497C65.3692 72.3456 65.5872 71.9734 65.8722 71.6553C66.1572 71.3371 66.5034 71.0796 66.8902 70.8979Z" fill="#C64F69"/>
<path fill-rule="evenodd" clip-rule="evenodd" d="M49.9556 125.046C47.8052 125.885 45.7555 126.842 43.5631 127.647C42.9898 125.897 42.2995 124.186 41.4967 122.528C39.2958 117.425 37.2042 112.121 35.0118 106.876C29.3165 93.2723 23.5204 79.2655 17.6403 65.4601C15.5403 60.4835 13.289 55.1795 11.0714 49.9008C10.7102 49.0615 10.4582 48.2894 10.0802 47.1984C9.64449 46.2726 9.42888 45.2587 9.45017 44.2359C9.66017 42.9687 11.5082 41.9532 12.869 41.8022C13.3524 41.7541 13.8405 41.7853 14.3138 41.8945C15.5067 42.3644 16.3887 44.9577 17.1027 46.569C21.0004 55.3893 24.3604 63.874 28.0817 72.7363C35.4654 90.1587 42.7735 107.925 49.9556 125.046Z" fill="#C1D5E8"/>
<path fill-rule="evenodd" clip-rule="evenodd" d="M14.9858 44.9497C15.9098 45.235 16.7246 47.6268 17.279 48.9277C20.3787 56.2625 23.1591 63.5135 26.158 70.9072C27.9808 75.4306 29.602 79.7527 31.4081 84.1838C32.0213 85.686 32.4581 87.2386 33.0125 88.7492C34.1213 91.7369 35.5325 94.6239 36.6582 97.4605C37.2546 98.9627 37.8342 100.44 38.4306 101.858C39.573 104.544 40.4886 106.893 41.5638 109.713C41.5638 109.797 41.4966 109.839 41.5638 109.973C41.7918 110.522 41.9909 111.082 42.1602 111.652C42.4122 112.348 43.0423 113.204 42.4123 113.935C41.421 113.935 41.2614 112.793 40.9758 112.164C40.4727 111.228 40.0185 110.268 39.615 109.285C39.4638 108.849 38.9934 107.959 38.6826 107.254C37.5402 104.644 36.3725 101.791 35.2133 99.1389C34.5329 97.5696 33.7517 95.7317 33.0125 93.9861C32.7017 93.2475 32.4833 92.4419 32.1725 91.7033C31.8617 90.9648 31.5005 90.4781 31.2401 89.8402C30.9797 89.2024 30.6941 88.2961 30.4001 87.5575C29.6104 85.6273 28.72 83.6971 27.9472 81.8088C23.806 71.738 19.8915 60.828 16.0106 49.9179C15.4814 48.4325 14.4566 46.3428 14.7422 45.0168C14.7422 44.9665 15.0194 44.7735 14.9858 44.9497Z" fill="white"/>
<path d="M12.2137 46.4601C12.1691 46.3574 12.0867 46.2757 11.9835 46.2319C11.8803 46.1882 11.7642 46.1858 11.6593 46.2251L9.97925 46.9301C9.97925 47.0224 10.038 47.1063 10.0716 47.1903L10.2565 47.7358L11.9365 47.0056C11.9909 46.9885 12.0413 46.9607 12.0848 46.9239C12.1284 46.8871 12.1641 46.8419 12.1899 46.7911C12.2157 46.7403 12.2311 46.6849 12.2352 46.628C12.2393 46.5712 12.232 46.5141 12.2137 46.4601Z" fill="#334F70"/>
<path d="M13.9779 50.6643C13.9576 50.612 13.927 50.5643 13.8879 50.524C13.8488 50.4838 13.802 50.4517 13.7503 50.4298C13.6987 50.4079 13.6431 50.3966 13.587 50.3965C13.5308 50.3964 13.4752 50.4076 13.4235 50.4293L11.6174 51.1846L11.945 51.9651L13.7511 51.2098C13.8024 51.1896 13.8491 51.1593 13.8884 51.1206C13.9278 51.082 13.9589 51.0359 13.9801 50.985C14.0012 50.9341 14.012 50.8795 14.0116 50.8244C14.0112 50.7693 13.9997 50.7149 13.9779 50.6643Z" fill="#334F70"/>
<path d="M15.7503 54.8602C15.7292 54.8087 15.698 54.7619 15.6586 54.7225C15.6192 54.6831 15.5723 54.6519 15.5207 54.6309C15.4691 54.6098 15.4138 54.5991 15.358 54.5996C15.3023 54.6001 15.2472 54.6117 15.1959 54.6336L13.3899 55.389L13.7175 56.1694L15.5235 55.389C15.623 55.348 15.7025 55.2696 15.7449 55.1708C15.7872 55.072 15.7892 54.9605 15.7503 54.8602Z" fill="#334F70"/>
<path d="M17.5144 59.0571C17.4934 59.0056 17.4622 58.9588 17.4226 58.9196C17.3829 58.8805 17.3358 58.8498 17.284 58.8294C17.2321 58.809 17.1767 58.7993 17.121 58.801C17.0653 58.8026 17.0105 58.8155 16.96 58.8389L15.1624 59.5942L15.49 60.3747L17.296 59.6194C17.3993 59.5735 17.4803 59.4886 17.5212 59.3832C17.5621 59.2779 17.5596 59.1607 17.5144 59.0571Z" fill="#334F70"/>
<path d="M19.3203 63.2615C19.2742 63.1603 19.1911 63.0805 19.0881 63.0384C18.985 62.9962 18.8698 62.995 18.7659 63.035L16.9683 63.7903C17.0859 64.0504 17.1951 64.3106 17.3043 64.5708L19.0935 63.8238C19.1454 63.8019 19.1925 63.7699 19.232 63.7297C19.2715 63.6895 19.3026 63.642 19.3237 63.5897C19.3448 63.5375 19.3553 63.4816 19.3547 63.4253C19.3542 63.369 19.3424 63.3133 19.3203 63.2615Z" fill="#334F70"/>
<path d="M21.0508 67.4656C21.0307 67.4133 21 67.3657 20.9608 67.3256C20.9215 67.2856 20.8745 67.254 20.8226 67.2328C20.7706 67.2115 20.7149 67.2012 20.6588 67.2022C20.6027 67.2033 20.5475 67.2158 20.4964 67.239L18.7156 67.9943L19.0432 68.7748L20.8324 68.0195C20.884 67.9985 20.9308 67.9673 20.97 67.9277C21.0092 67.8882 21.0399 67.8411 21.0603 67.7893C21.0808 67.7375 21.0904 67.6821 21.0888 67.6265C21.0872 67.5708 21.0742 67.5161 21.0508 67.4656Z" fill="#334F70"/>
<path d="M22.8233 71.6708C22.8021 71.6192 22.771 71.5724 22.7315 71.533C22.6921 71.4936 22.6452 71.4625 22.5936 71.4414C22.542 71.4203 22.4867 71.4097 22.431 71.4102C22.3752 71.4107 22.3201 71.4222 22.2689 71.4442L20.488 72.1743L20.8156 72.9548L22.6049 72.2079C22.7035 72.1636 22.7812 72.0831 22.8218 71.9831C22.8625 71.883 22.863 71.7712 22.8233 71.6708Z" fill="#334F70"/>
<path d="M24.6543 75.8746C24.6114 75.7704 24.5292 75.6874 24.4254 75.6434C24.3216 75.5994 24.2047 75.598 24.0999 75.6396L22.2603 76.4117L22.5879 77.1922L24.4275 76.4201C24.4788 76.3999 24.5255 76.3696 24.5648 76.331C24.6042 76.2923 24.6354 76.2462 24.6565 76.1953C24.6777 76.1445 24.6884 76.0899 24.688 76.0348C24.6876 75.9797 24.6761 75.9252 24.6543 75.8746Z" fill="#334F70"/>
<path d="M26.4185 80.0712C26.3973 80.0196 26.3661 79.9728 26.3267 79.9334C26.2873 79.894 26.2404 79.8629 26.1888 79.8418C26.1372 79.8207 26.0819 79.8101 26.0261 79.8106C25.9704 79.811 25.9153 79.8226 25.864 79.8446L24.0244 80.6167L24.3604 81.4056L26.2085 80.6251C26.2601 80.6043 26.3069 80.573 26.3459 80.5333C26.3849 80.4935 26.4152 80.4461 26.4349 80.3941C26.4546 80.342 26.4634 80.2865 26.4605 80.2309C26.4577 80.1753 26.4434 80.121 26.4185 80.0712Z" fill="#334F70"/>
<path d="M28.1908 84.2672C28.1689 84.2164 28.1371 84.1704 28.0973 84.1319C28.0575 84.0934 28.0105 84.0632 27.959 84.0429C27.9075 84.0226 27.8524 84.0127 27.7971 84.0137C27.7417 84.0148 27.6871 84.0268 27.6364 84.049L25.7883 84.8211L26.1159 85.61L27.9724 84.8295C28.0757 84.7835 28.1566 84.6986 28.1975 84.5933C28.2385 84.488 28.236 84.3708 28.1908 84.2672Z" fill="#334F70"/>
<path d="M29.9632 88.4715C29.9171 88.3703 29.834 88.2904 29.731 88.2483C29.6279 88.2062 29.5127 88.205 29.4088 88.2449L27.5439 89.0338C27.6531 89.2856 27.7623 89.5541 27.8715 89.8143L29.7364 89.0338C29.7883 89.0118 29.8353 88.9798 29.8748 88.9397C29.9143 88.8995 29.9455 88.8519 29.9666 88.7997C29.9877 88.7474 29.9982 88.6916 29.9976 88.6352C29.997 88.5789 29.9853 88.5233 29.9632 88.4715Z" fill="#334F70"/>
<path d="M31.7273 92.6767C31.7062 92.6251 31.675 92.5783 31.6356 92.5389C31.5962 92.4995 31.5493 92.4683 31.4977 92.4473C31.4461 92.4262 31.3908 92.4156 31.335 92.416C31.2793 92.4165 31.2242 92.4281 31.1729 92.4501L29.3081 93.2389L29.6357 94.0194L31.5089 93.2305C31.5598 93.2086 31.6058 93.1769 31.6444 93.1372C31.6829 93.0974 31.7132 93.0505 31.7335 92.999C31.7538 92.9475 31.7637 92.8925 31.7626 92.8372C31.7616 92.7819 31.7496 92.7273 31.7273 92.6767Z" fill="#334F70"/>
<path d="M33.4998 96.8808C33.4786 96.8292 33.4474 96.7824 33.408 96.743C33.3686 96.7036 33.3217 96.6725 33.2701 96.6514C33.2185 96.6303 33.1632 96.6197 33.1074 96.6201C33.0517 96.6206 32.9966 96.6322 32.9454 96.6542L31.0637 97.443L31.3913 98.2319L33.273 97.3927C33.3672 97.3502 33.4425 97.2745 33.4843 97.18C33.5262 97.0856 33.5317 96.979 33.4998 96.8808Z" fill="#334F70"/>
<path d="M35.2806 101.086C35.2595 101.034 35.2283 100.987 35.1888 100.948C35.1494 100.909 35.1025 100.878 35.0509 100.856C34.9993 100.835 34.944 100.825 34.8883 100.825C34.8325 100.826 34.7774 100.837 34.7262 100.859L32.8193 101.656L33.1469 102.437L35.0538 101.598C35.1493 101.557 35.2258 101.481 35.2678 101.386C35.3099 101.291 35.3145 101.184 35.2806 101.086Z" fill="#334F70"/>
<path d="M37.0446 105.29C37.0253 105.237 36.9952 105.189 36.9563 105.148C36.9175 105.107 36.8705 105.074 36.8185 105.052C36.7665 105.03 36.7105 105.019 36.6541 105.02C36.5976 105.02 36.5418 105.032 36.4902 105.055L34.575 105.894L34.9026 106.675L36.8262 105.836C36.8767 105.815 36.9226 105.784 36.961 105.745C36.9995 105.706 37.0298 105.66 37.0501 105.609C37.0705 105.558 37.0805 105.504 37.0795 105.449C37.0786 105.394 37.0667 105.34 37.0446 105.29Z" fill="#334F70"/>
<path d="M38.8171 109.487C38.7951 109.435 38.7631 109.388 38.7229 109.348C38.6827 109.309 38.6351 109.278 38.5828 109.257C38.5305 109.236 38.4746 109.225 38.4182 109.226C38.3618 109.226 38.3061 109.238 38.2543 109.26L36.3223 110.099L36.6499 110.88L38.5903 110.04C38.6419 110.019 38.6888 109.988 38.7282 109.949C38.7676 109.909 38.7988 109.863 38.8199 109.811C38.841 109.759 38.8516 109.704 38.8512 109.649C38.8507 109.593 38.8391 109.538 38.8171 109.487Z" fill="#334F70"/>
<path d="M40.5893 113.691C40.5448 113.588 40.4623 113.506 40.3591 113.462C40.2559 113.419 40.1399 113.416 40.0349 113.456L38.0525 114.295C38.1533 114.555 38.2625 114.815 38.3717 115.084L40.3541 114.245C40.457 114.2 40.5388 114.118 40.5826 114.015C40.6263 113.911 40.6288 113.795 40.5893 113.691Z" fill="#334F70"/>
<path d="M42.3534 117.887C42.3315 117.837 42.2997 117.791 42.2599 117.752C42.2202 117.714 42.1732 117.683 42.1216 117.663C42.0701 117.643 42.0151 117.633 41.9597 117.634C41.9043 117.635 41.8497 117.647 41.799 117.669L39.783 118.508L40.1106 119.289L42.135 118.45C42.1869 118.428 42.2339 118.396 42.2731 118.355C42.3124 118.315 42.3431 118.267 42.3635 118.215C42.3839 118.162 42.3935 118.106 42.3917 118.05C42.39 117.994 42.377 117.938 42.3534 117.887Z" fill="#334F70"/>
<path d="M44.1176 122.092C44.0749 121.99 43.9935 121.909 43.8913 121.866C43.789 121.824 43.6741 121.823 43.5716 121.865L41.564 122.704C41.6732 122.964 41.7908 123.225 41.9084 123.476L43.8992 122.637C43.9998 122.593 44.0791 122.511 44.1199 122.409C44.1607 122.307 44.1599 122.193 44.1176 122.092Z" fill="#334F70"/>
<path d="M5.99766 37.8659C5.85667 37.563 5.84111 37.2167 5.95437 36.9024C6.06764 36.588 6.30056 36.3311 6.60247 36.1875L9.70212 34.7356C10.0056 34.597 10.3514 34.5826 10.6654 34.6955C10.9794 34.8085 11.2367 35.0397 11.3821 35.3398L13.583 40.0144C13.7234 40.3183 13.7377 40.6655 13.6229 40.9799C13.508 41.2944 13.2732 41.5507 12.9698 41.6928L9.87012 43.1447C9.56691 43.2856 9.22029 43.3011 8.90566 43.1879C8.59104 43.0748 8.33387 42.8421 8.1901 42.5404L5.99766 37.8659Z" fill="#C64F69"/>
<path d="M5.67856 32.8476C5.65923 32.6791 5.69142 32.5088 5.7709 32.359C5.85037 32.2092 5.97339 32.0869 6.12377 32.0083L6.96378 31.6307C7.12369 31.5783 7.29566 31.5751 7.45742 31.6214C7.61918 31.6678 7.76326 31.7617 7.871 31.8909L9.92903 34.7191C10.018 34.9083 10.0282 35.125 9.9573 35.3217C9.88643 35.5184 9.7403 35.679 9.55102 35.7681L7.61059 36.6409C7.41864 36.7197 7.20429 36.7247 7.00886 36.655C6.81342 36.5852 6.65075 36.4457 6.55218 36.2633L5.71216 32.8476" fill="#C64F69"/>
<path d="M6.32521 32.1678L6.93002 31.8909L0.20991 18.1275C0.194786 18.1047 0.172681 18.0875 0.146925 18.0785C0.12117 18.0694 0.0931573 18.0689 0.0671079 18.0771C0.0419849 18.0881 0.0215146 18.1076 0.00924188 18.1321C-0.00303084 18.1567 -0.00633314 18.1847 -9.31509e-05 18.2114L6.32521 32.1678Z" fill="#334F70"/>
<path d="M5.88014 32.1089C5.86458 32.0759 5.85571 32.0401 5.85405 32.0036C5.85238 31.9671 5.85796 31.9307 5.87045 31.8963C5.88294 31.862 5.9021 31.8305 5.92683 31.8036C5.95156 31.7767 5.98137 31.755 6.01455 31.7396L6.74536 31.3956C6.77822 31.3788 6.81418 31.369 6.851 31.3667C6.88783 31.3645 6.92472 31.3698 6.95939 31.3824C6.99406 31.395 7.02577 31.4146 7.05253 31.4399C7.0793 31.4653 7.10055 31.4959 7.11496 31.5298C7.13329 31.5619 7.14458 31.5974 7.1481 31.6342C7.15161 31.6709 7.14727 31.7079 7.13535 31.7429C7.12343 31.7778 7.10422 31.8098 7.07898 31.8367C7.05374 31.8636 7.02305 31.8849 6.98896 31.8991L6.24975 32.2516C6.18164 32.2802 6.10508 32.2813 6.03616 32.2547C5.96723 32.2281 5.91132 32.1758 5.88014 32.1089Z" fill="#334F70"/>
<path d="M7.24939 44.2026C7.1672 44.0365 7.15372 43.8448 7.21188 43.6689C7.27005 43.493 7.39517 43.3471 7.5602 43.2626L14.5659 39.9812C14.6495 39.9403 14.7405 39.9165 14.8335 39.9113C14.9264 39.906 15.0195 39.9194 15.1072 39.9507C15.1949 39.982 15.2754 40.0305 15.3441 40.0934C15.4127 40.1563 15.468 40.2323 15.5067 40.3169C15.5843 40.4874 15.5917 40.6815 15.5272 40.8574C15.4628 41.0332 15.3317 41.1767 15.1623 41.2569L8.19021 44.5383C8.10681 44.5804 8.0157 44.6051 7.92242 44.611C7.82915 44.6168 7.73566 44.6036 7.64765 44.5722C7.55963 44.5408 7.47894 44.4919 7.41047 44.4283C7.342 44.3648 7.2872 44.288 7.24939 44.2026Z" fill="#C64F69"/>
<path fill-rule="evenodd" clip-rule="evenodd" d="M51.4844 126.607C52.8621 126.749 54.2481 126.338 55.1805 127.051C55.8777 127.597 56.2641 128.73 56.7093 129.661C58.0746 132.549 59.2475 135.524 60.2206 138.566C60.7246 138.373 61.7494 138.096 62.287 138.473C63.3622 140.202 60.2206 141.067 58.6918 141.713C55.0881 143.232 51.2744 144.894 47.528 146.396C46.4948 146.807 44.4199 147.613 44.1679 146.211C43.9831 145.003 45.4951 144.751 45.848 144.415C45.2431 142.997 44.5459 141.117 43.7731 139.195C42.9652 137.475 42.37 135.663 42.0007 133.799C41.8875 133.125 41.9615 132.433 42.2148 131.798C42.4681 131.163 42.8909 130.61 43.4371 130.199C42.7063 130.442 41.9839 130.82 41.1019 131.105C40.2763 131.459 39.3876 131.641 38.4894 131.642C38.0022 131.575 37.4478 131.155 37.4142 130.744C37.3134 129.703 39.7075 128.78 41.0095 128.134C43.6471 126.833 46.7216 125.255 49.4768 124.173C51.0233 123.559 52.6196 123.079 54.2481 122.738C55.0881 122.578 55.7013 122.88 55.7769 123.275C55.9365 124.206 54.4833 124.869 53.8869 125.255C53.1518 125.814 52.3434 126.268 51.4844 126.607Z" fill="#C64F69"/>
<path fill-rule="evenodd" clip-rule="evenodd" d="M44.6215 136.459C43.6135 136.233 44.2603 138.826 45.0331 138.138C45.4363 137.836 44.9575 136.795 44.6215 136.459Z" fill="white"/>
<path fill-rule="evenodd" clip-rule="evenodd" d="M43.3026 135.234C43.4286 135.41 43.7898 135.704 44.1426 135.418C44.4954 135.133 44.3778 133.908 44.3778 133.446C44.3778 132.984 44.655 131.818 44.1006 131.499C43.3194 131.037 43.1766 132.674 43.1514 133.245C43.1514 133.547 43.1514 133.84 43.1514 134.084C43.1346 134.529 43.0506 134.889 43.3026 135.234Z" fill="white"/>
<path fill-rule="evenodd" clip-rule="evenodd" d="M58.0196 135.955C57.7946 136.839 57.7946 137.765 58.0196 138.649C58.0952 139.094 58.2296 139.816 58.6412 139.791C59.0529 139.765 59.1033 138.951 59.0949 138.616C59.0825 137.696 58.8943 136.787 58.5404 135.938C58.4583 135.9 58.3685 135.882 58.278 135.885C58.1876 135.888 58.0991 135.912 58.0196 135.955Z" fill="white"/>
<path fill-rule="evenodd" clip-rule="evenodd" d="M57.0117 138.75C55.9953 138.616 56.0709 140.865 56.9109 140.739C57.2805 140.689 57.6501 139.589 57.4569 139.06C57.4156 138.975 57.3529 138.901 57.275 138.847C57.197 138.793 57.1064 138.759 57.0117 138.75Z" fill="white"/>
<path fill-rule="evenodd" clip-rule="evenodd" d="M107.833 25.4795C113.526 25.8374 119.175 26.7167 124.708 28.1063C124.641 29.1721 124.498 30.0197 124.389 30.9513C124.178 31.936 124.178 32.9543 124.389 33.939C124.868 35.4496 127.522 35.9867 128.472 37.1952C129.181 38.1199 129.565 39.2528 129.564 40.4178C129.526 41.2781 129.439 42.1356 129.303 42.9859C129.06 45.3693 128.598 47.9625 128.236 50.4299C127.027 58.646 125.716 66.8201 124.078 74.7005C123.863 76.2396 123.454 77.7453 122.86 79.182C122.202 80.3191 121.258 81.265 120.122 81.9263C118.156 82.8662 115.233 82.455 113.183 82.2536C110.663 81.9934 108.815 81.5822 106.825 81.3304C104.71 81.088 102.612 80.7209 100.541 80.231C98.668 79.7611 96.4588 79.0897 95.3836 77.8224C93.5607 75.6572 93.8463 72.5185 94.1571 69.2707C94.3167 67.5922 94.5856 65.8214 94.7704 64.3108C95.812 56.1283 97.114 48.0632 98.4748 39.973C98.6008 39.2177 98.7856 38.4121 98.9368 37.6568C99.3736 35.5335 99.9952 33.6368 101.826 32.7221C103.196 32.0339 105.094 32.2017 106.027 31.3457C107.228 30.2883 107.077 27.4517 107.833 25.4795Z" fill="#E8BD54"/>
<path fill-rule="evenodd" clip-rule="evenodd" d="M99.3988 46.3336C99.1216 44.546 99.9448 41.6003 101.39 41.4912C102.567 41.4974 103.74 41.6411 104.884 41.9192C111.405 42.8393 117.839 44.2962 124.12 46.2748C125.145 46.6189 126.43 47.1141 126.64 47.8022C126.736 48.5984 126.673 49.4055 126.456 50.1773C125.977 52.418 124.104 52.1327 121.827 51.6879C118.61 51.0669 115.225 50.0766 112.066 49.5227C108.706 48.9352 105.43 48.3981 102.078 47.6596C101.053 47.561 100.099 47.089 99.3988 46.3336Z" fill="#334F70"/>
<path d="M100.23 58.5445C105.136 59.3837 109.731 60.3153 114.569 61.1965C115.838 61.4231 117.535 61.6161 119.156 61.7671C119.719 61.8175 121.718 62.3294 121.836 61.3727C121.886 60.9531 121.231 60.5335 120.718 60.3237C120.204 60.1247 119.673 59.973 119.131 59.8705C113.693 58.2933 108.168 57.0379 102.582 56.1107C100.436 55.6405 98.2516 55.3596 96.0556 55.2715C95.938 56.0604 95.8204 56.8409 95.7112 57.6213C96.064 57.7137 96.4168 57.7892 96.7108 57.8563C98.0296 58.1417 99.2476 58.385 100.23 58.5445Z" fill="#334F70"/>
<path d="M105.447 64.663C106.623 64.8392 109.353 65.3596 109.37 64.1259C109.37 63.1692 107.429 62.7915 106.195 62.4978C103.565 61.86 100.692 61.4319 98.2397 61.0291C97.4752 60.9032 96.316 60.5843 95.308 60.5088C95.224 61.155 95.1316 61.8012 95.0476 62.439H95.14C98.5272 63.3892 101.969 64.1319 105.447 64.663Z" fill="#334F70"/>
<path d="M115.544 71.4943C116.098 71.5614 118.56 71.9055 118.753 71.0411C119.013 69.8578 116.947 69.5724 116.392 69.3626C113.312 68.4983 110.181 67.8229 107.018 67.3401C103.761 66.6903 100.472 66.2113 97.1644 65.905C96.4252 65.8546 95.4844 65.7623 94.6444 65.7875C94.5352 66.6267 94.4176 67.4659 94.3252 68.3052C96.0052 68.5905 97.744 68.75 99.4577 68.9598C105.002 69.7319 109.874 70.7725 115.544 71.4943Z" fill="#334F70"/>
<path fill-rule="evenodd" clip-rule="evenodd" d="M104.078 16.2139C105.111 15.8614 107.093 16.088 108.345 16.281C114.336 17.1234 120.26 18.3939 126.069 20.0827C127.749 20.5695 131.378 21.3248 131.949 23.1376C132.268 24.1698 131.781 25.9658 131.546 26.7966C131.311 27.6275 130.84 29.2472 130.143 29.6752C129.219 30.2375 127.564 29.9353 126.338 29.6752C122.709 28.8359 119.517 27.9967 115.762 27.4176C112.161 26.9648 108.598 26.2467 105.102 25.2692C103.893 24.8832 102.582 24.43 102.188 23.5152C101.992 22.8374 101.974 22.1204 102.137 21.4339C102.347 19.2183 102.28 16.8265 104.078 16.2139Z" fill="#C64F69"/>
<path d="M107.345 17.0199C107.345 17.6913 108.58 18.2368 109.319 18.5222C110.31 18.8998 111.209 19.0928 111.949 19.311C115.522 20.417 119.172 21.2586 122.869 21.8287C123.709 21.9546 128.337 22.9785 128.539 21.4679C128.553 21.343 128.54 21.2166 128.503 21.0966C128.465 20.9767 128.403 20.8659 128.32 20.7713C127.48 20.4944 126.64 20.2929 126.027 20.1167C120.238 18.4192 114.334 17.1375 108.362 16.2814L107.967 16.2227C107.572 16.3569 107.32 16.5248 107.345 17.0199Z" fill="#FF8C9B"/>
<path fill-rule="evenodd" clip-rule="evenodd" d="M110.495 79.19C111.251 78.7201 112.763 78.7117 114.242 78.7956C114.88 78.7956 115.922 78.9131 115.922 79.4838C115.922 80.0544 114.788 80.2643 114.368 80.323C113.085 80.4451 111.791 80.3226 110.554 79.9621C110.478 79.8497 110.432 79.7193 110.422 79.5839C110.412 79.4485 110.437 79.3127 110.495 79.19Z" fill="white"/>
<path fill-rule="evenodd" clip-rule="evenodd" d="M115.922 77.6878C115.569 76.2946 118.711 76.0512 118.669 77.2514C118.669 77.7633 117.174 78.4431 116.418 78.25C116.292 78.209 116.18 78.1352 116.093 78.0364C116.006 77.9375 115.947 77.8171 115.922 77.6878Z" fill="white"/>
<path fill-rule="evenodd" clip-rule="evenodd" d="M119.282 79.7274C118.954 79.333 119.282 78.6784 119.861 78.1916C120.441 77.7049 121.348 77.2601 121.617 77.8895C121.643 78.1286 121.606 78.3701 121.51 78.5907C121.414 78.8113 121.263 79.0034 121.071 79.1483C120.525 79.6099 119.693 80.2058 119.282 79.7274Z" fill="white"/>
<path fill-rule="evenodd" clip-rule="evenodd" d="M106.052 34.6604C106.169 35.4996 103.103 35.4157 102.994 34.8283C102.818 33.8715 106.043 33.9638 106.052 34.6604Z" fill="white"/>
<path fill-rule="evenodd" clip-rule="evenodd" d="M107.219 34.5341C107.631 34.2152 109 34.4502 110.033 34.5761C114.054 35.0574 118.025 35.8857 121.903 37.0518C122.638 37.2627 123.361 37.512 124.07 37.7987C124.675 38.0505 125.8 38.4365 125.674 39.1583C125.523 39.9975 123.994 39.5275 123.44 39.41C119.383 38.5037 115.779 37.4379 111.596 36.3972C110.974 36.2377 110.134 36.0951 109.176 35.8517C108.362 35.6419 106.606 35.3482 107.219 34.5341Z" fill="white"/>
<path fill-rule="evenodd" clip-rule="evenodd" d="M108.278 19.0001C108.723 18.3287 105.942 17.0447 105.581 17.5314C105.002 18.3203 107.958 19.6295 108.278 19.0001Z" fill="white"/>
<path fill-rule="evenodd" clip-rule="evenodd" d="M109.269 19.6208C109.496 20.0908 110.831 20.4601 111.789 20.7958C115.617 22.105 119.552 23.0767 123.549 23.6995C124.303 23.8255 125.063 23.9123 125.826 23.9597C126.473 23.9597 127.665 24.1359 127.859 23.4226C128.052 22.7092 126.481 22.3567 125.952 22.2308C121.903 21.2993 118.182 20.7034 113.965 19.839C113.335 19.7048 112.511 19.4782 111.554 19.2767C110.781 19.1173 109.067 18.6221 109.269 19.6208Z" fill="white"/>
</g>
<defs>
<clipPath id="clip0_131_2075">
<rect width="175" height="147" fill="white"/>
</clipPath>
</defs>
</svg>
