<svg width="28" height="28" viewBox="0 0 28 28" fill="none" xmlns="http://www.w3.org/2000/svg">
<path fill-rule="evenodd" clip-rule="evenodd" d="M22.0057 25.7997C24.1011 25.7997 25.7998 24.101 25.7998 22.0056C25.7998 19.9102 24.1011 18.2115 22.0057 18.2115C19.9103 18.2115 18.2116 19.9102 18.2116 22.0056C18.2116 24.101 19.9103 25.7997 22.0057 25.7997ZM22.0057 27.3173C24.9393 27.3173 27.3174 24.9392 27.3174 22.0056C27.3174 19.072 24.9393 16.6938 22.0057 16.6938C19.0721 16.6938 16.694 19.072 16.694 22.0056C16.694 24.9392 19.0721 27.3173 22.0057 27.3173Z" fill="#6B6C7E"/>
<path fill-rule="evenodd" clip-rule="evenodd" d="M22.0058 19.3501C22.4249 19.3501 22.7646 19.6898 22.7646 20.1089V21.6917L23.3011 22.2282C23.5975 22.5245 23.5975 23.005 23.3011 23.3013C23.0048 23.5977 22.5243 23.5977 22.228 23.3013L21.2469 22.3203V20.1089C21.2469 19.6898 21.5867 19.3501 22.0058 19.3501Z" fill="#6B6C7E"/>
<path fill-rule="evenodd" clip-rule="evenodd" d="M6.07056 12.9H4.55292V14.4176H6.07056V12.9ZM4.55292 11.3823C3.71473 11.3823 3.03528 12.0618 3.03528 12.9V14.4176C3.03528 15.2558 3.71473 15.9352 4.55292 15.9352H6.07056C6.90875 15.9352 7.58819 15.2558 7.58819 14.4176V12.9C7.58819 12.0618 6.90875 11.3823 6.07056 11.3823H4.55292Z" fill="#6B6C7E"/>
<path fill-rule="evenodd" clip-rule="evenodd" d="M12.1411 12.9H10.6235V14.4176H12.1411V12.9ZM10.6235 11.3823C9.78528 11.3823 9.10583 12.0618 9.10583 12.9V14.4176C9.10583 15.2558 9.78528 15.9352 10.6235 15.9352H12.1411C12.9793 15.9352 13.6588 15.2558 13.6588 14.4176V12.9C13.6588 12.0618 12.9793 11.3823 12.1411 11.3823H10.6235Z" fill="#6B6C7E"/>
<path fill-rule="evenodd" clip-rule="evenodd" d="M18.2117 12.9H16.694V14.4176H18.2117V12.9ZM16.694 11.3823C15.8558 11.3823 15.1764 12.0618 15.1764 12.9V14.4176C15.1764 15.2558 15.8558 15.9352 16.694 15.9352H18.2117C19.0499 15.9352 19.7293 15.2558 19.7293 14.4176V12.9C19.7293 12.0618 19.0499 11.3823 18.2117 11.3823H16.694Z" fill="#6B6C7E"/>
<path fill-rule="evenodd" clip-rule="evenodd" d="M6.07056 18.9703H4.55292V20.4879H6.07056V18.9703ZM4.55292 17.4526C3.71473 17.4526 3.03528 18.1321 3.03528 18.9703V20.4879C3.03528 21.3261 3.71473 22.0056 4.55292 22.0056H6.07056C6.90875 22.0056 7.58819 21.3261 7.58819 20.4879V18.9703C7.58819 18.1321 6.90875 17.4526 6.07056 17.4526H4.55292Z" fill="#6B6C7E"/>
<path fill-rule="evenodd" clip-rule="evenodd" d="M12.1411 18.9703H10.6235V20.4879H12.1411V18.9703ZM10.6235 17.4526C9.78528 17.4526 9.10583 18.1321 9.10583 18.9703V20.4879C9.10583 21.3261 9.78528 22.0056 10.6235 22.0056H12.1411C12.9793 22.0056 13.6588 21.3261 13.6588 20.4879V18.9703C13.6588 18.1321 12.9793 17.4526 12.1411 17.4526H10.6235Z" fill="#6B6C7E"/>
<path fill-rule="evenodd" clip-rule="evenodd" d="M1.51764 4.55331C1.51764 4.13422 1.85738 3.79449 2.27646 3.79449H6.07055V2.27686H2.27646C1.01921 2.27686 0 3.29603 0 4.55331V22.765C0 24.0223 1.01921 25.0414 2.27646 25.0414H17.6461C17.3264 24.5831 17.0772 24.072 16.914 23.5238H2.27646C1.85738 23.5238 1.51764 23.1841 1.51764 22.765V4.55331ZM21.2469 16.7482C21.4948 16.7128 21.7481 16.6944 22.0058 16.6944C22.2634 16.6944 22.5168 16.7128 22.7646 16.7482V4.55331C22.7646 3.2961 21.7454 2.27686 20.4881 2.27686H18.2117V3.79449H20.4881C20.9072 3.79449 21.2469 4.13422 21.2469 4.55331V16.7482ZM7.58819 3.79449H15.6032V2.27686H7.58819V3.79449Z" fill="#6B6C7E"/>
<path fill-rule="evenodd" clip-rule="evenodd" d="M16.694 2.27686H7.58816V4.55331C7.58816 4.97241 7.24844 5.31213 6.82934 5.31213C6.41025 5.31213 6.07052 4.97241 6.07052 4.55331V2.27686H2.27643C1.43826 2.27686 0.758789 2.95633 0.758789 3.79449V7.58859C0.758789 8.42678 1.43826 9.10623 2.27643 9.10623H20.4881C21.3263 9.10623 22.0057 8.42625 22.0057 7.58806V3.79495C22.0057 2.95682 21.3263 2.27686 20.4881 2.27686H18.2116V4.55331C18.2116 4.97241 17.8719 5.31213 17.4528 5.31213C17.0337 5.31213 16.694 4.97241 16.694 4.55331V2.27686Z" fill="#6B6C7E"/>
<path fill-rule="evenodd" clip-rule="evenodd" d="M22.7646 9.10602H1.5177V7.58838H22.7646V9.10602Z" fill="#6B6C7E"/>
<path d="M4.55298 0.758819C4.55298 0.339739 4.8927 0 5.3118 0C5.73089 0 6.07062 0.339739 6.07062 0.758819V3.7941C6.07062 4.21319 5.73089 4.55292 5.3118 4.55292C4.8927 4.55292 4.55298 4.21319 4.55298 3.7941V0.758819Z" fill="#6B6C7E"/>
<path d="M15.1764 0.758819C15.1764 0.339739 15.5161 0 15.9352 0C16.3543 0 16.694 0.339739 16.694 0.758819V3.7941C16.694 4.21319 16.3543 4.55292 15.9352 4.55292C15.5161 4.55292 15.1764 4.21319 15.1764 3.7941V0.758819Z" fill="#6B6C7E"/>
</svg>
