<svg width="43" height="44" viewBox="0 0 43 44" fill="none" xmlns="http://www.w3.org/2000/svg">
<g clip-path="url(#clip0_3259_1624)">
<path d="M21.4821 35.4097C21.1434 37.5246 20.7911 39.6364 20.4691 41.7528C20.1273 43.9999 20.1394 44.0014 17.8835 43.9999C17.3663 43.9999 16.8492 43.9999 16.1673 43.9999C16.1401 43.4543 16.0962 42.9613 16.0947 42.4682C16.0811 38.5632 16.1491 34.6567 16.0161 30.7562C15.9828 29.7761 15.316 28.8172 14.9335 27.8507C14.4103 26.528 13.5636 25.2413 13.4214 23.881C13.1735 21.5076 13.3201 19.0892 13.3715 16.6917C13.4396 13.5292 15.3977 11.6083 18.5548 11.5632C20.59 11.5346 22.6267 11.5301 24.6619 11.5632C27.553 11.6083 29.446 13.4601 29.502 16.349C29.5519 18.8877 29.6638 21.4415 29.4355 23.9607C29.3205 25.2353 28.7188 26.5911 27.9642 27.6478C27.2052 28.712 26.7758 29.7145 26.7909 30.9982C26.8347 34.7138 26.8272 38.4309 26.8287 42.1466C26.8287 42.6997 26.7682 43.2514 26.7395 43.7353C26.5384 43.8406 26.4598 43.9157 26.3766 43.9202C23.1181 44.1247 23.1318 44.1216 22.6706 40.9667C22.3999 39.1163 22.0824 37.2736 21.7845 35.4278C21.6832 35.4217 21.5819 35.4142 21.4821 35.4082V35.4097ZM19.6147 22.5553V25.5645H23.6186C23.664 24.5679 23.7063 23.645 23.7532 22.641C24.7512 22.5974 25.675 22.5568 26.6306 22.5147V18.3842H23.7577C23.7063 17.3245 23.6625 16.4437 23.6171 15.5103H19.4892V18.3692C18.3945 18.4233 17.4676 18.4684 16.5272 18.515V22.5553H19.6163H19.6147Z" fill="white"/>
<path d="M13.231 42.0431H9.83492C9.42819 39.5315 9.02598 37.0544 8.62529 34.5758C8.51945 34.5683 8.41512 34.5608 8.30928 34.5532C7.88893 37.0409 7.46707 39.527 7.04218 42.0386H3.34676C3.34676 41.505 3.34676 41.009 3.34676 40.5115C3.35129 37.1265 3.34222 33.7416 3.36944 30.3566C3.38002 29.0234 2.90222 27.9757 2.08571 26.8935C1.42646 26.0172 1.01972 24.7892 0.936562 23.6829C0.761165 21.3922 0.79443 19.0774 0.8912 16.7777C1.00309 14.1548 2.72833 12.5164 5.34567 12.4307C7.14198 12.3721 8.94131 12.4112 10.7391 12.4112C11.0672 12.4112 11.3969 12.4383 11.9155 12.4608C10.4912 16.1449 11.0597 19.8951 11.0476 23.6243C11.04 25.6715 11.9185 27.3369 12.7713 29.0624C12.9543 29.4322 13.2083 29.8305 13.2113 30.2168C13.2446 34.1098 13.231 38.0028 13.231 42.0446V42.0431Z" fill="white"/>
<path d="M39.681 42.0474H35.9826C35.5607 39.5237 35.1434 37.021 34.7246 34.5184L34.4131 34.541C34.0109 37.015 33.6072 39.4906 33.1974 42.0128H29.9133C29.8755 41.6596 29.8044 41.3034 29.8029 40.9471C29.7938 37.8913 29.6819 34.828 29.8528 31.7813C29.9284 30.439 30.6194 29.1373 30.9808 27.8041C31.3573 26.4167 31.9454 25.0174 31.9621 23.6165C32.0044 19.8798 31.7882 16.1386 31.6687 12.1885C34.023 12.3478 36.7129 12.4049 39.3635 12.7551C40.9239 12.9611 41.8856 14.2868 41.9627 15.7538C42.12 18.745 42.0807 21.7557 41.9174 24.7468C41.8705 25.5976 41.054 26.3852 40.7047 27.248C40.298 28.2565 39.7582 29.3057 39.7264 30.3518C39.61 34.1952 39.6795 38.0447 39.6795 42.0474H39.681Z" fill="white"/>
<path d="M21.538 10.4374C18.5502 10.3803 16.2897 8.03693 16.3623 5.07284C16.4318 2.23199 18.8254 -0.0346691 21.7164 -9.80285e-05C24.6392 0.0359762 26.9814 2.477 26.8891 5.3945C26.7984 8.29546 24.4653 10.4945 21.5365 10.4374H21.538Z" fill="white"/>
<path d="M8.45901 11.3317C5.36839 11.2626 3.56453 9.38671 3.62501 6.30538C3.67491 3.80273 5.884 1.75251 8.48622 1.7976C11.2185 1.8442 13.3384 4.01767 13.2703 6.70219C13.1993 9.46788 11.2003 11.3933 8.45901 11.3317Z" fill="white"/>
<path d="M34.3421 11.3531C31.7625 11.329 29.7848 9.27127 29.7817 6.60629C29.7772 3.88119 31.9001 1.77987 34.6309 1.80392C37.3117 1.82796 39.4286 3.91576 39.4225 6.52813C39.4165 9.45916 37.3919 11.3816 34.3421 11.3531Z" fill="white"/>
</g>
<defs>
<clipPath id="clip0_3259_1624">
<rect width="41.25" height="44" fill="white" transform="translate(0.8125)"/>
</clipPath>
</defs>
</svg>
