<svg width="584" height="587" viewBox="0 0 584 587" fill="none" xmlns="http://www.w3.org/2000/svg">
<path d="M38.4303 502.59C38.4303 494.69 38.1603 487.07 38.5003 479.48C38.9003 470.57 47.5603 462.18 56.7303 461.59C61.9503 461.25 67.2203 461.18 72.4503 461.47C76.1203 461.67 77.3303 460.83 77.3103 456.84C77.1503 402.54 77.1903 348.23 77.1803 293.93C77.1803 266.97 77.1803 240 77.1803 213.04C77.1803 211.94 77.1803 210.83 77.1803 209.46H157.02V461.15C158.6 461.25 159.79 461.39 160.98 461.39C170.97 461.41 180.95 461.39 190.94 461.39C194.474 461.39 196.24 459.67 196.24 456.23C196.24 413.04 196.22 369.84 196.21 326.65C196.21 288.82 196.21 251 196.21 213.17C196.21 212.05 196.21 210.94 196.21 209.5H273.63V461.09H313.17V209.4H390.79V461.13H429.97V209.45H507.48C507.48 210.78 507.48 212.09 507.48 213.41C507.48 294.55 507.48 375.7 507.38 456.84C507.38 460.34 508.15 461.69 511.86 461.48C516.96 461.19 522.1 461.3 527.21 461.55C537.12 462.03 545.52 469.95 546.13 479.86C546.59 487.31 546.22 494.81 546.22 502.59H38.4303V502.59Z" fill="#6B6C7E"/>
<path d="M583.701 166.59H544.781C544.381 168.67 544.151 170.63 543.601 172.5C540.941 181.59 533.02 187.25 522.61 187.36C512.13 187.47 501.64 187.39 491.16 187.39C348.75 187.39 206.33 187.37 63.9205 187.44C54.4405 187.44 47.0905 184.24 42.8005 175.56C41.5105 172.94 41.0105 169.93 40.0605 166.83H0.30048C0.21048 165.69 0.0804797 164.72 0.0704797 163.76C0.0504797 151.9 0.11048 140.04 0.000479674 128.19C-0.0195203 125.91 0.58048 124.73 2.82048 123.77C60.4405 98.9901 118.03 74.1101 175.62 49.2501C213.23 33.0001 250.82 16.7401 288.46 0.620077C290.16 -0.109923 292.69 -0.239923 294.35 0.470077C352.56 25.4401 410.72 50.5601 468.89 75.6401C506.04 91.6601 543.191 107.68 580.391 123.57C583.001 124.69 583.821 125.95 583.781 128.74C583.621 141.2 583.711 153.66 583.711 166.6L583.701 166.59Z" fill="#6B6C7E"/>
<path d="M0.210328 586.58C0.210328 571.61 -0.129672 556.89 0.330328 542.2C0.620328 532.87 10.2203 524.9 20.4903 524.78C34.8403 524.6 49.2003 524.69 63.5503 524.69C173.14 524.69 282.73 524.69 392.32 524.69C448.74 524.69 505.16 524.86 561.57 524.61C575.32 524.55 583.86 535.58 583.72 546.7C583.56 559.68 583.66 572.66 583.64 585.64C583.64 585.87 583.51 586.1 583.37 586.6H0.210328V586.58Z" fill="#6B6C7E"/>
</svg>
