<svg width="14" height="17" viewBox="0 0 14 17" fill="none" xmlns="http://www.w3.org/2000/svg">
<path d="M12.6541 16.9046C12.2909 16.9046 11.9966 16.6103 11.9966 16.2471C11.9966 13.6732 9.90252 11.5791 7.32856 11.5791H6.34235C3.76839 11.5791 1.67432 13.6732 1.67432 16.2471C1.67432 16.6103 1.37997 16.9046 1.01685 16.9046C0.653724 16.9046 0.359375 16.6103 0.359375 16.2471C0.359375 12.9481 3.04333 10.2642 6.34235 10.2642H7.32856C10.6276 10.2642 13.3115 12.9481 13.3115 16.2471C13.3115 16.6103 13.0172 16.9046 12.6541 16.9046Z" fill="#F80D38"/>
<path d="M6.76971 8.94909C4.32264 8.94909 2.33179 6.95824 2.33179 4.51117C2.33179 2.06409 4.32264 0.0732422 6.76971 0.0732422C9.21678 0.0732422 11.2076 2.06409 11.2076 4.51117C11.2076 6.95824 9.21678 8.94909 6.76971 8.94909ZM6.76971 1.38818C5.0477 1.38818 3.64673 2.78915 3.64673 4.51117C3.64673 6.23318 5.0477 7.63415 6.76971 7.63415C8.49172 7.63415 9.89269 6.23318 9.89269 4.51117C9.89269 2.78915 8.49172 1.38818 6.76971 1.38818Z" fill="#100DB1"/>
</svg>
