<svg width="172" height="145" viewBox="0 0 172 145" fill="none" xmlns="http://www.w3.org/2000/svg">
<path d="M142.004 52.6277C144.88 26.8032 126.225 3.54221 100.337 0.672827C74.4491 -2.19656 51.1308 16.4122 48.2543 42.2367C45.3779 68.0612 64.0325 91.3222 89.9207 94.1916C115.809 97.061 139.127 78.4522 142.004 52.6277Z" fill="#D1DDE8"/>
<path d="M152.846 101.913C163.422 101.913 171.995 93.3609 171.995 82.8114C171.995 72.262 163.422 63.71 152.846 63.71C142.271 63.71 133.698 72.262 133.698 82.8114C133.698 93.3609 142.271 101.913 152.846 101.913Z" fill="#E7EDF4"/>
<path d="M60.0031 97.595L45.9442 73.2637L22.8291 87.6853L37.1535 112.541C37.4729 113.169 37.8652 113.757 38.3225 114.293C42.2737 118.932 50.1659 118.718 55.9396 113.814C61.2998 109.267 62.9538 102.285 60.0031 97.595Z" fill="#235196"/>
<path d="M51.3452 104.638C52.6129 103.562 53.7276 102.318 54.6583 100.941C54.598 100.819 54.5315 100.7 54.4592 100.584L49.0071 91.1533C48.1563 92.3201 47.1692 93.3817 46.0667 94.3157C39.8029 99.627 31.2624 99.8664 26.9539 94.8555L33.7026 106.568C38.2868 110.071 45.7297 109.404 51.3452 104.638Z" fill="#4DD0E1"/>
<path style="mix-blend-mode:multiply" d="M46.5976 117.012C46.0748 116.401 45.6275 115.729 45.2652 115.011L28.8682 86.57L47.0672 75.214L45.9442 73.2637L22.8291 87.6853L37.1535 112.541C37.4729 113.169 37.8652 113.757 38.3225 114.293C40.436 116.778 43.6827 117.858 47.1234 117.583C46.9652 117.399 46.7661 117.211 46.5976 117.012Z" fill="url(#paint0_linear_129_1871)"/>
<path d="M41.814 89.3759C47.5904 84.4736 49.0668 76.74 45.1115 72.1023C41.1562 67.4647 33.2671 67.6793 27.4907 72.5816C21.7142 77.4839 20.2379 85.2176 24.1931 89.8552C28.1484 94.4928 36.0375 94.2783 41.814 89.3759Z" fill="#235196"/>
<path style="mix-blend-mode:multiply" d="M41.1424 88.5882C46.3755 84.147 47.7121 77.1396 44.1277 72.9368C40.5433 68.734 33.3953 68.9273 28.1621 73.3686C22.929 77.8098 21.5924 84.8172 25.1768 89.02C28.7612 93.2228 35.9092 93.0295 41.1424 88.5882Z" fill="url(#paint1_linear_129_1871)"/>
<path d="M49.5177 86.3912V84.1251H49.0072C48.574 83.2628 47.9068 82.5392 47.0814 82.0368C46.2561 81.5344 45.3059 81.2734 44.3391 81.2835C43.3723 81.2936 42.4277 81.5744 41.6131 82.0939C40.7985 82.6134 40.1466 83.3507 39.7316 84.2218H39.2211V86.4879C39.3538 87.7655 39.9595 88.9478 40.9198 89.8035C41.8802 90.6592 43.1259 91.1267 44.4135 91.1146C45.7011 91.1025 46.9378 90.6117 47.8818 89.7381C48.8258 88.8645 49.4091 87.6711 49.5177 86.3912Z" fill="#D1DDE8"/>
<path d="M47.9522 87.8234C49.9718 85.8089 49.9718 82.5427 47.9522 80.5281C45.9327 78.5136 42.6585 78.5136 40.6389 80.5281C38.6194 82.5427 38.6194 85.8089 40.639 87.8234C42.6585 89.838 45.9327 89.838 47.9522 87.8234Z" fill="#E7EDF4"/>
<path d="M39.2516 83.0718C39.0712 83.8354 39.0712 84.6303 39.2516 85.3939L49.3185 85.287C49.4032 84.9058 49.4443 84.5163 49.441 84.1259C49.4339 83.7347 49.3843 83.3454 49.293 82.9648L39.2516 83.0718Z" fill="white"/>
<path d="M41.0078 75.917L38.9199 75.0156L38.7106 75.5249C37.7443 75.5672 36.8094 75.8797 36.0127 76.4269C35.2161 76.974 34.5898 77.7337 34.2053 78.6191C33.8209 79.5044 33.6939 80.4798 33.8388 81.4338C33.9838 82.3878 34.3947 83.2818 35.0248 84.0138L34.8155 84.5231L36.8984 85.4244C38.1431 85.8919 39.5206 85.863 40.7446 85.3437C41.9685 84.8243 42.9448 83.8545 43.4706 82.6358C43.9963 81.4171 44.0311 80.0431 43.5677 78.7994C43.1043 77.5558 42.1784 76.538 40.9823 75.9577L41.0078 75.917Z" fill="#D1DDE8"/>
<path d="M41.6102 81.7983C41.2035 82.7329 40.5282 83.5263 39.6696 84.0782C38.8111 84.6301 37.8078 84.9157 36.7865 84.899C35.7653 84.8823 34.7719 84.564 33.932 83.9843C33.092 83.4046 32.4432 82.5896 32.0674 81.6422C31.6916 80.6948 31.6058 79.6575 31.8208 78.6615C32.0358 77.6654 32.542 76.7553 33.2753 76.0461C34.0086 75.3369 34.9362 74.8605 35.9409 74.677C36.9456 74.4935 37.9823 74.6113 38.9199 75.0153C39.5434 75.284 40.1077 75.6727 40.5805 76.1591C41.0533 76.6456 41.4252 77.2203 41.6751 77.8503C41.925 78.4803 42.0479 79.1533 42.0367 79.8308C42.0256 80.5082 41.8807 81.1768 41.6102 81.7983Z" fill="#E7EDF4"/>
<path d="M33.7997 83.8969C34.1162 84.1307 34.4588 84.3272 34.8207 84.4825C35.1815 84.6353 35.5582 84.748 35.9438 84.8186L39.9409 75.6014C39.3022 75.1285 38.5606 74.8127 37.7764 74.6797L33.7997 83.8969Z" fill="white"/>
<path d="M36.7554 90.5065L36.2449 88.3015L35.7344 88.4238C35.1216 87.6777 34.311 87.1186 33.3949 86.8101C32.4789 86.5017 31.4944 86.4564 30.5537 86.6795C29.6131 86.9025 28.7543 87.3848 28.0754 88.0715C27.3964 88.7581 26.9247 89.6213 26.714 90.5626L26.2035 90.6848L26.714 92.8898C27.0989 94.1437 27.9481 95.2043 29.089 95.856C30.2298 96.5076 31.5767 96.7014 32.8556 96.3978C34.1345 96.0943 35.2496 95.3162 35.974 94.2219C36.6984 93.1275 36.9778 91.799 36.7554 90.5065Z" fill="#D1DDE8"/>
<path d="M32.406 94.5089C31.4119 94.743 30.3705 94.678 29.4135 94.3219C28.4564 93.9658 27.6267 93.3348 27.0291 92.5084C26.4315 91.6821 26.0928 90.6976 26.056 89.6793C26.0191 88.6611 26.2857 87.6548 26.8219 86.7876C27.3582 85.9204 28.1402 85.2313 29.069 84.8073C29.9978 84.3832 31.0317 84.2434 32.0402 84.4054C33.0486 84.5674 33.9863 85.024 34.7347 85.7174C35.4831 86.4108 36.0086 87.31 36.2449 88.3013C36.4019 88.9604 36.4272 89.6439 36.3193 90.3127C36.2113 90.9815 35.9722 91.6225 35.6156 92.1991C35.2591 92.7756 34.7921 93.2764 34.2413 93.6727C33.6906 94.0691 33.0669 94.3532 32.406 94.5089Z" fill="#E7EDF4"/>
<path d="M26.035 89.5233C26.0341 89.9141 26.0786 90.3038 26.1678 90.6844C26.2614 91.0646 26.3967 91.4335 26.5711 91.7843L36.3623 89.4622C36.3683 89.0719 36.3289 88.6823 36.2449 88.3011C36.1512 87.9208 36.016 87.552 35.8416 87.2012L26.035 89.5233Z" fill="white"/>
<path d="M45.9697 65.1204L45.4592 62.9154L44.9487 63.0376C44.3362 62.286 43.5235 61.7219 42.6041 61.4103C41.6846 61.0988 40.6957 61.0522 39.7509 61.2761C38.8062 61.5001 37.9439 61.9853 37.2632 62.6761C36.5825 63.367 36.111 64.2353 35.9028 65.1815L35.3923 65.3037L35.9028 67.5087C36.2196 68.839 37.0532 69.9893 38.2203 70.7065C38.7981 71.0617 39.4404 71.2998 40.1105 71.4073C40.7806 71.5148 41.4654 71.4896 42.1257 71.3331C42.7861 71.1766 43.409 70.8919 43.9591 70.4953C44.5091 70.0986 44.9754 69.5978 45.3314 69.0213C45.6874 68.4449 45.9261 67.8042 46.0339 67.1357C46.1417 66.4673 46.1164 65.7842 45.9595 65.1255L45.9697 65.1204Z" fill="#D1DDE8"/>
<path d="M41.6102 69.1236C40.6163 69.3607 39.5742 69.2985 38.6158 68.9447C37.6574 68.591 36.8257 67.9617 36.2258 67.1363C35.626 66.311 35.2851 65.3268 35.2461 64.3081C35.2071 63.2894 35.4718 62.2821 36.0068 61.4136C36.5418 60.545 37.323 59.8543 38.2516 59.4287C39.1802 59.003 40.2144 58.8617 41.2235 59.0226C42.2327 59.1834 43.1713 59.6391 43.9207 60.3322C44.6701 61.0252 45.1967 61.9244 45.4337 62.916C45.7514 64.245 45.5271 65.6454 44.8102 66.8094C44.0932 67.9734 42.9422 68.8058 41.6102 69.1236Z" fill="#E7EDF4"/>
<path d="M35.2494 64.1639C35.253 64.5548 35.2992 64.9441 35.3872 65.325C35.4777 65.7046 35.6131 66.0721 35.7905 66.4198L45.5817 64.1028C45.583 63.712 45.5385 63.3223 45.449 62.9417C45.3539 62.5619 45.2187 62.1932 45.0457 61.8418L35.2494 64.1639Z" fill="white"/>
<path d="M33.4678 47.2872L32.9573 45.0822L32.4468 45.2044C31.8336 44.4527 31.0201 43.889 30.1 43.578C29.1798 43.267 28.1904 43.2213 27.2454 43.4464C26.3004 43.6714 25.4383 44.1579 24.7582 44.85C24.0781 45.542 23.6076 46.4115 23.4009 47.3585L22.8904 47.4807L23.4009 49.6857C23.7177 51.016 24.5513 52.1663 25.7183 52.8835C26.8853 53.6007 28.2902 53.8261 29.6238 53.5101C30.9574 53.194 32.1105 52.3625 32.8295 51.1983C33.5484 50.0342 33.7744 48.6328 33.4576 47.3025L33.4678 47.2872Z" fill="#D1DDE8"/>
<path d="M29.098 51.2954C28.1029 51.5305 27.0603 51.4661 26.1019 51.1103C25.1435 50.7545 24.3124 50.1231 23.7136 49.2962C23.1149 48.4692 22.7753 47.4838 22.738 46.4643C22.7006 45.4449 22.967 44.4373 23.5036 43.569C24.0402 42.7006 24.8228 42.0104 25.7526 41.5856C26.6823 41.1609 27.7175 41.0207 28.7271 41.1827C29.7367 41.3447 30.6755 41.8017 31.4249 42.4958C32.1742 43.19 32.7003 44.0902 32.9368 45.0827C33.094 45.7421 33.1193 46.4259 33.0114 47.095C32.9035 47.7642 32.6645 48.4056 32.308 48.9826C31.9514 49.5595 31.4844 50.0608 30.9337 50.4576C30.3829 50.8544 29.7591 51.1391 29.098 51.2954Z" fill="#E7EDF4"/>
<path d="M22.7474 46.3043C22.7505 46.6952 22.7967 47.0846 22.8853 47.4654C22.9749 47.8469 23.1103 48.2162 23.2886 48.5653L33.0798 46.2432C33.0804 45.8524 33.0358 45.4628 32.9471 45.0822C32.852 44.704 32.7168 44.3369 32.5438 43.9873L22.7474 46.3043Z" fill="white"/>
<path d="M25.014 59.6412L22.875 57.4108L22.2829 58.0524C17.0248 56.0868 10.2404 58.6278 6.12069 64.4841C2.84844 69.1334 2.11333 74.6688 3.77243 78.8547L3.17516 79.5218L6.35042 82.6791C6.67218 82.9762 7.01325 83.2518 7.3714 83.504C12.7877 87.2978 21.0015 84.935 25.7491 78.2233C30.2823 71.756 30.0168 64.8151 25.014 59.6412Z" fill="#D1DDE8"/>
<path d="M12.2109 85.2716C11.7888 85.2345 11.3694 85.1715 10.9551 85.0831L3.1139 76.4974L1.53137 74.7456L2.11844 74.2109L2.97096 75.1428L12.2109 85.2716Z" fill="#E7EDF4"/>
<path d="M15.3862 85.1443C15.0696 85.1952 14.748 85.241 14.4315 85.2716L4.81897 74.7456L5.40093 74.2109L15.3862 85.1443Z" fill="#E7EDF4"/>
<path d="M18.0254 84.4059C17.7548 84.5128 17.4842 84.6045 17.2086 84.691L8.12183 74.7456L8.70889 74.2109L18.0254 84.4059Z" fill="#E7EDF4"/>
<path d="M20.3074 83.2906C20.0725 83.4281 19.8326 83.5656 19.5927 83.6878L11.4248 74.7456L12.017 74.2109L20.3074 83.2906Z" fill="#E7EDF4"/>
<path d="M22.3238 81.8852C22.1145 82.0532 21.9103 82.2162 21.6959 82.3689L14.7277 74.7304L15.3147 74.2109L22.3238 81.8852Z" fill="#E7EDF4"/>
<path d="M24.1105 80.22C23.9318 80.4186 23.7429 80.6019 23.554 80.7852L18.0305 74.7456L18.6227 74.2109L24.1105 80.22Z" fill="#E7EDF4"/>
<path d="M25.7032 78.2641C25.5449 78.4831 25.3867 78.702 25.1927 78.9108L18.4491 71.5014L19.0311 70.9922L25.7032 78.2641Z" fill="#E7EDF4"/>
<path d="M27.056 76.0438C26.9284 76.2883 26.7906 76.5531 26.6476 76.7669L18.4287 67.7738L19.0311 67.2188L27.056 76.0438Z" fill="#E7EDF4"/>
<path d="M28.1791 73.513C28.0821 73.7931 27.98 74.0732 27.8626 74.3482L18.4491 64.0463L19.0311 63.5371L28.1791 73.513Z" fill="#E7EDF4"/>
<path d="M28.8682 70.5387C28.8274 70.8697 28.7763 71.2058 28.71 71.5572L18.4491 60.354L19.0311 59.8447L28.8682 70.5387Z" fill="#E7EDF4"/>
<path d="M28.9295 68.0494L19.2302 57.4369L18.4542 56.5865L19.0362 56.0518L20.4196 57.5795L28.7559 66.7101C28.843 67.1523 28.901 67.5996 28.9295 68.0494Z" fill="#E7EDF4"/>
<path d="M22.8094 75.3244C27.5327 68.6154 26.9738 60.1026 21.5611 56.3107C16.1483 52.5187 7.93138 54.8834 3.20807 61.5924C-1.51524 68.3015 -0.956326 76.8142 4.45644 80.6062C9.8692 84.3982 18.0861 82.0335 22.8094 75.3244Z" fill="#E7EDF4"/>
<path d="M15.4117 56.2499C17.2333 56.2294 19.0165 56.772 20.5166 57.8031C25.2131 61.0979 25.6675 68.5531 21.5376 74.4297C18.8218 78.2846 14.6408 80.678 10.6182 80.678C8.79607 80.6967 7.01284 80.1524 5.51324 79.1197C0.816715 75.8301 0.362377 68.3698 4.49226 62.4932C7.20297 58.6434 11.389 56.2499 15.4117 56.2499ZM15.4117 55.7407C11.3584 55.7407 6.98856 58.0628 4.07365 62.2029C-0.234898 68.3138 0.275593 76.0796 5.21205 79.517C6.79447 80.6142 8.68093 81.191 10.6079 81.1669C14.6613 81.1669 19.0311 78.8397 21.946 74.7047C26.2494 68.5938 25.744 60.8229 20.8076 57.3652C19.2229 56.2731 17.3376 55.6984 15.4117 55.7203V55.7407Z" fill="white"/>
<path d="M133.427 132.793L62.1319 120.658C61.2339 120.505 60.4267 120.02 59.8712 119.3C59.3158 118.58 59.053 117.677 59.1353 116.772L68.1812 15.3681C68.262 14.4632 68.6813 13.6218 69.3558 13.0113C70.0302 12.4008 70.9103 12.0659 71.821 12.0734L144.142 12.6895C144.642 12.6946 145.136 12.8028 145.592 13.0073C146.048 13.2119 146.457 13.5083 146.792 13.878C147.128 14.2477 147.383 14.6827 147.542 15.1556C147.701 15.6285 147.76 16.1291 147.716 16.6259L137.644 129.549C137.599 130.046 137.452 130.529 137.212 130.966C136.972 131.404 136.643 131.787 136.247 132.091C135.851 132.396 135.396 132.616 134.911 132.736C134.425 132.857 133.92 132.876 133.427 132.793Z" fill="#4DD0E1"/>
<path d="M133.075 129.198L63.0508 117.277L71.6577 20.8428L142.693 21.4488L133.075 129.198Z" fill="#E7EDF4"/>
<path style="mix-blend-mode:multiply" d="M133.075 129.198L63.0508 117.277L71.6577 20.8428L142.693 21.4488L133.075 129.198Z" fill="url(#paint2_linear_129_1871)"/>
<path d="M142.693 21.4488L71.6577 20.8428C71.6577 20.8428 62.234 100.228 56.2051 105.32L127.163 120.765L142.693 21.4488Z" fill="white"/>
<path d="M56.2051 105.32C56.2051 105.32 48.4099 101.556 49.1042 90.8828L112.405 105.707C112.405 105.707 125.489 131.494 128.184 114.257L127.164 120.765L56.2051 105.32Z" fill="#E7EDF4"/>
<path d="M95.4911 18.9192C96.4547 18.721 97.0749 17.7811 96.8762 16.8197C96.6775 15.8584 95.7352 15.2398 94.7715 15.438C93.8078 15.6362 93.1877 16.5762 93.3864 17.5375C93.5851 18.4988 94.5274 19.1174 95.4911 18.9192Z" fill="#235196"/>
<path d="M120.955 18.8674C121.915 18.653 122.519 17.7026 122.304 16.7448C122.089 15.787 121.137 15.1844 120.177 15.3988C119.216 15.6133 118.612 16.5636 118.827 17.5214C119.042 18.4792 119.995 19.0819 120.955 18.8674Z" fill="#235196"/>
<path d="M95.1301 17.1761L94.5635 23.4957C94.5421 23.7342 94.571 23.9746 94.6481 24.2014C94.7252 24.4282 94.8489 24.6364 95.0113 24.8128C95.1737 24.9892 95.3712 25.1298 95.5912 25.2257C95.8112 25.3216 96.0488 25.3706 96.2889 25.3697H104.753L104.778 25.0692C104.821 24.622 105.029 24.2065 105.36 23.9028C105.692 23.5991 106.125 23.4286 106.575 23.4244H107.382C107.634 23.4221 107.883 23.4723 108.115 23.5716C108.346 23.6709 108.554 23.8172 108.725 24.0012C108.897 24.1852 109.028 24.4028 109.111 24.6402C109.193 24.8776 109.225 25.1295 109.204 25.3799H118.255C118.692 25.3768 119.112 25.2085 119.429 24.9089C119.747 24.6093 119.938 24.2007 119.966 23.7656L120.558 17.1455" stroke="#235196" stroke-width="3" stroke-linejoin="round"/>
<path d="M81.0967 36.7207L126.091 37.9021" stroke="#E7EDF4" stroke-width="3" stroke-miterlimit="10" stroke-linecap="round"/>
<path d="M80.4943 43.458L125.489 44.6394" stroke="#E7EDF4" stroke-width="3" stroke-miterlimit="10" stroke-linecap="round"/>
<path d="M79.3865 50.1494L124.381 51.3308" stroke="#E7EDF4" stroke-width="3" stroke-miterlimit="10" stroke-linecap="round"/>
<path d="M78.2737 56.8408L123.268 58.0223" stroke="#E7EDF4" stroke-width="3" stroke-miterlimit="10" stroke-linecap="round"/>
<path d="M77.1659 63.5322L122.161 64.7137" stroke="#E7EDF4" stroke-width="3" stroke-miterlimit="10" stroke-linecap="round"/>
<path d="M98.9384 80.3112C98.8147 81.709 98.2782 83.0388 97.3968 84.1324C96.5153 85.226 95.3285 86.0342 93.9865 86.4549C92.6445 86.8755 91.2076 86.8897 89.8575 86.4956C88.5074 86.1014 87.3049 85.3167 86.4019 84.2407C85.499 83.1647 84.9363 81.8457 84.7849 80.4507C84.6336 79.0556 84.9004 77.647 85.5517 76.4032C86.203 75.1594 87.2094 74.1363 88.4437 73.4632C89.678 72.79 91.0846 72.4972 92.4858 72.6217C94.3634 72.7886 96.0977 73.6923 97.3077 75.1341C98.5176 76.576 99.1042 78.4381 98.9384 80.3112Z" fill="#E7EDF4"/>
<path d="M78.7178 84.1407C77.7296 82.9239 77.0048 81.5161 76.5893 80.006C76.1737 78.4958 76.0763 76.9162 76.3032 75.3666C76.4155 74.618 76.7167 73.7574 77.4518 73.5537C78.5238 73.2431 79.2998 74.5722 79.6469 75.6212C80.091 76.9911 80.5403 78.3609 80.9844 79.7308C81.0397 80 81.1878 80.2415 81.403 80.4131C82.4903 81.0955 83.0008 77.9739 84.2005 78.4424C84.8539 78.697 84.6497 79.7002 85.0377 80.2807C85.4257 80.8613 86.4875 80.8256 87.1766 80.4437C87.8658 80.0618 88.4937 79.4863 89.2748 79.4252C90.0558 79.3641 90.7705 79.7562 91.526 79.6798C92.838 79.5373 93.8641 77.9637 95.1352 78.3202" stroke="#D1DDE8" stroke-width="3" stroke-miterlimit="10" stroke-linecap="round"/>
<path d="M91.3422 122.725L80.2951 118.483C79.8182 118.3 79.3097 118.213 78.7988 118.226C78.2879 118.239 77.7846 118.352 77.3177 118.559C76.8507 118.766 76.4292 119.063 76.0773 119.433C75.7254 119.803 75.45 120.238 75.2668 120.714C74.896 121.676 74.9232 122.745 75.3425 123.686C75.7618 124.628 76.5388 125.365 77.5027 125.735L88.5447 129.972C89.5088 130.34 90.58 130.312 91.5236 129.894C92.4671 129.476 93.2059 128.702 93.5781 127.741C93.7617 127.266 93.8494 126.758 93.8364 126.249C93.8233 125.739 93.7097 125.237 93.5021 124.771C93.2944 124.305 92.9968 123.885 92.6262 123.534C92.2556 123.183 91.8193 122.908 91.3422 122.725Z" fill="white"/>
<path d="M91.3423 122.726L85.8187 120.603L83.0212 127.854L88.5448 129.972C89.5081 130.343 90.5793 130.316 91.5228 129.898C92.4662 129.48 93.2047 128.706 93.5757 127.745C93.9466 126.784 93.9197 125.715 93.5009 124.774C93.0821 123.833 92.3056 123.096 91.3423 122.726Z" fill="#235196"/>
<path style="mix-blend-mode:multiply" d="M91.2351 127.818L76.9413 122.339C76.2264 122.067 75.6082 121.59 75.1648 120.969C74.8708 121.91 74.9467 122.927 75.3771 123.814C75.8075 124.701 76.5602 125.392 77.4824 125.745L88.5244 129.982C89.4461 130.335 90.468 130.326 91.3828 129.955C92.2975 129.584 93.0368 128.88 93.4506 127.986C92.7115 128.147 91.9414 128.088 91.2351 127.818Z" fill="url(#paint3_linear_129_1871)"/>
<path d="M107.826 109.134L96.4421 112.347C95.9503 112.486 95.4906 112.72 95.0895 113.036C94.6883 113.352 94.3535 113.743 94.1041 114.188C93.8547 114.633 93.6957 115.123 93.6361 115.629C93.5766 116.136 93.6176 116.649 93.7569 117.139C93.8958 117.63 94.1303 118.088 94.447 118.488C94.7636 118.889 95.1562 119.223 95.6024 119.471C96.0485 119.72 96.5394 119.879 97.047 119.938C97.5545 119.998 98.0689 119.957 98.5606 119.818L109.945 116.61C110.938 116.33 111.78 115.668 112.284 114.769C112.788 113.871 112.915 112.809 112.635 111.818C112.496 111.326 112.261 110.867 111.944 110.466C111.627 110.066 111.235 109.731 110.788 109.482C110.341 109.233 109.85 109.074 109.342 109.014C108.833 108.954 108.318 108.995 107.826 109.134Z" fill="white"/>
<path d="M107.826 109.135L102.134 110.739L104.253 118.214L109.945 116.615C110.448 116.487 110.92 116.259 111.334 115.945C111.748 115.632 112.095 115.239 112.354 114.79C112.613 114.34 112.78 113.844 112.843 113.329C112.907 112.815 112.868 112.293 112.726 111.794C112.585 111.296 112.345 110.83 112.02 110.425C111.696 110.02 111.294 109.684 110.837 109.437C110.38 109.189 109.879 109.036 109.362 108.985C108.844 108.934 108.322 108.986 107.826 109.14V109.135Z" fill="#235196"/>
<path style="mix-blend-mode:multiply" d="M110.777 113.269L96.0592 117.42C95.3244 117.626 94.5449 117.612 93.8181 117.379C94.1468 118.308 94.818 119.078 95.6952 119.531C96.5724 119.984 97.5897 120.087 98.5402 119.818L109.924 116.61C110.875 116.341 111.687 115.721 112.197 114.877C112.707 114.033 112.876 113.027 112.671 112.062C112.172 112.642 111.513 113.062 110.777 113.269Z" fill="url(#paint4_linear_129_1871)"/>
<path d="M49.094 21.0467H45.1734V17.1357H40.8036V21.0467H36.8779V25.4108H40.8036V29.3218H45.1734V25.4108H49.094V21.0467Z" fill="#4DD0E1"/>
<path d="M60.2277 36.7666H57.563V34.1084H54.597V36.7666H51.9323V39.7253H54.597V42.3835H57.563V39.7253H60.2277V36.7666Z" fill="#235196"/>
<path d="M164.695 29.8408H162.03V27.1826H159.064V29.8408H156.404V32.7995H159.064V35.4577H162.03V32.7995H164.695V29.8408Z" fill="#4DD0E1"/>
<path d="M149.431 108.879L168.079 54.7524C168.238 54.1717 168.16 53.5521 167.863 53.0284C167.565 52.5048 167.072 52.1196 166.492 51.9567L135.147 41.2118C134.589 40.9843 133.963 40.9868 133.406 41.2187C132.849 41.4506 132.407 41.8931 132.176 42.4492L113.528 96.5709C113.368 97.1516 113.446 97.7719 113.743 98.2959C114.041 98.8199 114.534 99.2049 115.116 99.3666L146.46 110.112C147.018 110.339 147.644 110.338 148.2 110.107C148.757 109.876 149.199 109.434 149.431 108.879Z" fill="#235196"/>
<g style="mix-blend-mode:multiply" opacity="0.6">
<path d="M144.265 51.1623L137.118 48.7383C136.809 48.6335 136.482 48.5904 136.156 48.6118C135.829 48.6331 135.511 48.7183 135.218 48.8625C134.925 49.0068 134.663 49.2072 134.448 49.4524C134.233 49.6976 134.068 49.9828 133.963 50.2915C133.75 50.9108 133.791 51.5892 134.078 52.1781C134.365 52.767 134.875 53.2184 135.495 53.4335L142.642 55.8575C143.263 56.0719 143.944 56.0314 144.536 55.7449C145.128 55.4585 145.581 54.9495 145.796 54.3298C145.905 54.0215 145.951 53.695 145.932 53.3689C145.914 53.0428 145.831 52.7235 145.689 52.4293C145.547 52.1352 145.348 51.8718 145.103 51.6544C144.859 51.437 144.574 51.2698 144.265 51.1623Z" fill="#235196"/>
</g>
<g style="mix-blend-mode:multiply" opacity="0.6">
<path d="M160.294 56.6624L153.147 54.2385C152.526 54.0241 151.845 54.0645 151.253 54.351C150.662 54.6375 150.208 55.1465 149.993 55.7662C149.781 56.3862 149.822 57.0647 150.109 57.6541C150.396 58.2434 150.905 58.696 151.524 58.9133L158.671 61.3372C159.293 61.5502 159.973 61.5091 160.564 61.2228C161.156 60.9365 161.609 60.4284 161.826 59.8095C162.041 59.1896 162 58.5099 161.713 57.9198C161.426 57.3297 160.916 56.8775 160.294 56.6624Z" fill="#235196"/>
</g>
<g style="mix-blend-mode:multiply" opacity="0.6">
<path d="M141.355 59.5808L134.208 57.1568C133.587 56.944 132.907 56.9853 132.317 57.2716C131.727 57.558 131.274 58.066 131.059 58.6845C130.844 59.3045 130.884 59.9841 131.171 60.5743C131.458 61.1644 131.969 61.6166 132.59 61.8316L139.737 64.2556C140.358 64.4686 141.039 64.4274 141.63 64.1412C142.222 63.8549 142.675 63.3468 142.892 62.7279C143.104 62.1072 143.061 61.4281 142.773 60.8386C142.485 60.2492 141.976 59.797 141.355 59.5808Z" fill="#235196"/>
</g>
<g style="mix-blend-mode:multiply" opacity="0.6">
<path d="M157.395 65.0953L150.248 62.6714C149.624 62.4611 148.941 62.5066 148.351 62.7978C147.76 63.089 147.31 63.6022 147.098 64.2245C146.885 64.8438 146.926 65.5222 147.213 66.1111C147.5 66.7 148.01 67.1514 148.63 67.3665L155.776 69.7905C156.398 70.0049 157.079 69.9644 157.671 69.6779C158.262 69.3915 158.716 68.8825 158.931 68.2628C159.039 67.9542 159.085 67.6273 159.066 67.301C159.048 66.9747 158.965 66.6553 158.822 66.361C158.679 66.0668 158.48 65.8035 158.235 65.5864C157.99 65.3692 157.704 65.2023 157.395 65.0953Z" fill="#235196"/>
</g>
<g style="mix-blend-mode:multiply" opacity="0.6">
<path d="M138.45 68.0384L131.303 65.6145C130.682 65.4 130.001 65.4405 129.409 65.727C128.818 66.0134 128.364 66.5224 128.149 67.1422C127.937 67.7622 127.978 68.4407 128.265 69.03C128.552 69.6194 129.061 70.072 129.68 70.2892L136.827 72.7132C137.451 72.9234 138.133 72.878 138.724 72.5867C139.315 72.2955 139.765 71.7824 139.977 71.16C140.186 70.544 140.142 69.8708 139.857 69.2864C139.571 68.702 139.066 68.2535 138.45 68.0384Z" fill="#235196"/>
</g>
<g style="mix-blend-mode:multiply" opacity="0.6">
<path d="M154.485 73.5337L147.338 71.1098C146.716 70.8982 146.036 70.9399 145.445 71.226C144.855 71.5121 144.401 72.0194 144.183 72.6375C143.972 73.2608 144.018 73.9421 144.31 74.532C144.601 75.122 145.116 75.5724 145.74 75.7846L152.887 78.2085C153.509 78.4215 154.189 78.3804 154.781 78.0941C155.372 77.8078 155.825 77.2997 156.042 76.6808C156.253 76.0575 156.207 75.3762 155.916 74.7862C155.624 74.1963 155.109 73.7459 154.485 73.5337Z" fill="#235196"/>
</g>
<g style="mix-blend-mode:multiply" opacity="0.6">
<path d="M135.454 76.7415L128.307 74.3176C127.685 74.1032 127.004 74.1436 126.413 74.4301C125.821 74.7166 125.368 75.2256 125.152 75.8453C124.94 76.4653 124.982 77.1438 125.269 77.7332C125.555 78.3225 126.064 78.7751 126.684 78.9924L133.83 81.4163C134.451 81.6278 135.131 81.5858 135.721 81.2997C136.311 81.0135 136.763 80.5063 136.98 79.8886C137.195 79.2694 137.155 78.5902 136.869 78.0002C136.583 77.4103 136.074 76.9576 135.454 76.7415Z" fill="#235196"/>
</g>
<g style="mix-blend-mode:multiply" opacity="0.6">
<path d="M151.488 82.2363L144.341 79.8123C143.72 79.5993 143.039 79.6404 142.448 79.9267C141.857 80.213 141.403 80.7211 141.187 81.34C140.976 81.9633 141.021 82.6446 141.313 83.2346C141.605 83.8245 142.119 84.2749 142.744 84.4871L149.891 86.9111C150.511 87.1239 151.191 87.0826 151.782 86.7963C152.372 86.5099 152.825 86.0019 153.04 85.3833C153.146 85.0751 153.19 84.749 153.169 84.4238C153.149 84.0986 153.064 83.7807 152.92 83.4883C152.775 83.1959 152.575 82.9347 152.329 82.7199C152.084 82.505 151.798 82.3407 151.488 82.2363Z" fill="#235196"/>
</g>
<g style="mix-blend-mode:multiply" opacity="0.6">
<path d="M132.483 85.3678L125.336 82.9438C124.712 82.7336 124.029 82.7791 123.439 83.0703C122.848 83.3615 122.398 83.8746 122.186 84.497C121.973 85.1163 122.014 85.7947 122.301 86.3836C122.588 86.9725 123.098 87.4239 123.718 87.639L130.865 90.0629C131.486 90.2774 132.167 90.2369 132.759 89.9504C133.35 89.664 133.804 89.155 134.019 88.5352C134.127 88.2266 134.173 87.8998 134.155 87.5735C134.136 87.2471 134.053 86.9277 133.91 86.6335C133.767 86.3393 133.568 86.076 133.323 85.8588C133.078 85.6416 132.792 85.4748 132.483 85.3678Z" fill="#235196"/>
</g>
<g style="mix-blend-mode:multiply" opacity="0.6">
<path d="M148.517 90.8675L141.37 88.4436C140.749 88.2292 140.068 88.2696 139.476 88.5561C138.884 88.8425 138.431 89.3515 138.216 89.9713C138.003 90.5913 138.045 91.2698 138.332 91.8592C138.619 92.4485 139.127 92.9011 139.747 93.1183L146.894 95.5423C147.515 95.7553 148.196 95.7142 148.787 95.4279C149.379 95.1416 149.832 94.6335 150.049 94.0146C150.264 93.3947 150.223 92.715 149.936 92.1249C149.649 91.5348 149.139 91.0825 148.517 90.8675Z" fill="#235196"/>
</g>
<g style="mix-blend-mode:multiply" opacity="0.6">
<path d="M129.573 93.8064L122.426 91.3824C121.805 91.1696 121.125 91.2109 120.535 91.4972C119.945 91.7835 119.492 92.2916 119.276 92.9101C119.061 93.5301 119.102 94.2097 119.389 94.7998C119.676 95.3899 120.187 95.8422 120.808 96.0572L127.955 98.4812C128.576 98.6928 129.256 98.651 129.847 98.3649C130.438 98.0788 130.892 97.5715 131.11 96.9535C131.323 96.3328 131.281 95.6532 130.993 95.0633C130.705 94.4735 130.194 94.0215 129.573 93.8064Z" fill="#235196"/>
</g>
<g style="mix-blend-mode:multiply" opacity="0.6">
<path d="M145.608 99.3011L138.461 96.8771C137.84 96.6657 137.16 96.7076 136.57 96.9938C135.98 97.28 135.528 97.7872 135.311 98.4049C135.205 98.7115 135.16 99.036 135.179 99.3598C135.199 99.6837 135.282 100.001 135.424 100.292C135.566 100.584 135.765 100.845 136.008 101.06C136.251 101.276 136.535 101.441 136.842 101.547L143.989 103.971C144.611 104.185 145.292 104.145 145.884 103.858C146.475 103.572 146.929 103.063 147.144 102.443C147.354 101.823 147.311 101.145 147.023 100.557C146.736 99.9687 146.227 99.5174 145.608 99.3011Z" fill="#235196"/>
</g>
<path d="M144.74 49.7874L137.593 47.3635C136.971 47.1491 136.29 47.1895 135.698 47.476C135.107 47.7625 134.654 48.2715 134.438 48.8912C134.224 49.5112 134.266 50.1903 134.553 50.78C134.84 51.3697 135.349 51.8221 135.969 52.0383L143.116 54.4622C143.738 54.6738 144.418 54.632 145.009 54.3459C145.6 54.0598 146.053 53.5526 146.271 52.9345C146.485 52.3145 146.443 51.6354 146.157 51.0457C145.87 50.456 145.36 50.0036 144.74 49.7874Z" fill="white"/>
<path style="mix-blend-mode:multiply" d="M144.801 53.032L135.551 49.9053C135.09 49.7483 134.685 49.4597 134.387 49.0752C134.224 49.6827 134.298 50.3294 134.594 50.8844C134.891 51.4393 135.388 51.8612 135.985 52.0644L143.132 54.4884C143.729 54.69 144.381 54.6575 144.956 54.3975C145.53 54.1375 145.984 53.6694 146.225 53.088C145.755 53.2108 145.26 53.1913 144.801 53.032Z" fill="url(#paint5_linear_129_1871)"/>
<path d="M160.774 55.2822L153.627 52.8582C153.006 52.6452 152.325 52.6863 151.734 52.9726C151.143 53.2589 150.689 53.767 150.473 54.3859C150.26 55.0059 150.302 55.6844 150.589 56.2738C150.876 56.8632 151.384 57.3157 152.004 57.533L159.151 59.9569C159.772 60.1699 160.453 60.1288 161.044 59.8425C161.635 59.5563 162.089 59.0481 162.306 58.4292C162.519 57.8093 162.478 57.1302 162.191 56.5404C161.904 55.9507 161.395 55.4983 160.774 55.2822Z" fill="white"/>
<path style="mix-blend-mode:multiply" d="M160.836 58.5314L151.616 55.3945C151.153 55.2376 150.747 54.9491 150.447 54.5645C150.284 55.1719 150.358 55.8186 150.655 56.3736C150.951 56.9286 151.448 57.3504 152.045 57.5537L159.192 59.9776C159.789 60.1805 160.442 60.1486 161.017 59.8885C161.591 59.6283 162.045 59.1594 162.285 58.5772C161.809 58.7086 161.303 58.6926 160.836 58.5314Z" fill="url(#paint6_linear_129_1871)"/>
<path d="M141.784 58.358L134.637 55.9289C134.016 55.7175 133.337 55.7594 132.747 56.0456C132.157 56.3317 131.704 56.8389 131.487 57.4566C131.381 57.7632 131.336 58.0877 131.356 58.4116C131.375 58.7355 131.458 59.0523 131.6 59.3441C131.743 59.6359 131.941 59.8969 132.184 60.1121C132.428 60.3274 132.711 60.4927 133.019 60.5986L140.166 63.0276C140.787 63.2392 141.467 63.1975 142.058 62.9114C142.649 62.6253 143.103 62.118 143.32 61.4999C143.532 60.88 143.489 60.2016 143.202 59.6129C142.914 59.0243 142.404 58.5731 141.784 58.358Z" fill="white"/>
<path style="mix-blend-mode:multiply" d="M141.85 61.6173L132.6 58.4855C132.137 58.3297 131.732 58.0388 131.436 57.6504C131.273 58.2579 131.347 58.9046 131.644 59.4596C131.94 60.0145 132.437 60.4364 133.034 60.6396L140.181 63.0687C140.779 63.2703 141.431 63.2378 142.005 62.9778C142.579 62.7178 143.033 62.2496 143.275 61.6683C142.805 61.79 142.31 61.7723 141.85 61.6173Z" fill="url(#paint7_linear_129_1871)"/>
<path d="M157.824 63.8533L150.677 61.4293C150.056 61.2165 149.376 61.2577 148.785 61.5441C148.195 61.8304 147.743 62.3385 147.527 62.957C147.313 63.577 147.355 64.2561 147.642 64.8458C147.929 65.4355 148.438 65.8879 149.058 66.1041L156.205 68.528C156.827 68.7396 157.507 68.6978 158.098 68.4117C158.689 68.1256 159.142 67.6184 159.36 67.0003C159.572 66.3797 159.529 65.7006 159.242 65.1111C158.954 64.5216 158.444 64.0695 157.824 63.8533Z" fill="white"/>
<path style="mix-blend-mode:multiply" d="M157.885 67.0966L148.635 63.9648C148.174 63.8079 147.769 63.5192 147.471 63.1348C147.308 63.7423 147.382 64.3889 147.678 64.9439C147.975 65.4989 148.472 65.9207 149.069 66.124L156.216 68.548C156.813 68.7496 157.465 68.7171 158.04 68.4571C158.614 68.197 159.068 67.7289 159.309 67.1476C158.84 67.272 158.344 67.2543 157.885 67.0966Z" fill="url(#paint8_linear_129_1871)"/>
<path d="M138.854 66.9236L131.707 64.4997C131.082 64.2893 130.399 64.3346 129.808 64.6258C129.216 64.9169 128.765 65.4301 128.552 66.0528C128.34 66.6722 128.382 67.35 128.669 67.9385C128.956 68.527 129.464 68.9786 130.084 69.1948L137.23 71.6188C137.538 71.7249 137.863 71.7695 138.188 71.7501C138.512 71.7307 138.83 71.6478 139.123 71.5059C139.415 71.364 139.677 71.166 139.892 70.9233C140.108 70.6805 140.274 70.3977 140.38 70.0911C140.49 69.7832 140.537 69.4567 140.52 69.1305C140.502 68.8042 140.42 68.4846 140.278 68.1902C140.136 67.8957 139.938 67.6322 139.693 67.4148C139.448 67.1974 139.163 67.0305 138.854 66.9236Z" fill="white"/>
<path style="mix-blend-mode:multiply" d="M138.895 70.172L129.665 67.0351C129.203 66.8796 128.798 66.5907 128.501 66.2051C128.335 66.8126 128.408 67.4604 128.705 68.016C129.002 68.5716 129.501 68.9931 130.099 69.1943L137.246 71.6182C137.843 71.8202 138.494 71.7884 139.068 71.5294C139.643 71.2704 140.097 70.8034 140.339 70.2229C139.863 70.3479 139.361 70.3302 138.895 70.172Z" fill="url(#paint9_linear_129_1871)"/>
<path d="M154.868 72.423L147.721 69.999C147.414 69.8929 147.088 69.8483 146.764 69.8677C146.439 69.8871 146.121 69.97 145.829 70.1119C145.536 70.2538 145.275 70.4518 145.059 70.6945C144.843 70.9373 144.677 71.2201 144.571 71.5267C144.356 72.1467 144.397 72.8263 144.684 73.4164C144.971 74.0066 145.481 74.4588 146.103 74.6738L153.25 77.0978C153.874 77.3082 154.557 77.2628 155.149 76.9717C155.74 76.6805 156.192 76.1673 156.404 75.5446C156.61 74.9272 156.564 74.254 156.277 73.6701C155.989 73.0862 155.483 72.6383 154.868 72.423Z" fill="white"/>
<path style="mix-blend-mode:multiply" d="M154.929 75.6669L145.684 72.5351C145.222 72.3796 144.817 72.0907 144.52 71.7051C144.356 72.3126 144.429 72.9598 144.726 73.5151C145.023 74.0704 145.521 74.4921 146.118 74.6943L153.265 77.1182C153.862 77.3199 154.515 77.2874 155.089 77.0274C155.663 76.7673 156.117 76.2992 156.359 75.7179C155.887 75.8421 155.39 75.8244 154.929 75.6669Z" fill="url(#paint10_linear_129_1871)"/>
<path d="M135.883 75.4941L128.736 73.0701C128.114 72.8571 127.433 72.8982 126.842 73.1845C126.251 73.4708 125.798 73.9789 125.581 74.5978C125.369 75.2178 125.411 75.8963 125.697 76.4857C125.984 77.0751 126.493 77.5276 127.112 77.7449L134.259 80.1688C134.88 80.3817 135.56 80.3404 136.151 80.0541C136.741 79.7677 137.193 79.2597 137.409 78.6411C137.623 78.0218 137.582 77.3433 137.296 76.7537C137.01 76.1641 136.502 75.7112 135.883 75.4941Z" fill="white"/>
<path style="mix-blend-mode:multiply" d="M135.944 78.7433L126.699 75.6064C126.236 75.4496 125.83 75.161 125.53 74.7764C125.367 75.3839 125.441 76.0305 125.737 76.5855C126.034 77.1405 126.531 77.5623 127.128 77.7656L134.275 80.1895C134.871 80.3922 135.523 80.3602 136.097 80.0999C136.671 79.8397 137.124 79.3709 137.363 78.7891C136.896 78.9142 136.402 78.8983 135.944 78.7433Z" fill="url(#paint11_linear_129_1871)"/>
<path d="M151.917 80.9686L144.77 78.5446C144.146 78.3342 143.463 78.3795 142.871 78.6707C142.28 78.9618 141.828 79.475 141.616 80.0978C141.405 80.7204 141.45 81.401 141.742 81.9901C142.034 82.5793 142.549 83.0287 143.173 83.2398L150.319 85.6688C150.944 85.8791 151.626 85.8336 152.216 85.5424C152.807 85.2511 153.258 84.738 153.469 84.1156C153.574 83.8074 153.618 83.4814 153.597 83.1564C153.576 82.8314 153.491 82.5137 153.347 82.2215C153.202 81.9292 153.002 81.6682 152.757 81.4532C152.512 81.2382 152.226 81.0735 151.917 80.9686Z" fill="white"/>
<path style="mix-blend-mode:multiply" d="M151.978 84.2375L142.733 81.1006C142.27 80.9487 141.864 80.6591 141.57 80.2705C141.404 80.8781 141.477 81.5258 141.774 82.0815C142.071 82.6371 142.569 83.0585 143.167 83.2597L150.314 85.6888C150.912 85.8904 151.564 85.8579 152.138 85.5979C152.713 85.3379 153.167 84.8698 153.408 84.2884C152.937 84.4103 152.44 84.3926 151.978 84.2375Z" fill="url(#paint12_linear_129_1871)"/>
<path d="M132.932 84.0644L125.785 81.6404C125.164 81.4274 124.483 81.4686 123.892 81.7548C123.3 82.0411 122.847 82.5492 122.63 83.1681C122.417 83.7881 122.458 84.4672 122.745 85.0569C123.032 85.6467 123.541 86.099 124.162 86.3152L131.309 88.7392C131.93 88.9508 132.61 88.909 133.201 88.6229C133.792 88.3368 134.246 87.8295 134.463 87.2115C134.677 86.5915 134.636 85.9124 134.349 85.3227C134.062 84.7329 133.552 84.2805 132.932 84.0644Z" fill="white"/>
<path style="mix-blend-mode:multiply" d="M132.993 87.3085L123.743 84.1767C123.282 84.0198 122.877 83.7312 122.579 83.3467C122.416 83.9542 122.49 84.6009 122.787 85.1559C123.083 85.7108 123.58 86.1326 124.177 86.3359L131.324 88.7599C131.921 88.9615 132.574 88.929 133.148 88.669C133.722 88.409 134.176 87.9408 134.418 87.3595C133.948 87.484 133.452 87.4662 132.993 87.3085Z" fill="url(#paint13_linear_129_1871)"/>
<path d="M148.967 89.5591L141.82 87.1351C141.198 86.9235 140.518 86.9653 139.927 87.2514C139.336 87.5375 138.883 88.0448 138.665 88.6629C138.453 89.2822 138.495 89.96 138.782 90.5485C139.069 91.1371 139.577 91.5887 140.196 91.8049L147.343 94.2288C147.965 94.4432 148.646 94.4028 149.238 94.1163C149.829 93.8298 150.282 93.3208 150.498 92.7011C150.71 92.0818 150.668 91.404 150.381 90.8154C150.094 90.2269 149.586 89.7753 148.967 89.5591Z" fill="white"/>
<path style="mix-blend-mode:multiply" d="M149.028 92.8078L139.783 89.6709C139.32 89.514 138.914 89.2255 138.614 88.8408C138.45 89.4483 138.525 90.095 138.821 90.65C139.118 91.205 139.615 91.6268 140.212 91.8301L147.359 94.254C147.955 94.4572 148.607 94.4261 149.182 94.1669C149.757 93.9077 150.211 93.44 150.452 92.8587C149.983 92.9805 149.487 92.9628 149.028 92.8078Z" fill="url(#paint14_linear_129_1871)"/>
<path d="M129.976 92.6349L122.829 90.2109C122.522 90.1049 122.197 90.0602 121.872 90.0796C121.547 90.099 121.23 90.182 120.937 90.3238C120.645 90.4657 120.383 90.6637 120.167 90.9064C119.952 91.1492 119.786 91.432 119.68 91.7386C119.465 92.3586 119.505 93.0383 119.792 93.6284C120.08 94.2185 120.59 94.6707 121.211 94.8857L128.358 97.3097C128.98 97.5213 129.66 97.4795 130.251 97.1934C130.841 96.9073 131.295 96.4 131.513 95.782C131.726 95.1614 131.684 94.4817 131.396 93.8919C131.108 93.302 130.598 92.85 129.976 92.6349Z" fill="white"/>
<path style="mix-blend-mode:multiply" d="M130.043 95.8789L120.792 92.7471C120.331 92.5915 119.926 92.3026 119.629 91.917C119.465 92.5245 119.539 93.1712 119.836 93.7262C120.133 94.2811 120.63 94.703 121.226 94.9062L128.373 97.3302C128.971 97.5318 129.623 97.4993 130.197 97.2393C130.772 96.9793 131.225 96.5112 131.467 95.9298C130.998 96.0543 130.502 96.0365 130.043 95.8789Z" fill="url(#paint15_linear_129_1871)"/>
<path d="M146.001 98.1296L138.854 95.7057C138.233 95.4928 137.553 95.5341 136.962 95.8204C136.372 96.1068 135.92 96.6149 135.704 97.2334C135.49 97.8533 135.532 98.5324 135.819 99.1222C136.106 99.7119 136.615 100.164 137.235 100.38L144.382 102.804C145.004 103.017 145.685 102.976 146.276 102.69C146.867 102.404 147.321 101.896 147.537 101.277C147.749 100.656 147.706 99.977 147.419 99.3875C147.131 98.798 146.621 98.3459 146.001 98.1296Z" fill="white"/>
<path style="mix-blend-mode:multiply" d="M146.077 101.378L136.812 98.2412C136.351 98.0843 135.946 97.7956 135.648 97.4111C135.485 98.0186 135.559 98.6653 135.855 99.2203C136.152 99.7753 136.649 100.197 137.246 100.4L144.393 102.824C144.99 103.027 145.643 102.995 146.217 102.735C146.792 102.475 147.246 102.006 147.486 101.424C147.022 101.547 146.532 101.531 146.077 101.378Z" fill="url(#paint16_linear_129_1871)"/>
<path d="M152.846 119.487C152.846 120.149 152.649 120.797 152.28 121.348C151.911 121.899 151.386 122.329 150.773 122.582C150.159 122.836 149.483 122.902 148.832 122.773C148.18 122.644 147.582 122.325 147.112 121.856C146.642 121.387 146.322 120.79 146.193 120.14C146.063 119.49 146.13 118.817 146.384 118.204C146.638 117.592 147.069 117.069 147.621 116.7C148.173 116.332 148.823 116.136 149.487 116.136C149.929 116.135 150.366 116.221 150.773 116.389C151.181 116.558 151.552 116.804 151.864 117.116C152.176 117.427 152.423 117.797 152.592 118.203C152.76 118.61 152.847 119.046 152.846 119.487Z" fill="#4DD0E1"/>
<path d="M22.9721 108.32C22.9711 108.982 22.7732 109.63 22.4035 110.18C22.0338 110.73 21.5089 111.159 20.895 111.412C20.2811 111.665 19.6059 111.73 18.9546 111.6C18.3034 111.471 17.7053 111.151 17.2361 110.682C16.7668 110.213 16.4474 109.616 16.3182 108.966C16.189 108.317 16.2558 107.643 16.5102 107.031C16.7646 106.419 17.1951 105.896 17.7474 105.528C18.2997 105.16 18.9489 104.964 19.6131 104.964C20.0546 104.964 20.4918 105.051 20.8997 105.219C21.3076 105.388 21.6781 105.635 21.9901 105.947C22.3021 106.259 22.5494 106.629 22.7179 107.036C22.8864 107.443 22.9728 107.879 22.9721 108.32Z" fill="#4DD0E1"/>
<path d="M157.818 126.535C157.818 126.887 157.714 127.231 157.518 127.523C157.322 127.815 157.043 128.043 156.717 128.178C156.392 128.312 156.033 128.347 155.687 128.278C155.342 128.209 155.024 128.039 154.775 127.79C154.526 127.541 154.357 127.224 154.289 126.879C154.221 126.534 154.257 126.176 154.392 125.851C154.528 125.527 154.757 125.25 155.051 125.055C155.344 124.86 155.689 124.757 156.042 124.758C156.276 124.758 156.507 124.804 156.723 124.893C156.939 124.983 157.135 125.114 157.3 125.279C157.465 125.444 157.596 125.64 157.685 125.855C157.774 126.071 157.819 126.302 157.818 126.535Z" fill="#4DD0E1"/>
<path d="M14.1814 102.483C14.1824 102.835 14.0786 103.179 13.8833 103.472C13.6879 103.765 13.4097 103.994 13.0839 104.129C12.7582 104.264 12.3995 104.3 12.0535 104.232C11.7074 104.163 11.3895 103.994 11.14 103.745C10.8905 103.496 10.7207 103.179 10.6521 102.834C10.5836 102.488 10.6193 102.131 10.7548 101.806C10.8902 101.481 11.1194 101.203 11.4131 101.008C11.7069 100.813 12.0521 100.71 12.4049 100.711C12.876 100.711 13.3279 100.898 13.6611 101.23C13.9942 101.562 14.1814 102.013 14.1814 102.483Z" fill="#4DD0E1"/>
<path opacity="0.7" d="M89.9384 145C131.225 145 164.695 143.716 164.695 142.133C164.695 140.549 131.225 139.266 89.9384 139.266C48.6516 139.266 15.182 140.549 15.182 142.133C15.182 143.716 48.6516 145 89.9384 145Z" fill="#E7EDF4"/>
<defs>
<linearGradient id="paint0_linear_129_1871" x1="63.8573" y1="103.441" x2="11.2444" y2="81.2016" gradientUnits="userSpaceOnUse">
<stop stop-color="white" stop-opacity="0"/>
<stop offset="1" stop-color="#235196"/>
</linearGradient>
<linearGradient id="paint1_linear_129_1871" x1="13.726" y1="61.9882" x2="46.3092" y2="91.7107" gradientUnits="userSpaceOnUse">
<stop stop-color="white" stop-opacity="0"/>
<stop offset="1" stop-color="#235196"/>
</linearGradient>
<linearGradient id="paint2_linear_129_1871" x1="127.395" y1="74.7994" x2="-2.77002" y2="63.0557" gradientUnits="userSpaceOnUse">
<stop stop-color="white" stop-opacity="0"/>
<stop offset="1" stop-color="#235196"/>
</linearGradient>
<linearGradient id="paint3_linear_129_1871" x1="82.1848" y1="113.484" x2="86.2608" y2="136.682" gradientUnits="userSpaceOnUse">
<stop stop-color="white" stop-opacity="0"/>
<stop offset="1" stop-color="#235196"/>
</linearGradient>
<linearGradient id="paint4_linear_129_1871" x1="94.9409" y1="107.229" x2="112.117" y2="123.388" gradientUnits="userSpaceOnUse">
<stop stop-color="white" stop-opacity="0"/>
<stop offset="1" stop-color="#235196"/>
</linearGradient>
<linearGradient id="paint5_linear_129_1871" x1="138.659" y1="44.1397" x2="141.843" y2="58.8402" gradientUnits="userSpaceOnUse">
<stop stop-color="white" stop-opacity="0"/>
<stop offset="1" stop-color="#235196"/>
</linearGradient>
<linearGradient id="paint6_linear_129_1871" x1="154.691" y1="49.6389" x2="157.877" y2="64.3346" gradientUnits="userSpaceOnUse">
<stop stop-color="white" stop-opacity="0"/>
<stop offset="1" stop-color="#235196"/>
</linearGradient>
<linearGradient id="paint7_linear_129_1871" x1="135.706" y1="52.7119" x2="138.892" y2="67.4075" gradientUnits="userSpaceOnUse">
<stop stop-color="white" stop-opacity="0"/>
<stop offset="1" stop-color="#235196"/>
</linearGradient>
<linearGradient id="paint8_linear_129_1871" x1="151.74" y1="58.2065" x2="154.924" y2="72.907" gradientUnits="userSpaceOnUse">
<stop stop-color="white" stop-opacity="0"/>
<stop offset="1" stop-color="#235196"/>
</linearGradient>
<linearGradient id="paint9_linear_129_1871" x1="132.75" y1="61.2775" x2="135.939" y2="75.9795" gradientUnits="userSpaceOnUse">
<stop stop-color="white" stop-opacity="0"/>
<stop offset="1" stop-color="#235196"/>
</linearGradient>
<linearGradient id="paint10_linear_129_1871" x1="148.787" y1="66.7789" x2="151.973" y2="81.4745" gradientUnits="userSpaceOnUse">
<stop stop-color="white" stop-opacity="0"/>
<stop offset="1" stop-color="#235196"/>
</linearGradient>
<linearGradient id="paint11_linear_129_1871" x1="129.797" y1="69.8508" x2="132.988" y2="84.548" gradientUnits="userSpaceOnUse">
<stop stop-color="white" stop-opacity="0"/>
<stop offset="1" stop-color="#235196"/>
</linearGradient>
<linearGradient id="paint12_linear_129_1871" x1="145.836" y1="75.3466" x2="149.02" y2="90.0471" gradientUnits="userSpaceOnUse">
<stop stop-color="white" stop-opacity="0"/>
<stop offset="1" stop-color="#235196"/>
</linearGradient>
<linearGradient id="paint13_linear_129_1871" x1="126.846" y1="78.4183" x2="130.03" y2="93.1188" gradientUnits="userSpaceOnUse">
<stop stop-color="white" stop-opacity="0"/>
<stop offset="1" stop-color="#235196"/>
</linearGradient>
<linearGradient id="paint14_linear_129_1871" x1="142.883" y1="83.919" x2="146.069" y2="98.6147" gradientUnits="userSpaceOnUse">
<stop stop-color="white" stop-opacity="0"/>
<stop offset="1" stop-color="#235196"/>
</linearGradient>
<linearGradient id="paint15_linear_129_1871" x1="123.893" y1="86.9907" x2="127.079" y2="101.686" gradientUnits="userSpaceOnUse">
<stop stop-color="white" stop-opacity="0"/>
<stop offset="1" stop-color="#235196"/>
</linearGradient>
<linearGradient id="paint16_linear_129_1871" x1="139.932" y1="92.4866" x2="143.118" y2="107.182" gradientUnits="userSpaceOnUse">
<stop stop-color="white" stop-opacity="0"/>
<stop offset="1" stop-color="#235196"/>
</linearGradient>
</defs>
</svg>
