<svg width="48" height="39" viewBox="0 0 48 39" fill="none" xmlns="http://www.w3.org/2000/svg">
<g clip-path="url(#clip0_3259_1179)">
<path d="M6.57146 23.1206H41.4373C41.4419 23.2272 41.4511 23.3291 41.4511 23.431C41.4517 28.1469 41.4522 32.8628 41.4511 37.5786C41.4511 38.4486 40.9099 38.9994 40.0509 38.9994C29.3532 39.0006 18.6555 39.0006 7.95783 38.9994C7.11207 38.9994 6.55822 38.4497 6.55822 37.6072C6.55649 32.8721 6.55707 28.1364 6.55822 23.4013C6.55822 23.3163 6.56628 23.2313 6.57204 23.1212L6.57146 23.1206Z" fill="white"/>
<path d="M24.0012 21.7889C16.508 21.7889 9.01543 21.7802 1.52227 21.8C0.565401 21.8023 -0.0396938 21.1607 0.00175895 20.2488C0.0351515 19.5128 0.00809202 18.7745 0.00809202 18.0367C0.00809202 17.0131 0.51704 16.4954 1.52745 16.4954C12.0041 16.4954 22.4807 16.4954 32.9579 16.4954C37.467 16.4954 41.9761 16.4966 46.4853 16.4931C46.8923 16.4931 47.2683 16.5595 47.5757 16.8524C47.8728 17.1354 48 17.4894 47.9995 17.897C47.9983 18.7122 48 19.5274 47.9983 20.342C47.9966 21.2521 47.4663 21.7889 46.5665 21.7889C39.0445 21.7895 31.5231 21.7889 24.0012 21.7889Z" fill="white"/>
<path d="M19.5611 4.9686C19.5646 2.50963 21.0108 0.585191 23.0293 0.11238C25.2425 -0.40585 27.4585 0.90894 28.2058 3.1711C28.5719 4.28034 28.4648 5.39483 28.2581 6.50582C28.0094 7.84448 27.5022 9.06844 26.5557 10.0676C25.0392 11.6689 22.9752 11.6747 21.4587 10.0752C20.4247 8.98517 19.9204 7.63836 19.6918 6.17276C19.6175 5.69529 19.5865 5.21025 19.5605 4.96802L19.5611 4.9686Z" fill="white"/>
<path d="M15.4128 15.1603C15.8458 12.9499 18.0439 10.9114 20.4649 10.7879C20.568 11.5082 21.0556 11.9269 21.6601 12.1959C23.214 12.8882 24.7892 12.8882 26.3437 12.1976C26.9482 11.9292 27.4387 11.5134 27.5412 10.7914C29.8419 10.8886 32.1241 12.8323 32.5979 15.1603H15.4128Z" fill="white"/>
</g>
<defs>
<clipPath id="clip0_3259_1179">
<rect width="48" height="39" fill="white"/>
</clipPath>
</defs>
</svg>
