<svg width="40" height="28" viewBox="0 0 40 28" fill="none" xmlns="http://www.w3.org/2000/svg">
<path fill-rule="evenodd" clip-rule="evenodd" d="M12.0961 1.10519C10.624 -0.367688 8.2364 -0.368507 6.7632 1.10339L6.0591 1.80689C4.71987 1.42629 3.22155 1.76689 2.16703 2.82849C0.61099 4.39509 0.61099 6.93759 2.16703 8.50419L3 9.34279V20H0V22H2.05051C1.40223 22.6353 1 23.5207 1 24.5C1 26.433 2.567 28 4.5 28C6.433 28 8 26.433 8 24.5C8 23.5207 7.5978 22.6353 6.9495 22H33.0505C32.4022 22.6353 32 23.5207 32 24.5C32 26.433 33.567 28 35.5 28C37.433 28 39 26.433 39 24.5C39 23.5207 38.5978 22.6353 37.9495 22H40V20H36V16.8873C37.7218 16.4646 39 14.8993 39 13.033C39 10.8423 37.2388 9.06639 35.0662 9.06639H14.11C14.0285 9.06639 13.9502 9.03369 13.8925 8.97559L13.5261 8.60679L13.8945 8.2387C15.3678 6.7667 15.3686 4.37929 13.8963 2.90629L12.0961 1.10519ZM12.1167 7.18779L12.4809 6.82389C13.1727 6.13269 13.1731 5.01179 12.4818 4.32019L10.6816 2.51909C9.9902 1.82729 8.8687 1.82689 8.1768 2.51819L7.8263 2.86839L12.1167 7.18779ZM34 20H5V11.3563L10.2752 16.6672C10.4867 16.8801 10.7733 16.9997 11.0722 16.9997H34V20Z" fill="#C0C0C0"/>
</svg>
