<svg width="26" height="22" viewBox="0 0 26 22" fill="none" xmlns="http://www.w3.org/2000/svg">
<path d="M12.9443 8.49585C10.8013 8.49585 9.06449 10.2335 9.06449 12.3756C9.06449 14.5185 10.8013 16.2554 12.9443 16.2554C15.0867 16.2554 16.824 14.5185 16.824 12.3756C16.824 10.2335 15.0867 8.49585 12.9443 8.49585ZM23.2903 4.61609H20.1865C19.7597 4.61609 19.2998 4.28502 19.1651 3.87997L18.3627 1.47219C18.2275 1.0674 17.7681 0.736328 17.3413 0.736328H8.54719C8.12042 0.736328 7.66054 1.0674 7.52578 1.47245L6.72345 3.88023C6.58817 4.28502 6.12881 4.61609 5.70203 4.61609H2.59823C1.17565 4.61609 0.0117188 5.78002 0.0117188 7.2026V18.8419C0.0117188 20.2645 1.17565 21.4284 2.59823 21.4284H23.2903C24.7129 21.4284 25.8768 20.2645 25.8768 18.8419V7.2026C25.8768 5.78002 24.7129 4.61609 23.2903 4.61609ZM12.9443 18.8419C9.37306 18.8419 6.47799 15.9468 6.47799 12.3756C6.47799 8.80468 9.37306 5.90934 12.9443 5.90934C16.5149 5.90934 19.4105 8.80468 19.4105 12.3756C19.4105 15.9468 16.5149 18.8419 12.9443 18.8419ZM22.385 9.01134C21.8853 9.01134 21.4797 8.60629 21.4797 8.10606C21.4797 7.60635 21.8853 7.20079 22.385 7.20079C22.8852 7.20079 23.2903 7.60635 23.2903 8.10606C23.2903 8.60629 22.885 9.01134 22.385 9.01134Z" fill="white"/>
</svg>
