<svg width="16" height="15" viewBox="0 0 16 15" fill="none" xmlns="http://www.w3.org/2000/svg">
<path d="M14 4.0013H11.8867L10.6667 2.66797H6.66667V4.0013H10.08L11.3 5.33464H14V13.3346H3.33333V7.33464H2V13.3346C2 14.068 2.6 14.668 3.33333 14.668H14C14.7333 14.668 15.3333 14.068 15.3333 13.3346V5.33464C15.3333 4.6013 14.7333 4.0013 14 4.0013ZM5.33333 9.33464C5.33333 11.1746 6.82667 12.668 8.66667 12.668C10.5067 12.668 12 11.1746 12 9.33464C12 7.49464 10.5067 6.0013 8.66667 6.0013C6.82667 6.0013 5.33333 7.49464 5.33333 9.33464ZM8.66667 7.33464C9.76667 7.33464 10.6667 8.23464 10.6667 9.33464C10.6667 10.4346 9.76667 11.3346 8.66667 11.3346C7.56667 11.3346 6.66667 10.4346 6.66667 9.33464C6.66667 8.23464 7.56667 7.33464 8.66667 7.33464ZM3.33333 4.0013H5.33333V2.66797H3.33333V0.667969H2V2.66797H0V4.0013H2V6.0013H3.33333V4.0013Z" fill="black"/>
</svg>
