<svg width="266" height="219" viewBox="0 0 266 219" fill="none" xmlns="http://www.w3.org/2000/svg">
<path fill-rule="evenodd" clip-rule="evenodd" d="M23.4706 0.798828C10.5081 0.798828 0 11.2561 0 24.1561V164.299C0 177.199 10.5081 187.656 23.4706 187.656H101.705V203.228H70.4109V218.799H195.588V203.228H164.294V187.656H242.529C255.492 187.656 266 177.199 266 164.299V24.1561C266 11.2561 255.492 0.798828 242.529 0.798828H23.4706ZM117.353 203.228V187.656H148.647V203.228H117.353ZM54.7657 31.9423H70.4132V47.5133H86.0621V63.0851H70.4132V78.6561H54.7657V63.0851H39.1205V47.5133H54.7657V31.9423ZM39.116 109.8C39.116 105.499 42.6191 102.013 46.9401 102.013H78.2343C82.5546 102.013 86.0577 105.499 86.0577 109.8V140.942C86.0577 145.242 82.5546 148.728 78.2343 148.728H46.9401C42.6191 148.728 39.116 145.242 39.116 140.942V109.8ZM109.528 39.7278C109.528 35.4281 113.031 31.9423 117.352 31.9423H148.646C152.967 31.9423 156.469 35.4281 156.469 39.7278V70.8706C156.469 75.1703 152.967 78.6561 148.646 78.6561H117.352C113.031 78.6561 109.528 75.1703 109.528 70.8706V39.7278ZM109.527 109.8C109.527 105.499 113.03 102.013 117.351 102.013H148.645C152.966 102.013 156.469 105.499 156.469 109.8V140.942C156.469 145.242 152.966 148.728 148.645 148.728H117.351C113.03 148.728 109.527 145.242 109.527 140.942V109.8ZM179.939 39.7278C179.939 35.4281 183.442 31.9423 187.763 31.9423H219.058C223.378 31.9423 226.881 35.4281 226.881 39.7278V70.8706C226.881 75.1703 223.378 78.6561 219.058 78.6561H187.763C183.442 78.6561 179.939 75.1703 179.939 70.8706V39.7278Z" fill="url(#paint0_linear_3267_1965)"/>
<defs>
<linearGradient id="paint0_linear_3267_1965" x1="133" y1="0.798828" x2="133" y2="218.799" gradientUnits="userSpaceOnUse">
<stop stop-color="#39D408"/>
<stop offset="1" stop-color="#2AE4FD"/>
</linearGradient>
</defs>
</svg>
