<svg width="292" height="294" viewBox="0 0 292 294" fill="none" xmlns="http://www.w3.org/2000/svg">
<path d="M19.2222 251.579C19.2222 247.628 19.0872 243.817 19.2573 240.02C19.4573 235.563 23.7889 231.367 28.3757 231.072C30.9866 230.902 33.6226 230.867 36.2386 231.012C38.0743 231.112 38.6795 230.692 38.6695 228.696C38.5895 201.536 38.6095 174.371 38.6045 147.21C38.6045 133.725 38.6045 120.235 38.6045 106.75C38.6045 106.2 38.6045 105.645 38.6045 104.96H78.5394V230.852C79.3297 230.902 79.9249 230.972 80.5201 230.972C85.517 230.982 90.5089 230.972 95.5057 230.972C97.2731 230.972 98.1567 230.111 98.1567 228.391C98.1567 206.788 98.1467 185.18 98.1417 163.577C98.1417 144.655 98.1417 125.737 98.1417 106.815C98.1417 106.255 98.1417 105.7 98.1417 104.98H136.866V230.822H156.644V104.93H195.468V230.842H215.065V104.955H253.835C253.835 105.62 253.835 106.275 253.835 106.935C253.835 147.521 253.835 188.111 253.785 228.696C253.785 230.447 254.17 231.122 256.026 231.017C258.577 230.872 261.148 230.927 263.704 231.052C268.66 231.292 272.862 235.253 273.167 240.21C273.397 243.937 273.212 247.688 273.212 251.579H19.2222Z" fill="url(#paint0_linear_3163_2531)"/>
<path d="M291.959 83.5166H272.492C272.292 84.557 272.177 85.5373 271.902 86.4727C270.571 91.0194 266.61 93.8504 261.403 93.9055C256.161 93.9605 250.914 93.9205 245.672 93.9205C174.44 93.9205 103.204 93.9105 31.9722 93.9455C27.2304 93.9455 23.554 92.3449 21.4082 88.0033C20.763 86.6928 20.5129 85.1872 20.0377 83.6366H0.150296C0.105279 83.0664 0.0402549 82.5812 0.035253 82.1011C0.0252493 76.1688 0.0552605 70.2366 0.000239927 64.3094C-0.00976381 63.169 0.290348 62.5788 1.41077 62.0986C30.2315 49.704 59.0373 37.2593 87.8431 24.8247C106.655 16.6966 125.457 8.5636 144.284 0.500584C145.134 0.135448 146.4 0.0704233 147.23 0.425556C176.346 12.9152 205.437 25.4799 234.533 38.0246C253.115 46.0376 271.697 54.0506 290.304 61.9986C291.609 62.5588 292.019 63.189 291.999 64.5845C291.919 70.8168 291.964 77.0492 291.964 83.5216L291.959 83.5166Z" fill="url(#paint1_linear_3163_2531)"/>
<path d="M0.105187 293.59C0.105187 286.102 -0.0648769 278.739 0.165209 271.392C0.310263 266.725 5.11206 262.738 10.249 262.678C17.4267 262.588 24.6093 262.633 31.787 262.633C86.6025 262.633 141.418 262.633 196.233 262.633C224.454 262.633 252.674 262.718 280.89 262.593C287.768 262.563 292.039 268.08 291.969 273.643C291.889 280.135 291.939 286.627 291.929 293.12C291.929 293.235 291.864 293.35 291.794 293.6H0.105187V293.59Z" fill="url(#paint2_linear_3163_2531)"/>
<defs>
<linearGradient id="paint0_linear_3163_2531" x1="146.227" y1="104.93" x2="146.227" y2="251.579" gradientUnits="userSpaceOnUse">
<stop stop-color="#38D50E"/>
<stop offset="1" stop-color="#2AE4FA"/>
</linearGradient>
<linearGradient id="paint1_linear_3163_2531" x1="146" y1="0.19043" x2="146" y2="93.9455" gradientUnits="userSpaceOnUse">
<stop stop-color="#38D50E"/>
<stop offset="1" stop-color="#2AE4FA"/>
</linearGradient>
<linearGradient id="paint2_linear_3163_2531" x1="146.007" y1="262.593" x2="146.007" y2="293.6" gradientUnits="userSpaceOnUse">
<stop stop-color="#38D50E"/>
<stop offset="1" stop-color="#2AE4FA"/>
</linearGradient>
</defs>
</svg>
