<svg width="555" height="423" viewBox="0 0 555 423" fill="none" xmlns="http://www.w3.org/2000/svg">
<g clip-path="url(#clip0_292_3588)">
<path d="M39.401 401.294C39.401 401.294 -12.0215 365.161 11.6126 319.736C35.263 274.312 82.5475 204.581 58.8807 169.02C35.263 133.476 32.8587 19.5961 168.824 2.12644C277.279 -11.7936 310.236 45.4897 327.05 84.5836C349.228 136.158 329.405 230.295 433.1 242.71C536.812 255.125 596.053 306.405 521.765 390.007C489.299 426.533 39.401 401.277 39.401 401.277V401.294Z" fill="#C9D6F2"/>
<path d="M225.088 372.865C148.559 389.598 86.2276 366.371 107.49 326.852C128.753 287.332 115.717 282.343 99.3286 269.912C82.9237 257.48 46.0906 222.868 81.9751 184.854C117.909 146.856 90.6109 135.831 79.3909 113.471C46.6303 48.2376 179.537 21.4607 143.571 81.492C116.568 126.556 117.99 161.054 151.553 183.987C185.131 206.92 191.82 219.008 190.348 247.355C188.86 275.702 177.264 335.93 211.48 333.411C245.664 330.908 264.342 364.277 225.088 372.865Z" fill="#EBF2FF"/>
<path d="M86.064 104.572C82.5148 97.8167 81.6807 64.7095 113.803 66.427C133.349 67.4739 123.208 94.169 118.776 114.714C114.36 135.259 117.369 167.515 125.547 180.797C140.643 205.301 137.405 215.606 118.726 236.641C118.726 236.641 109.028 252.262 126.921 269.012C144.814 285.762 137.895 331.906 158.684 339.381C179.472 346.857 191.215 362.789 176.969 364.277C162.756 365.766 103.794 371.507 119.315 332.675C141.935 276.16 97.8402 259.411 86.8491 246.864C76.774 235.365 68.1545 209.684 97.3822 177.46C119.986 152.532 96.9733 125.362 86.0804 104.572H86.064Z" fill="#CBDBF4"/>
<path d="M165.586 398.677L164.408 403.862C163.296 403.584 136.636 396.877 107.915 378.443C69.6755 353.89 46.434 320.194 40.7422 280.904L45.698 280.053C58.9134 371.278 164.506 398.415 165.569 398.677H165.586Z" fill="#7585F8"/>
<path d="M44.3568 286.155C44.3568 286.155 16.5847 271.417 28.0992 237.475C28.0992 237.475 52.7473 257.497 44.3568 286.155Z" fill="#7585F8"/>
<path d="M53.2544 313.897C53.2544 313.897 15.3908 326.557 0 283.799C0 283.799 20.1994 276.389 53.2544 313.897Z" fill="#7585F8"/>
<path d="M51.9622 314.06C51.9622 314.06 87.1107 294.448 69.5937 252.671C69.5937 252.671 50.4084 262.617 51.9622 314.06Z" fill="#7585F8"/>
<path d="M72.9631 345.712C72.9631 345.712 36.457 362.412 16.9937 321.601C16.9937 321.601 36.3589 312.016 72.9631 345.712Z" fill="#7585F8"/>
<path d="M71.671 346.006C71.671 346.006 104.759 322.697 83.2345 283.063C83.2345 283.063 65.0796 295.053 71.671 346.006Z" fill="#7585F8"/>
<path d="M104.382 373.355C104.382 373.355 71.0657 396.37 45.2563 359.746C45.2563 359.746 62.8061 346.791 104.382 373.355Z" fill="#7585F8"/>
<path d="M103.156 373.879C103.156 373.879 132.007 344.943 104.382 309.84C104.382 309.84 88.4193 324.922 103.156 373.879Z" fill="#7585F8"/>
<path d="M136.685 390.694C136.685 390.694 110.172 422.051 76.1525 393.868C76.1525 393.868 89.9567 376.578 136.685 390.694Z" fill="#7585F8"/>
<path d="M135.655 391.528C135.655 391.528 156.459 355.722 121.065 329.501C121.065 329.501 109.355 348.411 135.655 391.528Z" fill="#7585F8"/>
<path d="M362.869 398.791C436.159 418.796 497.657 399.396 479.028 360.057C460.398 320.734 473.254 316.563 489.757 305.326C506.26 294.104 543.633 262.42 510.758 223.817C477.866 185.214 504.837 175.907 516.809 154.806C551.762 93.2531 424.399 60.7184 456.244 120.652C480.156 165.634 477.081 198.954 443.421 219.499C409.794 240.044 402.712 251.428 402.744 278.941C402.777 306.454 411.02 365.357 378.014 361.235C345.025 357.113 325.283 388.502 362.869 398.759V398.791Z" fill="#7585F8"/>
<g style="mix-blend-mode:overlay" opacity="0.2">
<path d="M510.79 145.875C514.569 139.512 517.022 107.484 485.832 107.549C466.859 107.598 475.364 133.95 478.635 154.07C481.89 174.189 477.376 205.268 468.805 217.732C452.973 240.714 455.59 250.856 472.649 272.137C472.649 272.137 481.252 287.758 463.081 303.085C444.926 318.428 449.342 363.443 428.848 369.659C408.338 375.858 396.169 390.727 409.892 392.854C423.598 394.996 480.418 403.486 467.284 365.112C448.197 309.251 491.72 295.217 502.989 283.619C513.309 272.987 522.926 248.533 496.234 215.9C475.576 190.628 499.227 165.471 510.79 145.875Z" fill="#F6F5F7"/>
</g>
<path d="M352.205 397.499L351.093 390.71C458.943 373.077 505.606 288.608 506.08 287.741L512.148 291.013C511.674 291.863 463.522 379.326 352.221 397.499H352.205Z" fill="#EBF2FF"/>
<path d="M505.622 293.515C505.622 293.515 519.704 257.088 538.072 268.718C545.874 273.658 541.67 291.324 505.622 293.515Z" fill="#EBF2FF"/>
<path d="M497.46 305.424C497.46 305.424 533.361 284.666 537.107 305.653C538.677 314.6 522.943 326.312 497.46 305.424Z" fill="#EBF2FF"/>
<path d="M497.526 309.3C497.526 309.3 519.508 275.768 496.872 272.529C487.238 271.122 474.742 285.844 497.526 309.3Z" fill="#EBF2FF"/>
<path d="M473.614 333.607C473.614 333.607 497.281 300.893 474.922 296.64C465.403 294.808 452.237 308.989 473.614 333.607Z" fill="#EBF2FF"/>
<path d="M452.646 352.124C452.646 352.124 476.133 319.376 453.774 315.156C444.239 313.34 431.121 327.571 452.646 352.124Z" fill="#EBF2FF"/>
<path d="M423.353 370.346C423.353 370.346 452.351 341.426 431.612 333.476C422.764 330.09 407.373 342.178 423.353 370.346Z" fill="#EBF2FF"/>
<path d="M397.968 381.91C397.968 381.91 426.133 352.287 405.05 344.943C396.12 341.835 381.024 354.283 397.968 381.91Z" fill="#EBF2FF"/>
<path d="M363.229 391.888C363.229 391.888 398.328 369.773 380.942 357.063C373.517 351.633 355.754 360.09 363.229 391.888Z" fill="#EBF2FF"/>
<path d="M479.911 327.375C479.911 327.375 515.877 306.618 519.573 327.621C521.16 336.552 505.458 348.231 479.911 327.375Z" fill="#EBF2FF"/>
<path d="M458.452 346.726C458.452 346.726 494.402 326.001 498.115 346.987C499.718 355.902 483.983 367.614 458.452 346.726Z" fill="#EBF2FF"/>
<path d="M434.883 362.461C434.883 362.461 474.088 349.392 472.436 371.131C471.766 380.389 453.922 388.748 434.883 362.461Z" fill="#EBF2FF"/>
<path d="M407.046 377.232C407.046 377.232 447.101 367.909 442.98 389.631C441.229 398.873 422.796 405.547 407.046 377.232Z" fill="#EBF2FF"/>
<path d="M377.524 387.57C377.524 387.57 417.939 383.563 410.562 404.876C407.373 413.938 388.384 418.158 377.524 387.57Z" fill="#EBF2FF"/>
<path d="M519.95 407.493C519.95 416.065 409.581 423 273.419 423C137.258 423 26.8889 416.048 26.8889 407.493C26.8889 398.938 137.274 391.987 273.419 391.987C409.565 391.987 519.95 398.922 519.95 407.493Z" fill="#ACBFE2"/>
<path d="M459.908 232.846C459.908 328.275 382.561 405.612 287.142 405.612C191.722 405.612 114.376 328.258 114.376 232.846C114.376 137.434 191.722 60.064 287.142 60.064C382.561 60.064 459.908 137.418 459.908 232.846Z" fill="#D086E5"/>
<path d="M302.549 297.065C307.57 305.227 302.5 317.479 291.231 324.398C279.962 331.317 266.746 330.303 261.741 322.124L204.055 228.168C199.033 219.989 204.087 207.754 215.373 200.835C226.642 193.916 239.857 194.93 244.862 203.092L302.549 297.049V297.065Z" fill="#F6F5F7"/>
<path d="M300.455 317.577C293.537 328.847 278.784 332.38 267.531 325.461C256.246 318.542 252.729 303.788 259.648 292.518L339.137 162.951C346.055 151.681 360.808 148.148 372.077 155.067C383.346 161.986 386.879 176.724 379.961 188.011L300.455 317.593V317.577Z" fill="#F6F5F7"/>
<path d="M160.352 208.899C162.74 207.787 170.623 207.182 174.729 213.397C180.273 221.723 182.17 241.974 194.535 248.091C206.933 254.176 214.653 248.991 220.263 246.161C225.873 243.364 226.805 239.585 230.289 238.31C233.724 237.05 235.081 241.221 227.132 247.895C223.305 251.085 206.459 269.127 190.381 264.612C169.282 258.674 146.171 215.377 160.336 208.916L160.352 208.899Z" fill="#E28C71"/>
<path d="M178.687 339.692C175.236 360.826 172.439 405.628 181.712 405.268C191.003 404.909 195.975 401.49 190.528 400.181C185.049 398.873 184.853 398.251 184.902 396.566C185.327 385.999 193.489 365.88 196.58 350.471C200.162 332.609 181.745 321.192 178.687 339.659V339.692Z" fill="#F27851"/>
<path d="M177.493 401.032C177.493 401.032 185.818 404.041 190.528 400.198C190.528 400.198 199.72 400.966 194.143 403.763C188.598 406.577 177.673 409.292 177.493 401.032Z" fill="#6E86CC"/>
<path d="M144.667 252.818C144.667 252.818 192.491 286.4 199.377 303.575C205.559 319.016 191.215 381.24 191.215 381.24C191.215 381.24 181.14 385.263 171.883 379.588L173.093 331.203L132.727 294.284L144.667 252.835V252.818Z" fill="#C92F3B"/>
<path d="M113.803 342.309C96.1392 356.9 62.3318 391.021 70.0845 397.27C77.8207 403.502 84.2485 404.254 80.7484 399.396C77.281 394.473 77.5263 393.802 78.7694 392.51C86.5547 384.299 107.261 373.813 120.558 363.607C136.031 351.764 129.227 329.583 113.787 342.309H113.803Z" fill="#F27851"/>
<path d="M69.6591 390.891C69.6591 390.891 74.2551 399.167 80.7484 399.396C80.7484 399.396 87.6014 406.463 81.1572 404.794C74.7131 403.142 64.0328 397.663 69.6591 390.891Z" fill="#6E86CC"/>
<path d="M137.568 252.573C137.568 252.573 162.38 309.104 155.838 327.768C149.966 344.567 94.6508 384.593 94.6508 384.593C94.6508 384.593 83.6924 380.732 80.225 369.642L115.259 331.513C115.259 331.513 101.258 287.447 108.128 271.106C108.373 270.55 107.163 274.999 107.163 274.999L137.568 252.573Z" fill="#E03D51"/>
<path d="M167.418 277.6C176.577 265.512 181.762 246.766 182.121 232.208C182.628 212.023 164.801 206.822 153.466 205.759C142.132 204.663 123.6 202.471 124.369 227.628C124.876 245.18 118.497 254.34 109.6 269.192C109.355 269.585 109.126 269.912 108.88 270.272C108.848 270.272 108.831 270.223 108.831 270.223C108.831 270.255 108.848 270.272 108.88 270.272C96.3354 285.68 157.015 291.34 167.418 277.616V277.6Z" fill="#FCDCDA"/>
<path d="M109.6 269.16C109.355 269.552 109.126 269.879 108.88 270.239C108.847 270.239 108.831 270.19 108.831 270.19C108.831 270.223 108.847 270.239 108.88 270.239C99.1649 282.164 133.25 288.216 154.006 284.045C157.228 279.219 141.624 277.943 135.851 273.265C122.537 262.469 170.002 261.553 161.824 257.579C152.992 253.326 139.858 255.027 145.648 242.105C151.405 229.166 146.449 213.692 140.97 208.458C135.262 202.978 125.71 209.406 124.664 221.314C124.402 223.212 124.255 225.273 124.336 227.612C124.843 245.163 118.465 254.323 109.567 269.176L109.6 269.16Z" fill="#EFBEBD"/>
<path d="M155.085 190.955C155.085 190.955 157.588 200.524 150.522 204.057C143.276 207.656 165.488 225.354 165.847 220.104C166.305 213.332 163.623 208.768 168.301 201.767L155.102 190.955H155.085Z" fill="#E67052"/>
<path d="M172.161 176.904C176.822 183.267 178.539 207.754 171.67 211.827C168.661 213.561 158.52 209.063 153.711 197.547C151.716 192.82 149.786 184.281 155.527 177.133C158.127 173.878 166.747 169.511 172.161 176.921V176.904Z" fill="#EE9D7F"/>
<path d="M151.978 176.773C145.91 184.396 148.576 191.74 149.001 193.098C150.571 198.038 154.595 202.634 155.821 201.211C157.277 199.51 151.765 197.727 154.3 192.836C156.835 187.945 153.613 186.212 155.298 181.828C156.934 177.46 160.156 178.965 170.378 179.276C174.565 179.407 175.612 177.984 175.465 176.25C170.28 168.824 158.373 168.758 152.01 176.773H151.978Z" fill="#062440"/>
<path d="M176.266 182.204C178.752 176.299 187.633 177.706 184.804 173.535C182.906 170.737 182.89 172.848 161.758 168.529C151.896 166.517 149.95 170.737 148.069 176.299C146.319 181.435 146.875 194.063 153.63 201.489C160.368 208.899 153.417 196.549 156.001 190.955C158.585 185.377 160.286 187.733 164.016 188.665C167.728 189.581 172.275 191.74 176.282 182.22L176.266 182.204Z" fill="#353A66"/>
<path d="M106.623 285.909L124.533 311.574L268.627 210.96L287.142 178.949L250.701 185.296L106.623 285.909Z" fill="#494C7F"/>
<path d="M260.645 199.515L116.544 300.125L124.531 311.566L268.631 210.956L260.645 199.515Z" fill="#373C66"/>
<path d="M287.142 178.949L282.137 187.618L277.296 180.666L287.142 178.949Z" fill="#1F1440"/>
<path d="M136.832 206.904C139.515 207.116 144.192 211.173 144.797 218.697C145.648 228.773 139.94 246.897 147.889 258.347C155.87 269.83 165.259 269.012 171.605 269.274C177.983 269.552 180.649 266.673 184.329 267.213C188.009 267.769 187.159 272.153 176.838 274.165C171.915 275.13 148.134 282.818 136.113 270.926C120.362 255.338 121.131 205.66 136.832 206.904Z" fill="#E28C71"/>
</g>
<defs>
<clipPath id="clip0_292_3588">
<rect width="555" height="423" fill="white"/>
</clipPath>
</defs>
</svg>
