<svg width="28" height="23" viewBox="0 0 28 23" fill="none" xmlns="http://www.w3.org/2000/svg">
<path fill-rule="evenodd" clip-rule="evenodd" d="M2.47059 0C1.10612 0 0 1.10329 0 2.4643V17.25C0 18.611 1.10612 19.7143 2.47059 19.7143H10.7058V21.3572H7.41168V23H20.5882V21.3572H17.2941V19.7143H25.5294C26.8938 19.7143 28 18.611 28 17.25V2.4643C28 1.10329 26.8938 0 25.5294 0H2.47059ZM12.3529 21.3572V19.7143H15.6471V21.3572H12.3529ZM5.76481 3.28578H7.41191V4.92859H9.05917V6.57148H7.41191V8.2143H5.76481V6.57148H4.11794V4.92859H5.76481V3.28578ZM4.11748 11.5001C4.11748 11.0464 4.48622 10.6786 4.94107 10.6786H8.23519C8.68996 10.6786 9.0587 11.0464 9.0587 11.5001V14.7858C9.0587 15.2394 8.68996 15.6072 8.23519 15.6072H4.94107C4.48622 15.6072 4.11748 15.2394 4.11748 14.7858V11.5001ZM11.5293 4.10719C11.5293 3.65355 11.898 3.28578 12.3528 3.28578H15.6469C16.1018 3.28578 16.4705 3.65355 16.4705 4.10719V7.39289C16.4705 7.84653 16.1018 8.2143 15.6469 8.2143H12.3528C11.898 8.2143 11.5293 7.84653 11.5293 7.39289V4.10719ZM11.5292 11.5001C11.5292 11.0464 11.8979 10.6786 12.3527 10.6786H15.6469C16.1016 10.6786 16.4704 11.0464 16.4704 11.5001V14.7858C16.4704 15.2394 16.1016 15.6072 15.6469 15.6072H12.3527C11.8979 15.6072 11.5292 15.2394 11.5292 14.7858V11.5001ZM18.941 4.10719C18.941 3.65355 19.3097 3.28578 19.7646 3.28578H23.0587C23.5135 3.28578 23.8822 3.65355 23.8822 4.10719V7.39289C23.8822 7.84653 23.5135 8.2143 23.0587 8.2143H19.7646C19.3097 8.2143 18.941 7.84653 18.941 7.39289V4.10719Z" fill="#6B6C7E"/>
</svg>
