<svg width="248" height="352" viewBox="0 0 248 352" fill="none" xmlns="http://www.w3.org/2000/svg">
<path d="M247.62 191.018C247.62 228.318 247.54 265.608 247.67 302.908C247.71 314.238 245.03 324.488 237.96 333.508C229 344.938 217.07 351.158 202.84 351.248C150.52 351.598 98.1998 351.718 45.8798 351.248C21.7298 351.028 2.16979 331.918 1.40979 308.388C0.859788 291.408 1.10979 274.408 1.10979 257.418C1.09979 197.438 1.42979 137.468 0.999788 77.4978C0.839788 55.1178 16.0298 37.4878 32.8098 32.3978C38.8598 30.5578 44.0898 33.0178 45.9798 38.6078C47.6898 43.6778 44.7898 49.1178 39.0298 51.1178C30.4298 54.1078 24.6098 59.8178 22.0298 68.5078C21.0598 71.7978 20.5898 75.3578 20.5798 78.7978C20.4998 153.268 20.6398 227.728 20.4498 302.198C20.3998 320.828 33.3898 331.748 49.8998 331.598C99.8798 331.118 149.87 331.218 199.86 331.558C214.73 331.658 228.23 321.418 228.19 303.148C228.11 266.998 228.18 230.838 228.19 194.688C228.19 156.538 228.19 118.398 228.19 80.2478C228.19 64.6278 223 56.7478 208.75 50.6778C203.69 48.5278 201.13 43.3378 202.77 38.5678C204.63 33.1378 209.79 30.5878 215.48 32.2878C233.49 37.6678 247.08 54.4178 247.3 73.0578C247.72 109.038 247.56 145.038 247.63 181.018C247.63 184.348 247.63 187.678 247.63 191.018H247.62Z" fill="#6B6C7E"/>
<path d="M124.22 65.4678C112.73 65.4678 101.24 65.5478 89.7498 65.4478C74.1298 65.3078 65.5698 55.9778 64.9398 40.5678C64.2998 24.9978 71.2898 17.9978 84.4698 13.3678C93.8298 10.0778 102.97 6.16778 112.17 2.46778C120.23 -0.772217 128.22 -0.852217 136.32 2.40778C147.36 6.84778 158.5 11.0578 169.55 15.4978C178.61 19.1378 183.64 26.6078 183.57 36.3478C183.54 40.8178 183.77 45.4578 182.67 49.6978C180.46 58.1678 170.67 65.2478 161.67 65.3578C149.18 65.5178 136.69 65.3978 124.21 65.3978V65.4578L124.22 65.4678ZM124.12 16.3578C114.05 16.3678 105.95 24.5278 105.91 34.6878C105.87 45.0878 114.08 53.4278 124.36 53.4378C134.61 53.4378 142.9 45.0478 142.86 34.7078C142.82 24.3878 134.6 16.3478 124.12 16.3578V16.3578Z" fill="#6B6C7E"/>
<path d="M124.31 170.428C145.95 170.428 167.58 170.428 189.22 170.438C196.63 170.438 200.69 174.418 200.36 181.248C200.08 186.998 195.99 190.368 189.06 190.368C162.76 190.398 136.46 190.388 110.17 190.388C93.8598 190.388 77.5498 190.368 61.2398 190.388C52.4298 190.398 48.3398 187.238 48.3698 180.318C48.3898 173.478 52.4098 170.408 61.3998 170.408C82.3698 170.408 103.34 170.408 124.32 170.408L124.31 170.428Z" fill="#6B6C7E"/>
<path d="M124.37 267.408C102.73 267.408 81.0999 267.438 59.4699 267.398C52.4499 267.388 48.3899 263.698 48.3499 257.508C48.3099 251.278 52.0699 247.508 58.6999 247.458C70.6799 247.368 82.6599 247.428 94.6499 247.428C126.27 247.428 157.89 247.438 189.51 247.418C193.82 247.418 198.04 248.528 199.18 252.788C200.06 256.068 199.97 260.728 198.19 263.278C196.51 265.678 192.05 267.188 188.78 267.248C167.32 267.588 145.85 267.418 124.38 267.418L124.37 267.408Z" fill="#6B6C7E"/>
<path d="M124.4 305.528C102.92 305.528 81.4398 305.528 59.9698 305.528C52.4798 305.528 48.3598 302.118 48.3198 295.868C48.2698 289.478 52.6398 285.808 60.3898 285.808C74.2098 285.808 88.0298 285.878 101.85 285.878C130.65 285.878 159.46 285.828 188.26 285.808C194.11 285.808 198.92 288.268 200.03 292.338C201.19 296.578 200.71 300.908 196.71 303.428C194.52 304.808 191.5 305.428 188.84 305.448C167.36 305.608 145.88 305.538 124.41 305.528H124.4Z" fill="#6B6C7E"/>
<path d="M123.86 228.688C102.86 228.688 81.8701 228.688 60.8701 228.688C53.1301 228.688 48.6201 225.478 48.3401 219.748C48.0401 213.508 51.7501 209.148 58.1001 209.038C70.0001 208.818 81.9101 208.908 93.8201 208.898C117.13 208.878 140.43 208.868 163.74 208.878C172.69 208.878 181.64 208.828 190.59 209.008C196.45 209.128 200.36 213.208 200.37 218.748C200.38 224.508 196.97 228.408 190.83 228.458C168.51 228.638 146.18 228.528 123.86 228.528V228.678V228.688Z" fill="#6B6C7E"/>
<path d="M84.3899 93.4277C92.7199 93.4277 101.05 93.3877 109.38 93.4377C116.36 93.4877 120.36 97.2077 120.36 103.468C120.36 109.748 116.4 113.378 109.32 113.398C92.6599 113.438 75.9999 113.438 59.3299 113.398C52.2699 113.378 48.3499 109.738 48.3599 103.418C48.3599 97.1977 52.4199 93.4877 59.3899 93.4377C67.7199 93.3877 76.0499 93.4277 84.3799 93.4277H84.3899Z" fill="#6B6C7E"/>
<path d="M84.2998 132.198C92.6198 132.198 100.93 132.148 109.25 132.218C116.48 132.278 120.34 135.698 120.37 141.888C120.4 148.238 116.32 151.858 108.88 151.878C96.4098 151.908 83.9298 151.878 71.4598 151.808C66.4898 151.778 61.4798 151.928 56.5498 151.408C50.8598 150.818 48.0098 146.848 48.3598 141.028C48.6498 136.198 52.3098 132.408 57.3598 132.308C66.3398 132.138 75.3198 132.258 84.2998 132.258V132.198V132.198Z" fill="#6B6C7E"/>
<path d="M124.11 16.3578C134.59 16.3478 142.8 24.3878 142.85 34.7078C142.89 45.0378 134.6 53.4378 124.35 53.4378C114.07 53.4378 105.86 45.0878 105.9 34.6878C105.94 24.5178 114.04 16.3678 124.11 16.3578V16.3578ZM124.64 21.4378C117.05 21.3778 110.44 27.7878 110.58 35.0778C110.72 42.0778 116.99 48.2678 124.07 48.3878C131.41 48.5078 137.91 42.3778 138.12 35.1478C138.32 28.0578 131.88 21.4978 124.64 21.4378Z" fill="white"/>
<path d="M124.64 21.4378C131.88 21.4978 138.32 28.0578 138.12 35.1478C137.91 42.3778 131.41 48.5078 124.07 48.3878C116.99 48.2678 110.72 42.0778 110.58 35.0778C110.44 27.7878 117.05 21.3778 124.64 21.4378V21.4378Z" fill="#6B6C7E"/>
<path d="M187.471 122.88C184.234 122.527 181.328 121.471 178.784 119.577C174.144 116.123 171.656 111.517 171.564 105.793C171.47 99.8335 171.54 93.8718 171.543 87.9114C171.543 86.7677 172.201 86.0189 173.196 86.0004C174.215 85.9806 174.9 86.7453 174.9 87.9247C174.903 93.7939 174.887 99.6631 174.906 105.531C174.927 112.152 179.462 117.741 186.028 119.282C194.152 121.189 202.348 115.691 203.479 107.56C203.592 106.746 203.624 105.915 203.627 105.094C203.639 99.4082 203.633 93.7226 203.635 88.0369C203.635 86.8945 204.076 86.2473 204.965 86.0519C205.939 85.8379 206.866 86.4824 206.975 87.4584C206.998 87.6632 206.994 87.8705 206.994 88.0765C206.994 93.8309 207.009 99.5852 206.991 105.34C206.966 113.908 201.282 120.787 192.744 122.601C192.155 122.727 191.556 122.799 190.866 122.913C190.866 123.177 190.866 123.444 190.866 123.709C190.863 129.074 190.904 134.439 190.849 139.804C190.788 145.699 186.053 150.986 180.16 151.846C172.089 153.024 165.263 147.317 165.153 139.295C165.141 138.401 165.131 137.507 165.158 136.613C165.172 136.181 165.033 135.993 164.594 135.84C161.418 134.744 159.51 131.546 160.11 128.394C160.741 125.067 163.587 122.762 166.993 122.818C170.271 122.871 172.986 125.206 173.586 128.489C174.134 131.494 172.312 134.646 169.316 135.744C168.679 135.977 168.449 136.257 168.505 136.909C168.649 138.546 168.509 140.243 168.898 141.818C170.016 146.358 174.534 149.255 179.243 148.655C183.913 148.061 187.471 144.151 187.498 139.51C187.529 134.146 187.506 128.781 187.506 123.416C187.506 123.259 187.487 123.102 187.472 122.88H187.471ZM170.31 129.535C170.32 127.635 168.8 126.12 166.875 126.112C164.943 126.104 163.404 127.6 163.396 129.493C163.388 131.389 164.91 132.908 166.833 132.921C168.756 132.935 170.301 131.43 170.31 129.535Z" fill="#6B6C7E"/>
</svg>
