<svg width="337" height="217" viewBox="0 0 337 217" fill="none" xmlns="http://www.w3.org/2000/svg">
<g clip-path="url(#clip0_6_1125)">
<path d="M317.786 58.2016C304.197 42.2988 284.802 30.173 263.676 22.5871C236.007 12.6485 205.49 9.90114 175.439 10.4559C145.029 11.0214 114.417 14.9211 85.8285 24.3795C39.4529 39.7328 -14.3581 74.8192 4.88226 123.989C11.7302 141.476 26.5958 155.896 44.2283 165.941C61.8608 175.987 82.1695 181.951 102.74 186.043C150.611 195.565 201.121 195.309 249.185 185.296C276.849 179.534 305.303 169.548 322.182 149.34C340.077 127.921 341.188 97.8492 328.614 74.0457C325.639 68.4176 321.99 63.1255 317.781 58.2016H317.786Z" fill="#D8EEFE"/>
<path d="M69.6598 213.325C69.6758 205.168 69.7773 186.096 69.7132 184.437C69.2912 172.951 70.5251 163.653 70.5251 163.653L90.2355 163.04L100.673 212.551C100.673 212.551 100.652 212.823 100.609 213.319H69.6598V213.325Z" fill="#313858"/>
<path d="M91.2984 213.324C86.7848 194.285 82.7466 163.877 82.7466 163.877L129.063 163.503C129.063 163.503 130.789 192.834 131.868 213.33H91.2984V213.324Z" fill="#313858"/>
<path d="M107.713 37.4712C107.713 37.4712 109.887 54.7556 110.346 55.8279C111.361 58.2072 117.606 65.441 117.606 65.441C117.606 65.441 98.4934 75.9077 92.7726 75.9077C87.0518 75.9077 89.0549 62.523 89.0549 62.523C89.0549 62.523 93.0878 59.8823 93.889 58.0151C95.0802 55.2411 96.923 42.6565 96.923 42.6565L107.708 37.4658L107.713 37.4712Z" fill="#FEC4AD"/>
<path d="M94.6902 58.0792C97.0245 57.5564 99.3267 56.8682 101.576 55.9666C101.981 55.8066 102.382 55.6359 102.783 55.4545C103.701 54.9424 104.604 54.4089 105.486 53.8114C105.811 53.5927 107.505 52.2483 107.617 52.243C108.188 51.6722 108.739 51.08 109.278 50.4719C109.326 50.4185 109.374 50.3759 109.422 50.3278C108.648 44.9078 107.713 37.4712 107.713 37.4712L96.9284 42.6619C96.9284 42.6619 95.0855 55.2464 93.8943 58.0205C93.8623 58.0952 93.8142 58.1752 93.7715 58.2552C94.1668 58.1805 94.5407 58.1112 94.6902 58.0792Z" fill="#F7A281"/>
<path d="M96.8858 166.683C89.0336 166.358 79.9049 165.904 72.3252 163.968C72.4481 140.201 73.3508 97.6999 74.0505 92.6266C75.1402 84.7312 76.0216 73.9497 76.0216 73.9497L88.5422 62.4268L93.7182 66.6732L115.8 60.1382L126.526 68.7697C118.466 100.362 127.359 132.146 126.526 164.65C121.323 165.2 118.001 167.547 96.8858 166.678V166.683Z" fill="#6EAFCF"/>
<path d="M86.849 62.0962C86.849 62.0962 81.1762 81.9306 85.1984 102.581C86.3469 108.471 86.0317 128.215 86.0317 128.215C86.0317 128.215 86.7315 172.093 85.4174 176.323C84.1034 180.553 84.723 185.168 76.3688 185.104C68.4472 185.04 68.2656 180.858 68.2656 180.858C68.2656 180.858 70.4931 131.437 70.8616 120.453C71.2302 109.474 69.6758 74.9315 72.0795 71.3679C73.9651 68.5672 86.8436 62.1015 86.8436 62.1015L86.849 62.0962Z" fill="white"/>
<path d="M88.2432 61.6426C88.2432 61.6426 86.0265 67.4574 86.0265 70.3222C86.0265 73.1869 85.2519 87.8947 85.3054 98.3347C85.3321 103.365 85.7274 118.505 85.7274 118.505C85.7274 118.505 77.512 86.1876 78.1103 84.5285C78.7406 82.784 82.6079 77.9721 82.6079 77.9721C82.6079 77.9721 81.0268 72.408 80.5033 70.845C79.9745 69.2819 81.8547 67.5321 83.2542 65.5049C84.3813 63.8672 88.2486 61.6479 88.2486 61.6479L88.2432 61.6426Z" fill="#C0E7FA"/>
<path d="M115.715 59.6367C115.715 59.6367 106.052 79.8873 104.786 85.9422C101.132 103.419 99.5832 117.476 99.5832 117.476C99.5832 117.476 95.4649 171.596 97.4092 178.702C99.5405 186.507 102.249 187.723 112.173 187.904C122.728 188.097 132.872 183.306 132.872 183.306C132.872 183.306 129.133 141.306 129.133 129.201C129.133 117.097 134.816 84.0217 128.39 70.5995C126.847 67.372 115.72 59.6421 115.72 59.6421L115.715 59.6367Z" fill="white"/>
<path d="M116.703 59.6953C116.703 59.6953 106.095 73.7789 104.284 78.3135C102.468 82.8426 99.8343 94.8351 99.2788 118.025C99.2788 118.025 102.842 105.136 105.352 99.791C108.947 92.1304 111.506 88.2093 111.26 86.993C110.907 85.2486 108.562 83.5255 107.959 81.5463C107.959 81.5463 111.906 77.8493 116.703 75.8115C116.703 75.8115 118.824 67.6014 119.139 64.8433C119.454 62.0853 116.703 59.7006 116.703 59.7006V59.6953Z" fill="#C0E7FA"/>
<path d="M122.606 142.805H107.425V145.285H122.606V142.805Z" fill="#C0E7FA"/>
<path d="M83.0992 142.805H71.5774V145.285H83.0992V142.805Z" fill="#C0E7FA"/>
<path d="M113.033 57.3799L93.7234 66.6783C93.7234 66.6783 100.064 74.6323 103.114 74.4243C108.14 74.0882 116.708 59.6951 116.708 59.6951L113.039 57.3799H113.033Z" fill="#5F97B3"/>
<path d="M93.7234 66.6786C93.7234 66.6786 89.4929 73.4697 87.4364 72.7175C84.8884 71.7892 87.0251 61.8187 87.0251 61.8187L91.7043 60.1436L93.7287 66.6786H93.7234Z" fill="#5F97B3"/>
<path d="M88.1522 20.4588C85.1449 23.0194 84.4398 27.1698 85.0113 29.9492C85.5829 32.7339 87.6447 38.9329 87.6447 38.9329C87.6447 38.9329 89.8508 29.4211 91.3197 26.0602C92.7833 22.6993 95.2084 18.2769 95.2084 18.2769L88.1575 20.4534L88.1522 20.4588Z" fill="#313131"/>
<path d="M92.3025 20.0796C90.3955 21.1359 87.1105 23.3871 86.9342 25.0996C86.7579 26.812 85.962 31.816 86.1597 34.7607C86.3573 37.7055 85.727 40.885 86.181 44.3258C86.6351 47.7667 89.2204 54.2217 91.56 55.9502C95.3365 58.7402 100.705 55.1446 104.123 52.8507C108.103 50.1834 109.577 47.8361 109.353 40.4742C109.353 40.4742 111.949 26.956 111.217 24.9235C109.438 19.9782 99.1183 22.0748 96.1698 21.6427C93.2212 21.2052 92.3078 20.0796 92.3078 20.0796H92.3025Z" fill="#FEC4AD"/>
<path d="M110.111 24.6036C111.1 26.2094 107.863 28.1939 107.606 29.6556C107.093 32.5897 107.852 36.0093 107.852 36.0093L108.958 38.8153C108.958 38.8153 108.418 44.9822 108.926 47.0041C109.337 48.6685 120.362 37.0015 117.456 24.6997C116.201 19.3756 111.313 20.9494 111.313 20.9494C110.501 15.5026 108.023 13.2834 97.265 13.5341C86.507 13.7849 84.6428 22.3897 84.6428 22.3897C86.4483 23.5527 85.412 26.9136 91.0474 27.2603C101.383 27.9005 102.954 23.5527 107.04 22.8485C107.911 22.6992 109.118 22.9872 110.106 24.593L110.111 24.6036Z" fill="#313131"/>
<path d="M107.927 39.8131C107.927 39.8131 108.781 37.4232 110.341 35.8921C111.655 34.6011 113.632 34.5745 114.139 36.6177C114.753 39.109 112.499 40.6987 112.376 42.1604C112.232 43.8035 109.225 45.2812 108.124 44.7371L107.921 39.8078L107.927 39.8131Z" fill="#FEC4AD"/>
<path opacity="0.52" d="M111.527 37.2738C112.478 36.6923 113.188 37.4819 113.338 38.3514C113.487 39.2157 113.231 38.7035 112.633 38.138C112.034 37.5726 111.174 38.7409 111.137 39.5624C111.084 40.6934 110.485 42.027 109.497 41.9684C108.504 41.9097 109.059 41.6429 109.358 40.48C109.657 39.317 109.305 40.464 109.764 39.349C110.224 38.2341 110.715 37.7753 111.532 37.2738H111.527Z" fill="#965545"/>
<path d="M115.41 119.161C116.564 106.267 116.666 93.3519 117.622 85.2538C119.748 67.1958 123.359 65.4087 123.359 65.4087C123.359 65.4087 131.002 68.0814 133.775 86.3528C134.592 91.7301 135.65 103.824 134.213 120.756C133.086 134.098 130.965 135.752 127.712 137.161C123.268 139.076 114.833 140.713 110.971 137.23C113.413 128.79 114.887 130.988 115.41 119.161Z" fill="white"/>
<path d="M123.359 65.4141C123.359 65.4141 131.125 68.855 133.898 87.1317C134.715 92.5091 135.65 103.829 134.218 120.762C133.091 134.104 130.97 135.758 127.717 137.166C123.273 139.081 114.839 140.719 110.977 137.235" stroke="#C0E7FA" stroke-width="1.84" stroke-linecap="round" stroke-linejoin="round"/>
<path d="M74.8944 117.001C75.5247 105.078 77.0631 93.1974 77.2607 85.7021C77.6987 69.0418 76.2351 67.9429 76.2351 67.9429C76.2351 67.9429 69.9107 71.0797 66.4814 82.6773C65.1086 87.3239 60.9155 101.893 59.3771 116.361C58.1325 128.06 59.9754 131.223 62.4218 132.845C66.0327 135.24 77.5011 133.501 80.4176 133.128C79.3012 124.96 73.8581 127.878 74.8891 117.001H74.8944Z" fill="white"/>
<path d="M76.2351 67.9429C76.2351 67.9429 69.9107 71.0797 66.4814 82.6773C65.1086 87.3239 60.9155 101.893 59.3771 116.361C58.1325 128.06 59.9754 131.223 62.4218 132.845C66.0327 135.24 86.7313 132.429 89.6478 132.055" stroke="#C0E7FA" stroke-width="1.84" stroke-linecap="round" stroke-linejoin="round"/>
<path d="M75.2736 122.575C75.044 109.511 75.7223 107.9 76.812 95.3843" stroke="#C0E7FA" stroke-width="1.84" stroke-linecap="round" stroke-linejoin="round"/>
<path d="M120.816 118.244C120.485 106.731 120.576 95.6352 121.067 84.9604" stroke="#C0E7FA" stroke-width="1.84" stroke-linecap="round" stroke-linejoin="round"/>
<path d="M105.763 132.001C110.448 132.871 110.656 122.276 110.656 122.276C110.656 122.276 103.066 116.91 102.446 121.209C101.816 125.562 105.763 132.001 105.763 132.001Z" fill="#808194"/>
<path d="M102.329 116.163C104.668 116.318 109.395 112.973 113.033 115.88C116.745 118.852 119.096 122.01 119.096 122.01C119.096 122.01 111.377 121.343 107.115 123.375C102.873 125.397 98.6108 129.003 98.6108 129.003L102.323 116.163H102.329Z" fill="#EDBDA6"/>
<path d="M103.648 115.101C102.446 117.15 104.113 125.28 104.513 127.515C104.513 127.515 91.293 132.156 80.2519 132.669C66.7057 133.298 63.3939 131.932 60.9956 129.34C58.6346 126.79 63.8052 110.988 70.2311 114.611C74.248 116.872 80.8288 118.179 87.2975 116.963C93.8623 115.726 103.648 115.101 103.648 115.101Z" fill="white"/>
<path d="M87.2974 116.958C93.8622 115.72 103.648 115.096 103.648 115.096C102.446 117.145 106.88 130.343 107.275 132.573" stroke="#C0E7FA" stroke-width="1.84" stroke-linecap="round" stroke-linejoin="round"/>
<path d="M89.1457 114.243C86.961 113.816 82.1322 109.762 78.3183 111.618C74.5204 113.469 71.9031 115.758 71.9031 115.758C71.9031 115.758 80.2733 117.774 83.6011 120.746C87.0037 123.781 90.1446 128.412 90.1446 128.412L89.1457 114.243Z" fill="#EDBDA6"/>
<path d="M88.9642 114.189C86.0156 115.203 83.9164 118.18 83.4089 128.956C83.4089 128.956 94.7438 135.31 102.852 138.126C116.19 141.994 123.946 138.953 127.498 137.097C131.061 135.235 132.226 117.513 124.753 118.185C122.157 118.42 111.1 122.085 103.931 119.3C97.484 116.793 88.9642 114.195 88.9642 114.195V114.189Z" fill="white"/>
<path d="M124.753 117.299C123.011 115.918 121.302 115.619 119.406 114.957C117.515 114.296 108.696 114.067 107.772 115.155C107.772 115.155 114.171 119.38 115.341 121.172C116.046 122.367 116.719 123.925 117.493 124.384C118.273 124.837 118.936 124.581 119.171 123.946C119.251 123.738 119.197 123.37 119.096 122.976C119.507 123.2 119.983 123.509 120.463 123.946C121.692 125.072 122.755 125.248 122.782 124.56C122.808 123.872 121.59 122.058 121.59 122.058C121.59 122.058 122.632 122.986 123.342 123.877C124.053 124.768 125.356 125.109 125.329 124C125.303 122.89 124.101 121.05 123.075 119.855C122.466 119.14 121.857 118.708 121.462 118.473C121.938 118.724 122.696 119.113 123.204 119.332C124.128 119.727 126.392 121.311 126.905 120.281C127.413 119.257 126.499 118.686 124.753 117.305V117.299Z" fill="#EDBDA6"/>
<path d="M81.0211 119.311C75.781 116.254 69.8732 114.526 64.1204 114.189" stroke="#C0E7FA" stroke-width="1.84" stroke-linecap="round" stroke-linejoin="round"/>
<path d="M125.623 138.468C117.723 142.026 106.88 139.796 100.39 137.251C96.0578 135.555 92.1851 133.266 88.195 131.33C85.7272 130.129 84.9473 129.804 83.4089 128.678C83.4089 128.678 83.4784 119.561 86.6032 115.811" stroke="#C0E7FA" stroke-width="1.84" stroke-linecap="round" stroke-linejoin="round"/>
<path d="M87.8372 113.427C91.8861 114.654 104.06 121.962 112.339 120.943" stroke="#C0E7FA" stroke-width="1.84" stroke-linecap="round" stroke-linejoin="round"/>
<path d="M260.049 40.3354C259.649 47.0465 256.433 57.5399 254.97 58.8362C254.97 58.8362 253.009 60.2446 245.889 59.4711C238.48 58.6708 237.065 55.7101 237.065 55.7101C237.065 55.7101 228.956 43.7337 231.493 33.315C234.031 22.8963 235.564 19.1993 241.098 17.5136C246.631 15.8224 253.137 19.6474 253.137 19.6474C253.137 19.6474 260.418 34.2966 260.055 40.3354H260.049Z" fill="#20000C"/>
<path d="M229.223 70.7487L228.961 60.6501L235.628 57.0705C235.628 57.0705 237.203 56.4037 237.727 55.8542C240.291 53.1548 240.312 42.112 240.312 42.112L249.767 41.8506C249.767 41.8506 249.799 52.2106 252.892 55.7902C253.629 56.6437 257.266 59.023 257.347 58.6816L260.947 63.4988L260.028 71.0848C249.772 70.4606 239.506 70.4713 229.229 70.7594L229.223 70.7487Z" fill="#EDBDA6"/>
<path d="M244.612 54.2324C243.934 54.3657 243.25 54.4884 242.566 54.5951C242.55 54.5951 242.54 54.5951 242.524 54.5951C241.29 54.7072 240.067 54.8245 238.827 54.8885C238.672 54.8992 238.517 54.8992 238.363 54.9099C240.291 51.2183 240.307 42.1012 240.307 42.1012L249.761 41.8398C249.761 41.8398 249.783 48.0815 251.241 52.5519C249.062 53.2455 246.856 53.8056 244.612 54.2324Z" fill="#F7A281"/>
<path d="M233.438 62.1545L235.36 56.9531L247.128 62.2505L254.35 56.9531L256.583 66.3315L261.662 131.714L235.601 132.877L233.438 62.1545Z" fill="#6EAFCF"/>
<path d="M221.344 97.3473C222.183 89.9107 225.981 79.22 225.981 79.22L224.982 61.8555C224.982 61.8555 221.184 64.3841 218.722 67.9637C216.11 71.762 208.567 96.0456 207.526 104.026C206.484 112.007 208.402 111.607 211.142 111.154C211.868 111.031 214.432 113.527 217.808 113.234C218.925 107.926 219.87 102.575 221.344 97.3526V97.3473Z" fill="white"/>
<path d="M228.785 120.655C241.503 122.837 254.403 123.829 267.41 123.642C268.126 126.758 269.013 130.135 270.097 133.864C276.133 154.616 267.923 199.182 267.923 199.182C261.695 201.417 255.023 203.007 244.788 202.367C243.763 202.303 242.7 202.217 241.594 202.105C236.13 201.561 232.332 201.417 225.479 198.958C225.479 198.958 219.582 165.061 223.919 140.367C225.265 132.711 227.311 126.63 228.785 120.66V120.655Z" fill="#313858"/>
<path d="M252.587 191.324C252.587 191.324 251.166 165.434 250.696 156.803C248.714 120.217 250.637 105.99 250.611 99.2252C250.595 94.504 252.523 85.8511 252.523 85.8511L255.455 56.4995L265.359 60.2978C266.112 62.5757 270.577 83.6532 269.963 87.8463C269.531 90.7964 270.123 115.069 273.419 133.858C275.561 146.08 273.499 176.792 271.817 190.438C265.615 190.812 260.941 192.476 252.587 191.324Z" fill="white"/>
<path d="M222.327 188.443C221.526 178.131 218.7 151.916 220.73 140.361C223.785 122.965 226.755 87.302 225.714 83.7385C224.362 79.1293 223.294 75.683 223.294 75.683C223.294 75.683 224.234 64.1281 224.982 61.8501L234.559 57.0116L237.486 56.3447L251.268 98.1155L251.321 100.714C251.321 100.714 252.261 178.099 248.768 191.324C248.378 193.281 228.961 193.004 222.322 188.443H222.327Z" fill="white"/>
<path d="M239.158 136.333C239.158 136.333 230.297 146.608 224.64 144.479L224.293 142.351C224.293 142.351 228.203 142.036 231.728 139.182C235.254 136.323 236.301 134.098 236.301 134.098L239.164 136.333H239.158Z" fill="#C0E7FA"/>
<path d="M235.051 56.6758L232.065 58.3669L233.769 70.546L237.722 69.5004L237.743 76.729C245.349 80.73 250.75 96.5474 250.75 96.5474C250.75 96.5474 246.931 80.3459 244.543 74.7498C238.234 59.9566 235.046 56.6811 235.046 56.6811L235.051 56.6758Z" fill="#C0E7FA"/>
<path d="M244.222 107.27L244.473 109.292L201.249 86.406L204.406 82.5543L226.648 70.6152L244.222 107.27Z" fill="#5F97B3"/>
<path d="M244.473 109.292L219.464 122.661L201.249 86.4061L226.9 72.6372L244.473 109.292Z" fill="#6EAFCF"/>
<path d="M224.218 98.329C226.034 100.602 228.598 99.7213 228.598 99.7213C228.598 99.7213 228.198 93.6771 225.986 95.3469C223.775 97.0166 224.223 98.329 224.223 98.329H224.218Z" fill="#5F97B3"/>
<path d="M223.123 90.5724C224.133 88.8706 223.123 86.4753 225.687 83.1838C228.251 79.8923 229.212 76.3287 230.174 77.433C231.135 78.5373 229.212 83.1838 229.212 83.1838C229.212 83.1838 231.296 78.708 232.578 79.3855C233.86 80.063 233.539 82.437 233.539 82.437C233.539 82.437 234.821 81.2207 235.622 83.1838C236.424 85.147 235.622 86.3366 235.622 86.3366C235.622 86.3366 237.385 85.8299 237.545 87.3556C237.706 88.8813 236.744 89.2174 236.744 89.2174C236.744 89.2174 238.186 91.2499 236.424 91.9274C234.661 92.6049 230.655 93.7892 229.533 94.4721C228.411 95.1496 224.624 99.4654 224.624 99.4654L221.366 93.6239C221.366 93.6239 222.231 92.0821 223.123 90.5724Z" fill="#EDBDA6"/>
<path d="M222.327 91.7939C223.839 97.3474 225.981 99.7907 228.598 99.7213C228.598 99.7213 228.598 101.54 222.327 108.529C217.541 113.864 213.188 116.51 210.795 116.51C208.402 116.51 206.858 109.665 207.713 105.221C208.567 100.772 211.916 101.146 215.186 98.0942C218.134 95.3362 222.333 91.7993 222.333 91.7993L222.327 91.7939Z" fill="white"/>
<path d="M209.855 101.605C211.308 100.5 213.257 99.8921 215.18 98.0943C218.129 95.3362 222.327 91.7993 222.327 91.7993C223.839 97.3527 225.981 99.796 228.598 99.7267C228.598 99.7267 228.598 101.546 222.327 108.534C217.541 113.869 213.188 116.515 210.795 116.515C209.337 116.515 208.199 113.992 207.718 111.015" stroke="#C0E7FA" stroke-width="1.84" stroke-linecap="round" stroke-linejoin="round"/>
<path d="M248.586 68.3001C248.586 68.7856 248.191 69.1857 247.7 69.1857C247.208 69.1857 246.813 68.7909 246.813 68.3001C246.813 67.8093 247.208 67.4146 247.7 67.4146C248.191 67.4146 248.586 67.8093 248.586 68.3001Z" fill="white"/>
<path d="M249.81 77.9666C249.81 78.4521 249.414 78.8522 248.923 78.8522C248.431 78.8522 248.036 78.4574 248.036 77.9666C248.036 77.4758 248.431 77.0811 248.923 77.0811C249.414 77.0811 249.81 77.4758 249.81 77.9666Z" fill="white"/>
<path d="M234.522 38.6125C234.73 40.645 235.029 41.9307 235.371 42.9283C235.708 43.9259 236.082 44.6301 236.434 45.4943C237.134 47.2227 241.023 51.1544 243.763 52.4774C244.308 52.7388 245.643 52.8562 246.679 52.5734C250.183 51.6132 253.955 46.7426 255.13 44.1873C256.006 42.2935 256.545 38.8206 256.706 35.5664C256.866 32.3069 257.117 27.9858 256.978 25.4678C256.593 18.7087 251.663 17.215 246.503 17.9245C240.574 18.7407 234.33 22.475 234.314 24.4755C234.276 28.9994 234.031 33.7739 234.522 38.6178V38.6125Z" fill="#EDBDA6"/>
<path d="M229.511 58.7456C229.511 58.7456 233.24 57.8013 235.211 56.6864C235.943 56.2649 236.701 55.8968 237.486 55.5714C235.585 52.1412 233.544 45.8516 234.762 38.7031C236.573 28.0923 241.797 30.3116 248.041 28.7325C250.878 28.0176 253.26 22.2135 253.468 21.8827C255.285 19.002 252.475 15.8758 252.55 15.8652C250.563 14.4835 249.126 14.2808 247.165 13.9713C239.404 12.739 233.555 18.2711 231.632 23.6805C229.191 30.5623 230.74 39.4926 231.002 45.7342C231.36 54.2164 229.453 58.7989 229.517 58.7509L229.511 58.7456Z" fill="#3D2716"/>
<path d="M251.989 22.3842C252.069 22.763 252.245 23.2378 252.229 23.8086C252.096 28.1617 256.166 31.7253 256.267 32.056C257.704 36.5532 254.708 49.3565 252.998 55.5554C255.562 56.6064 258.036 57.9507 260.904 58.5855C259.98 53.2615 259.916 49.2338 260.391 45.1794C262.197 29.6981 262.496 27.3028 260.065 22.0535C258.458 18.5646 254.75 15.7425 252.844 15.8332C252.742 15.8332 252.646 15.8492 252.555 15.8652C252.48 15.8759 252.406 15.8919 252.336 15.9079C250.632 16.484 251.567 20.3944 252 22.3842H251.989Z" fill="#3D2716"/>
<path d="M252.961 55.2031L257.614 57.2143L260.199 68.2358L257.021 67.697L259.157 75.7364C254.889 80.623 250.75 96.5471 250.75 96.5471C250.75 96.5471 252.117 83.0716 253.015 74.3281C254.665 58.2012 252.956 55.2031 252.956 55.2031H252.961Z" fill="#C0E7FA"/>
<path d="M250.75 96.7769C251.113 112.344 250.782 160.457 251.134 173.149" stroke="#C0E7FA" stroke-width="1.84" stroke-linecap="round" stroke-linejoin="round"/>
<path d="M247.128 62.2504C247.128 62.2504 251.888 58.3614 252.464 54.2163L254.772 56.2222C254.772 56.2222 256.647 66.6302 253.976 67.6971C250.242 69.1802 247.128 62.2504 247.128 62.2504Z" fill="#5F97B3"/>
<path d="M247.128 62.2504C247.128 62.2504 240.408 59.7537 237.674 54.2163L235.361 56.2222C235.361 56.2222 237.86 68.3533 241.274 68.5293C246.097 68.7801 247.128 62.2504 247.128 62.2504Z" fill="#5F97B3"/>
<path d="M264.461 140.239C265.364 140.703 266.288 141.06 267.223 141.359C267.736 140.585 268.206 139.689 268.222 138.964C268.265 137.347 272.036 129.633 272.036 129.633L266 127.121C265.193 128.209 262.565 133.314 261.39 134.37C260.578 135.107 260.204 136.51 260.055 137.299C261.518 138.307 262.934 139.449 264.461 140.233V140.239Z" fill="#EDBDA6"/>
<path d="M283.333 97.6782C280.695 88.4598 274.696 68.4493 273.227 65.8993C270.781 61.6316 265.354 60.3032 265.354 60.3032L264.173 80.5805C264.173 80.5805 269.098 97.4328 272.591 104.16C272.591 104.16 271.213 111.356 269.119 116.387C266.764 122.058 262.667 132.663 262.667 132.663C264.029 133.037 268.799 137.006 269.493 138.019C269.493 138.019 276.432 127.59 279.941 122.084C285.326 113.64 285.726 106.048 283.328 97.6782H283.333Z" fill="white"/>
<path d="M264.178 80.5752C264.178 80.5752 269.103 97.4276 272.597 104.155C272.597 104.155 271.219 111.351 269.125 116.382C266.769 122.053 262.672 132.658 262.672 132.658C264.034 133.031 268.804 137 269.499 138.014C269.499 138.014 276.437 127.585 279.947 122.079" stroke="#C0E7FA" stroke-width="1.84" stroke-linecap="round" stroke-linejoin="round"/>
<path d="M274.157 98.0249L272.479 104.72" stroke="#C0E7FA" stroke-width="1.84" stroke-linecap="round" stroke-linejoin="round"/>
<path d="M257.72 136.333C257.72 136.333 266.582 146.608 272.239 144.479L272.586 142.351C272.586 142.351 268.676 142.036 265.151 139.182C261.625 136.323 260.578 134.098 260.578 134.098L257.715 136.333H257.72Z" fill="#C0E7FA"/>
<path d="M159.489 53.427C159.98 44.6461 177.073 44.6461 184.194 47.2707C191.314 49.8954 190.411 56.9319 190.411 56.9319" stroke="#313858" stroke-width="2.37" stroke-miterlimit="10"/>
<path d="M197.66 55.7958C196.217 62.2134 194.765 68.1509 193.344 73.667H160.541C159.259 67.7082 157.817 61.2798 156.182 54.3127C159.537 52.6376 164.002 52.0775 165.487 49.1114C166.038 48.0177 166.182 44.0434 166.209 41.9735C166.267 38.1805 165.947 35.6572 165.947 35.6572H184.012C184.012 35.6572 183.59 41.104 183.83 45.3184C183.964 47.5963 184.284 49.5328 184.979 50.189C187.142 52.2322 193.408 53.7632 197.649 55.7958H197.66Z" fill="#EDBDA6"/>
<path d="M205.405 217C205.64 193.383 201.644 171.265 201.74 167.99C202.189 153.191 201.399 138.131 201.399 138.131L175.465 128.806L172.586 186.901C172.586 186.901 173.628 200.483 174.867 216.994H205.399L205.405 217Z" fill="#313858"/>
<path d="M142.599 217H175.327C176.005 211.494 176.454 207.915 176.454 207.915L172.533 128.806L147.775 140.692C147.775 140.692 142.358 193.383 142.593 217H142.599Z" fill="#313858"/>
<path d="M144.265 158.793C165.295 158.441 180.994 161.695 201.741 159.049C201.041 139.705 201.046 111.527 202.718 98.7079C205.095 80.4792 206.543 65.8301 206.543 65.8301L186.939 54.5259L182.335 56.9638L174.573 58.0361L165.3 57.6467L159.889 55.9129L145.649 65.8301C145.649 65.8301 142.39 80.4792 144.773 98.7079C146.423 111.378 145.179 139.977 144.265 158.793Z" fill="#6EAFCF"/>
<path d="M165.493 49.1114C165.386 49.3194 165.263 49.5168 165.129 49.7035C170.952 50.1516 179.739 48.9993 183.884 45.9426C183.868 45.7345 183.852 45.5318 183.841 45.3184C183.601 41.104 184.023 35.6572 184.023 35.6572H165.957C165.957 35.6572 166.272 38.1859 166.219 41.9735C166.192 44.0434 166.043 48.0178 165.498 49.1114H165.493Z" fill="#F7A281"/>
<path d="M139.554 78.8094C141.359 97.2248 143.811 109.372 143.528 126.283C143.341 137.539 140.879 188.118 140.879 188.118C140.879 188.118 156.3 187.904 168.217 182.714C176.24 179.219 175.177 154.808 174.718 127.985C174.376 107.948 159.761 87.4569 158.527 73.9601C158.009 68.3213 160.002 52.3599 160.002 52.3599L146.738 58.9696L139.559 78.804L139.554 78.8094Z" fill="white"/>
<path d="M207.141 74.2162C206.612 91.1326 207.05 99.0599 206.714 102.234C205.539 113.208 204.497 119.364 204.55 128.838C204.668 148.849 208.989 187.195 208.989 187.195C208.989 187.195 186.774 189.046 178.879 182.26C170.022 174.653 173.243 128.609 174.718 120.196C177.826 102.458 184.963 97.6463 187.543 80.1911C189.808 64.8751 188.136 51.3623 188.136 51.3623L204.438 58.4148L207.141 74.2162Z" fill="white"/>
<path d="M160.333 52.9414L163.292 50.6475C163.292 50.6475 165.049 52.4453 166.273 53.3201C171.844 57.2892 174.926 57.6466 174.926 57.6466C174.926 57.6466 169.232 62.1971 166.577 61.8343C161.7 61.1675 160.333 52.9467 160.333 52.9467V52.9414Z" fill="#5F97B3"/>
<path d="M188.136 52.3601L186.245 50.1782C186.245 50.1782 183.857 52.6055 182.655 53.4644C177.185 57.3641 174.162 57.7162 174.162 57.7162C174.162 57.7162 179.755 62.1867 182.356 61.8346C187.142 61.1784 188.136 52.3655 188.136 52.3655V52.3601Z" fill="#5F97B3"/>
<path d="M181.811 135.08C181.811 136.12 180.967 136.963 179.926 136.963C178.884 136.963 178.04 136.12 178.04 135.08C178.04 134.04 178.884 133.197 179.926 133.197C180.967 133.197 181.811 134.04 181.811 135.08Z" fill="#C0E7FA"/>
<path d="M180.203 156.547C181.245 156.547 182.089 155.704 182.089 154.664C182.089 153.624 181.245 152.781 180.203 152.781C179.162 152.781 178.318 153.624 178.318 154.664C178.318 155.704 179.162 156.547 180.203 156.547Z" fill="#C0E7FA"/>
<path d="M164.195 50.5996C164.195 50.5996 162.539 57.9508 165.129 70.4341C166.764 78.3081 167.389 83.5681 169.039 89.7617C173.398 106.118 173.606 118.558 173.606 118.558L155.269 69.7992L158.415 65.9262L152.123 62.8961C152.123 62.8961 157.16 53.9711 159.585 52.2427C162.01 50.5143 164.195 50.6049 164.195 50.6049V50.5996Z" fill="#C0E7FA"/>
<path d="M186.245 50.1782C186.245 50.1782 187.436 57.6842 185.011 70.7862C182.586 83.8883 179.658 96.0461 178.36 100.543C174.76 113.016 174.573 119.577 174.573 119.577C174.573 119.577 191.949 73.3629 195.363 67.5374L191.901 64.9074L195.849 61.8826C195.849 61.8826 192.099 53.6885 189.674 51.96C187.249 50.2316 186.245 50.1782 186.245 50.1782Z" fill="#C0E7FA"/>
<path d="M197.547 112.226C198.285 100.127 197.889 87.5373 198.632 79.3485C200.352 60.3036 204.443 58.4204 204.443 58.4204C204.443 58.4204 211.281 61.5892 214.582 80.4474C215.511 85.7448 218.438 97.065 217.071 112.578C216.04 124.261 213.957 125.824 210.736 127.26C206.318 129.228 197.772 131.303 193.627 128.62C195.822 121.034 197.457 122.874 197.553 112.226H197.547Z" fill="white"/>
<path d="M204.438 58.4204C204.438 58.4204 211.275 61.5892 214.576 80.4474C215.506 85.7448 218.433 97.065 217.066 112.578C216.035 124.261 213.951 125.824 210.73 127.26C206.313 129.228 197.766 131.303 193.621 128.62" stroke="#C0E7FA" stroke-width="1.84" stroke-linecap="round" stroke-linejoin="round"/>
<path d="M151.653 112.226C150.915 100.127 151.311 87.5371 150.568 79.3484C148.848 60.3034 146.728 58.9751 146.728 58.9751C146.728 58.9751 138.641 62.5974 135.906 76.0782C134.837 81.3489 131.718 97.433 132.129 112.578C132.45 124.304 135.249 127.206 138.518 128.55C143.266 130.498 156.962 128.572 160.327 127.98C158.132 120.394 151.743 122.874 151.647 112.232L151.653 112.226Z" fill="white"/>
<path d="M146.733 58.9751C146.733 58.9751 138.646 62.5974 135.911 76.0782C134.843 81.3489 131.723 97.433 132.135 112.578C132.455 124.304 135.254 127.206 138.523 128.55C143.272 130.498 156.968 128.572 160.333 127.98" stroke="#C0E7FA" stroke-width="1.84" stroke-linecap="round" stroke-linejoin="round"/>
<path d="M152.683 117.993C150.809 105.27 151.433 103.622 151.193 90.7437" stroke="#C0E7FA" stroke-width="1.84" stroke-linecap="round" stroke-linejoin="round"/>
<path d="M203.231 111.074C202.526 100.399 202.275 89.6927 202.467 79.002" stroke="#C0E7FA" stroke-width="1.84" stroke-linecap="round" stroke-linejoin="round"/>
<path d="M187.853 124.437C192.874 124.853 192.596 115.358 192.596 115.358C192.596 115.358 184.028 110.86 183.611 114.893C183.2 118.926 187.847 124.432 187.847 124.432L187.853 124.437Z" fill="#808194"/>
<path d="M183.168 110.199C185.764 110.21 190.774 106.812 194.866 109.335C198.958 111.858 201.548 114.584 201.548 114.584C201.548 114.584 193.338 114.456 188.846 116.579C184.354 118.703 179.931 122.277 179.931 122.277L183.173 110.199H183.168Z" fill="#EDBDA6"/>
<path d="M184.562 109.127C183.355 111.117 188.953 122.88 189.498 124.827C189.498 124.827 176.747 127.233 164.403 127.766C150.098 128.38 139.682 127.745 136.392 125.505C133.101 123.264 137.108 107.356 145.595 110.594C150.766 112.568 158.746 113.411 166.182 111.842C173.612 110.269 184.562 109.127 184.562 109.127Z" fill="white"/>
<path d="M166.182 111.842C173.612 110.269 184.562 109.127 184.562 109.127C183.355 111.117 188.953 122.88 189.498 124.827" stroke="#C0E7FA" stroke-width="1.84" stroke-linecap="round" stroke-linejoin="round"/>
<path d="M168.067 109.127C165.487 108.839 159.377 105.136 155.023 107.174C150.67 109.212 147.785 111.623 147.785 111.623C147.785 111.623 158.047 113.059 162.266 115.683C166.486 118.308 170.471 122.368 170.471 122.368L168.073 109.127H168.067Z" fill="#EDBDA6"/>
<path d="M167.848 109.089C164.515 110.236 162.368 113.218 162.865 123.381C162.865 123.381 172.864 127.121 185.064 129.063C199.203 131.314 206.981 129.073 210.506 127.222C214.032 125.371 215.015 109.788 207.333 110.802C204.63 111.159 193.055 115.155 185.128 113.037C177.789 111.079 167.848 109.089 167.848 109.089Z" fill="white"/>
<path d="M188.205 108.924C190.796 108.166 195.32 106.539 197.179 105.526C199.038 104.512 200.469 103.419 202.814 102.938C205.159 102.458 206.254 102.117 206.74 103.082C207.226 104.048 203.45 104.752 202.558 104.95C201.666 105.142 200.25 106.603 200.25 106.603C200.25 106.603 203.263 106.139 204.94 106.07C206.612 106.006 207.755 105.75 208.663 106.358C209.577 106.966 208.412 107.718 207.205 107.729C205.998 107.74 204.566 108.412 204.566 108.412C204.566 108.412 206.692 108.561 207.221 108.967C207.755 109.372 207.018 109.98 205.271 110.242C203.53 110.503 202.435 110.839 202.435 110.839C202.435 110.839 201.821 112.157 199.551 112.007C197.275 111.858 188.2 108.924 188.2 108.924H188.205Z" fill="#EDBDA6"/>
<path d="M203.412 110.14C200.004 110.7 197.131 111.159 194.722 111.533C194.732 111.618 194.743 111.709 194.759 111.794C194.775 112.21 194.759 112.616 194.732 113.021C196.714 112.957 198.99 112.866 200.304 112.541C202.109 112.093 202.771 111.954 203.402 111.698C204.502 111.25 205.234 109.842 203.412 110.14Z" fill="#EDBDA6"/>
<path d="M160.226 114.6C153.511 112.269 146.06 111.239 138.918 111.533" stroke="#C0E7FA" stroke-width="1.84" stroke-linecap="round" stroke-linejoin="round"/>
<path d="M141.541 129.207C153.517 129.735 165.071 127.756 175.898 126.939" stroke="#C0E7FA" stroke-width="1.84" stroke-linecap="round" stroke-linejoin="round"/>
<path d="M210.912 127.174C203.236 131.021 191.998 130.482 184.947 129.127C180.134 128.204 175.658 126.689 171.01 125.472C168.094 124.71 166.064 124.229 163.025 123.696C163.025 123.696 161.663 115.336 164.697 111.479" stroke="#C0E7FA" stroke-width="1.84" stroke-linecap="round" stroke-linejoin="round"/>
<path d="M168.067 109.126C172.891 109.873 187.308 115.341 196.116 113.565" stroke="#C0E7FA" stroke-width="1.84" stroke-linecap="round" stroke-linejoin="round"/>
<path d="M185.39 29.7569C185.39 29.7569 185.171 25.0037 189.156 25.1264C191.698 25.2064 191.896 27.5323 189.914 30.5411C189.081 31.8054 188.996 34.6702 187.959 35.5877C186.699 36.708 185.646 34.9796 185.262 34.1954C184.626 32.8937 185.39 29.7622 185.39 29.7622V29.7569Z" fill="#EDBDA6"/>
<path d="M187.724 27.5589C189.134 26.7747 190.699 26.9347 189.759 28.4978C188.819 30.0609 188.194 30.5303 188.269 32.2534C188.338 33.8325 186.939 33.8965 186.939 33.8965L187.724 27.5589Z" fill="#E7A699"/>
<path d="M163.911 29.7569C163.911 29.7569 164.13 25.0037 160.146 25.1264C157.603 25.2064 157.405 27.5323 159.387 30.5411C160.22 31.8054 160.306 34.6702 161.342 35.5877C162.603 36.708 163.655 34.9796 164.04 34.1954C164.675 32.8937 163.911 29.7622 163.911 29.7622V29.7569Z" fill="#EDBDA6"/>
<path d="M162.01 27.5589C160.6 26.7747 159.035 26.9347 159.975 28.4978C160.915 30.0609 161.54 30.5303 161.465 32.2534C161.396 33.8325 162.795 33.8965 162.795 33.8965L162.01 27.5589Z" fill="#E7A699"/>
<path d="M189.434 18.1219C189.337 19.6637 189.028 20.6666 188.627 22.9552C188.531 23.5047 188.429 24.1395 188.322 24.8703C187.5 30.5785 186.453 38.3352 186.004 39.4928C185.262 41.4133 181.181 44.5181 179.242 45.6597C177.303 46.8013 172.431 46.5666 170.492 45.425C168.553 44.2887 164.173 41.4133 163.425 39.4928C162.966 38.3138 161.887 30.3331 161.054 24.5343C160.958 23.8728 160.867 23.3019 160.781 22.7951C160.391 20.5332 160.092 19.6423 159.996 18.1219C159.697 13.3047 165.129 6.28955 174.717 6.28955C186.052 6.28955 189.733 13.2994 189.434 18.1219Z" fill="#EDBDA6"/>
<g style="mix-blend-mode:multiply">
<path d="M163.89 14.4941C163.89 14.4941 171.721 12.4616 183.157 13.0857L186.229 11.0319C186.229 11.0319 180.807 7.95906 173.719 8.01241C166.63 8.06575 163.89 14.4941 163.89 14.4941Z" fill="#E1D2E3"/>
</g>
<path d="M189.001 21.7227C188.846 22.1549 188.702 22.5443 188.579 22.8804L188.627 22.9551C188.531 23.5045 188.429 24.1394 188.322 24.8702C188.119 26.2572 187.906 27.767 187.692 29.2767L186.084 31.2505C186.832 28.9939 187.318 24.3421 187.559 22.8324L187.548 22.8164C186.469 20.4797 185.887 17.9458 185.833 15.3744L185.235 11.5281L182.666 11.6401C182.297 11.2614 176.721 11.4641 171.876 11.8375C165.733 12.3123 163.89 14.4942 163.89 14.4942C163.532 16.7988 163.073 20.3037 161.898 22.3256L161.834 22.4376L161.743 22.5923C162.031 24.0433 162.154 28.3751 163.019 30.7544L161.727 29.2767C161.497 27.6496 161.267 26.0172 161.054 24.5288C161.022 24.3154 160.995 24.1287 160.963 23.9366L160.952 23.9526C160.952 23.9526 160.696 23.0724 160.333 21.8241C160.065 20.9012 159.414 16.1906 159.254 15.5238C159.206 15.3158 159.157 15.113 159.12 14.921C158.554 11.9656 159.761 0.992055 176.688 2.32573C176.891 2.34174 177.089 2.36841 177.287 2.39508C182.869 3.13127 185.427 5.75595 185.427 5.75595L187.334 9.11682C190.507 9.59161 190.849 11.4267 190.117 15.0383C190.085 15.1984 189.305 20.8318 188.99 21.7227H189.001Z" fill="#422129"/>
<path d="M158.639 54.4141L158.736 55.417L158.688 54.9155L158.736 55.417C158.688 55.417 152.577 55.7104 149.927 59.498C147.048 63.6164 142.492 75.3688 143.672 77.7908C144.981 80.4688 150.665 82.9121 150.723 82.9388L150.328 83.8617C150.082 83.755 144.239 81.2423 142.77 78.2282C141.226 75.0594 146.503 62.6349 149.105 58.9166C152.027 54.7395 158.437 54.4301 158.645 54.4141H158.639Z" fill="#313858"/>
<path d="M146.06 67.2174C147.289 64.1392 148.747 61.1838 149.927 59.498C152.577 55.7104 158.688 55.4223 158.736 55.417L158.688 54.9155L158.639 54.4141C158.431 54.4354 152.021 54.7448 149.099 58.9166C148.004 60.485 146.429 63.6058 145.088 66.924C145.408 67.0146 145.734 67.1107 146.055 67.2067L146.06 67.2174Z" fill="#313858" stroke="#313858" stroke-width="0.55" stroke-linecap="round" stroke-linejoin="round"/>
<path d="M150.253 82.0424L151.722 82.0211C152.539 82.0104 153.175 82.7306 153.058 83.5362C152.945 84.3417 152.139 84.8592 151.354 84.6245L149.949 84.203C149.837 84.171 149.762 84.059 149.783 83.9416L150.024 82.2505C150.04 82.1331 150.141 82.0478 150.259 82.0424H150.253Z" fill="#313858"/>
<path d="M159.601 54.5527L159.232 55.4863L159.414 55.0169L159.232 55.4863C159.275 55.5023 165.076 57.4602 166.577 61.8293C168.212 66.5825 169.349 79.1297 167.549 81.1356C165.552 83.3548 159.414 84.139 159.355 84.1444L159.478 85.142C159.745 85.11 166.054 84.2991 168.297 81.8078C170.658 79.1884 169.008 65.7876 167.528 61.5039C165.872 56.6866 159.793 54.6274 159.601 54.5527Z" fill="#313858"/>
<path d="M168.164 70.3168C167.827 67.02 167.245 63.7764 166.577 61.8346C165.076 57.4655 159.275 55.5076 159.232 55.4916L159.414 55.0222L159.596 54.5527C159.793 54.6274 165.867 56.6866 167.523 61.5039C168.148 63.3123 168.799 66.7479 169.168 70.3061C168.831 70.3061 168.495 70.3061 168.158 70.3115L168.164 70.3168Z" fill="#313858" stroke="#313858" stroke-width="0.55" stroke-linecap="round" stroke-linejoin="round"/>
<path d="M160.552 83.4828L159.19 83.072C158.618 82.9013 157.929 83.1947 157.657 83.7282C157.208 84.6244 157.865 85.6754 158.869 85.6594L160.253 85.638C160.37 85.638 160.472 85.5473 160.488 85.43L160.728 83.7389C160.744 83.6215 160.675 83.5095 160.562 83.4775L160.552 83.4828Z" fill="#313858"/>
<path d="M157.571 55.7048H158.859C158.896 55.7048 158.928 55.7049 158.96 55.7155L160.194 56.0729C160.37 56.1263 160.557 56.0356 160.632 55.8702L160.824 55.4328C160.878 55.3047 160.862 55.1607 160.776 55.054L160.723 54.9847C160.429 54.6219 160.263 54.1791 160.237 53.715L160.162 52.2746C160.151 52.0879 160.007 51.9385 159.82 51.9279L159.468 51.9012C159.468 51.9012 159.435 51.9012 159.419 51.8959L159.072 51.8212C158.891 51.7838 158.709 51.8852 158.65 52.0612L158.186 53.4269C158.036 53.8644 157.748 54.2485 157.368 54.5152L157.293 54.5686C157.181 54.6486 157.123 54.7819 157.139 54.9206L157.203 55.3954C157.229 55.5768 157.384 55.7102 157.566 55.7102L157.571 55.7048Z" fill="#313858"/>
<path opacity="0.3" d="M184.899 26.1879C184.514 27.8951 183.008 29.2767 180.786 29.2767C177.73 29.2767 177.645 27.2922 177.356 26.1186C177.068 24.945 177.1 23.9954 177.201 23.7393C177.479 23.0511 178.286 23.0351 180.695 22.9871C183.104 22.9391 184.429 22.9071 184.819 23.2592C185.208 23.6113 185.299 24.4222 184.899 26.1879Z" fill="white"/>
<path opacity="0.3" d="M164.563 23.2646C164.953 22.9125 166.278 22.9445 168.687 22.9925C171.096 23.0405 171.897 23.0565 172.18 23.7447C172.282 23.9954 172.314 24.9503 172.026 26.124C171.737 27.2976 171.652 29.2875 168.596 29.2821C166.374 29.2821 164.868 27.9004 164.483 26.1933C164.083 24.4275 164.173 23.622 164.563 23.2646Z" fill="white"/>
<path d="M187.537 22.875C187.484 22.3469 184.872 22.1122 182.997 22.0748C181.122 22.0375 177.949 21.9414 176.822 22.3309C175.823 22.6723 175.989 23.0457 174.723 23.0457C173.617 23.0457 173.564 22.6776 172.565 22.3309C171.438 21.9414 168.265 22.0428 166.39 22.0748C164.515 22.1122 161.898 22.3469 161.85 22.875C161.823 23.1578 161.86 23.5579 161.957 23.8939C162.037 24.182 162.971 24.3367 163.137 24.4167C163.49 24.5875 163.383 25.7398 163.938 26.9934C164.654 28.6152 166.331 29.8902 169.718 29.6074C172.827 29.346 172.768 26.0598 173.152 25.1796C173.484 24.4221 173.313 24.1767 174.723 24.1767C176.133 24.1767 175.909 24.4221 176.24 25.1796C176.625 26.0652 176.566 29.346 179.675 29.6074C183.061 29.8902 184.664 28.6365 185.379 27.0148C185.935 25.7611 185.903 24.5875 186.255 24.4167C186.421 24.3367 187.356 24.182 187.436 23.8939C187.532 23.5579 187.569 23.1578 187.543 22.875H187.537ZM172.025 26.1185C171.737 27.2922 171.651 29.282 168.596 29.2767C166.374 29.2767 164.868 27.895 164.483 26.1879C164.082 24.4221 164.173 23.6165 164.563 23.2591C164.953 22.907 166.278 22.939 168.687 22.987C171.096 23.0351 171.897 23.0511 172.18 23.7392C172.282 23.99 172.314 24.9449 172.025 26.1185ZM184.904 26.1879C184.519 27.895 183.013 29.2767 180.791 29.2767C177.736 29.2767 177.65 27.2922 177.362 26.1185C177.073 24.9449 177.105 23.9953 177.207 23.7392C177.484 23.0511 178.291 23.0351 180.7 22.987C183.109 22.939 184.434 22.907 184.824 23.2591C185.214 23.6112 185.305 24.4221 184.904 26.1879Z" fill="#133A50"/>
<path d="M189.161 51.2505C194.166 63.7284 186.544 80.9595 186.544 80.9595" stroke="#313858" stroke-width="2.37" stroke-miterlimit="10"/>
<path d="M185.598 86.8704C187.545 86.8704 189.124 85.2941 189.124 83.3495C189.124 81.405 187.545 79.8286 185.598 79.8286C183.651 79.8286 182.073 81.405 182.073 83.3495C182.073 85.2941 183.651 86.8704 185.598 86.8704Z" fill="white" stroke="#313858" stroke-width="2.28" stroke-miterlimit="10"/>
<path d="M174.718 126.502V165.36" stroke="#C0E7FA" stroke-width="1.84" stroke-linecap="round" stroke-linejoin="round"/>
</g>
<defs>
<clipPath id="clip0_6_1125">
<rect width="337" height="217" fill="white"/>
</clipPath>
</defs>
</svg>
