<svg width="18" height="6" viewBox="0 0 18 6" fill="none" xmlns="http://www.w3.org/2000/svg">
<path d="M4.0921 4.49671C5.00367 3.97041 5.316 2.80478 4.7897 1.8932C4.2634 0.981626 3.09778 0.669297 2.1862 1.1956C1.27462 1.72189 0.962294 2.88752 1.48859 3.7991C2.01489 4.71068 3.18052 5.023 4.0921 4.49671Z" fill="#343434"/>
<path d="M9.81304 4.49486C10.7246 3.96856 11.0369 2.80293 10.5106 1.89136C9.98435 0.97978 8.81872 0.667451 7.90715 1.19375C6.99557 1.72005 6.68324 2.88568 7.20954 3.79725C7.73584 4.70883 8.90147 5.02116 9.81304 4.49486Z" fill="#343434"/>
<path d="M15.534 4.493C16.4456 3.9667 16.7579 2.80107 16.2316 1.88949C15.7053 0.977918 14.5397 0.665589 13.6281 1.19189C12.7165 1.71819 12.4042 2.88381 12.9305 3.79539C13.4568 4.70697 14.6224 5.0193 15.534 4.493Z" fill="#343434"/>
</svg>
