<svg width="14" height="14" viewBox="0 0 14 14" fill="none" xmlns="http://www.w3.org/2000/svg">
<path d="M12.3737 8.81127C12.2883 8.81127 12.2064 8.8452 12.146 8.9056C12.0856 8.966 12.0516 9.04792 12.0516 9.13333V11.9918C12.0512 12.2477 11.9494 12.493 11.7684 12.674C11.5874 12.855 11.3421 12.9568 11.0862 12.9572H2.05244C1.79651 12.9568 1.55118 12.855 1.37021 12.674C1.18925 12.493 1.0874 12.2477 1.087 11.9918V3.60517C1.0874 3.34925 1.18925 3.10392 1.37021 2.92295C1.55118 2.74198 1.79651 2.64014 2.05244 2.63974H4.9139C4.99931 2.63974 5.08123 2.6058 5.14163 2.54541C5.20203 2.48501 5.23596 2.40309 5.23596 2.31767C5.23596 2.23226 5.20203 2.15034 5.14163 2.08994C5.08123 2.02954 4.99931 1.99561 4.9139 1.99561H2.05244C1.62574 1.99621 1.21669 2.16598 0.914967 2.4677C0.613245 2.76942 0.443473 3.17848 0.442871 3.60517V11.9918C0.443473 12.4185 0.613245 12.8275 0.914967 13.1292C1.21669 13.431 1.62574 13.6007 2.05244 13.6013H11.0854C11.5121 13.6007 11.9212 13.431 12.2229 13.1292C12.5246 12.8275 12.6944 12.4185 12.695 11.9918V9.13333C12.695 9.04792 12.6611 8.966 12.6007 8.9056C12.5403 8.8452 12.4583 8.81127 12.3729 8.81127H12.3737Z" fill="white"/>
<path d="M12.5676 1.16457C12.296 0.893768 11.9282 0.741699 11.5446 0.741699C11.1611 0.741699 10.7932 0.893768 10.5216 1.16457L4.77517 6.90794C4.73587 6.94726 4.70742 6.99608 4.69258 7.04965L3.93478 9.77774C3.91957 9.83266 3.9192 9.89063 3.93372 9.94574C3.94824 10.0008 3.97713 10.0511 4.01742 10.0914C4.05772 10.1317 4.10799 10.1606 4.1631 10.1751C4.21821 10.1896 4.27618 10.1893 4.3311 10.1741L7.05918 9.41627C7.11276 9.40142 7.16158 9.37297 7.2009 9.33366L12.9443 3.59029C13.2147 3.3185 13.3665 2.95068 13.3665 2.56726C13.3665 2.18385 13.2147 1.81603 12.9443 1.54423L12.5676 1.16457ZM5.4769 7.1171L10.1753 2.41873L11.6909 3.93433L6.9925 8.6327L5.4769 7.1171ZM5.17378 7.72334L6.38626 8.93582L4.71076 9.40035L5.17378 7.72334ZM12.4896 3.1341L12.1478 3.47587L10.6322 1.96026L10.974 1.61849C11.1249 1.46801 11.3292 1.3835 11.5423 1.3835C11.7554 1.3835 11.9598 1.46801 12.1107 1.61849L12.4896 1.9974C12.6403 2.14842 12.725 2.35301 12.7251 2.56635C12.7252 2.77969 12.6408 2.98439 12.4903 3.13561L12.4896 3.1341Z" fill="white"/>
</svg>
