<svg width="31" height="38" viewBox="0 0 31 38" fill="none" xmlns="http://www.w3.org/2000/svg">
<path fill-rule="evenodd" clip-rule="evenodd" d="M0 37.05C0 36.5253 0.425334 36.1 0.95 36.1H29.45C29.9747 36.1 30.4 36.5253 30.4 37.05C30.4 37.5747 29.9747 38 29.45 38H0.95C0.425334 38 0 37.5747 0 37.05Z" fill="#6B6C7E"/>
<path fill-rule="evenodd" clip-rule="evenodd" d="M10.45 3.79999H1.90002V1.89999H10.45V3.79999Z" fill="#6B6C7E"/>
<path fill-rule="evenodd" clip-rule="evenodd" d="M29.45 3.79999H20.9V1.89999H29.45V3.79999Z" fill="#6B6C7E"/>
<path fill-rule="evenodd" clip-rule="evenodd" d="M8.54998 6.65H2.84998V4.75H8.54998V6.65Z" fill="#6B6C7E"/>
<path fill-rule="evenodd" clip-rule="evenodd" d="M27.55 6.65H21.85V4.75H27.55V6.65Z" fill="#6B6C7E"/>
<path fill-rule="evenodd" clip-rule="evenodd" d="M22.8 32.3H7.59998V30.4H22.8V32.3Z" fill="#6B6C7E"/>
<path fill-rule="evenodd" clip-rule="evenodd" d="M16.15 2.85001V10.45H14.25V2.85001H16.15Z" fill="#6B6C7E"/>
<path fill-rule="evenodd" clip-rule="evenodd" d="M11.4 5.70001H19V7.60001H11.4V5.70001Z" fill="#6B6C7E"/>
<path fill-rule="evenodd" clip-rule="evenodd" d="M19.95 1.9H10.45V11.4H19.95V1.9ZM10.45 0H19.95C20.9994 0 21.85 0.850658 21.85 1.9V11.4C21.85 12.4494 20.9994 13.3 19.95 13.3H10.45C9.40068 13.3 8.55005 12.4494 8.55005 11.4V1.9C8.55005 0.850658 9.40068 0 10.45 0Z" fill="#6B6C7E"/>
<path fill-rule="evenodd" clip-rule="evenodd" d="M2.84998 36.1V2.85001H4.74998V36.1H2.84998Z" fill="#6B6C7E"/>
<path fill-rule="evenodd" clip-rule="evenodd" d="M25.65 36.1V2.85001H27.55V36.1H25.65Z" fill="#6B6C7E"/>
<path fill-rule="evenodd" clip-rule="evenodd" d="M14.25 36.1V32.3H16.15V36.1H14.25Z" fill="#6B6C7E"/>
<path fill-rule="evenodd" clip-rule="evenodd" d="M19.95 36.1V32.3H21.85V36.1H19.95Z" fill="#6B6C7E"/>
<path fill-rule="evenodd" clip-rule="evenodd" d="M8.55005 36.1V32.3H10.45V36.1H8.55005Z" fill="#6B6C7E"/>
<path d="M7.59998 15.2H11.4V18.05H7.59998V15.2Z" fill="#6B6C7E"/>
<path d="M7.59998 19.95H11.4V22.8H7.59998V19.95Z" fill="#6B6C7E"/>
<path d="M7.59998 24.7H11.4V27.55H7.59998V24.7Z" fill="#6B6C7E"/>
<path d="M13.3 15.2H17.1V18.05H13.3V15.2Z" fill="#6B6C7E"/>
<path d="M13.3 19.95H17.1V22.8H13.3V19.95Z" fill="#6B6C7E"/>
<path d="M13.3 24.7H17.1V27.55H13.3V24.7Z" fill="#6B6C7E"/>
<path d="M19 15.2H22.8V18.05H19V15.2Z" fill="#6B6C7E"/>
<path d="M19 19.95H22.8V22.8H19V19.95Z" fill="#6B6C7E"/>
<path d="M19 24.7H22.8V27.55H19V24.7Z" fill="#6B6C7E"/>
</svg>
