<svg width="46" height="44" viewBox="0 0 46 44" fill="none" xmlns="http://www.w3.org/2000/svg">
<path fill-rule="evenodd" clip-rule="evenodd" d="M12.0961 17.1052C10.624 15.6323 8.2364 15.6315 6.7632 17.1034L6.0591 17.8069C4.71987 17.4263 3.22155 17.7669 2.16703 18.8285C0.61099 20.3951 0.61099 22.9376 2.16703 24.5042L3 25.3428V36H0V38H2.05051C1.40223 38.6353 1 39.5207 1 40.5C1 42.433 2.567 44 4.5 44C6.433 44 8 42.433 8 40.5C8 39.5207 7.5978 38.6353 6.9495 38H33.0505C32.4022 38.6353 32 39.5207 32 40.5C32 42.433 33.567 44 35.5 44C37.433 44 39 42.433 39 40.5C39 39.5207 38.5978 38.6353 37.9495 38H40V36H36V32.8873C37.7218 32.4646 39 30.8993 39 29.033C39 26.8423 37.2388 25.0664 35.0662 25.0664H14.11C14.0285 25.0664 13.9502 25.0337 13.8925 24.9756L13.5261 24.6068L13.8945 24.2387C15.3678 22.7667 15.3686 20.3793 13.8963 18.9063L12.0961 17.1052ZM12.1167 23.1878L12.4809 22.8239C13.1727 22.1327 13.1731 21.0118 12.4818 20.3202L10.6816 18.5191C9.9902 17.8273 8.8687 17.8269 8.1768 18.5182L7.8263 18.8684L12.1167 23.1878ZM37 29.033C37 27.9311 36.1185 27.0664 35.0662 27.0664H14.11C13.4932 27.0664 12.905 26.8194 12.4736 26.3851L6.3677 20.238C5.59731 19.4623 4.35643 19.4623 3.586 20.238C2.80467 21.0246 2.80467 22.3081 3.586 23.0948L11.4379 30.9997H35.0662C36.1186 30.9997 37 30.1349 37 29.033ZM10.2752 32.6672C10.4867 32.8801 10.7733 32.9997 11.0722 32.9997H34V36H5V27.3563L10.2752 32.6672ZM6 40.5C6 41.3284 5.32843 42 4.5 42C3.67157 42 3 41.3284 3 40.5C3 39.6716 3.67157 39 4.5 39C5.32843 39 6 39.6716 6 40.5ZM35.5 42C36.3284 42 37 41.3284 37 40.5C37 39.6716 36.3284 39 35.5 39C34.6716 39 34 39.6716 34 40.5C34 41.3284 34.6716 42 35.5 42Z" fill="#333333"/>
<g clip-path="url(#clip0_3589_962)">
<path d="M27.4375 21.5625C28.9563 21.5625 30.1875 20.2753 30.1875 18.6875C30.1875 17.0997 28.9563 15.8125 27.4375 15.8125C25.9187 15.8125 24.6875 17.0997 24.6875 18.6875C24.6875 20.2753 25.9187 21.5625 27.4375 21.5625Z" stroke="black" stroke-width="2" stroke-miterlimit="10" stroke-linecap="round" stroke-linejoin="round"/>
<path d="M26.2002 15.8125L26.4752 14.0875C26.7502 12.5781 28.0564 11.5 29.5689 11.5H31.8377C32.6627 11.5 33.4877 11.8594 34.0377 12.4344L36.7189 15.0938C38.8502 17.25 37.3377 20.8438 34.3127 20.8438H29.2252" stroke="black" stroke-width="2" stroke-miterlimit="10" stroke-linecap="round" stroke-linejoin="round"/>
<path d="M41.1875 20.8438H45.3125" stroke="black" stroke-width="2" stroke-miterlimit="10" stroke-linecap="round" stroke-linejoin="round"/>
<path d="M35.6874 13.6563C37.2687 12.0032 37.3374 9.41572 35.8937 7.69072L35.1374 6.75635C34.3124 5.82197 34.4499 4.3126 35.4124 3.52197C36.3749 2.73135 37.6812 2.8751 38.4374 3.88135C41.1187 7.40322 42.5624 11.7876 42.5624 16.2438V20.8438" stroke="black" stroke-width="2" stroke-miterlimit="10" stroke-linecap="round" stroke-linejoin="round"/>
</g>
<defs>
<clipPath id="clip0_3589_962">
<rect width="22" height="23" fill="white" transform="translate(24)"/>
</clipPath>
</defs>
</svg>
