<svg width="28" height="27" viewBox="0 0 28 27" fill="none" xmlns="http://www.w3.org/2000/svg">
<path d="M13.9145 8.64482C12.9665 8.64482 12.0398 8.92594 11.2516 9.45261C10.4634 9.97929 9.84902 10.7279 9.48624 11.6037C9.12346 12.4795 9.02854 13.4433 9.21349 14.3731C9.39843 15.3028 9.85493 16.1569 10.5253 16.8272C11.1956 17.4976 12.0497 17.9541 12.9794 18.139C13.9092 18.3239 14.8729 18.229 15.7488 17.8662C16.6246 17.5035 17.3732 16.8891 17.8999 16.1009C18.4265 15.3127 18.7077 14.386 18.7077 13.438C18.7077 12.1667 18.2027 10.9476 17.3038 10.0487C16.4049 9.14981 15.1857 8.64482 13.9145 8.64482ZM24.6272 12.2397C24.3558 9.8097 23.2661 7.54425 21.5372 5.81531C19.8082 4.08637 17.5428 2.99673 15.1128 2.7253V0.256836H12.7162V2.7253C10.2863 2.99673 8.02081 4.08637 6.29187 5.81531C4.56293 7.54425 3.47329 9.8097 3.20186 12.2397H0.733398V14.6362H3.20186C3.47329 17.0662 4.56293 19.3317 6.29187 21.0606C8.02081 22.7895 10.2863 23.8792 12.7162 24.1506V26.6191H15.1128V24.1506C17.5428 23.8792 19.8082 22.7895 21.5372 21.0606C23.2661 19.3317 24.3558 17.0662 24.6272 14.6362H27.0956V12.2397H24.6272ZM13.9145 21.8259C12.2555 21.8259 10.6338 21.334 9.25441 20.4123C7.87501 19.4906 6.7999 18.1806 6.16503 16.6479C5.53017 15.1152 5.36406 13.4287 5.68771 11.8015C6.01136 10.1744 6.81024 8.67984 7.98332 7.50676C9.1564 6.33368 10.651 5.5348 12.2781 5.21114C13.9052 4.88749 15.5918 5.0536 17.1245 5.68847C18.6572 6.32334 19.9672 7.39845 20.8889 8.77784C21.8106 10.1572 22.3025 11.779 22.3025 13.438C22.3034 14.5397 22.087 15.6308 21.6657 16.6489C21.2445 17.667 20.6267 18.592 19.8476 19.371C19.0685 20.1501 18.1435 20.7679 17.1255 21.1892C16.1074 21.6104 15.0163 21.8268 13.9145 21.8259Z" fill="black"/>
</svg>
