<svg width="769" height="753" viewBox="0 0 769 753" fill="none" xmlns="http://www.w3.org/2000/svg">
<path d="M768.618 0.204102H0.00390625V752.664H768.618V0.204102Z" fill="#1e205a"/>
<path opacity="0.27" d="M731.986 342.208C664.806 342.208 607.379 383.832 584.24 442.624C577.375 441.72 570.378 441.248 563.265 441.248C526.977 441.248 493.543 453.4 466.814 473.836C439.254 427.068 388.275 395.664 329.928 395.664C265.663 395.664 210.323 433.756 185.385 488.528C167.965 481.972 149.085 478.372 129.357 478.372C98.918 478.372 70.49 486.924 46.3362 501.736C36.1166 478 20.2353 457.256 0.387695 441.196V689.876H768.614V346.46C756.855 343.688 744.588 342.216 731.978 342.216L731.986 342.208Z" fill="#F0F0FA"/>
<path d="M296.766 721.721L313.731 736.745C314.239 737.197 314.103 738.025 313.471 738.281C309.265 739.985 294.923 744.629 268.338 742.113C268.338 742.113 264.24 741.873 266.643 724.285L296.766 721.721Z" fill="#FEC40C"/>
<path d="M197.64 722.592L182.267 739.056C181.803 739.552 182.019 740.356 182.667 740.552C186.989 741.84 201.619 745.088 227.692 740.092C227.692 740.092 231.726 739.468 227.692 722.292L197.64 722.592Z" fill="#FEC40C"/>
<path d="M237.775 417.58H179.28C179.28 417.58 183.314 653.008 194.745 722.964C194.745 722.964 207.52 726.328 231.054 722.964C224.329 588.432 226.348 484.844 237.779 464.668V417.584L237.775 417.58Z" fill="#5C2F67"/>
<path d="M225.584 421.856L283.8 416.124C283.8 416.124 302.836 650.816 298.31 721.556C298.31 721.556 285.927 726.156 262.177 725.112C255.696 590.572 243.545 487.676 230.194 468.716L225.584 421.856Z" fill="#5C2F67"/>
<path d="M212.95 262.488C212.95 262.488 139.989 262.096 151.58 346.752L172.447 376.904L177.885 417.556C177.885 417.556 220.666 431.588 282.388 417.556L286.599 353.004L311.848 345.288C311.848 345.288 310.444 267.404 240.31 265.3L212.958 262.492L212.95 262.488Z" fill="url(#paint0_linear_265_3584)"/>
<path d="M151.748 346.492L185.198 338.632L189.836 353.708C189.836 353.708 225.772 335.152 236.204 336.312C246.635 337.472 259.39 345.588 254.752 349.068C254.752 349.068 250.114 347.908 243.161 346.748C236.204 345.588 236.204 346.748 235.048 351.388C233.889 356.028 226.936 350.228 224.617 350.228C222.298 350.228 199.116 382.7 182.886 385.016C166.657 387.336 151.756 346.488 151.756 346.488L151.748 346.492Z" fill="#FFCFB0"/>
<path d="M370.663 286.448L279.582 288.536L255.904 358.348L346.873 354.608L370.663 286.448Z" fill="#CCD1E7"/>
<path d="M322.543 355.608C322.543 355.608 318.501 372.264 303.431 372.264C288.362 372.264 273.292 354.868 277.93 351.388C282.568 347.908 302.668 356.424 302.668 356.424L322.547 355.608H322.543Z" fill="#FFCFB0"/>
<path d="M311.84 356.049C311.84 356.049 306.91 347.913 303.431 350.233C299.953 352.553 305.75 356.033 303.431 358.349C301.112 360.669 309.817 363.029 311.84 356.049Z" fill="#FFCFB0"/>
<path d="M255.904 358.348C255.904 358.348 213.014 350.232 214.173 350.232C215.333 350.232 258.546 350.556 258.546 350.556L255.904 358.348Z" fill="#D7DEEE"/>
<path d="M262.825 207.636C254.228 204.036 240.782 193.232 240.782 193.232C240.782 193.232 242.961 198.512 235.576 201.048H231.67C231.67 201.048 212.238 214.312 211.474 214.932C206.872 218.672 205.953 222.528 206.484 225.788C207.248 230.472 211.118 234.04 215.8 234.82L217.736 235.144C217.736 235.144 222.722 247.776 215.537 263.748C215.537 263.748 218.319 273.092 232.222 272.836C236.756 272.752 240.474 269.028 240.29 264.496C240.138 260.684 240.714 257.64 241.366 255.484C242.921 256.148 244.608 256.756 246.467 257.284C267.814 263.352 262.565 225.332 262.821 207.64L262.825 207.636Z" fill="#FFCFB0"/>
<path d="M263.216 213.532C263.216 213.532 278.218 203.236 266.119 185.636C254.02 168.032 222.13 170.232 213.334 190.036C213.334 190.036 199.036 187.836 197.936 197.736C196.837 207.636 206.572 221.548 206.572 221.548C206.572 221.548 211.134 213.136 219.931 223.04L221.03 214.24C221.03 214.24 230.926 214.24 232.026 203.24C232.026 203.24 251.821 213.14 262.817 207.64L263.212 213.536L263.216 213.532Z" fill="url(#paint1_linear_265_3584)"/>
<path d="M214.117 218.624L215.157 219.128C216.276 219.672 217.304 220.388 218.196 221.26L218.344 221.404L230.298 226.364C230.278 226.704 230.274 227.048 230.294 227.396C230.562 232.128 234.497 235.792 239.175 235.792C239.347 235.792 239.515 235.788 239.686 235.776C244.512 235.5 248.223 231.404 248.063 226.596H251.19C251.19 226.692 251.174 226.788 251.174 226.888C251.174 231.796 255.164 235.792 260.07 235.792C264.976 235.792 268.97 231.8 268.97 226.888C268.97 221.976 264.98 217.988 260.07 217.988C255.708 217.988 252.077 221.148 251.322 225.296H247.923C247.571 223.348 246.6 221.584 245.1 220.248C243.325 218.664 241.034 217.864 238.671 218.004C234.581 218.236 231.294 221.22 230.478 225.048L214.113 218.624H214.117ZM252.477 226.892C252.477 222.7 255.884 219.292 260.074 219.292C264.264 219.292 267.671 222.7 267.671 226.892C267.671 231.084 264.264 234.492 260.074 234.492C255.884 234.492 252.477 231.084 252.477 226.892ZM233.509 221.832C234.86 220.316 236.72 219.42 238.747 219.304C238.895 219.296 239.043 219.292 239.191 219.292C241.058 219.292 242.833 219.968 244.237 221.22C245.752 222.572 246.648 224.432 246.763 226.46C246.879 228.488 246.2 230.436 244.848 231.952C243.497 233.468 241.638 234.364 239.614 234.48C235.44 234.688 231.834 231.508 231.598 227.324C231.482 225.296 232.162 223.348 233.513 221.832H233.509Z" fill="#3C3C59"/>
<g style="mix-blend-mode:multiply" opacity="0.5">
<path d="M226.068 242.66C231.646 250.336 241.366 255.484 241.366 255.484C240.898 257.028 240.474 259.032 240.326 261.444C229.887 257.152 226.068 242.664 226.068 242.664V242.66Z" fill="#FFCFB0"/>
</g>
<g style="mix-blend-mode:multiply" opacity="0.25">
<path d="M185.193 338.636L190.083 337.548L189.832 353.712L185.193 338.636Z" fill="#75BFFF"/>
</g>
<path d="M560.666 675.168C560.666 675.168 562.302 677.244 568.567 693.416C570.938 699.532 524.966 700.916 524.434 696.688C523.902 692.46 534.21 688.2 541.539 684.108L541.691 680.024L560.666 675.172V675.168Z" fill="url(#paint2_linear_265_3584)"/>
<path d="M477.678 680.477C477.678 680.477 478.973 680.493 480.377 695.053C481.004 701.585 435.46 703.069 435.352 698.809C435.244 694.549 451.637 685.361 459.337 682.021L459.897 677.973L477.678 680.481V680.477Z" fill="url(#paint3_linear_265_3584)"/>
<path d="M477.558 383C477.558 383 457.19 440.032 448.71 519.332C440.497 596.16 458.59 678.704 458.59 678.704C463.248 684.228 478.973 680.492 478.973 680.492C489.597 621.388 474.115 585.348 485.526 532.524C490.988 507.248 505.562 464.552 505.562 464.552C505.562 464.552 492.295 382.656 477.558 383Z" fill="#5C2F67"/>
<path d="M541.259 385.552C541.259 385.552 553.49 400.68 551.227 433.792C548.736 470.26 544.477 522.788 542.526 544.404C540.575 566.02 562.298 677.248 562.298 677.248C562.298 677.248 554.073 683.076 541.475 682.572C541.475 682.572 508.681 623.792 500.456 534.42C499.512 524.164 495.71 495.14 492.639 428.508C491.904 412.528 477.558 383 477.558 383L541.259 385.552Z" fill="#5C2F67"/>
<path d="M402.713 367.156C399.991 363.604 398.719 359.716 398.839 358.568C399.155 355.544 401.286 360.156 404.749 362.764C406.224 363.876 408.311 363.128 411.954 361.748C414.884 360.636 403.957 353.396 408.371 354.04C411.558 354.504 416.364 357.044 418.791 358.42C433.432 356.004 449.054 351.384 460.053 344.42L473.811 292.872C473.811 292.872 476.942 283.644 487.681 278.98C494.295 276.112 501.927 279.816 503.491 286.856C505.134 294.256 501.472 303.832 494.99 315.896C487.206 330.384 482.012 351.116 473.703 361.52C469.301 367.036 435.144 371.52 420.706 369.964C417.883 371.26 413.945 372.516 407.411 372.236C404.225 371.504 403.033 370.872 400.466 368.164C400.466 368.164 398.579 365.068 402.713 367.156Z" fill="#FFCFB0"/>
<path d="M535.725 272.196L477.142 273.228C467.494 216.508 486.59 198.924 500.708 196.924C500.708 196.924 537.804 192.004 539.535 224.16C540.435 240.824 535.725 272.196 535.725 272.196Z" fill="url(#paint4_linear_265_3584)"/>
<path d="M486.234 213.104C486.234 213.104 491.968 226.84 512.959 227.828C515.494 227.948 519.912 230.22 520.707 232.632C520.927 233.292 521.087 234.04 521.163 234.876C521.163 234.876 521.959 224.16 527.932 224.4C533.906 224.64 531.419 241.028 524.842 243.696C518.264 246.364 515.398 273.728 519.012 279.552C519.012 279.552 512.767 293.776 502.879 289.164C492.991 284.556 495.39 279.52 495.39 279.52C495.39 279.52 501.66 278.488 499.281 264.652C499.281 264.652 484.427 269.736 481.848 247.284C481.848 247.284 480.197 233.66 482.004 225.124C482.004 225.124 483.063 217.892 486.242 213.108L486.234 213.104Z" fill="#FFCFB0"/>
<g style="mix-blend-mode:darken" opacity="0.34">
<path d="M513.914 255.893C513.914 255.893 509.512 270.461 499.72 273.897C500.148 271.737 500.208 268.765 499.504 264.657C499.504 264.657 499.392 264.693 499.197 264.745C499.249 264.685 499.281 264.645 499.281 264.645C499.281 264.645 508.497 263.181 513.914 255.889V255.893Z" fill="#FA8579"/>
</g>
<path d="M541.847 292.121C541.847 292.121 537.037 283.873 518.976 277.417L518.053 269.937C518.053 269.609 517.717 269.325 517.425 269.473C512.287 272.053 505.622 272.289 499.572 270.789C499.025 270.653 498.501 271.077 498.521 271.645C498.565 272.901 498.489 274.853 497.733 276.009C496.554 277.821 489.285 275.477 481.152 281.625C477.122 284.673 460.937 301.905 477.554 382.997C477.554 382.997 506.961 389.785 541.255 385.549L541.843 292.117L541.847 292.121Z" fill="white"/>
<g style="mix-blend-mode:multiply" opacity="0.25">
<path d="M541.259 385.552L541.515 345.2C530.979 327.848 521.631 312.62 521.631 312.62C521.631 312.62 523.03 338.144 521.631 360.076C520.232 382.004 477.562 383 477.562 383C477.562 383 506.969 389.788 541.263 385.552H541.259Z" fill="#FEC40C"/>
</g>
<g style="mix-blend-mode:multiply" opacity="0.35">
<path d="M508.161 279.448C518.252 279.292 518.976 277.416 518.976 277.416C518.976 277.416 518.952 277.46 518.976 277.416L518.097 269.936C518.097 269.58 517.721 269.344 517.401 269.504C512.271 272.052 505.638 272.28 499.612 270.788C499.065 270.652 498.661 271.084 498.561 271.64C498.277 273.228 498.325 274.456 497.773 276.012C497.761 276.048 497.729 276.076 497.701 276.104C497.361 276.476 497.349 277.044 497.741 277.364C498.865 278.272 501.655 279.552 508.157 279.452L508.161 279.448Z" fill="#FEC40C"/>
</g>
<path d="M548.504 321.312C548.208 307.62 546.68 297.48 541.611 291.848C536.785 286.492 527.924 286.748 523.974 292.78C519.932 298.956 521.631 312.62 521.631 312.62L526.301 354.592C516.001 351.656 496.877 341.588 493.915 337.672L493.631 338.236C493.911 336.236 494.027 334.836 494.027 334.836C494.027 334.836 490.176 320.38 488.181 319.832C486.186 319.284 477.014 314.944 475.834 315.128C474.659 315.316 473.515 316.568 480.472 327.704C485.414 335.616 476.806 328.844 474.507 327.816C472.212 326.788 471.92 328.18 474.139 331.192C476.354 334.204 481.144 336.264 480.584 339.516C480.025 342.768 481.44 348.824 486.91 351.596C500.424 365.104 522.699 377.34 531.671 380.528C538.768 383.048 546.408 378.536 547.6 371.096C549.711 357.948 548.859 337.76 548.504 321.312Z" fill="#FFCFB0"/>
<path d="M720.431 571.696C713.566 570.792 706.569 570.32 699.456 570.32C663.167 570.32 629.733 582.472 603.005 602.908C575.444 556.14 524.466 524.736 466.118 524.736C401.854 524.736 346.513 562.828 321.576 617.6C304.155 611.044 285.275 607.444 265.547 607.444C235.108 607.444 206.68 615.996 182.527 630.808C158.261 574.448 102.097 534.972 36.6724 534.972C24.0498 534.972 11.771 536.444 0 539.224V752.664H768.614V506.292C747.331 523.412 730.574 545.904 720.423 571.696H720.431Z" fill="#F0F0FA"/>
<path d="M189.604 123.68C192.658 138.42 185.977 151.056 171.243 154.112C156.51 157.168 138.133 151.292 136.246 134.748C134.543 119.792 142.616 105.36 157.393 102.524C176.877 98.7844 186.549 108.94 189.604 123.68Z" fill="white"/>
<path d="M169.632 125.177L169.82 130.285L172.755 129.677L173.638 133.945L169.972 134.705L170.14 139.889L165.738 140.801L165.57 135.617L160.736 136.621L160.904 141.805L156.506 142.717L156.334 137.533L153.799 138.057L152.915 133.789L156.182 133.113L155.994 128.005L153.063 128.613L152.18 124.345L155.846 123.585L155.67 118.545L160.072 117.633L160.248 122.673L165.082 121.669L164.906 116.629L169.308 115.717L169.484 120.757L172.019 120.233L172.903 124.501L169.636 125.177H169.632ZM160.4 127.093L160.588 132.201L165.422 131.197L165.234 126.089L160.4 127.093Z" fill="#1e205a"/>
<path d="M501.1 79.5118C497.433 74.6758 488.693 76.7238 488.069 82.1638C488.685 76.7758 480.536 72.9278 476.018 76.6878C474.459 77.9838 473.407 79.6998 472.896 81.5558C471.928 85.0438 473.096 88.7798 475.71 91.2798L485.878 100.996L498.073 93.8118C501.364 91.8758 503.375 88.2358 503.011 84.4318C502.843 82.6878 502.215 80.9798 501.104 79.5118H501.1Z" fill="#FB80B4"/>
<path d="M396.952 182.328L340.28 183.484C334.822 183.484 330.396 187.912 330.396 193.372V203.56C330.396 208.46 333.503 212.368 340.488 212.976C342.167 213.12 343.666 214.084 344.542 215.528L348.66 222.316L353.174 215.768C354.174 214.32 355.821 213.452 357.584 213.452H401.054C406.512 213.452 410.938 209.024 410.938 203.564V193.376C410.938 187.916 408.635 182.332 396.952 182.332V182.328Z" fill="url(#paint5_linear_265_3584)"/>
<path d="M358.824 203.256C358.672 202.832 358.74 202.368 358.988 201.992C359.712 200.892 360.119 199.644 360.119 198.316C360.119 193.92 355.633 190.356 350.1 190.356C344.566 190.356 340.08 193.92 340.08 198.316C340.08 202.712 344.566 206.276 350.1 206.276C352.239 206.276 354.222 205.744 355.849 204.832C356.221 204.624 356.669 204.596 357.065 204.756L359.748 205.852L358.82 203.256H358.824Z" fill="white"/>
<path d="M387.308 196.584C388.447 195.78 389.183 194.44 389.139 192.932C389.079 190.696 387.26 188.836 385.029 188.732C382.546 188.616 380.495 190.592 380.495 193.052C380.495 194.512 381.222 195.8 382.33 196.584C379.227 197.624 376.992 200.552 376.992 204.008C376.992 205.612 378.292 206.912 379.895 206.912H389.743C391.346 206.912 392.646 205.612 392.646 204.008C392.646 200.556 390.411 197.624 387.308 196.584Z" fill="white"/>
<path d="M398.527 193.776V191.82C398.527 191.516 398.279 191.272 397.979 191.272H396.512C396.208 191.272 395.964 191.52 395.964 191.82V193.776C395.964 194.08 395.716 194.324 395.416 194.324H393.589C393.285 194.324 393.041 194.572 393.041 194.872V196.284C393.041 196.588 393.289 196.832 393.589 196.832H395.416C395.72 196.832 395.964 197.08 395.964 197.38V199.364C395.964 199.668 396.212 199.912 396.512 199.912H397.979C398.283 199.912 398.527 199.664 398.527 199.364V197.38C398.527 197.076 398.775 196.832 399.075 196.832H400.902C401.206 196.832 401.45 196.584 401.45 196.284V194.872C401.45 194.568 401.202 194.324 400.902 194.324H399.075C398.771 194.324 398.527 194.076 398.527 193.776Z" fill="white"/>
<path d="M2.16191 432.371C2.12834 432.315 1.33608 430.963 0 428.487L2.40025 426.647C3.69941 429.059 4.49166 430.403 4.49837 430.415L2.16191 432.367V432.371Z" fill="#E6E7E8"/>
<path d="M492.888 464C489.839 463.98 486.739 463.912 483.671 463.8L483.795 460.4C486.827 460.508 489.895 460.576 492.911 460.596L492.888 463.996V464ZM502.112 463.924L502.032 460.524C505.06 460.456 508.128 460.336 511.149 460.176L511.328 463.572C508.276 463.736 505.172 463.856 502.112 463.924ZM474.479 463.336C471.451 463.14 468.366 462.896 465.318 462.612L465.634 459.224C468.654 459.504 471.702 459.744 474.702 459.94L474.483 463.336H474.479ZM520.533 462.936L520.249 459.548C523.273 459.292 526.325 458.988 529.326 458.64L529.717 462.02C526.685 462.372 523.597 462.68 520.537 462.936H520.533ZM456.186 461.636C453.182 461.276 450.117 460.864 447.077 460.416L447.573 457.051C450.585 457.495 453.617 457.904 456.593 458.26L456.186 461.636ZM538.85 460.836L538.378 457.467C541.406 457.043 544.447 456.591 547.423 456.119L547.95 459.48C544.958 459.952 541.894 460.408 538.85 460.836ZM437.993 458.956C435 458.436 431.956 457.867 428.94 457.267L429.603 453.931C432.591 454.527 435.608 455.091 438.572 455.603L437.993 458.956ZM557.027 457.967L556.44 454.615C559.448 454.087 562.472 453.527 565.428 452.951L566.075 456.291C563.099 456.871 560.055 457.435 557.027 457.967ZM419.927 455.355C416.967 454.691 413.947 453.979 410.955 453.235L411.774 449.935C414.742 450.671 417.738 451.379 420.674 452.039L419.931 455.359L419.927 455.355ZM575.096 454.447L574.385 451.119C577.369 450.479 580.369 449.803 583.302 449.115L584.081 452.427C581.128 453.123 578.108 453.803 575.1 454.447H575.096ZM402.022 450.911C399.086 450.115 396.097 449.267 393.141 448.395L394.1 445.13C397.036 445.995 400 446.835 402.913 447.627L402.022 450.911ZM593.018 450.223L592.171 446.927C595.131 446.163 598.099 445.363 600.991 444.55L601.91 447.827C598.994 448.647 596.002 449.455 593.018 450.223ZM384.308 445.695C381.404 444.774 378.452 443.81 375.527 442.822L376.614 439.598C379.518 440.578 382.451 441.538 385.331 442.45L384.308 445.695ZM610.747 445.23L609.752 441.978C612.677 441.082 615.601 440.15 618.45 439.202L619.52 442.43C616.648 443.386 613.695 444.33 610.743 445.234L610.747 445.23ZM366.802 439.782C363.954 438.762 361.049 437.694 358.165 436.606L359.364 433.422C362.232 434.506 365.116 435.566 367.945 436.582L366.802 439.786V439.782ZM628.229 439.406L627.075 436.206C629.943 435.17 632.815 434.09 635.616 432.994L636.854 436.162C634.026 437.27 631.122 438.362 628.225 439.406H628.229ZM349.584 433.282C346.779 432.169 343.911 431.005 341.055 429.825L342.353 426.681C345.189 427.857 348.046 429.013 350.83 430.117L349.58 433.282H349.584ZM645.396 432.681L644.069 429.549C646.882 428.357 649.69 427.117 652.415 425.865L653.833 428.957C651.076 430.221 648.24 431.477 645.396 432.681ZM332.581 426.237C329.809 425.041 326.976 423.793 324.16 422.533L325.546 419.428C328.347 420.685 331.167 421.925 333.924 423.113L332.577 426.237H332.581ZM662.155 424.981L660.644 421.933C663.381 420.572 666.106 419.16 668.742 417.74L670.352 420.737C667.688 422.173 664.927 423.601 662.159 424.981H662.155ZM315.759 418.704C313.01 417.428 310.198 416.108 307.409 414.772L308.875 411.704C311.656 413.032 314.452 414.352 317.189 415.62L315.763 418.708L315.759 418.704ZM678.402 416.22L676.688 413.28C679.325 411.74 681.946 410.144 684.47 408.544L686.288 411.42C683.727 413.044 681.075 414.66 678.398 416.22H678.402ZM299.107 410.74C296.387 409.4 293.61 408.015 290.854 406.619L292.384 403.583C295.128 404.971 297.893 406.351 300.606 407.683L299.107 410.736V410.74ZM693.994 406.323L692.069 403.523C694.578 401.795 697.063 400.003 699.46 398.207L701.497 400.927C699.064 402.751 696.543 404.567 693.994 406.323ZM282.648 402.423C279.98 401.039 277.235 399.603 274.486 398.147L276.076 395.138C278.817 396.591 281.554 398.023 284.21 399.399L282.648 402.419V402.423ZM708.772 395.218L706.618 392.586C708.971 390.658 711.293 388.662 713.522 386.662L715.791 389.194C713.526 391.23 711.165 393.258 708.772 395.218ZM266.365 393.802C263.712 392.37 260.991 390.886 258.283 389.398L259.921 386.418C262.621 387.906 265.334 389.382 267.979 390.81L266.365 393.802ZM250.241 384.934C247.616 383.47 244.924 381.949 242.231 380.421L243.905 377.461C246.59 378.985 249.278 380.501 251.895 381.961L250.237 384.934H250.241ZM722.526 382.845L720.137 380.425C722.299 378.285 724.42 376.081 726.442 373.877L728.946 376.177C726.889 378.425 724.728 380.669 722.526 382.849V382.845ZM234.253 375.869C231.6 374.345 228.948 372.813 226.303 371.277L228.009 368.332C230.65 369.864 233.294 371.397 235.943 372.917L234.253 375.869ZM735.019 369.18L732.398 367.016C734.328 364.672 736.201 362.26 737.971 359.848L740.708 361.864C738.902 364.324 736.988 366.788 735.019 369.18ZM218.381 366.652C215.744 365.104 213.112 363.552 210.483 362L212.213 359.072C214.838 360.624 217.466 362.172 220.099 363.72L218.381 366.656V366.652ZM202.605 357.323C199.98 355.759 197.36 354.195 194.747 352.631L196.489 349.711C199.101 351.275 201.718 352.835 204.343 354.399L202.605 357.323ZM745.977 354.235L743.129 352.383C744.778 349.839 746.364 347.227 747.835 344.626L750.791 346.303C749.285 348.963 747.663 351.631 745.977 354.235ZM186.869 347.915C184.24 346.339 181.615 344.758 178.999 343.186L180.748 340.27C183.365 341.842 185.99 343.422 188.619 344.998L186.873 347.915H186.869ZM171.129 338.454C168.5 336.874 165.879 335.298 163.262 333.726L165.008 330.809C167.625 332.381 170.25 333.958 172.878 335.538L171.129 338.454ZM755.109 338.09L752.053 336.602C753.376 333.882 754.622 331.097 755.757 328.325L758.901 329.613C757.738 332.453 756.464 335.306 755.109 338.09ZM155.388 329.001C152.756 327.425 150.131 325.857 147.51 324.297L149.248 321.373C151.873 322.937 154.502 324.505 157.134 326.081L155.392 329.001H155.388ZM762.133 320.9L758.909 319.824C759.863 316.956 760.726 314.036 761.477 311.136L764.765 311.988C763.994 314.964 763.107 317.96 762.129 320.9H762.133ZM139.62 319.612C136.98 318.048 134.347 316.496 131.714 314.956L133.432 312.02C136.065 313.564 138.701 315.12 141.346 316.684L139.616 319.612H139.62ZM123.792 310.332C121.08 308.76 118.407 307.215 115.846 305.751L117.532 302.799C120.097 304.267 122.777 305.811 125.494 307.391L123.792 310.336V310.332ZM766.783 302.911L763.443 302.287C763.994 299.327 764.446 296.311 764.785 293.326L768.161 293.71C767.813 296.775 767.35 299.867 766.783 302.907V302.911ZM107.876 301.219C105.164 299.691 102.471 298.183 99.8743 296.747L101.52 293.77C104.125 295.214 106.826 296.723 109.546 298.259L107.88 301.223L107.876 301.219ZM91.8404 292.338C89.1118 290.854 86.3912 289.398 83.7665 288.006L85.3566 284.998C87.9932 286.394 90.7218 287.858 93.4623 289.346L91.8444 292.338H91.8404ZM768.888 284.446L765.492 284.302C765.568 282.521 765.604 280.717 765.604 278.945C765.604 277.709 765.584 276.465 765.548 275.237L768.944 275.137C768.98 276.393 769 277.677 769 278.945C769 280.769 768.96 282.621 768.884 284.45L768.888 284.446ZM75.6488 283.758C72.9002 282.341 70.1557 280.945 67.4831 279.609L69.0012 276.565C71.6818 277.905 74.4423 279.309 77.2028 280.733L75.6448 283.758H75.6488ZM59.2694 275.569C56.4849 274.225 53.7004 272.905 50.9998 271.653L52.43 268.564C55.1506 269.824 57.9471 271.153 60.7475 272.505L59.2734 275.569H59.2694ZM42.6663 267.872C39.8458 266.62 37.0214 265.4 34.2729 264.244L35.5872 261.108C38.3557 262.272 41.2001 263.5 44.0405 264.76L42.6663 267.872ZM764.965 266.196C764.665 263.208 764.25 260.188 763.735 257.219L767.082 256.639C767.61 259.688 768.037 262.788 768.345 265.856L764.965 266.2V266.196ZM25.8115 260.788C22.9431 259.652 20.0747 258.551 17.2782 257.519L18.4568 254.327C21.2732 255.367 24.1696 256.479 27.0619 257.623L25.8115 260.788ZM8.67708 254.463C5.76475 253.471 2.84442 252.519 0 251.639L1.00275 248.391C3.87913 249.283 6.82742 250.243 9.77171 251.247L8.67708 254.467V254.463ZM761.877 248.351C761.158 245.438 760.323 242.502 759.4 239.634L762.632 238.59C763.579 241.534 764.434 244.546 765.173 247.535L761.873 248.351H761.877ZM756.324 231.109C755.213 228.325 753.987 225.533 752.68 222.809L755.745 221.337C757.083 224.129 758.337 226.989 759.48 229.845L756.324 231.109ZM748.494 214.768C747.024 212.156 745.438 209.548 743.788 207.015L746.632 205.155C748.322 207.747 749.944 210.42 751.454 213.096L748.494 214.768ZM738.594 199.575C736.8 197.171 734.903 194.782 732.949 192.47L735.542 190.27C737.54 192.634 739.485 195.078 741.319 197.539L738.594 199.575ZM726.877 185.722C724.808 183.553 722.63 181.405 720.417 179.341L722.73 176.849C724.991 178.957 727.213 181.149 729.33 183.369L726.873 185.722H726.877ZM713.598 173.345C711.289 171.429 708.888 169.54 706.451 167.736L708.472 165C710.957 166.84 713.41 168.768 715.767 170.724L713.598 173.345Z" fill="#E6E7E8"/>
<path d="M713.711 162.096C712.66 161.268 711.579 160.444 710.498 159.644L712.005 156.756C713.106 157.572 714.208 158.416 715.282 159.256L713.711 162.096Z" fill="#E6E7E8"/>
<path d="M706.647 166.544L705.362 143.804L665.598 127.804L706.647 166.544Z" fill="#E6E7E8"/>
<path opacity="0.54" d="M665.598 127.804L699.306 148.98L706.647 166.544L665.598 127.804Z" fill="#D1D3D4"/>
<path d="M699.306 148.98L688.842 172.684L665.598 127.804L699.306 148.98Z" fill="#F1F2F2"/>
<path d="M665.598 127.804L718.333 134.368L705.362 143.804L665.598 127.804Z" fill="#F1F2F2"/>
<defs>
<linearGradient id="paint0_linear_265_3584" x1="236.292" y1="436.648" x2="228.104" y2="282.745" gradientUnits="userSpaceOnUse">
<stop stop-color="#75BFFF"/>
<stop offset="1" stop-color="#97D1FF"/>
</linearGradient>
<linearGradient id="paint1_linear_265_3584" x1="197.856" y1="198.368" x2="270.837" y2="198.368" gradientUnits="userSpaceOnUse">
<stop stop-color="#3B234C"/>
<stop offset="0.34" stop-color="#402450"/>
<stop offset="0.75" stop-color="#4F2A5C"/>
<stop offset="1" stop-color="#5C2F67"/>
</linearGradient>
<linearGradient id="paint2_linear_265_3584" x1="524.41" y1="687.148" x2="568.655" y2="687.148" gradientUnits="userSpaceOnUse">
<stop stop-color="#FDABAD"/>
<stop offset="1" stop-color="#FB80B4"/>
</linearGradient>
<linearGradient id="paint3_linear_265_3584" x1="435.352" y1="689.593" x2="480.381" y2="689.593" gradientUnits="userSpaceOnUse">
<stop stop-color="#FDABAD"/>
<stop offset="1" stop-color="#FB80B4"/>
</linearGradient>
<linearGradient id="paint4_linear_265_3584" x1="523.515" y1="282.653" x2="491.01" y2="204.421" gradientUnits="userSpaceOnUse">
<stop stop-color="#3B234C"/>
<stop offset="0.34" stop-color="#402450"/>
<stop offset="0.75" stop-color="#4F2A5C"/>
<stop offset="1" stop-color="#5C2F67"/>
</linearGradient>
<linearGradient id="paint5_linear_265_3584" x1="368.324" y1="230.1" x2="369.865" y2="209.268" gradientUnits="userSpaceOnUse">
<stop stop-color="#75BFFF"/>
<stop offset="0.33" stop-color="#7AC1FF"/>
<stop offset="0.74" stop-color="#89C9FF"/>
<stop offset="1" stop-color="#97D1FF"/>
</linearGradient>
</defs>
</svg>
