<svg width="68" height="87" viewBox="0 0 68 87" fill="none" xmlns="http://www.w3.org/2000/svg">
<path d="M2.17004 14.578C13.4552 14.578 24.4511 10.8164 33.132 3.87168L34.0001 3.00345L34.8682 3.87168C43.5491 10.8164 54.5449 14.578 65.8301 14.578C62.0684 26.1526 60.0428 34.8335 60.0428 40.6208C60.0428 46.408 62.0684 49.3017 65.8301 49.3017V57.9826C44.7066 75.3444 34.0001 84.0254 34.0001 84.0254C34.0001 84.0254 23.2936 75.3444 2.17004 57.9826V49.3017C5.93178 46.9868 7.95732 44.0931 7.95732 40.6208C7.95732 32.5186 5.93178 23.8377 2.17004 14.578Z" fill="url(#paint0_linear_36_14417)"/>
<path fill-rule="evenodd" clip-rule="evenodd" d="M33.9999 0.925293C34.5511 0.925293 35.0798 1.14429 35.4695 1.53409L36.2553 2.31996C44.5418 8.91493 55.0396 12.4999 65.83 12.4999C66.4952 12.4999 67.1203 12.8183 67.5113 13.3566C67.9023 13.8948 68.012 14.5877 67.8064 15.2204C64.0452 26.7934 62.1209 35.1951 62.1209 40.6208C62.1209 43.3316 62.6058 45.0171 63.2482 45.9688C63.8 46.7863 64.5681 47.2235 65.83 47.2235C66.9777 47.2235 67.9081 48.154 67.9081 49.3017V57.9826C67.9081 58.6043 67.6298 59.1934 67.1495 59.5881C56.586 68.2705 48.6266 74.7827 43.3078 79.1246C40.6484 81.2956 38.649 82.924 37.3144 84.0098C36.647 84.5527 36.1458 84.96 35.8114 85.2316L35.3108 85.638L35.3089 85.6395L33.9999 84.0254L32.6909 85.6395L32.689 85.638L32.1884 85.2316C31.854 84.96 31.3528 84.5527 30.6855 84.0098C29.3508 82.924 27.3515 81.2956 24.692 79.1246C19.3732 74.7827 11.4139 68.2705 0.850294 59.5881C0.370012 59.1934 0.091684 58.6043 0.091684 57.9826V49.3017C0.091684 48.58 0.466079 47.91 1.0807 47.5318C4.47224 45.4447 5.87896 43.1247 5.87896 40.6208C5.87896 32.861 3.93764 24.451 0.2445 15.3602C-0.0157906 14.7195 0.0596937 13.9913 0.445866 13.4176C0.832039 12.8439 1.4783 12.4999 2.16987 12.4999C12.9602 12.4999 23.458 8.91493 31.7446 2.31995L32.5303 1.53409C32.92 1.14429 33.4487 0.925293 33.9999 0.925293ZM33.9999 5.8347C25.7895 12.2545 15.6712 15.9724 5.17758 16.5706C8.32105 24.9845 10.0353 33.0087 10.0353 40.6208C10.0353 44.6962 7.8082 47.9518 4.24805 50.4252V57.0006C14.4312 65.3689 22.1332 71.6703 27.3204 75.9048C29.9781 78.0743 31.9756 79.7013 33.3085 80.7857C33.5633 80.9929 33.7937 81.1804 33.9999 81.348C34.2061 81.1804 34.4366 80.9929 34.6913 80.7857C36.0242 79.7013 38.0218 78.0743 40.6794 75.9048C45.8666 71.6703 53.5686 65.3689 63.7518 57.0006V51.1221C62.1546 50.7022 60.7969 49.7663 59.8032 48.2942C58.4923 46.3522 57.9645 43.6972 57.9645 40.6208C57.9645 34.9486 59.7743 26.8842 63.0082 16.5808C52.4482 16.0162 42.2588 12.2924 33.9999 5.8347ZM33.9999 84.0254L32.6909 85.6395C33.4539 86.2581 34.546 86.2581 35.3089 85.6395L33.9999 84.0254Z" fill="#048390"/>
<path d="M29.152 23.5544H38.8798V38.4387H29.152V23.5544Z" fill="white"/>
<path d="M14.2679 48.1668L14.2679 38.439L29.1522 38.439L29.1522 48.1668L14.2679 48.1668Z" fill="#F80D38"/>
<path d="M53.7321 48.0757L53.7321 38.3478L38.8478 38.3478L38.8478 48.0757L53.7321 48.0757Z" fill="#F80D38"/>
<path d="M38.8799 63.4745L29.152 63.4745L29.152 48.1669L38.8799 48.1669L38.8799 63.4745Z" fill="white"/>
<defs>
<linearGradient id="paint0_linear_36_14417" x1="34.0001" y1="3.00345" x2="34.0001" y2="84.0254" gradientUnits="userSpaceOnUse">
<stop stop-color="#048390"/>
<stop offset="1" stop-color="#09626B"/>
</linearGradient>
</defs>
</svg>
