<svg width="30" height="36" viewBox="0 0 30 36" fill="none" xmlns="http://www.w3.org/2000/svg">
<path fill-rule="evenodd" clip-rule="evenodd" d="M2 12C0.89543 12 0 12.8954 0 14V34C0 35.1046 0.89543 36 2 36H28C29.1046 36 30 35.1046 30 34V14C30 12.8954 29.1046 12 28 12H2ZM6 20H23.9999V18H6V20ZM23.9999 25H6V23H23.9999V25ZM6 30H23.9999V28H6V30Z" fill="#6B6C7E"/>
<path fill-rule="evenodd" clip-rule="evenodd" d="M21 12V10C21 6.6863 18.3137 4 15 4C11.6863 4 9 6.6863 9 10V12H21ZM15 0C9.4772 0 5 4.4772 5 10V16H25V10C25 4.4772 20.5228 0 15 0Z" fill="#6B6C7E"/>
</svg>
