<svg width="17" height="17" viewBox="0 0 17 17" fill="none" xmlns="http://www.w3.org/2000/svg">
<path d="M11.473 3.15039C10.8732 3.14997 10.2793 3.2678 9.72507 3.49712C9.17088 3.72645 8.66733 4.06278 8.24323 4.48688C7.81913 4.91098 7.4828 5.41453 7.25347 5.96872C7.02414 6.52292 6.90632 7.11689 6.90674 7.71665C6.90674 11.1413 11.473 16.1973 11.473 16.1973C11.473 16.1973 16.0401 11.139 16.0401 7.71665C16.0405 7.11682 15.9226 6.52279 15.6933 5.96854C15.4639 5.41429 15.1275 4.91071 14.7033 4.4866C14.2791 4.06249 13.7755 3.72617 13.2212 3.49689C12.6669 3.26761 12.0728 3.14987 11.473 3.15039ZM11.473 9.34792C11.1504 9.34792 10.835 9.25225 10.5667 9.073C10.2985 8.89375 10.0894 8.63899 9.96591 8.34091C9.84244 8.04284 9.81014 7.71484 9.87308 7.39841C9.93602 7.08198 10.0914 6.79131 10.3195 6.56318C10.5477 6.33504 10.8383 6.17968 11.1548 6.11673C11.4712 6.05379 11.7992 6.0861 12.0973 6.20956C12.3953 6.33303 12.6501 6.54211 12.8293 6.81037C13.0086 7.07863 13.1043 7.39402 13.1043 7.71665C13.1043 8.14929 12.9324 8.56421 12.6265 8.87013C12.3206 9.17605 11.9056 9.34792 11.473 9.34792Z" fill="black"/>
<path d="M5.37632 0.874025C4.77655 0.873605 4.18259 0.991428 3.62839 1.22076C3.0742 1.45008 2.57065 1.78641 2.14655 2.21052C1.72245 2.63462 1.38612 3.13816 1.15679 3.69236C0.927463 4.24655 0.80964 4.84052 0.81006 5.44029C0.81006 8.86498 5.37632 13.9209 5.37632 13.9209C5.37632 13.9209 9.94338 8.86259 9.94338 5.44029C9.9438 4.84045 9.82595 4.24642 9.59657 3.69217C9.3672 3.13793 9.03079 2.63434 8.60661 2.21023C8.18242 1.78612 7.67878 1.44981 7.1245 1.22053C6.57021 0.991245 5.97616 0.8735 5.37632 0.874025ZM5.37632 7.07155C5.05369 7.07155 4.7383 6.97588 4.47004 6.79663C4.20178 6.61739 3.9927 6.36262 3.86923 6.06454C3.74576 5.76647 3.71346 5.43848 3.7764 5.12204C3.83934 4.80561 3.99471 4.51495 4.22284 4.28681C4.45098 4.05867 4.74164 3.90331 5.05808 3.84037C5.37451 3.77742 5.7025 3.80973 6.00058 3.93319C6.29865 4.05666 6.55342 4.26574 6.73267 4.534C6.91191 4.80226 7.00759 5.11765 7.00759 5.44029C7.00759 5.87292 6.83572 6.28784 6.5298 6.59376C6.22388 6.89969 5.80896 7.07155 5.37632 7.07155Z" fill="black"/>
</svg>
