<svg width="156" height="151" viewBox="0 0 156 151" fill="none" xmlns="http://www.w3.org/2000/svg">
<g clip-path="url(#clip0_131_1977)">
<path fill-rule="evenodd" clip-rule="evenodd" d="M104.033 -0.000267791C106.478 -0.154623 109.347 0.812128 111.508 1.75451C117.874 4.5654 123.972 7.91247 129.776 11.1702C131.683 12.2425 133.64 13.4449 135.694 14.4847C139.819 16.5645 143.715 18.2136 147.84 20.7971C150.065 22.1863 152.462 23.8598 153.342 26.0695C154.973 30.229 152.959 35.3958 151.476 38.3854C149.707 41.9356 147.865 45.2583 146.177 48.5241C142.631 55.4051 139.224 61.6524 135.49 68.6959C131.757 75.7394 128.414 82.4579 125.105 89.1845C122.659 94.1808 119.782 99.372 117.116 104.393C115.616 107.203 114.393 109.974 111.41 111.119C110.474 111.419 109.486 111.524 108.508 111.428C106.062 111.176 103.731 109.754 101.546 108.739C99.3616 107.723 97.1932 106.521 95.2205 105.424C87.2807 101.029 77.8654 96.7886 69.9909 92.0767C66.1921 89.8101 61.6435 87.0804 59.7115 83.1403C57.4942 78.6559 60.4044 72.3761 62.2059 68.7609C64.0075 65.1457 65.7193 62.1236 67.4964 59.134C69.4202 55.8844 71.2788 52.6349 72.9989 49.6209C76.7897 43.2817 80.2559 36.7552 83.3842 30.0665C84.8433 26.7682 86.6449 23.088 88.2752 20.0253C90.7208 15.3946 93.525 10.2765 96.4759 5.75149C97.3893 4.22788 98.5084 2.83652 99.8018 1.6164C101 0.637159 102.484 0.0700999 104.033 -0.000267791Z" fill="#C1D5E8"/>
<path d="M126.841 16.7674C126.931 16.7674 127.061 16.7674 127.069 16.873C128.618 16.5724 129.352 14.907 130.02 13.729C130.346 13.1603 130.713 12.5429 131.007 11.893L129.776 11.1862L129.107 10.8125C128.708 11.4218 128.292 12.088 127.974 12.746C127.347 13.9321 126.287 15.3375 126.841 16.7674Z" fill="white"/>
<path d="M123.091 23.1695C122.031 24.6544 121.083 26.2158 120.255 27.8407C119.749 28.9781 119.676 30.1723 120.711 30.2292C121.526 30.2292 122.187 28.8969 122.521 28.3851C123.075 27.5727 123.646 26.8171 124.004 26.216C124.999 24.5099 126.042 23.1695 125.928 21.106C124.518 20.0661 123.719 22.2108 123.091 23.1695Z" fill="white"/>
<path d="M116.505 35.7458C114.863 37.704 113.522 39.8943 112.527 42.245C112.241 42.9274 111.842 43.8698 112.641 44.4141C113.619 44.471 114.157 43.5205 114.573 42.8949C115.07 42.1394 115.437 41.327 115.82 40.6121C116.635 39.1092 117.793 37.4844 117.752 35.7377C117.507 35.5509 116.708 35.3965 116.505 35.7458Z" fill="white"/>
<path d="M107.978 50.4251C107.181 51.5087 106.498 52.6712 105.94 53.8941C105.573 54.5521 103.707 56.9243 104.799 57.5905C105.435 57.9723 106.429 56.8999 106.731 56.5019C107.19 55.8381 107.607 55.1462 107.978 54.4303C108.891 52.9679 109.861 51.6844 109.796 49.9783C109.152 49.4909 108.418 49.9783 107.978 50.4251Z" fill="white"/>
<path d="M101.505 64.1065C101.505 64.2446 101.302 64.2039 101.277 64.3177C100.055 65.3546 99.0849 66.6546 98.4404 68.1197C98.0165 68.9321 96.0601 72.003 97.1932 72.5716C98.0084 72.9941 98.7176 71.8242 99.117 71.2637C100.074 69.8913 100.911 68.4399 101.62 66.9255C101.995 66.1699 102.655 65.3738 102.435 64.4314C102.172 64.2196 101.844 64.1049 101.505 64.1065Z" fill="white"/>
<path d="M93.3213 78.8672C92.3996 80.0734 91.5659 81.344 90.8268 82.6692C90.46 83.3191 88.3813 86.4306 89.9138 86.6824C90.6638 86.8043 91.2833 85.7563 91.6257 85.2689C92.0985 84.5946 92.5387 83.8391 92.8729 83.3191C93.7859 81.8893 94.7152 80.6057 94.5766 78.8672C94.3321 78.6479 93.5332 78.5016 93.3213 78.8672Z" fill="white"/>
<path d="M86.6204 93.1983C86.3758 92.9789 85.5769 92.8327 85.3731 93.1983C84.4593 94.1404 83.7271 95.2419 83.2129 96.4478C82.8177 97.1701 82.4876 97.9259 82.2266 98.7063L83.8569 99.5187C84.4141 98.8042 84.895 98.0337 85.2916 97.2196C86.009 95.8629 86.7508 94.6931 86.6204 93.1983Z" fill="white"/>
<path opacity="0.38" fill-rule="evenodd" clip-rule="evenodd" d="M105.687 83.4976C105.492 84.2612 104.554 84.1638 104.057 84.31C100.34 85.3661 96.8591 87.7627 96.7694 92.6208C96.7351 93.8202 96.9628 95.0128 97.4369 96.1158C97.9109 97.2188 98.6198 98.206 99.5146 99.0089C100.409 99.8117 101.469 100.411 102.619 100.766C103.769 101.12 104.983 101.221 106.177 101.062C108.179 100.846 110.026 99.8819 111.345 98.3644C111.777 97.8851 112.16 96.8453 113.228 97.3083C114.124 99.0387 112.16 100.371 110.994 101.175C109.379 102.277 107.482 102.896 105.526 102.958C103.57 103.019 101.636 102.522 99.9548 101.524C98.2731 100.527 96.913 99.0702 96.0351 97.327C95.1572 95.5837 94.7982 93.6266 95.0005 91.6865C95.3918 87.5352 98.8318 83.4976 103.152 83.0183C103.585 82.9221 104.034 82.915 104.469 82.9974C104.905 83.0798 105.32 83.25 105.687 83.4976Z" fill="#334F70"/>
<path fill-rule="evenodd" clip-rule="evenodd" d="M104.628 86.9267C105.95 86.7834 107.287 86.985 108.508 87.5116C109.652 88.1914 110.552 89.214 111.079 90.4336C111.606 91.6531 111.733 93.0074 111.443 94.3032C110.758 96.9191 106.372 100.291 102.476 98.3652C101.074 97.5633 100.025 96.2679 99.5329 94.7338C99.1362 93.2539 99.2721 91.6823 99.9169 90.2918C100.562 88.9013 101.675 87.7796 103.063 87.1216C103.574 86.9909 104.1 86.9254 104.628 86.9267Z" fill="white"/>
<path opacity="0.38" fill-rule="evenodd" clip-rule="evenodd" d="M104.742 87.7386C105.956 89.4446 106.674 92.1662 107.098 94.7658C107.22 95.5376 107.685 96.5612 106.975 97.203C105.981 97.4223 105.736 96.3256 105.451 95.5782C105.166 94.8308 104.946 93.9534 104.742 93.2385C104.31 91.6137 103.65 89.2578 103.927 88.0798C103.918 88.0031 103.937 87.9258 103.98 87.8618C104.024 87.7978 104.088 87.7512 104.163 87.7305L104.742 87.7386Z" fill="#334F70"/>
<path opacity="0.38" fill-rule="evenodd" clip-rule="evenodd" d="M118.111 63.1799C117.915 63.9435 116.969 63.8542 116.48 63.9923C112.747 65.0565 109.233 67.4287 109.176 72.3031C109.139 73.5036 109.365 74.6977 109.838 75.8024C110.311 76.9071 111.02 77.8959 111.915 78.6999C112.811 79.504 113.871 80.1041 115.023 80.4585C116.174 80.8129 117.389 80.913 118.584 80.752C120.585 80.5389 122.432 79.5781 123.752 78.063C124.184 77.5836 124.567 76.5438 125.635 77.0068C126.531 78.7373 124.567 80.0615 123.401 80.8739C121.786 81.9758 119.889 82.5942 117.933 82.6561C115.977 82.7179 114.043 82.2206 112.362 81.2229C110.68 80.2252 109.32 78.7687 108.442 77.0255C107.564 75.2823 107.205 73.3251 107.407 71.3851C107.799 67.2337 111.239 63.188 115.559 62.7087C115.994 62.6114 116.445 62.603 116.883 62.684C117.322 62.765 117.739 62.9337 118.111 63.1799Z" fill="#334F70"/>
<path fill-rule="evenodd" clip-rule="evenodd" d="M117.051 66.6161C118.373 66.4769 119.709 66.6783 120.931 67.201C122.069 67.873 122.968 68.8827 123.501 70.0889C124.035 71.295 124.176 72.6372 123.907 73.9276C123.222 76.5354 118.836 79.9069 114.94 77.9896C113.543 77.1806 112.497 75.8836 112.005 74.3501C111.611 72.8711 111.747 71.3015 112.39 69.9119C113.033 68.5223 114.142 67.3998 115.527 66.7379C116.028 66.6364 116.54 66.5955 117.051 66.6161Z" fill="white"/>
<path opacity="0.38" fill-rule="evenodd" clip-rule="evenodd" d="M117.165 67.4287C118.38 69.1347 119.097 71.8563 119.521 74.4559C119.643 75.2683 120.1 76.2513 119.399 76.8931C118.404 77.1125 118.159 76.0157 117.874 75.2683C117.589 74.5209 117.369 73.6435 117.165 72.9286C116.733 71.3038 116.073 68.9479 116.35 67.778C116.342 67.7036 116.359 67.6287 116.399 67.5653C116.439 67.502 116.499 67.4538 116.57 67.4287H117.165Z" fill="#334F70"/>
<path opacity="0.38" fill-rule="evenodd" clip-rule="evenodd" d="M128.659 43.0566C128.463 43.8283 127.526 43.7309 127.029 43.869C123.311 44.9251 119.831 47.3216 119.741 52.1879C119.707 53.3871 119.934 54.5794 120.408 55.6821C120.882 56.7848 121.592 57.7715 122.486 58.5737C123.381 59.376 124.441 59.9746 125.591 60.3281C126.742 60.6815 127.955 60.7813 129.148 60.6206C131.15 60.4074 132.997 59.4466 134.316 57.9315C134.748 57.4522 135.132 56.4124 136.199 56.8754C137.096 58.6058 135.132 59.9381 133.966 60.7424C132.353 61.8474 130.456 62.4691 128.5 62.5342C126.543 62.5993 124.609 62.1051 122.925 61.1099C121.242 60.1146 119.879 58.66 118.999 56.9178C118.118 55.1756 117.756 53.2186 117.956 51.278C118.347 47.1267 121.787 43.0809 126.108 42.6098C126.541 42.5103 126.99 42.4987 127.429 42.5754C127.867 42.6522 128.285 42.8158 128.659 43.0566Z" fill="#334F70"/>
<path fill-rule="evenodd" clip-rule="evenodd" d="M127.599 46.469C128.922 46.3323 130.258 46.5365 131.48 47.062C132.623 47.7427 133.522 48.7655 134.049 49.9848C134.576 51.2041 134.704 52.5579 134.414 53.8536C133.73 56.4614 129.344 59.8329 125.488 57.9156C124.087 57.1137 123.037 55.8184 122.545 54.2842C122.15 52.8032 122.286 51.2309 122.931 49.8395C123.575 48.448 124.687 47.3247 126.075 46.6639C126.573 46.5366 127.085 46.4711 127.599 46.469Z" fill="white"/>
<path opacity="0.38" fill-rule="evenodd" clip-rule="evenodd" d="M127.722 47.2894C128.928 48.9954 129.645 51.7169 130.069 54.3247C130.192 55.0884 130.656 56.112 129.947 56.7619C128.953 56.9813 128.708 55.8926 128.423 55.1371C128.137 54.3816 127.917 53.5123 127.722 52.7893C127.281 51.1645 126.621 48.8086 126.906 47.6387C126.897 47.5609 126.916 47.4825 126.959 47.4171C127.003 47.3517 127.068 47.3036 127.143 47.2812L127.722 47.2894Z" fill="#334F70"/>
<path opacity="0.38" fill-rule="evenodd" clip-rule="evenodd" d="M139.851 21.3496C139.656 22.1214 138.718 22.0239 138.221 22.162C134.504 23.2181 131.031 25.6147 130.933 30.4809C130.899 31.6801 131.126 32.8724 131.601 33.9751C132.075 35.0778 132.784 36.0645 133.679 36.8668C134.574 37.6691 135.633 38.2677 136.783 38.6211C137.934 38.9746 139.147 39.0744 140.34 38.9136C142.345 38.7031 144.193 37.7385 145.509 36.2164C145.941 35.7371 146.324 34.7054 147.392 35.1685C148.296 36.8989 146.332 38.2231 145.158 39.0355C143.543 40.1392 141.645 40.7587 139.688 40.8208C137.731 40.8829 135.797 40.3849 134.115 39.3857C132.434 38.3865 131.074 36.928 130.198 35.1829C129.322 33.4378 128.966 31.479 129.172 29.5386C129.556 25.3872 132.996 21.3496 137.283 20.8784C137.721 20.7764 138.175 20.7656 138.617 20.8467C139.059 20.9278 139.479 21.099 139.851 21.3496Z" fill="#334F70"/>
<path fill-rule="evenodd" clip-rule="evenodd" d="M138.792 24.7453C140.114 24.6054 141.45 24.8068 142.672 25.3303C143.818 26.0112 144.719 27.0349 145.247 28.2556C145.776 29.4764 145.904 30.8322 145.615 32.13C144.922 34.7378 140.536 38.1092 136.648 36.192C135.243 35.3938 134.192 34.097 133.705 32.5606C133.313 31.0807 133.451 29.511 134.096 28.1216C134.74 26.7323 135.85 25.6102 137.235 24.9484C137.743 24.8156 138.266 24.7474 138.792 24.7453Z" fill="white"/>
<path opacity="0.38" fill-rule="evenodd" clip-rule="evenodd" d="M138.914 25.5657C140.12 27.2718 140.838 29.9933 141.262 32.593C141.384 33.4054 141.849 34.3884 141.147 35.0301C140.153 35.2495 139.9 34.1528 139.615 33.4054C139.33 32.658 139.11 31.7806 138.914 31.0657C138.482 29.4409 137.813 27.0849 138.099 25.9069C138.088 25.83 138.107 25.7518 138.15 25.6874C138.194 25.623 138.26 25.5768 138.335 25.5576L138.914 25.5657Z" fill="#334F70"/>
<path opacity="0.38" fill-rule="evenodd" clip-rule="evenodd" d="M76.39 68.0223C76.1944 68.8347 75.2488 68.7048 74.7597 68.8347C71.0262 69.9071 67.5454 72.3037 67.4557 77.178C67.4216 78.3767 67.6491 79.5684 68.1227 80.6708C68.5962 81.7732 69.3044 82.7599 70.1983 83.5626C71.0922 84.3654 72.1503 84.965 73.2996 85.32C74.4489 85.6751 75.6619 85.777 76.8547 85.6188C78.8594 85.4016 80.708 84.4384 82.031 82.9217C82.4631 82.4424 82.8462 81.4025 83.9141 81.8656C84.8108 83.596 82.8462 84.9283 81.6805 85.7326C80.0652 86.8369 78.1662 87.4568 76.2083 87.5186C74.2504 87.5804 72.3158 87.0817 70.6336 86.0815C68.9514 85.0812 67.5922 83.6214 66.7169 81.875C65.8416 80.1286 65.4869 78.1687 65.6949 76.2275C66.078 72.0762 69.5181 68.0386 73.8467 67.5593C74.2801 67.4634 74.7285 67.4549 75.1653 67.5344C75.6021 67.614 76.0186 67.7799 76.39 68.0223Z" fill="#334F70"/>
<path fill-rule="evenodd" clip-rule="evenodd" d="M75.3303 71.4257C76.6527 71.2824 77.9898 71.484 79.2105 72.0106C80.3541 72.6913 81.2533 73.714 81.7802 74.9333C82.307 76.1526 82.4347 77.5064 82.1451 78.8022C81.4604 81.4181 77.0666 84.7896 73.1782 82.8642C71.783 82.0571 70.7374 80.7633 70.2436 79.2328C69.8469 77.7529 69.9828 76.1813 70.6275 74.7908C71.2723 73.4003 72.3853 72.2787 73.7733 71.6207C74.282 71.4906 74.8051 71.4251 75.3303 71.4257Z" fill="white"/>
<path opacity="0.38" fill-rule="evenodd" clip-rule="evenodd" d="M75.4445 72.2386C76.6265 73.9284 77.3765 76.6743 77.8004 79.2739C77.9226 80.0863 78.3873 81.0693 77.6862 81.7111C76.6836 81.9305 76.439 80.8337 76.1537 80.0863C75.8684 79.3389 75.6483 78.4615 75.4445 77.7385C75.0125 76.1137 74.3522 73.7659 74.6293 72.5879C74.6219 72.5104 74.6413 72.4327 74.6843 72.3676C74.7273 72.3026 74.7913 72.2542 74.8657 72.2305L75.4445 72.2386Z" fill="#334F70"/>
<path opacity="0.38" fill-rule="evenodd" clip-rule="evenodd" d="M88.8541 47.7122C88.6585 48.4759 87.7129 48.3865 87.2238 48.5246C83.4495 49.5563 79.9687 51.9935 79.8872 56.8679C79.8529 58.0663 80.0804 59.2578 80.554 60.3598C81.0276 61.4619 81.736 62.4481 82.63 63.2503C83.524 64.0524 84.5824 64.6512 85.7317 65.0052C86.881 65.3593 88.0939 65.46 89.2861 65.3006C91.2909 65.0894 93.1407 64.1285 94.4625 62.6115C94.8945 62.1241 95.2777 61.0924 96.3456 61.5554C97.2423 63.2858 95.2777 64.61 94.112 65.4224C92.4954 66.5288 90.5943 67.1501 88.6343 67.2125C86.6742 67.2749 84.7372 66.7759 83.053 65.7747C81.3688 64.7734 80.008 63.3119 79.1319 61.5633C78.2559 59.8148 77.9012 57.8526 78.1101 55.9093C78.5014 51.7661 81.9414 47.7203 86.2618 47.241C86.7032 47.138 87.1612 47.1266 87.6072 47.2077C88.0532 47.2888 88.4776 47.4605 88.8541 47.7122Z" fill="#334F70"/>
<path fill-rule="evenodd" clip-rule="evenodd" d="M87.7536 51.1083C89.076 50.9691 90.412 51.1705 91.6339 51.6932C92.7767 52.3764 93.6745 53.4011 94.1998 54.6217C94.7251 55.8423 94.8513 57.1968 94.5603 58.4929C93.8756 61.1007 89.4818 64.4722 85.5934 62.5549C84.1966 61.7459 83.1509 60.4489 82.6588 58.9154C82.2632 57.4364 82.3986 55.8662 83.0416 54.4762C83.6847 53.0862 84.7949 51.9638 86.1804 51.3032C86.6946 51.1732 87.2231 51.1077 87.7536 51.1083Z" fill="white"/>
<path opacity="0.38" fill-rule="evenodd" clip-rule="evenodd" d="M87.8676 51.928C89.0822 53.6341 89.7996 56.3556 90.2235 58.9553C90.3457 59.7677 90.8022 60.7507 90.1012 61.3925C89.1067 61.6118 88.8621 60.5151 88.5768 59.7677C88.2915 59.0203 88.0714 58.1429 87.8676 57.428C87.4356 55.8032 86.7753 53.4472 87.0524 52.2692C87.0438 52.1925 87.0628 52.1152 87.1061 52.0512C87.1494 51.9872 87.2142 51.9407 87.2888 51.9199L87.8676 51.928Z" fill="#334F70"/>
<path opacity="0.38" fill-rule="evenodd" clip-rule="evenodd" d="M99.3616 27.6218C99.1659 28.3854 98.2285 28.296 97.7312 28.4342C94.014 29.4984 90.5332 31.8868 90.4436 36.7531C90.4091 37.9523 90.6367 39.1445 91.1108 40.2472C91.5849 41.3499 92.294 42.3367 93.189 43.1389C94.084 43.9412 95.1434 44.5398 96.2937 44.8933C97.4441 45.2467 98.6578 45.3465 99.8507 45.1858C101.853 44.9726 103.699 44.0118 105.019 42.4967C105.451 42.0174 105.834 40.9775 106.902 41.4406C107.799 43.171 105.834 44.4952 104.668 45.3076C103.054 46.4107 101.157 47.03 99.2008 47.0923C97.2446 47.1546 95.3115 46.6573 93.63 45.6592C91.9485 44.6611 90.589 43.2039 89.7123 41.4601C88.8356 39.7162 88.4783 37.7586 88.6828 35.8188C89.0659 31.6675 92.506 27.6218 96.8345 27.1424C97.2666 27.0511 97.7126 27.0465 98.1464 27.1288C98.5803 27.2111 98.9934 27.3786 99.3616 27.6218Z" fill="#334F70"/>
<path fill-rule="evenodd" clip-rule="evenodd" d="M98.3019 31.0095C99.6236 30.8634 100.961 31.0621 102.182 31.5863C103.327 32.2675 104.228 33.2916 104.755 34.5125C105.281 35.7335 105.408 37.0891 105.117 38.3861C104.432 40.9939 100.038 44.3653 96.1499 42.4481C94.7546 41.641 93.7091 40.3472 93.2152 38.8167C92.8214 37.3356 92.9584 35.764 93.6028 34.3729C94.2472 32.9818 95.3584 31.8584 96.7449 31.1964C97.2532 31.0652 97.7769 31.0023 98.3019 31.0095Z" fill="white"/>
<path opacity="0.38" fill-rule="evenodd" clip-rule="evenodd" d="M98.416 31.8213C99.6306 33.5273 100.348 36.2488 100.772 38.8566C100.894 39.6203 101.359 40.6439 100.658 41.2938C99.655 41.5132 99.4105 40.4164 99.1251 39.669C98.8398 38.9216 98.6197 38.0442 98.416 37.3293C97.9839 35.7045 97.3236 33.3486 97.6008 32.1787C97.5882 32.1005 97.6055 32.0204 97.6492 31.9542C97.693 31.888 97.76 31.8406 97.8372 31.8213H98.416Z" fill="#334F70"/>
<path opacity="0.38" fill-rule="evenodd" clip-rule="evenodd" d="M110.554 5.8819C110.358 6.64556 109.421 6.55619 108.924 6.6943C105.215 7.75042 101.726 10.147 101.636 15.0132C101.601 16.2115 101.827 17.4031 102.3 18.5055C102.772 19.6079 103.48 20.5947 104.373 21.3976C105.266 22.2005 106.324 22.8003 107.473 23.1553C108.622 23.5104 109.834 23.6123 111.027 23.454C113.031 23.2419 114.879 22.2776 116.195 20.7569C116.627 20.2857 117.01 19.2458 118.078 19.7089C118.983 21.4393 117.018 22.7635 115.844 23.5678C114.23 24.6708 112.333 25.2901 110.377 25.3524C108.421 25.4147 106.487 24.9174 104.806 23.9193C103.125 22.9212 101.765 21.4641 100.888 19.7202C100.012 17.9764 99.6543 16.0188 99.8588 14.079C100.242 9.92764 103.682 5.89003 107.97 5.41072C108.41 5.31028 108.866 5.30026 109.311 5.38127C109.755 5.46228 110.178 5.63262 110.554 5.8819Z" fill="#334F70"/>
<path fill-rule="evenodd" clip-rule="evenodd" d="M109.494 9.27755C110.817 9.13764 112.153 9.33907 113.375 9.86248C114.521 10.5425 115.423 11.5661 115.952 12.7871C116.48 14.0082 116.608 15.3644 116.317 16.6622C115.624 19.27 111.239 22.6415 107.35 20.7242C105.946 19.926 104.895 18.6292 104.408 17.0928C104.016 15.6129 104.154 14.0432 104.798 12.6538C105.442 11.2645 106.553 10.1424 107.937 9.48065C108.446 9.34784 108.969 9.2796 109.494 9.27755Z" fill="white"/>
<path opacity="0.38" fill-rule="evenodd" clip-rule="evenodd" d="M109.617 10.098C110.823 11.804 111.54 14.5255 111.964 17.1252C112.087 17.9376 112.551 18.9206 111.85 19.5624C110.847 19.7817 110.603 18.685 110.318 17.9376C110.032 17.1902 109.82 16.3128 109.617 15.5979C109.184 13.9731 108.516 11.6171 108.801 10.4392C108.791 10.3622 108.809 10.2841 108.853 10.2197C108.896 10.1553 108.962 10.1091 109.038 10.0898L109.617 10.098Z" fill="#334F70"/>
<path fill-rule="evenodd" clip-rule="evenodd" d="M0.5625 69.9882L3.87211 74.1639C5.50246 76.2193 10.1979 75.22 14.3716 71.9298C18.5453 68.6396 20.5995 64.3177 18.961 62.2623L15.6514 58.0947L0.5625 69.9882Z" fill="#E8BD54"/>
<path opacity="0.14" fill-rule="evenodd" clip-rule="evenodd" d="M0.5625 69.9882L3.87211 74.1639C5.50246 76.2193 10.1979 75.22 14.3716 71.9298C18.5453 68.6396 20.5995 64.3177 18.961 62.2623L15.6514 58.0947L0.5625 69.9882Z" fill="#334F70"/>
<path fill-rule="evenodd" clip-rule="evenodd" d="M15.6513 58.0947C17.2817 60.1419 15.2274 64.472 11.0537 67.7622C6.88002 71.0524 2.18461 72.0435 0.562415 69.9882C-1.05978 67.9328 0.986306 63.6109 5.15185 60.3207C9.31739 57.0305 14.021 56.0556 15.6513 58.0947Z" fill="#E8BD54"/>
<path d="M14.5183 57.2821C14.0937 57.1308 13.6483 57.0458 13.1977 57.0303C12.3825 57.8427 11.3635 58.8744 10.3935 59.9062C8.76312 61.6447 6.88822 63.6838 5.3883 65.4142C3.88837 67.1446 1.97271 69.2 1.2146 70.5648C1.52986 70.7509 1.87434 70.8827 2.23357 70.9547C5.14374 68.5907 9.26038 63.7163 12.4966 59.768C13.108 59.0206 13.9802 58.1026 14.5183 57.2821Z" fill="white"/>
<path fill-rule="evenodd" clip-rule="evenodd" d="M55.9292 44.3811L56.2471 49.686C56.4102 52.3019 60.8447 54.1461 66.1515 53.8211C71.4583 53.4961 75.6238 51.0996 75.4608 48.4918L75.1266 43.1787L55.9292 44.3811Z" fill="#E8BD54"/>
<path opacity="0.14" fill-rule="evenodd" clip-rule="evenodd" d="M55.9292 44.3811L56.2471 49.686C56.4183 52.3019 60.8447 54.1542 66.1515 53.8211C71.4583 53.488 75.6238 51.0996 75.4608 48.4918L75.1266 43.1787L55.9292 44.3811Z" fill="#334F70"/>
<path fill-rule="evenodd" clip-rule="evenodd" d="M75.1428 43.1786C75.3059 45.7945 71.1403 48.1829 65.8335 48.516C60.5267 48.8491 56.0514 46.9887 55.9292 44.3809C55.8069 41.7731 59.9398 39.3766 65.214 39.0435C70.4882 38.7104 74.9961 40.5708 75.1428 43.1786Z" fill="#E8BD54"/>
<path d="M74.6699 41.8704C74.4112 41.5051 74.0946 41.184 73.7325 40.9199C72.5912 41.0662 71.1647 41.383 69.787 41.6836C67.4475 42.1791 64.7411 42.7966 62.5157 43.3652C60.2903 43.9339 57.5513 44.527 56.1492 45.2256C56.3011 45.5536 56.5048 45.8553 56.7524 46.1193C60.5022 45.8349 66.6649 44.1695 71.5886 42.7641C72.5505 42.496 73.7569 42.2441 74.6699 41.8704Z" fill="white"/>
<path fill-rule="evenodd" clip-rule="evenodd" d="M27.4552 58.1996C26.5878 57.6288 25.7549 57.0076 24.9607 56.3393C22.5967 54.1458 20.8278 50.2138 24.439 48.2153C25.7514 47.4923 27.8872 47.5816 29.4523 48.1178C32.318 49.2963 35.0216 50.8332 37.4981 52.6916C40.1963 54.6413 43.6282 57.2166 44.4923 59.1908C44.7434 59.7537 44.8793 60.3609 44.8919 60.9768C44.9046 61.5928 44.7938 62.205 44.566 62.7777C44.3383 63.3505 43.9982 63.8721 43.5656 64.3122C43.133 64.7523 42.6167 65.1019 42.0468 65.3406C39.5523 66.3886 36.7971 64.5282 33.7646 62.5622C31.5392 61.173 29.5909 59.7513 27.4552 58.1996Z" fill="#334F70"/>
<path d="M24.9606 56.3399C25.7548 57.0082 26.5877 57.6294 27.455 58.2003C28.58 59.0127 29.6479 59.8251 30.7157 60.5644C30.512 57.3148 31.319 53.1797 36.5116 52.0342C34.3175 50.4511 31.9388 49.139 29.4278 48.1266C27.8626 47.5904 25.7269 47.501 24.4144 48.2241C20.8277 50.2144 22.5966 54.1464 24.9606 56.3399Z" fill="#C64F69"/>
<path fill-rule="evenodd" clip-rule="evenodd" d="M33.895 60.1177C33.4711 59.2484 32.1016 58.3792 30.6995 57.6074C30.1045 57.2743 29.1263 56.795 28.7676 57.2499C28.4089 57.7049 29.3463 58.6229 29.7132 58.8747C30.8209 59.7221 32.0793 60.3533 33.4222 60.7351C33.5441 60.6763 33.6503 60.5898 33.7324 60.4825C33.8146 60.3753 33.8703 60.2503 33.895 60.1177Z" fill="white"/>
<path fill-rule="evenodd" clip-rule="evenodd" d="M31.5392 56.2747C32.6641 55.2105 29.9088 53.1795 29.2893 54.2843C29.004 54.7637 29.9496 56.2422 30.7566 56.4941C30.8949 56.5289 31.0399 56.527 31.1773 56.4885C31.3146 56.4501 31.4394 56.3763 31.5392 56.2747Z" fill="white"/>
<path d="M53.4183 15.8581C52.3821 18.4042 51.6886 21.0758 51.356 23.8033C51.0217 26.7604 52.0733 29.0839 54.0542 29.7013C56.247 30.3918 58.2686 28.4989 59.4506 27.0122C61.081 25.0138 62.2385 22.1379 63.2249 19.3026C60.5756 14.9319 56.1247 15.1919 53.4183 15.8581Z" fill="#FF8C9B"/>
<path d="M61.6028 3.94059C61.1418 3.99391 60.688 4.09743 60.2496 4.2493C57.5677 5.52477 55.8558 9.93607 54.6494 12.8445C54.2255 13.8518 53.8342 14.8511 53.4185 15.8584C56.1248 15.1923 60.5757 14.9323 63.2006 19.303C63.5918 18.1656 63.9587 17.0283 64.3092 15.9478C65.0902 13.9118 65.6371 11.7942 65.9395 9.63549C66.2493 5.89847 64.5945 3.55064 61.6028 3.94059Z" fill="#25364F"/>
<path fill-rule="evenodd" clip-rule="evenodd" d="M59.3773 8.42466C59.3773 9.4889 58.4969 11.0487 57.5106 12.5273C57.0948 13.1528 56.3938 14.1521 55.7824 13.8515C55.171 13.5509 55.6601 12.2267 55.8802 11.7474C56.5323 10.3532 57.4453 9.09587 58.5703 8.04284C58.7263 8.03303 58.8822 8.06293 59.0234 8.12973C59.1646 8.19652 59.2864 8.29802 59.3773 8.42466Z" fill="white"/>
<path fill-rule="evenodd" clip-rule="evenodd" d="M59.0023 13.3885C60.6327 13.8597 59.0023 17.2474 57.804 16.4838C57.2741 16.1588 57.4616 14.2253 58.1219 13.5592C58.2407 13.4562 58.3846 13.3862 58.5392 13.3563C58.6937 13.3263 58.8535 13.3375 59.0023 13.3885Z" fill="white"/>
<path fill-rule="evenodd" clip-rule="evenodd" d="M53.3857 21.3743C53.9889 21.4881 54.2009 22.3492 54.0378 23.2266C53.9319 23.9253 53.3938 25.217 52.6602 24.8514C52.4449 24.6561 52.286 24.407 52.2 24.1298C52.114 23.8527 52.104 23.5576 52.1711 23.2753C52.3015 22.4223 52.6031 21.2362 53.3857 21.3743Z" fill="white"/>
<path fill-rule="evenodd" clip-rule="evenodd" d="M145.802 45.5752L141.025 47.9311C138.661 49.0685 138.629 53.8616 140.952 58.6304C143.275 63.3992 147.066 66.3319 149.43 65.1864L154.231 62.863L145.802 45.5752Z" fill="#E8BD54"/>
<path opacity="0.14" fill-rule="evenodd" clip-rule="evenodd" d="M145.802 45.5752L141.025 47.9311C138.661 49.0685 138.629 53.8616 140.952 58.6304C143.275 63.3992 147.066 66.3319 149.43 65.1864L154.231 62.863L145.802 45.5752Z" fill="#334F70"/>
<path fill-rule="evenodd" clip-rule="evenodd" d="M154.207 62.8309C151.843 63.9763 148.044 61.0436 145.729 56.2748C143.414 51.5061 143.438 46.7211 145.802 45.5756C148.166 44.4301 151.965 47.371 154.288 52.1316C156.611 56.8923 156.571 61.6935 154.207 62.8309Z" fill="#E8BD54"/>
<path d="M155.242 61.9043C155.484 61.5226 155.665 61.1061 155.78 60.6694C155.201 59.6783 154.361 58.4841 153.563 57.3223C152.217 55.3645 150.62 53.0979 149.242 51.2619C147.997 49.4332 146.613 47.7031 145.101 46.0869C144.849 46.3532 144.645 46.661 144.498 46.9968C146.185 50.3682 150.074 55.397 153.253 59.394C153.848 60.1576 154.557 61.1975 155.242 61.9043Z" fill="white"/>
<path fill-rule="evenodd" clip-rule="evenodd" d="M122.146 112.598L125.154 116.993C126.637 119.154 131.398 118.488 135.751 115.498C140.104 112.509 142.501 108.349 141.025 106.18L138.017 101.785L122.146 112.598Z" fill="#E8BD54"/>
<path opacity="0.14" fill-rule="evenodd" clip-rule="evenodd" d="M122.146 112.598L125.154 116.993C126.637 119.154 131.39 118.488 135.751 115.498C140.112 112.509 142.501 108.349 141.025 106.18L138.017 101.785L122.146 112.598Z" fill="#334F70"/>
<path fill-rule="evenodd" clip-rule="evenodd" d="M138.05 101.785C139.534 103.954 137.17 108.13 132.784 111.111C128.398 114.093 123.629 114.759 122.187 112.598C120.744 110.437 123.067 106.261 127.461 103.272C131.855 100.282 136.566 99.624 138.05 101.785Z" fill="#E8BD54"/>
<path d="M136.949 100.9C136.537 100.721 136.1 100.606 135.653 100.559C134.748 101.274 133.689 102.265 132.653 103.223C130.901 104.848 128.887 106.749 127.265 108.374C125.633 109.88 124.12 111.509 122.741 113.248C123.04 113.457 123.374 113.611 123.727 113.703C126.792 111.55 131.243 106.985 134.757 103.272C135.441 102.541 136.379 101.68 136.949 100.9Z" fill="white"/>
<path fill-rule="evenodd" clip-rule="evenodd" d="M124.086 88.0879C123.214 88.657 122.376 89.2755 121.575 89.9402C119.203 92.1174 117.418 96.0332 121.013 98.0642C122.317 98.7953 124.453 98.7222 126.018 98.1941C128.888 97.0355 131.598 95.5148 134.08 93.6691C136.795 91.7437 140.243 89.1847 141.107 87.1699C141.363 86.6104 141.505 86.0054 141.523 85.3906C141.541 84.7758 141.436 84.1635 141.214 83.5898C140.991 83.016 140.656 82.4924 140.227 82.0497C139.799 81.6071 139.286 81.2542 138.718 81.012C136.273 79.9477 133.469 81.8244 130.42 83.7416C128.186 85.1389 126.23 86.5525 124.086 88.0879Z" fill="#334F70"/>
<path d="M121.575 89.94C122.376 89.2753 123.214 88.6568 124.086 88.0877C125.211 87.2753 126.287 86.463 127.346 85.748C127.126 88.9489 127.909 93.1408 133.102 94.3107C130.894 95.8807 128.505 97.1792 125.985 98.1777C124.42 98.7058 122.284 98.7789 120.98 98.0477C117.385 96.033 119.203 92.1172 121.575 89.94Z" fill="#C64F69"/>
<path fill-rule="evenodd" clip-rule="evenodd" d="M130.542 86.2443C130.11 87.1055 128.732 87.9666 127.33 88.7303C126.727 89.0633 125.749 89.5427 125.39 89.0715C125.032 88.6003 125.985 87.7066 126.352 87.4467C127.455 86.6054 128.708 85.9797 130.045 85.6025C130.174 85.6612 130.287 85.7503 130.373 85.8621C130.46 85.9739 130.518 86.1051 130.542 86.2443Z" fill="white"/>
<path fill-rule="evenodd" clip-rule="evenodd" d="M128.154 90.0456C129.279 91.118 126.523 93.1327 125.896 92.0116C125.61 91.5323 126.572 90.07 127.371 89.8182C127.51 89.7843 127.655 89.7875 127.793 89.8274C127.93 89.8673 128.055 89.9426 128.154 90.0456Z" fill="white"/>
<path d="M110.13 111.087C112.465 112.556 114.59 114.332 116.448 116.367C118.429 118.585 118.893 121.079 117.662 122.737C116.276 124.556 113.529 124.166 111.695 123.647C109.25 122.932 106.609 121.282 104.155 119.52C103.747 114.442 107.538 112.111 110.13 111.087Z" fill="#FF8C9B"/>
<path d="M96.5492 106.066C96.9514 105.836 97.3816 105.659 97.8291 105.538C100.756 105.034 104.709 107.65 107.383 109.324C108.312 109.909 109.233 110.485 110.13 111.087C107.538 112.094 103.747 114.442 104.155 119.519C103.168 118.812 102.207 118.098 101.294 117.415C99.5735 116.115 97.6416 114.856 96.2884 113.223C93.8836 110.331 93.8755 107.463 96.5492 106.066Z" fill="#25364F"/>
<path fill-rule="evenodd" clip-rule="evenodd" d="M100.959 108.446C101.555 109.332 103.193 110.071 104.856 110.713C105.565 110.989 106.723 111.411 107.041 110.81C107.416 110.079 106.185 109.389 105.736 109.145C104.396 108.384 102.926 107.88 101.4 107.658C101.267 107.743 101.158 107.86 101.081 107.997C101.004 108.135 100.962 108.289 100.959 108.446Z" fill="white"/>
<path fill-rule="evenodd" clip-rule="evenodd" d="M104.139 112.273C103.062 113.621 106.372 115.433 106.918 114.117C107.155 113.54 105.883 112.07 104.962 111.915C104.805 111.898 104.647 111.923 104.503 111.985C104.358 112.048 104.233 112.147 104.139 112.273Z" fill="white"/>
<path fill-rule="evenodd" clip-rule="evenodd" d="M113.358 115.571C112.926 116.002 113.268 116.822 113.896 117.456C114.393 117.96 115.575 118.707 115.95 117.984C116.009 117.703 115.992 117.411 115.9 117.138C115.808 116.865 115.646 116.622 115.429 116.432C114.842 115.799 113.912 115.011 113.358 115.571Z" fill="white"/>
<path fill-rule="evenodd" clip-rule="evenodd" d="M33.9766 12.2264C37.0824 13.5425 38.2073 16.0203 36.7563 19.1399C35.126 22.5357 31.8 24.6236 29.5257 26.0615C23.3176 30.0521 16.2939 32.6111 8.967 33.5518C7.33665 33.7631 5.85303 34.0718 4.53244 33.7062C3.23217 33.3007 2.10478 32.4744 1.32881 31.3584C-0.0651422 29.2461 0.521784 26.1347 2.88579 23.0232C3.84232 21.9247 4.93846 20.9552 6.14649 20.1392C9.3456 17.8202 12.8236 15.9098 16.4992 14.4524C21.1213 12.6326 26.5014 10.8616 31.5962 11.5522C32.4171 11.6662 33.2182 11.8931 33.9766 12.2264Z" fill="#C1D5E8"/>
<path d="M40.5713 29.2464C40.9295 28.5874 41.1326 27.8558 41.1651 27.107C41.1975 26.3582 41.0586 25.6119 40.7588 24.9245L37.2454 15.5332C37.5122 16.7555 37.339 18.0324 36.7563 19.1402C35.1259 22.5361 31.8 24.6239 29.5257 26.0619C23.3176 30.0524 16.2938 32.6114 8.96696 33.5521C7.33661 33.7634 5.85299 34.0721 4.53241 33.7065C3.23213 33.301 2.10475 32.4748 1.32877 31.3587C1.16017 31.1016 1.01555 30.8297 0.896729 30.5463L4.55686 40.1569C4.67623 40.6256 4.8747 41.0706 5.14379 41.473C5.90577 42.6062 7.02861 43.4504 8.33112 43.8696C9.65171 44.2351 11.1761 43.9264 12.7657 43.7152C20.1015 42.7645 27.1313 40.1915 33.3407 36.1843C35.6232 34.7464 38.9898 32.6585 40.5713 29.2464Z" fill="#334F70"/>
<path d="M40.5713 29.2459C40.6421 29.1006 40.7047 28.9514 40.7588 28.7991C39.4953 25.8988 38.3703 22.4299 36.4465 19.7246C36.0671 20.4021 35.6191 21.039 35.1096 21.6256C35.1585 21.7475 35.2156 21.8693 35.2645 21.9831C36.3051 24.4417 37.506 26.8298 38.8594 29.1322C39.1284 29.5871 39.4137 30.1476 39.7561 30.6676C40.0644 30.2154 40.3369 29.7401 40.5713 29.2459Z" fill="#C1D5E8"/>
<path d="M32.1994 24.2744C31.7837 24.5831 31.3842 24.8675 30.9685 25.1356C31.2349 25.4149 31.4801 25.7136 31.7022 26.0292C32.6885 27.5971 33.3325 29.5387 34.3515 31.2448C34.8814 32.1226 35.4583 32.9714 36.0796 33.7876L36.3324 34.1613C36.7807 33.8201 37.2372 33.4464 37.6774 33.0483C37.6285 32.9752 37.5877 32.8939 37.547 32.8208C36.2264 30.3268 34.2944 26.4598 32.1994 24.2744Z" fill="#C1D5E8"/>
<path d="M31.5962 32.4959C30.6506 30.3512 29.6968 28.0521 28.4578 26.7441C28.042 27.0041 27.6426 27.2478 27.2024 27.4834C27.2432 28.2958 27.8953 29.1082 28.2377 29.9206C29.1588 32.0328 29.7865 34.0801 30.8788 36.0786C31.0826 36.4442 31.3027 36.891 31.5717 37.3134C32.1152 36.9939 32.6586 36.6608 33.2021 36.3142C33.088 36.0461 32.9657 35.7699 32.8679 35.5018C32.5092 34.4782 32.0282 33.4302 31.5962 32.4959Z" fill="#C1D5E8"/>
<path d="M27.455 37.1918C26.6398 35.3477 25.8247 33.463 25.0095 31.7488C24.6486 30.8776 24.1474 30.0708 23.5259 29.3604C23.0612 29.5797 22.5966 29.7828 22.1238 29.9859C22.1804 30.7202 22.3768 31.4371 22.7026 32.0981C23.5241 34.115 24.5367 36.0491 25.7269 37.8743C26.0478 38.5206 26.4417 39.1284 26.9007 39.6859C27.3735 39.4747 27.8463 39.2553 28.3191 39.0197C28.0985 38.381 27.8088 37.7681 27.455 37.1918Z" fill="#C1D5E8"/>
<path d="M20.8684 36.6391C20.1674 34.8307 19.3224 33.0812 18.3413 31.4072C17.7544 31.6022 17.1756 31.7809 16.5806 31.9515C16.7273 32.6015 16.9882 33.292 17.1267 33.7226C17.8704 35.9798 18.7552 38.1885 19.7761 40.3355C20.0328 40.9076 20.3241 41.4638 20.6483 42.0009C21.3412 41.7978 22.0259 41.5703 22.7025 41.3428C22.5232 40.8473 22.2623 40.3436 22.0748 39.8724C21.6673 38.8244 21.333 37.6789 20.8684 36.6391Z" fill="#C1D5E8"/>
<path d="M14.3879 35.461C14.0585 34.5158 13.5645 33.6358 12.9288 32.8613C12.513 32.9507 12.1136 33.0319 11.6897 33.105C11.7432 34.0558 11.9697 34.989 12.3581 35.8591C13.1369 37.9513 14.0546 39.9895 15.1053 41.9602C15.2928 42.3176 15.4884 42.7726 15.7248 43.1869C16.3117 43.0813 16.8824 42.9594 17.453 42.8294C17.2736 42.3501 17.0046 41.8546 16.8253 41.3834C16.059 39.3605 15.3172 37.4757 14.3879 35.461Z" fill="#C1D5E8"/>
<path d="M10.157 41.9761C9.34179 39.9532 8.63259 37.9629 7.88263 35.9806C7.63842 35.2339 7.33306 34.5084 6.96964 33.8115C6.45852 33.8735 5.94265 33.8871 5.42896 33.8521C5.64354 34.5296 5.91628 35.1873 6.24413 35.8181C7.01039 37.9629 7.59732 39.9776 8.47771 42.0573C8.71761 42.7274 9.01773 43.3745 9.3744 43.9908C9.87803 44.0091 10.3823 43.9873 10.8825 43.9259C10.7292 43.2465 10.4851 42.5908 10.157 41.9761Z" fill="#C1D5E8"/>
<path fill-rule="evenodd" clip-rule="evenodd" d="M4.30401 30.0095C4.51595 31.2769 1.32047 30.302 2.1927 29.384C2.64105 28.9047 3.86381 29.5708 4.30401 30.0095Z" fill="white"/>
<path fill-rule="evenodd" clip-rule="evenodd" d="M5.74689 31.7322C5.53494 31.5615 5.19257 31.0904 5.56755 30.7004C6.06481 30.1805 7.46691 30.5054 8.01307 30.5298C8.71412 30.5298 10.0592 30.3023 10.4586 31.0091C10.9803 32.0084 8.92607 32.0734 8.22502 32.0734C7.84189 32.0734 7.47506 32.0734 7.15714 32.0084C6.60282 31.984 6.14632 32.0652 5.74689 31.7322Z" fill="white"/>
<path fill-rule="evenodd" clip-rule="evenodd" d="M26.7541 13.3966C27.5203 12.836 31.3679 13.3235 31.1152 14.6233C30.9115 15.6713 27.5285 15.1595 26.803 14.2983C26.6155 14.079 26.5747 13.884 26.7541 13.3966Z" fill="white"/>
<path fill-rule="evenodd" clip-rule="evenodd" d="M30.5038 17.1498C30.3489 15.8824 32.2646 16.2074 32.3461 16.9629C32.452 17.9865 30.6424 18.2709 30.5038 17.1498Z" fill="white"/>
<path fill-rule="evenodd" clip-rule="evenodd" d="M32.8109 14.6636C32.9006 13.4613 35.8026 13.9731 35.5743 15.0617C35.4847 15.5166 35.1504 15.5816 34.5472 15.6141C33.6668 15.671 32.7457 15.5085 32.8109 14.6636Z" fill="white"/>
<path fill-rule="evenodd" clip-rule="evenodd" d="M54.9264 69.4355C56.141 71.3366 56.9073 73.1157 58.774 73.9931C61.3744 75.2117 65.8008 74.3912 68.2138 75.7479C69.9908 76.7471 71.3359 79.3143 72.5749 81.4346C73.814 83.555 75.1101 85.8216 76.2106 87.8444C78.6561 92.2964 81.1017 96.6346 83.4738 100.672C84.8107 102.947 85.7563 105.213 86.7997 107.399C88.9437 111.916 90.8186 116.392 92.8157 121.47C93.7939 123.947 95.3509 128.074 94.2749 130.991C93.1989 133.907 89.0741 135.979 85.9683 137.49C77.2622 141.779 69.7463 145.492 60.7467 149.383C58.3746 150.407 55.3829 151.666 52.5379 150.529C51.1625 149.785 49.9598 148.761 49.0082 147.523C47.7146 145.686 46.5698 143.749 45.5845 141.731C41.2804 133.891 37.3431 125.791 32.9167 117.521C30.7728 113.5 28.9549 109.462 26.9985 105.002C25.898 102.484 24.9035 99.8435 25.4415 97.0326C25.8247 95.0666 27.0719 93.3687 28.1479 91.8658C29.2239 90.3629 30.5934 88.6162 30.7402 86.5852C30.8869 84.5542 30.0065 83.2138 29.4929 81.6215C35.5742 78.445 41.9651 75.5285 48.242 72.4089C50.4068 71.282 52.6391 70.289 54.9264 69.4355Z" fill="#C64F69"/>
<path d="M63.6488 133.688C66.0454 132.55 68.5888 131.251 70.2925 129.545C70.9345 128.878 71.4607 128.109 71.8495 127.27C72.6646 125.149 71.8495 122.574 71.124 120.543C70.5859 118.992 69.9012 117.489 69.355 116.197C66.7628 110.08 64.521 105.368 61.888 99.4371C60.4778 96.2769 58.5132 92.2474 54.3069 92.3043C51.3315 92.3043 48.5436 93.9291 46.1062 94.8877C43.5303 95.8951 41.0277 96.8943 38.4191 98.1373C34.714 99.7078 31.1357 101.56 27.7159 103.678L26.7051 104.368L26.9822 105.026C28.9387 109.486 30.7565 113.524 32.9004 117.545C37.3268 125.816 41.2641 133.915 45.5682 141.755L45.8128 142.21C49.3425 140.536 53.1493 138.473 56.2633 136.994C58.823 135.8 61.1381 134.858 63.6488 133.688Z" fill="#C1D5E8"/>
<path fill-rule="evenodd" clip-rule="evenodd" d="M45.7312 106.814C47.0355 106.465 49.2528 105.124 51.2255 105.003C52.6276 104.921 54.3966 109.113 54.0949 111.047C53.9319 112.095 50.769 113.062 49.2039 114.158C49.7664 115.621 51.3886 118.147 50.5734 118.878C49.2932 119.926 47.8037 120.691 46.204 121.121C45.2014 121.299 43.9868 118.22 42.9433 116.766C41.4516 117.578 39.4544 118.984 37.9463 118.261C37.1311 117.871 35.6801 115.19 35.4519 114.028C35.0198 111.843 37.8974 110.779 39.4462 109.804C39.0631 108.48 38.1583 107.716 38.3213 106.197C38.4843 104.678 40.7668 103.24 42.4461 103.085C44.7286 102.874 44.9813 105.271 45.7312 106.814Z" fill="white"/>
<path fill-rule="evenodd" clip-rule="evenodd" d="M59.8745 119.723C56.4182 121.258 51.3722 123.736 47.7692 125.539C46.6891 126.023 45.662 126.617 44.7041 127.31C45.234 128.253 45.7475 129.203 46.2611 130.146C47.655 130.081 49.5788 128.57 50.606 128.017C53.8015 126.311 56.8013 124.938 59.6626 123.419C60.1761 123.143 60.7631 122.875 61.2929 122.542C60.8283 121.607 60.3229 120.665 59.8745 119.723Z" fill="#334F70"/>
<path fill-rule="evenodd" clip-rule="evenodd" d="M63.983 127.367C63.5998 126.742 63.2412 126.116 62.8825 125.482C61.4885 125.84 60.1761 126.953 59.1245 127.489C56.679 128.748 53.0515 130.536 50.6059 131.738C49.9293 132.063 48.78 132.55 47.9077 133.005L47.9811 133.127C48.4376 133.866 48.8941 134.606 49.3587 135.345C49.6277 135.207 49.9212 135.052 50.2473 134.922C54.4373 133.208 57.5838 131.307 61.4315 129.236C62.3889 128.788 63.3125 128.273 64.1949 127.692L63.983 127.367Z" fill="#334F70"/>
<path fill-rule="evenodd" clip-rule="evenodd" d="M76.1617 97.1547C74.7922 96.1717 73.7162 93.5558 72.7787 90.9237C72.3793 89.7944 71.776 87.9503 72.7787 87.4872C73.9444 86.9267 74.9715 88.9089 75.3302 89.6157C76.4687 91.7573 77.188 94.0953 77.4497 96.5048C77.3094 96.7146 77.1171 96.8847 76.8914 96.9986C76.6658 97.1124 76.4144 97.1662 76.1617 97.1547Z" fill="white"/>
<path fill-rule="evenodd" clip-rule="evenodd" d="M67.1541 87.9906C64.9694 89.6153 62.263 84.3185 64.3906 83.5305C65.3118 83.1893 67.5698 85.2609 67.7736 86.7151C67.7938 86.9634 67.747 87.2126 67.6381 87.4369C67.5292 87.6612 67.3621 87.8523 67.1541 87.9906Z" fill="white"/>
<path fill-rule="evenodd" clip-rule="evenodd" d="M66.5916 80.8336C65.8743 81.4835 64.6026 80.9067 63.6325 79.8993C62.8174 79.0869 61.7413 77.1859 62.907 76.6497C63.4206 76.3979 64.5374 76.7309 65.3526 77.5515C66.3063 78.4857 67.5046 79.9968 66.5916 80.8336Z" fill="white"/>
<path fill-rule="evenodd" clip-rule="evenodd" d="M55.6601 145.565C53.8586 146.605 58.3502 149.627 58.6192 147.564C58.7578 146.508 56.6709 145.671 55.6601 145.565Z" fill="white"/>
<path fill-rule="evenodd" clip-rule="evenodd" d="M52.0244 145.533C52.4564 145.622 53.3857 145.573 53.4998 144.72C53.6466 143.567 51.8043 142.153 51.1766 141.471C50.4185 140.544 49.375 138.627 48.0952 138.92C46.3018 139.302 48.3153 141.942 49.049 142.819C49.4321 143.282 49.8642 143.705 50.2147 144.087C50.8261 144.704 51.1929 145.362 52.0244 145.533Z" fill="white"/>
<path fill-rule="evenodd" clip-rule="evenodd" d="M55.2118 63.5453C54.6656 62.5379 54.3151 61.693 53.6303 60.6531C52.9641 59.5288 52.0215 58.5922 50.8913 57.9316C49.5626 57.3548 47.9567 57.8504 46.4405 58.4597C43.5222 59.6458 33.5444 64.9588 33.5444 64.9588C30.9114 66.1774 28.4414 67.3229 25.9551 68.769C24.5367 69.5814 23.2732 70.5156 22.8086 71.9454C21.9934 74.5207 23.9743 78.0303 24.4389 79.0783C25.3764 81.2149 26.5747 84.0745 29.9658 83.7089C31.3984 83.4271 32.7751 82.9139 34.0417 82.1898C36.2671 81.1011 49.9213 74.1308 52.1712 73.0422C53.5153 72.4887 54.7599 71.7204 55.8558 70.7675C58.2116 68.3222 56.3367 65.5844 55.2118 63.5453Z" fill="#FF8C9B"/>
<path d="M24.5531 73.9276C28.0257 72.1566 31.3679 70.6211 34.8243 68.9232C35.7373 68.4683 36.8948 67.8103 37.9872 67.1441C38.3621 66.9085 39.8621 66.3317 39.4871 65.6493C39.324 65.3649 38.7208 65.4056 38.2969 65.5112C37.8787 65.6246 37.472 65.7769 37.0823 65.9661C32.9037 67.5016 28.8206 69.2839 24.8547 71.3035C24.1373 71.661 23.3874 72.0185 22.6456 72.4084C22.5172 73.1999 22.5476 74.009 22.7352 74.7887C23.4363 74.48 24.0477 74.1875 24.5531 73.9276Z" fill="#C64F69"/>
<path d="M49.6441 59.6868C47.9133 60.4384 46.2727 61.3813 44.7531 62.4977C44.5507 62.6623 44.3747 62.8569 44.2314 63.0745C44.1475 63.1935 44.1025 63.3353 44.1025 63.4807C44.1025 63.6261 44.1475 63.768 44.2314 63.8869C44.7123 64.415 45.9758 63.8219 46.7502 63.4807C47.7122 63.0502 48.5925 62.6683 49.2854 62.2784C50.6631 61.5716 52.0163 60.9136 53.3613 60.2636C52.9264 59.6388 52.4204 59.0664 51.8532 58.5576L49.6441 59.6868Z" fill="#C64F69"/>
<path d="M30.6996 75.3495C31.5148 74.9108 33.4875 73.9684 32.925 73.1804C32.4848 72.5792 31.0746 73.2454 30.1616 73.6353C28.2051 74.4477 26.1998 75.5282 24.4553 76.4218C24.1782 76.56 23.8114 76.7143 23.4282 76.893C23.6646 77.4698 23.9092 77.9898 24.1048 78.396C26.3555 77.4971 28.5568 76.4802 30.6996 75.3495Z" fill="#C64F69"/>
<path d="M53.6629 66.1859C51.9021 66.9983 49.8234 67.9569 47.9567 68.9968C47.0926 69.4842 45.6987 70.1991 45.9187 70.9141C46.1959 71.8321 48.1442 70.8572 48.992 70.4672C51.5082 69.333 53.9529 68.047 56.3122 66.6165C56.4182 66.5434 56.5323 66.4784 56.6464 66.4134C56.4794 65.9573 56.2834 65.5123 56.0595 65.0811C55.2336 65.3881 54.4324 65.7574 53.6629 66.1859Z" fill="#C64F69"/>
<path d="M40.2532 74.935C40.6364 74.7238 42.3482 73.7895 42.0629 73.164C41.6798 72.2947 40.2369 73.0746 39.813 73.229C37.4663 74.1352 35.1769 75.1824 32.9574 76.3648C30.6053 77.462 28.3116 78.6795 26.0855 80.0125L25.1399 80.6055C25.4528 81.2527 25.8533 81.854 26.33 82.3928C27.2104 81.9135 28.0745 81.4017 28.9468 80.9061C32.7781 78.7451 36.3485 77.1285 40.2532 74.935Z" fill="#C64F69"/>
<path d="M40.9706 68.3547C39.7478 68.9477 37.8485 69.6301 38.3865 70.5644C39.7968 70.7512 50.1087 65.5681 54.9508 63.0416C54.7063 62.5785 54.4943 62.1398 54.2416 61.6768C50.4348 63.5534 41.688 68.0053 40.9706 68.3547Z" fill="#C64F69"/>
</g>
<defs>
<clipPath id="clip0_131_1977">
<rect width="156" height="151" fill="white"/>
</clipPath>
</defs>
</svg>
