<svg width="28" height="28" viewBox="0 0 28 28" fill="none" xmlns="http://www.w3.org/2000/svg">
<path fill-rule="evenodd" clip-rule="evenodd" d="M27.3175 6.07055C27.3175 9.42325 24.5996 12.1411 21.2469 12.1411C17.8943 12.1411 15.1764 9.42325 15.1764 6.07055C15.1764 2.71788 17.8943 0 21.2469 0C24.5996 0 27.3175 2.71788 27.3175 6.07055ZM24.4964 6.81776C24.4026 7.22624 23.9953 7.4812 23.5869 7.38726L18.5668 6.23317C18.1584 6.1393 17.9034 5.73205 17.9973 5.32365C18.0912 4.91525 18.4984 4.66021 18.9068 4.75415L23.9269 5.90824C24.3353 6.00211 24.5904 6.40937 24.4964 6.81776Z" fill="#6B6C7E"/>
<path d="M8.17871 2.46243C7.68737 1.30006 6.04423 1.18282 5.3842 2.26303L0.222191 10.7105C-0.373269 11.685 0.292504 12.9291 1.45382 13.0119L10.4583 13.6544C11.6196 13.7373 12.4644 12.601 12.0212 11.5524L8.17871 2.46243Z" fill="#6B6C7E"/>
<path fill-rule="evenodd" clip-rule="evenodd" d="M22.2978 23.0368C24.5766 21.9741 25.5627 19.2652 24.4999 16.9863C23.4373 14.7074 20.7284 13.7214 18.4495 14.7841L10.1968 18.6324C7.91782 19.6951 6.93189 22.4039 7.99454 24.6829C9.05727 26.9618 11.7661 27.9478 14.0451 26.8851L22.2978 23.0368ZM18.168 23.288L21.6563 21.6614C23.1756 20.9529 23.8329 19.1469 23.1245 17.6277C22.4161 16.1084 20.6101 15.4511 19.0908 16.1595L15.6025 17.7861L18.168 23.288Z" fill="#6B6C7E"/>
</svg>
