<svg width="210" height="135" viewBox="0 0 210 135" fill="none" xmlns="http://www.w3.org/2000/svg">
<path d="M203.101 131.281C204.467 128.672 207.792 120.983 209.659 105.184C212.049 84.9394 201.16 71.6202 198.502 64.4272C195.845 57.2342 204.357 42.049 192.127 27.1312C179.898 12.2135 159.459 12.4712 148.036 18.33C136.613 24.1888 122.016 30.3183 110.307 19.1292C98.5974 7.94013 90.4596 2.60981 71.6501 0.293693C51.956 -2.12681 20.6276 10.4389 22.8491 37.0775C25.0445 63.3441 6.56688 59.8732 1.42137 84.9297C-4.67714 114.615 10.7236 128.763 12.3954 131.281H203.101Z" fill="#D6F5FF"/>
<path d="M167.58 81.2373H18.7573V132.335H167.58V81.2373Z" fill="#65BFCE"/>
<path d="M170.221 132.335H167.184V81.2373H19.1574V132.335H16.1195V78.1904H170.221V132.335Z" fill="#91D3E2"/>
<path d="M168.702 104.189H17.6384V107.236H168.702V104.189Z" fill="#91D3E2"/>
<path d="M67.3535 79.7139H64.3157V131.282H67.3535V79.7139Z" fill="#91D3E2"/>
<path d="M122.025 79.7139H118.987V131.282H122.025V79.7139Z" fill="#91D3E2"/>
<path d="M27.7636 132.172C27.7636 132.172 12.5775 99.0453 18.2727 88.3846C23.9679 77.724 47.8708 80.3892 53.1984 90.2865C58.5261 100.184 66.485 132.172 66.485 132.172H27.7636Z" fill="#0055AA"/>
<path d="M53.1985 90.2866C52.3403 88.7671 51.1695 87.4482 49.7638 86.4177C45.3371 84.6268 36.4024 82.066 30.8438 87.641C24.6835 93.8162 37.4269 121.241 43.8735 132.172H66.4786C66.4786 132.172 58.5131 100.187 53.1985 90.2866Z" fill="#1A78C6"/>
<path d="M188.732 132.172C188.732 132.172 203.934 99.0453 198.222 88.3846C192.511 77.724 168.624 80.3892 163.297 90.2865C157.969 100.184 150.01 132.172 150.01 132.172H188.732Z" fill="#1A78C6"/>
<path d="M168.826 85.0311C166.383 86.4208 164.422 88.1921 163.297 90.2864C157.982 100.187 150.01 132.172 150.01 132.172H175.055C180.288 120.859 190.449 97.0554 186.835 89.9798C184.243 84.9267 175.962 84.4211 168.826 85.0311Z" fill="#0055AA"/>
<path d="M112.027 112.746C112.027 112.746 115.003 113.398 116.558 113.398C118.113 113.398 122.559 111.037 123.427 111.908C124.296 112.779 120.051 113.917 120.955 114.827C121.86 115.737 129.37 116.06 128.657 116.785C127.945 117.509 123.739 117.173 123.739 117.173C123.739 117.173 128.979 117.691 128.979 118.406C128.979 119.12 123.805 118.667 123.805 118.667C123.805 118.667 128.374 119.319 127.75 119.946C127.125 120.572 123.427 119.946 123.427 119.946C123.427 119.946 126.699 120.435 125.873 121.25C125.616 121.511 120.503 121.316 118.239 120.272C115.976 119.228 114.987 118.067 114.574 118.067C114.161 118.067 109.828 117.287 109.828 117.287L112.027 112.746Z" fill="#B56167"/>
<path d="M83.2128 75.7629C83.2128 75.7629 86.7906 99.795 91.8158 103.165C96.8409 106.535 112.863 111.062 112.863 111.062C112.863 111.062 113.819 116.817 109.994 119.932C109.994 119.932 91.8288 116.344 85.3757 111.777C78.9227 107.21 71.2597 79.6579 72.2062 76.7807C73.1527 73.9035 83.2128 75.7629 83.2128 75.7629Z" fill="#F0EDF2"/>
<path d="M87.4542 71.1762C87.3789 71.1759 87.3039 71.1693 87.2297 71.1566L87.3794 70.4585C87.5639 70.4684 87.7483 70.4349 87.9177 70.3607C88.0871 70.2865 88.2369 70.1737 88.3551 70.0312C89.3959 69.0003 90.8303 65.4348 88.7422 53.1594L89.4415 53.042C91.4938 65.0858 90.2318 69.2254 88.817 70.5759C88.458 70.9464 87.969 71.1617 87.4542 71.1762Z" fill="#39657D"/>
<path d="M96.249 55.6361C96.5076 52.7964 96.5076 49.9389 96.249 47.0991C95.7189 41.5535 89.8318 40.2486 89.8318 40.2486C89.8318 40.2486 79.6481 35.5968 75.3677 44.3426C71.0874 53.0884 74.9807 59.0418 74.6685 61.0284C74.3562 63.0151 72.2323 68.5313 72.2323 68.5313L81.3849 73.343C81.3849 73.343 82.1981 69.7122 82.4485 68.0975C82.699 66.4827 84.5301 66.1402 84.5301 66.1402C87.8803 67.4287 91.7085 68.3062 94.3105 63.5827C94.9127 62.3975 95.3504 61.1353 95.6115 59.8312C96.1092 59.7986 97.1467 59.6909 97.5143 59.3223C97.8818 58.9537 96.7597 56.6148 96.249 55.6361Z" fill="#F4B3BD"/>
<path d="M94.6195 61.2625L91.7214 60.4404C91.7214 60.4404 91.832 63.1871 92.733 63.1871C93.6339 63.1871 94.6195 61.2625 94.6195 61.2625Z" fill="white"/>
<path d="M94.099 54.8982C94.6128 54.8982 95.0293 54.4805 95.0293 53.9652C95.0293 53.4499 94.6128 53.0322 94.099 53.0322C93.5853 53.0322 93.1688 53.4499 93.1688 53.9652C93.1688 54.4805 93.5853 54.8982 94.099 54.8982Z" fill="#39657D"/>
<path d="M91.7214 51.9142C93.0393 51.693 94.3847 51.693 95.7025 51.9142C95.7025 51.9142 96.0896 50.3418 94.5284 50.3418C92.9672 50.3418 91.7214 51.9142 91.7214 51.9142Z" fill="#39657D"/>
<path d="M96.9255 38.2816C97.8623 38.1129 98.8283 38.2934 99.6417 38.789C100.455 39.2846 101.06 40.0613 101.342 40.9729C101.788 42.3222 101.93 43.7538 101.759 45.1647C101.18 48.8901 97.2052 49.7709 94.0015 49.0564C91.3994 48.4758 89.2105 46.5838 89.2105 46.5838C89.2105 46.5838 89.2788 50.3124 87.3468 51.7281C85.4148 53.1439 86.1433 54.8793 85.2749 54.7423C84.4065 54.6053 85.753 51.0953 83.5283 50.4853C81.3036 49.8752 80.7636 53.9562 82.2273 55.2447L81.7264 56.8464C81.7264 56.8464 79.5374 60.0433 76.9842 60.1509C74.4309 60.2586 73.1397 59.032 71.6435 53.9529C70.1474 48.8738 69.6139 43.0509 72.3786 39.1591C75.1433 35.2674 78.5584 36.8169 78.6495 36.1971C78.7406 35.5773 82.3021 32.2826 87.376 34.8923C90.5147 36.5038 93.3705 38.8982 96.9255 38.2816Z" fill="#0055AA"/>
<g style="mix-blend-mode:multiply" opacity="0.5">
<path d="M81.154 61.041C80.1392 62.2676 82.455 68.0938 82.455 68.0938C82.7055 66.4627 84.5367 66.1365 84.5367 66.1365C84.5367 66.1365 80.3084 62.8776 81.154 61.041Z" fill="#F7BFC5"/>
</g>
<g style="mix-blend-mode:multiply" opacity="0.5">
<path d="M101.71 45.4417C94.5545 48.2243 86.254 43.6051 84.9204 42.0947C84.6407 44.3782 84.5952 46.5117 81.785 49.4769C77.2314 54.0994 73.0324 51.6495 70.6385 49.3204C70.8583 50.8911 71.1964 52.4429 71.6501 53.9624C73.1463 59.0317 74.4343 60.2615 76.9908 60.1604C79.5473 60.0593 81.733 56.8559 81.733 56.8559L82.2338 55.2542C80.767 53.9656 81.3329 49.8945 83.5349 50.4947C85.7368 51.0949 84.4163 54.618 85.2815 54.7518C86.1467 54.8855 85.4181 53.1501 87.3533 51.7376C89.2886 50.3251 89.217 46.5932 89.217 46.5932C89.217 46.5932 91.4028 48.4852 94.008 49.0659C97.1207 49.751 100.978 48.9322 101.71 45.4417Z" fill="#0055AA"/>
</g>
<path d="M103.909 107.993C103.018 107.989 102.13 107.895 101.258 107.712C89.0187 105.194 87.1387 74.5005 86.9663 71.085C83.1966 69.7443 82.7738 54.8429 82.738 53.1074H83.4503C83.5479 57.769 84.4424 69.9792 87.3696 70.4685L87.6526 70.5174V70.8045C87.6689 71.1307 89.2464 104.528 101.391 107.03C110.251 108.851 115.332 101.005 119.81 94.083C121.495 91.4733 123.086 89.0235 124.725 87.3761C130.625 81.4619 134.31 81.3738 134.463 81.3738V82.0849C134.427 82.0849 130.885 82.2089 125.223 87.8817C123.632 89.4737 122.061 91.9007 120.399 94.4712C116.47 100.552 111.656 107.993 103.909 107.993Z" fill="#39657D"/>
<path d="M83.9479 53.1014C83.9479 53.2719 83.8975 53.4385 83.803 53.5802C83.7085 53.7219 83.5742 53.8323 83.4171 53.8974C83.26 53.9625 83.0872 53.9793 82.9205 53.9458C82.7539 53.9124 82.6009 53.83 82.4809 53.7092C82.361 53.5885 82.2795 53.4347 82.2467 53.2674C82.2139 53.1002 82.2314 52.9269 82.2969 52.7696C82.3624 52.6123 82.4729 52.478 82.6146 52.3838C82.7562 52.2896 82.9226 52.2396 83.0925 52.2402C83.3197 52.2411 83.5373 52.3322 83.6976 52.4936C83.8579 52.655 83.9479 52.8736 83.9479 53.1014Z" fill="white"/>
<path d="M70.5799 67.699C70.5799 67.699 79.3 69.8716 85.5156 78.7414C90.7717 86.2443 90.8758 132.113 90.8758 132.113L52.4406 132.312C52.4406 132.312 56.1159 121.743 57.6901 111.708C59.401 100.79 59.6774 83.9477 62.4714 77.2473C66.7257 67.0401 70.5799 67.699 70.5799 67.699Z" fill="white"/>
<path d="M76.4638 125.185C72.6161 125.534 68.5959 122.027 68.4203 124.832C68.326 126.346 67.5226 129.432 67.2656 132.234L90.8693 132.113C90.8693 132.113 90.3391 87.2885 85.083 79.7888C82.9429 76.7322 76.9159 73.9888 74.6977 72.6807C69.3115 73.8485 68.03 73.7148 65.7988 77.8414C65.7988 77.8414 63.8733 81.172 70.6776 91.6924C77.4819 102.213 85.5384 108.528 87.285 111.683C89.0316 114.837 88.5079 120.099 85.0082 120.977C81.5085 121.854 70.8695 110.104 71.5557 113.438C72.242 116.772 80.3083 124.832 76.4638 125.185Z" fill="#F0EDF2"/>
<path d="M70.58 67.699C73.6724 69.8539 76.2035 72.7225 77.96 76.0631C80.8287 81.5761 79.6318 82.0556 79.6318 82.0556L85.3692 83.7356L80.588 86.6096L90.4432 115.28C90.4432 115.28 89.6723 89.7282 87.5159 82.7766C85.3595 75.825 73.182 65.0371 73.182 65.0371L70.58 67.699Z" fill="#F0EDF2"/>
<path d="M108.635 121.315C108.635 121.315 107.883 121.204 109.318 123.625C110.752 126.045 112.486 127.132 113.006 126.871C113.526 126.61 114.551 125.063 113.627 123.162C112.704 121.26 108.635 121.315 108.635 121.315Z" fill="#DD4C38"/>
<path d="M113.907 125.748C113.907 125.748 111.728 126.815 111.37 127.122C111.012 127.428 110.274 128.877 108.118 130.09C106.238 131.147 104.715 132.325 104.215 131.721C103.714 131.118 105.704 129.95 106.28 129.438C106.658 129.057 106.915 128.572 107.018 128.045C106.055 128.009 105.093 128.124 104.166 128.387C102.572 128.828 100.786 131.48 100.129 131.216C99.1275 130.811 101.921 127.745 101.921 127.745C101.921 127.745 99.0723 130.629 98.6267 130.11C98.1811 129.591 101.063 126.57 101.063 126.57C101.063 126.57 102.624 125.054 104.231 124.43C105.838 123.807 107.724 123.7 109.793 123.109C111.861 122.519 114.515 119.756 114.515 119.756C114.515 119.756 118.578 122.317 117.768 123.471C117.365 124.023 113.907 125.748 113.907 125.748Z" fill="#DF9296"/>
<path d="M140.461 74.377C140.461 74.377 134.307 76.3669 131.763 85.9184C129.22 95.4699 127.74 104.969 125.551 107.912C123.362 110.854 108.638 121.322 108.638 121.322C110.056 121.83 111.325 122.683 112.333 123.805C113.875 125.602 113.009 126.878 113.009 126.878C113.009 126.878 130.397 120.027 134.278 112.498C138.158 104.969 140.965 83.4294 141.277 79.2702C141.589 75.1109 140.461 74.377 140.461 74.377Z" fill="#CD4438"/>
<g style="mix-blend-mode:multiply">
<path d="M134.281 112.491C137.176 106.877 139.485 93.45 140.584 85.2686C138.824 85.2985 137.069 85.4742 135.338 85.7938C135.338 85.7938 135.12 102.992 132.671 108.25C130.605 112.687 116.766 121.384 112.486 123.997C113.809 125.693 113.013 126.88 113.013 126.88C113.013 126.88 130.401 120.014 134.281 112.491Z" fill="#DD4C38"/>
</g>
<path d="M145.808 72.005C145.808 72.005 147.737 71.072 148.345 70.462C148.953 69.852 148.67 62.3066 148.67 62.3066H158.249C158.249 62.3066 157.397 69.6725 158.249 70.5272C158.477 70.7725 158.753 70.9682 159.06 71.1023C159.366 71.2364 159.697 71.306 160.031 71.3069C160.031 71.3069 161.901 76.8133 155.478 79.1653C149.054 81.5173 144.604 77.4723 144.604 74.8952C144.604 72.3181 145.808 72.005 145.808 72.005Z" fill="#F7BFC5"/>
<g style="mix-blend-mode:multiply" opacity="0.5">
<path d="M158.229 62.5151L158.255 62.2998H148.677C148.677 62.2998 148.856 67.1212 148.615 69.3688C151.588 68.9415 156.818 67.4833 158.229 62.5151Z" fill="#F7BFC5"/>
</g>
<path d="M145.808 72.0054C145.808 72.0054 143.274 77.6587 150.986 78.2393C158.698 78.82 160.025 71.3008 160.025 71.3008C160.025 71.3008 167.47 71.9728 170.355 78.3568C173.24 84.7408 169.48 132.335 169.48 132.335H128.212C128.212 132.335 134.281 116.746 134.281 107.295C134.281 97.8447 134.931 82.578 137.107 76.9019C137.907 74.8565 145.808 72.0054 145.808 72.0054Z" fill="#DD4C38"/>
<g style="mix-blend-mode:multiply">
<path d="M162.952 86.4463V104.062C162.952 110.677 154.791 112.158 155.435 114.334C156.079 116.51 160.366 117.867 159.452 120.689C158.538 123.511 148.618 123.595 148.618 129.219C148.646 130.321 148.937 131.399 149.467 132.364H169.496C169.496 132.364 172.098 99.2535 171.304 84.5641C168.55 83.7061 165.671 84.1367 162.952 86.4463Z" fill="#DD4C38"/>
</g>
<path d="M146.345 71.7674C146.345 71.7674 145.226 71.1149 144.292 72.609C143.359 74.103 142.712 78.8592 149.324 79.5965C155.936 80.3337 159.013 76.9868 159.664 75.7667C160.314 74.5467 161.157 72.4035 160.965 71.5618C160.773 70.7202 159.267 71.1149 159.267 71.1149C159.267 71.1149 159.713 77.8088 151.422 77.9002C143.131 77.9915 146.345 71.7674 146.345 71.7674Z" fill="white"/>
<path d="M149.747 117.655C149.747 117.655 145.544 118.151 142.936 117.828C140.327 117.505 139.81 117.306 136.483 118.389C133.156 119.472 127.119 123.282 128.407 123.856C129.695 124.431 133.611 121.778 133.611 121.778C133.611 121.778 129.077 124.962 129.545 125.566C130.014 126.169 134.665 123.136 134.665 123.136C134.665 123.136 131.191 126.518 132.261 126.652C133.331 126.786 136.187 124.007 136.187 124.007C136.187 124.007 133.601 126.818 134.603 126.942C135.605 127.066 137.908 124.558 137.908 124.558C137.908 124.558 141.316 124.437 142.461 123.556C143.606 122.676 144.367 122.304 145.17 122.405C145.974 122.506 151.168 122.868 151.168 122.868L149.747 117.655Z" fill="#DF9296"/>
<path d="M165.574 73.166C165.574 73.166 171.457 75.3158 174.664 85.3892C177.917 95.6095 179.699 117.006 176.183 120.849C172.667 124.691 148.189 124.763 148.189 124.763C148.189 124.763 147.037 120.392 146.888 117.166C146.888 117.166 167.053 114.275 168.127 113.104C169.2 111.933 162.37 87.751 162.126 81.9868C161.882 76.2226 165.574 73.166 165.574 73.166Z" fill="#DD4C38"/>
<g style="mix-blend-mode:multiply">
<path d="M168.907 75.4922C168.953 75.7173 169.005 75.9456 169.07 76.187C169.07 76.187 174.037 99.7396 174.755 108.241C175.474 116.742 174.567 119.263 166.422 120.66C160.568 121.664 151.897 121.583 147.457 121.456C147.808 123.302 148.189 124.75 148.189 124.75C148.189 124.75 172.664 124.692 176.183 120.836C179.703 116.98 177.914 95.6097 174.661 85.3895C173.058 80.343 170.781 77.2864 168.907 75.4922Z" fill="#DD4C38"/>
</g>
<path d="M146.901 117.333C146.858 117.333 146.817 117.318 146.785 117.291C146.753 117.263 146.731 117.225 146.725 117.183C146.718 117.136 146.729 117.088 146.756 117.05C146.784 117.011 146.825 116.985 146.871 116.977C147.041 116.951 164.074 114.083 167.863 113.062C168.895 112.797 169.976 112.791 171.011 113.045C172.046 113.299 173.002 113.805 173.796 114.517C173.329 113.594 172.585 112.841 171.669 112.364C171.148 112.084 170.924 111.859 170.94 111.634C170.946 111.563 170.974 111.497 171.02 111.444C171.066 111.391 171.128 111.355 171.197 111.34C171.848 111.095 173.897 111.503 174.703 112.319C174.736 112.353 174.755 112.398 174.755 112.446C174.755 112.493 174.736 112.539 174.703 112.573C174.67 112.606 174.625 112.624 174.578 112.624C174.531 112.624 174.486 112.606 174.453 112.573C173.679 111.797 171.649 111.493 171.308 111.679C171.457 111.841 171.637 111.969 171.838 112.058C174.02 113.242 174.391 115.085 174.407 115.163C174.423 115.206 174.421 115.252 174.404 115.294C174.386 115.336 174.353 115.369 174.312 115.387C174.271 115.406 174.225 115.408 174.182 115.394C174.14 115.38 174.104 115.35 174.082 115.31C174.059 115.281 171.626 112.43 167.945 113.415C164.136 114.429 147.089 117.297 146.917 117.329L146.901 117.333Z" fill="#DD4C38"/>
<path d="M163.817 91.5652C163.778 91.5648 163.741 91.5519 163.71 91.5284C163.679 91.5049 163.656 91.4721 163.645 91.4348C160.487 80.7252 162.571 77.45 162.669 77.313C162.696 77.2743 162.737 77.2478 162.783 77.2393C162.83 77.2307 162.877 77.2408 162.916 77.2673C162.935 77.2802 162.952 77.2967 162.965 77.3159C162.978 77.3352 162.987 77.3568 162.991 77.3795C162.996 77.4022 162.996 77.4256 162.991 77.4484C162.987 77.4711 162.978 77.4927 162.965 77.512C162.945 77.5446 160.896 80.8263 163.996 91.3336C164.003 91.3561 164.005 91.3798 164.003 91.4032C164.001 91.4266 163.994 91.4494 163.983 91.47C163.971 91.4907 163.956 91.5089 163.938 91.5236C163.919 91.5383 163.898 91.5491 163.876 91.5555L163.817 91.5652Z" fill="#DD4C38"/>
<path d="M141.345 44.8964C141.345 44.8964 138.275 55.1623 141.804 63.5688C143.892 68.5403 147.854 67.7443 151.526 66.7298C155.566 65.6142 160.324 61.9671 162.562 55.7169C164.799 49.4666 164.988 42.5542 157.93 39.5922C150.872 36.6301 143.04 40.3588 141.345 44.8964Z" fill="#F7BFC5"/>
<path d="M143.691 55.8084C143.696 55.9831 143.65 56.1556 143.558 56.3041C143.466 56.4525 143.332 56.5703 143.173 56.6424C143.015 56.7146 142.838 56.738 142.666 56.7096C142.494 56.6811 142.335 56.6022 142.207 56.4828C142.08 56.3634 141.991 56.2088 141.951 56.0386C141.912 55.8683 141.923 55.6901 141.984 55.5265C142.046 55.3628 142.154 55.2211 142.295 55.1191C142.437 55.0172 142.606 54.9596 142.78 54.9537C142.896 54.9494 143.011 54.9681 143.12 55.0088C143.229 55.0495 143.328 55.1113 143.413 55.1908C143.497 55.2702 143.566 55.3657 143.613 55.4717C143.661 55.5777 143.687 55.6922 143.691 55.8084Z" fill="#482320"/>
<path d="M140.51 53.9651C141.751 53.7159 143.025 53.6751 144.279 53.8444C144.279 53.8444 144.604 52.3438 143.121 52.3928C141.638 52.4417 140.51 53.9651 140.51 53.9651Z" fill="#482320"/>
<path d="M148.927 56.0144C148.933 56.1892 148.99 56.3582 149.092 56.5002C149.194 56.6422 149.335 56.7508 149.498 56.8122C149.661 56.8737 149.839 56.8852 150.009 56.8454C150.178 56.8056 150.333 56.7163 150.452 56.5886C150.571 56.461 150.649 56.3008 150.678 56.1283C150.706 55.9559 150.683 55.7788 150.611 55.6196C150.539 55.4604 150.421 55.3262 150.273 55.2339C150.125 55.1416 149.953 55.0954 149.779 55.1011C149.663 55.1044 149.549 55.1308 149.444 55.1786C149.338 55.2264 149.243 55.2948 149.163 55.3797C149.084 55.4646 149.023 55.5644 148.982 55.6734C148.941 55.7823 148.923 55.8982 148.927 56.0144Z" fill="#482320"/>
<path d="M152.001 53.9725C150.746 53.8021 149.472 53.8418 148.231 54.0899C148.231 54.0899 147.818 52.6122 149.298 52.5665C150.778 52.5208 152.001 53.9725 152.001 53.9725Z" fill="#482320"/>
<path d="M144.104 59.5801C145.071 59.8419 146.09 59.8419 147.057 59.5801C146.572 60.034 145.931 60.2809 145.268 60.2684C144.117 60.2684 144.104 59.5801 144.104 59.5801Z" fill="#B56167"/>
<path d="M144.413 61.6541L148.641 61.4453C148.641 61.4453 147.015 64.1268 145.596 63.4581C144.178 62.7893 144.413 61.6541 144.413 61.6541Z" fill="white"/>
<path d="M154.46 46.4141C154.46 46.4141 148.777 49.7904 142.308 46.6163C141.702 46.9671 141.2 47.473 140.853 48.0823C140.506 48.6916 140.327 49.3824 140.334 50.084C140.334 52.0119 136.672 47.2329 137.836 42.7703C139 38.3077 150.521 35.437 154.59 36.0242C158.659 36.6114 159.192 38.8818 159.908 40.1051C159.908 40.1051 163.141 40.4313 164.074 44.2904C164.926 47.8168 165.089 54.7097 161.378 59.8573C161.266 60.0136 161.11 60.1333 160.931 60.2014C160.751 60.2695 160.556 60.2829 160.368 60.2401C160.181 60.1973 160.011 60.1 159.879 59.9606C159.746 59.8211 159.658 59.6457 159.625 59.4561C159.556 58.9896 159.527 57.3161 159.817 57.3748C161.345 57.6717 163.463 53.992 162.149 52.5273C160.291 50.4624 158.766 53.0427 158.766 54.7064C158.766 56.4321 157.228 53.2189 157.104 51.4834C156.98 49.748 154.821 49.5294 154.46 46.4141Z" fill="#482320"/>
<path d="M139.648 76.5293H137.924V86.9029H139.648C141.554 86.9029 143.095 84.5802 143.095 81.7161C143.095 78.8519 141.554 76.5293 139.648 76.5293Z" fill="#E4DFE8"/>
<path d="M137.924 86.9029C139.828 86.9029 141.371 84.5807 141.371 81.7161C141.371 78.8515 139.828 76.5293 137.924 76.5293C136.02 76.5293 134.476 78.8515 134.476 81.7161C134.476 84.5807 136.02 86.9029 137.924 86.9029Z" fill="#B1A9B9"/>
<path d="M137.215 78.291H134.938V85.1415H137.215C138.467 85.1415 139.491 83.6115 139.491 81.726C139.491 79.8405 138.467 78.291 137.215 78.291Z" fill="#E4DFE8"/>
<path d="M134.941 85.1317C136.195 85.1317 137.211 83.6026 137.211 81.7162C137.211 79.8299 136.195 78.3008 134.941 78.3008C133.687 78.3008 132.671 79.8299 132.671 81.7162C132.671 83.6026 133.687 85.1317 134.941 85.1317Z" fill="#B1A9B9"/>
<path d="M119.752 87.1578C119.752 87.1578 123.33 86.6261 124.91 85.2951C126.491 83.9642 128.651 80.2095 130.583 79.4853C132.515 78.7611 137.462 76.6994 137.582 77.6683C137.703 78.6371 133.478 80.5748 133.478 80.5748C133.478 80.5748 138.789 78.8785 138.548 80.0888C138.308 81.299 133.598 82.5093 133.598 82.5093C133.598 82.5093 139.03 82.63 137.943 83.4879C136.857 84.3459 133.715 84.0947 133.715 84.0947C133.715 84.0947 137.699 85.0733 136.733 85.5463C135.767 86.0193 133.481 85.667 133.481 85.667C133.481 85.667 130.228 89.4185 126.481 89.2978L121.534 91.9629L119.752 87.1578Z" fill="#B56167"/>
<path d="M66.3842 75.3327C65.9592 76.1751 65.7378 77.1059 65.7378 78.05C65.7378 78.9941 65.9592 79.925 66.3842 80.7674C69.279 86.7371 82.6079 102.708 90.3977 103.394C97.1207 103.984 123.369 94.2759 123.369 94.2759C123.369 94.2759 124.081 87.5624 120.5 86.6033L92.0467 92.3642C92.0467 92.3642 79.0366 75.9329 76.3045 73.209C74.1058 71.0038 68.4821 71.3724 66.3842 75.3327Z" fill="white"/>
<path d="M119.752 92.2797C117.342 93.5846 92.5638 98.804 90.4367 100.947C89.2723 102.115 89.6593 102.905 90.248 103.378L90.3814 103.394C97.1206 103.984 123.369 94.2762 123.369 94.2762C123.369 94.2762 123.821 89.9832 122.172 87.7715C121.999 89.0568 121.456 91.3598 119.752 92.2797Z" fill="#F0EDF2"/>
<path d="M37.5895 110.43H36.3372V107.468C36.3364 107.083 36.1836 106.714 35.9124 106.442C35.6411 106.17 35.2735 106.017 34.8899 106.016H27.0838C26.7005 106.017 26.3332 106.17 26.0624 106.442C25.7917 106.714 25.6396 107.083 25.6396 107.468V110.43H24.3939V107.468C24.3939 106.749 24.6782 106.06 25.1844 105.552C25.6906 105.044 26.3772 104.758 27.0935 104.757H34.8996C35.6159 104.758 36.3025 105.044 36.8087 105.552C37.3149 106.06 37.5992 106.749 37.5992 107.468L37.5895 110.43Z" fill="#B1A9B9"/>
<path d="M40.6437 109.722H13.4427V129.621H40.6437V109.722Z" fill="white"/>
<path d="M40.6437 129.621H48.6384V109.722H40.6437V129.621Z" fill="#B1A9B9"/>
<path d="M27.0448 126.277C30.6823 126.277 33.6311 123.32 33.6311 119.671C33.6311 116.023 30.6823 113.065 27.0448 113.065C23.4072 113.065 20.4584 116.023 20.4584 119.671C20.4584 123.32 23.4072 126.277 27.0448 126.277Z" fill="#75DECB"/>
<path d="M29.237 115.215H25.0055V124.13H29.237V115.215Z" fill="white"/>
<path d="M31.5626 121.795V117.551H22.6735V121.795H31.5626Z" fill="white"/>
<path d="M54.9028 100.001C56.0199 100.001 57.0913 100.446 57.8812 101.238C58.6711 102.031 59.1149 103.105 59.1149 104.225V129.621H50.6908V104.225C50.6908 103.105 51.1346 102.031 51.9245 101.238C52.7144 100.446 53.7857 100.001 54.9028 100.001Z" fill="#B1A9B9"/>
<path d="M56.4413 100.001C57.5584 100.001 58.6297 100.446 59.4196 101.238C60.2095 102.031 60.6533 103.105 60.6533 104.225V129.621H52.2292V104.225C52.2292 103.671 52.3382 103.121 52.5499 102.609C52.7615 102.096 53.0718 101.631 53.4629 101.238C53.854 100.846 54.3184 100.535 54.8294 100.323C55.3404 100.11 55.8881 100.001 56.4413 100.001Z" fill="#E4DFE8"/>
<path d="M58.1619 102.457H54.9028V129.621H58.1619V102.457Z" fill="white"/>
<path d="M55.6834 103.002H55.5045V129.621H55.6834V103.002Z" fill="#39657D"/>
<path d="M57.3812 103.586H56.0249V103.765H57.3812V103.586Z" fill="#39657D"/>
<path d="M56.8413 104.075H56.0249V104.255H56.8413V104.075Z" fill="#39657D"/>
<path d="M56.8413 104.562H56.0249V104.741H56.8413V104.562Z" fill="#39657D"/>
<path d="M56.8413 105.047H56.0249V105.226H56.8413V105.047Z" fill="#39657D"/>
<path d="M56.8413 105.533H56.0249V105.713H56.8413V105.533Z" fill="#39657D"/>
<path d="M57.3812 106.036H56.0249V106.216H57.3812V106.036Z" fill="#39657D"/>
<path d="M56.8413 106.521H56.0249V106.701H56.8413V106.521Z" fill="#39657D"/>
<path d="M56.8413 107.008H56.0249V107.187H56.8413V107.008Z" fill="#39657D"/>
<path d="M56.8413 107.497H56.0249V107.676H56.8413V107.497Z" fill="#39657D"/>
<path d="M56.8413 107.983H56.0249V108.163H56.8413V107.983Z" fill="#39657D"/>
<path d="M57.3812 108.482H56.0249V108.662H57.3812V108.482Z" fill="#39657D"/>
<path d="M56.8413 108.972H56.0249V109.151H56.8413V108.972Z" fill="#39657D"/>
<path d="M56.8413 109.458H56.0249V109.637H56.8413V109.458Z" fill="#39657D"/>
<path d="M56.8413 109.943H56.0249V110.123H56.8413V109.943Z" fill="#39657D"/>
<path d="M56.8413 110.43H56.0249V110.609H56.8413V110.43Z" fill="#39657D"/>
<path d="M57.3812 110.932H56.0249V111.111H57.3812V110.932Z" fill="#39657D"/>
<path d="M56.8413 111.418H56.0249V111.597H56.8413V111.418Z" fill="#39657D"/>
<path d="M56.8413 111.904H56.0249V112.084H56.8413V111.904Z" fill="#39657D"/>
<path d="M56.8413 112.394H56.0249V112.573H56.8413V112.394Z" fill="#39657D"/>
<path d="M56.8413 112.88H56.0249V113.059H56.8413V112.88Z" fill="#39657D"/>
<path d="M57.3812 113.379H56.0249V113.558H57.3812V113.379Z" fill="#39657D"/>
<path d="M56.8413 113.865H56.0249V114.045H56.8413V113.865Z" fill="#39657D"/>
<path d="M56.8413 114.354H56.0249V114.534H56.8413V114.354Z" fill="#39657D"/>
<path d="M56.8413 114.84H56.0249V115.019H56.8413V114.84Z" fill="#39657D"/>
<path d="M56.8413 115.326H56.0249V115.506H56.8413V115.326Z" fill="#39657D"/>
<path d="M57.3812 115.828H56.0249V116.008H57.3812V115.828Z" fill="#39657D"/>
<path d="M56.8413 116.314H56.0249V116.494H56.8413V116.314Z" fill="#39657D"/>
<path d="M56.8413 116.801H56.0249V116.98H56.8413V116.801Z" fill="#39657D"/>
<path d="M56.8413 117.287H56.0249V117.467H56.8413V117.287Z" fill="#39657D"/>
<path d="M56.8413 117.776H56.0249V117.956H56.8413V117.776Z" fill="#39657D"/>
<path d="M57.3812 118.275H56.0249V118.455H57.3812V118.275Z" fill="#39657D"/>
<path d="M56.8413 118.762H56.0249V118.941H56.8413V118.762Z" fill="#39657D"/>
<path d="M56.8413 119.251H56.0249V119.43H56.8413V119.251Z" fill="#39657D"/>
<path d="M56.8413 119.736H56.0249V119.916H56.8413V119.736Z" fill="#39657D"/>
<path d="M56.8413 120.223H56.0249V120.402H56.8413V120.223Z" fill="#39657D"/>
<path d="M57.3812 120.725H56.0249V120.904H57.3812V120.725Z" fill="#39657D"/>
<path d="M56.8413 121.211H56.0249V121.39H56.8413V121.211Z" fill="#39657D"/>
<path d="M56.8413 121.697H56.0249V121.877H56.8413V121.697Z" fill="#39657D"/>
<path d="M56.8413 122.184H56.0249V122.363H56.8413V122.184Z" fill="#39657D"/>
<path d="M56.8413 122.673H56.0249V122.852H56.8413V122.673Z" fill="#39657D"/>
<path d="M57.3812 123.172H56.0249V123.351H57.3812V123.172Z" fill="#39657D"/>
<path d="M56.8413 123.657H56.0249V123.837H56.8413V123.657Z" fill="#39657D"/>
<path d="M56.8413 124.147H56.0249V124.327H56.8413V124.147Z" fill="#39657D"/>
<path d="M56.8413 124.633H56.0249V124.812H56.8413V124.633Z" fill="#39657D"/>
<path d="M56.8413 125.119H56.0249V125.299H56.8413V125.119Z" fill="#39657D"/>
<path d="M57.3812 125.621H56.0249V125.801H57.3812V125.621Z" fill="#39657D"/>
<path d="M56.8413 126.107H56.0249V126.287H56.8413V126.107Z" fill="#39657D"/>
<path d="M56.8413 126.594H56.0249V126.773H56.8413V126.594Z" fill="#39657D"/>
<path d="M56.8413 127.08H56.0249V127.259H56.8413V127.08Z" fill="#39657D"/>
<path d="M56.8413 127.569H56.0249V127.749H56.8413V127.569Z" fill="#39657D"/>
<path d="M74.4928 126.284H50.6908V129.621H74.4928V126.284Z" fill="#0055AA"/>
<path d="M69.7539 126.284H50.6908V129.621H69.7539V126.284Z" fill="#1A78C6"/>
<path d="M206.956 129.621H5.98788C5.29281 129.645 4.63429 129.939 4.15114 130.441C3.66799 130.943 3.39795 131.613 3.39795 132.31C3.39795 133.008 3.66799 133.678 4.15114 134.18C4.63429 134.682 5.29281 134.976 5.98788 135H206.956C207.316 135.013 207.674 134.952 208.011 134.823C208.347 134.693 208.654 134.497 208.913 134.246C209.172 133.995 209.378 133.694 209.519 133.362C209.66 133.029 209.732 132.672 209.732 132.31C209.732 131.949 209.66 131.591 209.519 131.259C209.378 130.926 209.172 130.626 208.913 130.375C208.654 130.124 208.347 129.927 208.011 129.798C207.674 129.668 207.316 129.608 206.956 129.621Z" fill="#482320"/>
<path d="M58.666 31.5225H30.6194V69.9928H58.666V31.5225Z" fill="#FFB0C9"/>
<path d="M57.0072 33.793H32.2749V67.7191H57.0072V33.793Z" fill="white"/>
<path d="M48.762 32.2753C48.6214 32.2551 48.4868 32.2043 48.3678 32.1266C48.2487 32.0488 48.1481 31.9459 48.0728 31.825C47.9975 31.7042 47.9495 31.5683 47.932 31.4269C47.9145 31.2855 47.9281 31.1419 47.9716 31.0063C48.0189 30.8591 48.0308 30.7028 48.0062 30.5502C47.9816 30.3975 47.9213 30.2529 47.8302 30.1281C47.7391 30.0033 47.6199 29.902 47.4822 29.8323C47.3445 29.7627 47.1923 29.7268 47.0382 29.7276H42.2439C42.0895 29.7263 41.9369 29.7618 41.7988 29.8312C41.6607 29.9006 41.541 30.0019 41.4496 30.1267C41.3581 30.2516 41.2975 30.3964 41.2728 30.5493C41.248 30.7023 41.2598 30.8589 41.3072 31.0063C41.3508 31.1417 41.3644 31.285 41.3471 31.4262C41.3298 31.5674 41.2821 31.7031 41.2071 31.8239C41.1322 31.9447 41.0319 32.0477 40.9133 32.1257C40.7946 32.2036 40.6604 32.2547 40.5201 32.2753L38.6661 32.5526V34.4805H50.616V32.5526L48.762 32.2753Z" fill="#DD4C38"/>
<path d="M40.9201 37.7266H35.0851V43.5788H40.9201V37.7266Z" fill="#75DECB"/>
<path d="M35.5859 39.5407H36.3535L38.0026 41.4295L40.6176 38.1543L38.0026 42.1602L35.5859 39.5407Z" fill="white"/>
<path d="M54.1969 38.5059H41.9381V38.7179H54.1969V38.5059Z" fill="#091143"/>
<path d="M41.9381 40.757V40.5449H54.1969V40.757" fill="#091143"/>
<path d="M54.1969 42.584H41.9381V42.796H54.1969V42.584Z" fill="#091143"/>
<path d="M40.9201 44.9424H35.0851V50.7946H40.9201V44.9424Z" fill="#75DECB"/>
<path d="M35.5859 46.7594H36.3535L38.0026 48.6482L40.6176 45.373L38.0026 49.3789L35.5859 46.7594Z" fill="white"/>
<path d="M54.1969 45.7256H41.9381V45.9376H54.1969V45.7256Z" fill="#091143"/>
<path d="M54.1969 47.7646V47.9767H41.9381V47.7646" fill="#091143"/>
<path d="M54.1969 49.8027H41.9381V50.0148H54.1969V49.8027Z" fill="#091143"/>
<path d="M40.9201 52.1611H35.0851V58.0134H40.9201V52.1611Z" fill="#75DECB"/>
<path d="M35.5859 53.9785H36.3535L38.0026 55.864L40.6176 52.5889L38.0026 56.598L35.5859 53.9785Z" fill="white"/>
<path d="M54.1969 52.9443H41.9381V53.1564H54.1969V52.9443Z" fill="#091143"/>
<path d="M54.1969 54.9834V55.1954H41.9381V54.9834" fill="#091143"/>
<path d="M54.1969 57.0225H41.9381V57.2345H54.1969V57.0225Z" fill="#091143"/>
<path d="M40.9201 59.3809H35.0851V65.2331H40.9201V59.3809Z" fill="#75DECB"/>
<path d="M35.5859 61.194H36.3535L38.0026 63.0828L40.6176 59.8076L38.0026 63.8168L35.5859 61.194Z" fill="white"/>
<path d="M54.1969 60.1602H41.9381V60.3722H54.1969V60.1602Z" fill="#091143"/>
<path d="M54.1969 62.1992V62.4145H41.9381V62.1992" fill="#091143"/>
<path d="M54.1969 64.2383H41.9381V64.4503H54.1969V64.2383Z" fill="#091143"/>
<path d="M179.098 24.8899C178.746 24.1699 178.239 23.5374 177.613 23.0386C176.987 22.5397 176.259 22.187 175.48 22.0061C174.701 21.8252 173.892 21.8207 173.111 21.9928C172.33 22.1649 171.598 22.5094 170.966 23.0012L170.371 23.4644L169.782 23.0012C169.151 22.5088 168.419 22.1638 167.638 21.9914C166.857 21.8189 166.047 21.8233 165.268 22.0043C164.489 22.1852 163.761 22.5381 163.135 23.0373C162.509 23.5365 162.002 24.1694 161.651 24.8899C161.202 25.8063 161.021 26.8319 161.131 27.8472C161.24 28.8626 161.635 29.8258 162.269 30.6247L170.374 37.6742L178.48 30.6247C179.112 29.8251 179.506 28.862 179.616 27.847C179.725 26.832 179.545 25.8067 179.098 24.8899Z" fill="#DD4C38"/>
<path d="M173.233 34.0572C173.175 34.0573 173.119 34.0376 173.073 34.0015C173.028 33.9654 172.996 33.9149 172.983 33.8582L170.921 25.6311L168.4 32.5925C168.381 32.6463 168.345 32.6922 168.297 32.7229C168.25 32.7537 168.193 32.7675 168.137 32.7621C168.08 32.7571 168.027 32.734 167.985 32.6965C167.943 32.6589 167.914 32.6087 167.902 32.5534L166.855 27.1089L165.733 29.8719C165.713 29.9197 165.68 29.9604 165.637 29.9889C165.594 30.0174 165.544 30.0323 165.492 30.0317H157.361C157.327 30.0322 157.293 30.0258 157.262 30.0131C157.23 30.0003 157.201 29.9814 157.177 29.9574C157.153 29.9334 157.134 29.9049 157.121 29.8734C157.107 29.8419 157.101 29.8081 157.101 29.774C157.101 29.7048 157.128 29.6384 157.177 29.5895C157.226 29.5406 157.292 29.5131 157.361 29.5131H165.326L166.709 26.0976C166.73 26.0454 166.767 26.0015 166.815 25.9727C166.863 25.9438 166.92 25.9316 166.975 25.9378C167.031 25.9426 167.083 25.9657 167.125 26.0035C167.166 26.0412 167.193 26.0915 167.203 26.1465L168.234 31.5225L170.722 24.6525C170.742 24.6005 170.777 24.5558 170.823 24.5249C170.869 24.4939 170.924 24.478 170.979 24.4796C171.035 24.4829 171.088 24.504 171.131 24.5398C171.173 24.5757 171.204 24.6243 171.217 24.6786L173.233 32.7263L174.755 26.6978C174.769 26.642 174.801 26.5922 174.845 26.5562C174.89 26.5203 174.945 26.5001 175.003 26.4989C175.06 26.499 175.115 26.5179 175.16 26.5527C175.206 26.5874 175.238 26.6362 175.253 26.6913L176.008 29.5065H183.381C183.415 29.5065 183.449 29.5133 183.48 29.5265C183.512 29.5396 183.54 29.5589 183.564 29.5832C183.588 29.6074 183.607 29.6362 183.62 29.6679C183.632 29.6995 183.639 29.7334 183.638 29.7675C183.638 29.8359 183.611 29.9014 183.563 29.9497C183.515 29.9981 183.449 30.0252 183.381 30.0252H175.813C175.755 30.0256 175.7 30.0069 175.654 29.9721C175.609 29.9372 175.577 29.8882 175.562 29.8327L175.012 27.7907L173.484 33.8517C173.471 33.9093 173.44 33.9609 173.394 33.9982C173.349 34.0356 173.292 34.0563 173.233 34.0572Z" fill="white"/>
<path d="M189.127 60.3582C190.202 55.7368 187.338 51.1165 182.73 50.0385C178.122 48.9605 173.515 51.833 172.441 56.4544C171.366 61.0759 174.23 65.6961 178.838 66.7741C183.446 67.8521 188.052 64.9796 189.127 60.3582Z" fill="#75DECB"/>
<path d="M183.645 52.6113H178.138V64.2082H183.645V52.6113Z" fill="white"/>
<path d="M186.669 61.1712V55.6484H175.107V61.1712H186.669Z" fill="white"/>
<path d="M79.0405 20.1845C79.9184 14.7058 76.2018 9.55063 70.7392 8.67014C65.2766 7.78965 60.1367 11.5172 59.2588 16.9959C58.3809 22.4746 62.0975 27.6298 67.5601 28.5103C73.0227 29.3908 78.1626 25.6632 79.0405 20.1845Z" fill="#75DECB"/>
<path d="M66.9241 10.4746C66.558 10.4742 66.1953 10.5462 65.8569 10.6865C65.5186 10.8269 65.2111 11.0328 64.9522 11.2925C64.6933 11.5522 64.488 11.8605 64.348 12.1999C64.2081 12.5393 64.1363 12.903 64.1367 13.2703V17.2664H69.7116V13.2703C69.7116 12.5288 69.4179 11.8177 68.8951 11.2934C68.3724 10.7692 67.6634 10.4746 66.9241 10.4746Z" fill="#DD4C38"/>
<path d="M66.9241 24.0616C66.5581 24.0616 66.1956 23.9893 65.8574 23.8488C65.5193 23.7083 65.212 23.5024 64.9531 23.2428C64.6943 22.9832 64.489 22.675 64.3489 22.3358C64.2088 21.9966 64.1367 21.6331 64.1367 21.266V17.2666H69.7116V21.266C69.7116 21.6331 69.6395 21.9966 69.4994 22.3358C69.3593 22.675 69.154 22.9832 68.8951 23.2428C68.6363 23.5024 68.329 23.7083 67.9908 23.8488C67.6527 23.9893 67.2902 24.0616 66.9241 24.0616Z" fill="white"/>
<path d="M75.3255 16.4413C75.0723 16.1763 74.7696 15.964 74.4345 15.8165C74.0995 15.669 73.7388 15.5892 73.3729 15.5816C73.0071 15.5741 72.6434 15.6389 72.3026 15.7724C71.9618 15.9059 71.6505 16.1055 71.3867 16.3597L68.5082 19.126L72.3657 23.1612L75.2442 20.395C75.7771 19.8811 76.0849 19.1762 76.1002 18.435C76.1154 17.6937 75.8368 16.9767 75.3255 16.4413Z" fill="#DD4C38"/>
<path d="M65.5451 25.846C65.0342 25.3101 64.7562 24.5928 64.772 23.8516C64.7879 23.1103 65.0963 22.4057 65.6297 21.8923L68.5082 19.126L72.3657 23.1612L69.4872 25.9275C68.9533 26.4403 68.2384 26.7198 67.4993 26.7045C66.7602 26.6892 66.0574 26.3804 65.5451 25.846Z" fill="white"/>
<path d="M119.404 53.1896C124.789 53.1896 129.155 48.811 129.155 43.4098C129.155 38.0085 124.789 33.6299 119.404 33.6299C114.018 33.6299 109.653 38.0085 109.653 43.4098C109.653 48.811 114.018 53.1896 119.404 53.1896Z" fill="#FFB0C9"/>
<path d="M130.549 32.1067L123.677 38.999L123.804 39.1259L130.676 32.2336L130.549 32.1067Z" fill="#75DECB"/>
<path d="M113.845 53.5506L109.291 48.9834L108.132 50.146L112.685 54.7132L113.845 53.5506Z" fill="white"/>
<path d="M125.146 38.9742L123.821 37.6455L110.905 50.5998L112.23 51.9284L125.146 38.9742Z" fill="#B1A9B9"/>
<path d="M124.815 40.8038L122 37.9805L113.307 46.6997L116.122 49.5231L124.815 40.8038Z" fill="white"/>
<path d="M116.518 49.1281L113.703 46.3047L113.309 46.6991L116.124 49.5225L116.518 49.1281Z" fill="#B1A9B9"/>
<path d="M116.994 50.3905L112.44 45.8232L111.281 46.9858L115.835 51.553L116.994 50.3905Z" fill="white"/>
<path d="M121.912 38.9322L121.77 39.0752L122.86 40.1686L123.003 40.0255L121.912 38.9322Z" fill="#39657D"/>
<path d="M121.523 39.3238L121.38 39.4668L122.038 40.1265L122.18 39.9835L121.523 39.3238Z" fill="#39657D"/>
<path d="M121.132 39.7144L120.99 39.8574L121.648 40.5171L121.79 40.3741L121.132 39.7144Z" fill="#39657D"/>
<path d="M120.742 40.108L120.599 40.251L121.257 40.9107L121.4 40.7677L120.742 40.108Z" fill="#39657D"/>
<path d="M120.352 40.4957L120.209 40.6387L120.867 41.2984L121.009 41.1554L120.352 40.4957Z" fill="#39657D"/>
<path d="M119.954 40.9039L119.811 41.0469L120.901 42.1402L121.044 41.9972L119.954 40.9039Z" fill="#39657D"/>
<path d="M119.565 41.2935L119.422 41.4365L120.08 42.0962L120.222 41.9532L119.565 41.2935Z" fill="#39657D"/>
<path d="M119.171 41.6841L119.028 41.8271L119.686 42.4869L119.829 42.3438L119.171 41.6841Z" fill="#39657D"/>
<path d="M118.781 42.0748L118.638 42.2178L119.296 42.8775L119.439 42.7345L118.781 42.0748Z" fill="#39657D"/>
<path d="M118.391 42.4654L118.248 42.6084L118.906 43.2681L119.048 43.1251L118.391 42.4654Z" fill="#39657D"/>
<path d="M117.989 42.8697L117.846 43.0127L118.937 44.1061L119.079 43.963L117.989 42.8697Z" fill="#39657D"/>
<path d="M117.598 43.2584L117.455 43.4014L118.113 44.0611L118.256 43.9181L117.598 43.2584Z" fill="#39657D"/>
<path d="M117.208 43.6529L117.065 43.7959L117.723 44.4556L117.865 44.3126L117.208 43.6529Z" fill="#39657D"/>
<path d="M116.817 44.0464L116.675 44.1895L117.332 44.8492L117.475 44.7061L116.817 44.0464Z" fill="#39657D"/>
<path d="M116.427 44.4332L116.284 44.5762L116.942 45.2359L117.085 45.0929L116.427 44.4332Z" fill="#39657D"/>
<path d="M116.028 44.8365L115.885 44.9795L116.975 46.0729L117.118 45.9298L116.028 44.8365Z" fill="#39657D"/>
<path d="M115.639 45.231L115.496 45.374L116.154 46.0337L116.297 45.8907L115.639 45.231Z" fill="#39657D"/>
<path d="M115.249 45.6246L115.106 45.7676L115.764 46.4273L115.906 46.2843L115.249 45.6246Z" fill="#39657D"/>
<path d="M114.858 46.0083L114.716 46.1514L115.373 46.8111L115.516 46.6681L114.858 46.0083Z" fill="#39657D"/>
<path d="M114.468 46.4058L114.325 46.5488L114.983 47.2085L115.126 47.0655L114.468 46.4058Z" fill="#39657D"/>
</svg>
