<svg width="15" height="15" viewBox="0 0 15 15" fill="none" xmlns="http://www.w3.org/2000/svg">
<path d="M4.07275 8.58398C4.07275 8.9076 4.33508 9.16992 4.65869 9.16992H10.313C10.6366 9.16992 10.8989 8.9076 10.8989 8.58398C10.8989 8.26037 10.6366 7.99805 10.313 7.99805H4.65869C4.33508 7.99805 4.07275 8.26037 4.07275 8.58398Z" fill="#048390"/>
<path d="M13.4454 8.68348L13.2517 7.30146C13.2067 6.98101 12.9106 6.75753 12.5901 6.80253C12.2696 6.84744 12.0462 7.14366 12.0911 7.46414L12.354 9.33914C12.3945 9.62848 12.642 9.84375 12.9342 9.84375H13.2427C13.5658 9.84375 13.8286 10.1066 13.8286 10.4297C13.8286 10.7528 13.5658 11.0156 13.2427 11.0156H1.7583C1.43521 11.0156 1.17236 10.7528 1.17236 10.4297C1.17236 10.1066 1.43521 9.84375 1.7583 9.84375H2.06674C2.35892 9.84375 2.60645 9.62851 2.64699 9.33914L3.27781 4.83894C3.44776 3.62663 4.11617 2.55249 5.11168 1.89199C5.82178 1.4209 6.65088 1.17188 7.55908 1.17188C8.1294 1.18365 8.69202 1.29598 9.16906 1.50393C9.46572 1.63321 9.81102 1.49757 9.94033 1.20094C10.0696 0.904307 9.93397 0.558984 9.63734 0.429668C9.01936 0.160313 8.3501 0 7.55908 0C6.47519 0 5.36653 0.316582 4.46384 0.915498C3.18904 1.7613 2.33378 3.13204 2.11733 4.67628L1.5556 8.68351C0.681494 8.78435 0.000488281 9.52898 0.000488281 10.4297C0.000488281 11.3989 0.789043 12.1875 1.7583 12.1875H13.2427C14.2119 12.1875 15.0005 11.3989 15.0005 10.4297C15.0005 9.52898 14.3195 8.78435 13.4454 8.68348V8.68348Z" fill="#048390"/>
<path d="M7.52969 15C6.63681 15 5.88631 14.3364 5.78401 13.4563C5.74662 13.1349 5.9769 12.844 6.29834 12.8067C6.61979 12.7691 6.91065 12.9996 6.94803 13.321C6.98163 13.6101 7.23171 13.8281 7.52969 13.8281C7.82767 13.8281 8.07775 13.6101 8.11135 13.321C8.14873 12.9996 8.4398 12.7693 8.76104 12.8067C9.08248 12.844 9.31276 13.1349 9.27538 13.4563C9.17307 14.3364 8.42257 15 7.52969 15V15ZM14.4145 2.34375H12.6566V0.585938C12.6566 0.262324 12.3943 0 12.0707 0C11.7471 0 11.4848 0.262324 11.4848 0.585938V2.34375H9.72696C9.40334 2.34375 9.14102 2.60607 9.14102 2.92969C9.14102 3.2533 9.40334 3.51562 9.72696 3.51562H11.4848V5.27344C11.4848 5.59705 11.7471 5.85938 12.0707 5.85938C12.3943 5.85938 12.6566 5.59705 12.6566 5.27344V3.51562H14.4145C14.7381 3.51562 15.0004 3.2533 15.0004 2.92969C15.0004 2.60607 14.7381 2.34375 14.4145 2.34375Z" fill="#F80D38"/>
</svg>
