<svg width="490" height="478" viewBox="0 0 490 478" fill="none" xmlns="http://www.w3.org/2000/svg">
<path d="M379.75 208.2H306.25C299.5 208.2 294 213.7 294 220.45C294 227.2 299.5 232.7 306.25 232.7H379.75C386.5 232.7 392 227.2 392 220.45C392 213.7 386.5 208.2 379.75 208.2ZM171.5 97.95H196H306.25H330.75C337.5 97.95 343 92.45 343 85.7V48.95C343 42.2 337.5 36.7 330.75 36.7H302.85C295.25 15.35 275.1 0 251.15 0C227.2 0 207 15.35 199.4 36.7H171.5C164.75 36.7 159.25 42.2 159.25 48.95V85.7C159.25 92.5 164.75 97.95 171.5 97.95ZM189.85 61.2H221.7C221.3 59.15 220.45 57.25 220.45 55.05C220.45 38.15 234.15 24.4 251.1 24.4C268 24.4 281.75 38.1 281.75 55.05C281.75 57.25 280.95 59.15 280.5 61.2H312.35C315.75 61.2 318.5 63.95 318.5 67.35C318.5 70.75 315.75 73.5 312.35 73.5H189.85C186.45 73.5 183.75 70.75 183.75 67.35C183.75 63.95 186.5 61.2 189.85 61.2ZM379.75 293.95H306.25C299.5 293.95 294 299.45 294 306.2C294 312.95 299.5 318.45 306.25 318.45H379.75C386.5 318.45 392 312.95 392 306.2C392 299.45 386.5 293.95 379.75 293.95ZM441 48.95H367.5V73.45H428.75C449.05 73.45 465.5 89.9 465.5 110.2V416.45C465.5 436.75 449.05 453.2 428.75 453.2H61.25C40.95 453.2 24.5 436.75 24.5 416.45V110.2C24.5 89.9 40.95 73.45 61.25 73.45H134.75V48.95H49C21.95 48.95 0 70.9 0 97.95V428.7C0 455.75 21.95 477.7 49 477.7H441C468.05 477.7 490 455.75 490 428.7V97.95C490 70.9 468.05 48.95 441 48.95ZM210.75 279.4C224.1 268.15 232.75 251.55 232.75 232.75C232.75 198.9 205.35 171.5 171.5 171.5C137.65 171.5 110.25 198.9 110.25 232.75C110.25 251.55 118.9 268.2 132.25 279.4C104.75 293.7 85.75 322.1 85.75 355.25C85.75 358.05 86.2 360.7 86.6 363.4C86.15 364.7 85.75 366.05 85.75 367.5C85.75 374.25 91.25 379.75 98 379.75C104.75 379.75 110.25 374.25 110.25 367.5H111.45C110.65 363.55 110.25 359.45 110.25 355.25C110.25 321.4 137.65 294 171.5 294C205.35 294 232.75 321.4 232.75 355.25C232.75 359.45 232.3 363.55 231.5 367.5H232.75C232.75 374.25 238.25 379.75 245 379.75C251.75 379.75 257.25 374.25 257.25 367.5C257.25 366.05 256.9 364.7 256.4 363.4C256.75 360.7 257.25 358.05 257.25 355.25C257.25 322.1 238.25 293.7 210.75 279.4ZM171.5 269.5C151.2 269.5 134.75 253.05 134.75 232.75C134.75 212.45 151.2 196 171.5 196C191.8 196 208.25 212.45 208.25 232.75C208.25 253 191.8 269.5 171.5 269.5Z" fill="#6B6C7E"/>
</svg>
