<svg width="28" height="28" viewBox="0 0 28 28" fill="none" xmlns="http://www.w3.org/2000/svg">
<path fill-rule="evenodd" clip-rule="evenodd" d="M14 4.9C14 7.60725 11.8073 9.8 9.1 9.8C6.39275 9.8 4.2 7.60725 4.2 4.9C4.2 2.19275 6.39275 0 9.1 0C11.8073 0 14 2.19275 14 4.9ZM0 14.98C0 12.0008 6.06291 10.5 9.1 10.5C10.9871 10.5 14.0421 11.0794 16.0854 12.2328C13.5759 13.5465 11.7553 15.9967 11.307 18.9H0V14.98ZM18.2 13.3C18.2 12.9134 18.5134 12.6 18.9 12.6H21.7C22.0866 12.6 22.4 12.9134 22.4 13.3C22.4 13.6866 22.0866 14 21.7 14H21V15.4496C21.8301 15.5683 22.5931 15.8952 23.2345 16.3755L24.2101 15.4L24.005 15.195C23.7317 14.9216 23.7317 14.4784 24.005 14.205C24.2784 13.9317 24.7216 13.9317 24.995 14.205L26.395 15.605C26.6683 15.8784 26.6683 16.3216 26.395 16.595C26.1216 16.8683 25.6784 16.8683 25.405 16.595L25.2 16.3899L24.2245 17.3655C24.7048 18.0069 25.0317 18.7699 25.1504 19.6H26.6V18.9C26.6 18.5134 26.9134 18.2 27.3 18.2C27.6866 18.2 28 18.5134 28 18.9V21.7C28 22.0866 27.6866 22.4 27.3 22.4C26.9134 22.4 26.6 22.0866 26.6 21.7V21H25.1504C25.0565 21.6562 24.8326 22.2704 24.5057 22.8158L25.9 24.2101L26.105 24.005C26.3784 23.7317 26.8216 23.7317 27.095 24.005C27.3683 24.2784 27.3683 24.7216 27.095 24.995L25.695 26.395C25.4216 26.6683 24.9784 26.6683 24.705 26.395C24.4317 26.1216 24.4317 25.6784 24.705 25.405L24.9101 25.2L23.6168 23.9067C22.9063 24.5605 22.0021 25.0071 21 25.1504V26.6H21.7C22.0866 26.6 22.4 26.9134 22.4 27.3C22.4 27.6866 22.0866 28 21.7 28H18.9C18.5134 28 18.2 27.6866 18.2 27.3C18.2 26.9134 18.5134 26.6 18.9 26.6H19.6V25.1504C18.7699 25.0317 18.0069 24.7048 17.3655 24.2245L16.3899 25.2L16.595 25.405C16.8683 25.6784 16.8683 26.1216 16.595 26.395C16.3216 26.6683 15.8784 26.6683 15.605 26.395L14.205 24.995C13.9317 24.7216 13.9317 24.2784 14.205 24.005C14.4784 23.7317 14.9216 23.7317 15.195 24.005L15.4 24.2101L16.3755 23.2345C15.8952 22.5931 15.5683 21.8301 15.4496 21H14V21.7C14 22.0866 13.6866 22.4 13.3 22.4C12.9134 22.4 12.6 22.0866 12.6 21.7V18.9C12.6 18.5134 12.9134 18.2 13.3 18.2C13.6866 18.2 14 18.5134 14 18.9V19.6H15.4496C15.5683 18.7699 15.8952 18.0069 16.3755 17.3655L15.4 16.3899L15.195 16.595C14.9216 16.8683 14.4784 16.8683 14.205 16.595C13.9317 16.3216 13.9317 15.8784 14.205 15.605L15.605 14.205C15.8784 13.9317 16.3216 13.9317 16.595 14.205C16.8683 14.4784 16.8683 14.9216 16.595 15.195L16.3899 15.4L17.3655 16.3755C18.0069 15.8952 18.7699 15.5683 19.6 15.4496V14H18.9C18.5134 14 18.2 13.6866 18.2 13.3Z" fill="#6B6C7E"/>
</svg>
