<svg width="16" height="17" viewBox="0 0 16 17" fill="none" xmlns="http://www.w3.org/2000/svg">
<path d="M12.2388 10.3491C11.9235 10.0208 11.5433 9.84527 11.1402 9.84527C10.7404 9.84527 10.3569 10.0175 10.0286 10.3458L9.00153 11.3697C8.91702 11.3242 8.83251 11.2819 8.75125 11.2396C8.63424 11.1811 8.52373 11.1259 8.42948 11.0674C7.46739 10.4563 6.59306 9.66001 5.75448 8.62966C5.3482 8.11612 5.07517 7.68383 4.87691 7.24504C5.14343 7.00127 5.39045 6.74775 5.63097 6.50397C5.72198 6.41297 5.81299 6.31871 5.904 6.2277C6.58656 5.54514 6.58656 4.66106 5.904 3.9785L5.01667 3.09117C4.91591 2.99041 4.8119 2.8864 4.71439 2.78239C4.51937 2.58087 4.31461 2.37285 4.10334 2.17784C3.78806 1.86581 3.41102 1.70004 3.01449 1.70004C2.61795 1.70004 2.23442 1.86581 1.90939 2.17784C1.90614 2.18109 1.90614 2.18109 1.90289 2.18434L0.797789 3.29919C0.381752 3.71522 0.144481 4.22227 0.092476 4.81057C0.014469 5.75966 0.293994 6.64374 0.508513 7.22229C1.03506 8.64267 1.82163 9.95903 2.99499 11.3697C4.41861 13.0696 6.13152 14.4119 8.08819 15.3578C8.83576 15.7121 9.8336 16.1313 10.9485 16.2028C11.0167 16.2061 11.0882 16.2093 11.1532 16.2093C11.904 16.2093 12.5346 15.9396 13.0286 15.4033C13.0319 15.3968 13.0384 15.3935 13.0416 15.387C13.2107 15.1823 13.4057 14.997 13.6104 14.7987C13.7502 14.6655 13.8932 14.5257 14.033 14.3794C14.3548 14.0447 14.5238 13.6546 14.5238 13.2548C14.5238 12.8518 14.3515 12.465 14.0232 12.14L12.2388 10.3491ZM13.4024 13.7716C13.3992 13.7716 13.3992 13.7749 13.4024 13.7716C13.2757 13.9081 13.1456 14.0317 13.0059 14.1682C12.7946 14.3697 12.5801 14.5809 12.3786 14.8182C12.0503 15.1693 11.6635 15.335 11.1565 15.335C11.1077 15.335 11.0557 15.335 11.007 15.3318C10.0416 15.27 9.14454 14.893 8.47173 14.5712C6.63206 13.6806 5.01667 12.4163 3.6743 10.8139C2.56595 9.47799 1.82488 8.24288 1.33409 6.91676C1.03181 6.10744 0.9213 5.47688 0.970055 4.88208C1.00256 4.50179 1.14882 4.18652 1.4186 3.91674L2.52694 2.80839C2.68621 2.65888 2.85522 2.57762 3.02099 2.57762C3.22576 2.57762 3.39152 2.70113 3.49553 2.80514C3.49878 2.80839 3.50203 2.81164 3.50528 2.81489C3.70355 3.00016 3.89207 3.19193 4.09033 3.3967C4.19109 3.5007 4.2951 3.60471 4.39911 3.71197L5.28644 4.5993C5.63097 4.94383 5.63097 5.26236 5.28644 5.60689C5.19218 5.70115 5.10118 5.79541 5.00692 5.88642C4.73389 6.16594 4.47387 6.42597 4.19109 6.67949C4.18459 6.68599 4.17809 6.68924 4.17484 6.69574C3.89532 6.97527 3.94732 7.24829 4.00583 7.43356C4.00908 7.44331 4.01233 7.45306 4.01558 7.46281C4.24635 8.02186 4.57138 8.54841 5.06542 9.17571L5.06867 9.17896C5.96575 10.2841 6.91159 11.1454 7.95493 11.8052C8.08819 11.8897 8.22471 11.958 8.35472 12.023C8.47173 12.0815 8.58224 12.1367 8.6765 12.1952C8.6895 12.2017 8.7025 12.2115 8.7155 12.218C8.82601 12.2732 8.93002 12.2992 9.03728 12.2992C9.30705 12.2992 9.47607 12.1302 9.53132 12.075L10.6429 10.9634C10.7534 10.8529 10.9289 10.7196 11.1337 10.7196C11.3352 10.7196 11.501 10.8464 11.6018 10.9569C11.605 10.9601 11.605 10.9601 11.6083 10.9634L13.3992 12.7543C13.734 13.0858 13.734 13.4271 13.4024 13.7716Z" fill="white"/>
<path d="M8.39048 4.4725C9.24205 4.61552 10.0156 5.01855 10.6332 5.63611C11.2507 6.25366 11.6505 7.02723 11.7968 7.87881C11.8325 8.09333 12.0178 8.24284 12.2291 8.24284C12.2551 8.24284 12.2778 8.23959 12.3038 8.23634C12.5443 8.19734 12.7036 7.96982 12.6646 7.72929C12.4891 6.69895 12.0016 5.75962 11.2572 5.0153C10.5129 4.27098 9.57358 3.78344 8.54324 3.60793C8.30272 3.56892 8.07845 3.72819 8.03619 3.96546C7.99394 4.20273 8.14995 4.4335 8.39048 4.4725Z" fill="white"/>
<path d="M15.4501 7.60256C15.1608 5.90591 14.3612 4.36202 13.1326 3.13341C11.904 1.9048 10.3601 1.10523 8.66348 0.815955C8.4262 0.773701 8.20193 0.936216 8.15968 1.17349C8.12068 1.41401 8.27994 1.63828 8.52046 1.68053C10.0351 1.93731 11.4165 2.65562 12.5151 3.75097C13.6137 4.84957 14.3287 6.23094 14.5855 7.74558C14.6213 7.9601 14.8065 8.10961 15.0178 8.10961C15.0438 8.10961 15.0666 8.10636 15.0926 8.10311C15.3298 8.06736 15.4923 7.83984 15.4501 7.60256Z" fill="white"/>
</svg>
