<svg width="10" height="10" viewBox="0 0 10 10" fill="none" xmlns="http://www.w3.org/2000/svg">
<path d="M8.4872 4.14655H5.78965V1.44899C5.78965 0.95237 5.38708 0.549805 4.89046 0.549805C4.39384 0.549805 3.99127 0.95237 3.99127 1.44899V4.14655H1.29372C0.797097 4.14655 0.394531 4.54911 0.394531 5.04573C0.394531 5.54235 0.797097 5.94492 1.29372 5.94492H3.99127V8.64248C3.99127 9.1391 4.39384 9.54166 4.89046 9.54166C5.38708 9.54166 5.78965 9.1391 5.78965 8.64248V5.94492H8.4872C8.98382 5.94492 9.38639 5.54235 9.38639 5.04573C9.38639 4.54911 8.98382 4.14655 8.4872 4.14655Z" fill="#343434"/>
</svg>
