<svg width="30" height="25" viewBox="0 0 30 25" fill="none" xmlns="http://www.w3.org/2000/svg">
<path d="M30 7.5C30 6.11925 28.8807 5 27.5 5H2.5C1.11929 5 0 6.11925 0 7.5V22.5C0 23.8807 1.11929 25 2.5 25H27.5C28.8807 25 30 23.8807 30 22.5V7.5Z" fill="#6B6C7E"/>
<path fill-rule="evenodd" clip-rule="evenodd" d="M2.5 1.66667H13.4021C13.7061 1.66667 13.986 1.83225 14.1324 2.09867L17.3375 7.93208C17.6427 8.48742 17.2408 9.16667 16.6072 9.16667H2.5C2.03977 9.16667 1.66667 8.79358 1.66667 8.33333V2.5C1.66667 2.03975 2.03977 1.66667 2.5 1.66667ZM13.4021 0C14.3142 0 15.1539 0.496742 15.5931 1.29617L18.7983 7.1295C19.7137 8.79558 18.5083 10.8333 16.6072 10.8333H2.5C1.11929 10.8333 0 9.71408 0 8.33333V2.5C0 1.11925 1.11929 0 2.5 0H13.4021Z" fill="#6B6C7E"/>
<path fill-rule="evenodd" clip-rule="evenodd" d="M1.66663 5H17.9166V6.66667H1.66663V5Z" fill="#6B6C7E"/>
</svg>
