<svg width="73" height="104" viewBox="0 0 73 104" fill="none" xmlns="http://www.w3.org/2000/svg">
<g clip-path="url(#clip0_131_2303)">
<path d="M17.8903 11.9387V4.86914H5.24841C4.559 4.86895 3.87631 5.00548 3.23936 5.27093C2.60241 5.53639 2.02369 5.92557 1.53627 6.41622C1.04885 6.90687 0.662298 7.48938 0.398696 8.13045C0.135095 8.77152 -0.00038413 9.45859 3.31444e-06 10.1524V98.7166C-0.000771826 99.4107 0.134421 100.098 0.397849 100.739C0.661277 101.381 1.04777 101.964 1.53523 102.455C2.02268 102.946 2.60154 103.335 3.23868 103.601C3.87582 103.866 4.55875 104.003 5.24841 104.003H67.7575C69.1494 104.002 70.4839 103.445 71.4679 102.454C72.452 101.463 73.0051 100.12 73.0059 98.7196V10.1524C73.0051 8.75167 72.452 7.40854 71.4679 6.41796C70.4839 5.42737 69.1494 4.87032 67.7575 4.86914H55.8587V11.9387H67.7516V95.9719H5.24841V11.9387H17.8903Z" fill="#616E7D"/>
<path d="M52.6389 4.86914H21.1101V11.9387H52.6389V4.86914Z" fill="#616E7D"/>
<path d="M5.24841 11.9385V95.9717H67.7575V11.9385H55.8587V16.9695C55.859 17.1819 55.8178 17.3923 55.7373 17.5887C55.6568 17.7851 55.5386 17.9635 55.3895 18.1139C55.2403 18.2642 55.0632 18.3835 54.8682 18.4649C54.6733 18.5463 54.4643 18.5881 54.2532 18.5881H19.5002C19.2888 18.5883 19.0795 18.5466 18.8842 18.4654C18.6889 18.3841 18.5114 18.2649 18.3619 18.1146C18.2124 17.9642 18.0938 17.7857 18.0129 17.5893C17.9319 17.3928 17.8903 17.1822 17.8903 16.9695V11.9385H5.24841ZM62.4988 80.3727H10.4983V74.7512H62.4988V80.3727ZM62.4988 67.6505H10.4983V62.0305H62.4988V67.6505ZM62.4988 54.9298H10.4983V49.3098H62.4988V54.9298ZM62.4988 42.2091H10.4983V36.5876H62.4988V42.2091ZM62.4988 23.8654V29.4884H10.4983V23.8654H62.4988Z" fill="white"/>
<path d="M52.6389 11.9385H21.1101V15.3494H52.6389V11.9385Z" fill="white"/>
<path d="M19.5002 6.13883e-06C19.2888 -0.00018881 19.0795 0.0415349 18.8842 0.122792C18.6889 0.20405 18.5114 0.323248 18.3619 0.473572C18.2124 0.623897 18.0938 0.802401 18.0128 0.998882C17.9319 1.19536 17.8903 1.40597 17.8903 1.61865V16.9698C17.8903 17.1825 17.9319 17.3931 18.0128 17.5896C18.0938 17.7861 18.2124 17.9646 18.3619 18.1149C18.5114 18.2653 18.6889 18.3845 18.8842 18.4657C19.0795 18.547 19.2888 18.5887 19.5002 18.5885H54.2532C54.4646 18.5891 54.6741 18.5476 54.8696 18.4665C55.0651 18.3854 55.2427 18.2662 55.3923 18.1158C55.5419 17.9654 55.6605 17.7867 55.7413 17.5901C55.8221 17.3934 55.8635 17.1826 55.8631 16.9698V1.61865C55.8635 1.40586 55.8221 1.19508 55.7413 0.998418C55.6605 0.801761 55.5419 0.623102 55.3923 0.472699C55.2427 0.322296 55.0651 0.203113 54.8696 0.121995C54.6741 0.0408759 54.4646 -0.000580445 54.2532 6.13883e-06L19.5002 6.13883e-06ZM52.6388 4.8693V15.3497H21.1101V3.24027H52.6388V4.8693Z" fill="#AAD4C8"/>
<path d="M62.4988 23.8662H10.4983V29.4877H62.4988V23.8662Z" fill="#82BFAB"/>
<path d="M62.4988 36.5879H10.4983V42.2109H62.4988V36.5879Z" fill="#82BFAB"/>
<path d="M62.4988 49.3105H10.4983V54.9306H62.4988V49.3105Z" fill="#82BFAB"/>
<path d="M62.4988 62.0312H10.4983V67.6513H62.4988V62.0312Z" fill="#82BFAB"/>
<path d="M62.4988 74.752H10.4983V80.3735H62.4988V74.752Z" fill="#82BFAB"/>
</g>
<defs>
<clipPath id="clip0_131_2303">
<rect width="73" height="104" fill="white"/>
</clipPath>
</defs>
</svg>
