<svg width="22" height="31" viewBox="0 0 22 31" fill="none" xmlns="http://www.w3.org/2000/svg">
<path d="M4.55298 12.1411V14.4176H16.6941V12.1411H4.55298Z" fill="#6B6C7E"/>
<path d="M4.55298 18.2118V15.9353H7.58826V18.2118H4.55298Z" fill="#6B6C7E"/>
<path d="M4.55298 19.7295V22.006H7.58826V19.7295H4.55298Z" fill="#6B6C7E"/>
<path d="M9.10583 19.7295V22.006H12.1411V19.7295H9.10583Z" fill="#6B6C7E"/>
<path d="M13.6588 19.7295V22.006H16.6941V19.7295H13.6588Z" fill="#6B6C7E"/>
<path d="M13.6588 18.2118V15.9353H16.6941V18.2118H13.6588Z" fill="#6B6C7E"/>
<path d="M12.1411 18.2118H9.10583V15.9353H12.1411V18.2118Z" fill="#6B6C7E"/>
<path fill-rule="evenodd" clip-rule="evenodd" d="M15.1764 0H0.758819C0.339723 0 0 0.339739 0 0.758819V29.594C0 30.0131 0.339723 30.3528 0.758819 30.3528H20.4881C20.9072 30.3528 21.2469 30.0131 21.2469 29.594V6.07056H15.9352C15.5161 6.07056 15.1764 5.73083 15.1764 5.31174V0ZM3.03528 11.3823C3.03528 10.9632 3.375 10.6235 3.7941 10.6235H17.4528C17.8719 10.6235 18.2117 10.9632 18.2117 11.3823V22.7646C18.2117 23.1837 17.8719 23.5234 17.4528 23.5234H3.7941C3.375 23.5234 3.03528 23.1837 3.03528 22.7646V11.3823Z" fill="#6B6C7E"/>
<path d="M20.8024 4.55274H16.694V0.444336L20.8024 4.55274Z" fill="#6B6C7E"/>
</svg>
