<svg width="29" height="29" viewBox="0 0 29 29" fill="none" xmlns="http://www.w3.org/2000/svg">
<path d="M0 24.1667C0 20.1668 9.66063 17.7222 14.5 17.7222C19.3394 17.7222 29 20.1668 29 24.1667V29H0V24.1667Z" fill="#6B6C7E"/>
<path fill-rule="evenodd" clip-rule="evenodd" d="M14.5 14.5C18.0592 14.5 20.9445 11.6147 20.9445 8.05556C20.9445 4.49637 18.0592 1.61111 14.5 1.61111C10.9408 1.61111 8.05557 4.49637 8.05557 8.05556C8.05557 11.6147 10.9408 14.5 14.5 14.5ZM14.5 16.1111C18.9489 16.1111 22.5556 12.5045 22.5556 8.05556C22.5556 3.60663 18.9489 0 14.5 0C10.0511 0 6.44446 3.60663 6.44446 8.05556C6.44446 12.5045 10.0511 16.1111 14.5 16.1111Z" fill="#6B6C7E"/>
</svg>
