<svg width="1600" height="945" viewBox="0 0 1600 945" fill="none" xmlns="http://www.w3.org/2000/svg">
<g opacity="0.2">
<g opacity="0.82">
<path d="M1142.8 325.32L1017.61 450.514C1001.99 466.135 1001.99 491.461 1017.61 507.082L1142.8 632.275C1158.43 647.896 1183.75 647.896 1199.37 632.275L1324.57 507.082C1340.19 491.461 1340.19 466.135 1324.57 450.514L1199.37 325.32C1183.75 309.699 1158.43 309.699 1142.8 325.32Z" stroke="#0EA59E" stroke-width="4" stroke-miterlimit="10"/>
</g>
<g opacity="0.66">
<path d="M1390.36 529.187L1265.17 654.38C1249.55 670.001 1249.55 695.327 1265.17 710.948L1390.36 836.142C1405.98 851.763 1431.31 851.763 1446.93 836.142L1572.13 710.948C1587.75 695.327 1587.75 670.001 1572.13 654.38L1446.93 529.187C1431.31 513.566 1405.98 513.566 1390.36 529.187Z" stroke="#0EA59E" stroke-width="4" stroke-miterlimit="10"/>
</g>
<g opacity="0.73">
<path d="M1360.18 28.2842L1234.98 153.477C1219.36 169.098 1219.36 194.425 1234.98 210.046L1360.18 335.239C1375.8 350.86 1401.12 350.86 1416.74 335.239L1541.94 210.046C1557.56 194.425 1557.56 169.098 1541.94 153.477L1416.74 28.2842C1401.12 12.6632 1375.8 12.6632 1360.18 28.2842Z" stroke="#0EA59E" stroke-width="4" stroke-miterlimit="10"/>
</g>
<g opacity="0.79">
<path d="M1108.1 517.93L982.907 643.123C967.286 658.744 967.286 684.071 982.907 699.691L1108.1 824.885C1123.72 840.506 1149.05 840.506 1164.67 824.885L1289.86 699.692C1305.48 684.071 1305.48 658.744 1289.86 643.123L1164.67 517.93C1149.05 502.309 1123.72 502.309 1108.1 517.93Z" stroke="#0EA59E" stroke-width="2" stroke-miterlimit="10"/>
</g>
<g opacity="0.98">
<path d="M1333.06 270.159L1207.86 395.352C1192.24 410.973 1192.24 436.3 1207.86 451.921L1333.06 577.114C1348.68 592.735 1374 592.735 1389.63 577.114L1514.82 451.921C1530.44 436.3 1530.44 410.973 1514.82 395.352L1389.63 270.159C1374 254.538 1348.68 254.538 1333.06 270.159Z" stroke="#0EA59E" stroke-width="2" stroke-miterlimit="10"/>
</g>
<g opacity="0.48">
<path d="M741.667 428.246L671.267 498.646C664.086 505.827 664.086 517.471 671.267 524.653L741.667 595.053C748.849 602.234 760.492 602.234 767.674 595.053L838.074 524.653C845.255 517.471 845.255 505.827 838.074 498.646L767.674 428.246C760.492 421.064 748.849 421.064 741.667 428.246Z" stroke="#0EA59E" stroke-width="3" stroke-miterlimit="10"/>
</g>
<g opacity="0.84">
<path d="M861.281 611.903L826.11 647.075C818.741 654.444 818.741 666.392 826.11 673.761L861.281 708.933C868.65 716.302 880.598 716.302 887.967 708.933L923.139 673.761C930.508 666.392 930.508 654.444 923.139 647.075L887.967 611.903C880.598 604.534 868.65 604.534 861.281 611.903Z" stroke="#0EA59E" stroke-width="2" stroke-miterlimit="10"/>
</g>
<g opacity="0.78">
<path d="M637.127 609.851L614.966 632.011C610.014 636.963 610.014 644.992 614.966 649.944L637.127 672.104C642.079 677.056 650.107 677.056 655.059 672.104L677.22 649.944C682.172 644.992 682.172 636.963 677.22 632.011L655.059 609.851C650.107 604.899 642.079 604.899 637.127 609.851Z" stroke="#0EA59E" stroke-width="2" stroke-miterlimit="10"/>
</g>
<g opacity="0.71">
<path d="M1056.52 221.657L1022.48 255.697C1014.79 263.378 1014.79 275.833 1022.48 283.514L1056.52 317.554C1064.2 325.236 1076.65 325.236 1084.33 317.554L1118.37 283.514C1126.05 275.833 1126.05 263.378 1118.37 255.697L1084.33 221.657C1076.65 213.975 1064.2 213.975 1056.52 221.657Z" stroke="#0EA59E" stroke-width="2" stroke-miterlimit="10"/>
</g>
<g opacity="0.57">
<path d="M1053.1 478.533L967.289 564.34C960.06 571.569 960.06 583.289 967.289 590.517L1053.1 676.325C1060.32 683.553 1072.04 683.553 1079.27 676.325L1165.08 590.517C1172.31 583.289 1172.31 571.569 1165.08 564.34L1079.27 478.533C1072.04 471.304 1060.32 471.304 1053.1 478.533Z" stroke="#0EA59E" stroke-width="2" stroke-miterlimit="10"/>
</g>
</g>
<g opacity="0.2">
<path opacity="0.6" d="M131.668 567.781L44.27 655.179C33.3627 666.087 33.3627 683.771 44.27 694.678L131.668 782.077C142.576 792.984 160.26 792.984 171.167 782.077L258.566 694.678C269.473 683.771 269.473 666.087 258.566 655.179L171.167 567.781C160.26 556.873 142.576 556.873 131.668 567.781Z" stroke="#0EA59E" stroke-width="4" stroke-miterlimit="10"/>
<path opacity="0.26" d="M304.514 710.114L217.116 797.512C206.208 808.42 206.208 826.104 217.116 837.011L304.514 924.41C315.421 935.317 333.106 935.317 344.013 924.41L431.411 837.011C442.319 826.104 442.319 808.42 431.412 797.512L344.013 710.114C333.106 699.207 315.421 699.206 304.514 710.114Z" stroke="#0EA59E" stroke-width="4" stroke-miterlimit="10"/>
<path opacity="0.59" d="M283.436 360.408L196.038 447.806C185.13 458.714 185.13 476.398 196.038 487.305L283.436 574.704C294.343 585.611 312.028 585.611 322.935 574.704L410.333 487.305C421.241 476.398 421.241 458.714 410.333 447.806L322.935 360.408C312.028 349.5 294.343 349.5 283.436 360.408Z" stroke="#0EA59E" stroke-width="4" stroke-miterlimit="10"/>
<path opacity="0.73" d="M107.437 702.255L20.0383 789.654C9.13097 800.561 9.13096 818.245 20.0383 829.153L107.437 916.551C118.344 927.459 136.028 927.459 146.936 916.551L234.334 829.153C245.241 818.245 245.241 800.561 234.334 789.654L146.936 702.255C136.028 691.348 118.344 691.348 107.437 702.255Z" stroke="#0EA59E" stroke-width="2" stroke-miterlimit="10"/>
<path opacity="0.54" d="M264.503 529.265L177.104 616.664C166.197 627.571 166.197 645.255 177.104 656.163L264.503 743.561C275.41 754.468 293.094 754.468 304.002 743.561L391.4 656.163C402.307 645.255 402.307 627.571 391.4 616.664L304.002 529.265C293.094 518.358 275.41 518.358 264.503 529.265Z" stroke="#0EA59E" stroke-width="2" stroke-miterlimit="10"/>
<path opacity="0.5" d="M482.135 352.871L432.984 402.022C427.969 407.037 427.969 415.166 432.984 420.181L482.135 469.332C487.149 474.346 495.279 474.346 500.293 469.332L549.444 420.181C554.458 415.166 554.458 407.037 549.444 402.022L500.293 352.871C495.279 347.857 487.149 347.857 482.135 352.871Z" stroke="#0EA59E" stroke-width="3" stroke-miterlimit="10"/>
<path opacity="0.19" d="M474.986 309.922L450.442 334.465C445.295 339.613 445.295 347.958 450.442 353.105L474.986 377.648C480.133 382.796 488.478 382.796 493.625 377.649L518.169 353.105C523.316 347.958 523.316 339.613 518.169 334.465L493.625 309.922C488.478 304.775 480.133 304.775 474.986 309.922Z" stroke="#0EA59E" stroke-width="2" stroke-miterlimit="10"/>
<path opacity="0.5" d="M448.002 549.377L432.524 564.855C429.068 568.312 429.068 573.915 432.524 577.371L448.002 592.85C451.459 596.306 457.062 596.306 460.518 592.85L475.997 577.371C479.453 573.915 479.453 568.312 475.997 564.855L460.518 549.377C457.062 545.921 451.459 545.921 448.002 549.377Z" stroke="#0EA59E" stroke-width="2" stroke-miterlimit="10"/>
<path opacity="0.43" d="M71.4378 495.397L47.672 519.163C42.3101 524.524 42.3101 533.218 47.672 538.58L71.4378 562.346C76.7997 567.707 85.4931 567.707 90.855 562.346L114.621 538.58C119.983 533.218 119.983 524.524 114.621 519.163L90.855 495.397C85.4931 490.035 76.7997 490.035 71.4378 495.397Z" stroke="#0EA59E" stroke-width="2" stroke-miterlimit="10"/>
<path opacity="0.49" d="M69.0419 674.743L9.14289 734.642C4.09341 739.692 4.09341 747.879 9.14289 752.928L69.0419 812.827C74.0914 817.877 82.2782 817.877 87.3277 812.827L147.227 752.928C152.276 747.879 152.276 739.692 147.227 734.642L87.3277 674.743C82.2782 669.694 74.0914 669.694 69.0419 674.743Z" stroke="#0EA59E" stroke-width="2" stroke-miterlimit="10"/>
</g>
</svg>
