<svg width="29" height="29" viewBox="0 0 29 29" fill="none" xmlns="http://www.w3.org/2000/svg">
<path fill-rule="evenodd" clip-rule="evenodd" d="M14.5 0C12.2399 0 9.47535 0.826669 7.84281 1.39457C7.04717 1.67137 6.64809 2.53622 6.91167 3.33637L8.64184 8.58883C8.26533 9.408 8.05556 10.3194 8.05556 11.2778C8.05556 14.837 10.9408 17.7222 14.5 17.7222C18.0592 17.7222 20.9444 14.837 20.9444 11.2778C20.9444 10.3194 20.7347 9.408 20.3581 8.58875L22.0883 3.33637C22.3519 2.53622 21.9528 1.67137 21.1572 1.39457C19.5247 0.826669 16.7601 0 14.5 0ZM9.9727 10.009C12.9989 8.76614 16.0012 8.76614 19.0273 10.009C19.0761 10.029 19.1263 10.0441 19.1773 10.0541C19.2791 10.4445 19.3333 10.8545 19.3333 11.2778C19.3333 13.9471 17.1694 16.1111 14.5 16.1111C11.8306 16.1111 9.66667 13.9471 9.66667 11.2778C9.66667 10.8545 9.72089 10.4445 9.82271 10.0541C9.8737 10.0441 9.92389 10.029 9.9727 10.009ZM15.3056 4.02778H16.9167V5.63889H15.3056V7.25H13.6944V5.63889H12.0833V4.02778H13.6944V2.41667H15.3056V4.02778Z" fill="#6B6C7E"/>
<path fill-rule="evenodd" clip-rule="evenodd" d="M13.5743 21.0999L8.76332 17.7222C8.76332 17.7222 0 20.4556 0 23.7372V29.0001H29V23.7372C29 20.4556 20.2367 17.7222 20.2367 17.7222L15.4257 21.0999C14.8702 21.49 14.1298 21.49 13.5743 21.0999ZM20.9444 20.9444H22.5556V22.5555H24.1667V24.1666H22.5556V25.7777H20.9444V24.1666H19.3333V22.5555H20.9444V20.9444Z" fill="#6B6C7E"/>
</svg>
