<svg width="19" height="35" viewBox="0 0 19 35" fill="none" xmlns="http://www.w3.org/2000/svg">
<path d="M9.5 -4.15258e-07C14.7509 -1.85734e-07 19 4.305 19 9.625L19 28C19 31.8675 15.9082 35 12.0909 35C8.27364 35 5.18182 31.8675 5.18182 28L5.18182 13.125C5.18182 10.71 7.11637 8.75 9.5 8.75C11.8836 8.75 13.8182 10.71 13.8182 13.125L13.8182 26.25L10.3636 26.25L10.3636 12.9675C10.3636 12.005 8.63636 12.005 8.63636 12.9675L8.63636 28C8.63636 29.925 10.1909 31.5 12.0909 31.5C13.9909 31.5 15.5455 29.925 15.5455 28L15.5455 9.625C15.5455 6.2475 12.8336 3.5 9.5 3.5C6.16637 3.5 3.45455 6.2475 3.45455 9.625L3.45455 26.25L7.59925e-07 26.25L1.48663e-06 9.625C1.71917e-06 4.305 4.24909 -6.44783e-07 9.5 -4.15258e-07Z" fill="black"/>
</svg>
