<svg width="34" height="22" viewBox="0 0 34 22" fill="none" xmlns="http://www.w3.org/2000/svg">
<path d="M22.5561 11.974C25.7704 11.974 28.4002 9.34415 28.4002 6.12986C28.4002 2.91558 25.7704 0.285706 22.5561 0.285706C19.3418 0.285706 16.7119 2.91558 16.7119 6.12986C16.7119 9.34415 19.3418 11.974 22.5561 11.974ZM22.5561 1.25973C25.2346 1.25973 27.4262 3.45129 27.4262 6.12986C27.4262 8.80843 25.2346 11 22.5561 11C19.8775 11 17.6859 8.80843 17.6859 6.12986C17.6859 3.45129 19.8775 1.25973 22.5561 1.25973Z" fill="white"/>
<path d="M26.9392 12.9481H18.173C14.6665 12.9481 11.8418 15.7727 11.8418 19.2792V21.7143H12.8158V19.2792C12.8158 16.3084 15.2022 13.9221 18.173 13.9221H26.9392C29.91 13.9221 32.2963 16.3084 32.2963 19.2792V21.7143H33.2704V19.2792C33.2704 15.7727 30.4457 12.9481 26.9392 12.9481Z" fill="white"/>
<path d="M11.5142 12.0504C14.7495 12.0504 17.3965 9.40335 17.3965 6.16806C17.3965 2.93276 14.7495 0.285706 11.5142 0.285706C8.27889 0.285706 5.63184 2.93276 5.63184 6.16806C5.63184 9.40335 8.27889 12.0504 11.5142 12.0504ZM11.5142 1.2661C14.2103 1.2661 16.4162 3.47198 16.4162 6.16806C16.4162 8.86414 14.2103 11.07 11.5142 11.07C8.81811 11.07 6.61223 8.86414 6.61223 6.16806C6.61223 3.47198 8.81811 1.2661 11.5142 1.2661Z" fill="white"/>
<path d="M15.9265 13.0308H7.10302C3.57361 13.0308 0.730469 15.874 0.730469 19.4034V21.8544H1.71086V19.4034C1.71086 16.4132 4.11282 14.0112 7.10302 14.0112H15.9265V13.0308Z" fill="white"/>
</svg>
