<svg width="14" height="10" viewBox="0 0 14 10" fill="none" xmlns="http://www.w3.org/2000/svg">
<path d="M9.5 7.00002C9.36739 7.00002 9.24021 7.0527 9.14645 7.14647C9.05268 7.24023 9 7.36741 9 7.50002C9 7.63263 9.05268 7.75981 9.14645 7.85357C9.24021 7.94734 9.36739 8.00002 9.5 8.00002H11.5C11.6326 8.00002 11.7598 7.94734 11.8536 7.85357C11.9473 7.75981 12 7.63263 12 7.50002C12 7.36741 11.9473 7.24023 11.8536 7.14647C11.7598 7.0527 11.6326 7.00002 11.5 7.00002H9.5Z" fill="#8C8FA5"/>
<path d="M0 2C0 1.46957 0.210714 0.960859 0.585786 0.585786C0.960859 0.210714 1.46957 0 2 0H12C12.5304 0 13.0391 0.210714 13.4142 0.585786C13.7893 0.960859 14 1.46957 14 2V8C14 8.53043 13.7893 9.03914 13.4142 9.41421C13.0391 9.78929 12.5304 10 12 10H2C1.46957 10 0.960859 9.78929 0.585786 9.41421C0.210714 9.03914 0 8.53043 0 8V2ZM13 2C13 1.73478 12.8946 1.48043 12.7071 1.29289C12.5196 1.10536 12.2652 1 12 1H2C1.73478 1 1.48043 1.10536 1.29289 1.29289C1.10536 1.48043 1 1.73478 1 2V3H13V2ZM1 8C1 8.26522 1.10536 8.51957 1.29289 8.70711C1.48043 8.89464 1.73478 9 2 9H12C12.2652 9 12.5196 8.89464 12.7071 8.70711C12.8946 8.51957 13 8.26522 13 8V4H1V8Z" fill="#8C8FA5"/>
</svg>
