<svg width="12" height="10" viewBox="0 0 12 10" fill="none" xmlns="http://www.w3.org/2000/svg">
<path d="M3.57129 0.714286C3.92447 0.714286 4.26972 0.819016 4.56338 1.01523C4.85704 1.21145 5.08592 1.49034 5.22108 1.81664C5.35623 2.14293 5.39159 2.50198 5.32269 2.84838C5.25379 3.19477 5.08372 3.51295 4.83398 3.76269C4.58424 4.01243 4.26606 4.1825 3.91967 4.2514C3.57327 4.3203 3.21422 4.28494 2.88793 4.14979C2.56163 4.01463 2.28274 3.78575 2.08652 3.49209C1.89031 3.19843 1.78558 2.85318 1.78558 2.5C1.78558 2.0264 1.97371 1.5722 2.3086 1.23731C2.64349 0.902423 3.09769 0.714286 3.57129 0.714286ZM3.57129 0C3.07684 0 2.59349 0.146622 2.18236 0.421326C1.77124 0.69603 1.45081 1.08648 1.26159 1.54329C1.07237 2.00011 1.02286 2.50277 1.11933 2.98773C1.21579 3.47268 1.45389 3.91814 1.80352 4.26777C2.15315 4.6174 2.59861 4.8555 3.08356 4.95196C3.56852 5.04843 4.07118 4.99892 4.528 4.8097C4.98481 4.62048 5.37526 4.30005 5.64996 3.88893C5.92467 3.4778 6.07129 2.99445 6.07129 2.5C6.07129 1.83696 5.8079 1.20107 5.33906 0.732233C4.87022 0.263392 4.23433 0 3.57129 0Z" fill="#8C8FA5"/>
<path d="M7.14286 9.99996H6.42857V8.21424C6.42857 7.74064 6.24043 7.28644 5.90555 6.95155C5.57066 6.61666 5.11646 6.42853 4.64286 6.42853H2.5C2.0264 6.42853 1.5722 6.61666 1.23731 6.95155C0.902423 7.28644 0.714286 7.74064 0.714286 8.21424V9.99996H0V8.21424C0 7.5512 0.263392 6.91532 0.732233 6.44647C1.20107 5.97763 1.83696 5.71424 2.5 5.71424H4.64286C5.3059 5.71424 5.94178 5.97763 6.41062 6.44647C6.87947 6.91532 7.14286 7.5512 7.14286 8.21424V9.99996Z" fill="#8C8FA5"/>
<path d="M7.57129 0.714286C7.92447 0.714286 8.26972 0.819016 8.56338 1.01523C8.85704 1.21145 9.08592 1.49034 9.22108 1.81664C9.35623 2.14293 9.39159 2.50198 9.32269 2.84838C9.25379 3.19477 9.08372 3.51295 8.83398 3.76269C8.58424 4.01243 8.26606 4.1825 7.91967 4.2514C7.57327 4.3203 7.21422 4.28494 6.88793 4.14979C6.56163 4.01463 6.28274 3.78575 6.08652 3.49209C5.89031 3.19843 5.78558 2.85318 5.78558 2.5C5.78558 2.0264 5.97371 1.5722 6.3086 1.23731C6.64349 0.902423 7.09769 0.714286 7.57129 0.714286ZM7.57129 0C7.07684 0 6.59349 0.146622 6.18236 0.421326C5.77124 0.69603 5.45081 1.08648 5.26159 1.54329C5.07237 2.00011 5.02286 2.50277 5.11933 2.98773C5.21579 3.47268 5.45389 3.91814 5.80352 4.26777C6.15315 4.6174 6.59861 4.8555 7.08356 4.95196C7.56852 5.04843 8.07118 4.99892 8.528 4.8097C8.98481 4.62048 9.37526 4.30005 9.64996 3.88893C9.92467 3.4778 10.0713 2.99445 10.0713 2.5C10.0713 1.83696 9.8079 1.20107 9.33906 0.732233C8.87022 0.263392 8.23433 0 7.57129 0Z" fill="#8C8FA5"/>
<path d="M11.1429 9.99996H10.4286V8.21424C10.4286 7.74064 10.2404 7.28644 9.90555 6.95155C9.57066 6.61666 9.11646 6.42853 8.64286 6.42853H6.5C6.0264 6.42853 5.5722 6.61666 5.23731 6.95155C4.90242 7.28644 4.71429 7.74064 4.71429 8.21424V9.99996H4V8.21424C4 7.5512 4.26339 6.91532 4.73223 6.44647C5.20107 5.97763 5.83696 5.71424 6.5 5.71424H8.64286C9.3059 5.71424 9.94178 5.97763 10.4106 6.44647C10.8795 6.91532 11.1429 7.5512 11.1429 8.21424V9.99996Z" fill="#8C8FA5"/>
</svg>
